<?xml version="1.0" encoding="UTF-8"?>
<svg id="Layer_2" xmlns="http://www.w3.org/2000/svg" viewBox="0 0 690.57 48.1">
  <defs>
    <style>
      .cls-1 {
        fill: #b4aa9b;
      }

      .cls-2 {
        fill: #877b6d;
      }

      .cls-3 {
        fill: #635b50;
      }

      .cls-4 {
        fill: #dfdfdd;
      }

      .cls-5 {
        fill: #8d8987;
      }

      .cls-6 {
        fill: #a6a4a2;
      }

      .cls-7 {
        fill: #b2b0ac;
      }

      .cls-8 {
        fill: #4c4034;
      }

      .cls-9 {
        fill: #4b4138;
      }

      .cls-10 {
        fill: #e7e3de;
      }

      .cls-11 {
        fill: #4c3f3e;
      }

      .cls-12 {
        fill: #b2ad9d;
      }

      .cls-13 {
        fill: #3b302c;
      }

      .cls-14 {
        fill: #8b7b74;
      }

      .cls-15 {
        fill: #b6b5b2;
      }

      .cls-16 {
        fill: #897b75;
      }

      .cls-17 {
        fill: #61453a;
      }

      .cls-18 {
        fill: #473a36;
      }

      .cls-19 {
        fill: #463e3a;
      }

      .cls-20 {
        fill: #b7b7b6;
      }

      .cls-21 {
        fill: #f1e8de;
      }

      .cls-22 {
        fill: #9e8e84;
      }

      .cls-23 {
        fill: #4d3f3e;
      }

      .cls-24 {
        fill: #ebe5d9;
      }

      .cls-25 {
        fill: #918b89;
      }

      .cls-26 {
        fill: #6f6563;
      }

      .cls-27 {
        fill: #785a51;
      }

      .cls-28 {
        fill: #95938f;
      }

      .cls-29 {
        fill: #6b6155;
      }

      .cls-30 {
        fill: #a0959a;
      }

      .cls-31 {
        fill: #5e5045;
      }

      .cls-32 {
        fill: #4c3b38;
      }

      .cls-33 {
        fill: #625957;
      }

      .cls-34 {
        fill: #878483;
      }

      .cls-35 {
        fill: #b5afa9;
      }

      .cls-36 {
        fill: #807b70;
      }

      .cls-37 {
        fill: #6e6a63;
      }

      .cls-38 {
        fill: #958985;
      }

      .cls-39 {
        fill: #584c3f;
      }

      .cls-40 {
        fill: #f7f6f0;
      }

      .cls-41 {
        fill: #4d392e;
      }

      .cls-42 {
        fill: #4e473e;
      }

      .cls-43 {
        fill: #958e84;
      }

      .cls-44 {
        fill: #4b413d;
      }

      .cls-45 {
        fill: #6f615b;
      }

      .cls-46 {
        fill: #534848;
      }

      .cls-47 {
        fill: #b9b5ae;
      }

      .cls-48 {
        fill: #999592;
      }

      .cls-49 {
        fill: #b2ada9;
      }

      .cls-50 {
        fill: #655a54;
      }

      .cls-51 {
        fill: #705a52;
      }

      .cls-52 {
        fill: #5d504d;
      }

      .cls-53 {
        fill: #1594c6;
      }

      .cls-54 {
        fill: #c0b9ad;
      }

      .cls-55 {
        fill: #5c4d41;
      }

      .cls-56 {
        fill: #eff0ef;
      }

      .cls-57 {
        fill: #6d5441;
      }

      .cls-58 {
        fill: #dfdcd5;
      }

      .cls-59 {
        fill: #8f7f71;
      }

      .cls-60 {
        fill: #949086;
      }

      .cls-61 {
        fill: #725d4e;
      }

      .cls-62 {
        fill: #615845;
      }

      .cls-63 {
        fill: #9d9286;
      }

      .cls-64 {
        fill: #746953;
      }

      .cls-65 {
        fill: #989283;
      }

      .cls-66 {
        fill: #d2d3d4;
      }

      .cls-67 {
        fill: #9f9e9b;
      }

      .cls-68 {
        fill: #c6c3c2;
      }

      .cls-69 {
        fill: #c3b8ad;
      }

      .cls-70 {
        fill: #eae6dd;
      }

      .cls-71 {
        fill: #6d665f;
      }

      .cls-72 {
        fill: #332b25;
      }

      .cls-73 {
        fill: #8a857f;
      }

      .cls-74 {
        fill: #82776b;
      }

      .cls-75 {
        fill: #e8e5e1;
      }

      .cls-76 {
        fill: #a09c96;
      }

      .cls-77 {
        fill: #deddd9;
      }

      .cls-78 {
        fill: #7b6e66;
      }

      .cls-79 {
        fill: #8c7a72;
      }

      .cls-80 {
        fill: #453c39;
      }

      .cls-81 {
        fill: #514642;
      }

      .cls-82 {
        fill: #675d52;
      }

      .cls-83 {
        fill: #7f796f;
      }

      .cls-84 {
        fill: #e5dfde;
      }

      .cls-85 {
        fill: #aca593;
      }

      .cls-86 {
        fill: #8e8380;
      }

      .cls-87 {
        fill: #817764;
      }

      .cls-88 {
        fill: #6c5249;
      }

      .cls-89 {
        fill: #89877d;
      }

      .cls-90 {
        fill: #857a71;
      }

      .cls-91 {
        fill: #675f53;
      }

      .cls-92 {
        fill: #787468;
      }

      .cls-93 {
        fill: #826c52;
      }

      .cls-94 {
        fill: #b1a698;
      }

      .cls-95 {
        fill: #453632;
      }

      .cls-96 {
        fill: #d8d5c3;
      }

      .cls-97 {
        fill: #382f2e;
      }

      .cls-98 {
        fill: #4b3836;
      }

      .cls-99 {
        fill: #ada599;
      }

      .cls-100 {
        fill: #78716a;
      }

      .cls-101 {
        fill: #68635b;
      }

      .cls-102 {
        fill: #4a4847;
      }

      .cls-103 {
        fill: #807060;
      }

      .cls-104 {
        fill: #f1f1ed;
      }

      .cls-105 {
        fill: #746151;
      }

      .cls-106 {
        fill: #847d7c;
      }

      .cls-107 {
        fill: #f7f8f6;
      }

      .cls-108 {
        fill: #a29a88;
      }

      .cls-109 {
        fill: #716554;
      }

      .cls-110 {
        fill: #766d65;
      }

      .cls-111 {
        fill: #bab9b4;
      }

      .cls-112 {
        fill: #4e423f;
      }

      .cls-113 {
        fill: #312424;
      }

      .cls-114 {
        fill: #3b2d23;
      }

      .cls-115 {
        fill: #90897a;
      }

      .cls-116 {
        fill: #574a46;
      }

      .cls-117 {
        fill: #7b705c;
      }

      .cls-118 {
        fill: #4c4442;
      }

      .cls-119 {
        fill: #8f7664;
      }

      .cls-120 {
        fill: #938c82;
      }

      .cls-121 {
        fill: #807668;
      }

      .cls-122 {
        fill: #6b6455;
      }

      .cls-123 {
        fill: #b6b6b2;
      }

      .cls-124 {
        fill: #ececeb;
      }

      .cls-125 {
        fill: #d8d3ce;
      }

      .cls-126 {
        fill: #5f503a;
      }

      .cls-127 {
        fill: #8d8d88;
      }

      .cls-128 {
        fill: #766657;
      }

      .cls-129 {
        fill: #847d72;
      }

      .cls-130 {
        fill: #b0a79a;
      }

      .cls-131 {
        fill: #766d6b;
      }

      .cls-132 {
        fill: #b5a69b;
      }

      .cls-133 {
        fill: #b9b8b4;
      }

      .cls-134 {
        fill: #635952;
      }

      .cls-135 {
        fill: #685a45;
      }

      .cls-136 {
        fill: #9d9288;
      }

      .cls-137 {
        fill: #fbfaf9;
      }

      .cls-138 {
        fill: #897f75;
      }

      .cls-139 {
        fill: #f5f3f2;
      }

      .cls-140 {
        fill: #665c4f;
      }

      .cls-141 {
        fill: #d8cbb4;
      }

      .cls-142 {
        fill: #dedcd5;
      }

      .cls-143 {
        fill: #a2988a;
      }

      .cls-144 {
        fill: #786c5c;
      }

      .cls-145 {
        fill: #817f77;
      }

      .cls-146 {
        fill: #c1b09e;
      }

      .cls-147 {
        fill: #9e9496;
      }

      .cls-148 {
        fill: #3e3332;
      }

      .cls-149 {
        fill: #80776d;
      }

      .cls-150 {
        fill: #787066;
      }

      .cls-151 {
        fill: #91847e;
      }

      .cls-152 {
        fill: #8a8479;
      }

      .cls-153 {
        fill: #e3dfda;
      }

      .cls-154 {
        fill: #80776b;
      }

      .cls-155 {
        fill: #939088;
      }

      .cls-156 {
        fill: #7a746e;
      }

      .cls-157 {
        fill: #e1dad5;
      }

      .cls-158 {
        fill: #524a3a;
      }

      .cls-159 {
        fill: #8d806e;
      }

      .cls-160 {
        fill: #ebd8be;
      }

      .cls-161 {
        fill: #7f7971;
      }

      .cls-162 {
        fill: #e5ded5;
      }

      .cls-163 {
        fill: #a19f99;
      }

      .cls-164 {
        fill: #e5e5e2;
      }

      .cls-165 {
        fill: #61534b;
      }

      .cls-166 {
        fill: #fefefe;
      }

      .cls-167 {
        fill: #eeeae3;
      }

      .cls-168 {
        fill: #5f5346;
      }

      .cls-169 {
        fill: #33302c;
      }

      .cls-170 {
        fill: #7b6f65;
      }

      .cls-171 {
        fill: #888279;
      }

      .cls-172 {
        fill: #56504c;
      }

      .cls-173 {
        fill: #7c6254;
      }

      .cls-174 {
        fill: #8d847c;
      }

      .cls-175 {
        fill: #a59c8e;
      }

      .cls-176 {
        fill: #81776f;
      }

      .cls-177 {
        fill: #97948e;
      }

      .cls-178 {
        fill: #978872;
      }

      .cls-179 {
        fill: #c8b7a4;
      }

      .cls-180 {
        fill: #9e9183;
      }

      .cls-181 {
        fill: #493a32;
      }

      .cls-182 {
        fill: #433936;
      }

      .cls-183 {
        fill: #8f8487;
      }

      .cls-184 {
        fill: #6f5e5e;
      }

      .cls-185 {
        fill: #766d63;
      }

      .cls-186 {
        fill: #b6af9f;
      }

      .cls-187 {
        fill: #8a715a;
      }

      .cls-188 {
        fill: #adaba7;
      }

      .cls-189 {
        fill: #6e6055;
      }

      .cls-190 {
        fill: #bcbbbc;
      }

      .cls-191 {
        fill: #a4a39e;
      }

      .cls-192 {
        fill: #9d928f;
      }

      .cls-193 {
        fill: #625747;
      }

      .cls-194 {
        fill: #eed;
      }

      .cls-195 {
        fill: #a7a194;
      }

      .cls-196 {
        fill: #d6d3cb;
      }

      .cls-197 {
        fill: #6c5a53;
      }

      .cls-198 {
        fill: #786f6d;
      }

      .cls-199 {
        fill: #dcdbdb;
      }

      .cls-200 {
        fill: #473d38;
      }

      .cls-201 {
        fill: #897e76;
      }

      .cls-202 {
        fill: #998b81;
      }

      .cls-203 {
        fill: #797266;
      }

      .cls-204 {
        fill: #443a32;
      }

      .cls-205 {
        fill: #847769;
      }

      .cls-206 {
        fill: #f6f4f2;
      }

      .cls-207 {
        fill: #918772;
      }

      .cls-208 {
        fill: #353130;
      }

      .cls-209 {
        fill: #9e9992;
      }

      .cls-210 {
        fill: #c5c3c4;
      }

      .cls-211 {
        fill: #6d6552;
      }

      .cls-212 {
        fill: #4f4843;
      }

      .cls-213 {
        fill: #aca7a8;
      }

      .cls-214 {
        fill: #726662;
      }

      .cls-215 {
        fill: #c6c5c5;
      }

      .cls-216 {
        fill: #9b927e;
      }

      .cls-217 {
        fill: #cccdc1;
      }

      .cls-218 {
        fill: #a3a399;
      }

      .cls-219 {
        fill: #5f5a50;
      }

      .cls-220 {
        fill: #504134;
      }

      .cls-221 {
        fill: #bab1a0;
      }

      .cls-222 {
        fill: #a49787;
      }

      .cls-223 {
        fill: #91948a;
      }

      .cls-224 {
        fill: #69614a;
      }

      .cls-225 {
        fill: #473e39;
      }

      .cls-226 {
        fill: #6a574b;
      }

      .cls-227 {
        fill: #635b53;
      }

      .cls-228 {
        fill: #938987;
      }

      .cls-229 {
        fill: #a09c8d;
      }

      .cls-230 {
        fill: #898377;
      }

      .cls-231 {
        fill: #6f645d;
      }

      .cls-232 {
        fill: #95868b;
      }

      .cls-233 {
        fill: #6c4d44;
      }

      .cls-234 {
        fill: #807165;
      }

      .cls-235 {
        fill: #988980;
      }

      .cls-236 {
        fill: #7d6d58;
      }
    </style>
  </defs>
  <g id="Layer_1-2" data-name="Layer_1">
    <g>
      <path class="cls-120" d="M56.1,24.88c-.1,0-.19,0-.29-.01-.09-.01-.19-.02-.28,0-.5.12-1,.07-1.49-.06-4.5,0-9,.12-13.5.16-.42,0-.85.06-1.26-.08-.66-.09-1.32-.01-1.98-.03-1-.03-2,.15-3-.07-1.01-.09-2.02,0-3.03,0-1.67.05-3.33,0-5,.11-.3.1-.62.12-.94.14-.55.04-1.11-.1-1.64.16-.09.07-.1.15-.05.25.48,0,.96.02,1.43.01,4.54-.1,9.08-.17,13.62-.13,5.05.04,10.09-.06,15.14-.06.77,0,1.54,0,2.31-.01-.02-.12-.03-.25-.04-.37Z"/>
      <path class="cls-120" d="M132.05,23.58c-.23.09-.46.1-.7.11-2.84.06-5.68.05-8.52.12-.18,0-.37,0-.55-.06-.15-.02-.29-.03-.44,0-.62.15-1.24.07-1.87.1-4.47.06-8.94.13-13.41.19-2.52.04-5.05.08-7.57.11-.15,0-.3,0-.46,0-.62,0-1.24.02-1.86.03.02.12.03.24.05.35,1.34-.02,2.69-.04,4.03-.06,10.6-.15,21.19-.28,31.79-.41.33-.3.86.25,1.15-.26-.49-.52-1.09-.23-1.65-.22Z"/>
      <path class="cls-56" d="M3.5,22.52c.23-.26.53-.12.8-.16.3.17.62.03.92.07.02,0,.07.03.07.03.04-.06.03-.1-.04-.12.23-.26.53-.13.8-.16.5.15.99.04,1.49,0,3.57-.36,7.15-.64,10.74-.65.6-.03,1.21.03,1.79-.15.2-.03.41-.06.6.04.23.28.08.41-.2.53,1.21-.17,2.4-.28,3.61-.31.26,0,.52-.1.76.09.22.24.51.04.75.14.18.17.39.1.49.11-.09.03-.28.03-.47-.09-.22-.18-.62.16-.75-.27.4-.39.91-.25,1.36-.24.77.01,1.39.54,2.22.57-.2.42-.44.44-.66.46-1.66.19-3.33.21-5,.25-2.19.05-4.39.01-6.59.21-2.11.19-4.24.12-6.36.12-.4,0-.8-.02-1.17.17-1.21.36-2.44.21-3.66.17-.67-.46-1.44-.1-2.15-.24-.02,0-.03-.04-.04-.07,0,.02,0,.04,0,.09.59.05,1.18-.05,1.77.02.07.08.08.17.01.26-.49.3-1.04.14-1.57.19-.38-.03-.79.1-1.13-.2,0-.11.17-.22,0-.32.46-.48,1.09-.22,1.63-.35,0,0,.06,0,.07-.02.06-.12-.11-.05-.11-.13Z"/>
      <path class="cls-210" d="M55.4,20.2c-7.31.14-14.62.34-21.94.47-.1.16-.08.29.07.4.34.18.72.14,1.08.14,1.31,0,2.62-.04,3.93-.07.46.01.92,0,1.38-.09.33-.12.68-.11,1.02-.11,4.82-.07,9.64-.14,14.46-.2-.01-.18-.02-.36,0-.54Z"/>
      <path class="cls-20" d="M129.5,19.08c-1.08.04-2.17-.05-3.25.1-3.8.05-7.6.11-11.4.16-6.36.09-12.73.18-19.09.28.03.13.07.27.1.4,10.87-.18,21.73-.32,32.6-.48.44,0,.91.1,1.31-.2.07-.25-.1-.27-.27-.26Z"/>
      <path class="cls-133" d="M156.67,17.47c.26-.19.56-.13.85-.13,5.86-.09,11.71-.21,17.57-.25,2.62-.02,5.23.13,7.84.38.1,0,.19.07.29.11,0,.25.32.45.11.72-.36.12-.76.08-1.12.23-.89-.14-1.8.08-2.69-.11-.43-.29.06-.33.12-.49-1.87-.29-3.75-.32-5.63-.3-1.29,0-2.59.21-3.87.16-2.14-.09-4.28.03-6.41,0-.6-.01-1.2.26-1.8,0-1.32-.28-2.64-.02-3.97-.08-.44-.02-.91.15-1.29-.22Z"/>
      <path class="cls-99" d="M11.67,25.13c-2.19-.02-4.36-.31-6.53-.47-1.18-.09-2.36-.21-3.54-.33-.33-.03-.69-.05-.94-.33.19-.2.42-.19.66-.16,1.04.25,2.1.22,3.16.2.2,0,.39.01.58.06,2.14.07,4.28.2,6.42.16,1.9-.04,3.81.14,5.71.06.32-.01.71-.07.88.35-.25.32-.61.24-.94.26-.89.06-1.78-.05-2.66.12-1.19,0-2.39.04-3.66-.25.32.22.74-.17.86.32Z"/>
      <path class="cls-203" d="M154.73,24.52c-2.76.1-5.53.03-8.29-.02-.27-.18-.57-.09-.85-.08-2.35.09-4.71.06-7.05-.1-.89-.06-1.79-.01-2.67-.14-.09,0-.19,0-.28,0-.03-.37.29-.36.5-.45.13-.03.26-.03.39,0,.62.13,1.25-.03,1.87.1.8.17,1.61.03,2.41.05,2.99-.09,5.97.14,8.96.08.96.23,1.94.04,2.9.08.6.02,1.21-.08,1.81.05.2.08.34.21.3.45Z"/>
      <path class="cls-68" d="M129.77,19.29c-.82-.31-1.66-.04-2.5-.1-.34-.03-.69,0-1.03,0,.28-.22.61-.15.92-.14,3.69.07,7.34-.47,11.01-.69,1.55-.09,3.1-.37,4.66-.33.05.06.07.13.06.21-.31.45-.98.2-1.29.66-.11.05-.22.07-.34.05-.11-.48-.46-.2-.71-.22-.19,0-.38,0-.57-.05-.43-.15-.83-.09-1.22.13-.09.02-.18.01-.26,0-2.59.29-5.19.37-7.78.7-.33.04-.69.1-.97-.2Z"/>
      <path class="cls-149" d="M164.46,24.42c-2.24.15-4.49.29-6.73.1.06-.06.11-.14.19-.14,1.28.05,2.56-.01,3.84-.01-.92,0-1.85.03-2.77.02-.19,0-.57.23-.56-.26.32-.25.71-.18,1.07-.19,3.06-.05,6.12-.09,9.18-.13.69,0,1.38-.02,2.07-.03.34,0,.67-.02.99-.13,1.43-.08,2.86-.14,4.29-.04.14.06.28.13.25.33-.24,0-.49.01-.73.02-.78.14-1.56.04-2.34.1-.25.02-.52-.09-.75.11h0c-1.9.17-3.81.06-5.71.15-.76.03-1.53-.11-2.28.13Z"/>
      <path class="cls-66" d="M18.48,21.67c-2.51-.08-5.01.21-7.52.3-1.39.05-2.77.34-4.17.34-.25,0-.54.1-.74-.14,2.74-.25,5.47-.51,8.21-.73.98-.08,1.96-.05,2.95-.07.4.18.83,0,1.24.08.08.06.09.13.03.21Z"/>
      <path class="cls-60" d="M11.67,25.13c-.25-.34-.67-.02-1.07-.34,1.35.04,2.57.08,3.79.12.98-.16,1.97-.06,2.95-.1.15,0,.24.06.26.22-.86.21-1.73.05-2.59.12-.11-.01.03.13,0,.03,0-.02.02-.03.07-.03,2.55-.12,5.11-.05,7.67-.09.31,0,.64-.06.9.21,0,.06,0,.11,0,.17-3.35.03-6.71.16-10.05-.18-.63-.24-1.29.07-1.92-.14h0Z"/>
      <path class="cls-7" d="M183.35,18.22c-.03-.22-.51-.34-.14-.65.85.03,1.7.06,2.52.29,1.19.33,1.67.95,1.8,2.23-.04.04-.08.06-.13.05-.05,0-.07-.02-.07-.03-.05-.05-.09-.11-.13-.17-.15-.31-.24-.66-.56-.86-.08-.06-.17-.13-.25-.2-.35-.27-.75-.14-1.13-.16-.18,0-.36,0-.54-.05-.23-.07-.47-.11-.71-.03-.19.03-.36-.02-.51-.14-.08-.08-.14-.17-.15-.28Z"/>
      <path class="cls-215" d="M18.48,21.52c-.42-.08-.88.17-1.28-.14,2.77-.1,5.52-.45,8.29-.43.94.22,1.86-.1,2.8-.04.3.02.63-.1.9.16-.19.5-.65.42-1.01.4-1.74-.1-3.48.05-5.22.08-.42,0-.84.02-1.26.1-.34.07-.69.1-.98-.15-.21,0-.43,0-.64.01-.53.14-1.06.12-1.59.02Z"/>
      <path class="cls-174" d="M176.26,23.92l-.17-.18c-.05-.1-.02-.18.07-.24.78-.27,1.59-.09,2.38-.17.71-.2,1.43-.03,2.14-.04.11-.02-.06-.16,0-.07-.27.1-.55.14-.81-.04.33-.53.83-.3,1.28-.3.32.11.66.07,1,.1.26.03.6-.06.64.37-2.16.4-4.35.51-6.53.57Z"/>
      <path class="cls-177" d="M187.39,20.08s.09,0,.14,0c.15,2.07-.89,3.05-3.3,3.1,0-.42.34-.37.6-.42.2.01.41-.08.49-.03-.06,0-.25.03-.43,0-.06-.05-.08-.12-.07-.2.4-.41,1.03-.41,1.44-.8.23-.27.44-.57.69-.82.24-.23.16-.63.45-.83Z"/>
      <path class="cls-123" d="M156.67,17.47c1.49-.01,2.99-.03,4.48-.04.28,0,.58-.11.82.14-.72.44-1.53.26-2.3.29-.79.03-1.57-.04-2.36.12-1.04.21-2.09-.13-3.14,0-.51.06-1.04.2-1.57.07-.18-.04-.35-.11-.48-.24-.07-.07-.08-.15-.02-.24,1.53-.03,3.05-.07,4.58-.1Z"/>
      <path class="cls-152" d="M135.87,24.19c1.72-.14,3.43.13,5.14.18,1.54.04,3.07-.01,4.61,0,.28,0,.59-.11.82.15-3.46.14-6.91-.01-10.35-.23-.07,0-.14-.06-.22-.09Z"/>
      <path class="cls-78" d="M158.39,24.19c.82.29,1.67.04,2.5.09.33.02.67,0,1.01.17-1.39.02-2.79.04-4.18.06-1,.07-1.99.08-2.99,0-.05-.1-.11-.2-.16-.29.17-.21.41-.24.64-.23,1.06.06,2.14-.26,3.18.19Z"/>
      <path class="cls-102" d="M1.28,24c-.21,0-.42,0-.63,0-.1-.03-.2-.06-.3-.08-.17-.05-.4-.08-.35-.33.05-.22.27-.25.45-.19.5.17.98.02,1.46-.06.37,0,.74,0,1.12-.01-.27.5-.76.08-1.06.26,1.01.05,2.06-.4,3.19-.13-.4.58-1.02.26-1.46.47-.8.21-1.61.02-2.42.07Z"/>
      <path class="cls-43" d="M184.86,22.56s0,.08,0,.12c.08.05.08.1,0,.16-.13.27-.52.06-.63.36-.46.19-.95.16-1.43.17-.47-.42-1.12.09-1.6-.29.03-.03.06-.07.08-.1.64-.33,1.36-.23,2.03-.42.51.04,1.04-.34,1.55.02Z"/>
      <path class="cls-190" d="M29.17,21.06c-.98,0-1.95.03-2.93.03-.25,0-.53.1-.75-.14.52-.01,1.05-.03,1.57-.04,1.5-.17,3-.06,4.5-.13.31-.01.63.06.94-.08.32,0,.64-.01.96-.02,0,.1,0,.2,0,.31-.15.18-.35.23-.56.24-1.08.05-2.15.08-3.23.04-.19,0-.36-.06-.5-.2Z"/>
      <path class="cls-161" d="M164.46,24.42c.17-.24.43-.18.66-.18,2.44-.03,4.89-.06,7.33-.1-.51.22-1.04.12-1.56.14-2.14.06-4.28.1-6.43.14Z"/>
      <path class="cls-15" d="M152.08,17.71c.13,0,.25.03.33.15-.46.36-1.01.21-1.52.26-.26.02-.53-.03-.78.06-.08.03-.17.04-.25.05-.82-.17-1.68.04-2.49-.22-.08-.06-.1-.14-.05-.23.16,0,.31-.02.47-.03,1.44-.11,2.87-.16,4.31-.05Z"/>
      <path class="cls-210" d="M32.5,20.69c-.27.26-.6.15-.91.16-1.51.03-3.02.04-4.53.06.55-.29,1.14-.14,1.71-.16,1.24-.05,2.48-.04,3.73-.06Z"/>
      <path class="cls-111" d="M147.3,17.79c0,.05,0,.1,0,.16-.45.49-1.06.35-1.62.4-.72,0-1.44.02-2.16.03-.25,0-.49-.02-.68-.22,0-.05,0-.1,0-.14.31-.01.63-.03.94-.04.74-.19,1.51.04,2.25-.16.42,0,.85-.02,1.27-.03Z"/>
      <path class="cls-196" d="M152.08,17.71c-1.44.02-2.87.03-4.31.05.92-.31,1.88-.11,2.82-.18.5-.04,1-.01,1.51-.01,0,.05,0,.1-.01.15Z"/>
      <path class="cls-230" d="M136.07,23.87c-.16.1-.33.2-.49.31-.16,0-.31,0-.47,0-.7-.22-1.43.06-2.13-.12-.14,0-.28,0-.43,0,.33-.33.77-.09,1.14-.21.79-.3,1.59-.38,2.37.02Z"/>
      <path class="cls-4" d="M3.5,22.52c.15,0,.3,0,.51.02-.39.36-.81.29-1.22.32-.3.02-.63-.11-.88.16-.05,0-.1,0-.16,0-.09-.09-.26-.13-.16-.31.65.08,1.26-.21,1.9-.2Z"/>
      <path class="cls-161" d="M172.44,24.15c1.01-.41,2.06-.12,3.09-.2-1.02.22-2.06.22-3.09.2Z"/>
      <path class="cls-196" d="M146.03,17.81c-.73.31-1.5.12-2.25.16.73-.29,1.5-.11,2.25-.16Z"/>
      <path class="cls-152" d="M132.98,24.06c.71.04,1.44-.21,2.13.12-.71,0-1.43.09-2.13-.12Z"/>
      <path class="cls-99" d="M11.67,25.13c.64.03,1.3-.19,1.92.14-.64,0-1.29.1-1.92-.14Z"/>
      <path class="cls-56" d="M1.59,22.71c.05.1.11.21.16.31-.05,0-.11.02-.15,0-.2-.07-.52.33-.58-.04-.07-.41.35-.23.57-.28Z"/>
      <path class="cls-199" d="M5.25,22.34c.1,0,.2.02.3.03-.42.08-.84.3-1.26,0,.32,0,.63-.01.95-.02Z"/>
      <path class="cls-36" d="M55.69,24.98c.14.07.29.08.43.07-.02-.16-.03-.31-.06-.47-5.17.07-10.34.15-15.5.22-.44,0-.91-.11-1.29.24.28.25.61.13.91.12,4.69-.05,9.38-.11,14.07-.17.43.11.85.1,1.28-.02.05,0,.1,0,.15,0Z"/>
      <path class="cls-54" d="M136.07,23.87c-.79,0-1.58-.01-2.37-.02-.54-.24-1.09-.08-1.64-.09-1.51.04-3.03.03-4.55,0-1.85-.18-3.71-.04-5.56,0-4.09.09-8.17.11-12.26.2-.29,0-.59.03-.85-.14-.09-.08-.1-.18-.03-.28.38-.27.82-.18,1.23-.19,6.67-.1,13.35-.19,20.02-.29,2.03-.07,4.04.36,6.08.23.8-.01,1.6.17,2.4.18.57.19,1.17.07,1.75.1.19,0,.37.03.53.15.07.08.08.16.02.25-.09.03-.18.05-.27.05-.7,0-1.4.06-2.1,0-.68-.31-1.41.05-2.1-.17-.1,0-.2.02-.3.02Z"/>
      <path class="cls-65" d="M56.05,24.43c-3.58.05-7.16.1-10.73.15-3.29.05-6.58.09-9.87.15-.39,0-.81-.09-1.13.25.24.24.55.14.83.13,1.37,0,2.75-.03,4.12-.05,5.61-.08,11.21-.16,16.82-.25-.02-.13-.03-.25-.04-.38Z"/>
      <path class="cls-130" d="M17.58,25.03c-1.05-.31-2.13-.03-3.19-.12.81-.34,1.66-.1,2.49-.18.39-.04.79-.02,1.19-.03.25-.26.57-.22.88-.23,1.13-.02,2.25-.03,3.38-.05,2.74.04,5.48.13,8.22.04.19,0,.37,0,.55.07.1.04.18.1.24.18.03.1.02.2-.04.29-1.7.03-3.41.06-5.11.08-.94.17-1.88.07-2.83.1-1.39-.13-2.78.02-4.16-.01-.53-.15-1.09.04-1.61-.14Z"/>
      <path class="cls-92" d="M122.2,23.87c-.11,0-.23,0-.34,0-.59.18-1.2.06-1.81.11-4.49.06-8.98.13-13.47.19-2.23.02-4.45.1-6.68.07-.09-.09-.09-.18,0-.27.31-.22.66-.17,1-.18,2.1-.04,4.2-.15,6.3-.07,5.12.18,10.24-.09,15.37-.08.12.05.17.15.07.23-.13.11-.29.1-.44,0Z"/>
      <path class="cls-83" d="M122.2,23.87c.17,0,.35.03.46-.15,1.65-.2,3.3-.15,4.95-.11,1.48-.02,2.97-.05,4.45.14-.22.23-.5.14-.75.14-1.98-.04-3.95.13-5.93,0-.78-.05-1.62.1-2.43.12-.25,0-.53.1-.75-.14Z"/>
      <path class="cls-186" d="M31.29,25c0-.05,0-.1,0-.16.23-.22.53-.23.82-.23,4.26-.05,8.51-.15,12.77-.16.2.05.44.05.44.35-3.67.06-7.33.11-11,.17-1.01,0-2.02.02-3.03.03Z"/>
      <path class="cls-230" d="M106.56,24.1c4.52-.06,9.03-.13,13.55-.19.06.03.07.07.02.12-4.52.07-9.05.13-13.57.2-.07-.04-.07-.08,0-.13Z"/>
      <path class="cls-201" d="M17.58,25.03c.53,0,1.06,0,1.58,0,1.07.14,2.15,0,3.22.03.31,0,.63-.08.93.05.95,0,1.91-.02,2.86-.03-.83.35-1.7.09-2.55.19-3.01.04-6.03.09-9.04.13,0-.11,0-.22,0-.33l2.99-.04Z"/>
      <path class="cls-171" d="M106.56,24.1s0,.08,0,.13c-2.55.04-5.09.08-7.64.11.24-.51.59-.35.95-.15,2.23-.03,4.46-.06,6.69-.09Z"/>
      <path class="cls-230" d="M98.58,24.35c-.4-.27-.85-.06-1.27-.12,0-.05,0-.09-.01-.14.85-.4,1.71-.4,2.57-.04,0,.05,0,.1,0,.14-.31.06-.66-.11-.95.15-.11,0-.23,0-.34,0Z"/>
      <path class="cls-83" d="M120.13,24.03s-.02-.08-.02-.12c.58-.01,1.17-.02,1.75-.03-.55.32-1.15.1-1.73.15Z"/>
      <path class="cls-171" d="M54.25,25c.43,0,.85-.01,1.28-.02-.42.23-.85.24-1.28.02Z"/>
      <path class="cls-148" d="M111.24,20.93c-.37-.21-.78-.13-1.17-.13-4.66.05-9.33.11-13.99.18.05.22.09.43.13.65,4.57-.06,9.13-.13,13.7-.19.47,0,.96.07,1.39-.23.06-.11.04-.2-.05-.28Z"/>
      <path class="cls-148" d="M55.53,21.61s0-.06-.01-.09c-1.97.03-3.94.06-5.92.09-.48,0-.96,0-1.43.09-.38.13-.78.14-1.18.14-2.81.03-5.63.06-8.44.1-3.89.05-7.79-.06-11.67.41-1.64.2-3.28.11-4.93.13-4.09.06-8.16.4-12.25.35-.36,0-.74-.07-1.09.11-1.21.19-2.44.18-3.66.19-.1-.08-.19-.1-.27.03-.03.04-.06.07-.1.11,1.37.47,2.78.26,4.16.15,2.78-.21,5.56-.26,8.33-.16,1.4.05,2.79.02,4.18-.04-.12.03-.19.12-.13.39.37.23.78.14,1.17.14,3.79-.03,7.57-.22,11.35-.3,7.39-.15,14.78-.24,22.17-.34-.09-.5-.17-1.01-.28-1.51ZM21.65,23.24c-.06,0-.13-.01-.21-.02.86-.04,1.72-.08,2.58-.13-.79.04-1.58.14-2.38.14ZM24.38,23.07s-.02,0-.03,0c.04,0,.06-.03.04-.06-.05-.09.09,0,0,.06Z"/>
      <path class="cls-124" d="M48.2,21.92c-1.5.2-3.02.17-4.53.18-11.48.14-22.95.51-34.43.86-.21,0-.42,0-.64-.01.26-.31.65-.25.96-.24,2.12.08,4.25.1,6.35-.09,2.06-.19,4.12-.11,6.17-.25,1.14-.08,2.32,0,3.48,0,.88,0,1.74-.27,2.23-.22-.58.18-1.29-.89-2.28-.57-.21.07-.48-.05-.66.18-1.62.13-3.24.26-4.86.4-.04-.5.74-.15.71-.65,2.59-.32,5.19-.19,7.78-.28.23,0,.48.04.68-.15,1.43-.03,2.86-.05,4.29-.08,1.7-.02,3.4-.04,5.1-.06.06.16-.1.37.26.44,2.35.45,4.69.51,7.08.24.72-.08,1.57-.09,2.29.32Z"/>
      <path class="cls-13" d="M4.57,23.28c3.12.12,6.22-.28,9.33-.28,3.54,0,7.07.25,10.62.14-.85.08-1.71.15-2.56.24-.3.03-.64-.11-.9.17-.27.28-.61.21-.94.18-.82-.15-1.64-.14-2.45.04-.57.08-1.14.09-1.71.09-1.82,0-3.65-.05-5.47-.09-.69-.01-1.36.27-2.04.09-.25-.26-.55-.22-.84-.16.23-.01.5-.13.72.09-.31.52-.83.26-1.26.34-.19,0-.37-.01-.56-.05-.87-.19-1.75,0-2.63-.08-.15-.02-.28-.07-.37-.19.42-.36.98,0,1.47-.27-1.11-.25-2.16.32-3.24.09.41-.25.92.07,1.29-.27.51-.08,1.02-.13,1.54-.06Z"/>
      <path class="cls-166" d="M4.94,23.14c-.09,0-.18.02-.27.03l-1.95.03c.74-.11,1.49-.38,2.23-.06Z"/>
      <path class="cls-124" d="M18.48,21.52c.53,0,1.06-.01,1.59-.02-.49.45-1.07.03-1.59.17,0-.05,0-.1,0-.15Z"/>
      <path class="cls-124" d="M25.65,21.91h.63s.02.06.01.06c-.23.14-.43.07-.64-.06Z"/>
      <path class="cls-124" d="M25.66,21.89c-.27-.04-.57.12-.8-.15.27.04.57-.12.8.15Z"/>
      <path class="cls-107" d="M96.07,20.97c3.48-.06,6.95-.12,10.43-.22-.28-.45-.69-.34-1.06-.36-1.05-.07-2.12.24-3.16-.18-.45-.12-.9-.06-1.35-.07-.39,0-.79.01-1.18.02-.75.01-1.49.02-2.24.03-.54,0-1.07.01-1.61.02.06.26.11.52.17.77Z"/>
      <path class="cls-107" d="M126.7,20.55c-.37-.21-.77-.17-1.17-.16-6.5.17-13.01.11-19.51.42-3.31.15-6.63.19-9.94.21.01.07.03.13.04.2,1.02-.02,2.05-.03,3.07-.05,4.04-.06,8.07-.1,12.11-.15.35.28.76.2,1.15.19,2.81-.02,5.61-.1,8.42-.1,1.74.02,3.49-.08,5.23-.09.24,0,.48-.02.67-.2.06-.11.04-.2-.06-.27Z"/>
      <path class="cls-107" d="M55.53,21.61c-.07-.33-.11-.65-.13-.96-.68,0-1.36,0-2.04-.01-4.22-.01-8.44.1-12.65.16-.29,0-.58-.06-.86.08-.42,0-.85.02-1.27.03-.06.3-.45.25-.66.73.84-.49,1.46.61,2.24-.05.03-.03.21.06.26.13.24.38.6.25.93.26,2.29.04,4.57-.22,6.86-.06.24,0,.48.03.71.03,2.22-.03,4.44-.07,6.66-.1-.02-.08-.03-.15-.04-.23Z"/>
      <path class="cls-84" d="M138.71,18.71c-.96-.22-1.92.03-2.87.08-2.03.11-4.05.33-6.07.5-.21,0-.42.02-.64.02-11.11.23-22.23.26-33.34.48.04.16.08.32.12.48,11.13-.13,22.27-.22,33.4-.42.15,0,.3,0,.45,0,.43-.02.86,0,1.29-.08.96-.14,1.92-.21,2.88-.3.79.04,1.56-.27,2.36-.19.79,0,1.58-.05,2.34-.32.09-.06.11-.14.07-.24Z"/>
      <path class="cls-77" d="M55.39,20.52c-4.93.07-9.87.14-14.8.21-.26,0-.54-.07-.75.16.29,0,.58,0,.87,0,4.71.02,9.42-.27,14.13-.06.19,0,.38.01.57.02,0-.11-.02-.22-.02-.33Z"/>
      <path class="cls-137" d="M182.41,18.4c-1.01-.26-2.03-.04-3.04-.13-.4-.31-.88-.34-1.35-.34-.9,0-1.8.03-2.7.03-5.65.08-11.3.16-16.94.24-.81.04-1.62-.02-2.42.09-1.11.24-2.24.09-3.36.16-.48,0-.97.02-1.45.02-.72.03-1.44-.02-2.15.08-.45.17-.91.12-1.37.13-.24,0-.47,0-.71,0-1.84,0-3.69.04-5.52.3-.14,0-.28-.01-.42-.03-.23,0-.46,0-.69.07-.4.14-.81.08-1.22.1-1.36.09-2.73.04-4.08.2-1.07.14-2.15.14-3.22.29-.63.09-1.27.16-1.91.16-1.73.09-3.46.06-5.19.1-1.17.02-2.34.03-3.51.05-2.11.04-4.22.04-6.33.11-.39.1-.79.09-1.19.09-2.65.04-5.31.08-7.96.11-.82,0-1.64.09-2.46-.03-.34,0-.71-.13-1.01.17.32.31.72.28,1.12.28.99-.02,1.99-.03,2.98-.04,0,.06,0,.12,0,.18-3.41.05-6.83.1-10.24.14.01.05.02.09.03.14,9.87-.14,19.74-.28,29.61-.42.37,0,.74,0,1.11.01.19.18.43.18.67.18,1.11-.01,2.21.03,3.32-.08.44-.17.92-.1,1.38-.2.53-.18,1.07-.09,1.61-.12.36-.01.73,0,1.08-.07.39-.14.79-.11,1.19-.12.87,0,1.71-.23,2.58-.25.34-.13.69-.13,1.05-.13.27,0,.54,0,.81-.02.19,0,.38-.03.56-.08,2.08-.09,4.15-.26,6.23-.32.39-.02.78,0,1.17-.08,1.11-.22,2.23-.08,3.34-.14.89-.04,1.78.02,2.67-.09.87-.23,1.76-.09,2.64-.14,2.35-.06,4.7-.02,7.05-.14,1.37-.21,2.74-.24,4.12-.06,2.56.06,5.12-.06,7.69-.07.49-.01.99-.02,1.48-.02,1.28,0,2.55-.1,3.83,0,.21.06.43.07.65.06.12,0,.25-.03.36-.08.07-.04.12-.1.15-.17-.01-.04-.03-.07-.04-.11Z"/>
      <path class="cls-196" d="M150.02,18.06c.78-.27,1.6-.09,2.39-.2,3.19-.1,6.38-.19,9.57-.29.57.3,1.13-.02,1.7-.03,1.64,0,3.28-.14,4.91-.04,1.85.12,3.67-.19,5.51-.09.13.16.15.32.04.5-.19.16-.42.13-.64.12-.36-.13-.71,0-1.07.03-4.2.06-8.4.14-12.6.17-1.19-.16-2.39-.01-3.58-.03-1.56-.09-3.09.29-4.65.22-.55-.02-1.1-.03-1.58-.36Z"/>
      <path class="cls-125" d="M174.1,17.87c0-.15,0-.3,0-.46,2.08-.08,4.15.06,6.2.41.07.01.13.09.19.13-.86.2-1.73.08-2.6.11-.42-.09-.84-.1-1.26,0-.17.02-.35.03-.52-.02-.66-.14-1.36.18-2-.18Z"/>
      <path class="cls-209" d="M176.19,17.99c.15,0,.31,0,.46,0,.37-.09.75-.11,1.13,0,.9,0,1.8-.02,2.71-.03-.3.36-.8,0-1.12.32-1.32-.18-2.65,0-3.97-.1.19-.41.51-.19.79-.18Z"/>
      <path class="cls-48" d="M183.35,18.22c.05.05.11.1.16.16-.36.32-.74.29-1.12.05,0,0,.02-.03.02-.03.22-.58.65-.02.94-.18Z"/>
      <path class="cls-87" d="M55.76,22.87c-3.89.06-7.78.12-11.66.18-5.22.08-10.43.1-15.64.3-2.46.09-4.93.1-7.39.21-.32,0-.64,0-.96.01-.8-.12-1.59-.08-2.39.02-.58.02-1.17.04-1.75.05-1.54.11-3.07.4-4.62.28-1-.08-1.99-.06-2.99.02-.4.15-.81.15-1.23.14-.02-.06-.05-.12-.11-.16h-.47c-.05-.06-.11-.06-.17-.04-.05.04-.1.09-.14.13-.42.15-.93-.14-1.29.27,1.52.24,3.05.16,4.57.21,2.65.08,5.29.06,7.94.08.21,0,.43-.03.6.13,1.43-.02,2.86-.05,4.29-.07-.11-.43-.47-.33-.76-.35-.73-.05-1.46.1-2.19-.06-.38-.09-.75-.21-1.09-.28.61.04,1.3-.01,1.99,0,4.43-.08,8.87-.14,13.3-.19.26.02.52-.02.78-.08.41-.14.84-.11,1.26-.11,6.73-.1,13.46-.19,20.19-.28-.03-.14-.05-.28-.08-.42Z"/>
      <path class="cls-156" d="M3.52,23.8c.1,0,.21,0,.31.01.11.08.24.05.36.09.12.04.25.08.33.18.03.07.02.12-.04.17-1.08.02-2.16.12-3.2-.26.73-.23,1.49-.14,2.23-.2Z"/>
      <path class="cls-165" d="M4.48,24.26c0-.05,0-.1,0-.15.63-.27,1.26-.25,1.9-.04-.43.4-.98.04-1.45.21-.15,0-.31-.01-.46-.02Z"/>
      <path class="cls-235" d="M158.39,24.19c-1.27.01-2.55.03-3.82.04-1.32.01-2.64.03-3.97.04-.28,0-.59.09-.84-.13.53-.45,1.23-.1,1.81-.37,1.84-.06,3.68-.12,5.53-.02,1.87.11,3.75.01,5.62-.03,1.92.01,3.83-.12,5.75-.03.15.06.29.11.28.31-3.45.06-6.91.13-10.36.19Z"/>
      <path class="cls-136" d="M151.53,23.98c-.57.29-1.18.06-1.77.16-3.02-.02-6.04-.04-9.07-.06-.08-.03-.08-.08-.02-.13.05,0,.11-.02.16-.03.29-.26.68-.19,1.01-.32.32-.07.64-.06.97-.07.95-.06,1.89.23,2.85.12,1.58-.12,3.15.2,4.73.09.39.04.82-.12,1.14.24Z"/>
      <path class="cls-152" d="M140.68,23.95s.01.09.02.13c-.8-.04-1.62.18-2.41-.09.02-.06.06-.09.1-.08.05,0,.07.02.07.03.74,0,1.48,0,2.23,0Z"/>
      <path class="cls-94" d="M138.46,23.95c-.06.02-.11.03-.17.05-.64-.09-1.3.14-1.92-.15.7.05,1.4-.19,2.09.1Z"/>
      <path class="cls-142" d="M150.02,18.06c2.08.38,4.15-.13,6.22-.08.05.09.03.17-.05.23-.43.18-.9.13-1.34.25-.91.03-1.81.03-2.72.05-.62.04-1.24-.05-1.86.1-1.17.04-2.35.09-3.52.21-1.42.06-2.85-.02-4.27.14-.3.03-.64.11-.9-.16.15-.76.93-.25,1.26-.64.21,0,.42,0,.63,0,.2.15.44.02.65.09.34.08.68.07,1.02-.03.2,0,.41-.03.61.02,1.42-.01,2.84-.07,4.26-.18h0Z"/>
      <path class="cls-155" d="M141.58,18.8c1.75-.02,3.49-.04,5.24-.06.17-.08.19,0,.17.14-1.91.09-3.82.17-5.73.26-.09-.1-.1-.21,0-.32.11,0,.22-.02.32-.02Z"/>
      <path class="cls-145" d="M141.26,18.82c0,.11,0,.21,0,.32-.11,0-.21,0-.32,0-.25-.19-.65.08-.84-.29,0-.4.38-.17.52-.32.23.05.64-.3.63.29Z"/>
      <path class="cls-163" d="M140.63,18.54c-.17.1-.33.2-.5.29-.31.32-.71.22-1.09.22-.15-.03-.28-.08-.36-.21.01-.04.03-.08.03-.12.05,0,.11-.02.16-.03.34-.23.73-.14,1.1-.16.22,0,.44.01.65.02Z"/>
      <path class="cls-75" d="M139.97,18.52c-.34.21-.72.18-1.1.16.3-.52.69-.36,1.1-.16Z"/>
      <path class="cls-151" d="M168.76,24c-.05-.05-.1-.1-.16-.15-.05-.1-.02-.19.07-.25.68-.26,1.39-.1,2.09-.16.49-.04.99.04,1.47-.12.42-.09.84-.07,1.27-.08.32,0,.64,0,.96-.01.31,0,.62-.02.93.05.24.08.52.09.71.31,0,.05,0,.1,0,.15-1.49.03-2.98.06-4.47.09-.25.16-.56-.03-.8.15-.69,0-1.38.01-2.07.02Z"/>
      <path class="cls-161" d="M170.83,23.98c.23-.25.53-.13.8-.15-.23.25-.53.12-.8.15Z"/>
      <path class="cls-219" d="M187.39,20.08c-.06.34.01.72-.34.95-.18-.17-.35-.35-.36-.61.13-.65-.46-.82-.77-1.19-.04-.06-.06-.13-.06-.2.14-.38.47-.14.7-.22.05.06.11.12.16.17.19.33.39.66.63.96,0,.05.02.1.03.14Z"/>
      <path class="cls-42" d="M186.56,18.8c-.07.55-.52-.14-.65.2-.31.08-.61.14-.93.04-.05-.05-.09-.12-.1-.19.01-.26.26-.21.4-.3.44,0,.93-.22,1.28.26Z"/>
      <path class="cls-10" d="M182.39,18.42c.37-.02.75-.03,1.12-.05.17.05.33.1.5.15.01.04.02.08.04.12-.03.08-.08.14-.16.18-.32.12-.65.09-.99.08-.22-.03-.41-.1-.5-.33,0-.05-.01-.1-.01-.14Z"/>
      <path class="cls-90" d="M185.29,18.55c-.11.1-.22.2-.33.29-.35.23-.69.38-.95-.12l-.02-.05c.2-.12.39-.28.64-.16.22.01.44.03.66.04Z"/>
      <path class="cls-177" d="M187.36,19.93c-.32-.24-.62-.51-.63-.96.44.17.5.59.63.96Z"/>
      <path class="cls-49" d="M184.63,18.51c-.21.05-.43.11-.64.16.02-.05.02-.1.02-.15.2-.21.41-.2.62-.01Z"/>
      <path class="cls-18" d="M181.2,23.06c-.44.01-.89-.08-1.31.15-.28.2-.64.03-.93.17-.33.02-.66.04-.99,0-.5-.11-1.01-.03-1.51-.05-.31-.01-.65.06-.88-.24.14-.4.5-.34.8-.35.95-.03,1.9-.05,2.85-.06.45,0,.89-.02,1.34,0,.24.01.55-.03.6.34l.03.04Z"/>
      <path class="cls-192" d="M176.1,23.6c-.22-.02-.46.08-.64-.14.09-.13.22-.16.37-.17.6-.02,1.2-.02,1.8-.03.32.04.63.09.95.08.1.05.12.12.07.22-.85.01-1.7.03-2.55.04Z"/>
      <path class="cls-63" d="M178.64,23.55v-.08s0-.08,0-.08c.07-.12.23-.06.32-.15.31-.02.62-.03.93-.05.32.07.67-.08,1.1.14-.85.04-1.61.03-2.34.21Z"/>
      <path class="cls-204" d="M186.72,20.44c.2.14.38.3.33.58-.2.28-.41.56-.61.83-.14.11-.26.08-.37-.05-.04-.09-.03-.19,0-.28-.36-.25-.7-.03-1.04.03-.17.04-.33.06-.5.06-1.13-.16-2.27-.12-3.4-.12-.35,0-.71-.05-.7-.54.04-.2.21-.27.38-.32.49-.11.98-.14,1.48-.04.14.01.31.16.4-.09.06-.13.14-.23.28-.28.87.54,1.17.53,1.8-.06.27-.11.55-.1.84-.11.25,0,.5,0,.75.07.17.06.31.14.38.32Z"/>
      <path class="cls-212" d="M186.1,21.67c.06.15.2.19.34.19-.46.39-1.03.52-1.59.7-.52.06-1.03.11-1.55.17-.21.04-.44.17-.56-.14.3-.41.76-.39,1.19-.43.33-.03.66-.08.99-.16.29-.04.47-.27.72-.38.16-.05.31-.06.45.05Z"/>
      <path class="cls-89" d="M184.86,22.83v-.08s0-.08,0-.08h.62s0,.08,0,.12c-.21.01-.42.03-.63.04Z"/>
      <path class="cls-52" d="M182.78,22.57c.14.17.35.12.53.16-.7.2-1.41.28-2.14.3-.63-.31-1.3.01-1.94-.14.02-.05.03-.13.06-.14,1.15-.26,2.31-.58,3.49-.18Z"/>
      <path class="cls-196" d="M150.02,18.06c-1.42.44-2.85.47-4.3.22-.08-.05-.08-.1,0-.16.54.05,1.06-.09,1.59-.18.91,0,1.81-.06,2.71.12Z"/>
      <path class="cls-68" d="M145.71,18.13c0,.05,0,.1,0,.16-.21,0-.42,0-.64.01-.32.12-.64.13-.96.01-.22-.02-.47.08-.64-.14.75-.01,1.49-.02,2.24-.04Z"/>
      <path class="cls-195" d="M126.69,23.51c-5.97.07-11.93.16-17.9.24-.4-.32-.87-.2-1.31-.2-3.63.05-7.25.1-10.88.15.02.13.04.27.06.4.21,0,.42,0,.64,0,.86-.01,1.71-.03,2.57-.04,7.6-.11,15.2-.21,22.79-.32,1.65-.04,3.3-.07,4.95-.11-.28-.23-.61-.12-.92-.12Z"/>
      <path class="cls-221" d="M108.53,23.43c-.16-.04-.32-.05-.47-.05-3.83.05-7.65.11-11.48.16.02.12.04.25.06.38,4.05-.06,8.1-.11,12.15-.17,0-.05,0-.09,0-.14-.07-.08-.16-.14-.26-.18Z"/>
      <path class="cls-1" d="M108.8,23.6c-.06,0-.13-.01-.19-.02-.03-.11,0-.2.1-.25,1.15-.27,2.31-.09,3.47-.17.29-.02.58-.01.87-.02.4,0,.8-.01,1.2-.02,1.52-.02,3.05-.04,4.57-.07,1.43-.01,2.86-.04,4.29-.06,1.16,0,2.33-.03,3.49-.05,1.15.06,2.3-.15,3.45.06.1.05.15.13.14.24-5.54.09-11.08.18-16.62.27-1.59.03-3.18.05-4.77.08Z"/>
      <path class="cls-189" d="M142.76,23.73c-.32.02-.64.03-.97.05-.32.1-.63.12-.95,0-.15,0-.3,0-.45-.01-.58-.17-1.19.04-1.78-.09-.8-.06-1.6-.11-2.4-.17-.52-.19-1.09.08-1.6-.14.06-.32.3-.37.51-.46.84-.24,1.67.14,2.51.05.75-.02,1.48.17,2.23.18.73.13,1.47.15,2.2.24.27.03.61-.07.7.35Z"/>
      <path class="cls-170" d="M135.09,23.07c-.1.07-.21.14-.33.23.48.21,1.02-.12,1.46.2-2.02.11-4.02-.23-6.03-.25-.03-.03-.05-.07-.07-.11.15-.24.45-.18.65-.32.06-.04.13-.07.19-.09.29.07.57.07.86,0,1.02,0,2.03.14,3.04.16.09.03.16.09.22.16Z"/>
      <path class="cls-94" d="M138.62,23.68c.59.03,1.19-.15,1.78.09-.59-.02-1.2.18-1.78-.09Z"/>
      <path class="cls-94" d="M140.85,23.78c.32,0,.63,0,.95,0-.28.27-.63.11-.95.15,0-.05,0-.1,0-.15Z"/>
      <path class="cls-85" d="M55.99,24.11c-3.3.05-6.59.09-9.89.14-.34,0-.69-.03-1.01.13-.11.06-.14.15-.09.26.13,0,.25.02.31.15,3.59-.05,7.17-.1,10.76-.15-.03-.18-.05-.36-.08-.54Z"/>
      <path class="cls-3" d="M22.35,24.64c-.7-.3-1.43-.04-2.14-.12-.3-.03-.63.12-.89-.14.27-.29.63-.23.97-.24,1.53-.03,3.06-.04,4.59-.08,2.05-.01,4.09-.12,6.14-.05.91.26,1.84,0,2.75.14.22.17.75-.02.63.54-1.04.02-2.08.09-3.13.01-2.98-.03-5.95-.05-8.93-.08Z"/>
      <path class="cls-175" d="M31.28,24.72c1.06-.03,2.12-.06,3.19-.1.28-.27.64-.21.98-.22,1.25-.03,2.5-.04,3.74-.06.36,0,.71,0,1.07-.02,1.26-.01,2.52-.04,3.78-.05.33,0,.69-.07.96.22,0,.05,0,.1,0,.15-4.57.06-9.14.13-13.71.19,0-.04,0-.08,0-.12Z"/>
      <path class="cls-60" d="M23.32,25.11c-1.16.02-2.32.04-3.48.06-.23,0-.48.07-.67-.14,1.19-.02,2.37-.04,3.56-.05.21,0,.43-.05.59.13Z"/>
      <path class="cls-169" d="M128.11,20.69c-.47.02-.95-.05-1.42.07-1.94-.03-3.88,0-5.82.1-.24.16-.52.09-.77.09-2.67.04-5.34.08-8.02.12-.26,0-.53-.06-.78.08-5.05.08-10.1.15-15.15.23.06.29.12.58.17.87,2.19-.05,4.38-.13,6.57-.12.37,0,.74-.03,1.1.09.82.09,1.65,0,2.48.02.19,0,.39,0,.58,0,.96.15,1.93.19,2.9.04.2-.07.41-.09.62-.1,2.74-.08,5.49-.05,8.23-.24,1.63-.11,3.27-.23,4.9-.32.79-.27,1.58-.33,2.41-.25.68.07,1.36-.08,2.04-.13.21-.02.45-.1.4-.38-.04-.25-.28-.19-.45-.18Z"/>
      <path class="cls-208" d="M120.87,20.86c-.23.27-.54.16-.82.17-2.92.05-5.83.09-8.75.13,0,0,0-.07,0-.07,0,0,0-.07,0-.07,3.19-.05,6.38-.1,9.57-.15Z"/>
      <path class="cls-55" d="M7.05,24.05s-.02-.09-.02-.14c.42-.1.89.13,1.28-.19h0c2.55-.36,5.11-.08,7.66-.1-.07.04-.13.12-.2.12-1.74.05-3.42.63-5.21.34-.75-.13-1.6-.12-2.41-.04-.37.12-.74.15-1.1,0Z"/>
      <path class="cls-55" d="M4.17,23.96c-.11-.05-.23-.1-.34-.15.91.04,1.83-.2,2.72.1-.06.01-.11.03-.17.04-.74.07-1.48.12-2.22.01Z"/>
      <path class="cls-148" d="M20.1,23.57c-.8,0-1.59.01-2.39.02.79-.22,1.59-.28,2.39-.02Z"/>
      <path class="cls-55" d="M8.3,23.73h-.83c.42-.18.63-.21.82,0,0,0,0,0,0,0Z"/>
      <path class="cls-28" d="M117.75,19.81c-7.29.1-14.58.2-21.87.31.02.07.04.15.06.22.54,0,1.08,0,1.63.03.75-.01,1.5-.02,2.25-.03.42-.13.86-.04,1.28-.08,4.35.06,8.71-.05,13.06-.1,2.33-.21,4.66-.11,7-.18,1.18-.02,2.35-.03,3.53-.05,1.37-.02,2.74-.03,4.11-.07.22,0,.54.19.66-.21-3.9.05-7.81.1-11.71.16Z"/>
      <path class="cls-95" d="M123.75,21.46c.67-.41,1.42-.4,2.14-.32.86.1,1.68-.18,2.53-.17-.56-.29-1.16-.12-1.73-.21.04-.04.08-.07.12-.11,1.35.07,2.69,0,4.03-.1.41-.07.81-.18,1.21.05-.21.48-.71.24-1.04.41-.12.04-.25.06-.37.07-.28.02-.57.02-.84.12-.12.03-.24.06-.37.07-.3,0-.6.06-.89.15-1.07.17-2.14.3-3.23.25-.53-.07-1.09.17-1.57-.21Z"/>
      <path class="cls-34" d="M100.93,20.2l13.22-.19c.06.12.02.19-.11.22-3.5.07-6.99.1-10.49.16-.13,0-.26,0-.39-.04-.32,0-.64,0-.96.01-.42-.01-.85-.02-1.27-.04-.07-.04-.07-.08,0-.12Z"/>
      <path class="cls-127" d="M100.93,20.2s0,.08,0,.12c-.37,0-.74.01-1.11.02.34-.27.74-.1,1.11-.14Z"/>
      <path class="cls-147" d="M139.19,19.31c-1.41.03-2.83.07-4.24.1-.35,0-.73.27-1.01-.14.8-.04,1.59-.27,2.4-.19.85.17,1.68-.12,2.52-.06.09,0,.18.02.26.06.09.05.11.13.07.23Z"/>
      <path class="cls-25" d="M124.68,19.86c1.34-.02,2.69-.04,4.03-.07.25,0,.53.07.75-.14.11,0,.22,0,.34,0,.07.04.17.05.2.15-.88.29-1.79.12-2.68.16-.87.04-1.75.02-2.63.03-.07-.04-.07-.09,0-.13Z"/>
      <path class="cls-30" d="M133.94,19.27c.31.25.68.06,1.01.14-1.07.27-2.19.14-3.27.32-.2-.15-.48.07-.66-.15.96-.19,1.94-.26,2.91-.3Z"/>
      <path class="cls-183" d="M139.05,19.16c-.9-.02-1.81.19-2.71-.08.78-.08,1.56-.17,2.34-.25.12,0,.24.02.35.02.09.1.09.2.02.3Z"/>
      <path class="cls-5" d="M131.03,19.58c.22.07.48-.06.66.15-.56.12-1.12.19-1.69.07-.07-.05-.13-.1-.2-.15.41-.02.82-.05,1.23-.07Z"/>
      <path class="cls-47" d="M176.19,17.99c-.26.08-.57-.08-.79.18-5.69.08-11.39.16-17.08.24-.05-.06-.06-.12-.03-.19.06-.09.14-.15.25-.18.1,0,.21,0,.31.03.24.06.48.05.72-.01.07-.03.13-.01.19.04l12.92-.19c.26-.11.52-.12.79-.01.21,0,.43,0,.64-.01.69.08,1.4-.17,2.08.12Z"/>
      <path class="cls-200" d="M151.79,19.02c.88-.02,1.75-.05,2.63-.07.87-.18,1.76.02,2.63-.15,2.36-.05,4.73-.09,7.09-.14,1.39-.12,2.77-.14,4.16-.06,2.58-.02,5.15-.05,7.73-.07.49.12.99.01,1.49.04.74,0,1.48-.02,2.22-.03.35.13.75-.03,1.08.19.05.09.04.18-.03.26-.36.22-.74.16-1.13.1-1.26-.18-2.53,0-3.79-.03-1.15-.02-2.3.09-3.44,0-.83-.2-1.67-.04-2.51-.07-2.94.03-5.87.1-8.8.13-1.28.06-2.58-.07-3.85.15-.44.08-.88.09-1.33.09-.84,0-1.67.02-2.51.03-.34,0-.68.02-1.01,0-.25-.02-.54.02-.61-.34Z"/>
      <path class="cls-80" d="M132.03,20.69c-.37-.27-.79-.05-1.18-.14.41-.23.85-.15,1.29-.18.54-.17,1.11.04,1.65-.15.34-.05.68-.12,1.03-.04.39-.16.81.03,1.2-.15.89-.08,1.78-.15,2.67-.23.32-.14.68.01.99-.12.27-.01.53-.02.8-.04.08.14.37,0,.35.27-.17.26-.44.24-.69.27-.39.02-.79-.02-1.17.13-1.02.03-2.01.3-3.04.25-.44.02-.89-.04-1.33.11-.38.09-.77.07-1.16.08-.36,0-.72-.02-1.08.03-.04,0-.08,0-.12,0-.08,0-.15-.04-.21-.1Z"/>
      <path class="cls-23" d="M140.91,19.6c2.14-.21,4.28-.31,6.42-.38.4.25.93-.18,1.3.23-.12.21-.33.28-.54.27-1.73-.08-3.45.37-5.18.21-.4-.14-.81-.09-1.22-.1-.28,0-.57.03-.78-.23Z"/>
      <path class="cls-107" d="M103.17,20.35c3.27-.05,6.53-.11,9.8-.16.4,0,.8-.03,1.19-.05.22-.06.44-.13.64.04-.17.17-.39.14-.6.14-3.48.05-6.95.1-10.43.15-.21,0-.43.05-.6-.12Z"/>
      <path class="cls-35" d="M158.32,18.27s0,.09,0,.13c-.79.02-1.59.05-2.38.07-1.11.2-2.25-.03-3.36.17-.48,0-.96,0-1.44.01-.04-.08-.02-.14.05-.2.3-.08.63.07.91-.11.96-.02,1.91-.04,2.87-.06,1.11-.03,2.23-.39,3.34-.03Z"/>
      <path class="cls-232" d="M114.8,20.18c-.21-.01-.43-.03-.64-.04,0-.04,0-.08,0-.13,2.35-.03,4.69-.06,7.04-.1.06.04.06.09,0,.12-2.13.05-4.26.1-6.38.14Z"/>
      <path class="cls-11" d="M151.79,19.02c.52.28,1.08.04,1.62.13.02.11-.01.19-.11.25-.82.23-1.65.14-2.48.1-.51-.16-1.03-.07-1.55-.08-.32,0-.62-.04-.88-.24,1.13-.05,2.26-.11,3.4-.16Z"/>
      <path class="cls-76" d="M151.13,18.54s0,.08,0,.12c-.74.03-1.48.06-2.22.08-.42.15-.88-.03-1.3.13-.21,0-.42,0-.63,0-.06-.05-.11-.1-.17-.14,1.16-.3,2.35-.1,3.53-.22.26-.08.53-.13.79.02Z"/>
      <path class="cls-10" d="M179.86,18.62c-.77,0-1.54,0-2.31-.01-.07-.01-.11-.05-.13-.12,1.34,0,2.69-.23,4.03.07-.52.33-1.06.02-1.59.06Z"/>
      <path class="cls-118" d="M168.3,18.59c-1.39.02-2.77.04-4.16.06,1.38-.18,2.77-.2,4.16-.06Z"/>
      <path class="cls-106" d="M121.18,20.04s0-.08,0-.12c1.16-.02,2.32-.04,3.49-.05,0,.04,0,.09,0,.13-1.17.01-2.33.03-3.5.04Z"/>
      <path class="cls-113" d="M148.39,19.17c.8.17,1.64-.15,2.43.14-.73.39-1.46.4-2.21.06-.42-.09-.89.15-1.29-.15.36-.02.71-.03,1.07-.05Z"/>
      <path class="cls-196" d="M152.57,18.65c1.11-.31,2.24-.12,3.36-.18-1.11.3-2.24.13-3.36.18Z"/>
      <path class="cls-37" d="M139.05,19.16c0-.1-.01-.2-.02-.3.37,0,.73-.02,1.1-.03.23.21.59.07.81.31-.2.01-.41.02-.61.04-.38.08-.76.12-1.14,0-.05,0-.09-.02-.14-.02Z"/>
      <path class="cls-72" d="M180.82,18.89s0-.09.01-.13c.4-.23.84-.02,1.25-.15.11-.02.21-.03.32-.05.16.06.32.11.48.17.05.12-.02.2-.11.27-.27.15-.56.14-.85.12-.37-.07-.79.1-1.1-.23Z"/>
      <path class="cls-118" d="M157.04,18.79c-.86.29-1.75.12-2.63.15.87-.17,1.75-.16,2.63-.15Z"/>
      <path class="cls-97" d="M140.91,19.6c.64.15,1.32-.16,1.95.13-.16.23-.41.23-.66.25-.47-.04-.97.15-1.4-.19-.13,0-.26-.03-.33-.16.14-.01.29-.02.43-.03Z"/>
      <path class="cls-19" d="M182.08,18.62c-.39.26-.84.06-1.25.15-.32-.07-.68.11-.97-.14.53-.02,1.06-.04,1.59-.06.21.02.42.03.63.05Z"/>
      <path class="cls-81" d="M133.78,20.22c-.52.31-1.1.12-1.65.15.54-.19,1.09-.14,1.65-.15Z"/>
      <path class="cls-19" d="M177.42,18.5s.09.08.13.12c-.51-.02-1.03.16-1.52-.09.46,0,.92-.01,1.39-.02Z"/>
      <path class="cls-142" d="M147.62,18.87c.41-.26.86-.12,1.3-.13-.41.26-.86.12-1.3.13Z"/>
      <path class="cls-183" d="M139.19,19.18c.38,0,.76,0,1.14,0-.36.18-.75.15-1.14.13,0-.04,0-.09,0-.13Z"/>
      <path class="cls-81" d="M136.01,20.03c-.37.29-.8.12-1.2.15.39-.14.79-.15,1.2-.15Z"/>
      <path class="cls-140" d="M139.68,19.67c-.31.22-.66.14-.99.12.32-.15.65-.17.99-.12Z"/>
      <path class="cls-70" d="M159.75,18.08c-.05,0-.1,0-.16,0-.27.12-.53.12-.8.01-.1,0-.21,0-.31,0-.74.12-1.49.15-2.24.02,0-.05,0-.1,0-.15.92-.01,1.84-.03,2.77-.04.25,0,.53-.1.74.14Z"/>
      <path class="cls-125" d="M173.46,17.88c-.26,0-.53,0-.79.01.26-.23.52-.23.79-.01Z"/>
      <path class="cls-133" d="M177.77,17.98c-.38,0-.75,0-1.13,0,.37-.21.75-.23,1.13,0Z"/>
      <path class="cls-40" d="M55.85,23.36c-.18.02-.36.05-.55.05-1.18.02-2.34.11-3.46.15.25-.02.5-.06.75-.17-.39-.27-.66-.19-.91-.18-1.65.01-3.29.03-4.94.08-.33.01-.98-.19-.95.21,0,.12.05.18.1.21-.33-.01-.67-.06-1,0,.17-.05.34-.14.46-.42-.89.12-1.73-.25-2.49.34-.18.14-.41.12-.62.1-1.07-.11-2.15-.01-3.07-.03,1.09-.05,2.34.01,3.57-.18-.66-.24-1.32-.17-1.97-.15-2.17.05-4.35-.02-6.52.15-.19,0-.39,0-.58,0-.26.19-.56.1-.85.1-3.82.06-7.63.11-11.45.17-.26,0-.56-.08-.8.14.12.24.32.24.48.3,1.29.09,2.57-.11,3.86.04,2.04-.02,4.09-.04,6.13-.05,1.51.05,3.02.15,4.53.13,6.38-.06,12.76-.17,19.13-.25.43-.01.85-.02,1.28-.02-.04-.24-.09-.48-.13-.72ZM46.15,23.71c.18-.06.4-.17.53-.11-.17.07-.35.1-.53.11ZM49.72,23.56c.5-.21,1.18.01,1.93,0-.67.03-1.32.04-1.93,0Z"/>
      <path class="cls-104" d="M55.79,23.05c-5.67.09-11.35.18-17.02.28-1.51.03-3.03-.04-4.53.18,2.78-.04,5.56-.08,8.34-.12,0,.06,0,.13,0,.19-1.37.02-2.74.04-4.11.06,1.32.17,2.65.02,3.96.24.17.03.39,0,.54-.07,1.01-.48,1.19-.52,2.13-.33-.26.22-.63.17-1.13.38,1.28,0,2.34.06,3.54-.33-.66,0-1.15.02-1.64.02,0-.04,0-.08,0-.13,2.13-.03,4.27-.06,6.4-.09v.16c-1.28.02-2.57.04-3.86.05v.22c.44.03.88.09,1.31-.06.42-.14.85-.14,1.26-.08,1.64.24,3.27.09,4.88-.1-.03-.16-.06-.33-.09-.49Z"/>
      <path class="cls-148" d="M103.23,21.92c-1.34.09-2.68-.04-4.02.03-.98.05-1.96.06-2.93.07.04.22.09.44.13.67.68-.05,1.34-.24,2.02-.29,1.55-.1,3.1-.09,4.66-.11.31,0,.64.04.89-.23-.21-.25-.49-.16-.75-.15Z"/>
      <path class="cls-104" d="M99.21,22.64c-.6-.16-1.22,0-1.83-.07-.34.04-.67-.01-1-.04.05.28.12.55.17.82.77,0,1.55,0,2.32-.08.24-.07.45-.17.53-.44-.04-.09-.1-.15-.19-.19Z"/>
      <path class="cls-104" d="M33.67,23.52c-.25.3-.59.18-.89.18-4,.07-8,.12-12.01.18-.01.23.27.14.3.29-.61.22-1.18.13-1.85-.15.31-.32.66-.13.92-.26,4.22-.08,8.43-.17,12.65-.25.29,0,.58,0,.87.01Z"/>
      <path class="cls-108" d="M20.14,23.76c-.22.07-.44.14-.69.22.55.21,1.08.23,1.62.19,1,0,2,0,3,.01.28,0,.58-.08.85.1-1.86.03-3.73.07-5.59.1-.7-.16-1.4-.31-2.09-.47,0-.04.02-.07.03-.11l2.89-.04Z"/>
      <path class="cls-14" d="M4.17,23.96c.74,0,1.48,0,2.22-.01,0,.04,0,.08,0,.12-.63.01-1.27.03-1.9.04-.12,0-.25-.02-.32-.15Z"/>
      <path class="cls-2" d="M7.05,24.05c.37,0,.74,0,1.1,0-.34.28-.74.16-1.12.13-.01,0-.03-.04-.02-.06,0-.02.02-.05.04-.07Z"/>
      <path class="cls-9" d="M151.53,23.98c-.37-.01-.73-.03-1.1-.04.08-.41.43-.33.69-.35.55-.04,1.11-.02,1.66-.04,3.04-.05,6.07-.08,9.11-.12.21,0,.42,0,.63.06.09.04.17.1.22.18.03.1,0,.19-.08.26-3.71.02-7.42.04-11.14.06Z"/>
      <path class="cls-176" d="M162.67,23.92s.03-.07.04-.11c.22-.24.51-.25.81-.25,1.56-.01,3.13-.08,4.69-.04.16.03.3.08.4.22,0,.04,0,.09,0,.13-1.98.02-3.95.04-5.93.06Z"/>
      <path class="cls-112" d="M152.86,23.74c-.8.14-1.64-.1-2.43.2-1.6-.03-3.2-.06-4.8-.09-.21-.22-.72.25-.77-.34.27-.21.6-.16.91-.17.18,0,.36.01.54.06.5.15,1.01.05,1.52.06,1.38-.02,2.76-.05,4.14-.05.33,0,.71-.08.9.33Z"/>
      <path class="cls-39" d="M144.84,23.59c.21.25.59,0,.79.26-.96.11-1.91-.12-2.87-.11-.7-.2-1.43-.18-2.14-.26-.25-.03-.53.06-.75-.14.08-.17.22-.25.39-.31.47-.11.92.1,1.38.12.33.11.67.08,1.01.07.62,0,1.26-.08,1.86.14.14.04.26.1.33.23Z"/>
      <path class="cls-196" d="M156.24,18.13c.75,0,1.49-.01,2.24-.02-.05.05-.11.11-.16.16-1.12,0-2.23.02-3.35.03.39-.3.85-.09,1.27-.16Z"/>
      <path class="cls-196" d="M151.13,18.54c-.26,0-.52-.01-.79-.02.56-.31,1.17-.09,1.75-.16-.28.29-.65.1-.97.18Z"/>
      <path class="cls-196" d="M144.12,18.31c.32,0,.64,0,.96-.01-.32.24-.64.25-.96.01Z"/>
      <path class="cls-9" d="M168.61,23.73c-.11-.01-.22-.02-.33-.03-1.01-.19-2.03.09-3.04-.09.04-.41.39-.36.65-.39.41-.04.83-.02,1.25-.03.5,0,1-.04,1.49.04.91.19,1.83.02,2.74.06.33.01.69-.07.95.23-1.23.25-2.48.09-3.71.21Z"/>
      <path class="cls-182" d="M175.56,23.1c.81.11,1.64-.17,2.44.13-.1.13-.25.09-.38.1-.6,0-1.19.02-1.79.03-.44.04-.89-.06-1.33.09-.32,0-.64.01-.96.02-.05-.08-.05-.15.02-.22.17-.14.37-.2.58-.26.48-.04.96-.19,1.41.12Z"/>
      <path class="cls-32" d="M173.54,23.32s0,.1,0,.15c-.41.02-.82.03-1.23.05-.99,0-1.98.02-2.98.01-.25,0-.53.09-.74-.13.45-.41,1-.21,1.51-.25.39-.04.79-.02,1.18-.03.75.09,1.53-.24,2.25.2Z"/>
      <path class="cls-32" d="M174.5,23.45c.4-.29.86-.1,1.3-.15.04.06.04.1-.04.12-.1.01-.2.03-.3.04-.32,0-.64,0-.96-.01Z"/>
      <path class="cls-115" d="M186.72,20.44c-.11-.05-.23-.1-.34-.15.09-.17.29-.06.4-.15-.37.12-.78-.05-1.16.12-.32.02-.64.03-.96.05-.51.33-.99.28-1.47-.06-.27-.19-.1-.29.07-.39.41-.15.86-.02,1.28-.16.16-.04.32-.05.48-.02.15.03.29.07.44.08.1,0,.19.03.29.02.11-.01.15-.09.06-.04-.09.05,0-.15-.05-.05-.1-.1-.13-.21-.13-.34.01-.07.04-.14.08-.2.07-.04.14-.04.2.02.55.05.74.55,1.04.89.22.24,0,.36-.24.41Z"/>
      <path class="cls-205" d="M185.93,19.15c-.06,0-.11,0-.17.01-.21.18-.44.2-.69.12-.08-.04-.13-.1-.15-.18.01-.04.03-.08.04-.12.32-.01.64-.25.96.02,0,.05,0,.1.02.15Z"/>
      <path class="cls-181" d="M182.71,18.89c.06-.05.11-.1.17-.16.37,0,.75,0,1.12-.01.29.25.64.07.95.12,0,.05,0,.09,0,.14,0,0,.01.04.01.04-.58.37-1.22.17-1.84.2-.19-.04-.39-.08-.41-.34Z"/>
      <path class="cls-139" d="M175.56,23.1c-.52.02-1.03.05-1.55.07-.89.13-1.79.05-2.69.09-1.18.01-2.37.04-3.55.05-.11,0-.17-.07-.18-.18.05-.09.12-.15.21-.19.74-.2,1.53.03,2.26-.22.77-.1,1.55-.05,2.32-.08,1.1-.05,2.2.06,3.29-.13.09-.03.18-.05.28-.06,1.25.06,2.48-.24,3.72-.23.3-.03.65.1.82-.29.09-.19.17-.38.36-.5,1.19-.15,2.37-.07,3.56.06.48-.03.97-.07.72.67-.79.14-1.57.27-2.36.41-1.18.11-2.37.21-3.55.32-1.22.07-2.46-.02-3.67.21Z"/>
      <path class="cls-174" d="M177.71,23.28c.1-.02.2-.03.3-.05.32,0,.64.02.96.03-.11.05-.21.1-.32.15-.32,0-.65,0-.97,0-.06-.06-.05-.1.03-.12Z"/>
      <path class="cls-184" d="M177.71,23.28s-.02.08-.03.12c-.64,0-1.27.01-1.91.02,0-.04.02-.08.04-.12.64,0,1.27-.01,1.91-.02Z"/>
      <path class="cls-193" d="M183.39,20c-.3.06-.21.17,0,.2.43.06.86.07,1.3.1.15.32-.02.42-.31.46-.23.03-.49.02-.69.12-.67.34-.42-.53-.78-.57-.26.01-.26-.17-.26-.35.02-.09.07-.16.15-.21.26-.06.54-.16.6.25Z"/>
      <path class="cls-157" d="M184.7,21.54c-1.02-.03-2.04-.08-3.06-.09-.28,0-.59-.09-.8.19-.32.22-.63.41-.82-.13-.03-.33.14-.59.3-.85.07-.04.14-.05.22-.03.05.06.07.13.03.21-.06.44.2.43.53.44,1.19.02,2.39.08,3.58.12.07.04.07.08.03.14Z"/>
      <path class="cls-179" d="M182.74,20.01c.05.1.11.2.16.31-.06.09-.11.19-.17.28-.13.12-.34.07-.47.2-.42-.09-.83-.06-1.25.02-.16-.15-.2-.33-.16-.53.23-.55.63-.12.94-.17.34.25.61-.29.95-.1Z"/>
      <path class="cls-90" d="M180.96,20.16c.01.22.03.43.04.65-.15.01-.3.02-.45.04-.02-.06-.05-.12-.07-.18-.04-.38-.27-.72-.26-1.12.02-.07.06-.14.11-.19.53.01.51.46.63.8Z"/>
      <path class="cls-213" d="M184.7,21.54s-.03-.09-.03-.14c.16-.02.32-.03.48-.05.1-.05.21-.05.32-.01.14.09.18.22.18.38-.19.12-.25.4-.52.43-.34-.07.15-.73-.44-.62Z"/>
      <path class="cls-212" d="M185.48,21.41c-.11-.02-.21-.03-.32-.05.36-.24.78-.17,1.14-.11.4.07.08.2-.05.28-.25-.05-.54.09-.77-.12Z"/>
      <path class="cls-157" d="M185.48,21.41c.26.02.55-.17.77.12-.05.05-.1.09-.15.14-.15.02-.29.04-.44.06-.12-.07-.19-.17-.18-.32Z"/>
      <path class="cls-12" d="M185.63,20.25c.34-.26.73-.09,1.11-.17-.05.26-.26.13-.36.21-.25-.01-.5-.02-.75-.04Z"/>
      <path class="cls-168" d="M182.26,20.79c.11-.17.24-.31.47-.2.12.73-.37,0-.47.2Z"/>
      <path class="cls-159" d="M107.77,23.23c-.73,0-1.47.02-2.2.02-3,.04-6.01.09-9.01.13.02.13.04.26.06.39,4-.06,8-.12,11.99-.18.02-.04.03-.09.04-.13-.24-.28-.57-.23-.88-.23Z"/>
      <path class="cls-129" d="M55.97,24.02c-4.94.07-9.88.14-14.82.22-.32,0-.76-.19-.95.31,1.6-.02,3.19-.03,4.79-.05,3.68-.05,7.36-.11,11.03-.16-.02-.11-.04-.22-.06-.32Z"/>
      <path class="cls-236" d="M108.65,23.45c-1.03,0-2.06,0-3.08,0-.52-.12-1.05,0-1.57-.04-.16-.01-.43.05-.28-.28.38-.26.81-.16,1.23-.18,1.13-.06,2.26.03,3.39-.11.14-.04.28-.04.42-.03.4.11.81.07,1.22.06,1.16-.05,2.33.05,3.49-.12.19-.04.37-.04.53.07.16.33-.07.4-.31.45-.2.04-.42-.06-.6.1-1.48.03-2.96.05-4.44.08Z"/>
      <path class="cls-117" d="M113.09,23.37c.23-.32.79,0,.95-.47.05-.08.13-.14.22-.17.41-.12.84-.06,1.26-.09.53,0,1.05-.05,1.57.04.78.19,1.57.02,2.36.07.32.02.71-.1.84.36-.48.17-.98.05-1.47.1-1.54.07-3.08-.05-4.61.14-.37,0-.75.01-1.12.02Z"/>
      <path class="cls-82" d="M130.95,22.96c-.23.26-.55.1-.82.19-1.16,0-2.32,0-3.48,0-.13-.59.35-.44.64-.52.9-.01,1.81-.08,2.71.11.33.01.68-.03.96.22Z"/>
      <path class="cls-122" d="M127.28,22.85c-.24.04-.58-.11-.64.31-1.17.02-2.34.04-3.51.06-.05-.08-.03-.16.04-.22,1.14-.21,2.29-.27,3.43-.5.22,0,.43,0,.63.12.08.06.1.14.05.23Z"/>
      <path class="cls-211" d="M114.21,23.35c.37-.32.81-.15,1.22-.16,1.14-.04,2.27-.04,3.41-.05.07.05.07.09,0,.14-1.54.03-3.08.05-4.63.08Z"/>
      <path class="cls-62" d="M118.83,23.27s0-.09,0-.14c.48-.01.95-.02,1.43-.03.15-.16.34-.2.54-.22.78.07,1.58-.26,2.33.18,0,.05,0,.1,0,.14-1.43.02-2.87.04-4.3.06Z"/>
      <path class="cls-225" d="M140.2,23.18c-.11.05-.22.1-.33.15-.74-.05-1.48-.1-2.22-.15-.19-.13-.4-.04-.6-.08-.18-.03-.3-.1-.15-.3.48-.26,1-.17,1.5-.12.35.12.72.08,1.08.11.29.02.57.08.72.38Z"/>
      <path class="cls-8" d="M136.85,22.9c.21.26.6-.01.8.28-.86.09-1.7-.25-2.56-.1-.05,0-.1-.02-.15-.02-.03-.19.1-.25.24-.31.57-.07,1.15-.25,1.67.16Z"/>
      <path class="cls-116" d="M135.14,22.87c-.06.06-.13.12-.19.18-1.12.14-2.23-.12-3.35-.11-.01-.28.22-.29.4-.36.78-.08,1.57-.07,2.35-.06.3,0,.65-.03.79.35Z"/>
      <path class="cls-82" d="M131.95,22.76c-.12.06-.23.12-.35.18-.27.24-.46.03-.66-.12-.11.07-.22.06-.33.01-.03-.07-.03-.15,0-.22.11-.12.25-.19.42-.21.33.06.74-.07.93.36Z"/>
      <path class="cls-16" d="M130.63,22.79c.1,0,.2.02.3.03,0,.05.01.1.01.14-.31,0-.63,0-.94,0,.11-.42.37-.29.63-.16Z"/>
      <path class="cls-104" d="M31.04,24.22c7.91-.11,15.82-.22,23.73-.32,0,.12-.06.19-.18.21-6.47.11-12.94.16-19.4.36-.46.01-.91-.03-1.36-.15-.93-.03-1.86-.07-2.79-.1Z"/>
      <path class="cls-29" d="M33.83,24.32c.43,0,.85,0,1.28-.01,1.16.16,2.32,0,3.48.04.22,0,.54-.22.65.19-1.59.02-3.18.05-4.78.07-.15-.24-.5-.04-.63-.3Z"/>
      <path class="cls-185" d="M55.96,23.94c-.44,0-.88-.02-1.31.07-2.14.02-4.29.03-6.43.07-4.37.07-8.74.15-13.11.23.29.28.66.12.99.14,1.05.07,2.1-.19,3.15.09.32,0,.65,0,.97,0,.27-.25.61-.15.91-.15,4.96-.08,9.92-.15,14.88-.22-.01-.08-.03-.16-.04-.23Z"/>
      <path class="cls-233" d="M123.75,21.46c.53,0,1.06,0,1.6-.01-.19.56-.69.36-1.06.37-.63.02-1.25,0-1.71.54-.12.06-.25.1-.39.11-.23.02-.45.02-.68-.01-.18-.03-.36-.1-.55-.09-3.25.11-6.5-.21-9.75,0-.21.08-.42.11-.64.15-.31,0-.55-.13-.71-.4.21-.23.49-.15.75-.15,1.61-.03,3.23-.02,4.84-.09,2.76-.12,5.53-.28,8.29-.43Z"/>
      <path class="cls-105" d="M109.87,22.13c.27-.02.42.22.64.31.06.09.04.17-.04.24-.47.23-.96.18-1.46.08-.53-.43-1.02-.04-1.53.07-.98.07-1.95.1-2.93.04-.54-.16-1.08-.15-1.61.02-.76.1-1.53.05-2.3.08-.43-.04-.9.12-1.28-.21h0c-.06-.08-.06-.17,0-.25.84-.52,1.77-.31,2.67-.3,1.42.01,2.84.05,4.26-.09.23-.03.5.21.7-.09.95.14,1.91.14,2.86.1Z"/>
      <path class="cls-51" d="M106.55,22.05c-.86,0-1.72.01-2.57.02-2.55,0-5.09.09-7.63.31.01.06.02.12.03.17.36.03.71.05,1.07.08.63.15,1.26.06,1.88-.01.9-.33,1.8-.39,2.76-.3,1.47.14,2.95.19,4.41-.13.06-.03.07-.08.04-.14Z"/>
      <path class="cls-22" d="M106.51,22.19s.04-.09.04-.14c.15,0,.3-.01.46-.02,0,.18-.04.37-.23.42-.2.06-.23-.12-.27-.26Z"/>
      <path class="cls-27" d="M122.48,22.28c.3-.59.8-.69,1.41-.67.48.01.99.15,1.45-.16,1.12.05,2.22-.16,3.34-.22.24-.17.56.02.8-.15.11,0,.21-.01.32-.02.28.37.18.59-.35.67-.57.08-1.15.1-1.72.15-.39.03-.78.08-1.15.2-.68.09-1.36.09-2.04.04-.49-.06-1.01-.37-1.42.18-.22.2-.43.5-.64-.01Z"/>
      <path class="cls-88" d="M126.62,21.9c.84-.39,1.76-.25,2.64-.35.29-.03.76.11.54-.49.23-.25.53-.14.81-.15.02.03.03.06.05.08-.01.06-.03.12-.07.17-.09.13-.14.28-.16.43-.1.28.44.5.09.81-.46-.06-.89-.22-1.36-.25-.32-.1-.64-.08-.97-.07-.13,0-.26,0-.39,0-.4-.04-.83.12-1.18-.21Z"/>
      <path class="cls-79" d="M130.6,21.04s0-.09.02-.13c.1-.01.2-.02.3-.03.41-.2.87.04,1.28-.16h0c.22-.15.47-.07.7-.09.27.34-.02.39-.25.48-.3.12-.67-.04-.92.25-.18.19-.39.18-.61.1-.18-.12-.38-.22-.51-.41Z"/>
      <path class="cls-103" d="M132.19,20.71c-.39.31-.85.11-1.28.16.33-.28.75-.07,1.11-.19.05,0,.11.02.16.03Z"/>
      <path class="cls-88" d="M129.48,21.08c-.23.25-.53.12-.8.15.23-.25.53-.13.8-.15Z"/>
      <path class="cls-196" d="M158.79,18.1c.27,0,.53,0,.8-.01-.26.23-.53.24-.8.01Z"/>
      <path class="cls-131" d="M142.23,19.78c.21-.02.42-.03.62-.05,1.81.09,3.59-.29,5.4-.22.12,0,.24-.09.36-.14.74-.02,1.47-.04,2.21-.06.85-.01,1.69-.02,2.54-.03.85-.19,1.72.03,2.57-.16l1.29-.07c1.26-.14,2.52-.06,3.78-.11.7,0,1.4-.05,2.11.11-.69.53-1.53.21-2.27.42-.14.03-.28.03-.43.02-1.1-.21-2.24.13-3.33-.22.14.13.45-.12.48.24-.25.32-.61.28-.95.28-1.33.03-2.65.04-3.98.06-2.38.03-4.76.32-7.14.25-1.05-.05-2.11.16-3.16-.08-.1-.06-.13-.14-.09-.25Z"/>
      <path class="cls-26" d="M160.72,19.36c.69-.43,1.49-.02,2.21-.38l-1.91.03c-.05-.06-.04-.11.04-.13,2.96-.04,5.92-.08,8.88-.13.06.1.04.18-.05.24-.72.25-1.47.1-2.21.16-.5.04-1.01-.05-1.5.12-.52.12-1.06.02-1.56.21-1.07.14-2.15.09-3.23.1-.24,0-.47-.03-.66-.21Z"/>
      <path class="cls-138" d="M172.34,18.83c1.16,0,2.33,0,3.49,0,.08.07.08.14,0,.21-.3.19-.67.13-.99.27-.6.09-1.21.09-1.81.04-.2-.04-.4-.11-.59-.21-.07-.04-.12-.11-.14-.19.01-.04.02-.08.03-.12Z"/>
      <path class="cls-90" d="M180.82,18.89c.43.1.88-.1,1.29.14-.36.38-.86.16-1.27.32-.19.04-.36-.05-.54-.04-.42,0-.83.01-1.25-.02-.25-.02-.61.06-.63-.38.42-.08.85-.1,1.27-.01.38,0,.75,0,1.13,0Z"/>
      <path class="cls-19" d="M179.69,18.9c-.42.02-.84.04-1.26.06-.84.31-1.68.4-2.51-.02-.02-.04-.05-.08-.08-.11,1.28.03,2.57-.22,3.85.07Z"/>
      <path class="cls-118" d="M161.06,18.88s-.03.09-.04.13c-1.27.01-2.54.03-3.8.04,1.27-.31,2.56-.11,3.85-.17Z"/>
      <path class="cls-26" d="M155.93,19.12c-.84.29-1.71.11-2.57.16.02-.04.03-.09.05-.13.84,0,1.68-.02,2.52-.03Z"/>
      <path class="cls-118" d="M169.98,18.88s-.02-.08-.04-.12c.8.03,1.61-.19,2.4.08,0,0,.02.06.02.06-.8.3-1.59.37-2.38-.01Z"/>
      <path class="cls-45" d="M135.85,20.35c1.06-.07,2.12-.15,3.18-.22.19-.08.42-.17.52.08.11.27-.13.33-.33.38-.43-.02-.83.08-1.23.21-.39.08-.79.06-1.18.07-.44,0-.89.01-1.33.02-.3,0-.6,0-.89.1-.39.07-.77.12-1.16,0-.08-.04-.14-.1-.18-.18-.02-.09,0-.17.07-.24.42-.01.84-.03,1.27-.04.41-.21.87.04,1.28-.17Z"/>
      <path class="cls-140" d="M139.05,20.45c.14-.01.37.04.38-.13.02-.27-.25-.15-.4-.19.34-.28.75-.1,1.12-.18.09.12.27.05.37.17,0,.31-.1.57-.34.78-.39.18-.78.34-1.18.04-.09-.17-.09-.34.05-.49Z"/>
      <path class="cls-33" d="M140.48,20.11c-.13,0-.25-.03-.32-.16.22-.03.47.07.65-.15.48,0,.95-.01,1.43-.02,0,.04-.01.08-.02.11-.38.41-.93.18-1.37.35-.14,0-.26-.04-.37-.13Z"/>
      <path class="cls-197" d="M135.85,20.35c-.39.3-.85.1-1.28.17.39-.29.85-.11,1.28-.17Z"/>
      <path class="cls-197" d="M133.31,20.55s0,.09,0,.14c-.11.09-.22.1-.33.01-.26,0-.53,0-.79,0,.35-.27.75-.11,1.12-.15Z"/>
      <path class="cls-143" d="M180.82,19.23c.39-.32.87-.06,1.29-.19.2-.05.4-.09.6-.14.07.14.21.13.34.15.46.3,1.02,0,1.48.26.07.02.13.06.2.09.15.12.45.1.4.41l-.52.03c-.89,0-1.75-.17-2.62-.3-.35-.15-.74-.04-1.09-.21-.03-.03-.06-.06-.09-.09Z"/>
      <path class="cls-141" d="M107.85,22.77c-2.57.12-5.15.05-7.72.14-.37.01-.74.02-1.1.16-.85,0-1.69,0-2.54.01.02.12.05.24.07.36,2.04-.03,4.08-.06,6.12-.09.34,0,.69.08.99-.17.32-.02.63-.05.95-.06,1.29-.05,2.59.07,3.88-.15-.17-.22-.4-.22-.65-.21Z"/>
      <path class="cls-160" d="M108.5,22.98c-3.16.03-6.31.06-9.47.09.11-.1.22-.21.34-.31.43,0,.85,0,1.28.01,2.32.02,4.64.07,6.95-.08.77-.05,1.52.1,2.27.02.31-.03.63.01.93-.13.89-.08,1.79-.06,2.68-.05.26,0,.61-.09.69.33-.05.01-.09.03-.14.05-.16,0-.32,0-.49.01-1.2.13-2.41.05-3.62.1-.4-.02-.8.08-1.19-.04-.08,0-.16,0-.24.01Z"/>
      <path class="cls-141" d="M97.45,22.63c.63,0,1.26,0,1.88-.01.01.05.03.09.04.14-.64-.02-1.3.22-1.92-.13Z"/>
      <path class="cls-167" d="M167.64,23.1s0,.09,0,.13c-.13.15-.34.02-.48.15-.66.06-1.32.11-1.98.17-.82.22-1.65.16-2.48.07-3.28.04-6.56.07-9.84.11-1.7-.11-3.4-.14-5.11-.08-.49-.15-.99.03-1.48-.08-.16-.02-.32-.04-.48-.06.08-.4.42-.33.69-.35.5-.04.99-.02,1.49-.03.33,0,.67,0,1-.01,2.21-.03,4.42-.07,6.62-.01.46.1.93.07,1.39.06.61,0,1.23-.02,1.84-.03.98-.03,1.96.03,2.93-.08.09-.02.18-.02.27-.02.48.09.97.04,1.45.04.69-.02,1.39.02,2.08-.06.08-.02.17-.03.25-.02.33.07.65.05.96-.06.3-.04.61-.1.85.17Z"/>
      <path class="cls-32" d="M162.7,23.63c.83-.02,1.65-.05,2.48-.07.78,0,1.57,0,2.35,0,.25,0,.53-.09.74.13-1.85.04-3.71.08-5.56.11,0-.06,0-.12,0-.18Z"/>
      <path class="cls-21" d="M148.08,23.32c-.75.15-1.54-.12-2.29.2-.32.02-.64.05-.96.07-.1-.02-.21-.04-.31-.07-.15-.04-.23-.13-.19-.3.07-.07.14-.11.23-.14.27-.07.55-.06.82-.07.85.04,1.7-.14,2.55.08.09.05.14.13.15.23Z"/>
      <path class="cls-39" d="M146.28,23.57c.49.01,1-.13,1.48.08-.49-.01-1,.16-1.48-.08Z"/>
      <path class="cls-132" d="M140.2,23.18c-.56-.3-1.22-.03-1.79-.28.18-.29.49-.24.76-.31.2-.02.4.03.6.04.16.01.32.03.48.07.61.11,1.24.13,1.85.28.08.03.15.09.2.16-.13.38-.42.19-.66.18-.48-.05-.97-.09-1.45-.14Z"/>
      <path class="cls-69" d="M144.36,23.27c.05.08.11.16.16.25-.62-.04-1.24-.08-1.86-.12-.12-.23.03-.33.2-.43.53-.05,1.1-.31,1.5.3Z"/>
      <path class="cls-50" d="M142.78,23.13c-.04.09-.08.18-.12.27-.34.01-.69.14-1.02-.08.21-.05.48.08.62-.2.17-.15.35-.15.52,0Z"/>
      <path class="cls-24" d="M167.16,23.39c.12-.18.3-.14.48-.15,1.24,0,2.47-.02,3.71-.03-.02.06-.06.1-.13.12-.87.02-1.75.05-2.62.07-.48,0-.96,0-1.43-.01Z"/>
      <path class="cls-44" d="M171.21,23.33s.09-.08.13-.12c.89-.01,1.78-.03,2.67-.04-.12.16-.3.13-.47.14-.78,0-1.55,0-2.33.01Z"/>
      <path class="cls-168" d="M181.94,19.35c.89.16,1.81.16,2.67.48-.38.3-.82.13-1.23.17-.17-.25-.43-.14-.66-.16-.32.1-.59.34-.94.32-.28.33-.55-.17-.83,0-.4-.11-.23-.66-.62-.78-.04-.05-.04-.09.01-.13.15,0,.3-.02.45-.02,0,0,0,0,0,0,.36.2.76-.04,1.13.12Z"/>
      <path class="cls-109" d="M185.13,19.8c-.07-.25-.4-.09-.49-.32.32-.41.72-.26,1.12-.15,0,.13.05.23.17.3.05.41-.35.13-.46.3-.14.02-.26,0-.34-.14Z"/>
      <path class="cls-222" d="M185.76,19.33c-.38-.02-.77-.09-1.12.15,0,0,0,0,0,0-.14-.34-.01-.43.32-.34.26,0,.53,0,.79.01,0,.06,0,.12,0,.17Z"/>
      <path class="cls-158" d="M185.47,19.94c.15-.1.3-.2.46-.3.15.01.36,0,.34.21-.01.16-.21.1-.32.11-.16,0-.31-.01-.47-.02Z"/>
      <path class="cls-90" d="M184.97,19.15c-.2.02-.32.13-.32.34-.49-.3-1.18.1-1.6-.45.64,0,1.28-.01,1.92-.02,0,.04,0,.08,0,.13Z"/>
      <path class="cls-154" d="M170.09,22.92c-.76.18-1.53.15-2.31.13-1.73-.05-3.46.13-5.19.1-.2,0-.4,0-.59-.06-1.48.15-2.97.13-4.45.09-.25-.15-.14-.28.04-.38.23-.13.49-.1.73-.17.09-.01.18-.02.27,0,1.1.06,2.2.08,3.29-.07.24-.11.48-.18.74-.05.58.21,1.17.13,1.75.03.11-.03.23-.04.35-.03.74.11,1.47-.07,2.21-.12.07-.01.15,0,.22,0,.29.15.62.2.94.25.28.1.57.07.86,0,.08,0,.16,0,.23,0,.3.08.67-.04.9.27Z"/>
      <path class="cls-73" d="M180.07,21.48c.18.43.5.16.77.16-.05.14-.1.27-.16.41-.04.13-.16.13-.27.15-.15.02-.33-.12-.43.09-.01.06-.05.1-.11.11-1.32.03-2.63.31-3.96.23-.69-.08-1.41.22-2.09-.12.12-.47.53-.37.84-.38,1.22-.05,2.44,0,3.66-.09.12-.04.23-.1.35-.15.11-.05.22-.08.33-.1.14-.03.27-.06.41-.1.19-.06.38-.1.56-.18.03,0,.06-.02.09-.02Z"/>
      <path class="cls-150" d="M170.09,22.92c-.33-.1-.71.11-1.02-.16,1.19-.36,2.4-.53,3.65-.38.09.03.16.09.21.17-.03.35-.37.14-.52.27-.77.03-1.55.06-2.32.1Z"/>
      <path class="cls-224" d="M162.58,23.01c1.51-.03,3.02-.06,4.52-.08.23,0,.48-.08.68.12-.05.02-.1.03-.14.05h-.96c-.26.1-.53.1-.79.03-.06,0-.11,0-.17,0-.72.11-1.45.04-2.17.08-.31-.12-.73.27-.97-.2Z"/>
      <path class="cls-229" d="M172.41,22.82c.13-.16.32-.12.49-.15.19-.17.42-.25.65-.18.73.23,1.5-.08,2.23.16-1.11.27-2.24.14-3.36.16Z"/>
      <path class="cls-101" d="M175.77,22.66c-.96,0-1.92.01-2.88.02,0-.04,0-.09,0-.13.3-.3.62-.29.95-.06.68.11,1.4-.17,2.07.14-.05.02-.09.03-.14.03Z"/>
      <path class="cls-157" d="M180.42,22.13c.09-.03.17-.05.26-.08-.12.46-.48.38-.81.35.02-.04.04-.07.06-.11.11-.2.3-.18.48-.16Z"/>
      <path class="cls-128" d="M181.79,20.16c.24-.33.55-.43.94-.32,0,.06,0,.11,0,.17-.2.08-.37.19-.52.34-.24.23-.37.08-.42-.18Z"/>
      <path class="cls-164" d="M180.37,20.67c-.09-.82-.51-1.18-1.3-1.09-3.59.41-7.19.46-10.79.44-2.74-.01-5.48-.07-8.23-.03-2.62.04-5.23.1-7.85.1-2.27,0-4.54-.05-6.8-.07-.04-.06-.02-.11.05-.13,3.94-.13,7.89-.27,11.83-.4.1,0,.2-.05.3-.08.95-.17,1.89-.19,2.84-.04.1,0,.2,0,.31,0,1.33-.02,2.66-.05,3.99-.07.74-.13,1.48-.13,2.22-.17,1.18.14,2.36.01,3.54.02.76,0,1.52-.06,2.28.07.19.07.4.01.59.06,1.53.09,3.05-.13,4.57-.08.52.02,1.05.08,1.57.05.33-.02.63.05.83.35.01.36.57.64.17,1.07-.04,0-.08,0-.12,0Z"/>
      <path class="cls-38" d="M180.31,19.6c-.76-.38-1.58-.04-2.36-.17-.56-.13-1.12-.15-1.69-.14-.44-.07-.93.19-1.34-.17.3-.24.67-.06.99-.17.84,0,1.67.01,2.51.02.36.25.76.08,1.14.12.27.03.58-.09.8.17-.01.04-.02.09-.01.13-.01.07-.02.14-.03.21Z"/>
      <path class="cls-135" d="M96.59,23.58c2.99-.04,5.99-.08,8.98-.13-.59-.37-1.3.14-1.89-.27-2.38.03-4.76.06-7.14.1.02.1.03.2.05.3Z"/>
      <path class="cls-117" d="M109.94,22.96c1.21-.02,2.41-.03,3.62-.05-1.22.3-2.46.11-3.69.17-.02-.07,0-.11.08-.12Z"/>
      <path class="cls-141" d="M109.94,22.96s-.05.08-.08.12c-.37-.08-.76.08-1.12-.11.4,0,.8,0,1.19-.01Z"/>
      <path class="cls-146" d="M114.18,22.85c-1.1-.28-2.22,0-3.32-.1-.06-.1-.04-.18.06-.24.08-.04.17-.08.26-.11,1.28-.07,2.55-.13,3.83-.03.22.09.47.15.45.47-.43,0-.85,0-1.28,0Z"/>
      <path class="cls-64" d="M120.74,23.1c-.16,0-.32,0-.48,0-.56-.32-1.17-.06-1.75-.13-.48-.06-.98.17-1.44-.13.11-.15.27-.2.44-.23.53-.15,1.08-.21,1.63-.14.08,0,.17.03.25.05.44.16.94-.06,1.35.22.08.12.09.24,0,.35Z"/>
      <path class="cls-178" d="M117.54,22.82c-.16,0-.31.01-.47.02-.54,0-1.08,0-1.62,0-.11-.09-.22-.18-.32-.28.76-.52,1.56-.21,2.35-.14.15.11.16.24.06.39Z"/>
      <path class="cls-234" d="M130.63,22.79c-.21.04-.46-.06-.63.16-.9-.18-1.81-.11-2.72-.11,0-.05-.01-.1-.01-.15.13-.16.34-.21.47-.38.1-.06.2-.07.32-.07.08,0,.15.02.23.04.64,0,1.26.1,1.89.17.16.04.34.05.43.22,0,.04.02.08.03.12Z"/>
      <path class="cls-144" d="M120.74,23.1c0-.1,0-.21,0-.31.05-.04.12-.07.18-.07.18,0,.37.07.54-.02.05-.08.03-.16,0-.24-.01-.07.01-.12.06-.16.21,0,.42,0,.64,0,.22.38.54.38.93.31.47-.09,1.11.37,1.36-.45.03-.1.34-.04.52-.05.46,0,.91-.02,1.37-.01.08,0,.16.03.23.06.06.05.1.12.1.2-.13.22-.35.08-.51.14.15.07.46-.18.47.23-1.16.2-2.32.45-3.51.37-.8,0-1.59.02-2.39.03Z"/>
      <path class="cls-59" d="M126.64,22.7c-.28-.4-.69.15-1.06-.2.37-.19.73-.06,1.06-.13.37-.26.74-.29,1.1.01.18.61-.33.18-.47.32-.21,0-.42,0-.63,0Z"/>
      <path class="cls-206" d="M139.24,22.69c-.21.32-.56.11-.83.21-.52,0-1.04,0-1.56,0-.57-.09-1.14-.12-1.71-.03-1.06-.24-2.13-.03-3.19-.11-.34-.09-.68-.17-1.01-.26-.18.01-.23-.1-.22-.25.04-.2.16-.33.35-.4.8-.15,1.61-.06,2.41-.1.29-.01.57-.02.85-.12,1.37-.14,2.75-.13,4.13-.1.91.03,1.18.48.78,1.16Z"/>
      <path class="cls-41" d="M130.78,22.32c.05.06.1.12.16.17-.11.06-.22.12-.32.17-.15,0-.31-.02-.46-.03-.65-.37-1.4-.1-2.08-.29h0c-.47-.2-.98.06-1.45-.13-.05,0-.1,0-.14-.02.03-.39.34-.19.52-.23.3-.06.61.07.9-.1.1,0,.21,0,.31,0,.3.19.66-.05.96.14.52-.11.98.15,1.45.28.04-.04.07-.05.1-.03.03.02.04.03.04.05Z"/>
      <path class="cls-173" d="M117.54,22.51c-.8.02-1.6.04-2.41.06-1.37,0-2.75.01-4.12.02-.1-.1-.1-.2,0-.3.23-.26.54-.16.82-.17,3.13-.16,6.26.15,9.39.03.05.25.02.46-.26.55-.55-.04-1.1.1-1.65-.05h-.01c-.57-.23-1.18.09-1.75-.13Z"/>
      <path class="cls-61" d="M124.88,22.24c-.06.15-.94-.32-.29.39.17.19-.08.24-.23.25-.61.05-1.21-.23-1.85-.02-.29.09-.35-.31-.35-.57.11,0,.21,0,.32,0,.27.26.42.18.48-.16.33-.26.73-.14,1.1-.17.26.14.67-.13.82.3Z"/>
      <path class="cls-187" d="M111,22.29c0,.1,0,.2,0,.3-.06.01-.11.03-.17.04-.12.06-.23.08-.32-.04v-.07s0-.07,0-.07c.12-.18.31-.15.48-.16Z"/>
      <path class="cls-119" d="M121.07,22.59c.05-.15.1-.3.14-.45.11.05.21.1.32.15,0,.05,0,.11,0,.16-.1.21-.24.33-.46.14Z"/>
      <path class="cls-141" d="M110.52,22.59c.11.01.21.03.32.04,0,.04,0,.08.02.13-3.2.05-6.41.1-9.61.14-.21,0-.43.05-.6-.13.8-.02,1.59-.04,2.39-.06.48-.12.96-.14,1.44-.02,1.06-.02,2.12-.04,3.19-.06.43-.08.85-.28,1.28-.01.53.03,1.06.06,1.58-.03Z"/>
      <path class="cls-93" d="M108.94,22.62c-.43,0-.86,0-1.28.01.43-.12.85-.7,1.28-.01Z"/>
      <path class="cls-57" d="M104.47,22.7c-.48,0-.96.01-1.44.02.48-.26.95-.26,1.44-.02Z"/>
      <path class="cls-17" d="M124.88,22.24c-.23-.26-.53-.11-.8-.15-.02-.3.14-.25.32-.16.74-.01,1.49-.02,2.23-.03.43,0,.85,0,1.28,0-.41.39-1.01-.06-1.42.33-.53,0-1.07.02-1.6.03Z"/>
      <path class="cls-233" d="M124.4,21.93c-.13,0-.25.03-.32.16-.37,0-.75.01-1.12.02.41-.6.93-.33,1.43-.18Z"/>
      <path class="cls-202" d="M130.78,22.32s-.1,0-.14-.02c-.11-.26-.59-.35-.34-.77.12-.15.16-.35.3-.49,0,0,0,0,0,0,.23,0,.46,0,.5.31-.06.1-.15.08-.25.07.09.03.19.02.27.08.02.06.02.12,0,.19-.05.11-.16.19-.17.33-.06.1-.11.21-.17.31Z"/>
      <path class="cls-17" d="M129.18,22.02c-.32-.04-.67.14-.96-.14.32.04.67-.14.96.14Z"/>
      <path class="cls-79" d="M130.6,21.04c.01.23-.1.39-.3.49,0-.23-.02-.46.3-.49Z"/>
      <path class="cls-103" d="M132.98,20.71c.11,0,.22,0,.33-.01,0,.05,0,.1,0,.15.86.24,1.72-.11,2.58-.03.28.03.59-.1.8.2-.16.39-.51.32-.82.34-.64.03-1.27.02-1.91.04-.74-.09-1.52.23-2.24-.19.31-.45.95-.03,1.25-.49Z"/>
      <path class="cls-216" d="M131.72,21.2c.74,0,1.48-.01,2.22-.02.06.08.05.15,0,.22-.19.19-.43.25-.69.29-.17.02-.35.03-.52.03-.54-.05-1.1.17-1.6-.18-.08-.03-.2.02-.21-.11,0-.02.12-.05.18-.08.22-.03.46.07.63-.15Z"/>
      <path class="cls-228" d="M145.44,19.9s-.03.09-.05.13c-.36,0-.72.02-1.09.03-.67.18-1.36.06-2.03.11-.28.02-.58-.07-.85.09-.27.02-.44.2-.61.37-.07.03-.14.03-.2-.02-.07-.21.05-.35.18-.49.45-.24.95-.14,1.42-.21,1.08,0,2.15,0,3.23,0Z"/>
      <path class="cls-26" d="M160.41,19.37c-.95.01-1.9.03-2.84.04-.23-.02-.45-.04-.68-.06,1.18,0,2.36-.37,3.52.03Z"/>
      <path class="cls-86" d="M169.98,18.88c.79,0,1.59,0,2.38.01,0,.04,0,.08,0,.12-.64.36-1.33.12-2,.19-.34.04-.68.02-1.02.02-1.06-.01-2.13.12-3.18-.14.92-.32,1.87-.09,2.8-.18.34-.03.68-.03,1.02-.04Z"/>
      <path class="cls-46" d="M166.16,19.09h3.15c.03.18-.09.21-.23.21-.73,0-1.46.08-2.18-.01-.73,0-1.46,0-2.19,0,.45-.33.97-.09,1.45-.2Z"/>
      <path class="cls-71" d="M166.9,19.29c.8-.18,1.63.11,2.41-.2,1.02-.02,2.03-.05,3.05-.07.17.02.36-.02.49.15.09.06.09.12,0,.17-1.98.04-3.97.11-5.95-.06Z"/>
      <path class="cls-227" d="M172.84,19.34c0-.06,0-.12,0-.17.69-.02,1.39-.04,2.08-.06.47.01.93.02,1.4.04.03.19-.1.22-.23.21-.94,0-1.88.09-2.82,0-.14,0-.29,0-.43-.01Z"/>
      <path class="cls-220" d="M136.66,20.98c-1.11,0-2.22,0-3.34-.01-.01,0-.04-.03-.04-.05,0-.02.01-.05.02-.08.43,0,.85-.01,1.28-.02.25-.17.56.02.8-.15.48,0,.96-.01,1.44-.02.58.15,1.17,0,1.56.05.01,0-.16.05-.32-.09.31-.12.61-.34.97-.16,0,.15,0,.31,0,.46-.16.21-.39.22-.62.24-.32.01-.64.01-.96.02-.28,0-.56.03-.79-.19Z"/>
      <path class="cls-114" d="M138.08,20.61c.21.06.47-.09.71.16-.69-.06-1.34.18-1.96-.12.42-.01.83-.03,1.25-.04Z"/>
      <path class="cls-197" d="M135.39,20.67c-.23.24-.53.13-.8.15.23-.26.53-.12.8-.15Z"/>
      <path class="cls-74" d="M138.41,20.96c.21-.02.42-.03.63-.05.44.1.83-.11,1.25-.18.03.02.06.04.09.06.06.33-.26.73.17,1.01,0,.13-.08.2-.2.23-.31-.02-.32.1-.13.3-.02.12-.09.21-.19.27-.22.07-.51.07-.51-.18,0-.41-.37-.63-.41-1-.12-.32-.67,0-.69-.46Z"/>
      <path class="cls-74" d="M140.79,20.11c-.05.16-.1.33-.15.49-.05.13-.14.2-.28.19-.02-.02-.05-.04-.07-.06-.19-.28.13-.41.18-.61.11,0,.21,0,.32,0Z"/>
      <path class="cls-90" d="M181.94,19.35c-.38-.03-.77.13-1.13-.12.38.03.77-.13,1.13.12Z"/>
      <path class="cls-214" d="M155.62,23.27c-1.34.02-2.68.05-4.02.06-.87,0-1.75,0-2.62-.02-.2-.15-.49.07-.67-.17.01-.09.05-.16.12-.21,1.06-.18,2.13.03,3.19-.03.56,0,1.13-.05,1.69,0,.77.07,1.53-.1,2.3-.04.3.02.65-.06.89.31-.28.23-.58.13-.87.09Z"/>
      <path class="cls-214" d="M157.39,23.04c1.55-.01,3.1-.03,4.65-.04.06.06.06.12,0,.18-.03.03-.06.02-.09,0-1.02.18-2.06-.02-3.08.16-.64,0-1.28.02-1.92.02-.41-.27-.13-.35.12-.43.12,0,.23.02.32.11Z"/>
      <path class="cls-121" d="M157.15,23.04c-.19.03-.35.07-.2.32-.45.04-.9.07-1.33-.08.23-.03.46-.05.86-.1-1.18-.25-2.21.16-3.2-.21.3-.16.69-.02.97-.28.13-.04.27-.04.4-.02.57.11,1.14.01,1.71.04.3.02.65-.06.79.33Z"/>
      <path class="cls-121" d="M158.87,23.33c1.02-.3,2.06-.11,3.08-.16-1.02.28-2.06.1-3.08.16Z"/>
      <path class="cls-24" d="M163.51,23.16c.74,0,1.47-.01,2.21-.02-.75.27-1.52.12-2.28.13-.02-.06,0-.1.07-.11Z"/>
      <path class="cls-121" d="M163.51,23.16s-.04.08-.07.11c-.46-.07-.94.1-1.39-.08,0-.06,0-.12,0-.18.18,0,.36,0,.54,0,.28.25.63.03.93.15Z"/>
      <path class="cls-100" d="M148.31,23.17c.22.04.47-.06.66.15-.3,0-.59,0-.89,0-.03-.04-.06-.07-.09-.1.1-.11.21-.12.33-.05Z"/>
      <path class="cls-24" d="M165.88,23.13c.26,0,.53,0,.79-.01-.26.2-.52.2-.79.01Z"/>
      <path class="cls-172" d="M148.31,23.17c-.11.02-.22.03-.33.05-.9.06-1.79.06-2.69,0-.26-.09-.53-.08-.79,0-.05.02-.1.04-.15.06-.5-.33-1.06-.04-1.57-.15-.17,0-.35,0-.52,0-.05,0-.1,0-.14-.03-.04-.28.14-.34.35-.37.43-.02.86,0,1.29.03.35,0,.71.02,1.06.02.56.15,1.14,0,1.71.06.56.12,1.14.04,1.7.12.03.03.07.06.1.09,0,.05,0,.09-.02.13Z"/>
      <path class="cls-50" d="M144.51,23.21c.26-.2.53-.21.79,0h-.79Z"/>
      <path class="cls-31" d="M139.2,21.27c.04.38.43.61.39,1.05-.02.24.26.17.43.18.11.3-.21.2-.3.31-.16-.04-.33-.08-.49-.12.24-.78-.2-.93-.83-.92-1.37.02-2.73.03-4.1.05-.02-.02-.05-.04-.07-.06-.27-.2-.77.36-.91-.27.21-.05.43-.11.64-.16,1.12-.21,2.26-.02,3.37-.22.63-.01,1.26-.02,1.87.16Z"/>
      <path class="cls-134" d="M142.43,22.8c-.1.1-.2.2-.31.3-.67.01-1.32-.1-1.97-.23.19-.31.56-.23.83-.35.48.05.96.1,1.44.15.07.05.08.09,0,.14Z"/>
      <path class="cls-9" d="M140.99,22.5c-.16.4-.53.28-.83.35-.14-.02-.29-.03-.43-.05.1-.1.2-.21.3-.31.06-.06.12-.12.19-.18.26.06.51.12.77.18Z"/>
      <path class="cls-194" d="M154.51,22.8c-.08,0-.15,0-.23,0-.14.06-.27.09-.39-.04.06-.09.11-.18.17-.27.14-.19.34-.17.54-.19,1.28-.02,2.55-.05,3.83-.05,1.01.13,2.03.09,3.04-.01.14-.04.28-.04.42-.04.19,0,.38,0,.56,0,.76-.01,1.53-.02,2.29-.03,1.3.02,2.59-.09,3.89-.13.31.05.62.01.93,0,.34-.02.51.14.22.47-.88.16-1.77.16-2.65.02-.03-.01-.06-.03-.08-.05-.76.11-1.54.04-2.3.18h-.26c-.65.09-1.29.15-1.94,0-.17-.22-.31-.06-.46.03-1.2.12-2.4.13-3.61.05h-.05c-1.31.15-2.61.12-3.92.06Z"/>
      <path class="cls-229" d="M167.13,22.52c.9-.17,1.82-.07,2.72-.12.07-.07.16-.12.25-.17.69-.25,1.41-.15,2.12-.17,1.93-.06,3.87-.07,5.8-.09.21,0,.43-.03.59.15-.84.35-1.72.09-2.58.19-.73.08-1.48-.13-2.19.17-.32.02-.63.04-.95.06-1.28-.07-2.55.18-3.83.21-.06,0-.12,0-.19.01-.25.08-.51.1-.76,0-.33-.07-.74.15-.99-.24Z"/>
      <path class="cls-58" d="M154.51,22.8c1.31-.02,2.61-.04,3.92-.05-.3.28-.75,0-1.04.29-.08,0-.16,0-.24,0-.48-.27-1.01-.1-1.51-.13-.38-.02-.78.16-1.13-.11Z"/>
      <path class="cls-58" d="M158.49,22.75c1.2-.02,2.4-.04,3.61-.05-1.2.3-2.4.28-3.61.05Z"/>
      <path class="cls-58" d="M164.75,22.66c.74-.39,1.53-.14,2.3-.18-.75.27-1.52.31-2.3.18Z"/>
      <path class="cls-58" d="M162.55,22.67c.65,0,1.29,0,1.94,0-.65.14-1.29.3-1.94,0Z"/>
      <path class="cls-91" d="M168.12,22.77c.25,0,.51,0,.76,0-.25.2-.51.22-.76,0Z"/>
      <path class="cls-58" d="M170.02,22.4c-.05.01-.1.01-.16,0-.04-.29-.2-.37-.44-.24-.25.13-.46.06-.67-.06-.08-.05-.08-.1,0-.16,3.33-.05,6.67-.1,10-.14.12,0,.24.07.37.11-.1.02-.21.03-.31.05-1.58.19-3.18.07-4.76.14-1.24.06-2.49-.06-3.72.17-.11.02-.2.06-.29.13Z"/>
      <path class="cls-96" d="M170.02,22.4c.01-.25.16-.24.37-.26,2.11-.18,4.22-.08,6.33-.15.69-.02,1.37-.02,2.06-.03-.05.05-.11.11-.16.16-2.87.07-5.75-.05-8.61.28Z"/>
      <path class="cls-231" d="M180.42,22.13c-.13.15-.3.17-.48.16-.08-.06-.34-.04-.18-.21.2-.22.46-.21.67.05Z"/>
      <path class="cls-157" d="M179.43,21.82c.14-.25.37-.33.64-.34-.06.39-.4.27-.64.34Z"/>
      <path class="cls-217" d="M168.74,21.95c0,.05,0,.11,0,.16-1.34.05-2.67.31-4.02.19-.78-.08-1.55-.07-2.33.03-.18,0-.36,0-.55,0-.91.04-1.82.05-2.73.06-1.49-.14-2.99,0-4.48-.02-.71.05-1.43-.06-2.14.1-.22,0-.44,0-.67.01-.73-.11-1.47-.09-2.2.02-1.48.11-2.95-.24-4.44-.24,7.85-.11,15.7-.22,23.55-.33Z"/>
      <path class="cls-110" d="M151.55,22.97c-1.07.29-2.15.01-3.22.06,0,0,0,0,0,0-.05-.11-.03-.18.08-.23.93,0,1.86-.12,2.79.02.09,0,.18.02.28.02.08.01.1.05.07.13Z"/>
      <path class="cls-162" d="M140.36,20.78c.09-.06.19-.13.28-.19.06,0,.11.01.17.02-.19.42-.14.83,0,1.25-.1.1-.2.08-.31,0q-.59-.31-.15-1.08Z"/>
      <path class="cls-100" d="M146.57,22.91c-.58-.08-1.18.16-1.75-.14.97.03,1.94-.18,2.9.09-.38.17-.77.12-1.15.04Z"/>
      <path class="cls-153" d="M151.2,22.83c-.95,0-1.89-.01-2.84-.02-.08-.01-.09-.04-.03-.1.96.06,1.92-.21,2.87.11Z"/>
      <path class="cls-164" d="M141.42,20.25c.94-.35,1.92-.14,2.88-.2-.94.36-1.92.11-2.88.2Z"/>
      <path class="cls-153" d="M151.55,22.97s-.05-.08-.07-.13c.81-.03,1.61-.05,2.42-.08.13.01.26.03.39.04-.31.22-.67.08-1,.15-.58,0-1.15,0-1.73.01Z"/>
      <path class="cls-191" d="M149.63,22.52c.73-.23,1.46-.27,2.2-.02-.73,0-1.46.01-2.2.02Z"/>
      <path class="cls-214" d="M148.33,22.71s.02.06.03.1c-.01.08-.02.15-.03.23-.59-.08-1.19.16-1.76-.13.38-.01.77-.03,1.15-.04.17-.18.39-.16.61-.15Z"/>
      <path class="cls-218" d="M152.49,22.48c.67-.32,1.37-.1,2.06-.17.07.04.07.08,0,.12-.16.02-.33.04-.49.06-.52,0-1.05,0-1.57-.01Z"/>
      <path class="cls-50" d="M142.43,22.8s0-.1,0-.14c.44.05.9-.13,1.34.1-.44.21-.89-.04-1.33.05Z"/>
      <path class="cls-188" d="M140.51,21.86c.1,0,.2,0,.31,0,.03.09.12.21,0,.27-.16.07-.36.1-.47-.1.06-.05.11-.11.17-.16Z"/>
      <path class="cls-198" d="M173.28,19.36c.77-.02,1.53-.03,2.3-.06.25-.01.54.09.75-.15.57-.08,1.1.07,1.63.28-1.56.03-3.12.08-4.68-.07Z"/>
      <path class="cls-126" d="M121.07,22.59c.18.04.32-.06.46-.14.11.08.36.1.16.33-.26.1-.53.11-.8,0-.05,0-.11,0-.16,0-.48-.08-.98.18-1.43-.14.59-.02,1.18-.04,1.76-.05Z"/>
      <path class="cls-117" d="M117.54,22.51c.58.07,1.19-.2,1.75.13-.59.02-1.18-.03-1.75.18,0-.1,0-.21,0-.31Z"/>
      <path class="cls-226" d="M128.07,22.36c.69.08,1.45-.26,2.08.29-.69-.13-1.41-.02-2.08-.29Z"/>
      <path class="cls-226" d="M126.62,22.23c.48.04.99-.17,1.45.12-.11,0-.22.01-.33.02-.37,0-.73,0-1.1-.01,0-.04-.01-.09-.02-.13Z"/>
      <path class="cls-64" d="M120.9,22.79c.27,0,.53,0,.8,0-.26.22-.53.23-.8,0Z"/>
      <path class="cls-31" d="M130.95,22.01c-.26-.21-.07-.29.11-.36.05,0,.09,0,.14.01,1.02,0,2.04-.04,3.06.09l.05.06c-1.11.26-2.24.13-3.35.2Z"/>
      <path class="cls-31" d="M131.13,21.54l1.72-.03c-.53.49-1.15.18-1.74.18,0,0-.05-.04-.05-.04.02-.04.04-.08.07-.12Z"/>
      <path class="cls-207" d="M137.31,21.27c-1.12.02-2.23.04-3.35.06,0-.05,0-.1-.01-.15.9-.12,1.83.13,2.72-.19.27,0,.53,0,.8,0,.08.16-.07.2-.15.28Z"/>
      <path class="cls-98" d="M131.1,21.69c.57-.11,1.19.14,1.74-.18.16,0,.32,0,.48-.01.23.25.46.12.71.04.19-.07.4-.1.22.22-1.05,0-2.11.23-3.15-.07Z"/>
      <path class="cls-180" d="M137.31,21.27c.05-.09.1-.19.15-.28.32,0,.64-.02.95-.03.17.33.66-.13.79.32-.63,0-1.26,0-1.89,0Z"/>
      <path class="cls-223" d="M154.55,22.44v-.06s0-.06,0-.06c1.54-.02,3.08-.05,4.62-.07.06.08.05.15-.02.21-.2.03-.41.06-.61-.02-1.33,0-2.66,0-3.99,0Z"/>
      <path class="cls-58" d="M158.54,22.43l.63-.04c.8-.12,1.6-.16,2.4-.02-1.01.26-2.02.26-3.03.05Z"/>
      <path class="cls-67" d="M161.57,22.38c-.8,0-1.6.01-2.4.02,0,0,0-.07,0-.07,0,0,0-.07,0-.07.89.04,1.8-.19,2.68.09-.09.01-.19.03-.28.04Z"/>
      <path class="cls-6" d="M162.39,22.33c.77-.25,1.55-.25,2.33-.03-.78.01-1.55.02-2.33.03Z"/>
    </g>
  </g>
  <g id="Layer_14">
    <path class="cls-53" d="M163.59,22.35c2.15-3.22,5.76-5.14,9.24-6.61,4.43-1.87,9.06-3.35,13.69-4.63,9.36-2.59,18.97-4.19,28.63-5.08,20.38-1.88,40.85-.77,61.25.1,11.87.51,23.75.93,35.64.66,3.21-.07,3.22-5.07,0-5-21.64.49-43.22-1.33-64.84-1.72-20.25-.37-40.78.59-60.45,5.8-5.3,1.4-10.55,3.09-15.61,5.2-4.65,1.95-9.02,4.47-11.87,8.75-1.79,2.69,2.54,5.19,4.32,2.52h0Z"/>
    <path class="cls-53" d="M159.46,29.36c24.93,18.05,56.56,5.33,83.24-.5,30.83-6.74,63.05-7.49,94.16-2.11,14.71,2.54,30.34,6.24,41.24,17.15v-3.54c-1.07.99-2.68-1.35-2.9-2.24-.52-2.09,1.58-3.75,3.18-4.67,4.55-2.62,10.45-3.47,15.48-4.72,11.63-2.88,23.39-5.22,35.23-7.01,22.84-3.44,46.19-5.06,69.26-3.19,11.31.92,22.55,2.75,33.5,5.74s21.34,7.47,31.62,12.4c9.47,4.54,19.18,9.11,29.65,10.73,9.84,1.53,19.76.43,29.38-1.91,21.78-5.28,42.69-16.82,65.66-15.32,3.21.21,3.2-4.79,0-5-22-1.43-42.21,8.73-62.91,14.44-10.57,2.91-21.69,4.71-32.59,2.66-11.53-2.16-21.96-7.75-32.47-12.7-45.18-21.26-96.82-19.46-144.9-10.58-7.3,1.35-14.56,2.91-21.77,4.67-5.79,1.42-12.43,2.45-17.66,5.47-4.24,2.45-7.34,7.24-4.79,12.02,2.09,3.92,6.99,6.05,10.56,2.74.99-.92.93-2.61,0-3.54-9.52-9.53-22.47-14.12-35.39-16.89-14.94-3.21-30.29-4.86-45.56-5.19s-31.17.79-46.54,3.32-31.13,7.72-46.92,10.56-32.16,2.37-45.24-7.1c-2.61-1.89-5.11,2.45-2.52,4.32h0Z"/>
  </g>
</svg>