<?xml version="1.0" encoding="UTF-8"?>
<svg id="Layer_2" xmlns="http://www.w3.org/2000/svg" viewBox="0 0 723.67 155.56">
  <defs>
    <style>
      .cls-1 {
        fill: #ada49b;
      }

      .cls-2 {
        fill: #c4c0bf;
      }

      .cls-3 {
        fill: #6f6564;
      }

      .cls-4 {
        fill: #585147;
      }

      .cls-5 {
        fill: #c3c2be;
      }

      .cls-6 {
        fill: #7f7562;
      }

      .cls-7 {
        fill: #c0c1bb;
      }

      .cls-8 {
        fill: #b6b5ae;
      }

      .cls-9 {
        fill: #a39480;
      }

      .cls-10 {
        fill: #c1c0c0;
      }

      .cls-11 {
        fill: #f0f0ef;
      }

      .cls-12 {
        fill: #5a513e;
      }

      .cls-13 {
        fill: #f3e4d1;
      }

      .cls-14 {
        fill: #b2a89b;
      }

      .cls-15 {
        fill: #cececa;
      }

      .cls-16 {
        fill: #cdcdcc;
      }

      .cls-17 {
        fill: #938b79;
      }

      .cls-18 {
        fill: #c0bdbb;
      }

      .cls-19 {
        fill: #a19081;
      }

      .cls-20 {
        fill: #534539;
      }

      .cls-21 {
        fill: #e9e3e0;
      }

      .cls-22 {
        fill: #e0ddd6;
      }

      .cls-23 {
        fill: #d7d4cb;
      }

      .cls-24 {
        fill: #a7a7a1;
      }

      .cls-25 {
        fill: #e5e2e1;
      }

      .cls-26 {
        fill: #ada695;
      }

      .cls-27 {
        fill: #e9e2d9;
      }

      .cls-28 {
        fill: #5f594c;
      }

      .cls-29 {
        fill: #e2d8d3;
      }

      .cls-30 {
        fill: #eaebea;
      }

      .cls-31 {
        fill: #faf9f8;
      }

      .cls-32 {
        fill: #423532;
      }

      .cls-33 {
        fill: #c4c5c0;
      }

      .cls-34 {
        fill: #9d9791;
      }

      .cls-35 {
        fill: #80756d;
      }

      .cls-36 {
        fill: #54443d;
      }

      .cls-37 {
        fill: #a09e97;
      }

      .cls-38 {
        fill: #4a403d;
      }

      .cls-39 {
        fill: #928c80;
      }

      .cls-40 {
        fill: #7d6e58;
      }

      .cls-41 {
        fill: #5e544d;
      }

      .cls-42 {
        fill: #b5b3b0;
      }

      .cls-43 {
        fill: #4a3c37;
      }

      .cls-44 {
        fill: #817b70;
      }

      .cls-45 {
        fill: #645c58;
      }

      .cls-46 {
        fill: #605848;
      }

      .cls-47 {
        fill: #85837f;
      }

      .cls-48 {
        fill: #443a3b;
      }

      .cls-49 {
        fill: #635445;
      }

      .cls-50 {
        fill: #999081;
      }

      .cls-51 {
        fill: #a3978d;
      }

      .cls-52 {
        fill: #6f6056;
      }

      .cls-53 {
        fill: #b4ab9a;
      }

      .cls-54 {
        fill: #5e5751;
      }

      .cls-55 {
        fill: #554a3e;
      }

      .cls-56 {
        fill: #867e72;
      }

      .cls-57 {
        fill: #3b3232;
      }

      .cls-58 {
        fill: #766b5c;
      }

      .cls-59 {
        fill: #9f998a;
      }

      .cls-60 {
        fill: #938470;
      }

      .cls-61 {
        fill: #b7ae9e;
      }

      .cls-62 {
        fill: #4f3b31;
      }

      .cls-63 {
        fill: #694e43;
      }

      .cls-64 {
        fill: #c1b5a4;
      }

      .cls-65 {
        fill: #4b433c;
      }

      .cls-66 {
        fill: #5d504a;
      }

      .cls-67 {
        fill: #5e4f42;
      }

      .cls-68 {
        fill: #8b8989;
      }

      .cls-69 {
        fill: #b0afaa;
      }

      .cls-70 {
        fill: #8d7f7c;
      }

      .cls-71 {
        fill: #b5a59e;
      }

      .cls-72 {
        fill: #6f6554;
      }

      .cls-73 {
        fill: #968b83;
      }

      .cls-74 {
        fill: #928880;
      }

      .cls-75 {
        fill: #998b84;
      }

      .cls-76 {
        fill: #d2bba8;
      }

      .cls-77 {
        fill: #f5f3ee;
      }

      .cls-78 {
        fill: #545253;
      }

      .cls-79 {
        fill: #877c7e;
      }

      .cls-80 {
        fill: #ed1c24;
      }

      .cls-81 {
        fill: #c6c6c2;
      }

      .cls-82 {
        fill: #bea797;
      }

      .cls-83 {
        fill: #867c7d;
      }

      .cls-84 {
        fill: #463c3b;
      }

      .cls-85 {
        fill: #877d73;
      }

      .cls-86 {
        fill: #78716b;
      }

      .cls-87 {
        fill: #7f7a6e;
      }

      .cls-88 {
        fill: #999286;
      }

      .cls-89 {
        fill: #767064;
      }

      .cls-90 {
        fill: #685f50;
      }

      .cls-91 {
        fill: #4d463b;
      }

      .cls-92 {
        fill: #abaca6;
      }

      .cls-93 {
        fill: #7f786b;
      }

      .cls-94 {
        fill: #9e9491;
      }

      .cls-95 {
        fill: #6f655d;
      }

      .cls-96 {
        fill: #3e2e27;
      }

      .cls-97 {
        fill: #948f7f;
      }

      .cls-98 {
        fill: #94928f;
      }

      .cls-99 {
        fill: #998d7d;
      }

      .cls-100 {
        fill: #7b7369;
      }

      .cls-101 {
        fill: #e0e0dc;
      }

      .cls-102 {
        fill: #615949;
      }

      .cls-103 {
        fill: #e8d4b9;
      }

      .cls-104 {
        fill: #4a413f;
      }

      .cls-105 {
        fill: #827d70;
      }

      .cls-106 {
        fill: #aca9a7;
      }

      .cls-107 {
        fill: #a3958a;
      }

      .cls-108 {
        fill: #3b322d;
      }

      .cls-109 {
        fill: #594c44;
      }

      .cls-110 {
        fill: #544942;
      }

      .cls-111 {
        fill: #a5a49c;
      }

      .cls-112 {
        fill: #534b42;
      }

      .cls-113 {
        fill: #a39a98;
      }

      .cls-114 {
        fill: #93938e;
      }

      .cls-115 {
        fill: #675d58;
      }

      .cls-116 {
        fill: #d5d3c7;
      }

      .cls-117 {
        fill: #938783;
      }

      .cls-118 {
        fill: #8e898a;
      }

      .cls-119 {
        fill: #aeaeab;
      }

      .cls-120 {
        fill: #5a5349;
      }

      .cls-121 {
        fill: #aca194;
      }

      .cls-122 {
        fill: #625a4f;
      }

      .cls-123 {
        fill: #8a8684;
      }

      .cls-124 {
        fill: #7c7168;
      }

      .cls-125 {
        fill: #908980;
      }

      .cls-126 {
        fill: #5c544d;
      }

      .cls-127 {
        fill: #7d7269;
      }

      .cls-128 {
        fill: #4f4545;
      }

      .cls-129 {
        fill: #8a857c;
      }

      .cls-130 {
        fill: #999a94;
      }

      .cls-131 {
        fill: #4d443b;
      }

      .cls-132 {
        fill: #908072;
      }

      .cls-133 {
        fill: #4f4543;
      }

      .cls-134 {
        fill: #edebe6;
      }

      .cls-135 {
        fill: #786c5b;
      }

      .cls-136 {
        fill: #837374;
      }

      .cls-137 {
        fill: #5a544d;
      }

      .cls-138 {
        fill: #72675a;
      }

      .cls-139 {
        fill: #918b7e;
      }

      .cls-140 {
        fill: #8a786f;
      }

      .cls-141 {
        fill: #948c82;
      }

      .cls-142 {
        fill: #342a28;
      }

      .cls-143 {
        fill: #62544b;
      }

      .cls-144 {
        fill: #4f423c;
      }

      .cls-145 {
        fill: #36322f;
      }

      .cls-146 {
        fill: #7e6e66;
      }

      .cls-147 {
        fill: #c5c5c2;
      }

      .cls-148 {
        fill: #f0f0ec;
      }

      .cls-149 {
        fill: #3e3532;
      }

      .cls-150 {
        fill: #736050;
      }

      .cls-151 {
        fill: #edeae3;
      }

      .cls-152 {
        fill: #999083;
      }

      .cls-153 {
        fill: #6c6251;
      }

      .cls-154 {
        fill: #e2e2e1;
      }

      .cls-155 {
        fill: #8f8371;
      }

      .cls-156 {
        fill: #b6b5b3;
      }

      .cls-157 {
        fill: #4e423d;
      }

      .cls-158 {
        fill: #74726a;
      }

      .cls-159 {
        fill: #eae2de;
      }

      .cls-160 {
        fill: #f6f6f5;
      }

      .cls-161 {
        fill: #725443;
      }

      .cls-162 {
        fill: #766a59;
      }

      .cls-163 {
        fill: #49413c;
      }

      .cls-164 {
        fill: #f9f8f7;
      }

      .cls-165 {
        fill: #f4f2ec;
      }

      .cls-166 {
        fill: #ded6d3;
      }

      .cls-167 {
        fill: #4b4339;
      }

      .cls-168 {
        fill: #80766a;
      }

      .cls-169 {
        fill: #d7d3ce;
      }

      .cls-170 {
        fill: #5e554b;
      }

      .cls-171 {
        fill: #524847;
      }

      .cls-172 {
        fill: #b5ad9b;
      }

      .cls-173 {
        fill: #d6d3c9;
      }

      .cls-174 {
        fill: #574835;
      }

      .cls-175 {
        fill: #999187;
      }

      .cls-176 {
        fill: #7b756a;
      }

      .cls-177 {
        fill: #3e3432;
      }

      .cls-178 {
        fill: #9d8c80;
      }

      .cls-179 {
        fill: #a5a19e;
      }

      .cls-180 {
        fill: #61564e;
      }

      .cls-181 {
        fill: #3c3126;
      }

      .cls-182 {
        fill: #676152;
      }

      .cls-183 {
        fill: #5f5242;
      }

      .cls-184 {
        fill: #4f4a40;
      }

      .cls-185 {
        fill: #342f30;
      }

      .cls-186 {
        fill: #6d675e;
      }

      .cls-187 {
        fill: #948b7e;
      }

      .cls-188 {
        fill: #e6e5d2;
      }

      .cls-189 {
        fill: #8d8377;
      }

      .cls-190 {
        fill: #a19185;
      }

      .cls-191 {
        fill: #cdc9c5;
      }

      .cls-192 {
        fill: #c3c3c2;
      }

      .cls-193 {
        fill: #a08e84;
      }

      .cls-194 {
        fill: #f2f1eb;
      }

      .cls-195 {
        fill: #7b7363;
      }

      .cls-196 {
        fill: #d7d1d0;
      }

      .cls-197 {
        fill: #817776;
      }

      .cls-198 {
        fill: #50433e;
      }

      .cls-199 {
        fill: #67615d;
      }

      .cls-200 {
        fill: #544a41;
      }

      .cls-201 {
        fill: #a8a8a6;
      }

      .cls-202 {
        fill: #adaea4;
      }

      .cls-203 {
        fill: #beb5a7;
      }

      .cls-204 {
        fill: #b9b9b7;
      }

      .cls-205 {
        fill: #6e6968;
      }

      .cls-206 {
        fill: #b7b5ae;
      }

      .cls-207 {
        fill: #d5d5d3;
      }

      .cls-208 {
        fill: #989590;
      }

      .cls-209 {
        fill: #8f8178;
      }

      .cls-210 {
        fill: #433e39;
      }

      .cls-211 {
        fill: #716d56;
      }

      .cls-212 {
        fill: #8c7769;
      }

      .cls-213 {
        fill: #443d3a;
      }

      .cls-214 {
        fill: #f5f1e6;
      }

      .cls-215 {
        fill: #edede6;
      }

      .cls-216 {
        fill: #e0d9da;
      }

      .cls-217 {
        fill: #c8c6c6;
      }

      .cls-218 {
        fill: #f4f3e9;
      }

      .cls-219 {
        fill: #e7e0df;
      }

      .cls-220 {
        fill: #948883;
      }

      .cls-221 {
        fill: #797168;
      }

      .cls-222 {
        fill: #f2efe5;
      }

      .cls-223 {
        fill: #6f6157;
      }

      .cls-224 {
        fill: #775c4e;
      }

      .cls-225 {
        fill: #f8f6f5;
      }

      .cls-226 {
        fill: #d7d6ce;
      }

      .cls-227 {
        fill: #c9c2bf;
      }

      .cls-228 {
        fill: #7d6c5a;
      }

      .cls-229 {
        fill: #9a9382;
      }

      .cls-230 {
        fill: #5c5345;
      }

      .cls-231 {
        fill: #c7c3c0;
      }

      .cls-232 {
        fill: #785c54;
      }

      .cls-233 {
        fill: #c0bfbe;
      }

      .cls-234 {
        fill: #2f2523;
      }

      .cls-235 {
        fill: #75614d;
      }

      .cls-236 {
        fill: #7a7266;
      }

      .cls-237 {
        fill: #999596;
      }

      .cls-238 {
        fill: #6d5247;
      }

      .cls-239 {
        fill: #9e8e86;
      }
    </style>
  </defs>
  <g id="Layer_14">
    <g>
      <g>
        <path class="cls-11" d="M722.81,7.37c.49-.24.79,0,.86.44.08.52-.36.55-.74.56-.21,0-.41,0-.72-.01.31.21.55.36.14.58-.34.17-.72.14-1.08.2-.08-.35.28-.18.37-.3-1.92.41-3.8,1.03-5.77,1.25-.19.02-.36.09-.52.18-1.46.21-2.89.62-4.37.71-.29.02-.58.05-.83.22-.19.06-.38.08-.58.1-2.27.2-4.48.79-6.76.95-.13,0-.26.05-.37.12-.26.14-.55.13-.84.15-.26-.04-.53,0-.79,0-.2,0-.49.04-.49-.25,0-.21.3-.13.45-.29-1.72,1.13-3.52.39-5.37.37.25-.53.65-.48,1-.54,1.25-.21,2.54-.18,3.77-.54.67-.22,1.4-.11,2.05-.4.28-.09.57-.12.86-.16,2.35-.27,4.69-.54,7.04-.82.37-.04.74-.08,1.08-.24.28-.09.57-.15.86-.17,2.55-.19,5.03-.85,7.58-1.02.38-.02.71-.2,1.08-.27.77-.12,1.56-.07,2.28-.44-.06-.06-.13-.12-.18-.2-.03-.06-.03-.12,0-.18Z"/>
        <path class="cls-105" d="M666.87,12.3c-2.05.24-4.09.48-6.14.71-.06,0-.12.01-.18.02,2.1-.28,4.2-.53,6.31-.76-.02-.08-.05-.17-.08-.25-2.43.27-4.85.54-7.27.84-9.41,1.14-18.83,2.29-28.25,3.42-7.33.88-14.67,1.69-22,2.61-5.45.68-10.95.96-16.38,1.89-.05.09-.06.19,0,.28.31.29.65.17.99.06.25-.11.52-.12.78-.15,13.92-1.69,27.87-3.06,41.76-5,.82-.11,1.66.1,2.46-.13,1.69-.5,3.46-.5,5.18-.73,4.14-.54,8.3-1,12.44-1.54-.02.05-.03.11-.01.21.32.21.67.11,1.01.07,3.17-.37,6.35-.74,9.52-1.1-.04-.15-.09-.3-.14-.45Z"/>
        <path class="cls-233" d="M662.35,17.56c-5.48.64-10.97,1.28-16.45,1.92-.29.16-.62.14-.93.17-16.01,1.86-32.03,3.71-48.04,5.57-.31.04-.64,0-.93.17-.79.1-1.59.19-2.38.29-.06-.08-.06-.16,0-.23.14-.12.32-.17.49-.2.37-.03.73-.14,1.08-.27.47-.1.95-.14,1.42-.19,13.46-1.56,26.93-3.12,40.39-4.68,3.05-.22,6.03-.99,9.08-1.18,1.95-.12,3.9-.39,5.83-.63,2.38-.3,4.8-.33,7.16-.85.93-.2,1.9-.09,2.85-.2.19.03.41.03.43.3Z"/>
        <path class="cls-14" d="M711.45,7.54c.01.12.06.17.11.19-3.45.07-6.96.39-10.46.78-1.47.13-2.92.43-4.4.44-.54.02-1.08.11-1.62.17-.45.05-.9.1-1.35.16-1.92.21-3.84.44-5.76.67.04.23.07.46.11.69,2.52-.29,5.03-.58,7.55-.87.37-.04.74-.12,1.11-.03.66.03,1.3-.11,1.94-.16,1.26-.1,2.5-.41,3.77-.34.25.03.49,0,.73-.02.54-.06,1.07-.12,1.61-.18,3-.38,6.02-.44,9.02-.88.29-.05.59-.04.86-.13.63-.23,1.4-.04,1.93-.6-1.72-.03-3.44-.05-5.15.13Z"/>
        <path class="cls-100" d="M548.46,25.29c4.56-.87,9.18-1.37,13.79-1.96,4.36-.56,8.74-.98,13.12-1.33.2.14.41.05.61.02,2.96-.4,5.94-.62,8.91-.87.13-.01.26-.03.39.01.09,0,.18-.02.27-.03.1.29-.13.37-.3.5-.25.11-.51.13-.78.11-.36-.08-.71,0-1.07.04-1.44.15-2.88.38-4.33.46-.32-.05-.64-.07-.97-.01-.32.04-.65.07-.97.11-.53.06-1.05.12-1.58.19-1.09.12-2.17.25-3.25.38-.45.04-.9.13-1.36.09-.32-.08-.64-.02-.95.02-4.75.55-9.51,1.03-14.24,1.68-1.81.25-3.62.53-5.43.76-1.04.03-2.01.48-3.05.51-.31,0-.63.11-.94-.06-.16-.35.14-.29.3-.33.61-.13,1.25-.05,1.83-.3Z"/>
        <path class="cls-2" d="M596,25.39c.14-.21.37-.19.57-.21,16.44-1.9,32.89-3.8,49.33-5.7-.2.22-.49.19-.74.22-16.31,1.9-32.62,3.79-48.92,5.68-.08,0-.16.01-.24.02Z"/>
        <path class="cls-192" d="M667.66,16.39c-.17.02-.34.04-.5.06-1.45.17-2.9.33-4.34.52-.31.04-.73-.03-.79.46.13,0,.25,0,.34.12,1.78-.21,3.57-.41,5.35-.62-.01-.18-.03-.36-.05-.54Z"/>
        <path class="cls-10" d="M704.1,12.02c-.58.08-1.18.04-1.74.26-.26.03-.53.06-.79.08-.84.05-1.7-.06-2.53.17-1.27.29-2.57.38-3.87.5-.18.01-.37.04-.55.06-2.06.19-4.12.48-6.17.77.01.18.03.35.04.53,3.96-.46,7.92-.87,11.85-1.56.71-.28,1.5-.12,2.21-.4.57-.07,1.15-.14,1.72-.22,0-.12-.06-.21-.17-.2Z"/>
        <path class="cls-175" d="M703.85,7.97c-4.46.5-8.92,1-13.37,1.51-.85.1-1.69.2-2.54.29.02.11.03.21.05.32,1.95-.23,3.9-.45,5.86-.68.45-.22.94-.15,1.41-.24,2.87-.21,5.72-.58,8.58-.92.33-.04.7.03.95-.28-.31-.14-.63-.04-.94,0Z"/>
        <path class="cls-204" d="M576.63,28.62c-.13.16-.32.17-.5.19-4.9.58-9.77,1.41-14.68,1.88-.57-.12-1.13.1-1.69.11-.25,0-.51.17-.74-.04.16-.45.58-.4.93-.44,2.12-.25,4.24-.49,6.37-.74.34-.04.69-.05,1-.2.84-.27,1.73-.29,2.59-.31,1.09-.02,2.13-.47,3.22-.38.85.1,1.68-.14,2.52-.19.33-.02.68-.14.99.12Z"/>
        <path class="cls-39" d="M695.09,9.12c3.23-.38,6.46-.77,9.7-1.15,1.57-.2,3.14-.42,4.74-.37.53.17,1.05-.19,1.58-.01.14.15.22-.07.34-.05.28.29.67-.05,1.07.21-3.85.38-7.63.52-11.38.97-1.19-.01-2.35.25-3.52.34-.31.02-.62.14-.93.04-.52.06-1.05.12-1.57.18-.08-.04-.08-.1-.02-.15Z"/>
        <path class="cls-119" d="M559.05,30.8c.8,0,1.59-.38,2.4-.11-5.07.64-10.13,1.3-15.23,1.59-.02-.34.26-.35.48-.42.66-.1,1.33-.16,1.99-.25.34-.05.68-.09,1.02-.05,1.2.07,2.4-.11,3.56-.35,1.33-.28,2.69-.16,4.02-.44.59-.03,1.19-.3,1.77.03Z"/>
        <path class="cls-2" d="M593.6,25.54s.01.1.02.15c-.8.38-1.7.41-2.54.57-1.76.33-3.53.66-5.3.99-.4.1-.8.36-1.2,0-.02-.08,0-.16.05-.22.38-.16.88.06,1.18-.36.12-.05.23-.06.36-.05,1.15-.01,2.24-.39,3.35-.61.53-.15,1.09-.17,1.63-.24.32-.03.64-.08.93-.22.51-.07,1.02-.32,1.52,0Z"/>
        <path class="cls-156" d="M546.68,32.08c-.17.03-.36.01-.46.21-2.09.15-4.18.2-6.27.1.14-.21.38-.07.54-.17-.27.03-.55.09-.76-.2.38-.64.96-.2,1.45-.27.28.16.59-.02.87.08,1.28.07,2.57-.01,3.85-.04.29,0,.65-.15.78.28Z"/>
        <path class="cls-1" d="M713.88,7.91c.91-.16,1.81-.33,2.72-.49,1.48-.06,2.96-.12,4.43-.17.59.07,1.21-.11,1.79.12,0,0-.01,0-.01,0,0,0,.01.07.01.07v.07c-.18.23-.44.22-.7.22-.09,0-.17-.01-.26-.03-1.06-.05-2.1.03-3.15.17-.32.03-.63.08-.95.05-.46-.1-.92.02-1.38.06-.6.06-1.19.16-1.79.19-.27.02-.59.1-.72-.28Z"/>
        <path class="cls-16" d="M704.27,12.22c-.65-.24-1.28.08-1.92.06.1-.15.26-.17.42-.2,2.28-.32,4.57-.64,6.85-.95.26.18.56-.15.82.07-.11.06-.22.17-.34.17-1.96.14-3.87.67-5.82.84Z"/>
        <path class="cls-34" d="M537.35,30.42c-.41-1.86.34-3.01,2.25-3.46.28-.07.57-.08.86-.12-.22.66-.89.44-1.32.68-.07.04-.06.12.05.26.02.36-.26.5-.5.62-.43.2-.66.54-.84.95-.32.28-.12.72-.3,1.04-.04.04-.08.06-.13.06-.05,0-.07-.01-.07-.03Z"/>
        <path class="cls-44" d="M592.89,20.78c0,.06.01.11.02.17-.54.5-1.25.41-1.87.41-1.18,0-2.34.22-3.52.2-.09-.03-.16-.08-.22-.16-.09-.07.14-.2.03-.16-.33.12-.67.19-1.01.19-.24,0-.56.1-.62-.3,2.39-.18,4.79-.36,7.19-.35Z"/>
        <path class="cls-207" d="M710.08,11.06c.1-.14.25-.19.42-.19,1.67-.09,3.28-.59,4.94-.74.32-.05.66-.39.96.05-1.73.33-3.42.81-5.19.92-.37-.17-.76.15-1.13-.03Z"/>
        <path class="cls-44" d="M585.28,21.17c-3.15.41-6.33.48-9.48.95-.16.02-.32.01-.44-.12,3.17-.38,6.34-.74,9.53-.89.13,0,.26.04.39.06Z"/>
        <path class="cls-154" d="M716.4,10.17c-.31-.25-.64-.02-.96-.05.08-.06.16-.16.25-.17,1.72-.16,3.37-.63,5.04-1.07.4-.11.83-.11,1.33-.16-.24.3-.65.1-.79.41-1.62.35-3.24.69-4.86,1.04Z"/>
        <path class="cls-7" d="M583.56,27.64c-2.05.27-4.08.73-6.15.88-.06-.09-.06-.17,0-.25.41-.38.94-.39,1.45-.46.54-.08,1.09-.06,1.61-.28.23-.08.46-.1.7-.08.54.09,1.06-.07,1.59-.09.29-.01.65-.15.79.28Z"/>
        <path class="cls-139" d="M540.6,26.83c.95-.3,1.92-.56,2.92-.66.64-.16,1.29-.26,1.95-.22.13.41-.32.35-.44.56-.21.17-.47.24-.73.27-.17.02-.35.02-.52,0-.66-.06-1.31.01-1.93.25-.43.02-.91.39-1.24-.2Z"/>
        <path class="cls-69" d="M537.35,30.42s.09,0,.13,0c.28,0,.45.19.63.37.13.16.22.34.36.5.11.12.23.23.36.32.08.05.17.11.26.15.24.09.5.11.69.31.28.04.55.08,1.04.16-.43.08-.65.12-.86.16-1.57-.07-2.27-.59-2.6-1.96Z"/>
        <path class="cls-226" d="M583.56,27.64c-.48-.25-.96.02-1.43.01-.32,0-.66.19-.97-.04.35-.38.9-.13,1.19-.37-.76.15-1.59.37-2.47.24-.07-.07-.08-.16-.03-.25.43-.34.96-.24,1.45-.34.44-.04.89-.08,1.33-.15.48-.08.88.03,1.22.37.2.14.3.3.05.49-.11.01-.22.03-.33.04Z"/>
        <path class="cls-88" d="M540.6,26.83c.43.3.86,0,1.29.02.19-.06.21.04.16.19-.3.25-.66.34-1.03.43-.28.04-.57.07-.83.2-.36.07-.68.37-1.08.15-.12-.08-.25-.15-.39-.24.48-.47,1.22-.34,1.72-.75.05-.03.1-.03.15-.02Z"/>
        <path class="cls-92" d="M577.39,28.37c0,.05.02.11.02.16-.26.03-.52.06-.78.1-.92.1-1.84.21-2.76.3-.25.03-.52.15-.76-.06.11-.16.27-.25.46-.28,1.12-.15,2.25-.28,3.37-.37.16-.01.31.03.44.15Z"/>
        <path class="cls-74" d="M548.46,25.29c-.39.36-.91.2-1.36.32-.27.07-.59-.02-.81.24-.13.24-.32.36-.6.29-.18-.18.02-.28.09-.4.87-.27,1.77-.37,2.67-.45Z"/>
        <path class="cls-93" d="M585.7,21.13c.58.3,1.15-.06,1.72-.02.01,0,.04.05.03.05-.05.04-.1.08-.16.12-.43.4-1,.27-1.5.37-.2,0-.39,0-.54-.17.1-.12.19-.23.29-.35.05,0,.1,0,.15-.01Z"/>
        <path class="cls-187" d="M545.78,25.74c-.04.12-.08.23-.12.35-.05.05-.1.05-.16.02-.67-.26-1.32.09-1.98.05.72-.31,1.5-.31,2.27-.42Z"/>
        <path class="cls-16" d="M700.34,12.83c.69-.4,1.48-.26,2.21-.4-.69.38-1.48.26-2.21.4Z"/>
        <path class="cls-226" d="M584.62,27.06c.31.54.78.09,1.16.18-.47.36-1.05.22-1.58.33-.09-.2-.03-.37.11-.52.11-.06.21-.07.31.01Z"/>
        <path class="cls-11" d="M722.82,7.36c-.6-.04-1.19-.08-1.79-.12.6-.06,1.22-.28,1.79.12Z"/>
        <path class="cls-147" d="M710.08,11.06c.38.04.76-.23,1.13.03-.26.03-.51.07-.77.1-.27-.03-.56.16-.82-.07.15-.02.31-.05.46-.07Z"/>
        <path class="cls-14" d="M711.11,7.59c-.53,0-1.05.26-1.58.01.53-.04,1.05-.26,1.58-.01Z"/>
        <path class="cls-2" d="M584.3,27.1c-.04.16-.07.31-.11.47-.1.01-.2.03-.31.04.02-.12.13-.26-.07-.33.01-.28.19-.29.4-.25.03.02.06.05.09.07Z"/>
        <path class="cls-30" d="M700.4,12.27c.33-.15.63-.28,1.03-.46-.35-.05-.54.06-.74.11-.88.2-1.79.74-2.62.48-.85-.26-1.64-.2-2.47-.22,1.26-.22,2.52-.36,3.78-.52.27-.03.6.05.79-.26-.32-.23-.67-.13-1-.09-3.62.41-7.23.84-10.85,1.26.06.52.1,1.03.14,1.55,2.26-.29,4.52-.57,6.78-.86.26-.17.56-.12.84-.17.98-.16,1.99-.15,2.96-.41.84-.11,1.68-.21,2.53-.32-.35-.28-.76.07-1.16-.1Z"/>
        <path class="cls-128" d="M667.47,14.97c-10.64,1.17-21.27,2.45-31.91,3.67-.49.06-1.02.02-1.44.38-.05.11-.03.2.07.27.47.21.95.07,1.41.02,5.99-.69,11.98-1.38,17.96-2.08,4.67-.54,9.33-1.08,14-1.62-.03-.21-.07-.43-.1-.64Z"/>
        <path class="cls-128" d="M710.36,9.68c-1.73.19-3.46.44-5.21.48-1.72.04-3.4.46-5.12.51-.41.1-.82.16-1.24.2-.54.1-1.12.03-1.62.32-.07.06-.1.14-.08.24.22.18.49-.04.69.03-.28,0-.59.1-.88-.01-.44-.01-.88.09-1.32.11-.18.01-.36.03-.54.06-.4.06-.8.11-1.21.14-.14,0-.27.02-.41.05-.32.04-.65.09-.97.1-.9.1-1.79.21-2.69.31-.48.07-.96.16-1.45.14.02.15.04.31.05.46,1.7-.22,3.41-.44,5.11-.65,2.23-.27,4.47-.52,6.71-.78.68-.25,1.43-.06,2.1-.36-.43-.05-.85-.02-1.26.03.66-.09,1.33-.17,2.01-.14,2-.25,3.99-.48,5.99-.76.76-.1,1.54-.07,2.27-.34-.27-.25-.59-.19-.9-.15Z"/>
        <path class="cls-108" d="M698.85,11.08c-.58.07-1.16.14-1.74.21-.09.1-.21.11-.33.06-.12-.21-.05-.39.08-.56.6-.28,1.26-.2,1.9-.27.36.03.72.01,1.07-.11.07-.02.15-.03.22-.04.2-.02.38-.08.56-.14.77-.19,1.6-.11,2.35-.42,1.81-.19,3.6-.54,5.41-.7,2.38-.02,4.74-.27,7.05-.85.34-.17.7-.19,1.07-.17.55.11,1.09-.05,1.63-.09.75-.07,1.5-.25,2.26-.21.45.17.99-.16,1.42.24-.21.33-.59.12-.79.34-3.23.6-6.48,1.11-9.75,1.48-1.29.14-2.58.32-3.88.4-2.25.15-4.5.35-6.74.65-.24.03-.48.01-.7-.08-.33.24-.77.04-1.1.28Z"/>
        <path class="cls-78" d="M721.01,8.35c.13-.24.41-.16.65-.3-.43-.16-.84.16-1.19-.1.47-.35,1.01-.41,1.58-.37h0c.33.18.67-.08,1,.03.21-.01.46-.04.48.26,0,.18-.18.29-.34.25-.76-.16-1.44.27-2.18.23Z"/>
        <path class="cls-57" d="M702.27,11.04l-3.21.37c0-.07-.01-.13-.02-.2,1.33-.02,2.62-.53,3.98-.28-.25.04-.49.07-.74.11Z"/>
        <path class="cls-124" d="M723.05,7.61c-.33.03-.67.22-1-.03.26-.02.51-.05.77-.07.08.03.15.06.23.09Z"/>
        <path class="cls-87" d="M666.85,12.22c-8.4.97-16.8,1.95-25.19,2.92-1.78.21-3.53.61-5.34.64-1.67.03-3.3.5-4.95.69-12.22,1.44-24.44,2.84-36.66,4.27-.33.04-.7-.04-.98.25.27.26.6.17.91.14.95-.08,1.9-.17,2.85-.32,1.33-.21,2.68-.32,4.01-.41,1.99-.13,3.96-.36,5.92-.65.44-.21.93-.21,1.4-.26,13.8-1.6,27.59-3.2,41.39-4.8.47-.05.95-.09,1.42-.2,1.32-.37,2.67-.49,4.03-.5.3,0,.6.02.81-.26.24-.29.59-.21.89-.25,3.18-.37,6.37-.74,9.55-1.11-.01-.05-.03-.1-.05-.15Z"/>
        <path class="cls-26" d="M666.94,12.52c-3.5.4-6.99.81-10.49,1.21-.27.03-.53.06-.8.09-1.33.05-2.65.19-3.95.46-.26.03-.53.07-.79.1-14.2,1.65-28.39,3.3-42.59,4.95-.33.04-.7-.03-.98.24.42.31.88.13,1.31.08,8.45-.97,16.89-1.95,25.34-2.93,3.37-.39,6.74-.78,10.11-1.17.85-.1,1.71-.2,2.57-.3.45-.06.91-.11,1.36-.16,6.34-.74,12.68-1.47,19.02-2.2-.03-.13-.07-.26-.11-.38Z"/>
        <path class="cls-203" d="M607.34,19.58c8.06-.93,16.12-1.86,24.18-2.78.82-.09,1.63-.19,2.45-.28.06.1.05.18-.05.26-.6.3-1.27.22-1.9.35-9.09,1.05-18.17,2.1-27.26,3.16-.34.04-.69.05-1.01.18-.19.08-.38.1-.58.1-.91-.05-1.81.06-2.69.31-.35.11-.7.16-1.06.13-.35-.09-.69-.01-1.01.13-.82.18-1.66.22-2.49.33-.24.02-.47.05-.71.02-.71-.11-1.39.1-2.09.14-1.28.14-2.58.06-3.86.27-.09,0-.19,0-.28-.01-1.2-.05-2.4.23-3.6.11-.68-.14-1.34.11-2.02.08-.09-.01-.18-.04-.26-.09-.08-.06-.1-.15-.07-.24.16-.1.34-.09.52-.11.31-.01.61-.12.92-.05.27-.03.53-.06.8-.09.16,0,.32,0,.48,0,.55.09,1.08-.17,1.62-.08,1.85-.15,3.69-.3,5.54-.45.26.19.54.08.81.04,1.29-.13,2.58-.26,3.87-.4,3.25-.34,6.51-.67,9.76-1.01Z"/>
        <path class="cls-25" d="M593.6,25.54c-.53.06-1.06.11-1.58.17-.22.2-.55.04-.78.23-.58.07-1.16.15-1.74.22-.2.09-.42.26-.52-.12.16-.2.38-.23.61-.27.43-.07.88-.06,1.29-.25,1.13-.25,2.29-.38,3.39-.74,1.15-.22,2.33-.29,3.49-.45.59-.06,1.17-.13,1.76-.2.59-.06,1.18-.13,1.77-.21,1.39-.16,2.78-.32,4.17-.48.2-.02.39-.05.59-.07.97-.11,1.94-.22,2.92-.34.43-.05.86-.09,1.29-.15.19-.02.38-.05.58-.07.83-.09,1.65-.19,2.48-.29.88-.1,1.76-.2,2.64-.31.48-.05.96-.11,1.44-.16.43-.05.85-.09,1.28-.15.19-.02.38-.05.57-.07.97-.11,1.93-.22,2.89-.34.24-.03.49-.06.73-.08,1.27-.14,2.53-.29,3.79-.44.24-.02.47-.05.71-.05.09,0,.19,0,.28.02,1.09.02,2.17-.11,3.23-.38.31-.11.63-.13.95-.18.19-.02.37-.05.56-.07.43-.05.86-.1,1.29-.15,2-.23,3.99-.47,5.98-.69.34-.04.68-.13,1.01.05.19.47-.24.3-.39.32-1.04.18-2.11.17-3.14.45-13.71,1.59-27.42,3.18-41.12,4.78-.34.04-.68.09-1.03.13-.27.2-.66.02-.92.25-.16.02-.32.04-.48.07Z"/>
        <path class="cls-101" d="M637.15,20.31c.58-.38,1.26-.22,1.88-.37.57-.14,1.2.02,1.73-.35.03-.04.07-.08.1-.12.33-.22.71-.21,1.07-.25,2.98-.35,5.96-.69,8.94-1.04,3.45-.39,6.9-.8,10.35-1.2,1.19-.2,2.43-.12,3.59-.55.14-.1.3-.14.47-.13.07.02.14.05.2.1.1.09.21.19.36.17-.13-.08-.15-.18-.05-.3.37-.22.76-.19,1.14-.05.11.05.21.12.29.22.05.07.05.15,0,.23-1.47.18-2.94.35-4.41.53-.28.03-.6-.03-.81.24-8.3.83-16.59,1.75-24.86,2.87Z"/>
        <path class="cls-2" d="M594.08,25.47c.25-.31.61-.18.92-.25-.25.29-.61.17-.92.25Z"/>
        <path class="cls-6" d="M713.88,7.91c-3.06.3-6.13.59-9.19.89-.49.25-1.03.16-1.55.27-.22.04-.45.02-.66.12-.04.09-.03.17.05.24.12.08.25.1.39.1.56-.04,1.12-.11,1.68-.18.4-.08.81-.08,1.27-.06-.31.05-.58,0-.84.04-.45.04-.9.08-1.35.15-3.38.4-6.77.76-10.15,1.19-.37.11-.75.17-1.12.24-1.41.18-2.82.34-4.23.51.03.21.05.42.08.62.27-.03.53-.06.8-.08,3.69-.33,7.31-1.19,10.99-1.52.13.13.24.12.33-.04.81-.31,1.69-.16,2.51-.43,1.85-.22,3.69-.45,5.54-.67.96-.12,1.86-.56,2.83-.53,1.27.03,2.51-.13,3.75-.4.3-.16.62-.22.95-.26.21-.03.49,0,.48-.35-.86-.02-1.7.31-2.56.13Z"/>
        <path class="cls-17" d="M667.02,12.77c-6.34.73-12.68,1.47-19.02,2.2-.46.05-.91.11-1.37.16-.86.1-1.71.2-2.57.3-3.08.36-6.15.71-9.23,1.07-.28.03-.59,0-.84.17-.63.07-1.26.15-1.89.22-.04.11,0,.19.1.24.7.18,1.39-.07,2.08-.11,2.04-.24,4.08-.48,6.13-.71,5.55-.65,11.11-1.29,16.66-1.93.2-.02.4-.05.6-.07.59-.07,1.18-.14,1.77-.2,1-.12,2.01-.24,3.01-.35,1.55-.18,3.11-.36,4.66-.54-.04-.15-.06-.3-.1-.45Z"/>
        <path class="cls-58" d="M696.24,9.49c-2.73.31-5.46.63-8.19.95.02.16.05.31.07.47.02,0,.04,0,.06,0,.84-.33,1.75-.28,2.62-.42,1.05-.12,2.1-.25,3.15-.36.5-.06,1-.1,1.5-.18.45-.08.98.04,1.33-.39-.18-.02-.37-.07-.54-.05Z"/>
        <path class="cls-90" d="M698.65,9.34c1.28-.13,2.56-.37,3.85-.3-.24.31-.6.3-.94.35-.83.14-1.7.1-2.51.39-.62.13-1.24.3-1.88.15-.09-.05-.14-.13-.13-.23.5-.29,1.11-.06,1.6-.35Z"/>
        <path class="cls-170" d="M698.65,9.34c-.46.39-1.05.21-1.57.35-.97.5-2.01.48-3.06.46-.11-.04-.15-.12-.14-.24.96-.13,1.93-.25,2.89-.38.62-.07,1.25-.13,1.87-.2Z"/>
        <path class="cls-141" d="M696.68,9.1c1.26-.15,2.52-.3,3.78-.44.23-.03.47-.12.68.06-1.26.15-2.52.3-3.77.44-.23.03-.47.11-.68-.07Z"/>
        <path class="cls-170" d="M699,9.61c.68-.39,1.46-.26,2.19-.4.43-.08.88-.12,1.31-.18.2-.02.4-.04.6-.06.08.05.08.1,0,.15-.22.04-.43.08-.65.12-1.12.43-2.27.63-3.46.36Z"/>
        <path class="cls-72" d="M703.11,9.13c0-.05,0-.1,0-.15.53-.06,1.06-.12,1.59-.18-.47.37-1.05.23-1.58.33Z"/>
        <path class="cls-141" d="M695.09,9.12c0,.05.01.1.02.15-.42.05-.84.1-1.27.14.36-.35.84-.19,1.25-.3Z"/>
        <path class="cls-73" d="M550.23,25.26c6.61-.99,13.26-1.71,19.9-2.47.28-.03.58-.17.84.05-.02.14-.09.24-.21.31-.24.12-.51.14-.77.18-.27.03-.55.07-.82.1-1.8.19-3.59.46-5.4.59-.36-.05-.73-.1-1.07.1-.09.03-.18.06-.28.07-2.04.26-4.08.48-6.12.72-1.06.12-2.11.24-3.17.37-.7.08-1.4.18-2.11.23-.29.02-.65.16-.79-.27Z"/>
        <path class="cls-117" d="M550.23,25.26c.98.22,1.93-.19,2.89-.17.03.11,0,.19-.09.26-.77.32-1.61.25-2.42.4-.7.12-1.43.07-2.11.36-.97.2-1.97.26-2.95.38-.24.03-.47.03-.67-.14.14-.25.4-.18.61-.24.05,0,.11-.01.16-.02.21-.08.42-.16.63-.24,1.34-.05,2.62-.47,3.94-.59Z"/>
        <path class="cls-50" d="M583.53,21.7c-.16.02-.32.05-.47.07-.25.31-.7.2-.97.47-.07.05-.14.09-.23.12-.71-.01-1.4.12-2.11.11-.77-.14-1.52.2-2.28.09-.19-.07-.33-.17-.31-.4.31-.04.62-.08.93-.12.27.13.55-.08.82.03,1.53-.16,3.06-.33,4.59-.49.09.02.1.06.04.13Z"/>
        <path class="cls-75" d="M577.16,22.15c.06.08.12.17.18.25-.26.36-.67.28-1.03.36-.41.02-.81.15-1.22.04-.09-.03-.15-.09-.17-.18.11-.32.48-.1.65-.3.53-.06,1.07-.11,1.6-.17Z"/>
        <path class="cls-239" d="M575.56,22.32c-.15.24-.43.17-.65.25-.38.37-.89.25-1.34.35-.42.02-.84.17-1.26,0-.09-.06-.12-.14-.08-.24,1.11-.12,2.21-.24,3.32-.37Z"/>
        <path class="cls-229" d="M572.24,22.69s.01.09.02.14c-.44.4-.91.47-1.43.15.05-.05.1-.09.14-.14.42-.05.84-.1,1.27-.15Z"/>
        <path class="cls-44" d="M583.53,21.7s-.02-.09-.04-.13c.33-.02.65-.2.98,0-.31.04-.62.08-.94.12Z"/>
        <path class="cls-93" d="M578.9,22.07c-.27.02-.55.16-.82-.03.27-.01.55-.17.82.03Z"/>
        <path class="cls-160" d="M665.44,16.41c.11.08.22.07.31-.03.43-.1.86-.07,1.29,0,.21.02.41.01.61,0-.03-.35-.08-.71-.13-1.06-7.58.89-15.15,1.78-22.73,2.67-3.56.42-7.12.82-10.67,1.23-.31-.22-.66-.14-1-.11-1.05.1-2.1.27-3.16.34-1.96.22-3.91.52-5.88.68-5.67.64-11.33,1.31-16.99,1.97-.29.03-.58.08-.81.28-.08.09-.07.18,0,.27.41.22.83.1,1.25.06,5.17-.47,10.29-1.42,15.45-1.96-2.14.25-4.28.49-6.4.83.49.46.94.21,1.41.09-.08.03-.12.09-.04.29.21.09.42.04.63.02,3.88-.44,7.76-.84,11.63-1.3,3.13-.38,6.27-.73,9.4-1.13,4.59-.53,9.18-1.06,13.77-1.59,2.12-.25,4.23-.49,6.35-.74,1.44-.17,2.87-.33,4.31-.5.31-.04.64,0,.89-.25l.49-.06ZM618.08,21.66c.08-.02.17-.03.25-.04-.07.03-.17.03-.25.04ZM623.32,20.72s.1-.08.16-.02c-.05,0-.1.01-.16.02Z"/>
        <path class="cls-16" d="M695.24,13.26c.88-.44,1.85-.28,2.77-.47.33-.07.68-.08,1.02-.11-.83.41-1.75.28-2.61.45-.39.07-.79.09-1.18.13Z"/>
        <path class="cls-226" d="M577.39,28.37c-1.42.17-2.85.33-4.27.5-1.88.37-3.8.46-5.7.66-1.02.29-2.08.29-3.12.43-1.36.18-2.72.32-4.09.48-.14.02-.35.1-.39-.12-.03-.16.15-.25.28-.34.13-.08.27-.11.42-.12.99.02,1.97-.1,2.94-.33.08-.04.17-.07.26-.09.78-.12,1.56-.25,2.35-.25.86.04,1.71.04,2.51-.35.3-.2.64-.23.98-.26,1.6-.12,3.17-.5,4.77-.52.9.13,1.77.02,2.67-.17,1.05-.22,2.14-.29,3.22-.4.13-.01.25.06.32.19-.29.32-.69.22-1.04.27-.71.1-1.42.15-2.09.42Z"/>
        <path class="cls-173" d="M560.25,30.04c-.1.08-.19.17-.41.36,2.61-.3,5.09-.59,7.58-.88-.21.28-.53.21-.8.24-2.25.27-4.51.52-6.76.79-.28.03-.59-.03-.8.25-.58.07-1.16.13-1.74.2-1.06.07-2.13.04-3.19.16-.34.04-.69.11-.49-.44.19-.17.43-.2.67-.22,1.74-.21,3.47-.41,5.21-.6.26-.03.53-.06.75.15Z"/>
        <path class="cls-169" d="M549.68,31.74c-.32.03-.63.06-.95.1-1.06,0-2.11.18-3.18.04q.29-.4,1.54-.55c.57-.07,1.15-.13,1.72-.2,1.11-.12,2.22-.26,3.32-.38.29-.03.58-.09.87.02-.21.19.46.6-.14.67-1.06.11-2.11.34-3.19.31Z"/>
        <path class="cls-231" d="M548.85,31.34l-3.14.36s0,.09,0,.13c.7-.01,1.4-.03,2.1-.04.31,0,.62-.19.92.04-.69.08-1.37.16-2.06.24-.85-.18-1.7.01-2.56-.02-.65-.02-1.31.03-1.96.05-.19,0-.28-.11-.33-.27.14-.27.38-.35.67-.35.71-.04,1.42.1,2.13-.04,1.37-.09,2.71-.46,4.09-.35.1.05.15.13.12.24Z"/>
        <path class="cls-5" d="M549.68,31.74c.73-.09,1.46-.17,2.2-.26.48-.06,1.04.03,1.23-.61.07-.11.17-.15.29-.15.08.01.14.04.2.1.11.39.41.26.65.23.92-.13,1.85.05,2.77-.14.09-.02.19.06.29.1-2.32.27-4.63.54-6.95.81-.23.03-.47.12-.68-.07Z"/>
        <path class="cls-216" d="M589,26.05c.14.18.32.12.5.11-1.15.25-2.25.77-3.47.57.01-.15.09-.25.22-.33.7-.16,1.37-.42,2.09-.49.23-.02.46-.04.66.14Z"/>
        <path class="cls-94" d="M586.22,26.58c-.06.05-.12.1-.18.15-.11.02-.22.04-.33.06-.26.24-.6.19-.91.26-.06,0-.12.01-.18.02-.1.01-.21.02-.31.04,0,0,.01-.06.01-.06-.03-.28.18-.37.37-.47.34-.12.69-.14,1.04-.17.19,0,.37.02.49.19Z"/>
        <path class="cls-219" d="M584.8,27.04c.26-.22.59-.22.91-.26-.05.38-.25.44-.91.26Z"/>
        <path class="cls-216" d="M591.24,25.94c.2-.27.51-.17.78-.23-.2.28-.51.18-.78.23Z"/>
        <path class="cls-227" d="M539.77,32.07c-.28-.03-.57-.03-.81-.21.52-.51,1.23-.27,1.83-.48.08,0,.17,0,.24.04.16.12.36.21.33.47-.51.23-1.1-.29-1.59.18Z"/>
        <path class="cls-106" d="M541.35,31.89c-.12-.1-.24-.19-.35-.29.45-.33.92-.43,1.43-.14,0,.05.01.09.02.14-.21.08-.41.16-.62.23-.16.04-.25.64-.48.05Z"/>
        <path class="cls-124" d="M715.06,8.26c.36-.46,1.02-.06,1.39-.48.44-.03.87-.22,1.31-.03-.24.22-.53.12-.67.16.45-.04,1.04-.02,1.59-.23,1.12-.14,2.24-.31,3.38-.09-.53.12-1.05.25-1.58.37-.79.08-1.57.16-2.36.24-.54-.12-1.07.18-1.62.06-.37.04-.73.08-1.1.12-.16.11-.31.17-.34-.11Z"/>
        <path class="cls-143" d="M718.68,7.68c-.52.38-1.14.21-1.8.35.31-.28.63-.16.88-.27.31-.03.61-.05.92-.08Z"/>
        <path class="cls-210" d="M539.12,27.83l1.05-.32c.24-.12.5-.09.74-.14.13-.01.25.01.29.16-.03.08-.08.14-.15.19-.32.15-.69.14-1,.3-.1.04-.21.07-.31.11-.29.13-.46.43-.78.52-.08.04-.17.06-.22.12,1.16-.12,2.33-.03,3.48-.25.45-.05.89-.14,1.34-.13.34,0,.66.08.49.56-.48.37-1.05.21-1.59.28-.89.06-1.78.1-2.5.73-.34.13-.69.13-1.04.18-.42.04-.84.04-1.21-.21-.16-.22-.16-.43,0-.65.06-.88.96-.95,1.41-1.46Z"/>
        <path class="cls-158" d="M537.71,29.29c.02.21.03.42.05.63.19.17.44.21.66.32.06.05.09.1.11.18,0,.14-.04.27-.13.38-.12.1-.28,0-.41.09-.17-.15-.34-.3-.52-.46.04-.39-.31-.85.23-1.14Z"/>
        <path class="cls-121" d="M587.37,21.41c-.54.04-1.07.27-1.62.08.52-.06,1.04-.13,1.56-.19.02.04.04.08.07.12Z"/>
        <path class="cls-22" d="M580.52,27.68c-.34-.14-.65-.02-.99.02-1.61.22-3.2.66-4.85.63-.07,0-.13-.08-.2-.12.03-.04.06-.07.09-.11.54-.3,1.2-.15,1.74-.45.93-.19,1.88-.25,2.83-.36.24-.03.48-.04.68.12l3.03-.35c-.61.45-1.16.47-1.7.54-.21.02-.42.05-.63.07Z"/>
        <path class="cls-48" d="M544.89,26.35c1.2-.15,2.39-.29,3.59-.44.94-.24,1.92-.25,2.87-.38.11-.02.2.05.24.16-.51.55-1.22.31-1.83.48-.56.09-1.14.06-1.67.3-.69.16-1.39.22-2.09.3-.48.06-.97.05-1.43.22-.17.06-.34.07-.51,0-.29-.33.15-.27.22-.41.2-.09.46-.03.62-.24Z"/>
        <path class="cls-109" d="M544.27,26.59c-.09.11-.19.22-.28.33-.85.61-1.81.75-2.82.64l-.17-.12c-.08-.04-.08-.08-.01-.14l1.07-.33c.53-.32,1.12-.39,1.72-.37.16,0,.33-.01.49-.02Z"/>
        <path class="cls-187" d="M543.78,26.6c-.57.12-1.15.24-1.72.37-.06-.04-.11-.08-.17-.12.59-.34,1.23-.36,1.88-.25Z"/>
        <path class="cls-65" d="M538.77,31.74c-.12-.1-.25-.19-.37-.29-.15-.25-.05-.39.2-.46.34-.01.66.08.98.21.14.12.45.16.23.46-.35.04-.69.14-1.04.08Z"/>
        <path class="cls-113" d="M538.77,31.74c.36-.06.72-.12,1.08-.18.23-.24.54-.29.85-.36.08,0,.16.02.23.05.07.06.08.12.05.2-.61.41-1.35.25-2.01.42-.06-.04-.12-.08-.19-.13Z"/>
        <path class="cls-95" d="M538.67,31.1c-.22.02-.27.16-.27.35-.23-.12-.27-.38-.4-.57.07-.22.23-.11.36-.09.16-.08.27,0,.37.12.02.07,0,.14-.05.19Z"/>
        <path class="cls-179" d="M579.82,27.42c-1.21.15-2.41.31-3.62.46-.55.18-1.14.16-1.71.25-.17-.06-.52.25-.5-.23.1-.1.21-.18.34-.18,1.58-.1,3.11-.62,4.69-.69.28.06.58.04.81.25,0,.05,0,.09-.02.14Z"/>
        <path class="cls-125" d="M584.6,26.75c-.09.1-.19.2-.28.29-.17.08-.33.16-.5.24-.76-.59-1.59-.21-2.4-.2-.06-.08-.05-.16.02-.23.18-.14.39-.17.61-.2.45-.07.92-.06,1.35-.24.26-.09.53-.14.81-.1.24.05.28.28.39.44Z"/>
        <path class="cls-208" d="M581.4,26.95s.01.09.02.13c-.52.07-1.05.14-1.57.2-.22-.01-.45.11-.66-.06.69-.48,1.43-.54,2.21-.27Z"/>
        <path class="cls-137" d="M540.99,27.3s0,.09.01.14c-.28.02-.55.05-.83.07.24-.2.53-.19.82-.21Z"/>
        <path class="cls-145" d="M667.39,14.44c-.38-.04-.77-.04-1.16.03-1.91-.07-3.77.32-5.65.55-.4.2-.81.21-1.24.13-1.96.18-3.92.37-5.87.7-.29.15-.61.17-.93.21-4.64.54-9.29,1.08-13.93,1.61-.32.04-.63.08-.95,0-2.25.13-4.48.45-6.73.59-1.72.11-3.42.41-5.13.68-2.31.37-4.64.57-6.96.83-.37.04-.74.06-1.09.22-.13.08-.24.17-.21.34.28.22.61.17.92.12,2-.37,4.04-.31,6.06-.5-.18.04-.35.14-.37.43,1.95-.22,3.91-.44,5.86-.67.24-.22.55-.15.83-.19,1.09-.18,2.2-.17,3.28-.46.34-.04.69-.08,1.03-.12,10.79-1.26,21.57-2.51,32.36-3.77-.04-.25-.07-.49-.12-.74ZM624.85,19.94s-.08,0-.12,0c.85-.09,1.69-.22,2.52-.46.24-.07.52-.09.77.08-1.08-.09-2.07.51-3.17.38Z"/>
        <path class="cls-177" d="M695.03,11.14c-2.26.26-4.52.52-6.78.78.02.2.05.39.07.59.46.03.92-.18,1.38-.05.95-.11,1.9-.22,2.85-.33.3-.16.62-.17.94-.12.11-.01.22-.03.33-.04.41-.14.83-.19,1.26-.15.16-.02.33-.04.49-.06.4-.18.9-.05,1.23-.43.04-.16.07-.32.11-.48-.64-.03-1.24.23-1.87.3Z"/>
        <path class="cls-213" d="M630.01,19.72c.32-.37.78-.25,1.18-.3.97-.14,1.95-.23,2.92-.34,0,.05,0,.1.01.15-1.37.22-2.73.43-4.12.5Z"/>
        <path class="cls-213" d="M695.57,11.76c.41-.14.82-.29,1.23-.43.11-.01.21-.02.32-.03,0,.05.01.1.02.15-.02.07-.06.11-.12.14-.48.06-.96.12-1.44.18Z"/>
        <path class="cls-213" d="M693.82,11.96c.39-.26.81-.3,1.26-.15-.42.05-.84.1-1.26.15Z"/>
        <path class="cls-177" d="M697.01,11.58s.08-.09.12-.14c.25-.03.5-.06.76-.09,0,.04.01.08.02.12l-.9.1Z"/>
        <path class="cls-177" d="M698.85,11.08c.3-.34.73-.18,1.1-.28-.3.33-.73.18-1.1.28Z"/>
        <path class="cls-213" d="M692.55,12.13c.29-.26.6-.29.94-.12-.32.04-.63.08-.94.12Z"/>
        <path class="cls-213" d="M699.29,10.42c-1.37.17-2.73.41-4.09.58-2.32.3-4.64.57-6.96.85,0,.05.01.09.02.14,2.29-.27,4.59-.53,6.88-.8.59-.07,1.2-.09,1.76-.35.63-.1,1.29.08,1.9-.22.38.07.75.02,1.1-.13.05,0,.1-.02.15-.02-.24-.2-.51-.08-.76-.05Z"/>
        <path class="cls-67" d="M715.06,8.26c.11.04.23.08.34.11.02.09.14.24,0,.26-1.88.25-3.76.48-5.64.7-.44.05-.89,0-1.34,0,1.13-.5,2.26-.85,3.55-.77,1.01.06,2.05-.18,3.07-.29Z"/>
        <path class="cls-213" d="M700.39,10.43c.79-.4,1.67-.3,2.51-.43-.79.4-1.68.26-2.51.43Z"/>
        <path class="cls-67" d="M716.5,8.25c.54-.04,1.07-.25,1.61-.06-.54.04-1.07.28-1.61.06Z"/>
        <path class="cls-54" d="M718.77,8.41c.45-.15.85-.28,1.45-.17l-1.45.17Z"/>
        <path class="cls-177" d="M698.8,10.62c.37-.04.74-.08,1.1-.13-.34.28-.71.32-1.1.13Z"/>
        <path class="cls-105" d="M655.66,13.83c-1.32.15-2.63.31-3.95.46,1.29-.4,2.61-.55,3.95-.46Z"/>
        <path class="cls-172" d="M666.99,12.69c-6.36.73-12.72,1.47-19.08,2.21-.07.06-.06.1.02.14,6.37-.74,12.73-1.47,19.1-2.21-.01-.05-.02-.1-.04-.14Z"/>
        <path class="cls-53" d="M644.13,15.49c-3.38.39-6.76.79-10.14,1.18,0-.05-.02-.1-.02-.15,3.38-.39,6.76-.79,10.14-1.18.08.04.08.1.02.16Z"/>
        <path class="cls-172" d="M644.13,15.49l-.02-.16c.85-.1,1.69-.19,2.54-.29.08.04.08.09.02.14-.84.1-1.69.2-2.53.3Z"/>
        <path class="cls-53" d="M646.67,15.19l-.02-.14c.42-.05.84-.1,1.27-.15l.02.14c-.42.05-.84.1-1.27.15Z"/>
        <path class="cls-135" d="M599.31,20.82c.37-.04.75-.09,1.12-.13.2-.11.42-.11.64-.1,1.49-.12,3,.02,4.44-.54,2.5-.28,4.99-.59,7.49-.86.27.48-.12.54-.41.63-.42.13-.89.08-1.29.28-.41.13-.83.15-1.25.21-.32.04-.64.07-.96.11-.31.03-.62.09-.93.06-.46.05-.94.05-1.38.23-.09.08.06.17,0,.09-.02-.03,0-.05.03-.07.3-.21.66-.15,1-.21.14,0,.26.02.36.13,0,.15-.08.26-.21.3-.9.26-1.85.25-2.75.51-.29.08-.64-.07-.53-.54.1-.14.25-.16.26-.16-.29.07-.71.25-1.17.26-.07.01-.14.02-.21.02-.24.12-.65-.19-.74.31-.02.07-.06.13-.12.17-.18.1-.37.11-.56.04-.19-.12-.21-.45-.62-.31-.54.19-1.13.11-1.81.06.25.12.55.12.5.33-.1.37-.49.3-.78.38-.25.03-.5.06-.76.09-.22.04-.44.06-.67.08-.58-.03-1.18.35-1.74-.06-.02-.09,0-.17.08-.23.56-.35,1.19-.12,1.79-.19.1-.02-.05-.12-.02-.01,0,.01-.02.02-.07.03-.13,0-.26.03-.38-.02-.05-.08-.05-.16,0-.23.35-.26.78-.26,1.18-.34-.76.09-1.48.39-2.24.4-.27,0-.6.14-.74-.25.9-.12,1.79-.24,2.69-.36.25-.11.51-.14.78-.09Z"/>
        <path class="cls-53" d="M613.1,19.26c-2.59.3-5.18.61-7.77.91-.57.22-1.13.41-1.74.16.17-.21.43-.18.66-.21,9.28-1.08,18.57-2.15,27.85-3.22,0,.04,0,.09-.01.13-.27.39-.7.34-1.08.39-4.47.53-8.95,1.01-13.42,1.55-1.17.15-2.34.28-3.51.41-.33.04-.68.13-.98-.11Z"/>
        <path class="cls-52" d="M581.96,22.2s0-.09,0-.13c.35-.2.72-.23,1.1-.14.05,0,.1,0,.14-.01.71.1,1.39-.2,2.09-.12,1.23-.03,2.47-.07,3.7-.1-.29.38-.77.22-1.13.41-.08.04-.16.06-.24.09-.25.07-.51.1-.77.14-1.28.21-2.56.01-3.84.1-.35-.08-.75.02-1.06-.24Z"/>
        <path class="cls-138" d="M589.15,21.7c1.3-.26,2.63-.15,3.94-.27.08,0,.12.05.12.13-.01.11-.05.21-.1.3-.04.06-.1.1-.17.12-.18.03-.37.02-.55.04-.75.21-1.55-.06-2.28.27-.07.03-.15.04-.23.04-.26-.11-.52-.14-.8-.08-.42.02-.85.18-1.27,0-.09-.06-.11-.13-.06-.22h0c.43-.27.98-.04,1.41-.33Z"/>
        <path class="cls-122" d="M593,21.73c.05-.06.11-.13.16-.19.66-.19,1.34-.24,2.03-.25.22,0,.43-.01.65-.02.84.18,1.65-.12,2.48-.16.28-.01.57-.06.86,0-.52.14-1.04.27-1.56.41-.09.1-.21.15-.35.15-.4-.03-.79.04-1.18.09-1.03.15-2.07.21-3.1-.04Z"/>
        <path class="cls-153" d="M603.59,20.33c.58-.05,1.16-.1,1.74-.16-.17.23-.4.36-.67.37-1.19.06-2.38.28-3.59.12.66-.28,1.35-.26,2.04-.29.16-.02.32-.03.48-.05Z"/>
        <path class="cls-53" d="M603.11,20.38c-.68.1-1.36.19-2.04.29-.21,0-.43.02-.64.02.87-.32,1.76-.43,2.68-.31Z"/>
        <path class="cls-121" d="M585.3,21.81c-.7.08-1.38.3-2.09.12.7-.04,1.38-.33,2.09-.12Z"/>
        <path class="cls-53" d="M595.19,21.3c-.68.08-1.35.16-2.03.25-.02-.04-.05-.08-.08-.12.7-.05,1.39-.32,2.1-.13Z"/>
        <path class="cls-230" d="M589.15,21.7c-.41.38-.95.21-1.41.33.36-.37.86-.17,1.27-.32.05-.02.1-.02.15-.01Z"/>
        <path class="cls-121" d="M583.06,21.94c-.37.05-.74.09-1.1.14.29-.38.73-.2,1.09-.3,0,.05,0,.11,0,.16Z"/>
        <path class="cls-53" d="M599.31,20.82c-.26.03-.52.06-.78.09.24-.23.5-.26.78-.09Z"/>
        <path class="cls-130" d="M617.91,21.88c6.45-.74,12.89-1.48,19.34-2.22.79-.09,1.58-.17,2.37-.25.35.18.79-.29,1.11.14,0,0,.03.04.04.04-2.38.26-4.77.53-7.15.79-.43-.05-.84,0-1.24.15-.17.02-.33.04-.5.06-.7-.09-1.34.21-2.01.3-.12.05-.25.07-.38.05-.68-.01-1.35.14-2.03.16-.22.03-.44.05-.66.08-1.32.05-2.64.21-3.94.45-.22.03-.44.05-.66.08-1,.02-2,.14-2.98.34-.17.02-.34.04-.5.06-.45-.07-.89.08-1.33.1-.47.05-.93.11-1.4.16-.87.1-1.74.2-2.61.3-.85.13-1.72.13-2.56.35-.17.02-.34.04-.51.06-.45-.07-.89.08-1.34.1-.97.15-1.95.16-2.91.39-.17.02-.34.04-.51.06-1.1,0-2.17.24-3.26.31-.17.01-.55.3-.51-.23.3-.26.68-.27,1.05-.31,4.34-.51,8.68-1.02,13.03-1.5.67-.07,1.36-.17,2.04-.01Z"/>
        <path class="cls-118" d="M601.74,23.8c.93.19,1.82-.16,2.74-.18.36,0,.72-.21,1.08,0-1.42.16-2.85.33-4.27.49-.58-.02-1.16.04-1.72.2-.59.07-1.18.14-1.76.21-.78-.04-1.54.16-2.32.2-.24.01-.5.18-.73-.05.14-.37.48-.39.79-.43,1.79-.23,3.58-.44,5.38-.62.29-.03.59-.06.83.18Z"/>
        <path class="cls-237" d="M594.21,24.99c-1.08.36-2.21.52-3.33.71-.08.04-.16.05-.24.01-.17-.06-.36-.1-.23-.35.92-.42,1.93-.43,2.9-.62.3.09.65-.02.91.24Z"/>
        <path class="cls-123" d="M594.21,24.99c-.28-.06-.58.15-.84-.07.4-.47.88-.39,1.37-.2,1.03.02,2.03-.39,3.06-.19-1.2.15-2.4.31-3.59.46Z"/>
        <path class="cls-98" d="M622.86,21.63c1.29-.37,2.6-.53,3.94-.45-1.31.15-2.63.3-3.94.45Z"/>
        <path class="cls-79" d="M590.36,25.55c.12.04.24.08.36.12-.32.28-.78.06-1.11.3-.2.03-.4.05-.6.08-.21.02-.42.03-.64.05-.05-.08-.05-.15,0-.23.11-.14.26-.22.43-.29.52-.1,1.03-.31,1.56-.03Z"/>
        <path class="cls-148" d="M629.49,20.86c.11-.01.23-.03.34-.04.36-.09.72-.23,1.1-.07-1.08.34-2.19.48-3.32.38.6-.27,1.24-.25,1.88-.27Z"/>
        <path class="cls-118" d="M606.07,23.57c.96-.4,2-.3,2.99-.47.07.04.07.08.01.13-1,.11-2,.23-3,.34Z"/>
        <path class="cls-68" d="M619.22,22.05c.97-.33,1.96-.45,2.98-.34-.99.11-1.99.23-2.98.34Z"/>
        <path class="cls-68" d="M613.32,22.61c.9-.1,1.8-.21,2.7-.31.08.03.08.07.01.12-.9.1-1.8.21-2.69.31-.07-.03-.08-.07-.02-.12Z"/>
        <path class="cls-47" d="M613.32,22.61s.01.08.02.12c-.84.1-1.68.19-2.51.29.79-.38,1.67-.26,2.5-.41Z"/>
        <path class="cls-98" d="M630.93,20.74c-.37.02-.73.05-1.1.07.65-.29,1.33-.38,2.04-.23-.31.05-.62.1-.94.16Z"/>
        <path class="cls-98" d="M629.49,20.86c-.63.09-1.25.18-1.88.27-.05-.01-.1-.02-.15-.03.65-.29,1.33-.37,2.04-.24Z"/>
        <path class="cls-123" d="M599.57,24.32c.55-.28,1.12-.34,1.72-.2-.57.07-1.15.13-1.72.2Z"/>
        <path class="cls-118" d="M616.04,22.41s0-.08-.01-.12c.48-.06.95-.11,1.43-.17.07.03.08.07.01.12-.48.05-.95.11-1.43.16Z"/>
        <path class="cls-68" d="M617.46,22.25s0-.08-.01-.12c.42,0,.84-.24,1.27-.02-.42.05-.84.09-1.25.14Z"/>
        <path class="cls-98" d="M632.37,20.53c.39-.27.8-.31,1.24-.15-.41.05-.83.1-1.24.15Z"/>
        <path class="cls-216" d="M589.61,25.97c.33-.26.75-.16,1.11-.3.05.01.11.02.16.03-.38.3-.85.19-1.27.27Z"/>
        <path class="cls-47" d="M609.07,23.23s-.01-.09-.01-.13c.42,0,.83-.23,1.26-.02-.41.05-.83.1-1.24.15Z"/>
        <path class="cls-24" d="M640.73,19.56c-.34-.28-.77.13-1.11-.14,4.59-.53,9.18-1.07,13.77-1.6,0,.34-.29.23-.46.26-.67.12-1.36.1-2.02.3-3.39.39-6.78.79-10.17,1.18Z"/>
        <path class="cls-201" d="M650.9,18.38c.49-.33,1.07-.2,1.59-.32.3-.07.64.03.89-.24,2.11-.25,4.23-.49,6.34-.74.41.09.81-.07,1.22-.07.14,0,.38-.16.38.18-3.47.4-6.95.8-10.42,1.19Z"/>
        <path class="cls-15" d="M661.32,17.18c-.51-.31-1.08.2-1.6-.11,1.74-.2,3.49-.41,5.23-.61,0,.4-.33.35-.57.37-1.02.12-2.04.23-3.06.35Z"/>
        <path class="cls-15" d="M665.44,16.41c.1-.01.21-.02.31-.03.11.06.23.12.34.17-.22,0-.55.48-.65-.14Z"/>
        <path class="cls-77" d="M667.13,13.25c-8.86,1.03-17.72,2.05-26.58,3.08-.5.06-1.01.08-1.49.25-.6.12-1.27-.11-1.82.32-.02.24.08.33.21.36-.62,0-1.21,0-1.79.11-.87.17-1.74,0-2.6-.11-.5-.03-.99-.03-1.45.22q.06.29.39.31c-.36.05-.82.02-1.2.26-.2.13-.37.33.08.34,1.15-.16,2.32-.16,3.47-.33,1.71-.21,3.43-.33,5.14-.52,7.17-.79,14.33-1.7,21.49-2.56,2.12-.25,4.25-.45,6.38-.68-.07-.35-.15-.71-.24-1.06Z"/>
        <path class="cls-77" d="M702.81,9.36c-.1,0-.2,0-.29,0-1.08-.01-2.14.23-3.21.31-.91.07-1.82.33-2.74.17-2.73.3-5.48.46-8.2.89-.09.04-.18.05-.26.07.04.27.07.53.11.8,1.47-.17,2.95-.35,4.42-.57.27.17.52.1.75-.09.21-.22.5-.15.75-.18,2.64-.31,5.28-.61,7.91-.93.28-.03.59.02.84-.19.04-.11.02-.2-.06-.28Z"/>
        <path class="cls-134" d="M667.31,14.06c-7.42.92-14.86,1.75-22.29,2.61-3.59.42-7.18.85-10.77,1.27.12.28.36.17.55.15,1.47-.21,2.96-.26,4.44-.43,6.38-.74,12.77-1.45,19.14-2.29.97-.13,1.95-.19,2.92-.33,2.02-.28,4.05-.45,6.08-.61-.02-.12-.05-.25-.07-.37Z"/>
        <path class="cls-134" d="M688.21,11.67c1.47-.18,2.95-.36,4.41-.64-.78-.32-1.48.16-2.23.25-.73.08-1.47.17-2.2.25,0,.05.01.1.02.15Z"/>
        <path class="cls-134" d="M693.37,10.94c.19-.31.51-.23.79-.27,2.63-.31,5.26-.61,7.9-.92.28-.03.6.04.79-.26.23-.14.49-.12.74-.14.23-.01.34.1.21.33-3.48.42-6.96.84-10.43,1.26Z"/>
        <path class="cls-61" d="M702.52,9.36c-1.96.24-3.92.59-5.9.57.13-.18.31-.14.49-.12.63-.07,1.26-.13,1.9-.2,1.15-.12,2.31-.24,3.46-.36.02.04.04.07.06.11Z"/>
        <path class="cls-61" d="M703.81,9.68c-.23-.51-.64-.14-.96-.2-.01-.04-.02-.08-.04-.13.64-.08,1.27-.16,1.91-.23.18.14.58-.02.53.42-.48.05-.96.09-1.45.14Z"/>
        <path class="cls-152" d="M705.25,9.54c-.09-.24-.39-.23-.53-.42.43-.16.89.1,1.32-.12.17-.09.31.07.34.24.04.19-.14.18-.26.2-.29.04-.58.07-.87.1Z"/>
        <path class="cls-162" d="M633.11,17.4c-.53.06-1.06.12-1.59.19-.23.29-.56.3-.89.34-.28.03-.55.05-.83.1-.14.03-.28.04-.43.05-1.36.09-2.71.45-4.09.32-2.35.21-4.69.61-7.05.74-.3.02-.74.2-.71-.4,4.85-.57,9.7-1.15,14.55-1.72.7-.06,1.4-.13,2.1-.19.43.2.85-.01,1.28-.02,1.16-.07,2.3-.39,3.47-.29.11.13.18.25-.02.36-.57-.27-1.13-.05-1.69.04-.58.54-1.34.37-2.02.47-.69.11-1.4.09-2.1,0Z"/>
        <path class="cls-182" d="M639.01,16.59c-1.23.12-2.46.25-3.69.37.08-.39.42-.24.64-.27,1.46-.22,2.93-.28,4.38-.57,5.6-.65,11.2-1.31,16.8-1.96-.21.64-.86.25-1.22.53-5.37.62-10.74,1.25-16.12,1.86-.26.03-.52.11-.79.04Z"/>
        <path class="cls-89" d="M667.14,13.31c-.02-.1-.04-.2-.07-.3-1.56.18-3.13.36-4.69.54.09.38.38.25.62.24.41-.01.81-.14,1.22-.07.53-.07,1.07-.07,1.59-.22.45-.06.89-.13,1.34-.2Z"/>
        <path class="cls-236" d="M662.38,13.55c.58.33,1.2-.22,1.77.09-.07.08-.17.12-.28.13-2.52.29-5.05.59-7.57.87-.09,0-.15-.03-.23-.05.26-.39.8-.05,1.06-.43.17-.02.33-.04.5-.06.58.05,1.15-.02,1.71-.2,1.01-.12,2.02-.24,3.03-.36Z"/>
        <path class="cls-102" d="M640.34,16.12c-.62.35-1.33.23-1.99.36-1,.2-2.05.09-3.02.48-.38-.04-.81.39-1.13-.13,2.05-.24,4.1-.48,6.15-.71Z"/>
        <path class="cls-182" d="M659.35,13.91c-.55.29-1.11.37-1.71.2.57-.07,1.14-.13,1.71-.2Z"/>
        <path class="cls-91" d="M693.89,9.91v.05s.01.06.01.06c-.99.35-2.04.29-3.05.45-.12-.03-.16-.1-.11-.21,1.05-.12,2.1-.23,3.16-.35Z"/>
        <path class="cls-28" d="M690.73,10.26s.01.07.03.11c-.78.33-1.6.31-2.42.34-.04.03-.09.03-.13,0,.79-.45,1.69-.28,2.53-.46Z"/>
        <path class="cls-89" d="M688.34,10.72c.81-.11,1.61-.23,2.42-.34,1.05-.12,2.1-.23,3.14-.35,1.06-.11,2.12-.22,3.18-.33,0,.04.02.08.03.12-.16.04-.33.08-.49.12-2.73.3-5.46.6-8.18.89-.03-.03-.06-.07-.09-.11Z"/>
        <path class="cls-84" d="M551.56,25.71c-1.04-.18-2.05.2-3.08.21,1.49-.43,3.05-.45,4.58-.7,1.05-.28,2.15-.19,3.2-.48,2.11-.26,4.23-.51,6.34-.77.06.09.06.18-.02.26-.08.06-.16.11-.26.14-1.19.21-2.39.29-3.59.45-.34.04-.68.06-.99.22-1.13.29-2.32.18-3.44.55-.42.14-.87.15-1.3.21-.48,0-.98.27-1.44-.09Z"/>
        <path class="cls-180" d="M569.23,23.23c.28-.03.56-.06.83-.09.81.01,1.6-.18,2.4-.22.21-.01.53-.24.64.17-.18.22-.44.24-.69.28-2.15.25-4.3.51-6.45.74-.34.04-.74.2-1.01-.21.46-.33,1.01-.21,1.52-.3.91-.17,1.85-.15,2.75-.38Z"/>
        <path class="cls-112" d="M569.23,23.23c-.84.38-1.76.28-2.64.43-.55.1-1.1.16-1.66.23-.16.19-.39.21-.61.25-.45.05-.89.12-1.34.14-.14,0-.27-.04-.38-.14,0-.06-.01-.12-.02-.18.04-.02.08-.02.13-.01.28-.14.57-.16.88-.11l5.64-.61Z"/>
        <path class="cls-112" d="M573.09,23.05c-.71-.2-1.4.1-2.1.11-.31,0-.62.17-.92-.01.25-.05.51-.11.76-.16.48-.05.95-.1,1.43-.15.43-.03.85-.06,1.28-.09.1.02.21.05.24.17,0,.07-.03.14-.09.18-.06.04-.13.06-.2.08-.15.01-.29.01-.39-.13Z"/>
        <path class="cls-200" d="M556.25,24.73c-1.03.41-2.13.34-3.2.48.03-.04.05-.08.07-.12,1.04-.12,2.09-.24,3.13-.36Z"/>
        <path class="cls-200" d="M563.6,23.84c-.29.04-.58.07-.88.11.27-.22.57-.21.88-.11Z"/>
        <path class="cls-20" d="M581.96,22.2c.33,0,.67-.09.99.06.06.08.05.16-.02.24-.52.35-1.11.17-1.67.18-.37.02-.74.08-1.12.1-.08,0-.16-.01-.24-.03-.08-.03-.14-.08-.19-.15-.03-.08-.02-.16.03-.23.73-.21,1.47-.19,2.22-.16Z"/>
        <path class="cls-157" d="M579.74,22.36s.02.05.02.08c-.06.12-.18.17-.3.18-.49-.02-.97,0-1.43.2-.08.03-.16.06-.24.08-.55.07-1.1.21-1.67.14-.08-.02-.15-.07-.21-.14-.06-.26.21-.2.31-.31.37-.06.75-.12,1.12-.17.8.04,1.59-.31,2.4-.05Z"/>
        <path class="cls-234" d="M576.22,22.58c-.11.07-.21.13-.32.2-.7.37-1.42.51-2.18.21,0-.04,0-.08,0-.13.4-.21.84-.2,1.27-.19.41-.03.82-.06,1.23-.09Z"/>
        <path class="cls-180" d="M574.99,22.67c-.42.06-.85.12-1.27.18-.06-.04-.12-.07-.18-.11.46-.06.92-.12,1.38-.18.03.03.05.07.08.1Z"/>
        <path class="cls-31" d="M590.36,25.55c-.56.08-1.12.16-1.68.23-1.15.45-2.4.39-3.58.68-.24.06-.48.12-.71-.03-.32.04-.64.08-.96.12-.45.21-.98.05-1.43.29-.2.03-.41.06-.61.09-.74.09-1.48.18-2.21.27-1.73.25-3.46.51-5.2.76-.37.32-.86.04-1.25.27-.62.11-1.26.08-1.86.3-2.42.41-4.87.64-7.29,1.02-1.14.28-2.3.37-3.47.39-1.78.04-3.52.46-5.29.62-.47.04-.96.02-1.42.16-1.2,0-2.37.22-3.56.33-.31.03-.63.16-.92-.06.11-.51.55-.43.89-.47,1.85-.24,3.71-.44,5.57-.66,1.92-.22,3.84-.44,5.76-.66.37-.04.74-.07,1.08-.23,2.07-.35,4.17-.5,6.25-.78,1.01-.16,2.05-.13,3.04-.45.56-.17,1.14-.18,1.72-.26.19-.02.38-.05.57-.07,1.18-.18,2.4-.17,3.56-.51.42-.13.85-.15,1.28-.21.84-.14,1.71-.09,2.53-.4,1.01-.27,2.08-.17,3.09-.5.35-.13.72-.14,1.08-.19.3-.03.61-.06.89-.2.29-.1.59-.13.9-.17.38-.05.77-.05,1.13-.23.21-.07.43-.11.64-.14.48-.07.98-.06,1.43-.28.49-.14,1-.16,1.5-.23.34-.02.65-.11.96-.24,4.17-.89,8.44-1.08,12.66-1.66.26-.04.53-.07.77.1,5.65-.64,11.29-1.29,16.94-1.93.28-.03.57-.07.87.04l-7.23.84s0,.1.01.15l2.3-.27c-.42.4-.91.12-1.19.47-4.76.56-9.52,1.12-14.28,1.68-.63.07-1.26.16-1.89.24-2.33.3-4.69.41-7,.92-.45.12-.94-.02-1.37.2-.99.26-2.04.28-3.01.63Z"/>
        <path class="cls-185" d="M617.53,20.32c1.32-.15,2.63-.29,3.95-.44,1.04-.11,2.11.07,3.14-.28.2-.07.5.12.74.21.22.08.41.1.59-.07.62-.6,1.39-.54,2.16-.49.27.02.22.13.26.29.09.33-.17.19-.26.21-1.05.13-2.11.24-3.16.38-.28.04-.6-.04-.8.25-3.24.39-6.47.8-9.71,1.18-2.71.32-5.43.61-8.14.91-.96.23-1.94.27-2.91.39-2.63.32-5.27.62-7.9.92-.26.03-.52.13-.78.02-.07-.09-.06-.18.02-.25.53-.28,1.12-.32,1.7-.34,1.23-.03,2.41-.54,3.57-.26-.02.02-.15.02-.24-.08-.08-.1,0-.19.09-.26.2-.15.45-.15.68-.19.65-.11,1.33-.08,1.96-.32.13-.05.27-.09.4-.11,1.84-.1,3.65-.36,5.46-.73,1.86-.38,3.77-.53,5.66-.73.34-.04.69-.02.99-.23.3-.22.65-.29,1.01-.26.37.09.75,0,1.12.02.17.02.33.08.4.26Z"/>
        <path class="cls-43" d="M594.67,23.64c.3.22.62.06.92.03,3.57-.4,7.14-.8,10.71-1.2-.03.04-.06.08-.09.12-3.96.47-7.93.94-11.89,1.42-.55.07-1.05.37-1.62.36-.25.15-.58.03-.82.22-.5.07-.99.14-1.49.2-.48.21-1.02.07-1.5.3-.18.03-.37.07-.55.1-.37.19-.81.06-1.18.26-.29.05-.58.09-.86.14-.27.15-.59.07-.86.21-.35.06-.69.11-1.04.17-.76.15-1.52.34-2.3.21-.01-.35.29-.31.49-.39.09-.02.18-.03.27-.04.31-.03.62-.07.93-.11.09-.01.18-.03.27-.04,1.06-.21,2.09-.58,3.17-.68.49-.07.99-.05,1.45-.27.43-.13.89-.15,1.33-.21.3-.03.6-.06.88-.19.44-.16.92-.11,1.35-.3.35-.14.73-.12,1.08-.28.08-.03.16-.06.24-.08.21-.05.42-.08.63-.09.18,0,.35.01.48.16Z"/>
        <path class="cls-206" d="M563.55,29.48c2.44-.57,4.95-.65,7.41-1.04.56-.21,1.19-.08,1.75-.32.43-.05.85-.09,1.28-.14.14.15.32.09.48.09.07.05.07.1,0,.15,0,0,0,0,0,0-1.7.2-3.41.4-5.11.61-.25.03-.54-.03-.73.23-.83.23-1.67.31-2.52.3l-2.55.28c-.06-.05-.07-.1-.01-.15Z"/>
        <path class="cls-202" d="M563.55,29.48c0,.05,0,.1.01.15,0,0,0,.02,0,.02-.99.24-1.99.34-3,.36-.11.01-.21.03-.32.04-2.22.26-4.43.51-6.65.77-.06,0-.11,0-.17,0-.08-.05-.08-.11-.01-.17.53-.23,1.1-.09,1.64-.19,2.81-.51,5.67-.65,8.5-.98Z"/>
        <path class="cls-173" d="M560.57,30c1-.12,2-.24,3-.36-.97.37-1.98.47-3,.36Z"/>
        <path class="cls-151" d="M566.12,29.35c.84-.1,1.68-.2,2.52-.3-.81.36-1.65.44-2.52.3Z"/>
        <path class="cls-111" d="M553.41,30.64c0,.06,0,.11.01.17-.11.02-.21.04-.32.05-1.42.16-2.84.32-4.26.47-.01-.04-.02-.09-.03-.13-.06-.05-.08-.11-.05-.18.06-.05.13-.06.2-.02,1.49-.04,2.95-.44,4.45-.35Z"/>
        <path class="cls-114" d="M548.8,31.05s.02.1.02.15c-1.42.16-2.85.31-4.27.47-.06-.1-.05-.18.04-.25.54-.29,1.14-.21,1.71-.33.56-.06,1.13-.14,1.69-.19.28-.03.57-.09.8.15Z"/>
        <path class="cls-106" d="M544.53,31.54v.07s.02.07.02.07c-.71.13-1.41.08-2.1-.07,0,0,0,0,0,0,.05-.07.12-.13.2-.17.42-.14.86-.18,1.3-.15.21.04.43.08.59.26Z"/>
        <path class="cls-83" d="M588.35,25.96s.01.09.02.14c-.72.16-1.43.32-2.15.47-.18,0-.35.01-.53.02-.11-.14-.12-.26.03-.38.88-.09,1.75-.29,2.64-.25Z"/>
        <path class="cls-186" d="M585.66,26.29c.01.1.02.2.03.3-.36.05-.73.1-1.09.15-.25.02-.3-.1-.2-.31.21-.06.43-.12.64-.17.21.02.42-.11.62.02Z"/>
        <path class="cls-166" d="M542.61,31.56c-.05.01-.11.02-.16.04-.48-.23-.97.04-1.45,0-.01-.06-.02-.11-.03-.16,0-.04,0-.08,0-.13.09-.16.25-.19.42-.19.28.04.55.02.83,0,.13,0,.24.03.35.1.09.1.11.22.03.34Z"/>
        <path class="cls-225" d="M541.17,27.56c.94-.21,1.88-.43,2.82-.64.16-.02.32-.04.47-.06.48-.2,1.01-.08,1.49-.29.71-.1,1.43-.2,2.14-.3.52-.17,1.06-.15,1.59-.23,1.08-.12,2.15-.26,3.23-.36.11.03.15.11.14.22-.5.47-1.22.21-1.77.53-.71.17-1.44.2-2.15.3-1,.04-1.96.31-2.94.5-.31.04-.62.08-.94.1-.93-.15-1.28.52-1.65,1.17-.49.07-.98.12-1.48.18-.79.17-1.59.04-2.39.12-.59-.2-.17-.54-.11-.84.1-.01.2-.03.29-.04.43.13.74-.18,1.11-.29.05-.02.1-.04.15-.07Z"/>
        <path class="cls-49" d="M539.97,29.82c.65-.9,1.64-.68,2.54-.76-.25.38-.09.74.08,1.09-.47.28-.91.25-1.32-.1,0-.11.08-.16.17-.19-.08-.08-.13.01-.18.03-.44.15-.89.46-1.29-.08Z"/>
        <path class="cls-64" d="M542.56,29.94c-.62-.17-.63-.26-.05-.89.47.06.93-.18,1.4-.03.22.35.02.5-.27.62-.37.05-.8-.09-1.08.29Z"/>
        <path class="cls-189" d="M543.53,29.55c.34-.02.39-.26.39-.53.1-.27.2-.53-.28-.46-.49.07-.99.11-1.49.17-.08-.01-.1-.05-.05-.12.53-.08,1.06-.16,1.58-.24.3-.21.54-.13.72.17-.09.53.17,1.02.15,1.54-.06.05-.13.07-.21.07-.27-.12-.57-.12-.85-.2-.25-.08-.24-.11.04-.4Z"/>
        <path class="cls-131" d="M542.09,28.61s.02.09.05.12c-1.2.24-2.43.12-3.64.26-.51.06-.21-.16-.04-.29.26,0,.51-.09.77-.11.12,0,.22.05.32.11l2.54-.1Z"/>
        <path class="cls-155" d="M539.97,29.82c.55.31,1.12-.22,1.8.04-.24.06-.36.09-.48.12-.2.26-.6.18-.78.46-.25.12-.5.04-.74-.02-.1-.03-.2-.08-.3-.12-.19-.13-.54,0-.59-.36.36-.04.73-.09,1.09-.13Z"/>
        <path class="cls-59" d="M538.88,29.95c.18.21.49-.01.66.22-.32.34-.68.36-1.08.16-.33.02-.64.01-.71-.41.38.01.75.02,1.13.04Z"/>
        <path class="cls-18" d="M541.03,27.63c-.35.18-.54.93-1.11.29.31-.3.73-.23,1.11-.29Z"/>
        <path class="cls-18" d="M539.55,28.71c-.11.02-.22.04-.33.05-.09-.13-.38.03-.35-.25.39,0,.41-.51.76-.56.23.28-.09.5-.08.76Z"/>
        <path class="cls-225" d="M538.87,28.51c.12.08.24.17.35.25-.26.03-.53.23-.76-.05.14-.07.27-.13.41-.2Z"/>
        <path class="cls-12" d="M538.46,30.33c.36-.05.72-.11,1.08-.16.05.05.11.09.16.14-.02.12-.08.23-.11.34-.03.09-.07.18-.16.23-.29.05-.54-.08-.79-.18-.1-.06-.16-.14-.18-.25,0-.04,0-.08,0-.12Z"/>
        <path class="cls-97" d="M538.47,30.45c.06.05.12.1.17.15.09.11.43.21.02.35-.1-.05-.2-.1-.31-.15-.03-.14,0-.26.12-.34Z"/>
        <path class="cls-226" d="M574.48,28.22c0-.05,0-.1,0-.15.58-.06,1.15-.12,1.73-.18-.53.35-1.15.2-1.72.33Z"/>
        <path class="cls-21" d="M553,25.73c-1.13.12-2.25.24-3.38.36.01-.06.05-.1.11-.12.61-.09,1.21-.17,1.82-.26.48-.04.96-.09,1.43-.13.06.04.06.09.01.15Z"/>
        <path class="cls-104" d="M549.74,25.97s-.07.08-.11.12c-.51.06-1.02.12-1.53.18.5-.33,1.09-.22,1.64-.3Z"/>
        <path class="cls-109" d="M545.95,26.57c-.47.21-.98.24-1.49.29.45-.32.99-.22,1.49-.29Z"/>
        <path class="cls-209" d="M538.66,30.94c.17-.12.02-.23-.02-.35.27.07.55.13.82.2.26-.27.63-.2.95-.28.08,0,.15-.02.23-.02.2-.01.47-.05.55.16.11.29-.2.35-.38.47-.27.07-.54.16-.83.17-.15,0-.31,0-.46,0-.3,0-.59-.04-.85-.18,0-.05,0-.11-.01-.16Z"/>
        <path class="cls-95" d="M539.52,31.28c.07-.13.18-.16.32-.17.3.21.71-.27.97.17-.31.13-.6.33-.96.27-.11-.09-.22-.18-.33-.27Z"/>
        <path class="cls-198" d="M540.81,31.28c-.29-.25-.69.13-.97-.17.31-.04.63-.09.94-.13.16-.13.38-.09.55-.17.13,0,.23.05.3.15.03.08.04.15.01.23-.05.08-.12.1-.2.06-.16.02-.31.03-.47.05-.06-.01-.11-.02-.17-.03Z"/>
        <path class="cls-208" d="M582.01,26.85c.44-.28.95-.22,1.43-.29-.43.32-.95.21-1.43.29Z"/>
        <path class="cls-235" d="M667.4,14.52c-.02-.1-.03-.21-.05-.31-8.34.98-16.67,1.97-25.01,2.92-2.69.31-5.37.71-8.08.81-1.19.2-2.39.34-3.6.39-.39-.28-.81-.14-1.22-.09-1.56.21-3.13.29-4.7.29-.61-.02-1.2.1-1.8.15-.66.08-1.32.15-1.97.23-2.52.32-5.06.52-7.57.93-.09.04-.17.1-.24.17-.09.25-.05.45.2.58.62.1,1.21-.07,1.81-.14.24-.31.62-.17.92-.27.31.11.62-.03.93-.03.22-.03.45-.21.67-.01,3.2-.41,6.42-.72,9.62-1.22,3.43-.53,6.9-.73,10.36-1.07.15.07.31.03.47.01,5-.58,9.99-1.16,14.99-1.74.13-.02.26-.03.38-.1,2.01-.24,4.02-.47,6.02-.71.33.06.65.03.95-.11,1.95-.18,3.88-.62,5.86-.54.35-.15.7-.16,1.06-.16Z"/>
        <path class="cls-213" d="M637.67,17.86c5.28-.61,10.56-1.21,15.84-1.82-.2.23-.49.19-.74.22-4.78.56-9.56,1.11-14.33,1.66-.25.03-.52.15-.76-.06Z"/>
        <path class="cls-19" d="M617.19,20.06c.08-.14.13-.36.35-.3.17.05.13.24.15.38-.06.06-.11.12-.17.17-.1-.03-.21-.07-.31-.1-.07-.05-.08-.1-.02-.16Z"/>
        <path class="cls-213" d="M659.53,15.33c.32-.04.63-.08.95-.11-.29.26-.61.3-.95.11Z"/>
        <path class="cls-224" d="M613.21,20.09c.01.16.01.33.21.41-.02.38-.34.26-.53.29-.9.12-1.79.22-2.69.32-.76,0-1.51.12-2.27.23-1.51.22-3.01.44-4.54.32-.13-.06-.22-.15-.24-.3-.02-.26.23-.34.35-.5.06,0,.11-.02.17-.02.37.16.75-.14,1.12.02-.12.32.07.53.33.42.97-.4,2.06-.2,3.02-.63.24-.31.61-.21.93-.28.51-.06,1.02-.12,1.53-.18.48,0,.93-.21,1.41-.19.34.02.69.29,1.04.01.08-.01.14.01.17.08Z"/>
        <path class="cls-238" d="M603.24,21.51c1.99-.02,3.96-.3,5.94-.52.3-.03.62-.18.92.04-.88.39-1.87.21-2.77.5-1.46.47-3.01.31-4.49.67-.1.01-.21.03-.31.04-.93.27-1.9.24-2.84.41-.22-.04-.26-.16-.1-.3.25-.22.57-.22.88-.21.02-.16-.23-.34.03-.48.51-.33,1.05-.43,1.62-.18.21-.02.42-.05.63-.07.18-.05.35-.03.49.1Z"/>
        <path class="cls-40" d="M617.54,18.74c.08.34.32.25.56.22,2.43-.27,4.86-.53,7.29-.79-.09.38-.41.35-.69.38-2.41.26-4.81.55-7.22.83-1.53.2-3.06.31-4.58.56-.55.04-1.1.22-1.65-.03.33-.29.76-.18,1.14-.26.29-.06.59-.05.71-.4,1.48-.17,2.96-.35,4.44-.52Z"/>
        <path class="cls-63" d="M600.4,21.85c.06.3.48-.1.51.26-1.39.26-2.78.49-4.17.74-.62.11-1.32.08-1.82.58-.02.07-.06.13-.11.18-.05,0-.1.02-.14.03-.17,0-.34.02-.5.03-.17-.15-.22-.36-.26-.57-.02-.24-.17-.49.01-.73.76-.17,1.52-.07,2.28-.09.61-.02,1.22-.01,1.78-.3.22-.03.44-.06.66-.09.29.12.58-.03.87-.03.3,0,.59-.16.89-.02Z"/>
        <path class="cls-62" d="M597.98,21.98c-.21.33-.56.37-.9.41-1.07.13-2.14.13-3.22.07-.17.07-.31.02-.45-.07-.1-.09-.13-.21-.11-.34.04-.08.11-.14.19-.17.92-.07,1.84-.06,2.74.14.59.25,1.17-.07,1.75-.03Z"/>
        <path class="cls-150" d="M600.4,21.85c-.32.03-.63.07-.95.1-.08-.04-.09-.09-.02-.15l.64-.07c-.09-.3-.36-.21-.59-.36.78-.42,1.61-.13,2.36-.31.2-.05.14.31.27.43-.58.08-1.18.08-1.73.36Z"/>
        <path class="cls-127" d="M596.23,22.01c-.96.28-1.92-.17-2.88,0-.14.02-.25-.01-.32-.14-.01-.05-.02-.09-.03-.14,1.06-.06,2.12-.13,3.18-.19.09.05.19.07.25.15.04.1.04.19-.03.28-.06.01-.12.03-.18.04Z"/>
        <path class="cls-76" d="M611.25,19.92c.53-.05,1.06-.09,1.6-.14.08.12.39-.06.33.25,0,0,.03.07.03.07-.06,0-.12,0-.17,0-.24.21-.51.13-.78.08-.53.05-1.07.1-1.6.15-.18-.18-.54.22-.64-.2.41-.07.83-.14,1.24-.2Z"/>
        <path class="cls-132" d="M596.41,21.97l-.04-.3c.13-.14.29-.11.45-.11.27.06.56.03.83.11l.76-.05s0,.08.01.12l-2.02.23Z"/>
        <path class="cls-82" d="M610.01,20.12c.21.07.43.13.64.2-.53.06-1.05.13-1.58.19-.11-.09-.12-.19-.03-.3.32-.03.64-.06.96-.09Z"/>
        <path class="cls-60" d="M607.82,20.65l-1.32.15c.58-.51,1.12-.4,1.59-.49.12.29-.21.2-.27.34Z"/>
        <path class="cls-238" d="M604.78,20.86c-.37-.02-.75.23-1.12-.02.66-.04,1.31-.26,1.99-.02-.29.01-.58.03-.87.04Z"/>
        <path class="cls-9" d="M607.82,20.65c.09-.11.18-.22.27-.34.32-.04.64-.07.96-.11.01.1.02.2.03.3-.32.04-.63.09-.95.13-.1,0-.21,0-.31.01Z"/>
        <path class="cls-238" d="M603.49,20.86c.02.2-.07.31-.26.34-.16.04-.31.16-.48.06-.14-.07-.42-.16-.08-.3.25-.1.55-.07.82-.1Z"/>
        <path class="cls-212" d="M602.74,21.26c.15-.1.29-.26.48-.06,0,.11.01.21.02.32-.17.02-.35.07-.49-.1,0-.05,0-.1-.01-.15Z"/>
        <path class="cls-238" d="M599.43,21.8c0,.05.01.1.02.15-.27,0-.55.17-.81-.05.26-.03.53-.07.79-.1Z"/>
        <path class="cls-127" d="M597.65,21.67c-.27.01-.56.18-.82-.05.15-.13.31-.15.48-.07.1-.01.21-.02.31-.03,0,.05.01.1.02.15Z"/>
        <path class="cls-144" d="M582.96,22.4s-.01-.09-.02-.14c1.33-.18,2.67.1,4-.13.27.15.56-.09.83.04.47-.05.94-.09,1.41-.14.06.09.05.17-.03.24-.41.27-.89.2-1.33.3-.36.04-.71.09-1.07.06-.3-.06-.61-.04-.91,0-.8.14-1.6.12-2.41.05-.18-.04-.35-.11-.46-.28Z"/>
        <path class="cls-4" d="M587.77,22.17c-.28.02-.56.18-.83-.04.26-.03.53-.07.79-.1,0,.05.02.1.03.14Z"/>
        <path class="cls-164" d="M586.66,22.46c.35-.03.71-.05,1.06-.08.54.02,1.07-.05,1.6-.18.18-.06.36-.05.52.05.06,0,.11-.01.17-.02.65-.37,1.39-.12,2.07-.31.43.1.92-.13,1.29.25.06.05.11.1.17.15.08.4-.23.47-.5.57-1.08.16-2.17.25-3.23.55-1.15.12-2.3.29-3.45.41-.45.05-.9.07-1.29-.22-.28-.26-.23-.58-.2-.91.28-.3.67-.15.99-.25.26,0,.52-.12.79-.03Z"/>
        <path class="cls-184" d="M592.18,22.02c-.72.07-1.44.15-2.17.22.1-.31.34-.4.62-.34.64.13,1.25-.06,1.88-.09.05.33-.17.22-.33.21Z"/>
        <path class="cls-122" d="M592.18,22.02c.12-.05.27-.06.33-.21.17.02.35.05.52.07.13,0,.25.01.32.14,0,.06.01.11.02.17-.4-.05-.8-.11-1.19-.16Z"/>
        <path class="cls-4" d="M589.84,22.25c-.16.01-.32.03-.47.04-.07-.03-.16-.03-.18-.13,0-.04,0-.09-.01-.13.25,0,.56-.19.67.22Z"/>
        <path class="cls-135" d="M597.32,21.55c-.16.02-.32.04-.48.07-.16.02-.31.04-.47.05-.06-.04-.12-.09-.18-.13.38,0,.76-.23,1.13.01Z"/>
        <path class="cls-216" d="M585.66,26.29c-.21,0-.42-.02-.62-.02,1.19-.32,2.43-.33,3.64-.48-.11.06-.22.12-.33.17-.9.11-1.8.22-2.69.33Z"/>
        <path class="cls-134" d="M667.12,13.22c-.46.06-.92.14-1.38.23-.53.06-1.06.12-1.59.19l-8.08.95c-3.05.37-6.11.75-9.16,1.11-2.63.31-5.27.6-7.9.9-.03.1-.05.19-.08.29.36-.18.76-.23,1.15-.28,9.03-1.05,18.07-2.09,27.1-3.15-.02-.08-.04-.16-.06-.24Z"/>
        <path class="cls-214" d="M630.66,18.33c-1.96.24-3.93.43-5.91.4.07-.52.54-.36.8-.38,1.06-.09,2.11-.25,3.16-.35.26-.03.53,0,.77-.15.11-.01.21-.03.32-.04.28.08.54.06.79-.1.32-.04.63-.08.95-.12.37.33.82-.09,1.4.25-.89.12-1.65.08-2.27.5Z"/>
        <path class="cls-214" d="M633.11,17.4c1.37-.16,2.75-.31,4.12-.47.47.6,1.1,0,1.62.27-1.58.07-3.12.67-4.73.36-.33-.06-.73.24-1.01-.16Z"/>
        <path class="cls-214" d="M662.49,14.38c.23-.31.44-.27.72-.18-.17.3-.39.27-.72.18Z"/>
        <path class="cls-134" d="M659.66,14.52l.91-.11c-.27.28-.5.44-.91.11Z"/>
        <path class="cls-13" d="M629.47,17.85c-1.09.45-2.28.31-3.4.55-.45.09-.97-.08-1.33.34-.58.05-1.16.1-1.73.15-1.63.05-3.23.36-4.86.49-.23.02-.57.29-.72-.15,2.37-.29,4.74-.58,7.11-.86.29-.03.59-.03.85-.18,1.37.04,2.72-.27,4.08-.33Z"/>
        <path class="cls-13" d="M630.58,17.71c-.23.27-.5.29-.79.1.26-.03.52-.07.79-.1Z"/>
        <path class="cls-222" d="M553,25.73s-.01-.1-.01-.15c.39-.09.77-.19,1.18-.16.95-.25,1.93-.25,2.89-.4.34-.05.68-.06.98-.25,1.48-.27,2.99-.27,4.46-.61.04.03.08.02.11-.02.08,0,.16-.02.24-.02.54.05,1.07-.01,1.59-.18.17-.01.34-.03.5-.04,1.54-.01,3.05-.29,4.58-.44.98-.1,1.95-.18,2.93-.27-.07.44-.44.37-.73.43-.44.09-.89.07-1.31.27-.71.15-1.44.25-2.17.25-1.73,0-3.44.26-5.14.56-.13.06-.28.09-.42.12-.24.03-.48.09-.72.1-1.03.11-2.05.23-3.08.36-1.18.13-2.36.27-3.53.4-.69.08-1.39.14-2.08.26-.1.01-.18-.02-.26-.08,0-.04,0-.08-.01-.13Z"/>
        <path class="cls-200" d="M562.5,24.16c-1.47.39-2.99.4-4.47.69-.11.06-.22.09-.32-.01.53-.36,1.16-.25,1.74-.34,1.01-.15,2.03-.23,3.04-.34Z"/>
        <path class="cls-21" d="M557.71,24.84c.11,0,.21,0,.32.01-1.25.43-2.58.38-3.87.56,1.16-.35,2.38-.31,3.55-.58Z"/>
        <path class="cls-159" d="M570.42,23.68c.61-.42,1.41-.07,2.03-.5.21-.04.43-.09.64-.13.16,0,.32,0,.48,0,.82.04,1.62-.23,2.45-.18.62-.05,1.23-.11,1.85-.16.65-.1,1.3-.24,1.97-.12.04-.02.07,0,.09.02-.11.54-.59.37-.93.48-.86.08-1.71.25-2.58.25-.33-.07-.66-.05-.99,0-1.43.16-2.86.34-4.28.49-.25.01-.52.05-.71-.17Z"/>
        <path class="cls-200" d="M564.43,23.94c-.51.2-1.04.28-1.59.18.53-.06,1.06-.12,1.59-.18Z"/>
        <path class="cls-196" d="M576.02,22.88c-.81.1-1.62.34-2.45.18l.15-.07c.73-.07,1.46-.14,2.18-.21.03.04.07.07.11.1Z"/>
        <path class="cls-51" d="M578.98,22.91c.31-.11.7.03.94-.29.43-.04.86-.09,1.29-.13.14.08.54-.02.27.37-.28.17-.6.19-.92.22-.53-.04-1.11.38-1.58-.17Z"/>
        <path class="cls-107" d="M581.55,22.73c-.11-.08-.23-.16-.34-.24.59.02,1.17.03,1.75-.09.12.02.27-.02.33.15-.01.04-.02.08-.04.12-.23.31-.57.29-.9.28-.27-.06-.58,0-.8-.22Z"/>
        <path class="cls-29" d="M579.83,22.6c-.65.06-1.3.31-1.97.12.05-.02.1-.05.15-.07.46-.14.93-.2,1.41-.16.11-.02.22-.03.33-.05.02.05.05.11.07.16Z"/>
        <path class="cls-181" d="M579.43,22.49c-.46.15-.94.16-1.41.16.45-.26.92-.31,1.41-.16Z"/>
        <path class="cls-32" d="M562.28,29.17c-1.93.42-3.89.57-5.84.77-.32.03-.63.09-.94.13-2.2.13-4.38.43-6.55.74-.6.09-1.21.17-1.81.24-.73-.15-1.48.31-2.2-.04,0-.42.35-.4.61-.45.46-.09.93-.12,1.4-.18.78-.09,1.56-.18,2.35-.27.24-.03.49-.06.73-.09.89-.07,1.77-.26,2.67-.25.45.1.89,0,1.33-.05,2.17-.22,4.33-.55,6.52-.71.57.2,1.19-.23,1.74.17Z"/>
        <path class="cls-215" d="M547.08,30.88c2.49-.26,4.98-.53,7.48-.79.31-.03.63-.12.94-.02-1.91.23-3.81.45-5.72.69-.28.03-.59-.04-.81.23-.06.02-.11.04-.17.06-.84.08-1.69.17-2.53.25-.76-.09-1.49.21-2.24.14-.47.04-.94.08-1.41.12-.01-.1-.03-.19-.04-.29.12-.17.3-.2.49-.2.46.07.92-.05,1.37-.08.89.16,1.76-.15,2.64-.12Z"/>
        <path class="cls-133" d="M582.1,26.06c.78.23,1.53-.13,2.3-.1-1.02.32-2.08.39-3.13.51-.85.28-1.76.15-2.61.43-.39.09-.77.21-1.18.16-.94.26-1.92.25-2.88.4-.28.05-.58,0-.84.16l-.48.06c-.13-.06-.26-.11-.22-.3.06-.08.13-.14.21-.18.91-.22,1.85-.27,2.78-.39.79-.1,1.59-.1,2.34-.4.28-.05.56-.08.83-.12.87-.1,1.74-.18,2.6-.32.1-.01.18,0,.26.06Z"/>
        <path class="cls-142" d="M562.28,29.17c-.55-.07-1.09.24-1.64.03.2-.31.53-.31.84-.34,1.06-.13,2.13-.26,3.19-.38.55-.05,1.09-.12,1.64-.19.52-.05,1.03-.14,1.55-.16.26-.01.59-.13.71.27-2.09.26-4.19.51-6.28.77Z"/>
        <path class="cls-171" d="M568.56,28.4c-.76-.22-1.49.13-2.24.1,0-.25.18-.3.36-.37.6-.12,1.2-.16,1.81-.24.24-.02.48-.05.71-.02.51.1,1-.05,1.5-.08.31-.02.64-.12.9.14-1,.28-2.02.37-3.04.47Z"/>
        <path class="cls-142" d="M571.6,27.93c-.81-.1-1.6.34-2.42.12.29-.39.74-.31,1.14-.37.59-.09,1.18-.14,1.78-.21.35-.02.71-.12,1.03.11.06.04.12.09.17.13-.57.08-1.13.15-1.7.23Z"/>
        <path class="cls-171" d="M573.78,27.64c.9-.44,1.9-.29,2.85-.47.28-.06.58-.06.87-.09-1.21.39-2.48.39-3.72.57Z"/>
        <path class="cls-171" d="M578.67,26.91c.83-.4,1.74-.28,2.61-.43-.85.28-1.73.32-2.61.43Z"/>
        <path class="cls-226" d="M572.71,28.12c-.54.35-1.16.23-1.75.32.54-.32,1.16-.22,1.75-.32Z"/>
        <path class="cls-133" d="M588.89,25.09c.45-.34.99-.22,1.5-.3-.47.23-.99.24-1.5.3Z"/>
        <path class="cls-133" d="M587.17,25.44c.34-.31.78-.19,1.17-.26-.37.21-.78.21-1.17.26Z"/>
        <path class="cls-133" d="M585.44,25.79c.24-.25.57-.17.86-.21-.27.15-.56.2-.86.21Z"/>
        <path class="cls-223" d="M591.88,24.58c.23-.24.53-.21.82-.22-.25.18-.53.22-.82.22Z"/>
        <path class="cls-149" d="M602.84,22.2c.14-.2.36-.19.57-.22,2.23-.32,4.46-.63,6.69-.95,1.1-.2,2.25-.08,3.31-.53.59.07,1.17-.22,1.75-.04-.11.18-.31.18-.49.21-1.83.29-3.68.39-5.51.73-1.04.2-2.09.41-3.14.56-1.05.15-2.13.16-3.2.23Z"/>
        <path class="cls-149" d="M594.81,23.61s0-.1,0-.15c.31-.41.82-.36,1.24-.45.95-.21,1.92-.34,2.86-.56.21-.05.42,0,.61.13,1-.11,2.01-.23,3.01-.34-.82.48-1.79.22-2.65.51.03.19.24.02.34.23l-5.4.63Z"/>
        <path class="cls-224" d="M617.19,20.06c0,.05.02.11.02.16-.37-.03-.75.21-1.12-.03.37-.04.73-.09,1.1-.13Z"/>
        <path class="cls-197" d="M579.23,26.53c-.25.03-.49.06-.74.09-.79.21-1.62.22-2.41.43-.99.13-1.98.25-2.97.38-.3.16-.64.11-.96.17-.59-.01-1.18.32-1.78.03.04-.22.2-.33.38-.42.22-.1.46-.14.69-.17,2.95-.34,5.85-.96,8.81-1.18.78-.06,1.54-.45,2.35-.17.1.05.14.13.13.24-.21.04-.42.08-.63.12-.06,0-.11.01-.17.02-.88.29-1.83.16-2.71.45Z"/>
        <path class="cls-168" d="M582.73,25.94c0-.05-.02-.11-.03-.16.13-.48.74-.41.93-.83.15-.43.78-.75.29-1.34-.07-.08.12-.27.21-.4.58-.44.66-.41.84.3.15.2.29.4.34.65.06.19.14.39.03.59-.17.18-.41.19-.63.24-.31.21-.42.6-.73.81-.05,0-.1.01-.14.01-.33-.04-.65-.02-.95.12-.05.01-.11.01-.16,0Z"/>
        <path class="cls-223" d="M583.99,25.81c-.03-.45.34-.68.55-.99.34.35.63-.12.96-.06.23,0,.45.03.68.05.35.09.72-.07,1.07.1.08.06.09.12.04.21-1.09.23-2.19.46-3.28.69Z"/>
        <path class="cls-223" d="M592.32,24.08c-.43.32-.96.18-1.43.32-.23.18-.56.04-.79.22-.47.06-.94.13-1.41.19-.17.14-.39.1-.59.13-.16-.04-.34-.05-.43-.23-.01-.1.02-.17.1-.23.28-.18.6-.17.91-.22.88-.01,1.68-.5,2.58-.4.34.12.75-.07,1.06.22Z"/>
        <path class="cls-140" d="M592.32,24.08c-.33-.06-.67.19-.98-.06.02-.03.05-.06.07-.09.48-.27,1.01-.37,1.53-.5.08-.01.15-.01.23,0,.15.07.22.2.24.37-.31.28-.73.17-1.09.29Z"/>
        <path class="cls-140" d="M594.12,23.06c.02.21.03.41.05.62-.21.03-.41.06-.61.09-.1-.07-.12-.17-.1-.28.06-.14.17-.23.28-.32.12-.08.22-.19.38-.1Z"/>
        <path class="cls-133" d="M588.06,24.88c.21-.02.42-.04.63-.06-.42.35-.95.21-1.43.3,0-.04.02-.09.02-.13.23-.26.51-.17.78-.1Z"/>
        <path class="cls-178" d="M593.52,23.44c.01.11.02.21.04.32-.05.02-.09.03-.14.03-.14-.06-.19-.17-.21-.31-.03-.12,0-.21.14-.22.14-.02.18.06.18.19Z"/>
        <path class="cls-223" d="M582.89,25.94c.3-.22.61-.28.95-.12-.32.04-.64.08-.95.12Z"/>
        <path class="cls-133" d="M590.11,24.63c.21-.25.52-.18.79-.22-.21.27-.52.18-.79.22Z"/>
        <path class="cls-191" d="M544.02,31.45c.75-.05,1.48-.34,2.24-.14-.58.08-1.16.15-1.73.23-.17,0-.36.05-.51-.09Z"/>
        <path class="cls-163" d="M543.04,31.23c-.16.02-.32.04-.48.05-.09,0-.18,0-.27,0-.23-.11-.49.1-.7-.08,0-.05,0-.11-.01-.16.12-.16.3-.23.48-.29.32-.05.63-.15.96-.11.98-.05,1.94-.22,2.91-.32.31-.03.63-.09.94.02.1.04.14.12.14.22-.68.2-1.43.02-2.07.41-.18.2-.44.12-.65.17-.42.01-.82.17-1.25.08Z"/>
        <path class="cls-191" d="M541.6,31.2c.23.03.47.05.7.08-.29.04-.57.18-.85-.01.05-.02.1-.04.15-.07Z"/>
        <path class="cls-129" d="M546.09,27.02c.99-.23,1.98-.43,2.99-.51.6.15,1.19-.22,1.79-.04-.09.46-.49.4-.8.45-.74.13-1.51.12-2.24.33-.13.05-.27.06-.41.06-.42-.17-.99.29-1.33-.3Z"/>
        <path class="cls-194" d="M544.32,28.65c-.13-.3-.37-.33-.64-.28.09-1.04.22-1.15,1.5-1.24.03.07.02.14-.02.2-.23.22-.6.13-.83.38.17.16.33,0,.49,0,.18-.01.3.05.33.24-.12.41-.3.77-.83.71Z"/>
        <path class="cls-56" d="M553.02,25.85c.06,0,.11-.01.17-.02.25-.11.51-.11.78-.12.27.12.66-.18.86.22-.22.39-.62.34-.97.39-.59.08-1.19.18-1.79.17-.27-.07-.58-.03-.8-.27.56-.26,1.19-.18,1.76-.37Z"/>
        <path class="cls-220" d="M545.12,27.25s.03-.08.05-.12c.31-.04.61-.08.92-.12.4.32.9-.17,1.3.16-.57.46-1.35.28-1.94.67-.06.05-.13.1-.21.13-.1.03-.15-.01-.14-.12-.11,0-.23-.02-.34-.03-.22-.42.33-.33.38-.57Z"/>
        <path class="cls-115" d="M551.26,26.23c.22.07.46-.09.66.09-.32.35-.68.38-1.08.16-.59-.03-1.16.29-1.75.03.72-.1,1.45-.19,2.17-.29Z"/>
        <path class="cls-55" d="M540.57,30.35c0-.6.5-.21.73-.37.42.02.86.39,1.26-.04.03-.84.62-.31.97-.39,0,.31.05.37.19.27.42-.32.47.09.64.28.45.36.05.4-.19.5-1.21.06-2.42.18-3.6-.24Z"/>
        <path class="cls-85" d="M544.55,30.06c.44.17.87.12,1.32.05,1.07-.17,2.16-.26,3.24-.39.07.06.08.13,0,.2-.15.05-.31.06-.47.08-.22.03-.44.04-.65.09-.1.03,0,.09.02.08.2-.19.47-.11.71-.17.38,0,.72-.24,1.11-.17.09.03.15.08.19.16.03.09.01.17-.04.25-.21.03-.43.05-.64.08-.82-.11-1.62.22-2.44.16-1.38.1-2.74.41-4.13.32.42-.37,1-.05,1.44-.35.27-.03.24-.17.13-.35.06-.01.13-.02.19-.04Z"/>
        <path class="cls-99" d="M544.23,30.44c-.42.36-.97.17-1.44.35-.25.05-.48.26-.75.07-.2.13-.44-.08-.64.07-.21.02-.42.04-.63.05.09-.08.19-.16.32-.27-.25-.05-.48-.1-.71-.15-.33.18-.65.17-.95-.09.09-.06.18-.12.27-.18.29.02.58.03.87.05,1.22.02,2.44.19,3.66.09Z"/>
        <path class="cls-174" d="M539.44,30.48c.32.03.63.06.95.09-.23.39-.62.12-.92.22,0-.1-.02-.21-.03-.31Z"/>
        <path class="cls-209" d="M541.4,30.93c.19-.25.42-.16.64-.07-.12.16-.3.14-.46.18-.06-.04-.12-.07-.18-.11Z"/>
        <path class="cls-103" d="M617.43,19.22c.26.24.55.1.83.07,1.33-.14,2.66-.31,3.99-.45.25-.03.52-.14.76.05-3.28.38-6.55.76-9.83,1.14-.11-.08-.22-.17-.33-.25,1.53-.18,3.05-.37,4.58-.55Z"/>
        <path class="cls-161" d="M612.25,20.17c.26-.03.52-.06.78-.08-.2.6-.51.2-.78.08Z"/>
        <path class="cls-232" d="M599.52,22.58c-1.57.29-3.14.59-4.71.88-.31-.04-.43-.19-.08-.32.58-.22,1.19-.44,1.8-.51,1.46-.17,2.9-.49,4.37-.53-.37.44-1.02.04-1.39.48Z"/>
        <path class="cls-193" d="M594.12,23.06c-.1.07-.2.13-.29.2-.16.12-.26-.02-.37-.08.09-.3-.38-.19-.34-.46.18-.08.41-.11.43-.37.11.04.22.08.33.13.15.17.29.35.25.6Z"/>
        <path class="cls-71" d="M585.87,22.56c-.3.11-.64.02-.92.22-.58.09-1.19.47-1.65-.24,0,0-.01.01-.01.01.82-.17,1.67.12,2.49-.1.09-.01.12.03.09.11Z"/>
        <path class="cls-138" d="M589.19,22.16c.06.04.12.09.18.13-.55.06-1.09.23-1.65.09.49-.07.98-.15,1.46-.22Z"/>
        <path class="cls-4" d="M585.87,22.56s-.06-.08-.09-.11c.29-.04.59-.2.88.01-.26.03-.52.07-.78.1Z"/>
        <path class="cls-46" d="M585.1,24.25c.01-.24-.09-.43-.22-.61.05-.07.05-.17.15-.21.33.31.73.27,1.13.22,1.21-.13,2.43-.26,3.64-.39,0,.02.02.05.02.07,0,.02-.02.04-.04.06.3.02.59-.08.88-.13.33-.06.66-.15.96.11.02.1,0,.17-.08.24-.71.32-1.48.29-2.23.34-.72-.21-1.35.26-2.04.28-.72,0-1.44.35-2.17.02Z"/>
        <path class="cls-66" d="M591.62,23.37l-2.08.24c-.03-.25.24-.2.26-.35,1.08-.33,2.2-.41,3.31-.55.07.17.65-.09.33.4-.33.23-.67.46-1.11.38-.24,0-.49.04-.71-.12Z"/>
        <path class="cls-110" d="M585.03,23.43c-.05.07-.1.14-.15.21-.08-.19.05-.5-.26-.57-.23-.05-.26.19-.38.31-.19.03-.38.08-.54-.07-.17-.05-.33-.1-.5-.14-.27-.11-.55.09-.82-.02h0c-.1-.11-.1-.22-.03-.35.31-.09.68.01.94-.26.5.43,1.11.08,1.65.24.43.17.03.44.07.65Z"/>
        <path class="cls-176" d="M562.04,24.68c.21-.03.42-.05.63-.08.58.01,1.14-.13,1.71-.2,2.07-.28,4.16-.37,6.23-.63.11,0,.18.04.2.16-.06.31-.29.44-.57.46-1.5.11-2.97.42-4.47.51-1.08-.05-2.13.08-3.17.37-.18.14-.39.21-.62.16-.41-.28-.93.02-1.34-.24-.05-.08-.05-.16,0-.24.45-.16.96-.03,1.39-.27Z"/>
        <path class="cls-195" d="M560.63,25.01c0,.05.01.11.02.16-.52.45-1.2.36-1.81.48-.63.13-1.3.19-1.97.18-.7-.01-1.39.35-2.08.02-.27-.02-.55.15-.81-.06.39-.29.9-.08,1.31-.31,1.2-.14,2.39-.28,3.59-.41.59.11,1.16-.2,1.75-.06Z"/>
        <path class="cls-211" d="M570.76,23.84c-2.42.27-4.84.55-7.26.82-.28.03-.57.18-.84-.05.08-.02.17-.03.25-.05,1.77-.3,3.55-.51,5.33-.61.72-.09,1.44-.17,2.17-.26.21,0,.42-.01.63-.02.02.25-.11.25-.29.18Z"/>
        <path class="cls-176" d="M568.26,23.94c-1.78.2-3.56.41-5.33.61,1.76-.33,3.53-.64,5.33-.61Z"/>
        <path class="cls-211" d="M560.63,25.01c-.59-.01-1.16.3-1.75.06,1.05-.13,2.11-.26,3.16-.38-.41.36-.94.2-1.41.32Z"/>
        <path class="cls-21" d="M555.29,25.48c-.44.1-.87.21-1.31.31-.27.01-.53.03-.8.04.66-.35,1.4-.25,2.1-.35Z"/>
        <path class="cls-86" d="M570.76,23.84c.12-.03.24-.05.29-.18,1.46-.17,2.93-.34,4.4-.5.1.05.12.11.04.2-.26.2-.58.24-.87.37-1.24.17-2.46.43-3.72.36-.04-.03-.08-.05-.12-.08,0-.06,0-.11-.01-.17Z"/>
        <path class="cls-38" d="M578.98,22.91c.55.25,1.08-.17,1.62-.06.08.3-.18.33-.35.43-.29.03-.58.09-.88.08-.92.05-1.85.1-2.76.21-.17.04-.34.04-.47-.1-.04-.08-.06-.16-.04-.24.04-.09.11-.12.21-.08.89-.08,1.79-.17,2.68-.25Z"/>
        <path class="cls-196" d="M576.3,23.16s-.1.04-.15.06c-.2.16-.4.22-.62.04-.03-.04-.06-.07-.09-.1.29-.04.57-.19.86,0Z"/>
        <path class="cls-41" d="M580.33,23.21c.09-.12.18-.23.28-.35.32-.04.63-.09.95-.13.27,0,.56-.12.81.07,0,.12.02.24.03.35-.62.06-1.23.12-1.85.17-.08-.02-.17-.02-.22-.12Z"/>
        <path class="cls-136" d="M564.75,28.67c-1.37.18-2.74.35-4.11.53-2.27.25-4.53.51-6.8.74-.39.04-.78.18-1.17.01.23-.33.59-.29.92-.34.74-.13,1.51-.08,2.23-.36,1.23-.32,2.49-.26,3.75-.33,1.18-.07,2.34-.38,3.54-.32.08,0-.07-.19.05-.27.42-.21.89-.17,1.34-.21.47.27,1.06-.26,1.58.21-.44.32-.92.14-1.31.34Z"/>
        <path class="cls-70" d="M555.83,29.43c-1.02.43-2.12.29-3.17.52-.89.09-1.78.19-2.67.28,0-.05-.01-.1-.02-.15.61-.49,1.37-.3,2.05-.47.97-.11,1.93-.23,2.9-.33.31-.03.63-.12.9.14Z"/>
        <path class="cls-191" d="M544.31,31.1c.21-.04.42-.08.63-.12.71-.03,1.42-.06,2.13-.1-.91.11-1.83.22-2.74.34-.08-.02-.09-.06-.03-.12Z"/>
        <path class="cls-35" d="M546.92,30.47c.81-.07,1.61-.37,2.44-.16-.78.08-1.56.17-2.34.25-.03-.03-.06-.06-.1-.09Z"/>
        <path class="cls-166" d="M544.31,31.1s.01.08.03.12c-.43,0-.86.26-1.29.01.42-.04.84-.09,1.27-.13Z"/>
        <path class="cls-171" d="M579.23,26.53c.86-.4,1.81-.29,2.71-.45-.86.42-1.81.29-2.71.45Z"/>
        <path class="cls-171" d="M576.08,27.05c.77-.33,1.6-.35,2.41-.43-.76.37-1.6.33-2.41.43Z"/>
        <path class="cls-171" d="M572.17,27.53c.31-.03.63-.07.94-.1,0,.05,0,.09.01.14-.32.03-.64.06-.97.09-.06-.05-.06-.09.01-.13Z"/>
        <path class="cls-205" d="M572.17,27.53s0,.09-.01.13c-.99.13-1.98.26-2.98.38-.23.01-.45.02-.68.03-.64,0-1.27.02-1.88.24-.1.06-.21.12-.31.17-.52.06-1.05.12-1.57.18.29-.33.77-.09,1.1-.34-.44-.17-.89.21-1.31-.07.25-.23.6-.21.89-.24,1.65-.16,3.29-.58,4.97-.47.6.31,1.18-.07,1.77-.02Z"/>
        <path class="cls-197" d="M566.63,28.32c.59-.34,1.22-.37,1.88-.24-.63.08-1.25.16-1.88.24Z"/>
        <path class="cls-81" d="M570.4,27.56c-1.95.24-3.91.47-5.86.71-.47.06-.95.11-1.42.17-.83.38-1.74.28-2.61.44-.33.06-.68.08-1.01.12-2.63.21-5.26.44-7.87.75-.49.05-.97.13-1.46.15-.32-.11-.67.13-.98-.06-.02-.04-.04-.07-.05-.11,4.57-.82,9.18-1.32,13.8-1.7,1.49-.12,3-.35,4.52-.37.85-.01,1.75-.32,2.65-.38.22-.02.42,0,.62.1-.1.06-.2.12-.3.18Z"/>
        <path class="cls-190" d="M592.37,23.3c.4.19.7-.21,1.07-.19.13.05.26.1.39.15-.05.14-.17.18-.31.19-.12-.15-.23-.14-.32.04-.06.01-.12.02-.18.04-.55.17-1.13.2-1.66.41-.18.02-.35.06-.53.04-.76-.02-1.48.17-2.21.35-.97.15-1.93.32-2.91.42-.04,0-.09,0-.13.01-.09.01-.18,0-.26-.04-.07-.15-.14-.31-.22-.46.74-.08,1.47-.16,2.21-.24.67.21,1.23-.47,1.91-.23.78-.1,1.56-.19,2.34-.29.24-.16.56-.06.81-.19Z"/>
        <path class="cls-27" d="M583.7,23.31c.19-.07.37-.06.54.07-.06.08-.11.16-.17.25,1.13.76-.37.92-.32,1.43-.02-.66-.08-1.31-1.06-1.52.45-.16.81.12,1.01-.22Z"/>
        <path class="cls-183" d="M585.32,24.71c.05,0,.1,0,.16-.01.04.05.05.1.02.16-.18.02-.33.08-.47.22-.36.35-.46.08-.49-.26.26-.03.53-.07.79-.11Z"/>
        <path class="cls-96" d="M585.5,24.85c0-.05,0-.1-.02-.16h0c.97-.28,1.99-.27,2.98-.41.12-.02.19.07.18.19-.31.04-.61.08-.92.13-.38.34-.89.18-1.32.33-.08.04-.16.05-.24.01-.22-.03-.47.13-.66-.1Z"/>
        <path class="cls-146" d="M586.16,24.95s.1-.03.14-.04c.46-.15.94-.22,1.42-.16.13,0,.26,0,.34.12-.26.03-.52.07-.78.1-.38-.04-.76.22-1.13-.03Z"/>
        <path class="cls-183" d="M588.64,24.48c-1.07-.22-2.11.19-3.16.22.99-.45,2.09-.33,3.12-.55.75-.18,1.5-.27,2.27-.26.15,0,.3-.02.45-.03.08.04.09.09.03.16,0,0,0,0,0,0-.9.15-1.8.3-2.7.46Z"/>
        <path class="cls-36" d="M587.72,24.75c-.47.05-.95.1-1.42.16.42-.33.94-.21,1.42-.3,0,.05,0,.1,0,.15Z"/>
        <path class="cls-228" d="M591.35,24.02c0-.05-.02-.11-.03-.16.52-.34,1.13-.26,1.71-.35-.53.28-1.09.42-1.68.51Z"/>
        <path class="cls-116" d="M547.11,27.54c-.05,0-.11,0-.16.01-.6-.03-1.14.38-1.75.2.67-.43,1.44-.47,2.19-.57.11-.01.21-.03.32-.04,1.74-.25,3.47-.61,5.23-.76,1-.08,1.95-.48,2.97-.46.38.17.15.35,0,.53-.11.08-.22.16-.35.19-2.81.33-5.63.6-8.45.89Z"/>
        <path class="cls-220" d="M556.08,26.01c-2.79.34-5.56.91-8.37,1.12.56-.38,1.23-.21,1.84-.36.43-.11.91.04,1.29-.29.36-.05.72-.11,1.08-.16.96-.14,1.95-.04,2.87-.46.75-.08,1.5-.16,2.25-.24.1.04.17.1.2.21-.01.07-.05.12-.12.16-.1.04-.2.04-.31.03-.21-.04-.42,0-.63,0-.04,0-.07,0-.11,0Z"/>
        <path class="cls-221" d="M545.12,27.25c.09.33-.43.26-.38.57-.21.45-.56-.19-.79.16.15-.69.68-.68,1.17-.73Z"/>
        <path class="cls-194" d="M545.2,27.75c.61.13,1.12-.52,1.75-.2-.54.47-1.22.21-1.82.34,0-.05.03-.1.07-.14Z"/>
        <path class="cls-194" d="M547.11,27.54c.71-.41,1.53-.27,2.29-.38,2.08-.3,4.18-.43,6.27-.62.7-.44,1.52-.36,2.29-.48.54-.09,1.1-.13,1.64-.2,2.61-.3,5.23-.6,7.84-.91.15-.02.31-.04.46-.05,3.31-.31,6.6-.91,9.93-1,.41-.08.85-.02,1.25-.22.96-.23,1.94-.01,2.91-.11-.76.42-1.62.3-2.42.4-2.62.33-5.25.54-7.86,1.01-1.64.3-3.34.27-4.99.51-1.17.17-2.36.32-3.53.43-1.36.13-2.76.13-4.08.46-1.88.47-3.8.36-5.69.66-1.98.31-4.01.48-6.02.61-.09,0-.19-.07-.28-.11Z"/>
        <path class="cls-165" d="M580.33,23.21c.07.04.14.08.22.12-.92.11-1.85.22-2.77.34-.26.03-.54-.02-.74.22-.5.33-1.08.13-1.61.2-1.88.24-3.77.45-5.66.66-1.06.12-2.11.24-3.17.37-.09.01-.18.02-.28.03-.27.03-.53.07-.8.08-.51-.06-1.01-.01-1.49.17-.09.02-.17.04-.26.05-1.29.17-2.59.3-3.89.45-.88.07-1.74.39-2.65.2-.08-.06-.09-.14-.05-.23h-.01c1.32-.34,2.69-.4,4.03-.68.25-.05.53,0,.77.13.17-.03.36-.02.47-.19,1.09-.29,2.2-.36,3.32-.41,1.47-.18,2.94-.35,4.41-.54.21-.03.41-.11.61-.17,0,0,0,0,0,0,1.4,0,2.78-.22,4.15-.43.66-.1,1.31.18,1.94-.12.84.03,1.67-.19,2.51-.14.32-.03.63-.07.95-.1Z"/>
        <path class="cls-8" d="M569.72,24.61c2.44-.28,4.86-.66,7.32-.73.31-.02.63-.04.94-.07.08.03.09.08.03.14-3.38.39-6.76.78-10.14,1.17-.04-.31.21-.24.37-.27.49-.1,1.01-.05,1.48-.24Z"/>
        <path class="cls-217" d="M578,23.96s-.01-.09-.03-.14c.37-.05.74-.09,1.1-.14-.29.35-.72.18-1.08.28Z"/>
        <path class="cls-41" d="M582.39,23.14c.27-.03.55-.18.82.02-.27.01-.55.13-.82-.02Z"/>
        <path class="cls-35" d="M552.05,29.83c-.69.09-1.38.17-2.07.26,0-.05-.01-.09-.02-.14.05-.08.13-.12.22-.12.44-.05.88-.1,1.32-.15.19.03.45-.18.55.16Z"/>
        <path class="cls-167" d="M550.11,29.91c-.05.01-.1.03-.15.04-.41.03-.83.06-1.24.09,0-.03,0-.06-.01-.09.16-.04.31-.08.47-.11.31-.02.62-.04.93-.06.08.04.08.08.01.14Z"/>
        <path class="cls-199" d="M548.7,29.95v.05s.01.04.01.04c-.27.05-.55.15-.85.06.28-.17.56-.13.84-.15Z"/>
        <path class="cls-223" d="M589.22,23.78c-.65-.05-1.22.55-1.91.23.65.03,1.22-.59,1.91-.23Z"/>
        <path class="cls-178" d="M592.37,23.3c-.23.23-.53.16-.81.19.02-.04.04-.09.06-.13.25-.02.49-.05.74-.07Z"/>
        <path class="cls-23" d="M561.97,25.32c-1.62,0-3.18.52-4.8.55-.04-.08-.09-.17-.13-.25,1.22-.02,2.41-.28,3.6-.45.43.13.94-.39,1.32.15Z"/>
        <path class="cls-23" d="M565.76,24.71c-1.11.14-2.21.28-3.32.41,1.07-.46,2.19-.48,3.32-.41Z"/>
        <path class="cls-176" d="M576.83,23.58c-2.02.19-4.03.38-6.06.42,1.33-.16,2.66-.32,4-.48.45-.15.92-.24,1.4-.14.08.11.19.11.31.1.15-.07.31-.18.36.11Z"/>
        <path class="cls-120" d="M576.16,23.38c-.47.05-.93.09-1.4.14.19-.28.52-.15.77-.26.21-.01.41-.02.62-.04,0,.05,0,.1,0,.15Z"/>
        <path class="cls-86" d="M576.83,23.58c-.12-.04-.24-.07-.36-.11.95-.33,1.93-.19,2.9-.17-.84.16-1.69.25-2.55.27Z"/>
        <path class="cls-45" d="M552.05,29.83c-.15-.14-.33-.1-.5-.08-.07-.04-.08-.08-.02-.13,2.65-.25,5.29-.51,7.94-.76.1.06.26.08.18.27-1.27.1-2.55.07-3.81.32-1.26.13-2.52.27-3.79.4Z"/>
        <path class="cls-3" d="M559.65,29.12c-.06-.09-.12-.18-.18-.27,1.22-.14,2.43-.28,3.65-.42.16.06.32.11.61.21l-4.08.47Z"/>
        <path class="cls-126" d="M551.52,29.61s.01.09.02.13c-.48.05-.95.11-1.43.16,0-.05,0-.09-.02-.14.48-.05.95-.1,1.43-.16Z"/>
        <path class="cls-223" d="M590.87,23.89c-.76.09-1.51.17-2.27.26.73-.31,1.49-.38,2.27-.26Z"/>
        <path class="cls-33" d="M557.22,26.05c.86.03,1.69-.17,2.54-.27.09.16-.05.22-.13.31-1.32.15-2.64.3-3.96.46.05-.06.09-.11.14-.17.43-.3.92-.31,1.41-.32Z"/>
        <path class="cls-188" d="M557.22,26.05c-.41.35-.94.2-1.41.32.09-.12.18-.24.27-.36,0,0,0,0,0,0,.25-.14.52-.17.8-.1.1-.01.2-.02.3-.04.01.06.02.12.03.18Z"/>
        <path class="cls-218" d="M555.31,26.4l-.73.08c.3-.23.51-.2.73-.08Z"/>
        <path class="cls-23" d="M556.89,25.91c-.27.03-.53.07-.8.1.24-.21.51-.27.8-.1Z"/>
        <path class="cls-42" d="M559.63,26.08c.04-.1.08-.2.13-.31,1.38-.16,2.75-.33,4.13-.49.77-.19,1.58-.04,2.34-.26.07,0,.14-.02.2-.02.35.19.8-.3,1.12.15-2.64.31-5.28.62-7.92.92Z"/>
        <path class="cls-37" d="M567.55,25.16c-.34-.3-.78.13-1.12-.15,1.1-.13,2.19-.26,3.29-.39-.54.46-1.32.04-1.85.51-.11.01-.21.02-.32.03Z"/>
        <path class="cls-37" d="M566.22,25.03c-.76.32-1.54.4-2.34.26.05-.02.1-.03.15-.05.46-.15.93-.19,1.41-.17.26-.01.52-.03.78-.04Z"/>
        <path class="cls-188" d="M565.44,25.06c-.47.06-.94.11-1.41.17.45-.27.92-.32,1.41-.17Z"/>
      </g>
      <path class="cls-80" d="M550.57.73l-.16.02,1.77.73-.12-.1.64,1.1-.02.79-.64,1.1.14-.12-1.1.64.28-.04h-1.33c.36.09,1.29,1.22,1.67,1.62.68.71,1.34,1.46,1.91,2.25,1.17,1.62,2.2,3.38,2.96,5.22,1.58,3.82,2.15,7.93,1.75,12.04-.13,1.35,1.24,2.5,2.5,2.5,1.46,0,2.37-1.15,2.5-2.5.61-6.16-.92-12.53-4.1-17.83-1.57-2.62-3.58-5.13-5.96-7.07-1.52-1.24-3.97-1.77-5.16.26-1.04,1.77.17,4.63,2.46,4.38,1.34-.14,2.5-1.05,2.5-2.5,0-1.24-1.15-2.64-2.5-2.5h0Z"/>
      <path class="cls-80" d="M558.67,31.53c-4.5,6.7-11.98,10.07-19.57,11.95-9.08,2.26-18.61,2.77-27.92,3.37-21.2,1.37-42.48,1.15-63.69-.11-43.03-2.55-85.64-9.35-128.2-15.91-41.8-6.44-83.88-13.17-126.23-14.38-38.88-1.11-78.67,3.06-114.46,19.15-29.76,13.39-56.77,34.95-72.84,63.72-2.04,3.65-3.87,7.4-5.53,11.23-1.27,2.92,3.04,5.47,4.32,2.52,13.35-30.8,38.98-54.26,68.56-69.32,34.83-17.73,74.41-22.93,113.09-22.45,42.56.53,84.92,7.15,126.9,13.6s84.63,13.4,127.37,16.38c21.19,1.48,42.46,1.98,63.68.96,9.69-.47,19.47-1.05,29.07-2.52,7.61-1.17,15.49-3.2,21.89-7.65,3.13-2.18,5.74-4.85,7.87-8.01,1.8-2.68-2.53-5.18-4.32-2.52h0Z"/>
      <path class="cls-80" d="M21.15,77.05c-8.88,18.75-11.25,40.23-6.86,60.5,1.25,5.77,3.1,11.36,5.42,16.79.53,1.24,2.36,1.52,3.42.9,1.28-.75,1.43-2.17.9-3.42-7.59-17.79-8.9-38.17-4.09-56.86,1.36-5.29,3.2-10.45,5.53-15.38.58-1.22.34-2.7-.9-3.42-1.09-.64-2.84-.33-3.42.9h0Z"/>
    </g>
  </g>
</svg>