<?xml version="1.0" encoding="UTF-8"?>
<svg id="Layer_2" xmlns="http://www.w3.org/2000/svg" viewBox="0 0 261.3 237.16">
  <defs>
    <style>
      .cls-1 {
        fill: #a7a39a;
      }

      .cls-2 {
        fill: #928e8b;
      }

      .cls-3 {
        fill: #4a403e;
      }

      .cls-4 {
        fill: #e2dfda;
      }

      .cls-5 {
        fill: #8f8989;
      }

      .cls-6 {
        fill: #aca697;
      }

      .cls-7 {
        fill: #8f8677;
      }

      .cls-8 {
        fill: #f9f2f0;
      }

      .cls-9 {
        fill: #e2dfd8;
      }

      .cls-10 {
        fill: #897b6b;
      }

      .cls-11 {
        fill: #c7c7c6;
      }

      .cls-12 {
        fill: #968d83;
      }

      .cls-13 {
        fill: #635e5b;
      }

      .cls-14 {
        fill: #5e5146;
      }

      .cls-15 {
        fill: #817972;
      }

      .cls-16 {
        fill: #615346;
      }

      .cls-17 {
        fill: #786353;
      }

      .cls-18 {
        fill: #e6e4d4;
      }

      .cls-19 {
        fill: #bcbcbb;
      }

      .cls-20 {
        fill: #b0a69c;
      }

      .cls-21 {
        fill: #c2c1c1;
      }

      .cls-22 {
        fill: #eaeaea;
      }

      .cls-23 {
        fill: #7d7a6f;
      }

      .cls-24 {
        fill: #a2a298;
      }

      .cls-25 {
        fill: #4f4842;
      }

      .cls-26 {
        fill: #4a3c3c;
      }

      .cls-27 {
        fill: #593f32;
      }

      .cls-28 {
        fill: #33312e;
      }

      .cls-29 {
        fill: #5d574c;
      }

      .cls-30 {
        fill: #e7e6de;
      }

      .cls-31 {
        fill: #5e4f40;
      }

      .cls-32 {
        fill: #8b7d79;
      }

      .cls-33 {
        fill: #7b7267;
      }

      .cls-34 {
        fill: #f7f5f4;
      }

      .cls-35 {
        fill: #ebe7e2;
      }

      .cls-36 {
        fill: #605149;
      }

      .cls-37 {
        fill: #4a3f3e;
      }

      .cls-38 {
        fill: #b6ad9d;
      }

      .cls-39 {
        fill: #54493d;
      }

      .cls-40 {
        fill: #c2c3bf;
      }

      .cls-41 {
        fill: #928b80;
      }

      .cls-42 {
        fill: #a7999e;
      }

      .cls-43 {
        fill: #7c716b;
      }

      .cls-44 {
        fill: #6b6350;
      }

      .cls-45 {
        fill: #d6d3ce;
      }

      .cls-46 {
        fill: #eff0ef;
      }

      .cls-47 {
        fill: #493e3d;
      }

      .cls-48 {
        fill: #948b80;
      }

      .cls-49 {
        fill: #221c19;
      }

      .cls-50 {
        fill: #443c2e;
      }

      .cls-51 {
        fill: #928e84;
      }

      .cls-52 {
        fill: #51493b;
      }

      .cls-53 {
        fill: #594843;
      }

      .cls-54 {
        fill: #463e39;
      }

      .cls-55 {
        fill: #4d433c;
      }

      .cls-56 {
        fill: #c1bdbb;
      }

      .cls-57 {
        fill: #77655b;
      }

      .cls-58 {
        fill: #4a403c;
      }

      .cls-59 {
        fill: #f5f2ed;
      }

      .cls-60 {
        fill: #9d9e96;
      }

      .cls-61 {
        fill: #dad8d1;
      }

      .cls-62 {
        fill: #999996;
      }

      .cls-63 {
        fill: #6f6261;
      }

      .cls-64 {
        fill: #fbb040;
      }

      .cls-65 {
        fill: #775e4f;
      }

      .cls-66 {
        fill: #675f52;
      }

      .cls-67 {
        fill: #665d4e;
      }

      .cls-68 {
        fill: #85827e;
      }

      .cls-69 {
        fill: #42332a;
      }

      .cls-70 {
        fill: #afa9a4;
      }

      .cls-71 {
        fill: #7e7469;
      }

      .cls-72 {
        fill: #6e665d;
      }

      .cls-73 {
        fill: #8d8471;
      }

      .cls-74 {
        fill: #a09588;
      }

      .cls-75 {
        fill: #95898f;
      }

      .cls-76 {
        fill: #f5f0e6;
      }

      .cls-77 {
        fill: #90888a;
      }

      .cls-78 {
        fill: #d0cfca;
      }

      .cls-79 {
        fill: #8f8d88;
      }

      .cls-80 {
        fill: #938984;
      }

      .cls-81 {
        fill: #cfbda7;
      }

      .cls-82 {
        fill: #c3c3bf;
      }

      .cls-83 {
        fill: #cac9c2;
      }

      .cls-84 {
        fill: #d5d4d4;
      }

      .cls-85 {
        fill: #524a35;
      }

      .cls-86 {
        fill: #babbb6;
      }

      .cls-87 {
        fill: #807962;
      }

      .cls-88 {
        fill: #88786b;
      }

      .cls-89 {
        fill: #726759;
      }

      .cls-90 {
        fill: #483a36;
      }

      .cls-91 {
        fill: #463d34;
      }

      .cls-92 {
        fill: #776d5f;
      }

      .cls-93 {
        fill: #988975;
      }

      .cls-94 {
        fill: #574742;
      }

      .cls-95 {
        fill: #fcf9f6;
      }

      .cls-96 {
        fill: #aaaaa5;
      }

      .cls-97 {
        fill: #c3bcb0;
      }

      .cls-98 {
        fill: #a7938c;
      }

      .cls-99 {
        fill: #9e8785;
      }

      .cls-100 {
        fill: #675d4e;
      }

      .cls-101 {
        fill: #9f8e75;
      }

      .cls-102 {
        fill: #615647;
      }

      .cls-103 {
        fill: #969288;
      }

      .cls-104 {
        fill: #dfd6d1;
      }

      .cls-105 {
        fill: #6e6862;
      }

      .cls-106 {
        fill: #7d796e;
      }

      .cls-107 {
        fill: #78715f;
      }

      .cls-108 {
        fill: #665c54;
      }

      .cls-109 {
        fill: #525251;
      }

      .cls-110 {
        fill: #a5a69e;
      }

      .cls-111 {
        fill: #786d5b;
      }

      .cls-112 {
        fill: #8b8479;
      }

      .cls-113 {
        fill: #e2e3e2;
      }

      .cls-114 {
        fill: #ede6e0;
      }

      .cls-115 {
        fill: #907a6a;
      }

      .cls-116 {
        fill: #bdb3a5;
      }

      .cls-117 {
        fill: #9a8d7e;
      }

      .cls-118 {
        fill: #7e604f;
      }

      .cls-119 {
        fill: #4c433c;
      }

      .cls-120 {
        fill: #504847;
      }

      .cls-121 {
        fill: #aeaeab;
      }

      .cls-122 {
        fill: #bfbdba;
      }

      .cls-123 {
        fill: #302621;
      }

      .cls-124 {
        fill: #eeecd5;
      }

      .cls-125 {
        fill: #ede3e1;
      }

      .cls-126 {
        fill: #aca69a;
      }

      .cls-127 {
        fill: #574e49;
      }

      .cls-128 {
        fill: #47403d;
      }

      .cls-129 {
        fill: #645d55;
      }

      .cls-130 {
        fill: #544c3a;
      }

      .cls-131 {
        fill: #b3b1ac;
      }

      .cls-132 {
        fill: #50443e;
      }

      .cls-133 {
        fill: #8b8887;
      }

      .cls-134 {
        fill: #b7b6b3;
      }

      .cls-135 {
        fill: #837d6e;
      }

      .cls-136 {
        fill: #4f463d;
      }

      .cls-137 {
        fill: #4d443c;
      }

      .cls-138 {
        fill: #f9f0f1;
      }

      .cls-139 {
        fill: #7c7665;
      }

      .cls-140 {
        fill: #7a7265;
      }

      .cls-141 {
        fill: #f4f2ee;
      }

      .cls-142 {
        fill: #4e443f;
      }

      .cls-143 {
        fill: #f8f7f6;
      }

      .cls-144 {
        fill: #5f523e;
      }

      .cls-145 {
        fill: #a69a90;
      }

      .cls-146 {
        fill: #5e5955;
      }

      .cls-147 {
        fill: #878275;
      }

      .cls-148 {
        fill: #534446;
      }

      .cls-149 {
        fill: #b3b4ac;
      }

      .cls-150 {
        fill: #a29b8c;
      }

      .cls-151 {
        fill: #e6d7b8;
      }

      .cls-152 {
        fill: #fafaf9;
      }

      .cls-153 {
        fill: #605347;
      }

      .cls-154 {
        fill: #70665d;
      }

      .cls-155 {
        fill: #b9b6af;
      }

      .cls-156 {
        fill: #c5c4bd;
      }

      .cls-157 {
        fill: #797166;
      }

      .cls-158 {
        fill: #4e463d;
      }

      .cls-159 {
        fill: #80776c;
      }

      .cls-160 {
        fill: #a79e92;
      }

      .cls-161 {
        fill: #f7f7f7;
      }

      .cls-162 {
        fill: #81776e;
      }

      .cls-163 {
        fill: #f2efe9;
      }

      .cls-164 {
        fill: #d3d1cb;
      }

      .cls-165 {
        fill: #b3ab9b;
      }

      .cls-166 {
        fill: #9e9288;
      }

      .cls-167 {
        fill: #c1bcb4;
      }

      .cls-168 {
        fill: #948f84;
      }

      .cls-169 {
        fill: #785c52;
      }

      .cls-170 {
        fill: #54483d;
      }

      .cls-171 {
        fill: #cfc9c6;
      }

      .cls-172 {
        fill: #5e4d4a;
      }

      .cls-173 {
        fill: #d5cfc7;
      }

      .cls-174 {
        fill: #cececd;
      }

      .cls-175 {
        fill: #715f4e;
      }

      .cls-176 {
        fill: #b9b8b7;
      }

      .cls-177 {
        fill: #e4e3dc;
      }

      .cls-178 {
        fill: #bdaa97;
      }

      .cls-179 {
        fill: #483b3b;
      }

      .cls-180 {
        fill: #49443f;
      }

      .cls-181 {
        fill: #6e6653;
      }

      .cls-182 {
        fill: #9d8c80;
      }

      .cls-183 {
        fill: #3c3432;
      }

      .cls-184 {
        fill: #ada395;
      }

      .cls-185 {
        fill: #7c7469;
      }

      .cls-186 {
        fill: #999085;
      }

      .cls-187 {
        fill: #5d4f42;
      }

      .cls-188 {
        fill: #ada9a1;
      }

      .cls-189 {
        fill: #eaeae5;
      }

      .cls-190 {
        fill: #726b53;
      }

      .cls-191 {
        fill: #9a9793;
      }

      .cls-192 {
        fill: #675c5a;
      }

      .cls-193 {
        fill: #5f554a;
      }

      .cls-194 {
        fill: #483b34;
      }

      .cls-195 {
        fill: #e7e0e1;
      }

      .cls-196 {
        fill: #3c302d;
      }

      .cls-197 {
        fill: #62524c;
      }

      .cls-198 {
        fill: #e8e5dd;
      }

      .cls-199 {
        fill: #89837d;
      }

      .cls-200 {
        fill: #837573;
      }

      .cls-201 {
        fill: #a3a29b;
      }

      .cls-202 {
        fill: #6d6457;
      }

      .cls-203 {
        fill: #817775;
      }

      .cls-204 {
        fill: #8d7d6e;
      }

      .cls-205 {
        fill: #766c6b;
      }

      .cls-206 {
        fill: #6c5d56;
      }

      .cls-207 {
        fill: #493930;
      }

      .cls-208 {
        fill: #90887d;
      }

      .cls-209 {
        fill: #988c85;
      }

      .cls-210 {
        fill: #a19e99;
      }

      .cls-211 {
        fill: #e4d7db;
      }

      .cls-212 {
        fill: #e0d7d2;
      }

      .cls-213 {
        fill: #6e5146;
      }

      .cls-214 {
        fill: #999691;
      }

      .cls-215 {
        fill: #b2b1af;
      }

      .cls-216 {
        fill: #8f897e;
      }

      .cls-217 {
        fill: #9e9492;
      }

      .cls-218 {
        fill: #79726c;
      }

      .cls-219 {
        fill: #c9c2c1;
      }

      .cls-220 {
        fill: #645f55;
      }

      .cls-221 {
        fill: #bbb9b5;
      }

      .cls-222 {
        fill: #adaba3;
      }

      .cls-223 {
        fill: #c7c6c6;
      }

      .cls-224 {
        fill: #968d82;
      }

      .cls-225 {
        fill: #473e39;
      }

      .cls-226 {
        fill: #afaca6;
      }

      .cls-227 {
        fill: #b3ada4;
      }

      .cls-228 {
        fill: #c8c8c8;
      }

      .cls-229 {
        fill: #f3f2ee;
      }

      .cls-230 {
        fill: #c4c3c3;
      }

      .cls-231 {
        fill: #3b302d;
      }

      .cls-232 {
        fill: #5e5851;
      }
    </style>
  </defs>
  <g id="Layer_14">
    <g>
      <g>
        <path class="cls-46" d="M57.38,15.38c.21.33.42,1.22.36,1.53-.56,2.26-.38,4.61-.85,6.89-.14,1.74-.43,3.45-.66,5.17-.19.9-.31,1.81-.37,2.73-.25,1.41-.64,2.79-.8,4.21-.04.89-.24,1.75-.44,2.6-.79,1.27-.74,2.79-1.22,4.16-.13.37-.17,1.01-.71.85-.52-.15-.26-.72-.2-1.12.13-.89.45-1.75.43-2.66.05-.79.03-1.58.38-2.33.24-.49.08-1.05.18-1.57.21-1.07.41-2.14.67-3.19.74-3.1,1.03-6.28,1.74-9.38.05-.24.05-.47.03-.71.14-1.55.68-3.04.73-4.61.1-.52.27-1.04.27-1.58,0-.13.02-.25.06-.38.1-.23.19-.45.4-.61Z"/>
        <path class="cls-41" d="M37.8,100.71c.1-.47.19-.94.29-1.41.07-.45.17-.88.26-1.33,1.6-7.83,3.19-15.66,4.79-23.49.31-1.46.56-2.92.82-4.39.09.06.17.06.26-.01.27-.3.28-.68.36-1.04.86-4.18,1.7-8.35,2.56-12.53.11-.66.29-1.3.36-1.97-.03-.34-.03-.68.16-.98.1-.24.17-.48.07-.74-.3-.28-.28.17-.44.2-1.44,6.62-2.9,13.23-4.32,19.85-.78,3.64-1.47,7.29-2.17,10.94-1.08,5.61-2.22,11.21-3.34,16.81.12.03.24.05.37.08ZM45.99,59.79c.16-.78.31-1.55.48-2.32-.16.78-.32,1.56-.48,2.34-.26,1.29-.53,2.59-.79,3.88-.22,1.17-.48,2.33-.72,3.49.21-1.17.44-2.33.71-3.49.27-1.3.53-2.6.79-3.9Z"/>
        <path class="cls-126" d="M53.11,26.87c.47-2.17,1.25-4.25,1.85-6.37.35-1.24.78-2.46,1.16-3.69.1-.31.19-.6.47-.8.27.5-.07.94-.21,1.35-.29.83-.46,1.68-.65,2.53-.09.37-.14.75-.28,1.11-.4.76-.32,1.65-.65,2.43-.32.56-.33,1.21-.48,1.81-.07.52-.19,1.03-.32,1.53-.08.35-.14.7-.22,1.05-.04.18-.09.36-.18.53-.43,1.03-.41,2.16-.8,3.2-.5,1.35-.61,2.78-.95,4.16-.14.58-.2,1.17-.41,1.74-.49,1.26-.58,2.6-.9,3.9-.46,2.06-.78,4.16-1.32,6.2-.07.14-.17.24-.32.3-.1.02-.19,0-.26-.06-.14-.32.03-.62.06-.93.05-.25.1-.5.15-.75.03-.16.06-.32.1-.48.06-.42.25-.82.26-1.25.02-.12.05-.23.09-.35.12-.27.08-.59.23-.85.4-1.74.72-3.5,1.09-5.25.31-1.37.51-2.76.88-4.11.33-.6.35-1.28.51-1.92.32-1.85.85-3.64,1.42-5.4-.14.07.04.49-.34.4Z"/>
        <path class="cls-219" d="M42.35,101.95c.55-2.69,1.1-5.38,1.64-8.07.05-.23.15-.46,0-.7-.45.32-.36.84-.51,1.28-.5,2.46-1,4.91-1.5,7.37.12.04.24.08.36.12Z"/>
        <path class="cls-219" d="M38.08,120.98c-.73,3.59-1.46,7.18-2.2,10.78-.09.44-.13.9-.35,1.3-.08.2-.13.4-.13.61.04.38-.07.74-.14,1.1-.44,2.18-.9,4.36-1.32,6.54-.06.32-.31.73.17.98.01-.05.03-.1.04-.15,1.43-7.02,2.86-14.04,4.29-21.06-.12-.03-.24-.07-.37-.1Z"/>
        <path class="cls-147" d="M34.03,119.94c-.14-.03-.28-.07-.42-.11-.62,3.04-1.24,6.08-1.82,9.13-.94,4.84-2.3,9.6-2.96,14.5-.08.11-.12.23-.08.36.28.12.4-.1.53-.27.07-.13.11-.26.12-.41,0-.1,0-.2,0-.29.04-.42.14-.84.23-1.25,1.47-7.22,2.94-14.44,4.41-21.66Z"/>
        <path class="cls-164" d="M32.78,152.12c.14.88-.25,1.69-.36,2.54-.53,1.7-.67,3.47-.98,5.2-.24,1.59-.54,3.16-.88,4.73-.06.29-.11.57-.19.86-.26,1.02-.32,2.08-.56,3.11-.07.31-.09.63-.3.89-.06.07-.14.1-.23.08-.43-.78.2-1.4.3-2.11-.06.17-.04.37-.21.49-.1,0-.17-.06-.21-.15-.12-.59.14-1.13.21-1.7.21-.93.34-1.89.61-2.81.53-1.03.55-2.2.76-3.3.28-1.44.69-2.84.95-4.16-.28.58-.13,1.4-.6,2.04-.28-.11-.24-.35-.23-.58.18-.89.31-1.78.57-2.65.11-.32.69-.34.53-.83.01-.27.03-.53.23-.73.23-.09.19-.33.29-.52.03-.09-.18.04-.08.01.02.21.04.42-.27.44-.22-.36-.13-.68.13-.97.2-.09.37-.04.51.12Z"/>
        <path class="cls-230" d="M52.47,50.8c.17.32,0,.63-.06.93-1.13,5.61-2.27,11.22-3.42,16.83-.54,2.64-1.08,5.28-1.63,7.92-.1.02-.17-.01-.22-.11-.09-.37,0-.74-.04-1.11.44-2.52,1.01-5.01,1.5-7.52.07-.36.18-.72.15-1.09,0-.28.06-.54.23-.77.38-.36.28-.94.57-1.34.03-.04.04-.09.05-.15-.1.01-.04.2-.18.17-.32-.23-.18-.52-.1-.8.12-.22.21-.45.31-.68.22-.41.29-.86.24-1.32.02-.45.11-.89.27-1.31.34-.8.48-1.65.53-2.51,0-.15.04-.29.1-.42.52-1.89.8-3.83,1.24-5.74.08-.35.07-.75.43-.98Z"/>
        <path class="cls-33" d="M20.05,182.56c.72-4.41,1.56-8.79,2.53-13.16.21-.2.19-.49.24-.74.55-2.67,1.09-5.34,1.64-8,.06-.27-.02-.6.3-.77.33.24.18.56.14.86-.04.28-.09.56-.05.85-.16,1.51-.64,2.95-1,4.42-.28,1.11-.47,2.24-.69,3.36-.23,1.09-.45,2.17-.66,3.26-.28,1.34-.55,2.68-.82,4.02-.14.68-.28,1.35-.42,2.03-.08.37-.16.75-.23,1.12-.13.77-.39,1.52-.39,2.31,0,.28-.03.55-.21.77-.41.22-.22-.25-.37-.33Z"/>
        <path class="cls-43" d="M53.81,26.68c.1-.47.2-.93.3-1.4.3-.59.21-1.28.51-1.87.23-.82.22-1.71.66-2.47.15.19-.03.39,0,.59,0,.1.09,0,.09,0-.15-.56.25-1.08.16-1.64.17-1.35.68-2.6,1.08-3.88.07-.09.13-.18.2-.27.03.03.06.07.1.1.19,1.21-.33,2.29-.6,3.41-.39.92-.45,1.92-.68,2.88-.05.32-.13.64-.21.95-.62,1.8-1,3.67-1.51,5.5-.08.27.06.52.15.77.03.08.04.16.04.24-.03.16-.12.29-.23.4-.46.35-.27.82-.23,1.25-.01.11-.05.21-.14.29-.35.14-.39.46-.48.76-.11.38-.19.77-.59.98-.1,0-.15-.06-.17-.15.05-.27.07-.54.2-.79.51-1.33.57-2.77,1.03-4.12.03-.15.06-.3.1-.45.21-.34.27-.71.23-1.1Z"/>
        <path class="cls-134" d="M28.91,174.28c-1,5.87-2.19,11.71-3.72,17.47-.35-.12-.27-.41-.24-.65.05-.39.15-.78.21-1.17.23-1.19.47-2.38.73-3.57.43-2.6,1.19-5.13,1.74-7.7.11-.53.22-1.06.33-1.59.03-.14.06-.29.09-.43.13-.59.22-1.19.38-1.77.07-.26.07-.61.49-.58Z"/>
        <path class="cls-21" d="M52.47,50.8c-.42,2.03-.83,4.05-1.25,6.08-.06.27-.02.6-.31.79-.19-.24-.13-.5-.08-.76.94-4.83,1.66-9.71,2.76-14.51.02-.08.04-.15.06-.23.14-.58.23-1.17.38-1.74.07-.25.07-.6.49-.57-.46,3.69-1.35,7.31-2.06,10.95Z"/>
        <path class="cls-216" d="M53.11,26.87c.37-.18.16-.64.47-.91-.25,2.05-1.04,3.94-1.34,5.93-.33.57-.21,1.28-.53,1.85-.29,1.4-.58,2.8-.88,4.21-.42,1.26-.55,2.58-.86,3.86-.11.43-.1.9-.33,1.3-.4-.16-.15-.46-.11-.67.28-1.46.58-2.91.88-4.37.29-1.43.58-2.87.88-4.31.28-.64.32-1.33.48-2,.38-1.54.8-3.08,1.25-4.6l.07-.3Z"/>
        <path class="cls-221" d="M28.91,174.28c-.5.75-.41,1.66-.67,2.47-.1.03-.17,0-.22-.09-.05-.13-.06-.26-.05-.4.06-.4.15-.8.22-1.2.05-.33.12-.66.2-.98.37-2.32,1.08-4.56,1.55-6.85.12-.59.24-1.19.28-1.79.05-.26.11-.52.16-.78.36-.91.42-1.9.66-2.84.08-.3.04-.64.27-.89.01.15.07.32.04.46-.92,4.28-1.46,8.63-2.45,12.9Z"/>
        <path class="cls-168" d="M50.5,38.04c-.28,1.4-.57,2.8-.84,4.21-.05.27-.22.56-.02.84.03.04.04.08.03.12-.01.04-.02.06-.03.06-.28.2-.12.51-.18.76-.02.1-.05.21-.07.31-.11.41-.32.8-.26,1.24-.03.16-.07.32-.1.48-.17.23-.22.49-.16.77-.06.32-.12.63-.17.95.06.12.07.25.03.38-.2.45-.25.92-.21,1.4-.11.86-.32,1.71-.49,2.56-.05.26-.1.52-.37.66-.12.08-.25.17-.37.25,1.02-5,2.05-10,3.07-15,.06-.06.11-.05.15.02Z"/>
        <path class="cls-48" d="M24.83,159.93c-.26.2-.23.52-.29.8-.55,2.64-1.1,5.28-1.65,7.91-.06.27-.01.6-.32.77.58-3.21,1.34-6.39,2.03-9.58.34-1.58.71-3.16,1.06-4.74.36-1.63.73-3.25,1.3-4.82.14.16.14.35.11.54-.13.67-.23,1.35-.44,2.01-.16.3-.29.6-.24.95,0,.17-.04.34-.11.5-.18.32-.2.69-.28,1.04-.25,1.24-.5,2.48-.76,3.72-.07.33-.08.69-.41.9Z"/>
        <path class="cls-176" d="M25.38,189.99c-.02.59-.41,1.14-.19,1.76-.38,1.46-.76,2.92-1.35,4.31-.19-.04.1-.36-.27-.37-.37,0-.31-.38-.25-.66.05-.21,0-.42,0-.63.11-.86.31-1.7.49-2.54.06-.27.09-.59.46-.65.3.34.09.71.06,1.07-.06.34-.17.68-.18,1.02.14-.73.48-1.39.6-2.11.18-.41-.03-1.03.62-1.19Z"/>
        <path class="cls-86" d="M47.24,76.45h.07s.07.03.07.03c-.82,4.07-1.63,8.15-2.47,12.22-.11.51-.03,1.06-.32,1.54-.12.03-.2-.02-.24-.14-.09-.32,0-.63.07-.94.79-3.9,1.59-7.81,2.39-11.71.07-.35.07-.75.43-.99Z"/>
        <path class="cls-224" d="M18.28,195.23c0-.86.06-1.71.22-2.56.27-.03.17-.27.24-.41.09-.17.13-.42.42-.25.14.31,0,.64.05.95,0,.12,0,.25-.01.37-.05.33-.13.66-.08,1-.13.64-.02,1.32-.24,1.96-.22.24-.12.75-.64.73h0c-.04-.6.07-1.19.03-1.79Z"/>
        <path class="cls-215" d="M23.52,195.15c-.11.16-.19.46.03.43.64-.1.21.31.28.48-.15.46-.1.97-.45,1.37-.29.05-.19.29-.21.46-.09.2-.1.44-.32.56-.11-.12-.29-.16-.36-.32-.06-.24,0-.49-.02-.73,0-.11.02-.21.06-.31.13-.25.19-.5.07-.78,0-.07,0-.14.03-.2.11-.13.23-.26.26-.44.07-.25.09-.53.29-.72.22-.11.27.06.34.2Z"/>
        <path class="cls-126" d="M50.5,38.04c-.05,0-.1,0-.15-.02.68-3.54,1.43-7.07,2.49-10.52.04-.12.13-.22.2-.33-.23,1.59-.91,3.07-1.11,4.66-.33.57-.22,1.27-.51,1.85-.31,1.45-.62,2.91-.92,4.36Z"/>
        <path class="cls-113" d="M56.83,23.73s-.08-.1-.07-.14c.48-1.97.32-4.01.68-5.99.05-.25.02-.54.3-.69.23.78-.21,1.48-.24,2.24-.04,1.28-.23,2.56-.36,3.83-.24.19-.07.56-.32.75Z"/>
        <path class="cls-214" d="M18.25,197.02c.34-.12.14-.61.49-.72.33.25.24.66.37.98.1.26.12.56.36.75.14.11.27.23.37.39.11.4.55.42.78.67.03.08,0,.14-.06.19-1.55-.22-2.34-1-2.31-2.26Z"/>
        <path class="cls-15" d="M20.05,182.56l.25.37c.24.32.09.66.04,1-.13.89-.46,1.75-.44,2.67-.15.98-.23,1.98-.67,2.9-.09.08-.18.08-.27.01-.02-.05,0-.09.03-.13-.03-.71.34-1.37.29-2.09.19-1.59.38-3.17.78-4.73Z"/>
        <path class="cls-223" d="M54.53,39.85c-.5.7-.38,1.56-.65,2.32-.33-.11-.21-.37-.19-.6.07-1.06.4-2.05.77-3.04.18-.88.36-1.76.54-2.65.03-.39-.1-.84.37-1.07-.26,1.68-.44,3.37-.85,5.03Z"/>
        <path class="cls-122" d="M35.58,133.65c.19.29.03.57-.03.84-.46,2.32-.94,4.64-1.41,6.96-.06.28-.22.56-.03.85-.09.47-.19.94-.28,1.4-.47-.2-.17-.64-.29-.94,0-.29.06-.57.11-.86.49-2.42.98-4.84,1.48-7.26.07-.35.07-.76.44-.99Z"/>
        <path class="cls-56" d="M32.78,152.12c-.16-.03-.31-.06-.47-.09-.4-.14-.23-.38-.1-.6.33.22.25-.02.26-.21,0-.39.15-.77.08-1.17,0-.27.05-.52.1-.78.14-1.11.17-2.24.57-3.31.09-.12.17-.24.35-.18-.19,1.74-.37,3.48-.71,5.21.1.33-.18.64-.06.98,0,.05-.01.1-.03.16Z"/>
        <path class="cls-208" d="M18.96,189.51c.06.01.12.02.18.03.24-.26.13-.63.31-.91.08-.04.16-.02.23.03.07.11.08.24.08.37-.03.29-.09.57-.2.84-.22.34-.23.76-.44,1.1-.03.05-.09.1-.07.17.05-.06.06-.13.13-.17.08,0,.15.04.2.11.07.16.06.33.02.49-.05.17-.12.33-.3.4-.26.17-.21.47-.28.71-.14.44-.21.01-.31-.02.01-1.07.23-2.12.45-3.16Z"/>
        <path class="cls-84" d="M56.83,23.73c.11-.25.02-.59.32-.75-.17,1.37-.34,2.75-.51,4.12.09.27-.05.52-.1.78-.23.33-.08.81-.45,1.08-.11-.14-.1-.3-.06-.46.41-1.56.49-3.19.8-4.77Z"/>
        <path class="cls-82" d="M31.38,159.81c-.12-1.11.31-2.14.5-3.2.12-.66.09-1.38.54-1.95-.35,1.72-.44,3.48-.89,5.19-.06.06-.11.05-.15-.03Z"/>
        <path class="cls-226" d="M20.56,199.28s.02-.08.03-.13c.34-.38.79-.57,1.28-.67.12-.04.24-.08.36-.12.11-.05.21-.12.34-.14.21-.06.33-.02.28.24-.57.8-1.38.96-2.29.83Z"/>
        <path class="cls-228" d="M56.09,28.95c.15-.35.02-.79.38-1.07.12.6-.29,1.15-.19,1.75-.08.42-.16.83-.24,1.25.08.27-.04.51-.1.75-.08.07-.15.07-.22,0,.09-.9.16-1.8.38-2.68Z"/>
        <path class="cls-11" d="M55.72,31.63l.15.03c.08.82-.38,1.57-.32,2.38-.06.26-.11.52-.17.78-.35.28-.23.72-.37,1.07-.15-.81.21-1.55.32-2.32.09-.65.26-1.3.39-1.94Z"/>
        <path class="cls-121" d="M31.38,159.81h.07s.07.03.07.03c-.07.36-.14.72-.21,1.08-.21,1.01-.41,2.02-.63,3.03-.05.25-.02.54-.3.7.33-1.61.66-3.23.98-4.84Z"/>
        <path class="cls-219" d="M33.57,145.78c-.06.04-.12.08-.18.13-.42-.18-.24-.52-.21-.81.05-.44.22-.87.16-1.32.03-.34.02-.69.36-.9.24.25-.11.59.13.84-.12.69-.02,1.4-.26,2.08Z"/>
        <path class="cls-131" d="M44.43,90.21c.05,0,.1.02.16.03-.2.99-.4,1.97-.59,2.96-.09.42-.19.83-.28,1.25-.12.03-.19-.02-.23-.13.16-1.4.24-2.83.95-4.1Z"/>
        <path class="cls-112" d="M27.56,148.12c.18-.89.31-1.8.7-2.64.27.41.04.81-.01,1.22-.06.44-.23.87-.17,1.32-.03.47-.06.95-.33,1.37-.07.08-.15.1-.25.07-.19-.19-.1-.41-.06-.63.06-.23.28-.44.12-.71Z"/>
        <path class="cls-112" d="M28.83,143.46c-.02.1-.03.2-.05.3.14.24.2.51.19.79-.09.54-.11,1.09-.4,1.58-.06.07-.14.1-.24.08-.24-.28.12-.58-.04-.87.12-.65.21-1.3.53-1.89Z"/>
        <path class="cls-46" d="M55.55,34.04c-.16-.83.25-1.58.32-2.38.06-.26.11-.52.17-.78.13,1.1-.36,2.1-.49,3.16Z"/>
        <path class="cls-185" d="M27.56,148.12c.21.21.06.44.03.67-.21.27-.12.59-.16.89-.05.4.08.92-.51,1.07.02-.16.03-.32.05-.48.2-.72.4-1.43.6-2.15Z"/>
        <path class="cls-106" d="M28.3,145.35c.21.27,0,.55,0,.82.24.48-.03.93-.07,1.4-.07.17.03.46-.29.48-.27-.61.13-1.15.18-1.73.02-.28.1-.56.15-.84,0-.05,0-.09.04-.13Z"/>
        <path class="cls-46" d="M56.28,29.64c-.19-.61.17-1.17.19-1.75.06-.26.11-.52.17-.78.15.89-.26,1.69-.36,2.54Z"/>
        <path class="cls-208" d="M19.27,187.29c.17.73-.18,1.39-.29,2.09-.07-.72.14-1.4.29-2.09Z"/>
        <path class="cls-214" d="M18.28,195.23c.18.6.12,1.2-.03,1.79-.2-.6-.12-1.2.03-1.79Z"/>
        <path class="cls-226" d="M23.17,197.88c-.28-.27-.1-.5.11-.65.13-.09.09.11.1.18-.04.17-.04.36-.21.46Z"/>
        <path class="cls-109" d="M57.38,15.38c0,.24.05.5-.25.62-.09-.08-.09-.23-.24-.25-.03-.02-.06-.03-.1-.03.09-.3.19-.56.58-.35Z"/>
        <path class="cls-164" d="M32.8,151.96c-.21-.34.02-.65.06-.98.17.34-.01.65-.06.98Z"/>
        <path class="cls-183" d="M55.03,29.11c.4-2.18.88-4.35,1.1-6.56-.4.24-.4.66-.48,1.04-.59,2.69-1.01,5.42-1.66,8.09-.4,1.65-.89,3.27-1.14,4.95-.05.33-.21.68.1.97.08-.05.11-.11.16-.17-.24.87-.5,1.74-.64,2.64-.04.24.03.54-.2.74-.2-.14-.38-.12-.53.09-.2.38-.25.81-.31,1.23-.27,1.64-.52,3.28-.85,4.91-1.87,9.19-3.75,18.39-5.62,27.58-.08.41-.25.82-.11,1.25.42-.03.45-.03.56-.46.13-.5.17-1.02.5-1.46-.21,1.18-.44,2.38-.66,3.59-.03-.09-.09-.17-.21-.2-.25-.05-.33.24-.36.44-.23,1.23-.69,2.44-.37,3.73.08.32.05.72-.3.92-.3.17-.34.42-.26.67.21.65.04,1.26-.09,1.88-1.12,5.45-2.22,10.9-3.33,16.35.2.06.4.11.6.16,1.17-5.75,2.35-11.51,3.52-17.26,1.54-7.55,3.06-15.1,4.63-22.65.05-.15.09-.3.09-.46.32-2.01.61-4.03,1.05-6.03,1.12-5.1,2.18-10.21,2.92-15.37.22-.25,0-.53.06-.81.65-3.27,1.27-6.55,1.87-9.83ZM46,72.22c.08-.66.3-1.3.41-1.83-.09.82-.2,1.66-.34,2.51-.25-.23-.09-.46-.06-.67ZM53.29,36.48c-.1.03.05-.1.06,0-.03.11-.06.22-.09.33.01-.1.03-.19.07-.28.02-.05,0-.07-.04-.06Z"/>
        <path class="cls-22" d="M48.88,61.16c.28-2.26.85-4.48,1.27-6.71.92-4.79,1.85-9.58,2.77-14.37.02-.13.03-.27.17-.34.17.71-.17,1.35-.26,2.03-.06.42-.16.83-.24,1.25-.03.16-.04.36.14.41.18.05.29-.12.31-.28.09-.78.55-1.45.53-2.3-.01-.82.4-1.62.9-2.31-.19.96-.38,1.91-.57,2.87-.05.25-.18.51-.01.76-1.14,5.14-1.95,10.34-2.98,15.49-.02.11-.04.21-.07.32-.06.85-.23,1.68-.51,2.49-.1.47-.19.94-.29,1.42.02.44-.06.85-.26,1.24-.07.21-.04.48-.29.61-.25-.38-.09-.78,0-1.16.53-2.63,1.07-5.26,1.6-7.89.06-.31.17-.61.13-.94-.48.16-.56.55-.63.99-.33,1.88-.81,3.73-1.15,5.62-.06.32-.02.79-.56.8Z"/>
        <path class="cls-196" d="M52.33,41.03c-.14-.08-.28-.17-.42-.25-.08-.1-.08-.2-.05-.32.12-.27.18-.55.16-.85,0-.12.03-.23.08-.34.19-.45.28-.93.23-1.42,0-.61.28-1.19.22-1.81,0-.4.08-.78.22-1.15.16-.29.26-.59.22-.93.22-.78.24-1.6.51-2.37.21-.64,0-1.38.5-1.94h0c.11-1.26.43-2.49.69-3.73.2-.95.34-1.91.5-2.86.06-.31.13-.62.19-.93.4-.95.36-2,.74-2.95.26-1.14.51-2.28.77-3.42.08-.04.17-.08.25-.13,0,.12,0,.25-.01.37-.02.08-.03.16-.05.24.06.56-.28,1.07-.19,1.62-.11,1.58-.45,3.13-.76,4.68-.52,2.48-1.07,4.95-1.45,7.46-.22,1.5-.84,2.93-1.16,4.42-.22,1.04-.61,2.07-.48,3.16.08.16.01.3-.03.45-.16.32-.23.65-.2,1.01-.03.23-.08.45-.13.68-.15.27-.22.57-.19.88-.03.15,0,.31-.16.42Z"/>
        <path class="cls-109" d="M56.89,17.87c-.19-.57.07-1.09.19-1.62.08.56-.07,1.09-.19,1.62Z"/>
        <path class="cls-106" d="M37.62,100.67c.16.04.33.07.49.11,1.25-6.13,2.5-12.25,3.75-18.38.1-.49.22-.98.27-1.49.02-1.16.29-2.27.64-3.36.1-.22.15-.45.14-.69-.08-.79.39-1.52.24-2.31-.04-.1-.12-.13-.22-.11-1.6,7.87-3.2,15.73-4.8,23.6.01.44-.07.85-.26,1.25,0,.18.04.38-.02.54-.1.28-.17.56-.24.84Z"/>
        <path class="cls-106" d="M34.19,119.98c-.13-.03-.25-.06-.38-.1-1.51,7.43-3.02,14.85-4.53,22.28-.06.3-.23.61-.06.93.36-.19.36-.56.43-.89.23-1.06.42-2.13.66-3.18.33-1.49.52-3.02.98-4.49.35-1.3.61-2.62.89-3.93.1-.58.28-1.15.28-1.74-.05-.46.1-.89.19-1.33.51-2.51,1.02-5.02,1.54-7.53Z"/>
        <path class="cls-6" d="M44.12,70.12c.94-4.59,1.88-9.17,2.83-13.76.48-1.92.85-3.86,1.25-5.79.06-.31.12-.62.19-.93.04-.16.09-.32.31-.23.21.36.05.73-.02,1.08-.77,3.78-1.53,7.56-2.31,11.34-.07.36-.17.72-.18,1.09,0,.1-.01.2-.04.3-.43,1.64-.81,3.29-.98,4.98-.06.45,0,.96-.47,1.25-.07.05-.16-.13-.15-.04.06.54-.11,1.05-.24,1.55-.06.22-.12.55-.5.34-.02-.43,0-.84.31-1.18Z"/>
        <path class="cls-139" d="M43.08,74.46s-.1-.02-.15-.03c.74-3.59,1.48-7.18,2.22-10.77.05-.07.1-.06.13.02-.43,2.13-.86,4.27-1.29,6.4-.11,1.25-.23,2.49-.54,3.71-.06.25-.11.52-.36.67Z"/>
        <path class="cls-227" d="M48.65,49.39c-.27.2-.24.52-.29.8-.37,1.79-.73,3.59-1.11,5.38-.06.27-.01.6-.3.79.13-.68.26-1.35.39-2.03-.05-.28,0-.54.15-.78.05-.26.1-.52.15-.78.24-1.15.47-2.3.71-3.45-.02-.43.06-.85.26-1.24.03-.1.05-.21.08-.31.05,0,.1.02.15.03.22.32.04.68.1,1.02-.02.23-.05.45-.29.56Z"/>
        <path class="cls-147" d="M43.08,74.46c.3-1.46.6-2.92.9-4.38.05.01.09.03.14.04-.08.42-.16.83-.23,1.25.11.17.11.35.09.54-.07.41-.16.82-.24,1.23-.03.14-.05.28-.08.43-.17.82-.33,1.64-.51,2.46-.07.3-.08.63-.4.81-.16-.83.26-1.58.33-2.38Z"/>
        <path class="cls-135" d="M45.27,63.68s-.09-.02-.13-.02c.27-1.3.53-2.6.8-3.91.05-.07.1-.06.13.02-.27,1.3-.53,2.61-.8,3.91Z"/>
        <path class="cls-147" d="M46.07,59.78s-.09-.02-.13-.02c.16-.77.31-1.54.47-2.31.04,0,.09.02.13.02l-.47,2.31Z"/>
        <path class="cls-147" d="M38.13,98.03c.13.46.04.88-.26,1.25.09-.42.17-.83.26-1.25Z"/>
        <path class="cls-168" d="M47.49,53.56c-.05.26-.1.52-.15.78-.17-.3-.11-.56.15-.78Z"/>
        <path class="cls-107" d="M48.65,49.39c.04-.21.09-.42.13-.63-.01-.38.07-.74.22-1.08.45-2.12.9-4.25,1.35-6.37.11-.05.17-.02.21.09.02.25-.13.46-.14.7-.43,2.12-.86,4.24-1.3,6.36.44-2.15.88-4.3,1.32-6.46.06-.17.03-.46.35-.26.07.15.1.31.07.46-.53,2.59-.93,5.2-1.62,7.76-.13.23-.22.48-.27.74-.47,2.29-.94,4.58-1.4,6.87-.05.24-.07.47-.04.71-.14,1.27-.51,2.5-.7,3.77-.6,3.06-1.24,6.12-1.86,9.18-.05.26-.11.52-.24.75-.13.21-.3.25-.51.12-.08-.06-.14-.13-.19-.22-.08-.37.23-.61.32-.93,1.02-3.65,1.46-7.43,2.49-11.08-.33,1.05-.36,2.16-.79,3.19-.14-.32,0-.63.06-.93.85-4.24,1.7-8.49,2.55-12.73Z"/>
        <path class="cls-160" d="M49.6,43.24c.01-.05.02-.11.03-.16.3-1.45.6-2.9.9-4.35.06-.27.03-.59.3-.79-.33,1.61-.65,3.22-.98,4.83-.05.23-.03.49-.28.63-.04-.04-.05-.08-.03-.11.02-.03.04-.05.05-.05Z"/>
        <path class="cls-160" d="M52.47,32.43c-.05.26-.1.52-.15.78.25.63-.1,1.2-.16,1.8-.05.23-.1.46-.25.65-.07.08-.15.1-.25.06.25-1.26.5-2.51.74-3.77.04-.18.06-.36.24-.47.09.34,0,.65-.17.95Z"/>
        <path class="cls-73" d="M52.47,32.43c.06-.32.12-.63.18-.95.35-1.07.3-2.24.84-3.26-.25,1.22-.49,2.44-.74,3.66-.04.2-.05.43-.27.54Z"/>
        <path class="cls-160" d="M50.47,41.27s-.09.02-.13.04c.32-1.3.36-2.67.93-3.91.21.26.11.55.07.83-.04.24-.09.47-.14.71-.11.54-.21,1.08-.33,1.61-.06.28-.09.58-.39.73Z"/>
        <path class="cls-202" d="M51.15,38.18c.04-.26.08-.52.12-.79.13-.56.25-1.11.38-1.67.04-.02.09-.03.13-.05.24.86-.09,2.15-.63,2.5Z"/>
        <path class="cls-160" d="M51.72,33.74c.19-.61.1-1.31.53-1.85-.19.61-.1,1.31-.53,1.85Z"/>
        <path class="cls-36" d="M55.52,19.88c.2.61-.15,1.15-.22,1.78-.18-.29.01-.51-.03-.73.08-.35.17-.7.25-1.05Z"/>
        <path class="cls-73" d="M54.61,23.41c-.16.62-.1,1.31-.51,1.87.17-.62.11-1.31.51-1.87Z"/>
        <path class="cls-51" d="M49.13,45.58c-.15-.46-.06-.88.26-1.24.13.46-.2.82-.26,1.24Z"/>
        <path class="cls-6" d="M49,47.68c-.07.36-.14.72-.22,1.08-.18-.33.04-.64.06-.96.05-.04.11-.08.16-.13Z"/>
        <path class="cls-51" d="M49.6,43.24c0,.05-.02.11-.02.16-.11.2.19.47-.13.63-.19-.31-.13-.57.15-.78Z"/>
        <path class="cls-73" d="M53.81,26.68c.16.42.09.79-.23,1.1.08-.37.16-.73.23-1.1Z"/>
        <path class="cls-51" d="M48.87,46.83c-.16-.3-.11-.56.16-.77-.05.26-.11.51-.16.77Z"/>
        <path class="cls-122" d="M42.19,101.91c.51-2.49,1.01-4.98,1.52-7.47-.05,0-.1-.01-.14-.02-.36.24-.36.64-.43.99-.38,1.79-.73,3.59-1.1,5.39-.07.33-.14.66-.2,1,.12.04.24.08.36.12Z"/>
        <path class="cls-122" d="M37.93,120.94c-.07.36-.15.73-.22,1.09-.56,2.75-1.12,5.51-1.68,8.26-.1.48-.21.96-.29,1.45-.07.47-.34.94-.06,1.43.25-.14.23-.4.28-.63.78-3.83,1.56-7.67,2.34-11.5-.12-.03-.25-.07-.37-.1Z"/>
        <path class="cls-195" d="M36.23,130.35c-.18.94-.37,1.88-.55,2.82-.03.16-.06.32-.1.48-.58,2.81-1.16,5.63-1.74,8.44-.35.39-.02,1.05-.54,1.37-.28-.31-.14-.65-.08-.98.26-1.35.55-2.69.82-4.04.14-.68.28-1.36.42-2.04.03-.15.06-.3.09-.44.41-1.99.81-3.99,1.22-5.99.07-.33.09-.69.32-.97.25-.18.32-.06.3.19-.03.39-.23.76-.16,1.16Z"/>
        <path class="cls-97" d="M31.18,134.36c.26-1.24.51-2.49.77-3.73.11-.03.19.01.23.12.12.65-.17,1.26-.25,1.88-.34,1.66-.68,3.32-1.02,4.99-.06.28-.13.57-.08.87,0,.4-.08.79-.23,1.16-.45,1.12-.52,2.33-.81,3.48-.06.27-.11.55-.22.8-.21.35-.26.75-.34,1.14-.05.31-.13.62-.25.92-.35.71-.35,1.5-.56,2.24-.03.13-.07.26-.13.38-.27.47-.29,1.01-.41,1.53-.05.31-.12.61-.25.9-.23.38-.26.82-.36,1.25-.06.26-.1.53-.3.74-.08.06-.17.06-.25,0-.08-.12-.07-.26-.05-.39.07-.4.16-.79.24-1.19.05-.22.08-.45.21-.64.3-.41.13-.99.51-1.38.11-.45.22-.91.33-1.36.21-.07.02-.22.06-.32.28-.48.18-1.07.44-1.56.13-.56.26-1.13.39-1.69.07-.32.1-.65.32-.92.03-.1.06-.2.08-.3.29-.66.33-1.38.49-2.08.51-2.27.85-4.57,1.46-6.82Z"/>
        <path class="cls-38" d="M31.18,134.36c-.57,2.81-1.14,5.62-1.71,8.42-.04.18-.06.37-.24.48,0-.06,0-.11,0-.17.56-2.64,1.11-5.29,1.67-7.93.06-.28.03-.59.28-.8Z"/>
        <path class="cls-184" d="M29.15,143.56c-.09.31-.03.68-.32.92-.11-.23-.16-.47-.04-.72.18.05.22-.17.36-.2Z"/>
        <path class="cls-61" d="M28.6,174.22c-.06.31-.13.62-.19.93-.21.39-.3.81-.25,1.25-.02.1-.04.21-.06.31-.11.53-.22,1.06-.33,1.6-.16.29.16.92-.32.88-.52-.05-.22-.62-.22-.97,0-.16-.02-.31-.02-.46.16-1.23.48-2.44.7-3.66.2-.87.31-1.76.58-2.62.24-.39.28-.84.38-1.27.07-.28.09-.58.38-.74.05.01.1.02.15.03-.07,1.24-.47,2.42-.66,3.64-.06.36-.23.7-.14,1.08Z"/>
        <path class="cls-114" d="M31.12,157.82l.56-2.74c.38.77.02,1.45-.14,2.12-.42,1.72-.62,3.47-1.02,5.19-.06.27-.02.6-.32.77-.02-.04-.05-.08-.07-.12-.12-.66.27-1.28.15-1.94.11-.91.33-1.79.51-2.68.05-.23.11-.46.33-.6Z"/>
        <path class="cls-155" d="M28.68,171.46c-.19.89-.38,1.78-.56,2.66-.11.02-.19-.03-.23-.14-.11-.58-.07-1.16.07-1.73.36-1.46.46-2.98,1.01-4.39.08-.09.17-.1.26-.03.05.01.11.03.16.04-.1,1.22-.37,2.41-.72,3.58Z"/>
        <path class="cls-83" d="M28.6,174.22c-.22-.43.03-.83.1-1.23.21-1.17.46-2.33.7-3.49.21-1.3.67-2.56.67-3.91,0-.05.11-.11.16-.16.2.25.05.51,0,.76-.54,2.68-1.09,5.35-1.63,8.02Z"/>
        <path class="cls-110" d="M31.12,157.82c-.22,1.14-.44,2.29-.66,3.43-.01.64-.23,1.24-.33,1.86-.13.19.09.64-.41.56-.05-.1-.09-.2-.07-.3.41-1.91.47-3.87,1-5.76.03-.1.09-.19.15-.27.08-.09.17-.1.27-.03,0,.17-.08.35.05.51Z"/>
        <path class="cls-199" d="M32.3,151.37c-.03.22-.14.44,0,.65-.03.33-.27.64-.05.98h0c-.05.31-.1.61-.16.9.04.13.03.3-.1.3-.31,0-.26-.3-.33-.49-.13-.53.38-1.06,0-1.6-.07-.31.03-.61.06-.91.09-.45.18-.9.28-1.36.12-.29.08-.69.52-.75.24.3.03.6.01.9-.03.42-.11.83-.21,1.24-.01.04-.03.08-.04.12Z"/>
        <path class="cls-79" d="M31.07,157.3s-.08-.02-.13-.03c-.34-.7.08-1.38.06-2.08-.02-.59.12-1.2.4-1.75.12-.11.28-.2.33.04.05.25.03.51-.02.77,0,.04-.01.09-.02.13-.21.97-.42,1.95-.63,2.92Z"/>
        <path class="cls-167" d="M29.79,163.71c.24-.13.19-.39.27-.59.07-.05.11-.04.14.04,0,0,0,0,0,0-.21.99-.41,1.98-.62,2.98-.11.02-.19-.02-.24-.12-.22-.84-.09-1.61.45-2.31Z"/>
        <path class="cls-30" d="M28.68,171.46c.24-1.19.48-2.39.72-3.58.05-.25.1-.5.15-.76.06.01.11.02.17.03-.16.77-.31,1.54-.47,2.31-.23.65-.1,1.41-.57,2Z"/>
        <path class="cls-1" d="M29.44,166.08s.1.03.15.04c-.12.57-.23,1.14-.35,1.71-.04-.01-.08-.02-.12-.03-.25-.64-.1-1.2.32-1.72Z"/>
        <path class="cls-79" d="M31.81,153.72c.06.13.11.25.17.38.04-.06.08-.12.12-.19.08.35.16.69-.41.47-.01-.03-.03-.06-.04-.09-.01-.21-.02-.41.16-.57Z"/>
        <path class="cls-95" d="M32.26,153.01c.06-.22.12-.43.2-.74.1.36.06.59-.2.74,0,0,0,0,0,0Z"/>
        <path class="cls-161" d="M40.73,101.47c.31.09.62.17.92.26.23-1.11.45-2.23.68-3.34,1.32-6.5,2.65-13,3.98-19.5.58-3.02,1.25-6.02,1.93-9.02.14-1.13.6-2.19.68-3.33.07-.21.03-.46.27-.59.23-.43.32-.9.29-1.38-.18-.28,0-.55.02-.82.65-3.2,1.3-6.4,1.95-9.59.04-.21.08-.42.11-.63.03-.19-.12-.27-.26-.35-.1-.05-.27-.08-.26.01.04.5-.51.63-.59,1.08-.39,2.05-.82,4.09-1.24,6.13-.06.27-.01.6-.32.77-.02.1-.04.21-.06.31.11.27-.02.52-.07.78-2.66,13.07-5.32,26.15-8.01,39.22Z"/>
        <path class="cls-189" d="M42.04,101.86c.07-.34.14-.68.21-1.02-.08-.3.05-.58.1-.86,1.6-7.88,3.21-15.75,4.81-23.63.06-.28.18-.56.11-.86.54-2.67,1.09-5.35,1.62-8.02.06-.3.24-.61.04-.92-.26,1.09-.7,2.14-.83,3.26.09.27-.02.53-.08.78-.57,2.34-1.04,4.7-1.52,7.06-1.36,6.65-2.71,13.3-4.07,19.95-.28,1.37-.56,2.75-.84,4.12.15.05.3.1.45.14Z"/>
        <path class="cls-78" d="M42.25,100.83c-.16-.23-.05-.46,0-.69,1.68-8.22,3.35-16.44,5.03-24.66.21.33-.03.65-.04.97-.93,4.58-1.87,9.17-2.8,13.75-.29,1.4-.57,2.81-.86,4.21-.44,2.14-.88,4.28-1.32,6.41Z"/>
        <path class="cls-21" d="M50.34,60.48c.17-.83.34-1.66.51-2.49.07.88-.1,1.71-.51,2.49Z"/>
        <path class="cls-21" d="M49.2,65.94c.1-.46.19-.92.29-1.38.03-.1.06-.2.1-.3-.06.58.07,1.2-.38,1.68Z"/>
        <path class="cls-21" d="M49.79,63.13c.09-.41.17-.83.26-1.24.14.46.06.88-.26,1.24Z"/>
        <path class="cls-12" d="M22.94,169.33c.4-2.64,1.28-5.18,1.72-7.81.04-.64.16-1.27.38-1.87.42.11.27.44.25.71-.03.31-.11.62-.17.93-.11.53-.22,1.07-.33,1.6-.2.98-.4,1.95-.6,2.93-.31,1.24-.42,2.53-.85,3.74-.38.37-.34-.03-.41-.22Z"/>
        <path class="cls-80" d="M19.73,186.57c-.16-.86.26-1.64.35-2.47.04-.39.14-.78.22-1.17.05-.26.11-.52.16-.77-.03-.81.38-1.56.35-2.38.08-.36.15-.72.23-1.08.28.04.3.28.35.49.02.23-.02.45-.06.67-.17.83-.34,1.66-.5,2.5-.11.69-.37,1.35-.33,2.07-.02.51-.12,1.01-.3,1.5-.14.23-.21.51-.47.65Z"/>
        <path class="cls-157" d="M25.07,159.67c-.14.62-.28,1.23-.41,1.85-.18-.56.15-1.06.18-1.59.34-1.6.67-3.21,1.01-4.81.39.15.24.47.2.73-.09.62-.24,1.22-.36,1.83-.22.66-.11,1.43-.62,2Z"/>
        <path class="cls-186" d="M21.45,176.67c.27-1.36.55-2.71.82-4.07.11-.02.18.02.22.12.14.7-.29,1.35-.18,2.05-.09.66-.11,1.33-.48,1.92-.14.11-.26.1-.38-.03Z"/>
        <path class="cls-99" d="M21.45,176.67l.23.05c.31.87.08,1.64-.44,2.35-.07-.12-.14-.24-.2-.36.14-.68.28-1.36.41-2.04Z"/>
        <path class="cls-98" d="M22.42,172.63c-.05-.01-.1-.02-.15-.04.22-1.09.45-2.18.67-3.26.05.12.11.23.16.35.29.21.16.47.1.72-.21.4-.32.83-.33,1.28,0,.08-.02.16-.04.24-.12.25-.14.55-.41.72Z"/>
        <path class="cls-15" d="M20.81,179.78c.14.83-.25,1.58-.35,2.38-.16-.83.25-1.58.35-2.38Z"/>
        <path class="cls-73" d="M52.97,34.81c-.08.42-.17.83-.25,1.25-.14,1.34-.42,2.66-.67,3.98-1.75,9.2-3.66,18.38-5.53,27.56-.49,2.4-.96,4.79-1.48,7.18-.09.09-.18.09-.27,0-.18-.36-.07-.73,0-1.09.61-3.01,1.21-6.01,1.84-9.02.1-.29.15-.59.19-.9.24-1.2.48-2.39.74-3.58.9-4.22,1.73-8.45,2.6-12.67.05-.24.05-.47.04-.71.02-.71.21-1.38.35-2.07.74-3.36,1.36-6.75,2.06-9.95-.14.38-.22.95-.35,1.52-.22,1.06-.42,2.12-.66,3.17-.07.32-.06.71-.5.81-.26-.28-.06-.58-.04-.88.37-1.42.68-2.86.96-4.3.17-.63.17-1.29.46-1.89.21-.51.42-1.01.49-1.56.05-.39.24-.42.52-.19.09.02.08.13.14.18-.13.79-.17,1.6-.48,2.36.05.28,0,.54-.16.78Z"/>
        <path class="cls-16" d="M55.2,23.06c.15.54.04,1.1-.04,1.62-.24,1.51-.59,3.01-.89,4.51-.04.18-.06.37-.26.46-.39-.52-.43-1-.19-1.67.43-1.21.67-2.49.96-3.74.1-.41.21-.82.42-1.19Z"/>
        <path class="cls-16" d="M56.13,19.17c-.24.99-.23,2.03-.74,2.95.26-.98.25-2.03.74-2.95Z"/>
        <path class="cls-73" d="M53.53,31.19c-.21-.48-.44-.95.25-1.25.04.44-.02.86-.25,1.25Z"/>
        <path class="cls-16" d="M53.53,31.19c.08-.42.16-.84.25-1.25.07-.09.15-.19.22-.28-.13.67-.27,1.35-.4,2.02-.05-.06-.09-.12-.14-.18.02-.1.04-.21.07-.31Z"/>
        <path class="cls-181" d="M52.45,33.24c-.13.63-.26,1.25-.38,1.88-.06.06-.12.05-.15-.03.13-.62.27-1.25.4-1.87,0,0,.07.01.07.01h.07Z"/>
        <path class="cls-173" d="M27.38,177.87c.28.4-.24.84.06,1.27.33-.27.01-.63.17-.89.06-.05.12-.04.18,0,.06.12-.02.27.06.39-.48,2.61-1.32,5.15-1.74,7.78-.45-.07-.42-.41-.38-.73.04-.36.12-.73.07-1.1.33-2.03.8-4.03,1.2-6.05.05-.26.11-.52.37-.66Z"/>
        <path class="cls-45" d="M25.98,184.75c.19.31,0,.6-.04.89-.04.29-.11.56.17.76-.25,1.19-.49,2.39-.74,3.58-.38.39-.28.92-.44,1.38-.49-.1-.42-.47-.37-.8.09-.62.24-1.23.36-1.84.22-1.05.42-2.11.65-3.16.06-.3.08-.64.41-.81Z"/>
        <path class="cls-83" d="M27.77,178.28c-.05-.01-.1-.02-.16-.03.18-.5.06-1.1.48-1.53.05.01.1.02.15.04-.02.1-.04.2-.06.3-.29.36-.12.87-.41,1.22Z"/>
        <path class="cls-221" d="M27.77,178.28c.15-.4.03-.9.41-1.22-.11.52-.21,1.05-.32,1.57-.1-.1-.11-.22-.09-.35Z"/>
        <path class="cls-168" d="M51.42,33.68c.17-.62.11-1.3.51-1.85-.18.61-.11,1.3-.51,1.85Z"/>
        <path class="cls-83" d="M28.15,176.4c-.15-.47-.07-.88.25-1.25-.08.42-.17.83-.25,1.25Z"/>
        <path class="cls-51" d="M48.61,48.09c-.09.41-.17.83-.26,1.24-.14-.46-.06-.87.26-1.24Z"/>
        <path class="cls-33" d="M27.21,150.82c-.06.21-.11.41-.17.62-.21.41-.21.88-.33,1.32-.03.72.03,1.46-.46,2.07-.45-.17-.16-.43-.08-.66.03-.15.06-.29.09-.44-.04-.29,0-.56.17-.81.16-.73.33-1.46.49-2.18.48-.57.16-1.41.68-1.96-.04.21-.07.43-.11.64,0,.48-.1.94-.28,1.39Z"/>
        <path class="cls-185" d="M26.17,154.17c0,.22-.16.45.02.67.24.96-.1,1.83-.43,2.7-.04.1-.16.12-.28.09.07-.85.51-1.65.37-2.52.08-.32.03-.69.32-.94Z"/>
        <path class="cls-185" d="M26.42,152.93c-.06.27-.11.54-.17.81-.13-.31-.08-.58.17-.81Z"/>
        <path class="cls-35" d="M23.27,194.93c-.08.3-.16.61-.24.91-.48-.3-.15-.72-.15-1.09.85-3.96,1.86-7.88,2.59-11.87.06-.31.05-.72.53-.77.25.38.07.77,0,1.14-.32,1.84-.83,3.64-1.04,5.49-.22.82-.13,1.73-.67,2.46-.5,1.07-.5,2.27-.85,3.38,0,.13-.06.25-.18.32Z"/>
        <path class="cls-156" d="M25.13,188.8c-.12.59-.23,1.19-.35,1.78-.06.29-.14.58.16.79-.24.88-.61,1.72-.68,2.68-.38-.17-.24-.39-.23-.59-.08-.4.11-.76.15-1.14.24-1.15.46-2.31.71-3.45.05-.1.13-.13.24-.07Z"/>
        <path class="cls-103" d="M25,188.8c-.25,1.19-.51,2.38-.76,3.57-.06.07-.1.06-.12-.03.06-.37.12-.74.18-1.11.17-.83.34-1.67.51-2.5-.03-.13-.02-.25.12-.32.24.09.2.23.08.39Z"/>
        <path class="cls-201" d="M24.11,192.33l.06.02s.06,0,.06,0c-.07.37-.14.74-.21,1.1-.23-.4.05-.76.09-1.13Z"/>
        <path class="cls-191" d="M23.27,194.93c0-.14.04-.26.18-.32.17.16.14.35.07.54-.08-.07-.17-.15-.25-.22Z"/>
        <path class="cls-180" d="M19.33,198.18c-.52-.53-.44-1.24-.59-1.89.07-.68.14-1.36.22-2.04-.02-.2.09-.21.24-.17.34.33.19.73.14,1.1-.05.34-.05.67-.07,1.01-.09.32.13.56.23.83,0,.16-.01.35.26.23.07.03.12.09.15.16.05.43-.07.74-.57.75Z"/>
        <path class="cls-53" d="M19.18,194.11c-.07.05-.15.1-.22.15-.14-.34.01-.67.07-1,.2-.07.01-.5.38-.41.24.48.14.9-.23,1.26Z"/>
        <path class="cls-26" d="M19.32,192.77c-.09.17-.08.39-.29.49.01-.09.02-.19.03-.28-.04-.47.15-.89.21-1.34.01-.09.05-.18.1-.25.1-.03.18,0,.24.09.11.48.05.93-.29,1.31Z"/>
        <path class="cls-53" d="M19.37,191.54c-.1.48-.21.96-.31,1.44-.14-.34.05-.67.03-1,.04-.16.08-.31.12-.47.07-.06.12-.05.15.03Z"/>
        <path class="cls-170" d="M22.7,196.12c-.01.05-.02.11-.03.16.1.27.19.55-.02.81-.02.11-.03.22-.05.33-.02.04-.04.07-.06.11-.17.21-.34.24-.5,0-.11-.72-.09-1.42.48-1.98.09-.01.18,0,.26.06.08.18.06.36-.07.51Z"/>
        <path class="cls-212" d="M22.7,196.12c.01-.16.03-.32.04-.47-.11-.35-.16-.68.33-.78.03.33-.25.64-.04.98-.01.2-.11.31-.33.27Z"/>
        <path class="cls-70" d="M22.64,197.09c0-.27.02-.54.02-.81.41.28.23.55-.02.81Z"/>
        <path class="cls-70" d="M22.57,198.21c-.04.13-.09.25-.25.27-.24-.43.07-.74.22-1.09l.05.03c.18.27,0,.53-.02.79Z"/>
        <path class="cls-128" d="M19.33,198.18c.43-.16.44-.54.47-.9-.12-.18-.1-.37-.07-.57.45-1.13.59-2.34.87-3.51.08-.32.07-.79.64-.65.28.35.19.72.04,1.09-.08.3-.22.6.08.86.12.08.24.16.3.3-.03.12-.11.18-.22.22-.41-.01-.53.24-.56.6-.03.38.17.71.2,1.08,0,.34-.09.66-.15.99-.08.35-.19.68-.46.93-.31.24-.57.2-.76-.15-.13-.1-.26-.19-.4-.29Z"/>
        <path class="cls-220" d="M19.73,198.47c.2.13.41.24.65.12.16,0,.31-.05.46-.09.29-.09.56-.27.89-.19.13.06.24.15.29.3-.47.18-.94.37-1.42.55-.35-.15-.86-.1-.87-.68Z"/>
        <path class="cls-217" d="M19.73,186.57c.08-.21.03-.47.27-.6.18.22.14.46.09.71-.21.64-.1,1.39-.6,1.94-.14.3-.02.7-.36.91.2-.99.4-1.98.6-2.96Z"/>
        <path class="cls-8" d="M33.38,143.49c.21-.45.06-1.01.46-1.4-.04.26-.09.52-.13.77-.07.31-.13.62-.2.93-.02.3.13.67-.35.76-.17-.41-.11-.77.22-1.07Z"/>
        <path class="cls-211" d="M33.21,144.55c.28-.18.2-.5.3-.75.2.45-.07.85-.1,1.28-.02.27-.2.54-.01.82-.19,1.16-.38,2.32-.56,3.48-.19.21-.1.52-.26.74-.08.04-.14.01-.16-.07.05-.3.1-.59.14-.89-.26-.5.11-1,0-1.5,0-.7.33-1.36.26-2.07.05-.38.01-.79.4-1.04Z"/>
        <path class="cls-164" d="M32.71,150.14c.2.56-.17,1.05-.15,1.6-.26-.06-.12-.3-.26-.38,0,0-.03,0-.03,0-.06-.12-.02-.24.04-.35.17-.27.07-.67.4-.87Z"/>
        <path class="cls-138" d="M32.71,150.14c-.13.29-.03.68-.34.91-.12-.33,0-.62.14-.91.13-.24.03-.58.32-.76-.04.25-.08.51-.12.76Z"/>
        <path class="cls-179" d="M19.37,191.54c-.05,0-.1-.02-.15-.03.02-.15.04-.29.07-.44-.23-.74.41-1.36.3-2.08,0-.11.02-.21.03-.32-.04-.38.08-.74.2-1.09.25-.07.34.1.42.28.06.7-.2,1.34-.3,2.02-.17.51-.08,1.1-.54,1.5-.01.05-.02.1-.03.16Z"/>
        <path class="cls-205" d="M19.87,187.58c-.08.36-.17.73-.25,1.09-.04-.02-.08-.03-.12-.05.14-.68.28-1.35.42-2.03.43.35.24.67-.04.98Z"/>
        <path class="cls-53" d="M19.59,188.99c.14.73-.2,1.39-.3,2.08-.03-.03-.07-.06-.11-.08-.09-.38.04-.73.19-1.06.08-.31.15-.62.23-.93Z"/>
        <path class="cls-74" d="M19.36,189.92c-.06.35-.12.71-.19,1.06-.03.1-.07.2-.11.29.02-.47-.07-.96.29-1.36Z"/>
        <path class="cls-136" d="M22.01,198.6c-.12-.04-.25-.08-.29-.23.03-.33.08-.65.49-.72.11-.09.22-.17.33-.26.02.38-.08.74-.22,1.09-.11.04-.21.07-.32.11Z"/>
        <path class="cls-184" d="M27.21,150.82c.09-.46.18-.93.28-1.39.04,0,.08,0,.13-.01-.11.48-.05,1-.4,1.4Z"/>
        <path class="cls-184" d="M28.44,146.17c-.13.52-.06,1.11-.44,1.56.1-.52.2-1.04.31-1.56.05,0,.09,0,.14,0Z"/>
        <path class="cls-28" d="M40.13,101.31c.13.04.26.07.38.1,1.13-5.57,2.27-11.14,3.4-16.7.12-.57.43-1.16-.07-1.73-.12-.14.08-.39.16-.3.39.4.33-.04.35-.19.06-.49,0-1.01-.01-1.47-.03-1.18.23-2.4.67-3.55.08,1.07-.27,2.1-.42,3.21.1-.09.15-.11.16-.15.52-2.52,1.06-5.05,1.54-7.58.11-.57-.15-1.15.12-1.77.14-.31.67-.65.41-.92-.45-.47-.12-.97-.28-1.66-.28,1.35-.52,2.48-.73,3.62-.05.25-.35.58.21.76.18.06.07.73-.12.76-.66.1-.46.62-.6.97-.16.41-.04.91-.41,1.26-.27.14-.33.41-.38.67-.5,2.79-1.12,5.55-1.6,8.35-.67,3.89-1.36,7.78-2.44,11.59-.17.61-.36,1.23-.28,1.88-.04.94.05,1.92-.06,2.85Z"/>
        <path class="cls-28" d="M35.99,120.43c-.43.99-.71,2.03-.82,3.1-.19,1.82-.59,3.6-.83,5.41-.05.36-.23.7-.21,1.09.04,1.34-.38,2.62-.66,3.91-.3,1.4-.54,2.8-.63,4.22-.01.21-.09.58.37.45.13-.14.19-.32.22-.5.42-2.1.9-4.18,1.25-6.29-.07-.45.06-.86.27-1.26.13-.41.2-.83.28-1.24.61-2.87,1.16-5.76,1.71-8.64-.31-.08-.63-.16-.94-.24Z"/>
        <path class="cls-94" d="M52.71,36.06c-.7,3.59-1.42,7.18-2.09,10.78-1.21,6.55-2.6,13.07-3.92,19.6-.57,2.81-1.18,5.61-1.77,8.41-.37.3-.36.76-.44,1.16-1.53,7.47-3.03,14.95-4.59,22.42-.18.88-.36,1.77-.53,2.66.18.05.36.1.54.15.15-.92.3-1.84.54-2.74-.18-.26-.05-.52.01-.77.21-.85.49-1.68.65-2.54.71-3.76,1.62-7.47,2.19-11.26.4-2.68,1.06-5.32,1.6-7.97.56-2.76,1.12-5.52,1.67-8.28,1.79-8.97,3.76-17.9,5.34-26.92.02-.1.04-.21.06-.31.15-.24.21-.5.16-.78.02-.11.04-.21.06-.32.2-.44.3-.91.29-1.4.04-.64.41-1.24.23-1.91Z"/>
        <path class="cls-22" d="M40.83,101.49c2.65-13.01,5.3-26.02,7.95-39.03.07-.32.27-.65.04-.99-.15.7-.31,1.4-.45,2.1-2.51,12.36-5.01,24.71-7.52,37.07-.06.27-.11.54-.17.82.05.01.1.03.15.04Z"/>
        <path class="cls-22" d="M36.81,120.64c-.18.87-.35,1.73-.53,2.6-.51,2.49-1.04,4.98-1.56,7.46-.18.26-.29.53-.13.84.11,0,.2-.03.27-.12.25-.36.29-.79.37-1.21.64-3.16,1.29-6.32,1.83-9.51-.08-.02-.17-.04-.25-.06Z"/>
        <path class="cls-120" d="M52.59,39.78c.05-.26.11-.52.16-.79-.05-.33.02-.65.19-.93.03-.16.07-.31.1-.47l.28-1.38s.07.02.11.02l-1.04,5.1s-.07-.04-.08-.07c0-.08,0-.16.02-.23.03-.16.06-.31.1-.47-.05-.28,0-.54.16-.78Z"/>
        <path class="cls-183" d="M52.2,39.37c.1-.47.19-.93.29-1.4.14.51.04.98-.29,1.4Z"/>
        <path class="cls-183" d="M52.94,38.06c-.06.31-.13.62-.19.93-.16-.36-.1-.67.19-.93Z"/>
        <path class="cls-94" d="M52.97,34.81c.05-.26.11-.52.16-.78.16.3.11.56-.16.78Z"/>
        <path class="cls-183" d="M52.59,39.78c-.05.26-.11.52-.16.78-.17-.31-.12-.57.16-.78Z"/>
        <path class="cls-183" d="M51.98,40.47c.05-.26.1-.52.16-.78.17.3.11.56-.16.78Z"/>
        <path class="cls-6" d="M38.26,100.81c.62-3.05,1.24-6.09,1.87-9.14.21-1.06.45-2.12.64-3.19.47-2.57,1.16-5.1,1.48-7.69,0-.05.11.11.19.05.29-.2.32-.53.39-.83.49-2.35.96-4.7,1.44-7.06.07-.34.13-.68-.04-1.01-.04-.02-.08-.04-.12-.06-.35.25-.33.66-.37,1.01-.03.22-.07.43-.1.65-.02-.06-.06-.11-.16-.12-.24,1.14-.49,2.29-.73,3.43-.04.21-.08.42-.12.62-.33,1.07-.55,2.16-.67,3.28-.05.26-.09.52-.14.78-1.3,6.4-2.6,12.8-3.91,19.2.12.03.24.05.36.08ZM42.55,78.91c.36-1.54.66-3.09.97-4.63-.28,1.58-.67,3.13-.94,4.72-.06-.02-.07-.02-.09-.03.02-.02.05-.03.06-.05Z"/>
        <path class="cls-6" d="M33.99,119.93c-.54,2.66-1.08,5.33-1.63,7.99-.07.33-.23.66-.09,1.01.46-.32.41-.84.5-1.29.52-2.54,1.04-5.08,1.56-7.62-.12-.03-.23-.06-.35-.09Z"/>
        <path class="cls-38" d="M38.42,100.84c.54-2.64,1.08-5.27,1.61-7.91.06-.29.14-.57.15-.86,0-.2.04-.44-.26-.5-.63,3.07-1.25,6.13-1.88,9.2.12.03.25.05.37.08Z"/>
        <path class="cls-38" d="M34.12,119.96c-.61,2.99-1.22,5.98-1.84,8.97-.11.56-.22,1.13-.33,1.69.05.01.1.02.16.04.42-.31.39-.8.48-1.22.64-3.13,1.28-6.26,1.91-9.38-.13-.03-.25-.06-.38-.1Z"/>
        <path class="cls-147" d="M42.62,77.46c-.22,1.09-.45,2.19-.67,3.28-.01-1.14.21-2.23.67-3.28Z"/>
        <path class="cls-165" d="M44.11,71.88l-1.5,7.37c-.06-.01-.11-.02-.17-.03.34-1.65.68-3.3,1.01-4.96.05-.27.22-.56.03-.84.02-.11.04-.22.06-.32.19-.39.28-.81.25-1.24.03-.16.07-.32.1-.48.52-.79.36-1.77.73-2.62.16.23-.03.45-.01.68.29.62-.09,1.16-.22,1.73-.09.24-.19.48-.28.72Z"/>
        <path class="cls-92" d="M44.39,71.16c-.04-.59.32-1.13.22-1.73.32-.35.23-.82.39-1.22.24-1.71.58-3.4,1.03-5.06,0-.03,0-.07.02-.1.23-1.14.46-2.28.7-3.46.25.19.1.35.07.49-.7,3.46-1.4,6.92-2.11,10.37-.05.25-.02.55-.31.69Z"/>
        <path class="cls-107" d="M46.02,63.15c-.34,1.69-.69,3.37-1.03,5.06-.02-1.3.44-2.53.66-3.79.07-.43.05-.9.37-1.27Z"/>
        <path class="cls-6" d="M43.79,71.85c.14.46.05.87-.25,1.24.08-.41.17-.83.25-1.24Z"/>
        <path class="cls-229" d="M46.87,64.66c-.68,3.37-1.36,6.74-2.05,10.11.05.27-.05.52-.1.78-1.54,7.59-3.09,15.18-4.64,22.77-.06.29-.05.63-.28.86-.19-.08-.25-.23-.2-.34.29-.62-.27-.12-.33-.26-.19-.37-.04-.73.03-1.09.52-2.6,1.06-5.21,1.59-7.81.08-.39.16-.78.11-1.18.47-2.6.99-5.2,1.59-7.77.59-2.53,1.05-5.08,1.58-7.62.07-.33.06-.69.33-.96.63-3.1,1.25-6.2,1.88-9.3.06-.29.13-.57.2-.85.49-1.19.61-2.46.81-3.7.24-1.5.59-2.97.87-4.45.05-.27.15-.59.49-.5.3.08.17.4.13.62-.25,1.41-.62,2.8-.81,4.22-.01.71-.37,1.38-.31,2.1-.2,1.21-.41,2.41-.74,3.6-.18.23-.24.49-.16.78Z"/>
        <path class="cls-141" d="M48.02,58.22c-.23-.37,0-.72.06-1.07.23-1.22.49-2.43.74-3.69-.39.02-.39.29-.42.5-.41,2.31-1.04,4.58-1.34,6.92-.05.37-.11.84-.48,1.12.18-1.25.42-2.48.75-3.7.15-1.4.51-2.76.79-4.13.29-1.43.5-2.87.93-4.27.49-2.35.99-4.7,1.48-7.04.08-.39.14-.78.21-1.17-.11-.5-.07-.97.32-1.36.5-1.32.61-2.73.98-4.08.15-.1.06-.38.35-.42.15.27,0,.54-.05.8-.49,2.46-1,4.92-1.5,7.38-.05.25-.18.5-.07.77-.13.67-.26,1.33-.39,2,.05.38-.09.73-.16,1.09-.64,3.17-1.29,6.35-1.94,9.52-.06.28-.04.59-.24.83Z"/>
        <path class="cls-92" d="M44.5,72.15c-.81,4.06-1.62,8.12-2.43,12.18-.28,1.41-.57,2.81-.86,4.21-.3,2.06-.81,4.09-1.2,6.13-.23,1.17-.46,2.33-.72,3.49-.05.11-.13.14-.24.1-.23-.47.06-.9.1-1.35.03-.28.12-.56.09-.84.65-2.7.92-5.47,1.5-8.19.45-2.09.84-4.2,1.29-6.29.05-.25.03-.54.24-.74.24-.21.23-.53.29-.8.56-2.7,1.11-5.4,1.67-8.09.09.07.18.14.27.21Z"/>
        <path class="cls-229" d="M49.05,49.89c-.57,2.8-1.14,5.6-1.71,8.4.18-1.93.7-3.81,1.07-5.7.18-.91.26-1.84.65-2.7Z"/>
        <path class="cls-52" d="M50.52,41.97l-1.37,6.7s-.09-.02-.13-.03l1.36-6.68c.05-.08.1-.08.14,0Z"/>
        <path class="cls-202" d="M50.52,41.97s-.09-.01-.14,0c.03-.23.06-.46.09-.69.18-.82.36-1.64.54-2.45.41.14.02.45.14.65-.03.29-.07.57-.1.86-.11.45-.21.91-.32,1.36-.14.05-.18.16-.22.29Z"/>
        <path class="cls-67" d="M51.15,39.46c-.18-.19.06-.47-.14-.65.04-.21.09-.42.13-.63.44-.77.44-1.66.63-2.5.05-.2.09-.39.14-.59.05.01.1.02.15.03-.31,1.45-.61,2.89-.92,4.34Z"/>
        <path class="cls-177" d="M37.64,122.02c.09.02.18.04.28.06-.56,2.76-1.13,5.52-1.69,8.28-.26-.49.25-.97.02-1.46-.03-.04-.06-.08-.09-.12-.12-.83.22-1.59.35-2.39.1-.64.25-1.28.38-1.92.12-.57.23-1.14.36-1.71.06-.28.09-.58.4-.74Z"/>
        <path class="cls-62" d="M41.73,101.76l.84-4.11c-.5.02-.18.54-.42.71-.23,1.1-.46,2.21-.69,3.31.09.03.19.06.28.09Z"/>
        <path class="cls-62" d="M37.41,120.8c-.22.77-.42,1.54-.59,2.32-.86,3.94-1.63,7.9-2.44,11.85-.07.36-.17.72-.14,1.1.02.11.05.2.11.29.09.06.19.07.3.03.02-.11.04-.22.06-.34.38-2.42.96-4.79,1.42-7.19.3-1.45.59-2.9.89-4.35.27-1.2.48-2.41.73-3.62-.11-.03-.23-.06-.34-.09Z"/>
        <path class="cls-2" d="M34.39,136.34s.09.02.14.03c.07.71-.32,1.35-.27,2.05-.27,1.4-.55,2.81-.82,4.21-.05.28-.17.56-.06.86-.06.36-.12.71-.17,1.07-.08.35-.15.71-.23,1.06-.05.29.19.72-.37.76-.21-.52-.06-1.05-.01-1.57.24-2.64.86-5.22,1.4-7.81.05-.26.13-.52.39-.66Z"/>
        <path class="cls-77" d="M34.72,136.06c-.12-.17-.05-.36-.02-.53.46-2.22.92-4.45,1.38-6.67.06-.05.1-.04.11.04,0,0,.06,0,.06,0-.51,2.39-1.02,4.78-1.53,7.16Z"/>
        <path class="cls-77" d="M34.26,138.41c-.18-.72.22-1.36.27-2.05.04,0,.09.02.13.03-.13.67-.27,1.35-.4,2.02Z"/>
        <path class="cls-165" d="M38.19,100.8c.13.03.26.05.38.09.31-1.56.57-3.14.73-4.72.35-2.14.83-4.25,1.19-6.39.51-2.99,1.18-5.96,1.78-8.93-.02-.22.18-.44-.02-.71-.78,3.85-1.56,7.65-2.33,11.45.2.28.04.57-.02.84-.57,2.8-1.14,5.59-1.71,8.39Z"/>
        <path class="cls-165" d="M34.28,120c-.72,3.55-1.45,7.11-2.17,10.66-.13.62-.25,1.25-.38,1.87.09.07.18.06.26-.02.26-.33.26-.75.37-1.13.79-3.76,1.52-7.53,2.3-11.29-.13-.03-.25-.06-.38-.1Z"/>
        <path class="cls-111" d="M34.45,120.05c-.78,3.81-1.55,7.63-2.33,11.44-.14,1.59-.54,3.12-1.04,4.62-.13.8-.39,1.57-.43,2.39-.08.37-.15.73-.23,1.1-.21.46-.23.97-.35,1.46.37.28.42-.08.48-.27.16-.52.28-1.06.31-1.61,0-.06,0-.12.03-.18.03.1.05.2.13.27.67-.39.46-1.11.64-1.68.12-.88.04-1.81.69-2.54.2-.22.19-.42-.05-.61-.19-.35.08-.65.1-.98.02-.07.03-.15.05-.22.08-.33.1-.67.12-1.01.13.29.33.31.58.11.11-.15.14-.32.12-.5-.19-.5.06-1.01-.01-1.51-.19-.77.13-1.48.24-2.21.07-.37.15-.74.23-1.1.16-.92.43-1.82.5-2.76-.02-.83.28-1.61.39-2.42.08-.56.28-1.1.33-1.67-.17-.04-.33-.09-.5-.13ZM32.59,131.93c0-.16.02-.32.03-.47-.1.05,0-.12,0-.01.03.17-.01.33-.04.49Z"/>
        <path class="cls-48" d="M25.48,157.64c.49-.87.46-1.87.71-2.8.16-.72.31-1.44.47-2.16.04-.07.09-.07.13,0,0,.11-.02.21-.03.32.07.42-.18.8-.15,1.17.06-.36.09-.77.27-1.15.06-.25.12-.5.18-.76.1-.03.18,0,.22.1.13.42-.05.81-.11,1.22-.09.39-.14.79-.29,1.16-.18.3-.25.63-.31.97-.02.13-.05.26-.08.39-.05.22-.11.44-.2.65-.37.96-.44,2-.69,2.99-.14.5-.13,1.04-.43,1.5-.07.08-.16.1-.26.07,0-.55.35-1.06.16-1.63.14-.68.27-1.35.41-2.03Z"/>
        <path class="cls-89" d="M28.81,145.94c.08-.3.15-.6.23-.91.24-.32.1-.78.37-1.09l.17-.73c.04-.08.09-.09.16-.04.16.14-.08.41.18.51.05.05.08.11.08.18,0,.19-.11.35-.15.54-.1.69-.38,1.33-.47,2.02-.01.27-.07.52-.18.76-.31.5-.16,1.16-.58,1.62-.18.09-.24-.04-.29-.17-.03-.41.18-.8.12-1.22.12-.49.14-1,.35-1.47Z"/>
        <path class="cls-153" d="M28.45,148.63l.11.17c.21.27.11.55.01.83-.35,1.11-.66,2.23-1.1,3.3-.1.25-.07.61-.49.6.08-.42.16-.84.23-1.26-.03-.44.07-.85.24-1.25.07-.3.15-.6.22-.9.28-.49.16-1.09.46-1.57.03-.09.05-.19.08-.28.04-.06.1-.08.16-.04.07.12-.02.27.07.38Z"/>
        <path class="cls-38" d="M31.21,136c-.18.83-.37,1.67-.55,2.5-.18-.32,0-.62.05-.92.33-1.68.68-3.36,1.02-5.04.04,0,.09.02.13.03.04.07.11.13.09.21-.26,1.07-.28,2.2-.74,3.22Z"/>
        <path class="cls-38" d="M29.71,143.17s-.09.02-.13.04c.27-1.21.33-2.46.85-3.61-.09.52-.18,1.04-.27,1.56.14.73.05,1.41-.45,2Z"/>
        <path class="cls-184" d="M28.35,148.25s-.09.02-.14.04c.17-.79.16-1.63.6-2.35-.1.52-.2,1.05-.3,1.57.06.27.03.53-.17.75Z"/>
        <path class="cls-184" d="M28.13,148.57c-.11.53-.12,1.1-.46,1.57.13-.53.05-1.12.46-1.57Z"/>
        <path class="cls-184" d="M26.88,153.01l-.22,1.08s-.08-.01-.12-.02c.07-.36.15-.72.22-1.08,0,0,.06.02.06.02h.06Z"/>
        <path class="cls-184" d="M27.45,151.03c-.08.42-.16.83-.24,1.25-.05,0-.1-.02-.15-.02.13-.41.03-.89.39-1.22Z"/>
        <path class="cls-185" d="M26.79,152.68s-.09,0-.13,0c.13-.41.03-.89.38-1.23-.08.41-.17.82-.25,1.23Z"/>
        <path class="cls-184" d="M29.4,143.94c-.11.37-.09.78-.37,1.09.09-.37,0-.81.37-1.09Z"/>
        <path class="cls-222" d="M25,188.8c-.03-.12-.06-.23-.09-.35.06-1.38.44-2.71.76-4.04.3-1.24.57-2.48.63-3.75.03-.59.12-1.18.32-1.72.48-1.33.67-2.72.97-4.1.06-.29.11-.58.39-.76.05.01.1.02.15.04-.24,1.25-.49,2.5-.73,3.75-.47,2.29-.93,4.59-1.4,6.88-.28,1.35-.57,2.7-.85,4.05-.04,0-.09,0-.13,0Z"/>
        <path class="cls-164" d="M30.2,163.15s-.1-.02-.14-.04c.13-.62.26-1.24.4-1.87.15.67-.18,1.27-.25,1.9Z"/>
        <path class="cls-152" d="M37.31,120.77c-.06.4-.09.81-.29,1.16-.06-.02-.13-.04-.19-.06l.15-.76c.03-.14.06-.27.08-.41-.04-.01-.09-.02-.14-.04-.38,1.84-.75,3.68-1.13,5.52-.37,1.79-.75,3.58-1.13,5.37-.73,2.75-1.09,5.59-1.88,8.33-.43,1.49-.72,3.03-.76,4.6.04.38,0,.76-.1,1.13-.07.41-.19.82-.19,1.24.06.57-.15,1.09-.23,1.64-.15,1.55-.39,3.1-.57,4.65.07.65-.17,1.25-.26,1.87-.03.18-.07.35-.1.53-.03.13-.05.26-.07.4-.03.18-.05.36-.03.55-.05.94-.34,1.84-.5,2.77-.1,1.59-.48,3.13-.79,4.68-.41,1.82-.47,3.7-.96,5.51-.34,1.82-.79,3.61-1.06,5.44.05.37-.04.73-.11,1.1-.35,1.71-.7,3.41-1.04,5.12-.07.33-.2.67,0,1-.38,1.93-.77,3.85-1.14,5.78-.05.28-.22.56-.05.85.04-.09.07-.19.11-.28l3.06-14.36c.2-2.13.7-4.2,1.15-6.28.11-.57.21-1.15.32-1.72-.06-.82.17-1.59.35-2.38.48-2.13.57-4.33,1.15-6.44.26-1.3.26-2.65.62-3.94.11-.09.16-.2.17-.34.03-.59-.09-1.19.22-1.74.09-.44.18-.89.27-1.33-.07-.53.27-.96.32-1.46.11-.69.19-1.37.14-2.07.25-3.41,1.02-6.72,1.7-10.05.04-.21.07-.42.12-.63,1-4.96,2.01-9.92,3.01-14.88-.07-.02-.14-.04-.21-.06Z"/>
        <path class="cls-105" d="M31.57,153.33c.01-.1.02-.2.03-.29-.01-.28-.03-.55.2-.77.18-.06.32-.06.26.2-.09.42-.17.83-.25,1.25-.05.19-.1.38-.16.57-.22-.3.16-.65-.09-.95Z"/>
        <path class="cls-42" d="M32.23,149.92c-.11-.51.08-.99.19-1.47.21-.21.04-.59.33-.77.1.52-.09.99-.19,1.48-.29.18-.18.52-.32.76Z"/>
        <path class="cls-5" d="M31.8,152.27c-.07.26-.13.51-.2.77-.07-.63.09-1.22.36-1.78-.05.34-.11.68-.16,1.02Z"/>
        <path class="cls-5" d="M32.51,150.14c-.05.3-.09.61-.14.91-.03.11-.07.21-.1.32-.2-.46.07-.88.14-1.32.03.03.07.06.11.09Z"/>
        <path class="cls-96" d="M42.57,97.65c-.31.14-.13.56-.42.71.98-4.84,1.96-9.69,2.94-14.53.34-1.67.69-3.33,1.03-5,.19-.29.16-.64.26-.95.04-.14.04-.33.28-.23-1.29,6.38-2.59,12.76-3.88,19.14-.06.29-.13.57-.2.85Z"/>
        <path class="cls-174" d="M46.65,77.65c-.42.29-.13.89-.54,1.18.51-3.04,1.29-6.03,1.99-9.03.17.19.07.4.03.61-.49,2.42-.99,4.83-1.49,7.25Z"/>
        <path class="cls-225" d="M19.87,187.58c-.02-.33.2-.65.04-.98.03-.21.06-.41.09-.62.11-.52.21-1.04.32-1.57,0-.69.25-1.34.35-2.02.14-.9.44-1.77.48-2.69.03-.21.06-.42.09-.64.15-.78.29-1.57.44-2.35.15-.66.3-1.33.45-1.99.1-.98.31-1.94.58-2.88,0-.03,0-.06.02-.09,0-.46.09-.9.27-1.32.03-.25.07-.5.1-.75.29-1.3.59-2.59.88-3.89.12-.02.19.03.23.14.02,1.14-.39,2.21-.56,3.32-.07.44-.17.87-.26,1.31-.45,2.16-.88,4.32-1.32,6.47-.07.34-.16.67-.11,1.02-.1,1.16-.43,2.28-.63,3.42-.15.91-.48,1.8-.45,2.74-.08.84-.25,1.67-.32,2.52-.03.38-.04.81-.45,1.05-.08-.07-.16-.14-.24-.21Z"/>
        <path class="cls-197" d="M23.17,170.5c.31-1.56.61-3.12.92-4.69.09-1.01.45-1.96.52-2.97.1-.51.2-1.03.31-1.54.04-.02.08-.03.12-.04.32.44-.05.92.07,1.38,0,.44-.13.87-.2,1.3-.38,1.86-.76,3.72-1.14,5.58-.07.33-.09.68-.32.96-.08.09-.17.09-.27.02Z"/>
        <path class="cls-132" d="M24.61,162.85c.06,1.03-.33,1.98-.52,2.97-.03-.01-.07-.02-.1-.03.21-.98.41-1.96.62-2.94Z"/>
        <path class="cls-127" d="M21.15,179.7c.1.94-.28,1.81-.44,2.71-.06.01-.09-.02-.09-.08.18-.88.36-1.75.53-2.63Z"/>
        <path class="cls-15" d="M20.62,182.33s.07.05.09.08c-.13.67-.26,1.33-.4,2-.14-.73.19-1.39.3-2.08Z"/>
        <path class="cls-193" d="M22.71,171.84c-.19.96-.39,1.92-.58,2.88-.12-.73.25-1.38.29-2.09.11-.26.07-.57.29-.79Z"/>
        <path class="cls-193" d="M23,170.43c-.09.44-.18.88-.27,1.32-.08-.47,0-.91.27-1.32Z"/>
        <path class="cls-76" d="M39.56,101.15c1.81-8.76,3.58-17.53,5.37-26.29-.04-.02-.07-.05-.1-.09-.08.36-.17.72-.24,1.09-1.52,7.45-3.04,14.91-4.56,22.36-.05.26-.03.56-.3.88.08-.51.14-.91.2-1.32-.21.3-.27.66-.61.83-.26.14-.32.41-.37.67-.11.54-.22,1.08-.33,1.62.32.08.64.18.96.26Z"/>
        <path class="cls-76" d="M50.76,44.78c-.21-.28-.05-.56,0-.84.53-2.64,1.07-5.28,1.61-7.93-.23-.07-.19.23-.36.23.1-.85.44-1.63.68-2.44.08.02.16.03.25.05-.73,3.64-1.46,7.28-2.19,10.93Z"/>
        <path class="cls-76" d="M48.02,58.22c.78-3.81,1.57-7.63,2.35-11.44-.1,1.49-.49,2.92-.77,4.38-.59,3.05-1.22,6.09-1.83,9.13-.21-.72.21-1.37.25-2.06Z"/>
        <path class="cls-76" d="M46.87,64.66c-.19-.31-.13-.57.16-.78-.05.26-.1.52-.16.78Z"/>
        <path class="cls-58" d="M27.34,174.9c-.23,2.12-.72,4.19-1.17,6.27-.07.31-.12.62-.18.93-.44,1.23-.57,2.52-.87,3.78-.71,2.99-1.37,5.99-2.05,8.98-.11.26-.22.52-.33.78-.05-.01-.1-.02-.15-.03-.18-.28-.17-.58-.09-.89.5-1.64.64-3.37,1.17-5.01.43-1.21.54-2.49.84-3.72.14-.59.2-1.2.42-1.78.21-.35.26-.75.34-1.14.49-2.29.88-4.59,1.44-6.86.3-.39.17-.99.64-1.3Z"/>
        <path class="cls-34" d="M20.11,187.79c.19-1.21.39-2.42.58-3.63.05-.91.34-1.77.48-2.66.22-1.14.48-2.26.68-3.4.06-.3-.12-.75.45-.75.24.78-.19,1.49-.25,2.24-.03.34-.13.67-.21,1-.13.8-.42,1.57-.4,2.39.02.52-.21,1.01-.13,1.53-.05.71-.25,1.4-.38,2.1-.07.32-.13.63-.2.95-.1.61-.32,1.2-.3,1.83,0,.09,0,.17,0,.26-.04.5-.23.97-.19,1.48.02.24.06.47.09.71-.06.42.6.41.51.85-.28,1.33-.49,2.68-.97,3.96q-.32.33-.8-.29c-.11-.75.32-1.48.1-2.24.08-.44.25-.87.14-1.34.07-.45.14-.9.22-1.35-.04-.56.27-1.08.22-1.65.12-.66.24-1.32.36-1.98Z"/>
        <path class="cls-210" d="M19.07,196.34c.45-.15.37.45.69.49.11-.04.14-.01.11.1-.02.12-.05.23-.07.35-.03.03-.07.04-.12.05-.02-.17-.12-.25-.3-.24-.1-.25-.46-.39-.32-.74Z"/>
        <path class="cls-34" d="M19.39,197.09c.27-.13.28.06.3.24-.03.12-.03.35-.13.32-.27-.08-.21-.34-.17-.56Z"/>
        <path class="cls-53" d="M19.76,189.76c.04.56-.09,1.11-.22,1.65-.04,0-.09-.02-.13-.03.12-.54.23-1.08.35-1.62Z"/>
        <path class="cls-7" d="M22.65,194.83c-.02.26-.04.52-.06.79-.33.64-.5,1.32-.38,2.04-.16.24-.32.48-.49.72-.29.1-.59.19-.88.29-.09-.14-.08-.28-.01-.42.17-.23.35-.45.46-.71.04-.06.08-.12.13-.17.33-.32.24-.73.26-1.12.08-.45.37-.81.55-1.22.07-.16.17-.35.41-.2Z"/>
        <path class="cls-142" d="M19.87,196.93s-.07-.08-.11-.1c.33-1.45.86-2.86,1.05-4.35-.03-.04-.04-.09-.04-.13.01-.05.02-.07.03-.07.08-.09.18-.14.3-.15.12,0,.23.05.31.14.1.22.27.47-.18.49-.32-.35-.32.02-.36.18-.13.54-.25,1.09-.34,1.64-.13.81-.37,1.59-.67,2.36Z"/>
        <path class="cls-116" d="M21.25,192.76c.3-.12.13-.3.07-.47.22-.19.44-.12.67-.03.07.04.12.09.17.15.01.07,0,.15-.02.21-.17.27-.22.58-.3.88-.02.19-.33.27-.18.52.07.37-.04.58-.46.51-.14-.29-.1-.59-.09-.89.05-.3.1-.59.15-.89Z"/>
        <path class="cls-10" d="M21.47,194.91l.17-.13c.09-.03.15,0,.2.07.04.55-.37,1.04-.23,1.61.04.12.07.24.08.36-.03.25-.04.51-.28.68h0c-.09.04-.18,0-.27,0-.14.06-.21.26-.4.19.07-.37.14-.73.2-1.1.18-.56-.16-1.28.52-1.68Z"/>
        <path class="cls-187" d="M21.47,194.91c-.38.5-.09,1.2-.52,1.68-.27-.35-.3-.75-.26-1.17.05-.51.28-.7.77-.51Z"/>
        <path class="cls-150" d="M20.75,197.69c.24-.12.13-.49.42-.57.08.39.08.76-.21,1.08-.04.16-.08.31-.12.47-.17.07-.35.21-.46-.08.12-.3.25-.6.37-.89Z"/>
        <path class="cls-204" d="M21.76,194.79s-.08-.01-.12-.02c-.15-.03-.31-.07-.46-.1-.04-.05-.04-.09-.02-.12.02-.03.04-.05.06-.04.4-.05.35-.31.27-.58.34-.14.48.08.57.33.09.26-.03.44-.29.53Z"/>
        <path class="cls-57" d="M21.21,194.51c-.01.05-.02.11-.04.16-.26-.32-.24-.67-.08-1.03.04.29.08.58.12.87Z"/>
        <path class="cls-75" d="M32.74,147.68c-.14.24-.04.59-.33.77.09-.69.18-1.37.27-2.06.26-.2.19-.52.3-.77.12.71-.19,1.37-.24,2.06Z"/>
        <path class="cls-231" d="M36.31,120.51c-.22-.06-.45-.11-.67-.17-.15.65-.53,1.24-.5,1.93.02.21-.01.42-.05.63-.5,2.79-1.17,5.55-1.58,8.36-.32,2.15-.6,4.31-1.11,6.43-.26,1.48-.43,2.97-.58,4.46-.03.29-.03.59.31.74.59-1.35.77-2.79.92-4.24-.02-.1-.07-.21-.06-.3.21-1.61.33-3.24.8-4.81.49-1.62.57-3.32.83-4.98.26-1.69.66-3.37.76-5.09.03-.57.1-1.23.41-1.68.27-.4-.19-1.13.52-1.28Z"/>
        <path class="cls-90" d="M32.06,142.86c.42-.41.34-.98.46-1.47.21-.9.36-1.81.54-2.72.48-2.35.95-4.7,1.43-7.05-.01-.08.01-.14.1-.16.03.04.06.07.09.11-.77,3.86-1.55,7.72-2.31,11.59-.1.49-.09.99-.14,1.49.04.33-.1.64-.14.96-.12.21.07.6-.36.63-.29-.43.04-.89-.06-1.33.06-.53.01-1.07.11-1.6.05-.18.12-.35.29-.45Z"/>
        <path class="cls-183" d="M45.79,74.32c.07.33,0,.59-.16.88-.07-.33,0-.59.16-.88Z"/>
        <path class="cls-231" d="M34.58,131.45c-.03.05-.06.11-.1.16-.11-.35-.09-.67.24-.91.02.26-.03.51-.14.74Z"/>
        <path class="cls-101" d="M38.83,100.95c.16-.78.32-1.57.48-2.35.39-1.98.8-3.95,1.16-5.93.25-1.38.66-2.73.75-4.13-.09.36-.19.72-.26,1.08-.6,2.88-1.19,5.76-1.78,8.64-.27.3-.27.69-.34,1.04-.11.52-.21,1.04-.32,1.57.11.03.21.06.32.08Z"/>
        <path class="cls-101" d="M34.73,120.12c-.1.49-.2.98-.28,1.48-.14.88-.49,1.72-.41,2.63.04-.03.09-.05.13-.08.49-1.27.69-2.61.91-3.94-.12-.03-.24-.06-.35-.09Z"/>
        <path class="cls-229" d="M48.75,53.26c-.18-.55-.02-.83.09-1.3.29.51.12.81-.09,1.3Z"/>
        <path class="cls-229" d="M49.15,51.24l.24-1.19s.05.01.08.02l-.25,1.21s-.05-.03-.07-.04Z"/>
        <path class="cls-102" d="M38.51,100.86c.18-.88.36-1.76.54-2.65.04-.69.46-1.34.25-2.06-.32,1.56-.63,3.12-.95,4.67.05.01.1.02.15.03Z"/>
        <path class="cls-133" d="M37.69,120.88c-.25,1.2-.49,2.41-.73,3.61.03.08.07.08.12.02.19-.83.37-1.66.56-2.49.07-.37.14-.73.21-1.1-.05-.01-.1-.03-.15-.04Z"/>
        <path class="cls-68" d="M36.96,124.49h.06s.06.02.06.02c-.3,1.46-.59,2.92-.89,4.38-.04-.01-.07-.02-.11-.04.29-1.45.59-2.91.88-4.36Z"/>
        <path class="cls-44" d="M31.21,136c.22-1.14.43-2.29.65-3.43.09-.36.18-.72.27-1.08.46.5.05,1.01-.01,1.5-.09.72-.49,1.38-.44,2.14.02.34-.14.67-.47.87Z"/>
        <path class="cls-213" d="M35.31,122.19c.19.29.03.57-.02.84-.42,2.1-.9,4.2-1.26,6.31-.48,2.81-.82,5.63-1.41,8.42-.45-.38.03-.72,0-1.02-.32.47-.01,1.21-.47,1.73-.17.13-.29.39-.57.19-.14-.37.06-.7.11-1.05.25-.53.33-1.09.37-1.67.03-.36.02-.74.32-1.01.05-.22-.02-.4-.21-.52-.07-.09-.04-.19-.01-.29.18-.12.45-.14.46-.43.15-.46.05-1.01.46-1.38.03-.15.06-.31.1-.46.02-1.17.44-2.27.63-3.41.26-1.54.61-3.06.92-4.58.06-.61.13-1.21.59-1.68Z"/>
        <path class="cls-118" d="M34.97,123.76c-.51,2.51-1.03,5.02-1.55,7.52-.04.2-.17.38-.25.57-.49-.48-.02-.98-.02-1.47,0-.04.02-.08.02-.11.04-.47.18-.93.14-1.41.03-.22.07-.43.12-.64.12-.59.24-1.18.36-1.77.17-.78.29-1.57.5-2.35.15-.27.34-.46.68-.34Z"/>
        <path class="cls-71" d="M29.92,143.71s-.09,0-.13-.02c.19-1.55.63-3.02,1.23-4.46.32-.52.29-1.14.5-1.69.05.01.09.02.14.03-.04,1-.12,1.99-.36,2.97-.1.45-.17.9-.3,1.34-.18.43-.45.82-.63,1.25-.13.21-.2.47-.45.58Z"/>
        <path class="cls-66" d="M31.02,139.23c-.41,1.49-.82,2.97-1.23,4.46-.3-.13,0-.36-.08-.52.15-.67.3-1.34.45-2,.47-.85.41-1.83.74-2.79.17.3.18.57.12.85Z"/>
        <path class="cls-175" d="M32.37,134.95c-.19.88.04,1.85-.54,2.66-.15-.16-.05-.34-.02-.51-.09.16-.1.36-.29.44,0,0,0,0,0,0-.19-.84.23-1.59.34-2.39.04-.29.3-.23.51-.2Z"/>
        <path class="cls-81" d="M34.5,123.96c-.2.84-.39,1.67-.59,2.51-.22.12.05.58-.39.55.17-.93.34-1.87.51-2.8,0,0,.07,0,.07,0,.08-.1.08-.25.21-.31.07,0,.13,0,.18.05Z"/>
        <path class="cls-65" d="M33.07,132.32c-.11.52-.22,1.05-.32,1.57-.16.1-.32.19-.51.08-.1-.17.07-.35-.04-.52l.04-.18c.27-.3.09-.76.38-1.05.13.14.28.16.46.09Z"/>
        <path class="cls-93" d="M33.54,128.33c-.03.22-.06.44-.09.66-.02.48-.08.96-.3,1.4,0,0,0,0,0,0-.44-.79.08-1.51.15-2.26.17-.04.2.1.25.2Z"/>
        <path class="cls-178" d="M33.54,128.33c-.08-.07-.16-.13-.25-.2.08-.37.16-.73.24-1.1.13-.18.26-.37.39-.55-.13.62-.25,1.23-.38,1.85Z"/>
        <path class="cls-144" d="M32.61,132.23c-.15.34-.02.79-.38,1.05.14-.66.27-1.33.41-1.99.05,0,.11.02.16.03l-.19.91Z"/>
        <path class="cls-144" d="M32.2,133.45c.17.15.08.33.07.5.03.04.04.07.02.1-.02.03-.04.04-.05.04-.02.11-.05.22-.07.33-.28-.33.04-.65.03-.97Z"/>
        <path class="cls-55" d="M26.97,153.54c.43-1.01.84-2.02,1.11-3.09.07-.29.01-.65.34-.85.1-.03.17,0,.22.1.11.37-.01.71-.14,1.05-.32,1.02-.69,2.03-1.03,3.05-.02.17-.02.34-.07.5-.33.59-.4,1.28-.71,1.87-.22.16-.3,0-.37-.17.02-.11.05-.21.07-.32.2-.29.11-.66.31-.95.09-.4.19-.8.28-1.21Z"/>
        <path class="cls-119" d="M25.39,159.74c.21-1.05.34-2.13.76-3.13.24.32.08.65.03.98-.04.31-.15.61-.02.92.03.44-.18.82-.34,1.21-.05.07-.12.11-.21.13-.09,0-.16-.04-.22-.11Z"/>
        <path class="cls-194" d="M26.07,158.56c-.47-.28-.11-.65-.09-.97.02-.33.12-.66.18-.99.05-.2.1-.4.15-.59.09.07.17.14.26.21.05.07.07.14.07.22,0,.08-.03.15-.06.23-.19.47-.24.97-.34,1.47-.03.15-.02.32-.17.42Z"/>
        <path class="cls-123" d="M25.39,159.74l.16.03c.14.96-.12,1.84-.49,2.71-.04.03-.09.05-.13.08-.19-.45.14-.86.1-1.29.12-.51.24-1.02.36-1.52Z"/>
        <path class="cls-153" d="M26.69,154.74c-.08.33,0,.7-.31.95.06-.33.04-.69.31-.95Z"/>
        <path class="cls-158" d="M29.23,146.35c.15-.72.3-1.44.46-2.16.33.07.24.34.26.56-.12.54-.11,1.12-.46,1.6-.08.07-.17.07-.25,0Z"/>
        <path class="cls-50" d="M28.55,149.63s-.09-.02-.14-.03c.05-.27.09-.53.14-.8.21-.55.09-1.2.52-1.67.02.04.05.08.07.12.1.62-.17,1.19-.24,1.79-.06.23-.13.46-.36.59Z"/>
        <path class="cls-66" d="M29.75,144.7c-.03-.17.1-.36-.07-.51.08-.16.15-.32.23-.48.08-.21.06-.45.28-.59.15.12.19.28.18.46-.18.39-.05.96-.63,1.12Z"/>
        <path class="cls-14" d="M28.35,148.25c.06-.25.11-.5.17-.75.23.39-.05.75-.07,1.12-.12-.1-.11-.24-.1-.38Z"/>
        <path class="cls-91" d="M29.23,146.35h.07s.07.03.07.03c.2.27.13.51-.05.75-.08.07-.16.07-.24,0,0,0,0,0,0,0,.05-.26.1-.52.15-.78Z"/>
        <path class="cls-54" d="M31.72,146.21c.25-.13.21-.4.28-.61.06-.05.11-.04.13.04-.06.4-.13.8-.19,1.2.02.56-.27,1.08-.22,1.64-.2,1.56-.39,3.12-.59,4.68.02.67-.32,1.3-.28,1.97-.03.16-.05.31-.08.47-.13.07-.25.04-.35-.06-.12-.25-.06-.51-.01-.76.06-.35.18-.7.16-1.06,0-.08,0-.16,0-.24,0-.08.02-.15.05-.23.15-.49.16-.98.14-1.48,0-.21.03-.42.07-.63.09-.62.33-1.21.26-1.85.15-.97.28-1.94.44-2.9.05-.08.12-.15.21-.19Z"/>
        <path class="cls-47" d="M29.38,163.96c-.29,1.84-.54,3.69-.96,5.5-.29.53-.2,1.16-.47,1.7-.35-.06-.27-.33-.28-.56.05-.34.12-.67.19-1,.25-1.22.5-2.44.74-3.66.1-.46.17-.93.3-1.38.07-.25.07-.61.49-.59Z"/>
        <path class="cls-3" d="M29.38,163.96c-.47.6-.32,1.38-.59,2.03-.11-.01-.18-.07-.22-.18.06-1.52.55-2.96.79-4.45.12-.51.19-1.03.33-1.54.07-.25.07-.61.49-.59-.11,1.6-.49,3.15-.8,4.72Z"/>
        <path class="cls-49" d="M27.9,171.17c.25-.54.11-1.21.52-1.7-.36,1.81-.71,3.63-1.07,5.44-.24.38-.09.89-.42,1.24-.15-.18-.15-.39-.11-.6.24-1.29.49-2.58.77-3.86.05-.21.13-.4.32-.53Z"/>
        <path class="cls-148" d="M30.18,159.24c-.47.65-.36,1.47-.62,2.18-.14-.05-.24-.16-.22-.29.09-.89.16-1.77.54-2.6.25-.4.21-.87.34-1.3.1-.32.07-.69.43-.88-.04.98-.26,1.93-.46,2.89Z"/>
        <path class="cls-3" d="M30.64,156.35c-.17.74-.34,1.48-.52,2.21,0,.01-.05.02-.06.01-.02,0-.04-.03-.06-.05-.16-.23-.1-.47-.07-.71.09-.44.16-.88.28-1.32.07-.25.07-.62.5-.58-.02.14-.04.28-.06.42Z"/>
        <path class="cls-148" d="M30.71,155.93c-.49.59-.34,1.37-.6,2.02-.36-.56-.18-1.72.37-2.4.1.02.19.04.29.06-.02.11-.04.21-.05.32Z"/>
        <path class="cls-148" d="M30.84,155.14c-.16-.69.18-1.32.28-1.97.09.68-.17,1.32-.28,1.97Z"/>
        <path class="cls-206" d="M31.71,148.49c-.16-.58.09-1.1.22-1.64.04.56-.08,1.1-.22,1.64Z"/>
        <path class="cls-206" d="M32.13,145.64s-.09-.03-.13-.04c.07-.32.14-.64.21-.96.05.34.04.68-.09,1Z"/>
        <path class="cls-193" d="M23.17,170.5s.05.01.08.02c.35.28.17.64.11.95-.2,1.09-.44,2.18-.66,3.26-.22,1.08-.41,2.16-.81,3.19-.04.03-.08.07-.11.1-.14-.2-.05-.41,0-.61.47-2.31.93-4.61,1.4-6.92Z"/>
        <path class="cls-4" d="M21.96,178.07c-.24,1.16-.49,2.31-.73,3.47-.06-.03-.09-.07-.08-.14.21-1.12.42-2.25.63-3.37,0,0,.06.02.06.02.05-.07.1-.06.12.02Z"/>
        <path class="cls-127" d="M21.14,181.41s.05.09.08.14c-.18.87-.35,1.75-.53,2.62-.09-.96.26-1.84.45-2.75Z"/>
        <path class="cls-163" d="M22.48,174.75c.26-1.41.51-2.82.77-4.23.41-1.9.81-3.8,1.22-5.7.07-.33.17-.66.25-.99.38.16.23.47.2.74-.05.44-.2.86-.13,1.31-.41,2.32-1.17,4.57-1.52,6.9-.1.46-.17.93-.3,1.39-.07.25-.06.61-.49.59Z"/>
        <path class="cls-125" d="M24.6,165.75c-.22-.66.36-1.26.13-1.92.07-.43.14-.85.21-1.28l.04.02c.36-.91.34-1.92.7-2.84.13-.39.26-.79.4-1.18l-.04-.34c.28-.53.17-1.17.48-1.7,0-.04.03-.08.06-.12.45.28.15.68.15,1.03-.2.83-.3,1.69-.56,2.51-.16.28-.25.59-.3.92-.13.69-.27,1.38-.4,2.07-.14.75-.34,1.49-.49,2.24-.05.23-.11.47-.37.58Z"/>
        <path class="cls-200" d="M27.9,171.17c-.32,1.66-.65,3.32-.97,4.98-.5,2.39-1,4.78-1.5,7.17-.07.33-.06.69-.32.96-.26-.35-.07-.72-.02-1.07.08-.6.32-1.18.27-1.8.04-.67.19-1.32.38-1.96.19-.32.27-.67.33-1.03.05-.27.11-.54.16-.81.25-1.13.39-2.28.83-3.37-.12.2.11.62-.42.52-.12-.28-.06-.57,0-.85.36-1.75.68-3.51,1.09-5.25.31-.64.48-1.32.58-2.02.04-.29.07-.58.39-.71.04.02.08.05.11.09-.25,1.24-.5,2.48-.74,3.72-.18.29-.25.6-.18.93-.02.17-.08.35.04.52Z"/>
        <path class="cls-166" d="M21.53,196.68c-.03-.06-.06-.13-.09-.19.23-1,.61-1.95.98-2.91.2-.51.12-.8-.34-1.03.01-.05.02-.1.03-.15.69-.77.77-1.76.97-2.71.16-.78.3-1.56.49-2.33.08-.31.07-.72.55-.74.36.67-.3,1.17-.29,1.78-.09.26-.04.57-.13.67.03-.09.05-.35.11-.59.11-.24-.03-.57.3-.72.19.75-.15,1.42-.31,2.12-.39,1.65-.77,3.3-1.16,4.95-.39.49-.63,1.05-.85,1.62,0,.18-.08.27-.27.24Z"/>
        <path class="cls-32" d="M23.81,189.88c0-.71.41-1.36.26-2.09-.14-.41.1-.77.14-1.15.31-1.44.59-2.89.9-4.34.07-.33.07-.7.42-.89.13,1-.35,1.9-.42,2.87-.43,1.87-.67,3.78-1.3,5.6Z"/>
        <path class="cls-140" d="M21.63,180.57c.21-1.08.41-2.16.62-3.24-.03-.09-.04-.18-.02-.27.23-.96.46-1.92.63-2.89.02-.24.05-.47.16-.68.39-1.52.63-3.06.97-4.58.13-.59.26-1.17.54-1.71.61.39.33.94.2,1.41-.43,1.58-.79,3.17-1.09,4.77-.29,1.58-.63,3.15-.89,4.73-.21.69-.3,1.41-.3,2.13-.02.08-.05.15-.09.22-.26.23-.3.54-.36.86-.13.29-.01.76-.55.74-.06-.51.25-.97.18-1.48Z"/>
        <path class="cls-209" d="M20.09,191.2c-.1-.55.05-1.07.16-1.59.23-1.11.52-2.21.62-3.34.14-.66.21-1.34.44-1.97.45.09.28.44.26.7-.13,1.45-.37,2.89-.71,4.31-.12.52-.18,1.04-.14,1.58-.08.32.38.71-.1.99-.08,0-.15-.04-.21-.08-.15-.17-.17-.42-.32-.59Z"/>
        <path class="cls-124" d="M22.33,177.16c-.03.06-.06.11-.08.17-.27.18-.2.49-.29.74-.04,0-.08-.02-.12-.02.22-1.1.43-2.2.65-3.31.46-.6.31-1.38.6-2.03.33.29.08.57-.03.85-.05.21-.09.42-.14.63-.06,1.01-.31,1.99-.58,2.97Z"/>
        <path class="cls-162" d="M21.5,182.04c.31-.24.21-.64.36-.94.22.08.26.27.23.45-.15.85-.12,1.74-.57,2.52-.13.12-.25.25-.39.37l.13-1.47c0-.33,0-.66.24-.93Z"/>
        <path class="cls-23" d="M20.94,186.32c0,1.14-.18,2.25-.69,3.29-.01-.05,0-.1.02-.14-.04-.66.3-1.26.27-1.92.06-.32.12-.63.18-.95.12-.06.08-.24.23-.28Z"/>
        <path class="cls-129" d="M20.94,186.32c-.08.09-.15.19-.23.28.14-.72.27-1.44.41-2.16.08-.1.16-.2.23-.3.03.04.05.07.03.1-.01.04-.03.05-.04.05l-.41,2.02Z"/>
        <path class="cls-4" d="M21.5,182.04c-.08.31-.16.62-.24.93-.11-.84.23-1.6.37-2.4.1.5-.15.97-.13,1.47Z"/>
        <path class="cls-209" d="M20.54,187.55c.13.67-.14,1.29-.27,1.92-.05-.66.14-1.29.27-1.92Z"/>
        <path class="cls-209" d="M20.85,192.37s0,.08-.04.11c-.32-.11-.76-.08-.69-.62.08-.08.17-.15.29-.14.03.03.05.06.08.09.13.18.38.29.36.57Z"/>
        <path class="cls-232" d="M20.41,191.71c-.1.05-.2.1-.29.14-.01-.22-.02-.44-.03-.66.28.06.32.27.33.51Z"/>
        <path class="cls-85" d="M21.53,196.68c.09-.08.18-.16.27-.24.12.44.21.87-.39,1.05.04-.27.08-.54.12-.81Z"/>
        <path class="cls-130" d="M20.96,198.19c.07-.36.14-.72.21-1.08.08.13.17.25.25.38-.05.3-.06.63-.46.7Z"/>
        <path class="cls-59" d="M23.49,177.72c.04.29.32.53.02.87-.21.25-.27.63-.19.98.09.38.03.78-.14,1.09-.47.85-.54,1.76-.55,2.72l.21-1.04c.04.65.11,1.31-.51,1.74-.06.04-.11.12-.13.2-.47,2.19-.91,4.39-1.4,6.57-.11.49.5.83.22,1.32-.06.06-.12.13-.18.19-.19-.14-.41-.27-.36-.57.55-.15-.08-.46.09-.67-.09-.88.13-1.72.29-2.58.47-2.41.94-4.82,1.16-7.26.03-.18.08-.36.19-.51.25-.32.35-.1.4.04-.09-.92.24-1.86.47-2.81.04-.17.15-.34.4-.29Z"/>
        <path class="cls-39" d="M22.08,192.56c.26.17.5,0,.87-.07-.45,1.41-.8,2.78-1.51,4.01-.19-.62.15-1.15.32-1.7.31-.42.25-.71-.28-.86-.11-.26.21-.27.25-.44.3-.23.12-.65.35-.91v-.02Z"/>
        <path class="cls-87" d="M22.08,192.58c-.01.34.25.8-.35.91-.09-.38-.02-.71.35-.91Z"/>
        <path class="cls-169" d="M31.99,138.45c.38-.55.35-1.23.6-1.88.16.45-.24.83.03,1.2-.23,1.69-.58,3.38-.56,5.1-.03.16-.07.31-.1.47-.11.07-.22.05-.33-.01-.09-.08-.15-.18-.18-.3-.16-1.52.24-2.98.52-4.46,0-.04.02-.08.02-.11Z"/>
        <path class="cls-17" d="M35.1,120.21c-.3,1.24-.67,2.47-.67,3.77.02-.02.05-.02.08-.02l.46-.2c-.07-.56.32-1.03.34-1.57.17-.6.34-1.2.51-1.8-.24-.06-.48-.12-.72-.18Z"/>
        <path class="cls-88" d="M31.67,143.26c.1.02.19.05.29.07-.04.53-.08,1.06-.13,1.6-.34,1.41-.72,2.82-1.04,4.24-.2.23-.18.7-.66.63-.05-.08-.08-.18-.09-.27.11-.96.31-1.91.58-2.84.41-.86.44-1.82.67-2.73.07-.26,0-.6.38-.7Z"/>
        <path class="cls-31" d="M30.57,149.25c.36-1.46.5-2.98,1.26-4.32.19.45-.1.85-.11,1.28-.01.05-.03.1-.04.15-.37.74-.17,1.61-.52,2.36-.3,1.01-.55,2.03-.6,3.09.02.09.02.18.03.26.11.8.05.86-.59.66-.17-.25-.19-.53-.16-.82.14-.91.34-1.81.73-2.65Z"/>
        <path class="cls-151" d="M34.92,120.16c-.27,1.35-.54,2.71-.81,4.06.1-.08.21-.16.31-.24.27-1.25.54-2.49.81-3.74-.1-.03-.21-.05-.31-.08Z"/>
        <path class="cls-27" d="M31.62,138.71c.12-.09.24-.18.37-.26,0,0,0,0,0,0,0,1.06-.4,2.05-.51,3.1-.01.1-.12.16-.23.2-.42-.51.12-1.02-.01-1.52.13-.5.09-1.05.39-1.51Z"/>
        <path class="cls-111" d="M31.62,138.71c-.11.52-.22,1.04-.33,1.56.06.11.03.21-.02.31-.07.04-.13.04-.19-.01.09-1.02.59-1.97.44-3.02.05-.23.1-.46.36-.59.13.24-.04.44-.05.66-.07.37-.14.74-.21,1.11Z"/>
        <path class="cls-115" d="M32.23,134.09s.02-.09.03-.14c.16-.02.32-.04.48-.06-.05.38-.19.53-.51.2Z"/>
        <path class="cls-111" d="M33.14,130.38c.1-.47.2-.93.3-1.4.11.51.05.99-.3,1.4Z"/>
        <path class="cls-207" d="M31.22,140.55c.02-.1.05-.19.07-.29.22.5-.11.95-.13,1.44.25.5,0,.91-.22,1.33-.08.15-.18.28-.3.39-.1.08-.2.13-.33.06-.13-.09-.11-.23-.11-.36.11-.43.32-.82.58-1.17.32-.41.15-.97.44-1.39Z"/>
        <path class="cls-27" d="M31.22,140.55c-.15.46-.03,1.01-.44,1.39.1-.46.2-.92.3-1.39.05,0,.1,0,.14,0Z"/>
        <path class="cls-143" d="M30.31,143.48c.07-.03.13-.07.2-.1.16-.09.28-.05.37.1.13.4,0,.79-.09,1.17-.17.8-.31,1.6-.34,2.43-.29,1.35-.53,2.72-.85,4.06-.03.09-.06.17-.11.25-.15.23-.32.43-.6.51-.29.01-.51-.12-.69-.32-.11-.31-.02-.59.13-.86.07-.36.14-.73.22-1.09.05-.19.11-.39.16-.58.29-.6.21-1.29.51-1.89.05-.26.1-.52.14-.78.13-.56.26-1.12.39-1.68.19-.41.37-.81.56-1.22Z"/>
        <path class="cls-108" d="M28.1,153.44c-.28.92-.41,1.89-.87,2.75-.5-.19-.19-.62-.28-.93.11-.34.16-.7.35-1.02l-.09-.34c.14-.08.12-.31.31-.34.2-.02.32-.39.58-.13Z"/>
        <path class="cls-20" d="M27.57,153.65c-.14.06-.17.27-.36.26.37-1.06.75-2.12,1.12-3.18.04.28-.23.56,0,.83.03.81-.3,1.48-.78,2.1Z"/>
        <path class="cls-145" d="M27.3,154.24c-.07.38-.13.76-.2,1.14-.06.47-.05.95-.17,1.41-.06.24-.03.56-.4.59-.02-.33.23-.64.03-.97,0-.06,0-.12,0-.19.14-.7.27-1.41.74-1.98Z"/>
        <path class="cls-171" d="M25.67,159.74c-.19.96-.22,1.95-.7,2.84.19-.94.39-1.87.58-2.81.04,0,.08,0,.12-.03Z"/>
        <path class="cls-104" d="M26.51,156.52c-.17.56-.08,1.2-.48,1.7.19-.56.09-1.2.48-1.7Z"/>
        <path class="cls-89" d="M29.22,147.16c-.17.63-.16,1.31-.51,1.89.12-.64.24-1.28.36-1.92,0,0,.07.02.07.02h.08Z"/>
        <path class="cls-203" d="M27.93,168.62c-.04-1.05.31-2.04.48-3.06.61-3.56,1.26-7.12,1.9-10.67.1-.56,0-1.05-.25-1.53.25-.15.45-.09.62.12,0,.05,0,.1,0,.15.1.39-.19.74-.1,1.13-.04.26-.08.52-.12.78-.12.8-.49,1.56-.37,2.4-.04.19-.07.39-.11.58-.18.96-.49,1.89-.43,2.89-.29,1.49-.59,2.99-.88,4.48-.33.88-.22,1.89-.75,2.72Z"/>
        <path class="cls-159" d="M30.69,153.49c-.21-.04-.42-.08-.62-.12-.4-.3-.82-.5-1.3-.25-.21-.23.25-.52-.12-.7-.2.01-.38,0-.36-.27.01-.21.12-.34.35-.3.13.02.25.06.38.02.24-.09.47-.13.72-.05.12.04.21.13.29.23.02.22.03.44.05.66.25.18.62.23.66.64,0,.05-.02.1-.04.15Z"/>
        <path class="cls-154" d="M30.35,152.11c0-.06.02-.11.03-.17.26-.5.14-1.08.33-1.59.1-.52.21-1.03.31-1.55,0-.04.01-.08.02-.12.12-.64.27-1.29.36-1.94.03-.22.08-.34.29-.39-.06,1.01-.23,2-.44,2.99.06.66-.32,1.26-.24,1.92-.04.21-.07.41-.11.62.02.54-.23.45-.54.23Z"/>
        <path class="cls-206" d="M30.35,152.11c.24.06.45.07.54-.23.08.5.13.99-.16,1.45-.22-.21-.44-.42-.66-.64.82.15.27-.35.28-.59Z"/>
        <path class="cls-206" d="M30.99,151.27c-.18-.67.17-1.28.24-1.92.14.67-.16,1.28-.24,1.92Z"/>
        <path class="cls-154" d="M30.59,154.77c-.16-.39.05-.75.1-1.13.19.39-.04.75-.1,1.13Z"/>
        <path class="cls-203" d="M27.86,170.65c-.17-.36-.1-.67.18-.93-.06.31-.12.62-.18.93Z"/>
        <path class="cls-72" d="M23.05,173.57c0-.28.02-.57.03-.85.51-2.32,1.01-4.64,1.52-6.97l.63-2.8c.53-.04.35.35.38.62,0,.08-.03.16-.05.25-.31,1.02-.65,2.03-.73,3.1-.02.12-.06.23-.18.3-.3.18-.26.5-.31.77-.34,1.6-.65,3.19-.99,4.79-.06.27-.02.59-.3.78Z"/>
        <path class="cls-218" d="M25.4,163.67c-.04-.24.23-.56-.17-.72.15-.72.29-1.43.44-2.15.03-.07.08-.09.15-.06-.11-.02.1-.02.04.07-.05.06.03.08.02.03-.03-.26,0-.51.15-.73.18-.65.3-1.32.49-1.97.07-.22,0-.58.41-.54l-.47,2.5c.11.22.12.46.03.68-.29.76-.45,1.55-.62,2.34-.06.25-.11.53-.46.55Z"/>
        <path class="cls-37" d="M26.93,157.6c-.34.7-.61,1.42-.65,2.21,0,.16-.01.32-.18.4-.07.04-.13.03-.2-.01-.03-.07-.02-.14.03-.2.2-.87.4-1.75.6-2.62.41-.6.25-1.37.57-2,.2.25-.13.57.13.81,0,.49-.19.94-.31,1.4Z"/>
        <path class="cls-171" d="M25.94,160c0,.05,0,.11.01.16.03.22.03.44-.16.6-.04.01-.08.03-.12.05.05-.28,0-.6.27-.81Z"/>
        <path class="cls-192" d="M24.37,185.4l1.68-7.47c.15-.03.08-.4.36-.24-.05.26-.1.52-.15.77-.24.26-.11.65-.33.92-.14.67-.27,1.35-.41,2.02-.32,1.5-.63,3-.95,4.49-.06.27-.03.59-.3.79-.08-.11-.04-.23-.01-.35.02-.31.21-.61.11-.94Z"/>
        <path class="cls-63" d="M26.42,177.69c-.12.08-.24.16-.36.24.21-1.04.42-2.08.64-3.13.33-.13.15-.54.48-.79l-.75,3.67Z"/>
        <path class="cls-63" d="M25.93,179.38c.09-.31,0-.69.33-.92-.1.31-.02.68-.33.92Z"/>
        <path class="cls-25" d="M24.32,186.38c-.01.1-.03.21-.04.31-.07.37-.14.73-.21,1.1-.07.25-.14.5-.21.75-.04,0-.07-.01-.11-.02.11-.63.22-1.26.34-1.89.03-.1.06-.19.09-.29.07-.06.11-.05.13.04Z"/>
        <path class="cls-13" d="M23.75,188.52h.05s.05.02.05.02c-.02.28-.03.56-.22.82-.08-.31.04-.57.12-.84Z"/>
        <path class="cls-9" d="M25.4,163.67c.54-1.13.58-2.42,1.05-3.57.09.02.18.04.27.05.15.5-.19.91-.27,1.37-.3,1.64-.63,3.27-.99,4.9-.22,1.06-.43,2.13-.65,3.19-.03.14-.06.29-.09.43-.18.9-.37,1.8-.55,2.7-.16,1-.41,1.98-.61,2.97-.19.89-.37,1.79-.48,2.69-.03.22-.12.4-.24.57-.23.15-.33.05-.31-.18.02-.2.07-.39.05-.59.18-1.38.55-2.73.74-4.09.22-1.55.67-3.04.88-4.58.1-.78.53-1.5.44-2.32.02-.1.04-.21.06-.31.07-.83.42-1.59.55-2.4.04-.25.2-.49.12-.76.03-.02.03-.05.02-.08Z"/>
        <path class="cls-188" d="M22.15,181.22c.07,2.25-.65,4.38-1.04,6.56-.2,1.12-.48,2.22-.53,3.36-.22-.63-.08-1.25.06-1.86.34-1.49.57-3.01.77-4.53.02-.16.04-.31-.06-.45,0-.05,0-.1,0-.15.27-.99.56-1.98.5-3.03.11-.26-.03-.66.42-.72.13.3-.01.56-.12.83Z"/>
        <path class="cls-40" d="M22.15,181.22c.04-.28.08-.55.12-.83.01-.04.03-.08.06-.12.33-.34.19-.84.41-1.22.44-1.05.33-2.21.68-3.28.4.15-.04.5.16.69-.09.42-.15.84-.1,1.27-.47.76-.42,1.66-.66,2.48-.09.3-.13.61-.19.92-.22-.06-.07-.23-.14-.32-.11.14-.23.28-.34.42Z"/>
        <path class="cls-18" d="M22.75,179.05c.21.42-.04.81-.11,1.2-.03.21-.2.06-.3.02-.17-.72,0-1.39.26-2.05.25.24-.13.6.15.83Z"/>
        <path class="cls-190" d="M22.33,177.16c.19-.99.39-1.98.58-2.97.06,1.04-.18,2.02-.58,2.97Z"/>
        <path class="cls-149" d="M23.59,176.45c-.23-.19.02-.49-.16-.69.2-1,.4-1.99.6-2.99.29-.9.45-1.82.58-2.76.02-.12.04-.25.07-.37.31-1.06.52-2.14.66-3.23.46-2.09.73-4.22,1.39-6.27.02-.05.04-.09.06-.14.06-.07.11-.05.14.03-1.11,5.47-2.23,10.94-3.34,16.41Z"/>
        <path class="cls-137" d="M29.05,151.99c-.21.02-.47-.2-.63.1-.13.24.2.18.23.31-.18.34-.37.69-.55,1.03-.28-.2-.2.53-.53.21.26-.7.41-1.44.78-2.1.26-.09.35.22.56.25.17-.02.19.06.14.2Z"/>
        <path class="cls-19" d="M26.93,160.04s-.09-.02-.14-.03c.16-.77.31-1.54.47-2.32.05,0,.09.02.14.03l-.47,2.32Z"/>
        <path class="cls-146" d="M24.32,186.38s-.09-.03-.13-.04c0-.33.07-.64.19-.94.21.34-.02.65-.06.98Z"/>
        <path class="cls-213" d="M30.73,143.09c.21-.44.37-.9.43-1.39.5-.7.4-1.56.63-2.32.09-.3.13-.62.2-.93.25.41.02.84-.06,1.21-.26,1.12-.26,2.27-.4,3.4-.27.06-.53.15-.8.03Z"/>
        <path class="cls-182" d="M30.73,143.09c.26-.09.53-.25.8-.03.05.07.09.13.14.2-.18.88-.35,1.75-.54,2.62-.06.27-.03.6-.31.78-.24-.31-.05-.68-.12-1.01,0-.48.14-.94.21-1.41.05-.29.12-.58-.1-.83-.09-.01-.19-.03-.28-.04.07-.09.14-.19.22-.28Z"/>
        <path class="cls-172" d="M30.79,143.41c.4.11.42.39.36.73-.1.51-.19,1.01-.29,1.52-.09,1.06-.41,2.08-.58,3.12-.05.28-.19.56-.1.86v.16c.11.65-.12,1.25-.31,1.85-.15.16-.34.24-.53.13-.16-.09-.13-.25-.01-.38h0c.46-1.41.71-2.88.91-4.35,0-1.24.41-2.42.55-3.64Z"/>
        <path class="cls-117" d="M29.77,151.67c.14-.62.28-1.24.42-1.86.13-.18.26-.37.39-.55-.18.93-.37,1.86-.55,2.79-.1-.02-.2-.04-.31-.06-.08-.12-.05-.22.05-.32Z"/>
        <path class="cls-100" d="M30.19,149.64c-.2-.67.14-1.27.24-1.91.11-.7.29-1.38.44-2.07.13.34-.06.66-.05,1-.21.99-.41,1.99-.62,2.98Z"/>
        <path class="cls-69" d="M30.83,150.45c-.03.33-.17.65-.08,1,.07.27-.11.44-.37.5-.02-1.14.17-2.23.66-3.26,0,0,.01,0,.01,0,.08.61-.28,1.16-.22,1.77Z"/>
        <path class="cls-100" d="M30.25,147.05c.1,1.17-.38,2.25-.55,3.37-.05.34,0,.75-.36.99.3-1.45.61-2.91.91-4.36Z"/>
        <path class="cls-100" d="M29.77,151.67c-.02.11-.03.21-.05.32-.23-.08-.45-.03-.67,0-.05-.07-.09-.13-.14-.2.14-.13.29-.26.43-.39-.04.39.19.33.43.26Z"/>
        <path class="cls-198" d="M29.42,152.44c.14.02.18.1.16.22-.03.18-.12.3-.32.2-.08-.04-.2-.16-.19-.22.04-.18.23-.15.35-.21Z"/>
        <path class="cls-206" d="M30.83,150.45c-.15-.62.15-1.18.22-1.77.21.63-.15,1.18-.22,1.77Z"/>
        <path class="cls-218" d="M25.38,163.75c-.04,1.09-.32,2.14-.67,3.16-.1-1.12.37-2.13.67-3.16Z"/>
        <path class="cls-29" d="M25.79,160.76c.05-.2.11-.4.16-.6.05.01.1.03.15.05-.08.3-.15.61-.23.91-.03,0-.06,0-.09-.01,0-.12,0-.23.01-.35Z"/>
        <path class="cls-24" d="M25.34,166.42c-.02,1.12-.22,2.2-.66,3.23.22-1.08.44-2.15.66-3.23Z"/>
        <path class="cls-60" d="M24.61,170.02c.01.96-.17,1.88-.58,2.76.19-.92.39-1.84.58-2.76Z"/>
      </g>
      <path class="cls-64" d="M.33,149.28c-1.27,6.58,1.24,13.14,5.78,17.94,4.66,4.92,11.12,7.68,17.49,9.65,3.08.95,4.4-3.88,1.33-4.82-5.33-1.64-10.71-3.84-14.74-7.81-3.52-3.46-6-8.6-5.03-13.62.26-1.32-.37-2.7-1.75-3.08-1.22-.34-2.82.41-3.08,1.75H.33Z"/>
      <path class="cls-64" d="M29.14,177.69c20.36,11.71,47.77,8.59,65.19-7.08,9.81-8.83,15.82-21.26,19.12-33.86,3.85-14.71,4.13-30.05,4.49-45.15.38-15.72,1.29-31.41,2.94-47.06.39-3.71.75-7.43,1.32-11.12.53-3.48,1.3-7,2.99-10.12,2.87-5.27,7.75-9.03,12.99-11.75,12.17-6.31,26.69-7.65,40.13-5.84s27.14,7.3,39.24,14.3c6.05,3.51,11.88,7.41,17.49,11.58,5.19,3.85,10.24,8.1,14.24,13.2,3.57,4.56,6.29,9.97,6.89,15.79.55,5.36-.35,11.01-3.59,15.44-3.63,4.97-9.78,6.89-15.31,8.89-6.07,2.19-11.63,4.94-16.23,9.57-8.66,8.72-12.94,21.77-10.04,33.84,1.48,6.17,4.94,11.95,10.23,15.56,4.91,3.34,11.65,4.44,17.31,2.53,13.02-4.41,13.94-20.85,12.7-32.36-1.36-12.7-6.16-24.98-13.94-35.13-1.97-2.56-4.07-5-6.38-7.26s-5-4.75-7.99-6.32c-6.42-3.37-13.91-1.81-19.75,2.04s-10.09,9.58-15.15,14.35-10.69,9.09-14.83,14.84-6.67,12.6-8.93,19.31c-2.44,7.25-4.49,14.64-6.13,22.11-6.1,27.72-8.35,59.58,7.9,84.43,3.45,5.28,7.65,10.07,12.58,14.02,1.05.84,2.51,1.03,3.54,0,.87-.87,1.06-2.69,0-3.54-9.71-7.77-16.3-18.69-19.9-30.5-4.24-13.9-4.32-28.69-2.68-43.02,1.69-14.8,5.15-29.45,9.99-43.53,2.17-6.3,4.66-12.75,8.89-17.98s9.87-9.32,14.67-14.11,8.76-10.19,14.69-13.31c2.67-1.41,5.75-2.29,8.79-1.97s5.61,2.09,7.86,4.02c9.24,7.94,15.99,18.61,19.47,30.27,1.74,5.82,2.66,11.85,2.68,17.93.02,5.63-.45,11.95-3.84,16.68-3.11,4.35-8.68,5.73-13.72,4.51-5.57-1.35-9.68-5.6-11.9-10.77-4.48-10.47-1.44-23.1,5.9-31.49,3.89-4.45,8.7-7.38,14.21-9.42,5.94-2.21,12.26-4.05,16.96-8.54,8.66-8.28,8.68-22.18,3.75-32.39-5.74-11.88-17.2-20.09-27.84-27.28C207.22,6.55,179.39-4.31,151.45,1.66c-11.92,2.55-25.5,8.52-31.09,20.13-3.16,6.56-3.55,14.14-4.32,21.28-.83,7.66-1.5,15.34-2,23.03-1.01,15.31-.82,30.66-1.87,45.96-.92,13.43-3.24,27.09-9.45,39.18-5.41,10.52-13.59,18.98-24.41,23.91-9.78,4.45-21.17,5.79-31.71,3.75-5.26-1.02-10.29-2.84-14.93-5.51-2.79-1.61-5.32,2.71-2.52,4.32h0Z"/>
      <path class="cls-64" d="M153.47,162.78c-6.11,13.15-7.22,28.37-3.06,42.28,1.18,3.95,2.8,7.77,4.78,11.39,1.55,2.82,5.87.3,4.32-2.52-8.1-14.75-8.82-33.33-1.72-48.62.57-1.22.34-2.69-.9-3.42-1.08-.63-2.85-.33-3.42.9h0Z"/>
    </g>
  </g>
</svg>