<?xml version="1.0" encoding="UTF-8"?>
<svg id="Layer_2" xmlns="http://www.w3.org/2000/svg" viewBox="0 0 428.55 100.2">
  <defs>
    <style>
      .cls-1 {
        fill: #677c4a;
      }

      .cls-2 {
        fill: #36471e;
      }

      .cls-3 {
        fill: #344221;
      }

      .cls-4 {
        fill: #a6bb89;
      }
    </style>
  </defs>
  <g id="Layer_1-2" data-name="Layer_1">
    <g>
      <path class="cls-1" d="M428.55,30.07s-47.78,43.93-79.37,37.76c0,0-25.43-4.98-62.42.59,0,0-109.43,20.28-127.15,5.57,0,0-52.85-18.65-63.96-16.18-6.94,1.54-43.93,8.96-51.63-3.61,0,0,38.53-16.42,103.26-20.28,0,0,55.48-2.31,63.96-3.85,0,0,52.4-13.07,88.64-9.96,0,0,101.7-.05,128.67,9.96Z"/>
      <path class="cls-4" d="M262.81,21.09S245.91-.75,219.71.02c0,0-26.19,15.57-27.74,31.67,0,0,33.02-1.08,70.84-10.6Z"/>
      <path class="cls-4" d="M51.62,51.38S37.08,20.75,2.4,19.63c0,0,13.1,26.85,0,31.74,0,0-5.39,7.21,0,11.06,0,0,34.81-11.49,53.24-1.89l-4.01-9.17Z"/>
      <path class="cls-4" d="M170.84,77.84v22.36s29.19-5.9,38.26-22.98l-38.26.62Z"/>
      <path class="cls-4" d="M304.61,66.42s.64,22.99,9.12,28.39c0,0,30.05-17.72,35.45-26.97,0,0-25.17-12.08-44.57-1.41Z"/>
      <ellipse class="cls-2" cx="369.54" cy="34.63" rx="3.25" ry="4.05"/>
      <polygon class="cls-3" points="120.49 49.49 124.9 45.33 126.6 51.88 132.53 47.23 132.53 51.88 139.25 48.61 139.25 54.16 145.84 54.16 150.02 49.49 154.43 54.17 162.23 51.88 166.98 55.71 173.77 50.52 177.16 55.71 183.27 50.52 186.67 55.71 191.97 49.49 195.15 55.71 203.29 47.91 205.67 54.17 211.78 47.57 217.14 51.88 219.58 46.89 223.92 51.88 227.65 51.88 231.56 45.33 236.28 50.52 241.64 43.86 247.15 49.49 249.11 41.04 253.37 48.37 260.21 45.33 262.81 38.68 267.15 43.86 273.88 38.68 277.95 43.86 286.44 38.68 289.83 43.86 297.97 38.68 301.71 43.86 294.92 51.88 288.81 49.49 282.7 51.88 277.95 49.49 272.18 51.88 268.45 49.49 263.86 54.17 252.49 54.17 247.15 54.17 242.66 58.09 236.28 54.17 231.56 58.09 222.18 59.65 217.14 56.73 214.49 62.44 206.35 59.65 201.26 62.02 196.51 59.65 189.97 62.44 185.65 59.65 179.54 64.47 176.83 59.65 170.84 64.47 167.32 59.65 160.54 62.02 153.75 57.41 145.97 59.65 135.76 56.73 130.67 58.09 129.66 54.17 124.9 56.73 123.55 51.88 119.14 54.17 120.49 49.49"/>
    </g>
  </g>
</svg>