<?xml version="1.0" encoding="UTF-8"?>
<svg id="Layer_2" xmlns="http://www.w3.org/2000/svg" viewBox="0 0 166.75 94.58">
  <defs>
    <style>
      .cls-1 {
        fill: #506b2b;
      }

      .cls-2 {
        fill: #a6bc88;
      }

      .cls-3 {
        fill: #35481d;
      }

      .cls-4 {
        fill: #d2d2cf;
      }

      .cls-5 {
        fill: #bcbbbc;
      }

      .cls-6 {
        fill: #9f9e9d;
      }

      .cls-7 {
        fill: #88a561;
      }

      .cls-8 {
        fill: #6a8f39;
      }
    </style>
  </defs>
  <g id="Layer_2-2" data-name="Layer_2">
    <g>
      <path class="cls-3" d="M158.78,65.95c-3.02,5.78-8.48,8.8-13.8,11.85-27.22,15.66-56.56,19.23-87.28,15.32-9.75-1.24-19.38-2.89-28.88-5.37C14.84,84.1,2.01,69.57.06,55.52c-.49-3.54,2.22-6.26,1.76-9.66,2.53-.87,3.55.39,7.1.32,3.83-.07,6.84,6.65,11.08,1.21.57-.74,1.19.48,1.78.99,4.65,4.04,9.44,3.79,14.22-.71,1.15-1.08,2.45-.66,3.71-.85h-.01c.04,1.77-.24,3.39,2.68,2.05,2.47-1.13,2.98,2.19,4.5,3.29.44.32.2,3.57-2.63,3.72-2.74.15-5.23,1.11-8.19-.19-2.92-1.28-6.69.96-9.74-1.31-1.37,3.65-4.12,1.98-6.67,1.33,2.78,6.19,2.93,6.33,8.31,2.73,2.76-1.85,4.38-2.99,4.15,1.86-.15,3.28,2.76,4.78,5.76,3.38,1.33-.62,2.63-1.47,4.88.09-3.51,1.08-4.85,4.12-7.4,5.87-.72.49-2.29-.02-2.17,1.41.11,1.36,1.34.91,2.31,1.05,1.07.16,1.99,1.19,3.06,1.43,2.42.54,5.72,3.08,5.74-4.03,1.97,5.2,5.09,7.9,8.2,6.37,3.68-1.81-1.89-4.02-1.3-6.55,2.17-.55,2.77,1.57,4.14,2.27,2.44,1.25,5.98.67,6.67-.54,1.77-3.12,5.82-6.46,8.96-4.57,3.83,2.3,5.3-.28,6.83-2.22,1.63-2.06,2.47-3.13,4.08-.18.63,1.15,2.67,2.49,2.92,1.03.65-3.77,3.24-2,4.95-2.31,4.13-.75,8.42-.59,13.47-2.15-3.25-1.26-5.31-2.66-7.75-.44-.89.81-2.82.73-2.47-.88.85-3.85,2.03-7.7,3.69-11.27.56-1.2,3.42-2.49,3.9.72.42,2.76,2.3,4.28,4.34,4.71,2.87.61,2.84,2.25,2.77,4.31-1.2.23-2.65-.54-4.14,1.75,1.84-.91,3.71,1.41,4.12-1.77,2.52-1.34,2.9-4.75,5.8-5.44-.59-2.13-3.35-.05-3.39-2.86,1.95.14,4.12-2.65,4.94-1.88,3.95,3.7,2.59-1.94,4.82-2.08-7.5,0-2.28-6.36-5.69-8.66,2.38.11,4.17-.36,3.76,2.79-.3,2.36,1.58,5.22,3.63,4.5,2.08-.73,2.99.12,4.09.85,1.6,1.07.88,2.37.06,3.84-1.24,2.22-.6,4.42,2.03,4.81,2.78.4,3.15,1.1,1.54,3.31-.85,1.16-.01,2.33.81,3.08,1.28,1.17,1.95-.6,2.94-.86,2.39-.62.27-3.01,1.97-4.33,1.72,3.91,5.3,2.81,7.97,2.38,7.11-1.14,9.76-.38,13.72,5.56-.12.05-.26.08-.35.16-.06.05-.05.18-.07.27l.42-.43c2.13.08,1.91,1.75,2.12,3.14ZM112.97,58.35c-.28-.16-.52-.41-.77-.42-.25,0-.51.23-.77.36.24.15.48.41.73.42.25.01.52-.22.81-.36ZM109.65,60.57c.13-.07.27-.14.4-.22-.12-.09-.23-.26-.35-.27-.13-.01-.27.13-.4.2.12.09.23.19.35.28Z"/>
      <path class="cls-8" d="M158.78,65.95c-.2-1.39.01-3.05-2.12-3.14h0c-3.96-5.93-6.61-6.7-13.72-5.56-2.67.43-6.24,1.53-7.97-2.38-1.69,1.31.42,3.71-1.97,4.33-1,.26-1.67,2.03-2.94.86-.82-.75-1.66-1.92-.81-3.08,1.61-2.2,1.24-2.9-1.54-3.31-2.63-.38-3.27-2.59-2.03-4.81.82-1.47,1.54-2.77-.06-3.84-1.1-.73-2.01-1.58-4.09-.85-2.05.72-3.93-2.14-3.63-4.5.4-3.15-1.38-2.69-3.76-2.79,3.41,2.29-1.81,8.67,5.69,8.66-2.22.15-.87,5.79-4.82,2.08-.82-.77-2.99,2.03-4.94,1.88.04,2.81,2.8.73,3.39,2.86-2.9.69-3.28,4.1-5.8,5.44l.02.03c.07-2.06.1-3.7-2.77-4.31-2.04-.43-3.91-1.95-4.34-4.71-.49-3.21-3.35-1.91-3.9-.72-1.66,3.56-2.84,7.41-3.69,11.27-.36,1.61,1.58,1.69,2.47.88,2.44-2.21,4.5-.82,7.75.44-5.05,1.55-9.34,1.4-13.47,2.15-1.71.31-4.3-1.46-4.95,2.31-.25,1.47-2.3.12-2.92-1.03-1.61-2.95-2.45-1.88-4.08.18-1.53,1.94-3,4.52-6.83,2.22-3.14-1.89-7.19,1.45-8.96,4.57-.69,1.21-4.23,1.78-6.67.54-1.37-.7-1.96-2.82-4.14-2.27-.59,2.54,4.99,4.74,1.3,6.55-3.11,1.53-6.23-1.16-8.2-6.37-.02,7.11-3.32,4.57-5.74,4.03-1.08-.24-1.99-1.28-3.06-1.43-.97-.14-2.19.31-2.31-1.05-.12-1.43,1.45-.92,2.17-1.41,2.54-1.76,3.89-4.79,7.4-5.87-2.25-1.56-3.55-.71-4.88-.09-3,1.4-5.91-.1-5.76-3.38.23-4.85-1.39-3.71-4.15-1.86-5.38,3.6-5.53,3.46-8.31-2.73,2.55.65,5.29,2.31,6.67-1.33,3.05,2.27,6.82.03,9.74,1.31,2.96,1.3,5.46.33,8.19.19,2.84-.15,3.07-3.4,2.63-3.72-1.52-1.1-2.03-4.43-4.5-3.29-2.92,1.34-2.64-.29-2.68-2.07.07-.13.15-.25.22-.38-.07.13-.14.26-.21.39-1.25.19-2.56-.23-3.71.85-4.78,4.5-9.57,4.75-14.22.71-.6-.52-1.21-1.73-1.78-.99-4.24,5.44-7.25-1.28-11.08-1.21-3.55.06-4.57-1.19-7.1-.32.58-4.73,2.6-8.75,5.88-12.17,1.03,1.25,2.17,2.43,3.05,3.78,1.04,1.59,1.87,1.63,2.9.05,2.14-3.27,2.5-1.74,3.69.89.96,2.11,4.3,5.84,4.8,5.26,3.95-4.58,9.77,2.51,13.24-2.48,4.76,2.6,3.64-1.63,3.17-3.23-1.27-4.28,1.25-5.09,3.96-4,5.8,2.33,10.17-2.81,15.49-2.26-.15,2.08-1.15,4.41,1.38,5.76,1.16.62,2.55.1,3.18-.8,1.77-2.54-2.52-2.34-2.3-4.56,2.72-.5,4.98.34,6.94,1.93.86.7,1.36,2.21,2.55.43.81-1.21.32-2.26-.57-3.11-.97-.93-2.72-.11-3.55-1.47l.13-.13c2.32.02,4.63.04,6.95.06.13.08.26.15.39.23-.13-.07-.27-.14-.4-.21.07-6.28,4.55-.9,6.88-2.24,1.82-1.05,4.47,3.34,6.8,4.69,2.24,1.29,4.94-4.16,8.87-1.89,1.28.74,3.23.35,4.87.4,1.01.03,2.07-.11,2.36-1.32.26-1.12.55-2.4-.58-3.19-.93-.65-2.2-.86-2.34-2.28l.28-.29c1.79.34,5.47,1.17,4.82-.44-1.26-3.14-.56-3.99,1.87-2.92,1.98.87,3.79-3.45,5.85.6.93,1.83,4.63,3.43,7.9,2.97.96-.14,3.27-.22,2.66,1.07-1.92,4.03,1.45,2.52,2.79,3.01,2.76,1.01,7.03,1.04,3.19,5.74-.31.38-.12,1.82.02,1.85,3.84.8,3.9,5.77,7.08,6.76,5.19,1.62,8.06,6.67,12.93,8.28,2.36.78,5.4,3.27,8.06-.03.69-.86,1.41-2.01,2.86-1.48,1.51.55,1.78,1.85,1.76,3.25-.03,2.06.31,3.98,1.93,5.45-1.01,3.05-2.37,5.91-4.77,8.15ZM101.69,36.84c-2.39.1-3.39,2.23-5.14,3.38q4.99,2.15,5.11-3.41c.08-.13.16-.26.24-.38-.07.14-.14.27-.21.41ZM79.96,34.9c-3.8-1.97-5.48-1.16-8.07,1.3-2.86,2.71-4.81,7.84-10.39,6.92-.48-.08-1.35.95-1.69,1.63-.58,1.21-2.15,2.78,0,3.75,1.45.65,2.64-.41,2.53-2.06-.11-1.55.7-1.88,1.73-1.39,2.33,1.11,3.61-.82,5.39-1.43,4.53-1.55,5.82-6.54,10.5-8.73ZM111.08,36.1c.28.12.55.24.83.36.12-.28.39-.61.32-.81-.07-.2-.57-.41-.76-.33-.2.08-.26.51-.38.78ZM105.97,38.36c-.28-.16-.52-.4-.76-.41-.25,0-.51.22-.77.35.24.15.48.4.73.41.25.01.52-.21.81-.35ZM59.33,68.49c-.11.02-.27.01-.32.08-.07.1-.06.26-.09.39.18-.04.37-.07.55-.11-.05-.12-.09-.24-.14-.36Z"/>
      <path class="cls-7" d="M99.54,23.99c.15,1.42,1.42,1.64,2.34,2.28,1.13.79.84,2.07.58,3.19-.29,1.21-1.35,1.35-2.36,1.32-1.65-.05-3.6.34-4.87-.4-3.92-2.27-6.63,3.19-8.87,1.89-2.33-1.34-4.98-5.73-6.8-4.69-2.33,1.34-6.8-4.04-6.88,2.24h.01c-2.32-.03-4.63-.05-6.95-.07-.17-.12-.34-.24-.5-.37l.37.5c.83,1.37,2.58.55,3.55,1.47.89.85,1.38,1.9.57,3.11-1.19,1.78-1.69.27-2.55-.43-1.96-1.59-4.22-2.43-6.94-1.93-.22,2.22,4.07,2.02,2.3,4.56-.62.89-2.02,1.42-3.18.8-2.52-1.36-1.53-3.69-1.38-5.76-5.32-.55-9.69,4.58-15.49,2.26-2.72-1.09-5.23-.28-3.96,4,.48,1.6,1.6,5.83-3.17,3.23-3.47,4.99-9.29-2.11-13.24,2.48-.5.58-3.84-3.15-4.8-5.26-1.19-2.63-1.55-4.15-3.69-.89-1.03,1.58-1.86,1.54-2.9-.05-.88-1.35-2.02-2.52-3.05-3.78,3.15-4.33,7.32-7.42,11.99-9.9,1.33,5.17,5.52,4.97,8.86,3.59,3.17-1.3,3.3-.62,3.1,2.06-.08,1.02-1.47,2.3.12,3.04,1.36.64,3.18-.3,3.42-1.29,1.38-5.75,5.49-3.72,8.9-3.25,2.39.33,6.24,1.91,6.5-.66.37-3.6-3.45-1.06-5.37-1.55-1.48-.38-3.88-.2-4.01-2.1-.12-1.87,1.98-1.76,3.46-1.81l.04.04c.56,2.79,2.29,2.28,3.47.82,3.12-3.89,7.16-5.64,11.98-5.8,2.53-.08,3.61-1.98,4.06-3.73.48-1.83-1.38-2.72-3.03-3.31-.94-.34-2.26-.27-2.43-1.85,2.55-.1,4.86-.42,7.12,1.43,2.45,2.01,5.29,2.92,7.23-1.03.31-.63,1.21-1.24,1.92-1.35,4.43-.71,8.79-3.62,13.38-.14,1.39,1.06,4.04,1.85,5.17.8,2.6-2.41,4.81-.34,7.04-.5,8.34-.59,14.12,6.03,21.84,6.51,1.96.12,2.07,1.74,2.38,3.25.87,4.32,5.19,6.14,7.19,9.68.38.67,1.69.91,2.63,1.16,2.21.59,6.06-1.67,5.63,3.43-.05.59,1.13.53,1.71.19,3.93-2.33,5.84.18,7.84,3.04,1.97,2.83,4.01,5.63,8.26,5.21,2.6-.26.45,1.38.56,2.13-.86.95-3.61,1.25-1.34,3.3.94.85,2.5,3.18,3.31-.26,1.69.67,3.37,1.33,5.06,2-.04,3.79.19,7.64-2.17,10.97-1.62-1.47-1.96-3.38-1.93-5.45.02-1.4-.26-2.7-1.76-3.25-1.44-.53-2.16.62-2.86,1.48-2.66,3.3-5.71.81-8.06.03-4.87-1.61-7.74-6.66-12.93-8.28-3.18-.99-3.24-5.96-7.08-6.76-.15-.03-.34-1.46-.02-1.85,3.84-4.7-.43-4.73-3.19-5.74-1.34-.49-4.7,1.01-2.79-3.01.61-1.28-1.7-1.2-2.66-1.07-3.27.46-6.97-1.14-7.9-2.97-2.06-4.05-3.87.27-5.85-.6-2.43-1.06-3.14-.22-1.87,2.92.65,1.61-3.03.78-4.82.45-.24-1.19.12-2.87-1.96-2.62-.36.04-.89.57-.93.92-.27,2.09,1.45,1.69,2.61,1.98Z"/>
      <path class="cls-2" d="M158.68,41.78c-.12-.75,2.04-2.39-.56-2.13-4.25.42-6.29-2.38-8.26-5.21-2-2.86-3.9-5.37-7.84-3.04-.58.34-1.76.41-1.71-.19.43-5.1-3.42-2.84-5.63-3.43-.93-.25-2.25-.48-2.63-1.16-2-3.54-6.32-5.37-7.19-9.68-.3-1.51-.42-3.13-2.38-3.25-7.72-.47-13.51-7.1-21.84-6.51-2.23.16-4.44-1.91-7.04.5-1.13,1.05-3.78.26-5.17-.8-4.59-3.49-8.95-.57-13.38.14-.71.11-1.62.72-1.92,1.35-1.94,3.96-4.77,3.05-7.23,1.03-2.26-1.85-4.57-1.53-7.12-1.43.17,1.58,1.49,1.51,2.43,1.85,1.64.59,3.5,1.48,3.03,3.31-.46,1.75-1.53,3.65-4.06,3.73-4.81.16-8.85,1.92-11.98,5.8-1.18,1.47-2.91,1.97-3.47-.82.07-.15.14-.31.21-.46-.08.14-.17.28-.25.42-1.48.06-3.59-.06-3.46,1.81.13,1.91,2.52,1.73,4.01,2.1,1.92.49,5.73-2.05,5.37,1.55-.26,2.57-4.1.99-6.5.66-3.41-.47-7.52-2.5-8.9,3.25-.24.99-2.06,1.93-3.42,1.29-1.59-.74-.2-2.02-.12-3.04.2-2.67.06-3.36-3.1-2.06-3.34,1.38-7.54,1.58-8.86-3.59,7.66-6.46,16.93-9.66,26.15-13.04C63.54,4.27,81.67-.56,100.59.05c14.72.48,29.41,2.35,42.64,10.04,12.52,7.28,21.17,17.26,23.27,32.03.23,1.59.69,3.34-.78,4.7-1.68-.67-3.37-1.33-5.05-2-.02-.32-.03-.65-.03-.97.02-1.32-.64-1.99-1.94-2.05v-.02ZM131.7,17.4c3.72-.58,7.2,2.32,11.94.91-4.53-.81-8.01-2.77-11.94-.91Z"/>
      <path class="cls-5" d="M107.67,57.8c-.41,3.18-2.28.86-4.12,1.77,1.49-2.29,2.94-1.52,4.14-1.75,0,0-.02-.03-.02-.03Z"/>
      <path class="cls-5" d="M112.97,58.35c-.29.14-.56.37-.81.36-.25-.01-.49-.27-.73-.42.26-.13.52-.36.77-.36.25,0,.49.26.77.42Z"/>
      <path class="cls-5" d="M109.65,60.57c-.12-.09-.23-.19-.35-.28.13-.07.27-.21.4-.2.12.01.24.17.35.27-.13.07-.27.14-.4.22Z"/>
      <path class="cls-5" d="M156.66,62.81l-.42.43c.02-.09.01-.22.07-.27.09-.08.23-.11.35-.16h0Z"/>
      <path class="cls-1" d="M79.96,34.9c-4.68,2.18-5.97,7.17-10.5,8.73-1.78.61-3.07,2.54-5.39,1.43-1.03-.49-1.83-.16-1.73,1.39.11,1.65-1.08,2.71-2.53,2.06-2.15-.96-.58-2.54,0-3.75.33-.69,1.21-1.71,1.69-1.63,5.58.92,7.53-4.21,10.39-6.92,2.6-2.46,4.27-3.26,8.07-1.3Z"/>
      <path class="cls-6" d="M101.67,36.82q-.12,5.56-5.11,3.41c1.74-1.16,2.75-3.29,5.14-3.38l-.02-.02Z"/>
      <path class="cls-6" d="M111.08,36.09c.12-.28.18-.7.38-.78.2-.08.69.14.76.33.08.2-.2.53-.32.81-.28-.12-.55-.24-.83-.36Z"/>
      <path class="cls-6" d="M105.97,38.36c-.29.14-.56.36-.81.35-.25-.01-.48-.26-.73-.41.26-.13.52-.35.77-.35.25,0,.49.25.76.41Z"/>
      <path class="cls-6" d="M59.33,68.49c.05.12.09.24.14.36-.18.04-.37.07-.55.11.03-.13.02-.29.09-.39.05-.07.21-.06.32-.08Z"/>
      <path class="cls-6" d="M39.72,46.83c.07-.13.14-.26.21-.39-.07.13-.15.25-.22.38,0,0,.01.01.01.01Z"/>
      <path class="cls-6" d="M101.69,36.84c.07-.14.14-.27.21-.41-.08.13-.16.26-.24.38,0,0,.02.02.02.02Z"/>
      <path class="cls-4" d="M72.69,29.84c.13.07.27.14.4.21-.13-.08-.26-.15-.39-.23,0,0-.01.01-.01.01Z"/>
      <path class="cls-7" d="M160.63,43.85c0,.32,0,.65.03.97-.81,3.44-2.38,1.11-3.31.26-2.27-2.05.48-2.35,1.34-3.3,0,0,.01.02.01.02-.02,1.32.64,1.99,1.94,2.05Z"/>
      <path class="cls-5" d="M99.54,23.99c-1.16-.29-2.88.11-2.61-1.98.05-.36.58-.88.93-.92,2.08-.25,1.72,1.42,1.96,2.62,0,0-.28.28-.28.28Z"/>
      <path class="cls-5" d="M65.62,29.9l-.37-.5c.17.12.34.24.5.37,0,0-.13.13-.13.13Z"/>
      <path class="cls-2" d="M131.7,17.4c3.94-1.85,7.41.1,11.94.91-4.74,1.4-8.22-1.5-11.94-.91Z"/>
      <path class="cls-2" d="M160.63,43.85c-1.31-.06-1.96-.73-1.94-2.05,1.3.06,1.96.73,1.94,2.05Z"/>
      <path class="cls-4" d="M44.69,21.81c.08-.14.17-.28.25-.42-.07.15-.14.31-.21.46,0,0-.04-.04-.04-.04Z"/>
    </g>
  </g>
</svg>