<?xml version="1.0" encoding="UTF-8"?>
<svg id="Layer_2" xmlns="http://www.w3.org/2000/svg" viewBox="0 0 131.53 90.96">
  <defs>
    <style>
      .cls-1 {
        fill: #a6bc88;
      }

      .cls-2 {
        fill: #b5aca5;
      }

      .cls-3 {
        fill: #7b7773;
      }

      .cls-4 {
        fill: #fefefe;
      }

      .cls-5 {
        fill: #6a8f39;
      }
    </style>
  </defs>
  <g id="Layer_2-2" data-name="Layer_2">
    <g>
      <path class="cls-1" d="M.21,41.28c.43.56.93,1.11.08,1.73-.49-.55-.27-1.14-.08-1.73Z"/>
      <path class="cls-1" d="M4.54,25.04c.16.4,0,.61-.4.68-.06-.34.09-.56.4-.68Z"/>
      <path class="cls-1" d="M5.78,35.77c-.51-.03-.82-.29-.76-.72.09-.66.64-1.04,1.17-1.32.08-.04.73.55.76.88.07.77-.73.84-1.16,1.16Z"/>
      <path class="cls-1" d="M5.15,33.53s-.06.02-.09.03c0-.03-.03-.07-.02-.1,0-.01.05-.02.08-.03,0,.03.02.07.03.1Z"/>
      <g>
        <path class="cls-4" d="M8.13,21.34c-.15-.14-.29-.14-.44,0-1.5.82-2.31,2.23-3.11,3.64l-.04.05c-.31.13-.46.34-.4.68-1.41,1.92-2.42,4.03-3.1,6.31-1.08,2.42-1.2,4.94-.81,7.52,0,.57-.01,1.15-.02,1.72-.19.59-.4,1.17.08,1.73.08,1.57.43,3.18,1.1,4.49,1.58,3.08,3.48,6.01,5.54,8.82.04.62-.08,1.31.16,1.85.96,2.22,1.05,4.54,1.05,6.9,0,1.32.26,2.65.44,3.97.2,1.47,1.45,2.21,2.32,3.21,1.44,1.66,2.33,3.81,4.39,4.92.67.36,1.47.61,1.95,1.14,2.53,2.84,6.18,3.92,9.2,5.99,1.66,1.14,3.72,1.5,5.63,2.11,2.04.65,4.12,1.25,6.23,1.58,4.57.72,9.13,1.5,13.76,1.86,4.5.35,8.94,1.12,13.5,1.12,6.86,0,13.56-.91,20.25-2.32,2.98-.63,6.04-.87,9.07-1.2,4.78-.52,9.34-1.66,13.45-4.26.4-.25.85-.51,1.3-.57.85-.11,1.32-.62,1.84-1.22.86-1,1.73-2.08,2.82-2.79,1.54-1.01,2.38-2.43,3.26-3.93.95-1.61,1.17-3.54,2.68-4.95,1.04-.98,1.74-2.47,1.63-4.14-.12-1.81-.29-3.67-.18-5.43.17-2.74,1.35-5.3,3.08-7.51,1.51-1.92,2.87-3.96,3.93-6.14.61-1.25,1.71-2.51,1.09-4.14.39-1.53.78-3.06,1.17-4.59.1-.56.58-1.09.13-1.69.88-3.35.39-6.61-.91-9.72-3.66-8.73-10.43-14.55-18.39-19.16-2.14-1.24-4.37-2.45-6.96-2.59-1.13-1.09-2.58-1.29-4.05-1.43-.49-.24-1.01-.35-1.55-.34-.13-.17-.29-.26-.51-.18-.38-.09-.76-.18-1.14-.28-.25-.36-.57-.34-.92-.19-.17-.04-.35-.07-.52-.11-.15-.27-.37-.29-.63-.18-.66-.12-1.31-.25-1.97-.37-.17-.26-.37-.33-.64-.14-.27-.06-.54-.11-.8-.17-.26-.34-.58-.33-.92-.16-2.27-.41-4.55-.71-6.86-.73-.27-.3-.56-.32-.86-.04-.58,0-1.15-.01-1.73-.02-1.26-.38-2.54-.28-3.81-.13-2.87-.23-5.73.06-8.6.07-.58-.3-1.16-.3-1.74.02-.48,0-.96.01-1.44.02-.69-.3-1.36-.32-2.01.09-.66.03-1.32.05-1.97.08-.8-.11-1.61-.3-2.35.22-.28.02-.55.05-.83.07-1.37-.04-2.75-.32-4.09.21-.85-.02-1.7-.07-2.53.14-.43-.18-.85-.25-1.21.14-.27.04-.54.09-.81.13-.51-.22-.94-.14-1.26.35-.74.07-1.48.13-2.22.2-.91-.77-1.73.14-2.59.19-1.8.1-3.63.25-5.34.96-1.12,0-2.12.47-3.18.72-5.95,1.42-11.41,3.91-16.37,7.49-1.14.64-2.34,1.21-3.12,2.34-2.83,1.84-5.54,3.81-7.7,6.44-.29.36-.93.65-.46,1.3h.03Z"/>
        <path class="cls-5" d="M104.83,4.61c2.59.14,4.81,1.35,6.96,2.59,7.96,4.61,14.73,10.43,18.39,19.16,1.3,3.11,1.78,6.37.91,9.72-.56.49-1.3-.27-1.88.3-.89.88-2.18,1.33-2.72,2.62-.24.57-.81.88-1.37,1.19-.9.51-1.74,1.13-2.23,2.09-.19.38-.85.78-.24,1.2.51.34.85-.25,1.16-.58,2.04-2.19,4.55-3.72,7.15-5.13-.39,1.53-.78,3.06-1.17,4.59-.48.09-.6.51-.61.86-.01.96-.44,1.74-.92,2.51-3.55,5.76-8.04,10.71-13.23,15-2.92,2.41-5.79,4.84-8.36,7.63-3.23,3.5-7.47,5.68-11.37,8.28-2.23,1.48-4.35,3.13-6.83,4.3-3.6,1.69-6.85,4.07-10.64,5.47-3.91,1.44-7.93,2.22-12.05,2.14-5.38-.11-10.79.66-16.13-.78-3.62-.98-7.41-1.05-11.1-1.95-7.31-1.8-13.34-5.38-18.39-10.93-3-3.29-5.18-6.91-6.33-11.19-.52-1.92.29-4.8,2.07-5.69,1.36-.68,1.25-2.75,3.04-2.81.01,0,.01-.17.02-.26.14-1.1.99-1.77,1.79-2.23,2.31-1.34,3.98-3.28,5.58-5.33.37-.17.52-.5.63-.86.8-.16,1.52-.42,2.1-1.09,2.75-3.17,6.31-5.37,9.63-7.84,1.37-1.02,2.64-2.13,3.98-3.18,1.92-1.5,3.85-2.95,6.06-3.99.54-.25.8-.2,1.11.35.65,1.13,1.06,2.33,1.3,3.6.05.26.33.59-.04.75-.41.19-.75.03-.84-.47.15-.07.36-.11.44-.23.08-.13-.08-.3-.21-.21-.12.08-.16.29-.23.44-.23.06-.47.09-.69.18-.44.19-1.21-.07-1.22.7,0,.56.2,1.11.88,1.3.24.07.24.52.66.51.08-.14.16-.31.27-.46.16-.23-.25-.66.17-.72.6-.09.28.41.37.68.14.45.54.75.96.76.69.03-.02-.91.58-1.03.84.33,1.31,1.12,1.55,1.79.47,1.32,1.44,1.93,2.57,2.46.31.15.61.33.72.66.66,1.92,1.39,3.62,3.3,4.91,1.16.79,2.08,2.23,3.35,3.14.57.41.57,1.07.3,1.56-.4.73-.88,1.51-1.52,2.01-1.31,1.03-1.94,2.56-3.04,3.73-.67.01-1.13.29-1.38,1.19.67-.37,1.31-.4,1.42-1.15.6.34,1.21.57,1.59-.26.88-1.91,2.43-3.18,4.02-4.46.68-.55.92-.37,1.46.2.83.89,1.45,2.02,2.63,2.56.11.18.21.37.32.56.07.22.15.45.44.4.05,0,.13-.19.11-.21-.11-.13-.24-.23-.37-.34-.11-.18-.22-.36-.34-.55-.67-2.08-1.93-3.7-3.81-4.84-.89-.54-1.64-1.43-2.07-2.2-.66-1.17-.95-2.63-1.63-3.82-.82-1.41.2-1.51,1.01-1.9.88-.42.92.66,1.48.8.94.24,1.24.67.42,1.45-.27.26-.43.73.13.68,1.35-.11,2.44,1.09,3.81.66-.04.49.31.76.63,1.03.97.84.91,1.62-.08,2.38-.53.17-.78.56-1.03,1.07.49.07.82.51,1.26.19-.04-.4-.07-.77-.1-1.15,1.67-.14,1.16,1.76,2.15,2.29.32-.8-.33-1.36-.52-2.02-.28-.97-.13-1.51.97-1.5,1.35.02,2.59-.3,3.67-1.14.02.04.02.08.05.11.02.02.06.01.09.01-.05-.04-.09-.08-.14-.12-.27-1.11.86-1.19,1.34-1.73.25-.28.49-.49.34-.82-.2-.43-.45-.02-.7.02-.93.15-1.84.14-2.7-.38-1.57-.94-3.43-1.34-4.83-2.6-.23-.21-.5-.36-.76-.14-.25.21.01.42.1.62.32.75.82,1.39,1.23,2.04.6.96,1.05.88,1.79.56.52-.23,1.04-.25,1.55-.11.73.21.66.87.63,1.44-.02.42-.24.8-.7.77-.64-.05-.38-.66-.51-1.03-.08-.22-.13-.47-.54-.46-.13.59-1.32.66-.78,1.66.13.24.31.56-.1.71-.35.12-.52-.17-.65-.43-.35-.68-.87-1.13-1.63-1.27-.43-1.61-1.89-2.48-2.91-3.54-1.55-1.6-3.73-2.54-5.13-4.43-.38-.5-.64-.82-.51-1.45.12-.6.13-1.22.18-1.83h0c.69-.31,1.22-.27,1.65.49.74,1.3,2.01,1.78,3.42,2,.23.04.46.19.6-.1.05-.1,0-.34-.07-.39-1.05-.64-1.58-1.93-2.8-2.31-1.53-.47-2.4-2.36-1.86-3.93.08-.24.24-.88-.07-1.17-.86-.79-.26-.91.41-.95.52-.03,1.11-.07,1.55.15,1.19.61,1.77-.19,2.63-.9q-2.68.23-2.76-.96c1.02.26,3.3-.64,3.89-1.54.25-.34.58-.28.91-.17.05,1.41-1.29,2.27-1.34,3.74,1.2-.13,1.91,1.28,3.26,1.22.35-.01.65.19.69-.34.03-.4-.12-.33-.49-.34-.87-.03.01-.84-.38-1.17-.23-.19-.22-.55.08-.49,1,.19,1.44-.81,2.25-.94.43-.07.63-.26.48-.66-.14-.38-.26-.96-.86-.66-.33.16-.37.23-.56-.15-.44-.88-1.11-1.72.44-2.21.29-.09.52-.42.55-.79.17-.02.34-.05.51-.07.65.53,1.81-.15,2.04-1.2.1-.1.2-.19.31-.29.24.03.44-.02.54-.26.48-.1.89-.44,1.42-.37.71.31,1.38.49,1.83-.4.11-.03.21-.06.32-.08.77-.31,1.36-.08,1.78.8.36-.9-.28-2.37,1.46-1.89.16.04.19-.39.16-.63.27-.03.55-.06.82-.09.01.04.01.09.04.13.01.02.06.02.1.03l-.15-.15c-.02-.5.49-.54.72-.82.64.19,1.31-.53,1.8-.2,1.12.74,1.92.06,2.72-.44,2.12-1.34,4.49-1.74,6.91-1.99h-.01c.05,1.49.77,2.89.67,4.44-.04.6.4,1.24.67,1.84.12.26.42.44.72.26.28-.17.16-.42,0-.61-1.07-1.26-.32-2.99-1.13-4.33-.11-.18-.05-.5.21-.62.27-.12.44.03.53.31.47,1.49,1.76,2.44,2.65,3.61.91,1.2,1.63,2.53,2.33,3.79.45.81,1.34,1.4,1.48,2.56.06.48.78,2.29,2.27,1.69.52-.21,1.07-.17,1.65-.5-1.08-.34-2.28-.5-2.21-1.98,0-.05-.16-.16-.17-.15-1,.84-.87-.38-1.2-.68-1.09-1.01-1.22-2.58-2.08-3.71-1.51-1.99-3.52-3.59-4.54-5.96-.18-.41-.77-.79-.46-1.23.35-.48.58.32.93.29.23-.02.51-.09.65-.25,1.07-1.16,2.51-1.24,3.91-1.36.87-.07,1.75-.13,2.49-.59,1.53-.94,3.25-.81,4.85-.72,1.58.09,3.09.14,5.06-.4-.88-.3-1.39-.5-1.92-.65-.98-.28-2.1.15-2.93-.14-2.37-.83-4.67-.48-6.91.16-1.06.3-2.41-.15-3.21.99-.88-.03-1.78-.27-2.64.13-1.2.39-2.08.06-2.42-1.2-.36-1.36.66-1.33,1.54-1.41.26-.02.46-.19.51-.44.02-.09-.15-.32-.21-.31-1.01.09-1.97-.63-2.87-.41-.97.23-1.38,0-1.7-.81-.17-.44-.43-.82-.94-1.07.79-.16,1.56.1,2.15-.49.17-.17.42-.16.66-.01,1.51.94,1.5.74,2.88.68,2.75-.12,5.51,0,8.27,0ZM77.96,44.17c.05.04.1.09.16.13-.05-.05-.09-.1-.14-.15-.05-.04-.1-.08-.14-.13.04.05.08.1.12.15ZM75.37,59.44l.28-.05s-.05-.09-.07-.13c-.07.06-.13.13-.2.19-.02.03-.05.06-.07.09.02-.03.04-.07.06-.1ZM69.89,31.47c-.23.03-.48.03-.45.37,0,.03.06.09.1.09.34.01.33-.25.34-.47.03-.01.07-.02.1-.04.02-.01.02-.05.02-.07-.04.04-.08.08-.12.12ZM105.67,19.06c-.03-.3-.11-.56-.49-.53-.15.01-.29.1-.22.26.14.33.46.24.73.25.03.41.23.68.64.47.28-.14.31-.55.11-.76-.42-.45-.47.28-.76.3ZM109.72,58.01c-.9-.02-1.1.5-1.03,1.59.48-.68.94-1,1.01-1.61.54-.05.59-.44.58-.86,1.32,0,1.12-1.39,1.81-1.99,2.17-1.88,3.89-4.18,5.79-6.31.78-.87,1.64-1.85,2.68-2.25.97-.38,1.1-1.09,1.49-1.75.07-.12.03-.41-.07-.52-.21-.24-.46-.06-.6.11-.98,1.19-2.43,1.93-3.33,3.15-1.47,2-3.51,3.44-4.99,5.42-1,1.33-3.06,1.95-2.77,4.14-.4.15-.58.45-.57.87ZM81.14,23.96c-.03-.12-.07-.25-.1-.37-.04.02-.07.05-.11.07.07.1.14.2.21.3.18.88.86.5,1.36.5.19,0,.31-.22.19-.42-.38-.6-.85.01-1.27-.08-.09-.02-.19,0-.28,0ZM114.34,28.87c-.52-.22-1.11-.34-1.53-.68-.57-.45-1.06-.93-1.86-.76-.17.04-.43,0-.42.25.01.16.14.4.28.46,1.14.47,2.19,1.27,3.54,1.01.04.03.07.05.11.08-.04-.02-.08-.04-.12-.06,0-.1,0-.2,0-.3.48-.09,1.2.06,1.02-.78-.09-.44-.37-1.07-.93-.87-.68.24.12.81-.06,1.24-.05.12-.01.28-.02.43ZM110.86,23.68c0-.19,0-.39-.21-.47-.04-.02-.12.07-.18.11.13.12.27.24.4.36.11.48-.46.48-.59.82,1.81-.24,2.09,2.01,3.75,2.07-.92-1.01-1.58-2.25-2.88-2.89-.08-.04-.19,0-.28,0ZM106.84,55.11c.02.29.05.58.08,1.03.27-.5.21-.79-.1-1.02-.45-1.04-.86-2.12-2.53-2.62.87.92,1.49,1.52.69,2.5-.27.33.43.64.84.53.34-.09.58-.49,1.02-.42ZM39.01,46.47c-.36-.19-.2-.66-.41-.86-.46-.42-1.14-.82-1.65-.42-.51.41.73.49.46,1.05,1.04.11.27,1.75,1.57,1.75-.62-.57.67-.96.03-1.53.41-.07.82-.14,1.02-.59-.79-.52-.98-.08-1.01.6ZM36.13,47.61s.07.04.1.06c-.04-.02-.08-.03-.11-.05,0-.48,0-.97,0-1.45.04-.01.08-.02.11-.04.02-.01.02-.05.02-.08-.04.04-.09.09-.13.13-.99,0-1.58,1.13-2.81.81-.73-.19-.62,1.01-.91,1.57-.32.62.38.58.65.87.43-1.74.62-1.85,3.08-1.81ZM91.84,56.3c.67-.33,1.35-.64,1.6-1.45.1-.34.94-.34.42-.97-.35-.41-.77-.59-1.27-.4-.65.24-1.03.07-1.39-.55-.36-.64-.95-.58-1.39-.04-.48.59-.05,2.25.65,2.69.6-.73-.22-1.37-.26-2.1,2.34.69,2.35.71,1.6,2.77-.04.06-.08.11-.12.17.06-.04.11-.08.17-.13ZM115.77,33.19c.6-.13,1.24-.18,1.79-.42.35-.15.78-.49.75-.97-.05-.87-.49.22-.79-.13-.27-.32-.58-.43-.52-1.01.14-1.3-.37-2.62.03-3.97-.33.42-1,.75-.71,1.23.44.73-.03,1.11-.39,1.47-.37.37-.66.58-.02.93.17.1.26.27.18.58-.18.75-.22,1.53-.32,2.3-.22.07-.4.17-.39.44,0,.03.08.07.11.07.3-.06.27-.3.28-.51ZM76.23,29.44c.4-.09,1.01-.04.55-.74-.19-.3-.43-.67-.04-.84.4-.17.84.27.78.6-.17,1,.95.73,1.21,1.35.13.31.38-.21.48-.43.09-.21.59-.59.21-.61-1.11-.06-1.13-1.71-2.56-1.31.83-.81,1.71-.58,2.55-.84-.41-.63-.66-1.24-1.47-.38-.34.36-.92.97-1.46.06-.16-.27-.53-.08-.6.07-.54,1.1-.83.75-1.31-.08-.22-.38-.88-.51-1.37-.77-.15.73.17.96.65,1.03.35.05.49.13.38.54-.28,1.05.3,1.64,1.54,1.71.31.02.36.4.48.65-.02.04-.04.07-.07.11.02-.04.04-.08.06-.12ZM80.57,30.6c-1.07-.55-2.19.29-3.34-.12-.37-.13-.87.72-.6,1.36.27.62.6.66,1.33.34.96-.43,1.59-1.32,2.62-1.58.15.41-.35.84.19,1.3,1.12.97,2.62,1.14,3.88,1.73,1.37.64,2.73,1.38,4.26,1.76-.42.71-1.12.07-1.4.6.3.6,1.33.08,1.34.84.01.54-.71.52-1.12.69-.62.26-.03.71,0,.74.55.67,1.47.48,2.2.78.55.23-.18-.79.02-1.22.07-.17.23-.3.34-.45.92-1.22,1.66-2.66,3.35-3.02.55-.12.56-.54.39-.88-.21-.42-.58-.21-.85,0-.51.39-1.06.5-1.58.09-.61-.48-.83-.2-1.36.24-.55.46-1.91,1.53-2.21.41-.34-1.26-1.01-1.34-1.85-1.64-.3-.11-.65-.25-.69-.65-.09-.84-.43-.71-.9-.26-.27.26-.49.61-.93.61-.09-1.09-1.72-2.44-2.05-1.86-.42.75-.66.36-1.05.21ZM100.19,49.36s-.07-.05-.1-.08c.04.02.08.04.11.06-.41.54-.66.06-.91-.17-.41-.37-.8-.61-1.44-.06.89.52,1.68.95,2.43,1.44.61.4.98.86.39,1.65-.53.71-.96,1.51-1.15,2.42-.09.4-.49,1.16-.93.56-.62-.83-.38.34-.62.17.17.81-.46,1.24-.94,1.62-1.42,1.14-2.2,2.77-3.34,4.12-.2.23-.92.91.27.73.39-.06.44.3.65.46.83.66,1.69,1.54,2.23-.4-1.04.68-1.38-.37-1.84-.79-.43-.39.22-.99.45-1.47.29-.62,1.11-.74,1.35-1.41.02-.06.26-.11.36-.07,1.1.52,1.69,1.74,2.92,2.12.21.06.07.53-.13.76-.33.4-.42.79-.1,1.28.55-.27.54-.76.7-1.13.38-.87.61-1.58-.67-2.07-.81-.31-1.32-1.22-1.12-2.26.09-.51.47-.77.75-.32.55.88,1.72.98,2.11,2.07.47-.73-.19-1.22-.04-1.79.06-.21-.09-.31-.35-.18-.89.42-1.29-.24-1.31-.87-.03-.82.05-2.12.88-2.16.87-.05,1.42-.4,1.96-.83.47-.37.89.12,1.54-.27-.31-.22-.58-.35-.78-.55-.73-.7-1.55-1.28-.38-2.43.48-.47.43-1.54-.1-2.49-.17,2.74-1.08,3.42-2.85,2.34ZM86.91,38.11s-.07-.05-.11-.08c.04.02.08.04.12.07-.59,1.92-2.33,2.7-3.9,2.74-1.53.04-3.25.28-4.76-.51-.48-.25-.62.15-.72.43-.18.53.25.51.58.53.78.07,1.66-.28,2.24.59.13.2.34.08.48-.07.32-.33.82-.4,1-.08.19.35.11.89.02,1.32-.04.21-.56.33-.25.66.23.25.55.1.77-.11,1.41-1.32,2.93-1.87,4.81-.92.43.22.91.37,1.36.57.92.41,1.77,1.06,2.94.97.99-.08,2.03.31,2.64,1.19.65.93-1.06.74-.84,1.58.27.02.55.03.84.05h-.01c-.39,1.04,1.27,2.7-1.43,3.2.95.22,1.44.42,1.93.42.58,0,1.32.05.75-.98-.36-.66.58-3.84,1.14-4.32-1.69-.38-3.45-3.37-2.9-4.98.08-.24.21-.42,0-.62-.32-.29-.7-.27-1.09-.21-.22.03-.4.25-.3.39.82,1.19.14,2.67.95,3.98-3.13-.5-5.51-2.72-8.63-2.64.47-.36,1.05-.46,1.29-.79.52-.7,2.16-.97,1.08-2.39ZM109.42,41.28c.6-.03,1.21.13,1.74-.41,1-1.01,2.29-.97,3.6.04-.28.13-.52.3-.79.37-.44.12-.55.37-.36.74.18.35.75.78.84.6.58-1.1,1.98-.46,2.72-1.37-.52-.32-.99-.6-1.45-.89-.33-.2-.74-.41-.19-.8.6-.44.07-.51-.2-.54-1.13-.11-2.27-1.16-3.39.09-.23.25-.52-.03-.76-.19-.33-.22-.68-.34-1.04-.01.07.48,1.29.54.66,1.07-.52.44-1.38-.11-1.96-.49-.53-.34-.48-1.2-.09-1.36,1.01-.4.52-1.16.66-1.76.23-.12.31-.3.23-.54-.01-.03-.07-.05-.11-.08-.04.21-.07.42-.11.63-.39-.57-1.23.61-1.57-.46-.39-1.25.25-2.53-.38-3.78.61.33.9,1.19,1.73.55-.22-.42-.57-.8-.63-1.23-.1-.62-.45-1.48-.83-1.23-.65.41-1.62.38-1.97,1.22-.07.16-.02.38.03.56.13.48.64.87-.18,1.4-.32.2,1.14.28,1,1.12,0,.04.04.08.06.13.37,1.52.72,3.06,1.13,4.57.23.86-.34,1.55-.88,1.54-.56-.01-.91.31-1.43.41-.09-.69.13-1.37-.26-1.92-.55.36-.21,1.86-1.21,1.32-.82-.44-1.21,0-1.77.15-.64.17-1.81.49-1.82.04-.04-1.41-1.28-.89-1.81-1.41-.2-.2-.61-.48-.85-.04-.28.51.25.47.51.61.22.11.46.29.37.55-.36,1,.48.93.99,1.16.92.41,1.77-.07,2.63-.22,1.61-.28,2.12.23,2.13,1.82,0,.77-1.06,1.48-.1,2.37.12-.21.24-.36.28-.52.33-1.49,1.03-2.52,2.65-3,.72-.21,1.59-.24,2.22-.8h-.01ZM79.08,71.18c.22.46.4.91.64,1.31.49.82,1.37.87,2.1.72.8-.16.25-.83.2-1.3-.09-.94-.28-1.91.26-2.8.12-.2.33-.48,0-.58-1.37-.43-1.85-1.71-2.72-2.61-.66-.68-.12-1.55-.77-1.98-1.69-1.12-2.94-2.68-4.26-4.17-.4-.45-.8-.41-1.4-.19.91,1.2,2.06,2.23,2.76,3.37,1.24,2.02,2.3,4.38,1.84,6.97-.05.28-.1.52-.04.8.08.39-.19.91.4,1.11.55.19.61-.43,1-.66ZM108.29,42.81c.41,1.75,1.71,3.39.22,5.09-.03.03-.07.09-.06.13.05.37.58.64.34,1.03-.37.61-.55-.33-.91-.17-.19.08-.4.25-.3.41.38.63-.23,1.04-.38,1.59.28-.03.49,0,.65-.08.26-.14-.12-.82.43-.68.44.1.63.55.6,1.03-.04.76.15,1.54-.29,2.25-.28.44-.29.86.3,1.22.92-2.32.18-4.73.71-7.1.14,1.32,1.15,1.81,2.09,2.4.02-1.02.01-1-.77-1.54-.49-.34-.96-.91-.77-1.42.67-1.86-1.33-2.67-1.51-4.17,0,0-.09,0-.35,0ZM85.87,63.68q.16-1.03,1.2-2.5c.06-.09.01-.37-.02-.38-.52-.12-1.26-.87-1.46.2-.24,1.28-1.22,2.2-1.44,3.48-.1.55-.51,1.04-1.01,1.34-.8.48-.98,1.26-1.11,2.11,1.77-1.8,4.49-2.57,5.74-5.22-1,0-1.05,1-1.89.97ZM83.16,47.14c-.5.56-.18,1.01.03,1.4.7,1.3,1.28,2.58,1.3,4.14,0,1.34,1.06,2.1,1.8,1.6.92-.61,1.58-1.62,2.82-1.72.23-.02.42-.25.35-.53-.08-.32-.31-.28-.56-.19-.68.24-1.5-.07-2.1.72,0-1.4-.27-1.73-.57-1.33-1.03,1.37-1.17.07-1.35-.46-.42-1.25-.96-2.42-1.72-3.62ZM75.98,50.15c1.54.3,3.1.62,3.91,2.03.32.55.76.9,1.1,1.37.25.35.65.58.93.16.2-.29.56-.78.05-1.14-.69-.49-1.14-1.19-1.98-1.59-.95-.47-2.6-.73-2.02-2.56.09-.29-.1-.59-.39-.7-.39-.14-.5.2-.59.45-.26.71-.91,1.24-1,1.98ZM91.94,37.69c.38,1.01,1.55.07,1.47.71-.13,1.01.71.81,1.04,1.21.26.32.87.45.97.78.37,1.22,1.21.22,1.35.13.53-.35-.04-.7-.26-1.03-.2-.3-1.04-.53-.44-.92.76-.5.14-.7-.06-.88-1.4-1.23-2.64.44-4.07.01ZM98.36,24.31c-.06-.8-.6-1.49-.71-2.23-.23-1.56-1.38-.94-1.99-.81-1.09.24-.61.76.05,1.16.07.04,0,.34-.02.52-.14,1.56.01,1.75,1.5,1.2.55-.21.71.47,1.17.17ZM100.9,13.84c-.44.08-.86-.14-1.12.27-.09.14,1.59,1.96,1.68,1.85.71-.78,1.87-.29,2.63-.95.13-.12.35-.15.36-.38,0-.3-.2-.37-.44-.45-1.04-.34-2.16.17-3.1-.34ZM77.02,37.06c.13-.6.04-1.06-.43-1.21-.39-.13.11-1.23-.64-.62-.25.21-.76.98-.2,1.56.25.25.86.35.6.8-.26.45-.76.17-1.16.03-.36-.12-.69-.01-.85.34-.09.2-.12.48-.05.68.14.41.55.34.87.3,1.15-.16,1.96-.68,1.85-1.88ZM124.51,31.31c-1.86-1.2-3.66-.68-5.48-1,.18.65.85.59.82,1.17-.02.28-.16.92.55.6.37-.17.16-.91.78-.88.18.01.36.14.54.16.84.06,1.68.19,2.78-.05ZM98.73,25.93c.18,1.25.11,2.12-.46,2.92-.17.24-.21.68.05.94.28.29.49-.15.73-.18,1.87-.23,1.48-.99.54-2-.34-.36-.47-.91-.86-1.68ZM68.1,32.62c.2.23-.39.85.31.85.74,0,1.5-.08,2.21-.25.6-.15.31-.95.74-1.31.11-.09-.13-.32-.32-.38-.58-.16-.48.48-.77.66-.47.3-.98.73-1.49.09-.17-.22-.2-.58-.6-.34-.26.16-.16.42-.09.67ZM65.4,29.33c-.12-.33-.29-.73-.4-.62-.64.64-1.94.38-2.2,1.3-.24.82.76.9,1.28.95,1.23.11.18-1.63,1.33-1.63ZM44.61,45.89c-1.47.5-2.48-.63-3.67-1.07-.15,1.67.59,1.93,1.87,1.53.22-.07.54.13.8.25.56.27.76-.13,1-.71ZM94.5,25.81c.17-1.52-1.33-1.69-1.98-2.54-.12-.15-.47.11-.45.13.48.43-.21,1.33.67,1.61.61.2,1.17.52,1.76.8ZM83.32,27.34c-.34.33-.62.8-.3,1.02.68.47,1.16,1.07,1.6,1.74.19.28.67.12.65-.16-.03-.55-.12-1.19-.43-1.62-.34-.49-1.32-.12-1.53-.99ZM88.57,60.27c.43-.1.56-.42.7-.72.24-.51.47-1.03.72-1.53.14-.27.57-.56.11-.81-.32-.17-.69.1-.76.45-.15.76-.4,1.42-1.14,1.82-.08.04,0,.44.06.65.03.08.23.11.3.14ZM53.04,48.44c-.57.35-1.24.53-1.75,1.24.92-.4,1.25,1.21,2.04.48.48-.44-.07-1.15-.29-1.72ZM74.58,40.58c-.1-.13-.22-.34-.26-.32-1.15.37-2.08-.19-3.04-.65-.15-.07-.42,0-.39.26.02.16.16.38.3.42,1.09.34,2.17.95,3.38.3ZM127.31,28c-.05-.39.06-1-.51-.98-.34.01-.98.26-.96.78.02.47.4.91.91,1,.57.1.55-.38.56-.79ZM85.8,35.22c-.33.03-.83-.09-.8.38.05.67.66.71,1.19.74.35.02.7-.04.67-.52-.04-.76-.66-.51-1.07-.59ZM75.8,43.13c-.09-1.26-.94-1.58-2.08-1.71.31,1.14,1.39,1.18,2.08,1.71ZM78.65,35.32c.27.43.45,1.01,1.15,1,.31,0,.71-.26.57-.44-.35-.44-.84-.78-1.33-1.07-.16-.1-.4.17-.4.5ZM71.54,28.75c.4-.55,1.41.56,1.63-.54.07-.37-.46-.74-.6-.63-.45.35-1.14.23-1.43.77-.12.23.04.46.4.4ZM100.45,37.71c-.16-.45-.5-.96-1.05-1.23-.24-.12-.4.21-.35.46.11.62.38,1.17,1.01,1.39.24.08.39-.19.39-.62ZM94.74,52.12c.25.49-.08,1.27.68,1.52.28.09.47-.24.38-.43-.26-.57-.03-1.41-.71-1.71-.33-.15-.3.35-.34.63ZM77.53,24.89c.03-.33-.17-.54-.4-.51-.52.07-1.07.24-1.32.72-.14.28.2.5.5.56.66.13.88-.43,1.22-.77ZM121.84,39.29c-.05-.3.09-.8-.37-.78-.46.02-.69.46-.74.92-.04.39.11.65.54.65.54,0,.57-.39.58-.79ZM79.04,38.29c.51-.11,1.14.59,1.38.1.28-.57-.7-.87-.8-1.53-.41.44-.49.9-.58,1.43ZM80.31,26.17c-.1-.6.92-.95.4-1.43-.49-.45-.98.09-1.66.34.63.32.99.63,1.26,1.09ZM79.09,54.04c.3.8.65,1.31,1.42,1.34.23.01.3-.22.24-.42-.22-.8-.85-.86-1.66-.93ZM114.2,37.86c.38-.45.69-.92,1.28-1.26-1.91-.85-1.32.48-1.28,1.26ZM57.04,51.76c.95-.32.76-.98.63-1.57-.06-.26-.37-.31-.6-.24-.4.11-.22.38-.04.5.7.43-.17.8.01,1.31ZM101.24,38.49c-.15,1.63-.1,1.68.92,1.42-.21-.32-.48-.75-.92-1.42ZM85.16,24.14c.25-.21.86.01.82-.57-.02-.3-.35-.46-.65-.45-.44.02-.73.25-.7.72.02.3.25.37.54.3ZM57.54,58.36c-.87.12-1.37.41-1.65,1.06-.02.05.04.21.1.23.71.22.67-.68,1.17-.81.1-.03.16-.19.39-.48ZM45.19,48.9c-.25,0-.39.15-.37.36.03.31.23.53.53.6.2.05.42.01.42-.24,0-.38-.31-.56-.59-.72ZM85.61,26.75c-.58-.43-1-1.14-1.66-.27.46.34.95.48,1.66.27ZM74.89,57.24c-.58-.16-.92-.08-1.1.32-.04.08.04.31.12.34.59.24.63-.37.98-.66ZM67.4,29.05v1.63c.68-.42.75-.87,0-1.63ZM39.05,48.94c-.04.59-.27,1.11.35,1.52.32-.62.17-1.06-.35-1.52ZM70.51,30.81c-.48-.11-.99-.45-1.57.32.68-.14,1.13-.23,1.57-.32ZM39.68,50.89c-.19.46-.57.81.06,1.22.16-.42.27-.77-.06-1.22ZM108.42,52c.02-.19-.1-.26-.25-.27-.08,0-.17.06-.25.09.05.08.07.18.14.23.12.09.26.1.36-.05ZM101.8,16.96c-.08-.04-.16-.07-.24-.11-.03.08-.11.17-.09.23.03.06.14.07.22.11.03-.08.07-.15.1-.23ZM93.14,62.69c-.03-.08-.03-.2-.09-.23-.05-.03-.15.03-.23.06.03.1.07.2.1.29.07-.04.14-.08.21-.12ZM45.46,45.76s-.03-.08-.06-.09c-.03-.01-.08,0-.12.02.03.05.05.1.08.14.03-.02.07-.04.1-.07ZM82.97,26.09s-.08-.05-.12-.04c-.13.04-.14.11-.01.17.03.01.09,0,.12-.03.02-.01,0-.07.01-.1ZM76.27,30.55s.07-.05.11-.08c-.03-.03-.06-.06-.1-.1-.05.05-.09.09-.14.14.04.01.08.03.12.04Z"/>
        <path class="cls-1" d="M69.21,54.92c-1.18-.54-1.8-1.67-2.63-2.56-.53-.57-.78-.75-1.46-.2-1.59,1.28-3.14,2.55-4.02,4.46-.38.83-.99.6-1.59.26l-.04-.04c1.1-1.16,1.74-2.7,3.04-3.73.64-.51,1.12-1.28,1.52-2.01.27-.49.27-1.15-.3-1.56-1.26-.91-2.18-2.35-3.35-3.14-1.91-1.29-2.63-2.99-3.3-4.91-.12-.34-.41-.52-.72-.66-1.13-.53-2.1-1.14-2.57-2.46-.24-.68-.71-1.46-1.55-1.79-.59.12.11,1.05-.58,1.03-.42-.02-.83-.32-.96-.76-.08-.27.24-.77-.37-.68-.42.06-.01.49-.17.72-.11.15-.19.32-.27.46-.42.02-.42-.44-.66-.51-.69-.19-.89-.74-.88-1.3,0-.77.78-.51,1.22-.7.21-.09.46-.12.69-.18h0c.09.5.43.66.84.47.37-.17.09-.5.04-.75-.24-1.27-.65-2.47-1.3-3.6-.32-.55-.57-.6-1.11-.35-2.22,1.04-4.15,2.5-6.06,3.99-1.34,1.04-2.61,2.16-3.98,3.18-3.32,2.47-6.88,4.66-9.63,7.84-.58.67-1.3.92-2.1,1.09-.11-.4-.3-.76-.76-.47-.29.19-.62.52-.67.83-.09.57.48.4.8.5-1.6,2.05-3.27,3.99-5.58,5.33-.79.46-1.65,1.13-1.79,2.23-.01.09-.01.26-.02.26-1.79.06-1.67,2.13-3.04,2.81-1.78.89-2.59,3.77-2.07,5.69,1.15,4.28,3.34,7.9,6.33,11.19,5.05,5.55,11.09,9.14,18.39,10.93,3.68.91,7.47.98,11.1,1.95,5.34,1.44,10.75.67,16.13.78,4.12.09,8.14-.69,12.05-2.14,3.79-1.4,7.04-3.77,10.64-5.47,2.48-1.17,4.6-2.82,6.83-4.3,3.9-2.59,8.14-4.78,11.37-8.28,2.57-2.79,5.44-5.22,8.36-7.63,5.19-4.29,9.68-9.24,13.23-15,.48-.77.9-1.56.92-2.51,0-.35.13-.77.61-.86.61,1.63-.48,2.89-1.1,4.14-1.07,2.17-2.43,4.21-3.93,6.14-1.73,2.21-2.91,4.76-3.08,7.51-.11,1.77.06,3.62.18,5.43.11,1.67-.59,3.16-1.63,4.14-1.51,1.41-1.73,3.34-2.68,4.95-.88,1.51-1.72,2.93-3.26,3.93-1.09.71-1.96,1.79-2.82,2.79-.52.61-.99,1.11-1.84,1.22-.45.06-.9.32-1.3.57-4.11,2.59-8.68,3.74-13.45,4.26-3.03.33-6.1.57-9.07,1.2-6.69,1.41-13.39,2.31-20.25,2.32-4.56,0-9-.77-13.5-1.12-4.62-.36-9.19-1.14-13.76-1.86-2.11-.33-4.19-.93-6.23-1.58-1.91-.61-3.97-.97-5.63-2.11-3.02-2.07-6.67-3.15-9.2-5.99-.48-.54-1.29-.78-1.95-1.14-2.06-1.11-2.95-3.26-4.39-4.92-.87-1-2.12-1.74-2.32-3.21-.18-1.32-.44-2.65-.44-3.97,0-2.36-.09-4.68-1.05-6.9-.23-.54-.11-1.23-.16-1.85.5.05.74.45.97.79,1.09,1.67,2.63,2.88,4.08,4.19.34.31.67.82,1.52.56-2.46-2.26-.87-4.14.3-6.13.34-.58.97-.58,1.37-1.12.6-.81,1.4-1.53,2.04-2.34,1.14-1.43,2.8-2.2,4.15-3.33,2.75-2.31,5.18-5,8.05-7.18.87-.66,1.59-1.9,1.36-2.49-.7-1.86.9-1.29,1.43-1.46.65-.22,1.25,0,1.27-1.09,0-.49.49-1.58,1.61-.89.37.23.8.17,1.17-.2,1.43-1.43,3.12-2.51,4.89-3.28-.33-1.18-1.36-.82-2.08-1.1-.58-.23-1.59.06-1.65-.78-.06-.85.98-.07,1.21-.42,1.09-1.63,1.24-.38,1.54.46.12.34.56.76.63.63.28-.45.81-.48,1.1-.84.31-.38-.05-.6-.26-.84-.3-.35-.91-.81-.39-1.14.36-.24,1.2-.64,1.68.05.56.81,1.48.6,1.86.25.76-.7,1.65-1.44,1.75-2.63.22-.09.23-.19.02-.3-.12-1.08-.94-.18-1.34-.48-.38-.27-.73-.99-1.26-.35-.45.55.26.81.53,1.13.21.25.36.45.17.75-.18.29-.43.33-.74.21-.31-.11-.75-.07-.94-.28-.82-.9-1.76-.68-2.69-.35-.52.18-.84-.24-.93-.43-.44-.91-.41-.95-1.4-.35-.17.11-.25.3-.4.02-.13-.25-.36-.72-.1-.75,1.97-.25.38-1.56.33-1.93-.16-1.16-1.28-1.39-2.45-.76-.38.2-3.05-1.16-3.1-1.59-.04-.34.23-.51.42-.71,1.58-1.65-1.5-1.91-1.01-3.31.07-.21-.58-.69-1.1-.74-.04,0-.09.02-.14.04-1.29.51-2.77.6-3.95,1.17-4.89,2.37-10.04,4.32-14.32,7.78-2.39,1.93-5.34,3.39-6.25,6.71-.01.04-.06.07-.1.1-1.33.68-1.65,2.21-2.62,3.18-.5.5-.59,1.04-.3,1.7.15.34.1.74-.23,1.06-1.12,1.12-.51,2.24-.05,3.45.57-.38.41-.82.34-1.22-.05-.27-.26-.55.18-.7.76-.25.61.73,1.16.84.42.08.13.4-.04.48-1.17.58-1.32,1.39-.19,2.72-1.14-.48-1.86-.7-2.66-.48.44-2.51.29-2.89-1.12-3.05-.39-2.58-.27-5.1.81-7.52.31.01.57.4.93.1,1.92-1.62,3.74-3.39,5.47-5.18,3.47-3.59,7.44-6.29,12.01-8.16,2.15-.88,4.2-1.94,6.45-3.12h-2.7c-.05-.06-.09-.11-.14-.17.94-.35,1.92-.51,2.92-.56,2.64-.13,3.54-.83,4.15-3.13.09-.33.31-.54.6-.52,2.16.11,4.23-.35,6.34-.7,1.94-.32,4.02.18,5.8-1.16-.51-.36-1.07-.06-1.45-.22.9-1.43,2.18-1.57,3.78-1.24.53.11,1.64.18,2.1-.7-.15-.29-.33-.22-.53-.19-.73.1-.8-.71-1.29-.95.08-.16.12-.39.25-.47.39-.24,1-.31,1.22,0,.99,1.36,1.6.24,2.29-.29.34-.26.57-.66.93-.88,1.01-.64,1.81-1.92,3.33-1.07.29.16.69.05.9-.27.25-.39-.11-.44-.35-.59-.39-.23-.18-.49.06-.66.36-.25.76-.44.77-.96,1.34-.53,2.72-.25,4.09-.21-.09.11-.23.33-.25.32-1.17-.57-1.55,1.42-2.76.86-.18-.08-.23.49-.06.71,1.28,1.78-.17,1.44-1.13,1.47-.38.01-.8.1-1.15-.03-1.91-.69-2.44,1-3.74,1.78,2.06.82,3.64-.56,5.4-.2.63.13,1.36.43,2.26.08,1.19-.46,2.5-1.1,3.63-1.25,2.97-.4,5.85-1.15,8.8-1.6,2.59-.39,4.99-1.43,7.51-2.06.32-.08.44-.34.43-.66,1.28-.15,2.55-.26,3.81.13.19,1.11,1.19.53,1.77.79,1.8.79,3.41,2.08,5.62,1.92.82-.06,1.69-.1,2.53-.08,1.5.03,3.01-.23,4.53.41.59.25,2.1,1.01,2.55-.66.22-.08.38,0,.51.18.35.89.92.77,1.55.34,1.47.15,2.92.34,4.05,1.43-2.76-.02-5.52-.13-8.27,0-1.37.06-1.37.25-2.88-.68-.24-.15-.49-.16-.66.01-.59.59-1.36.33-2.15.49.51.25.76.64.94,1.07.32.81.74,1.04,1.7.81.9-.22,1.87.51,2.87.41.07,0,.23.22.21.31-.05.25-.25.42-.51.44-.88.08-1.9.05-1.54,1.41.33,1.26,1.22,1.59,2.42,1.2.54.94,1.36,1.13,2.36.9.8-.18.58-.58.27-1.03.8-1.14,2.15-.69,3.21-.99,2.23-.64,4.53-1,6.91-.16.84.29,1.96-.14,2.93.14.52.15,1.03.35,1.92.65-1.96.53-3.47.49-5.06.4-1.6-.1-3.33-.22-4.85.72-.74.46-1.62.51-2.49.59-1.41.12-2.85.2-3.91,1.36-.14.16-.43.23-.65.25-.35.03-.58-.77-.93-.29-.32.44.28.82.46,1.23,1.02,2.37,3.03,3.97,4.54,5.96.86,1.13.99,2.7,2.08,3.71.33.3.2,1.52,1.2.68.01,0,.17.1.17.15-.08,1.48,1.13,1.64,2.21,1.98-.59.33-1.13.29-1.65.5-1.49.6-2.21-1.22-2.27-1.69-.14-1.16-1.03-1.75-1.48-2.56-.7-1.27-1.43-2.59-2.33-3.79-.89-1.18-2.18-2.12-2.65-3.61-.08-.27-.25-.43-.53-.31-.26.11-.32.44-.21.62.81,1.34.06,3.07,1.13,4.33.16.19.28.44,0,.61-.31.18-.6,0-.72-.26-.28-.6-.71-1.24-.67-1.84.1-1.55-.62-2.95-.67-4.45.2,0,.39,0,.59,0,.09.14.18.28.27.43.05-.05.1-.11.15-.16-.14-.09-.29-.17-.43-.26-.19-.26-.38-.31-.57,0-2.42.25-4.79.64-6.91,1.99-.8.51-1.6,1.19-2.72.44-.49-.33-1.16.39-1.8.2-.22-.3-.37-1.08-.79-.67-1.36,1.33-1.23-.23-1.65-.75.55-.56,1.29-.73,2.01-.93.45-.13,1.09-.12,1.11-.69.03-.72-.79-.28-1.1-.6-.05-.05-.03-.16-.06-.32,1.24-.21,2.43-.33,3.33.83.7,1.64,2.06.78,3.25.75-.53-.44-1.06-.88-1.59-1.33,1.44-.76,3.05-.87,4.59-1.28.83-.22,2.6-.08.97-1.75-.13-.13-.11-.47-.07-.7.15-.85-.24-1.58-.98-1.65-.88-.08-1.93-.04-2.49.91-.62,1.04-1.5.84-2.39.71.07-.2.18-.28.31-.32.4-.14,1.13.23,1.13-.51,0-.6-.69-.3-1.06-.46-1.11-.48-2.6.32-3.31-.21-1.54-1.16-2.98-.12-4.43-.31-1.17-.15-2.42.39-3.63.66-.36.08-.69.19-.73-.33-.04-.48.23-.44.64-.44,1.18-.02,2.36-.17,3.73-.29-.66-.67-1.1-.29-1.54-.22-.27.04-.77.06-.67-.25.32-.95-.37-.56-.61-.46-.61.24-1.23.15-1.85.18-3.12.16-6.3.11-9.31.96-2.16.61-4.37,1.51-5.48,3.81-.4-.27-.09-.59-.07-.89.02-.42-.32-.42-.6-.41-.26.01-.58-.07-.58.41,0,.46-.26.62-.5.35-.31-.35-.47-.83-1.09-.7-1.45.29-2.9.56-4.34.85-1.79.36-3.31,1.57-5.15,1.68-1.45.09-1.73,1.49-1.91,2.2-.37,1.43-.1,3.03.01,4.56.03.38,0,1.12.94.85.76-.22,1.49.16,2.13.61,1.18.83,2.48,1.51,3.85,1.85.69.17,1.92.9,2.33-.32.31-.93.46-.92.97-.25.24.32.54.35.89.33h0c.86.68,1.2-.1,1.64-.59.42.78,2.24,1.58,3.07,1.42,1.21-.24.46-1.19.63-1.93,1.76,1.6,2.26-.45,3.22-1.01.95-.55-.17-1-.41-1.53.68-.12,1.32-.42,1.79-.25.63.22,1.69-.69,1.91.67.03.2.24.3.46.21.25-.11.48-.18.46-.59-.06-1.06.39-1.25,1.14-.51.53.53,1.32.18,1.39-.04.43-1.3,2.93-.59,2.53-2.65-.01-.07.57-.24.86-.4.31-.17.73.3,1.02-.48.24-.66,2.2.13,2.52,1.03-1.07.89-2.11,1.82-3.66,1.71-.16-.01-.32.38-.52.45-.87.32-1.29,1.75-2.05,1.53-1.59-.47-2.75.42-4.03.81-2.68.81-4.92,2.55-7.28,4-.41.25-1,.43-.85.98.13.5.69.78,1.21.88.52.09,1.03-.05,1.52-.29.73-.35,1.46-.72,2.32-.6-.58.9-2.87,1.8-3.89,1.54q.08,1.19,2.76.96c-.86.71-1.44,1.51-2.63.9-.43-.22-1.03-.18-1.55-.15-.67.03-1.27.16-.41.95.32.29.15.93.07,1.17-.54,1.58.33,3.46,1.86,3.93,1.22.38,1.75,1.67,2.8,2.31.08.05.12.29.07.39-.14.29-.36.13-.6.1-1.41-.22-2.68-.7-3.42-2-.43-.76-.96-.79-1.65-.49-1.18-.31-1.67-1.8-3.17-1.86.2.65.4,1.21-.1,1.78-1.22,1.38-1.02,2.38.67,3.12.27.12.82.98,1.21.1.28-.64.56-1.38-.22-1.93-.23-.17-.7-.02-.72-.63.94.4,1.77.35,2.32-.58-.06.61-.06,1.23-.18,1.83-.13.63.13.94.51,1.45,1.41,1.89,3.59,2.83,5.13,4.43,1.03,1.06,2.49,1.93,2.91,3.54,0,0-.02.02-.02.02-1.38.43-2.47-.77-3.81-.66-.55.05-.4-.43-.13-.68.82-.78.52-1.21-.42-1.45-.57-.14-.6-1.23-1.48-.8-.81.39-1.83.49-1.01,1.9.69,1.19.98,2.65,1.63,3.82.43.77,1.18,1.66,2.07,2.2,1.88,1.14,3.13,2.76,3.8,4.84-.06.05-.12.1-.18.15ZM32.37,38.38s.07-.02.1-.05c.02-.01.01-.05.02-.07-.04.04-.07.08-.11.13-.04.01-.07.01-.1.03-.02.01-.02.05-.03.07.04-.04.08-.08.12-.12ZM60.89,39.88c.06.44.42.84.1,1.34-.15.25-.04.61.27.69.15.04.41-.18.54-.35.89-1.11.01-1.44-.8-1.79-.04-.56-.74-.39-.91-.81-.11-.25-.13-.62-.53-.52-.38.09-.58.47-.53.76.09.48-.39.87-.11,1.36.2.35.18.97.73.9.46-.06,1.1-.13,1.05-.92-.01-.21.13-.43.2-.65ZM33.81,13.86c3.42.27,6.45-1.01,9.81-2.31-1.3-.33-2.4-.5-3.27-.16-1.15.44-2.15-.68-3.22-.01-.49.3-1.11.35-1.59.59-1.13.55-2.36,0-3.47.47-.24.1-.65-.05-.69.34-.03.32.29.44.55.59.41.22.74.58,1.27.14.29-.25.48.13.62.37-.02.04-.05.07-.07.11.02-.04.04-.08.06-.12ZM79.42,3.76s.02.07.04.1c.01.02.05.02.08.02-.04-.04-.08-.08-.12-.12.11-.85.76-1.07,1.36-.79.8.38-.68.56-.2,1.03,1.8.28,3.35-1.31,5.22-.57-.46-.63-.98-.9-1.66-.83-.5.05-.97-.05-1.28-.5-.71-1.04-1.78-1.18-2.9-1.24-2.62-.14-4.39,1.43-6.42,3.25,2.13-.63,4.01-.02,5.88-.35ZM40.39,18.73c.08.5-.37.6-.63.86-.28.27-.97.36-.67.9.31.56.93.39,1.39.15.68-.36,1.31-.81,2.25-.8-.41-.41-.67-.67-.93-.94.65-.11,1.01-.48,1.15-1.15-.68-.06-1.31.03-1.89-.73.95.38,1.92-1.09,2.54.5.08.21.92.28,1.1-.21.17-.48.63-.74.77-1.09.31-.83.45-1.84-.08-2.61-.46-.67-1.22-.21-1.85-.03-.73.21-1.43.48-2.19.64-1.81.37-3.59.93-5.32,1.75.35.52.51,1.05,1.13,1.3,1.1.43,2.16.97,3.23,1.46ZM53.05,9.52c2.27.39,9.41-1.29,9.89-2.21-2.03.85-7.05.7-7.57-.33-.43,1.74-2.24.85-3.28,1.86,1.85.21,3.47-.61,5.47-.4-1.66.62-3.09.75-4.51,1.08ZM64.73,4.79c1.41.24,2.85-.09,4.23.37.27.09.59-.02.72-.32.03-.08-.08-.32-.15-.34-.71-.13-1.19-.86-2.12-.57-.89.28-1.7.83-2.68.85ZM58.61,24.65c.56.12,1.32.3,1.29-.49-.02-.55-.75-.92-1.44-.79-.45.08-1.24-.3-1.18.51.04.56.55,1.1,1.34.76ZM56.25,7.12c1.09.26,2-.13,2.95-.22.25-.02.49-.09.5-.39.01-.41-.32-.38-.6-.43-1.15-.22-1.85.66-2.85,1.04ZM54.43,25.54c-.1-1.31-.74-1.93-2.13-1.97.62.88.81,1.93,2.13,1.97ZM42.94,10.3c.71.18,1.26.65,1.86.12.08-.07.14-.33.1-.36-.6-.51-1.16-.02-1.74.09-.04,0-.08.05-.22.16ZM62.9,41.26s-.05-.07-.07-.11c-.03.06-.06.13-.08.19.04,0,.09.04.1.03.03-.02.04-.07.05-.11Z"/>
        <path class="cls-5" d="M.23,39.55c1.4.15,1.55.54,1.12,3.05.8-.22,1.52,0,2.66.48-1.13-1.33-.98-2.14.19-2.72.16-.08.46-.4.04-.48-.55-.11-.4-1.09-1.16-.84-.43.14-.22.43-.18.7.07.4.23.84-.34,1.22-.46-1.21-1.07-2.33.05-3.45.32-.32.37-.71.23-1.06-.28-.66-.19-1.2.3-1.7.98-.98,1.29-2.5,2.62-3.18.04-.02.09-.06.1-.1.91-3.32,3.86-4.78,6.25-6.71,4.28-3.46,9.44-5.41,14.32-7.78,1.18-.57,2.66-.66,3.95-1.17.04-.02.09-.04.14-.04.52.05,1.17.53,1.1.74-.49,1.4,2.6,1.66,1.01,3.31-.19.2-.46.37-.42.71.06.43,2.72,1.79,3.1,1.59,1.17-.62,2.29-.39,2.45.76.05.36,1.64,1.67-.33,1.93-.26.03-.02.51.1.75.14.28.22.09.4-.02.99-.6.95-.57,1.4.35.09.19.41.61.93.43.93-.32,1.87-.55,2.69.35.19.21.63.16.94.28.32.12.57.08.74-.21.18-.3.03-.51-.17-.75-.27-.33-.99-.58-.53-1.13.53-.64.88.07,1.26.35.41.29,1.23-.6,1.34.48l-.03.03c-.12.05-.23.09-.35.14l.37.13h0c-.1,1.19-.99,1.93-1.75,2.63-.38.35-1.3.56-1.86-.25-.48-.69-1.32-.29-1.68-.05-.52.34.1.79.39,1.14.21.24.57.46.26.84-.29.35-.82.39-1.1.84-.08.13-.52-.29-.63-.63-.3-.84-.44-2.09-1.54-.46-.24.35-1.27-.43-1.21.42.06.84,1.06.55,1.65.78.71.29,1.74-.08,2.08,1.1-1.77.77-3.46,1.84-4.89,3.28-.37.37-.79.43-1.17.2-1.12-.69-1.6.4-1.61.89-.01,1.09-.62.87-1.27,1.09-.53.18-2.13-.39-1.43,1.46.22.59-.49,1.83-1.36,2.49-2.87,2.18-5.3,4.87-8.05,7.18-1.35,1.14-3.01,1.9-4.15,3.33-.65.81-1.45,1.53-2.04,2.34-.4.54-1.03.53-1.37,1.12-1.16,1.99-2.75,3.87-.3,6.13-.85.26-1.18-.25-1.52-.56-1.45-1.3-2.99-2.52-4.08-4.19-.22-.34-.47-.74-.97-.79-2.06-2.81-3.96-5.73-5.54-8.82-.67-1.31-1.02-2.92-1.1-4.49.85-.62.34-1.17-.08-1.73,0-.57.01-1.15.02-1.72ZM20.83,34.35c.13-.04.26-.08.39-.12-.03-.04-.08-.11-.08-.1-.11.07-.21.14-.31.22-.1.09-.2.19-.29.28-1.28-.21-2.39-.06-3.19,1.64,1.29-.65,2.25-1.14,3.2-1.63.09-.1.19-.19.28-.29ZM33.25,30.87s-.1-.08-.14-.12l.12.15c.45.68.96,1.27.2,2.16-.49.58.54,1.09.63,1.01.66-.67,2.36.06,2.24-1.64,0-.07.26-.16.39-.24-1.52.47-2.16-1.28-3.43-1.32ZM14.63,35.21c-.51-.11-.69-.9-1.22-.53-.27.19-1.01.52-.41,1.18.09.1-.02.48-.14.65-.21.26-.85.31-.54.81.22.35.71.21,1.07.08.53-.19.58-.59.34-1.04-.48-.9.2-.97.9-1.15ZM5.78,35.77c.43-.32,1.23-.39,1.16-1.16-.03-.33-.68-.93-.76-.88-.52.29-1.07.67-1.17,1.32-.06.43.25.69.76.72ZM23.58,21.29c1.36.19,2.48.01,3.57-.37.21-.07.53-.18.46-.45-.04-.16-.49-.4-.52-.36-.94.93-2.44.15-3.51,1.18ZM29.09,26.15c-.73.19-.87-2.32-2.66-1.36.71,1.35,2.17.98,2.66,1.36ZM34.18,28.14c.25-.21.46-.47.46-.81,0-.37-.29-.45-.59-.43-.45.03-.55.31-.4.68.1.24.16.56.54.56ZM30.93,27.42c-.02.43.21.61.61.59.19,0,.47-.1.39-.29-.13-.28-.36-.58-.62-.71-.3-.15-.35.18-.38.42ZM32,30.71s0,.08.02.09c.03.02.07.02.11.02-.01-.05-.02-.1-.03-.15-.03.01-.07.03-.1.04ZM5.15,33.53s-.02-.07-.03-.1c-.03,0-.08.02-.08.03,0,.03.01.07.02.1.03,0,.06-.02.09-.03Z"/>
        <path class="cls-5" d="M54.88.93c0,.52-.41.71-.77.96-.24.17-.45.43-.06.66.24.15.6.2.35.59-.21.32-.6.43-.9.27-1.51-.85-2.32.43-3.33,1.07-.35.22-.59.63-.93.88-.69.52-1.3,1.65-2.29.29-.22-.3-.82-.23-1.22,0-.13.08-.17.31-.25.47.49.24.56,1.05,1.29.95.19-.03.37-.1.53.19-.46.88-1.57.81-2.1.7-1.6-.33-2.89-.18-3.78,1.24.37.16.94-.14,1.45.22-1.78,1.35-3.86.85-5.8,1.16-2.11.35-4.19.81-6.34.7-.29-.02-.51.19-.6.52-.6,2.3-1.51,3-4.15,3.13-1.01.05-1.98.2-2.92.56-.36.14-.82-.09-1.24.34.54.07.98.22,1.38-.17h2.7c-2.25,1.17-4.3,2.23-6.45,3.12-4.57,1.87-8.55,4.57-12.01,8.16-1.73,1.79-3.55,3.55-5.47,5.18-.36.31-.62-.09-.93-.1.68-2.28,1.69-4.39,3.1-6.31.4-.07.56-.29.4-.68,0,0,.04-.05.04-.05.23.01.56.13.69.02,1.18-1.03,2.41-2.01,3.44-3.18.47-.54-.35-.36-.61-.49-.47-.65.17-.94.46-1.3,2.16-2.62,4.87-4.6,7.7-6.44,1.13-.13,2.08-.79,3.26-.93,1.97-.24,3.89.25,5.84.08,1.74-.15,3.42-.64,4.32-2.11.69-1.13,1.5-1.74,2.68-2.05.65-.17,1.17-.67,1.75-.87,1.89-.67,3.43-1.98,5.39-2.56,2.57-.76,5.02-1.91,7.36-3.26.74-.07,1.48-.13,2.22-.2.46.04.95.17,1.26-.35.27-.04.54-.09.81-.13.45.35.86.32,1.21-.14.83-.22,1.68-.16,2.53-.14ZM12.46,18.19c.35-.03.66-.14.76-.51.05-.17-.08-.28-.24-.23-.38.1-.51.39-.52.75-.04.01-.08.02-.11.04-.02.01-.02.05-.02.08.04-.04.09-.08.13-.12ZM15.92,17.62s-.06-.04-.1-.07c.03.02.07.04.1.06.14.42.27.84.49,1.5.32-.81.83-1.14,1.36-1.48-.73-.56-1.28.18-1.86-.01ZM11.02,19.35c-.41.12-.83.21-1.23.37-.34.13-.5.44-.49.8,0,.18,0,.41.26.43.33.02.5-.25.69-.45.31-.34.77-.6.76-1.16.03-.04.05-.08.08-.11-.02.04-.04.08-.06.13ZM13.85,17.01s-.05-.07-.08-.1c-.03.03-.06.06-.09.09.04.04.09.09.13.13.01-.04.03-.08.04-.12Z"/>
        <path class="cls-5" d="M77.91.15c.01.32-.11.58-.43.66-2.52.63-4.92,1.67-7.51,2.06-2.95.44-5.83,1.2-8.8,1.6-1.13.15-2.44.78-3.63,1.25-.9.35-1.63.04-2.26-.08-1.77-.35-3.35,1.02-5.4.2,1.3-.79,1.83-2.47,3.74-1.78.34.12.76.04,1.15.03.96-.03,2.41.32,1.13-1.47-.16-.22-.12-.79.06-.71,1.22.56,1.59-1.44,2.76-.86.03.01.16-.21.25-.32.28-.02.55-.05.83-.07.82.27,1.63.56,2.35-.22.66-.03,1.32-.05,1.97-.08.69.34,1.37.46,2.01-.09.48,0,.96-.01,1.44-.02.58.48,1.16.53,1.74-.02,2.87-.02,5.73-.3,8.6-.07ZM58.28,3.76c-.12-.22-.36-.29-.66-.24-.22.04-.35.17-.28.38.1.29.34.43.66.36.22-.04.28-.21.28-.49Z"/>
        <path class="cls-1" d="M46.86,1.91c-2.34,1.35-4.79,2.5-7.36,3.26-1.96.58-3.5,1.89-5.39,2.56-.58.21-1.1.7-1.75.87-1.18.3-1.98.92-2.68,2.05-.9,1.47-2.58,1.97-4.32,2.11-1.95.16-3.87-.32-5.84-.08-1.18.14-2.13.81-3.26.93.78-1.13,1.98-1.7,3.12-2.34.23.86.85.34,1.14.21,3.23-1.49,6.81-1.96,9.83-4.21,1.74-1.3,4.09-2.11,6.26-2.94.83-.32,1.72-.53,2.32-1.27,1.71-.72,3.54-.86,5.34-.96.86-.05,1.68-.96,2.59-.19Z"/>
        <path class="cls-5" d="M38.93,3.06c-.6.74-1.49.95-2.32,1.27-2.17.83-4.52,1.64-6.26,2.94-3.02,2.25-6.61,2.72-9.83,4.21-.29.13-.91.65-1.14-.21,4.96-3.58,10.42-6.06,16.37-7.49,1.06-.25,2.06-.72,3.18-.72Z"/>
        <path class="cls-5" d="M98.72,2.66c-.45,1.67-1.96.91-2.55.66-1.53-.65-3.03-.38-4.53-.41-.84-.02-1.71.02-2.53.08-2.2.16-3.81-1.13-5.62-1.92-.58-.26-1.58.32-1.77-.79.58,0,1.15.01,1.73.02.27.36.56.37.86.04,2.31.02,4.59.31,6.86.72.24.43.54.53.92.16.27.06.54.11.8.17.17.26.34.49.64.14.66.12,1.31.25,1.97.37.14.3.3.55.63.19.17.04.35.07.52.11.22.46.52.6.92.19.38.09.76.18,1.14.28Z"/>
        <path class="cls-1" d="M130.95,37.77c-2.6,1.41-5.11,2.94-7.15,5.13-.31.33-.65.93-1.16.58-.61-.42.05-.82.24-1.2.49-.96,1.33-1.58,2.23-2.09.55-.31,1.13-.62,1.37-1.19.54-1.29,1.82-1.74,2.72-2.62.58-.57,1.32.19,1.88-.3.46.6-.03,1.13-.13,1.69Z"/>
        <path class="cls-1" d="M8.1,21.35c.25.13,1.08-.05.61.49-1.03,1.17-2.26,2.15-3.44,3.18-.13.11-.45,0-.69-.02.8-1.41,1.61-2.82,3.11-3.64.15.14.29.29.44,0h-.03Z"/>
        <path class="cls-5" d="M62.15.43c-.72.78-1.54.49-2.35.22.74-.52,1.55-.33,2.35-.22Z"/>
        <path class="cls-2" d="M66.14.26c-.65.55-1.33.44-2.01.09.65-.41,1.33-.39,2.01-.09Z"/>
        <path class="cls-2" d="M69.31.22c-.57.55-1.15.5-1.74.02.58-.32,1.15-.32,1.74-.02Z"/>
        <path class="cls-3" d="M100.78,3.18c-.64.43-1.2.55-1.55-.34.54-.01,1.06.1,1.55.34Z"/>
        <path class="cls-2" d="M52.35,1.08c-.36.47-.76.49-1.21.14.36-.39.78-.32,1.21-.14Z"/>
        <path class="cls-2" d="M50.33,1.35c-.31.52-.79.39-1.26.35.31-.49.74-.57,1.26-.35Z"/>
        <path class="cls-2" d="M97.59,2.38c-.41.41-.7.27-.92-.19.35-.15.68-.17.92.19Z"/>
        <path class="cls-2" d="M84.32.33c-.3.33-.59.33-.86-.04.3-.28.59-.27.86.04Z"/>
        <path class="cls-2" d="M92.1,1.22c-.38.36-.68.26-.92-.16.35-.16.67-.17.92.16Z"/>
        <path class="cls-2" d="M93.55,1.52c-.3.35-.47.12-.64-.14.26-.19.47-.12.64.14Z"/>
        <path class="cls-2" d="M96.15,2.08c-.34.36-.49.11-.63-.19.26-.11.48-.09.63.19Z"/>
        <path class="cls-1" d="M8.13,21.34c-.14.29-.29.14-.44,0,.14-.15.29-.15.44,0Z"/>
        <path class="cls-1" d="M81.42,15.07c.41.52.28,2.08,1.65.75.42-.41.57.37.79.67-.23.28-.74.32-.72.82h.01c-.27.02-.55.05-.82.08-.99-1.27-1.13-1.28-1.8.05-.19.39-.47.48-.79.43-1.19-.16-1.06.49-.81,1.24-.11.03-.21.06-.32.08-.58.26-1.56-1.28-1.83.4-.52-.08-.94.26-1.42.37-.06-.2-.22-.33-.39-.21-.11.08-.1.31-.15.47-.1.1-.2.19-.31.29-.82.16-1.63.33-2.04,1.2-.17.02-.34.05-.51.07-.62-.24-1.18.14-1.78.17-1.12.05-2,.53-1.83,1.9.05.43-.2.59-.51.73-.33-.1-.66-.17-.91.17-.86-.12-1.59.25-2.32.6-.49.24-1,.38-1.52.29-.52-.09-1.07-.37-1.21-.88-.15-.55.44-.73.85-.98,2.37-1.45,4.6-3.18,7.28-4,1.28-.39,2.45-1.28,4.03-.81.75.22,1.18-1.21,2.05-1.53.21-.08.36-.47.52-.45,1.55.11,2.59-.82,3.66-1.71.38-.07.76-.15,1.14-.22ZM72.66,19.73c-.03.11-.08.22-.07.32,0,.03.19.1.21.08.06-.08.1-.19.14-.29-.08-.03-.15-.06-.27-.11ZM77.89,17.93c-.07-.09-.11-.2-.17-.21-.07-.01-.2.04-.22.09-.04.15.03.26.2.25.06,0,.12-.09.19-.14Z"/>
        <path class="cls-1" d="M109.42,36.36c-.14.61.34,1.36-.66,1.76-.4.16-.44,1.01.09,1.36.58.38,1.44.93,1.96.49.63-.53-.59-.58-.66-1.07.37-.33.71-.21,1.04.01.24.16.53.44.76.19,1.11-1.25,2.26-.2,3.39-.09.27.03.8.1.2.54-.55.4-.14.6.19.8.47.28.93.57,1.45.89-.74.91-2.14.27-2.72,1.37-.09.18-.66-.25-.84-.6-.19-.37-.08-.63.36-.74.27-.07.51-.24.79-.37-1.31-1.01-2.6-1.05-3.6-.04-.54.54-1.14.39-1.74.41-.04-.21-.01-.46-.34-.44-.03,0-.09.06-.09.09-.03.34.26.27.45.34-.62.56-1.49.59-2.22.8-1.61.48-2.32,1.51-2.65,3-.04.16-.16.31-.28.52-.96-.89.11-1.6.1-2.37-.01-1.59-.52-2.11-2.13-1.82-.86.15-1.71.63-2.63.22-.52-.23-1.35-.16-.99-1.16.09-.26-.15-.44-.37-.55-.26-.14-.79-.1-.51-.61.24-.43.65-.15.85.04.53.52,1.77,0,1.81,1.41.01.45,1.18.13,1.82-.04.57-.15.95-.59,1.77-.15,1.01.54.66-.97,1.21-1.32.39.55.17,1.23.26,1.92.52-.09.88-.42,1.43-.41.55.01,1.11-.68.88-1.54-.4-1.52-.75-3.05-1.13-4.57-.01-.05-.06-.09-.06-.13.14-.84-1.32-.91-1-1.12.82-.53.31-.92.18-1.4-.05-.18-.09-.4-.03-.56.35-.84,1.32-.81,1.97-1.22.38-.24.73.62.83,1.23.07.43.41.82.63,1.23-.82.64-1.11-.22-1.73-.55.62,1.25-.02,2.53.38,3.78.34,1.07,1.18-.11,1.57.46h-.01ZM115.34,41.18l.05-.06h-.07s.03.06.03.06Z"/>
        <path class="cls-1" d="M79.08,71.18c-.38.23-.44.85-1,.66-.58-.2-.31-.72-.4-1.11-.06-.28-.01-.52.04-.8.45-2.59-.6-4.94-1.84-6.97-.7-1.14-1.85-2.17-2.76-3.37.59-.22,1-.26,1.4.19,1.32,1.49,2.58,3.04,4.26,4.17.65.43.11,1.3.77,1.98.88.9,1.35,2.18,2.72,2.61.33.1.12.38,0,.58-.54.89-.35,1.85-.26,2.8.05.47.6,1.14-.2,1.3-.74.15-1.62.1-2.1-.72-.24-.41-.42-.85-.64-1.31Z"/>
        <path class="cls-1" d="M94.14,47.05c-.28-.02-.57-.03-.84-.05-.22-.84,1.48-.65.84-1.58-.61-.88-1.66-1.27-2.64-1.19-1.17.09-2.02-.56-2.94-.97-.45-.2-.93-.36-1.36-.57-1.87-.94-3.4-.4-4.81.92-.22.21-.53.36-.77.11-.31-.33.21-.45.25-.66.08-.43.16-.97-.02-1.32-.17-.32-.68-.26-1,.08-.14.15-.35.27-.48.07-.58-.87-1.46-.52-2.24-.59-.33-.03-.76,0-.58-.53.1-.29.24-.69.72-.43,1.51.79,3.23.54,4.76.51,1.58-.04,3.31-.83,3.9-2.74h-.01c1.08,1.44-.56,1.7-1.08,2.4-.25.34-.82.43-1.29.79,3.12-.08,5.5,2.14,8.63,2.64-.8-1.31-.12-2.79-.95-3.98-.1-.15.08-.36.3-.39.39-.06.77-.08,1.09.21.22.2.09.38,0,.62-.55,1.61,1.2,4.59,2.9,4.98-.57.48-1.5,3.67-1.14,4.32.57,1.03-.17.99-.75.98-.49,0-.99-.21-1.93-.42,2.7-.49,1.04-2.16,1.43-3.21.03-.04.05-.07.08-.11-.02.04-.04.08-.07.12Z"/>
        <path class="cls-1" d="M100.19,49.36c1.77,1.08,2.68.4,2.85-2.34.53.95.58,2.02.1,2.49-1.17,1.15-.35,1.73.38,2.43.2.2.47.33.78.55-.64.39-1.07-.1-1.54.27-.53.43-1.09.78-1.96.83-.83.05-.91,1.35-.88,2.16.02.63.42,1.29,1.31.87.26-.12.4-.03.35.18-.15.56.51,1.05.04,1.79-.39-1.09-1.56-1.19-2.11-2.07-.28-.45-.65-.19-.75.32-.19,1.04.32,1.95,1.12,2.26,1.28.5,1.05,1.2.67,2.07-.16.37-.15.86-.7,1.13-.32-.49-.23-.88.1-1.28.2-.24.33-.7.13-.76-1.23-.38-1.82-1.6-2.92-2.12-.09-.04-.33,0-.36.07-.24.68-1.05.8-1.35,1.41-.23.49-.88,1.08-.45,1.47.46.42.8,1.48,1.84.79-.55,1.94-1.41,1.07-2.23.4-.21-.17-.27-.52-.65-.46-1.19.18-.47-.5-.27-.73,1.14-1.35,1.92-2.98,3.34-4.12.48-.38,1.11-.81.94-1.62.24.18,0-.99.62-.17.45.6.85-.16.93-.56.19-.91.62-1.71,1.15-2.42.59-.79.22-1.25-.39-1.65-.75-.49-1.54-.92-2.43-1.44.64-.55,1.03-.31,1.44.06.25.23.5.71.91.17h-.01Z"/>
        <path class="cls-1" d="M80.57,30.6c.39.15.62.53,1.05-.21.33-.58,1.96.76,2.05,1.86.44,0,.66-.35.93-.61.46-.45.81-.59.9.26.04.4.39.55.69.65.84.3,1.51.38,1.85,1.64.3,1.12,1.66.05,2.21-.41.53-.45.75-.73,1.36-.24.52.41,1.06.31,1.58-.09.27-.21.64-.42.85,0,.17.34.16.76-.39.88-1.7.36-2.43,1.8-3.35,3.02-.11.15-.27.28-.34.45-.19.43.54,1.45-.02,1.22-.73-.3-1.65-.11-2.2-.78-.02-.03-.62-.49,0-.74.42-.17,1.14-.16,1.12-.69-.02-.76-1.04-.24-1.34-.84.28-.53.98.11,1.4-.6-1.53-.38-2.9-1.12-4.26-1.76-1.26-.59-2.76-.76-3.88-1.73-.53-.46-.04-.89-.19-1.3h0Z"/>
        <path class="cls-1" d="M69.27,49.02c.99-.76,1.06-1.54.08-2.38-.31-.27-.66-.54-.63-1.03,0,0,.02-.01.02-.01.77.14,1.28.59,1.63,1.27.13.26.31.55.65.43.41-.14.23-.46.1-.71-.55-1,.64-1.08.78-1.66.42,0,.47.24.54.46.13.37-.13.98.51,1.03.46.04.68-.35.7-.77.03-.57.1-1.23-.63-1.44-.5-.14-1.03-.12-1.55.11-.74.33-1.19.4-1.79-.56-.41-.65-.91-1.29-1.23-2.04-.09-.21-.36-.41-.1-.62.26-.22.53-.07.76.14,1.4,1.26,3.26,1.66,4.83,2.6.87.52,1.77.53,2.7.38.24-.04.5-.45.7-.02.15.33-.09.54-.34.82-.49.53-1.61.61-1.34,1.73h0c-1.08.84-2.32,1.16-3.67,1.14-1.1-.02-1.25.53-.97,1.5.19.66.83,1.23.52,2.02-.99-.52-.47-2.43-2.15-2.29-.05-.03-.09-.07-.13-.11Z"/>
        <path class="cls-1" d="M67.85,24.58c.31-.14.56-.3.51-.73-.17-1.37.71-1.85,1.83-1.9.6-.03,1.17-.4,1.78-.17-.04.37-.26.7-.55.79-1.55.49-.88,1.32-.44,2.21.19.38.23.32.56.15.6-.3.72.28.86.66.15.4-.05.59-.48.66-.81.13-1.25,1.14-2.25.94-.3-.06-.31.3-.08.49.4.33-.48,1.14.38,1.17.36.01.51-.07.49.34-.03.53-.34.33-.69.34-1.34.05-2.06-1.36-3.26-1.22.05-1.47,1.38-2.33,1.34-3.74Z"/>
        <path class="cls-1" d="M110.3,57.14c-.3-2.19,1.77-2.81,2.77-4.14,1.48-1.97,3.52-3.41,4.99-5.42.89-1.21,2.34-1.96,3.33-3.15.15-.18.39-.36.6-.11.1.11.14.4.07.52-.39.66-.52,1.37-1.49,1.75-1.03.4-1.9,1.38-2.68,2.25-1.91,2.13-3.63,4.42-5.79,6.31-.68.59-.49,1.98-1.81,1.99,0,0,0,0,0,0Z"/>
        <path class="cls-1" d="M108.29,42.81c.27,0,.35,0,.35,0,.18,1.49,2.18,2.31,1.51,4.17-.19.51.29,1.08.77,1.42.78.54.79.53.77,1.54-.94-.6-1.95-1.08-2.09-2.4-.53,2.36.21,4.78-.71,7.1-.59-.36-.58-.78-.3-1.22.44-.71.25-1.49.29-2.25.03-.49-.17-.93-.6-1.03-.56-.13-.17.54-.43.68-.15.08-.37.05-.65.08.15-.55.76-.96.38-1.59-.1-.16.11-.33.3-.41.35-.16.53.78.91.17.24-.39-.29-.66-.34-1.03,0-.04.03-.09.06-.13,1.49-1.7.19-3.34-.22-5.09Z"/>
        <path class="cls-1" d="M85.87,63.68c.84.03.89-.97,1.89-.97-1.25,2.65-3.97,3.42-5.74,5.22.13-.85.31-1.63,1.11-2.11.5-.3.91-.79,1.01-1.34.22-1.27,1.21-2.19,1.44-3.48.2-1.06.94-.31,1.46-.2.04,0,.08.3.02.38q-1.03,1.46-1.2,2.5Z"/>
        <path class="cls-1" d="M83.16,47.14c.76,1.2,1.3,2.37,1.72,3.62.18.53.33,1.83,1.35.46.3-.4.57-.06.57,1.33.6-.8,1.42-.48,2.1-.72.25-.09.48-.13.56.19.07.28-.12.51-.35.53-1.24.1-1.9,1.11-2.82,1.72-.75.5-1.79-.26-1.8-1.6-.01-1.56-.6-2.84-1.3-4.14-.21-.38-.53-.84-.03-1.4Z"/>
        <path class="cls-1" d="M76.24,29.45c-.13-.25-.17-.63-.48-.65-1.25-.07-1.83-.66-1.54-1.71.11-.41-.04-.49-.38-.54-.48-.07-.8-.3-.65-1.03.5.26,1.15.39,1.37.77.48.83.77,1.19,1.31.08.08-.16.44-.34.6-.07.54.91,1.12.3,1.46-.06.81-.86,1.05-.25,1.47.38-.84.27-1.72.03-2.55.84,1.43-.4,1.45,1.25,2.56,1.31.37.02-.12.4-.21.61-.1.22-.35.74-.48.43-.26-.62-1.38-.36-1.21-1.35.06-.33-.38-.77-.78-.6-.39.17-.15.54.04.84.46.7-.15.65-.55.74h0Z"/>
        <path class="cls-1" d="M75.98,50.15c.09-.74.74-1.27,1-1.98.09-.25.21-.6.59-.45.29.11.48.41.39.7-.58,1.83,1.07,2.09,2.02,2.56.83.41,1.29,1.11,1.98,1.59.51.36.15.85-.05,1.14-.28.42-.68.19-.93-.16-.34-.47-.78-.82-1.1-1.37-.81-1.41-2.37-1.73-3.91-2.03Z"/>
        <path class="cls-1" d="M91.94,37.69c1.44.43,2.67-1.24,4.07-.01.21.18.82.39.06.88-.6.39.24.62.44.92.22.33.79.68.26,1.03-.14.09-.98,1.09-1.35-.13-.1-.33-.71-.46-.97-.78-.33-.39-1.17-.2-1.04-1.21.08-.64-1.09.3-1.47-.71Z"/>
        <path class="cls-1" d="M98.36,24.31c-.46.3-.62-.37-1.17-.17-1.49.55-1.64.36-1.5-1.2.02-.18.09-.48.02-.52-.65-.39-1.13-.92-.05-1.16.6-.13,1.75-.74,1.99.81.11.74.65,1.44.71,2.23Z"/>
        <path class="cls-1" d="M115.78,33.2c.1-.77.14-1.55.32-2.3.08-.31-.01-.49-.18-.58-.63-.36-.35-.56.02-.93.36-.36.84-.75.39-1.47-.29-.48.38-.8.71-1.23-.4,1.35.11,2.67-.03,3.97-.06.58.24.69.52,1.01.3.35.74-.74.79.13.03.48-.4.82-.75.97-.55.24-1.19.29-1.79.42,0,0,0,0,0,0Z"/>
        <path class="cls-1" d="M91.8,56.25c.76-2.07.74-2.09-1.6-2.77.03.73.85,1.37.26,2.1-.71-.45-1.14-2.11-.65-2.69.45-.54,1.03-.6,1.39.04.35.62.73.79,1.39.55.5-.19.93-.01,1.27.4.53.62-.32.63-.42.97-.24.81-.92,1.12-1.6,1.45l-.05-.05Z"/>
        <path class="cls-1" d="M100.9,13.84c.94.51,2.06,0,3.1.34.24.08.45.15.44.45,0,.23-.22.26-.36.38-.75.66-1.91.17-2.63.95-.1.1-1.77-1.71-1.68-1.85.26-.41.68-.2,1.12-.27Z"/>
        <path class="cls-1" d="M77.02,37.06c.11,1.2-.69,1.72-1.85,1.88-.31.04-.72.12-.87-.3-.07-.2-.04-.48.05-.68.15-.35.49-.46.85-.34.41.14.91.42,1.16-.03.26-.45-.36-.55-.6-.8-.57-.58-.06-1.35.2-1.56.75-.61.25.49.64.62.47.15.56.62.43,1.21Z"/>
        <path class="cls-1" d="M124.51,31.31c-1.1.24-1.94.11-2.78.05-.18-.01-.36-.15-.54-.16-.62-.04-.41.71-.78.88-.7.32-.57-.32-.55-.6.03-.57-.64-.52-.82-1.17,1.82.32,3.63-.2,5.48,1Z"/>
        <path class="cls-1" d="M78.93,19.12c-.25-.75-.38-1.4.81-1.24.32.04.59-.05.79-.43.67-1.33.82-1.32,1.8-.05.03.24,0,.67-.16.63-1.74-.48-1.1,1-1.46,1.89-.41-.88-1.01-1.11-1.78-.8Z"/>
        <path class="cls-1" d="M36.12,46.18c0,.48,0,.97,0,1.45h.01c-2.46-.05-2.64.06-3.08,1.8-.26-.29-.97-.25-.65-.87.29-.56.18-1.76.91-1.57,1.23.32,1.81-.81,2.81-.81h0Z"/>
        <path class="cls-1" d="M80.57,30.59c-1.02.26-1.66,1.16-2.62,1.58-.73.33-1.06.28-1.33-.34-.28-.64.23-1.49.6-1.36,1.14.42,2.26-.42,3.34.12,0,0,0-.01,0-.01Z"/>
        <path class="cls-1" d="M98.73,25.93c.38.78.52,1.32.86,1.68.94,1.01,1.33,1.77-.54,2-.25.03-.45.47-.73.18-.25-.26-.22-.71-.05-.94.57-.8.64-1.67.46-2.92Z"/>
        <path class="cls-1" d="M68.1,32.62c-.07-.26-.17-.51.09-.67.39-.25.43.12.6.34.51.65,1.02.21,1.49-.09.28-.18.18-.82.77-.66.19.05.43.29.32.38-.44.35-.14,1.16-.74,1.31-.72.17-1.47.25-2.21.25-.7,0-.11-.62-.31-.85Z"/>
        <path class="cls-1" d="M65.4,29.33c-1.15,0-.1,1.73-1.33,1.63-.51-.04-1.52-.13-1.28-.95.27-.91,1.56-.65,2.2-1.3.11-.11.28.29.4.62Z"/>
        <path class="cls-1" d="M44.61,45.89c-.25.57-.44.97-1,.71-.25-.12-.58-.32-.8-.25-1.27.4-2.02.14-1.87-1.53,1.18.44,2.19,1.57,3.67,1.07Z"/>
        <path class="cls-1" d="M39.01,46.46c.64.57-.65.96-.03,1.53-1.3,0-.52-1.64-1.57-1.75.27-.56-.97-.64-.46-1.05.51-.41,1.19,0,1.65.42.22.19.05.67.41.86h0Z"/>
        <path class="cls-1" d="M106.84,55.11c-.43-.07-.67.33-1.02.42-.42.11-1.11-.19-.84-.53.8-.98.18-1.58-.69-2.5,1.68.5,2.08,1.58,2.53,2.62h.01Z"/>
        <path class="cls-1" d="M110.86,23.68c.1,0,.21-.04.28,0,1.3.64,1.96,1.88,2.88,2.89-1.66-.06-1.94-2.32-3.75-2.07.13-.34.7-.34.59-.82h0Z"/>
        <path class="cls-1" d="M94.5,25.81c-.59-.27-1.15-.6-1.76-.8-.88-.29-.19-1.18-.67-1.61-.03-.02.33-.28.45-.13.65.85,2.16,1.02,1.98,2.54Z"/>
        <path class="cls-1" d="M114.34,29.15c-1.35.26-2.4-.54-3.54-1.01-.14-.06-.27-.29-.28-.46-.02-.26.24-.21.42-.25.8-.17,1.3.31,1.86.76.42.34,1.02.46,1.53.68h0c0,.09,0,.19,0,.29h.01Z"/>
        <path class="cls-1" d="M83.32,27.34c.2.87,1.19.5,1.53.99.3.43.4,1.07.43,1.62.01.28-.47.44-.65.16-.45-.67-.92-1.27-1.6-1.74-.32-.22-.03-.69.3-1.02Z"/>
        <path class="cls-1" d="M88.57,60.27c-.08-.03-.28-.06-.3-.14-.07-.21-.14-.61-.06-.65.74-.4.99-1.06,1.14-1.82.07-.35.44-.62.76-.45.46.25.03.54-.11.81-.25.51-.48,1.02-.72,1.53-.14.3-.27.61-.7.72Z"/>
        <path class="cls-1" d="M99.6,9.95c.31.45.53.85-.27,1.03-1.01.23-1.82.04-2.36-.9.86-.4,1.75-.16,2.64-.13Z"/>
        <path class="cls-1" d="M53.04,48.44c.22.57.77,1.28.29,1.72-.79.73-1.11-.88-2.04-.48.51-.71,1.18-.89,1.75-1.24Z"/>
        <path class="cls-1" d="M74.58,40.58c-1.22.65-2.29.04-3.38-.3-.14-.04-.28-.27-.3-.42-.03-.25.24-.33.39-.26.96.46,1.89,1.03,3.04.65.04-.01.16.2.26.32Z"/>
        <path class="cls-1" d="M127.31,28c-.01.41.02.89-.56.79-.51-.09-.89-.52-.91-1-.02-.52.62-.76.96-.78.56-.02.46.59.51.98Z"/>
        <path class="cls-1" d="M85.8,35.22c.41.08,1.02-.17,1.07.59.03.48-.32.54-.67.52-.53-.02-1.14-.07-1.19-.74-.03-.46.47-.34.8-.38Z"/>
        <path class="cls-1" d="M75.8,43.13c-.69-.53-1.77-.57-2.08-1.71,1.14.13,1.99.45,2.08,1.71Z"/>
        <path class="cls-1" d="M78.65,35.32c0-.33.24-.6.4-.5.49.29.98.63,1.33,1.07.14.18-.27.44-.57.44-.7,0-.89-.57-1.15-1Z"/>
        <path class="cls-1" d="M71.54,28.75c-.37.06-.53-.17-.4-.4.29-.53.98-.41,1.43-.77.14-.11.67.25.6.63-.22,1.1-1.22-.01-1.63.54Z"/>
        <path class="cls-1" d="M100.45,37.71c0,.42-.15.7-.39.62-.63-.22-.9-.77-1.01-1.39-.04-.25.11-.58.35-.46.55.27.89.78,1.05,1.23Z"/>
        <path class="cls-1" d="M94.74,52.12c.04-.28.01-.78.34-.63.69.3.46,1.14.71,1.71.09.2-.1.53-.38.43-.76-.25-.43-1.03-.68-1.52Z"/>
        <path class="cls-1" d="M77.53,24.89c-.34.34-.56.89-1.22.77-.3-.06-.65-.28-.5-.56.25-.48.8-.65,1.32-.72.23-.03.43.18.4.51Z"/>
        <path class="cls-1" d="M121.83,39.29c0,.4-.03.79-.57.79-.43,0-.58-.26-.54-.65.05-.46.29-.9.74-.92.46-.02.33.47.37.78Z"/>
        <path class="cls-1" d="M114.34,28.87c0-.14-.04-.3.02-.43.19-.42-.61-1,.06-1.24.56-.2.84.44.93.87.18.84-.54.69-1.02.78,0,0,0,0,0,0Z"/>
        <path class="cls-1" d="M79.04,38.29c.08-.53.17-.99.58-1.43.1.67,1.08.96.8,1.53-.24.49-.87-.21-1.38-.1Z"/>
        <path class="cls-1" d="M72.49,21.72c.4-.86,1.22-1.04,2.04-1.2-.23,1.05-1.38,1.73-2.04,1.2Z"/>
        <path class="cls-1" d="M80.31,26.17c-.28-.46-.64-.77-1.26-1.09.68-.24,1.17-.78,1.66-.34.52.48-.49.83-.4,1.43Z"/>
        <path class="cls-1" d="M26.33,47.36c-.32-.09-.89.07-.8-.5.05-.31.38-.65.67-.83.46-.29.66.07.76.47-.11.36-.26.69-.63.86Z"/>
        <path class="cls-1" d="M79.09,54.04c.81.06,1.44.12,1.66.93.05.2-.01.43-.24.42-.76-.04-1.12-.54-1.42-1.34Z"/>
        <path class="cls-1" d="M114.2,37.86c-.04-.77-.64-2.1,1.28-1.26-.59.34-.89.81-1.28,1.26Z"/>
        <path class="cls-1" d="M57.04,51.76c-.19-.51.68-.89-.01-1.31-.19-.11-.36-.39.04-.5.23-.06.55-.02.6.24.13.59.32,1.24-.63,1.57Z"/>
        <path class="cls-1" d="M101.24,38.49c.44.68.71,1.1.92,1.42-1.02.25-1.08.21-.92-1.42Z"/>
        <path class="cls-1" d="M76.78,19.6c.27-1.68,1.25-.14,1.83-.4-.44.89-1.12.72-1.83.4Z"/>
        <path class="cls-1" d="M85.16,24.14c-.29.07-.52,0-.54-.3-.03-.46.26-.7.7-.72.31-.01.63.15.65.45.04.58-.56.36-.82.57Z"/>
        <path class="cls-1" d="M57.54,58.36c-.22.28-.29.45-.39.48-.5.13-.46,1.03-1.17.81-.05-.02-.12-.17-.1-.23.28-.64.78-.94,1.65-1.06Z"/>
        <path class="cls-1" d="M69.4,49.13c.03.37.07.75.1,1.15-.44.32-.77-.12-1.26-.19.25-.51.51-.9,1.03-1.07.04.04.08.08.13.11Z"/>
        <path class="cls-1" d="M81.14,23.96c.09,0,.19-.02.28,0,.42.09.89-.52,1.27.08.12.2,0,.42-.19.42-.5,0-1.18.38-1.36-.5h0Z"/>
        <path class="cls-1" d="M109.71,58c-.07.61-.53.93-1.01,1.61-.07-1.1.13-1.61,1.03-1.59h-.01Z"/>
        <path class="cls-2" d="M45.19,48.9c.28.16.58.34.59.72,0,.25-.22.29-.42.24-.31-.08-.5-.29-.53-.6-.02-.21.12-.35.37-.36Z"/>
        <path class="cls-1" d="M85.61,26.75c-.71.22-1.2.07-1.66-.27.66-.88,1.08-.16,1.66.27Z"/>
        <path class="cls-1" d="M59.52,56.87c-.11.76-.75.79-1.42,1.15.25-.9.71-1.18,1.38-1.19,0,0,.04.04.04.04Z"/>
        <path class="cls-1" d="M74.89,57.24c-.35.29-.39.9-.98.66-.08-.03-.16-.26-.12-.34.19-.4.53-.48,1.1-.32Z"/>
        <path class="cls-1" d="M67.4,29.05c.75.75.68,1.2,0,1.63v-1.63Z"/>
        <path class="cls-1" d="M39.01,46.47c.03-.68.21-1.12,1.01-.6-.2.45-.61.52-1.02.59,0,0,0,0,0,0Z"/>
        <path class="cls-1" d="M39.05,48.94c.51.47.66.9.35,1.52-.61-.41-.39-.93-.35-1.52Z"/>
        <path class="cls-1" d="M105.67,19.06c.29-.02.35-.75.76-.3.19.21.16.62-.11.76-.41.21-.61-.06-.64-.47h-.01Z"/>
        <path class="cls-1" d="M70.51,30.81c-.44.09-.89.18-1.57.32.58-.77,1.09-.43,1.57-.32Z"/>
        <path class="cls-1" d="M39.68,50.89c.33.45.22.8.06,1.22-.63-.41-.25-.76-.06-1.22Z"/>
        <path class="cls-1" d="M105.68,19.05c-.27-.01-.59.07-.73-.25-.07-.17.07-.25.22-.26.38-.03.46.23.49.53,0,0,.01-.01.01-.01Z"/>
        <path class="cls-1" d="M108.42,52c-.1.15-.24.14-.36.05-.07-.05-.09-.15-.14-.23.08-.03.17-.09.25-.09.15,0,.27.08.25.26Z"/>
        <path class="cls-1" d="M109.72,58.01c-.01-.42.18-.72.57-.87,0,0,0,0,0,0,0,.42-.04.81-.58.86h.01Z"/>
        <path class="cls-1" d="M69.88,31.46c-.02.23,0,.49-.34.47-.04,0-.1-.06-.1-.09-.03-.34.23-.34.45-.37h-.01Z"/>
        <path class="cls-1" d="M101.8,16.96c-.03.08-.07.15-.1.23-.08-.03-.19-.05-.22-.11-.02-.05.05-.15.09-.23.08.04.16.07.24.11Z"/>
        <path class="cls-2" d="M50.26,34.64c.07-.15.11-.36.23-.44.13-.08.29.09.21.21-.08.12-.29.16-.44.23,0,0,0,0,0,0Z"/>
        <path class="cls-1" d="M106.82,55.12c.3.23.37.52.1,1.02-.04-.45-.06-.74-.08-1.03,0,0-.01.01-.01.01Z"/>
        <path class="cls-1" d="M74.83,20.23c.05-.16.04-.4.15-.47.17-.12.33.01.39.21-.1.25-.3.29-.54.26Z"/>
        <path class="cls-1" d="M93.14,62.69c-.07.04-.14.08-.21.12-.03-.1-.07-.2-.1-.29.08-.02.18-.08.23-.06.05.03.06.14.09.23Z"/>
        <path class="cls-1" d="M69.72,55.32c.13.11.26.21.37.34.02.02-.06.2-.11.21-.3.05-.37-.18-.44-.4.06-.05.13-.11.19-.16Z"/>
        <path class="cls-1" d="M110.87,23.67c-.13-.12-.27-.24-.4-.36.06-.04.14-.12.18-.11.21.09.21.28.2.47,0,0,0,0,0,0Z"/>
        <path class="cls-1" d="M109.43,36.38c.04-.21.07-.42.11-.63.04.03.09.04.11.08.09.25,0,.43-.23.54,0,0,.01.01.01.01Z"/>
        <path class="cls-1" d="M115.77,33.19c-.01.22.02.46-.28.51-.03,0-.11-.04-.11-.07-.01-.27.17-.37.39-.44,0,0,0,0,0,0Z"/>
        <path class="cls-2" d="M45.46,45.76s-.07.04-.1.07c-.03-.05-.05-.1-.08-.14.04,0,.09-.03.12-.02.03,0,.04.06.06.09Z"/>
        <path class="cls-1" d="M81.15,23.96c-.07-.1-.14-.2-.21-.3.04-.02.07-.05.11-.07.03.12.07.25.1.37,0,0,0,0,0,0Z"/>
        <path class="cls-1" d="M82.97,26.09s0,.09-.01.1c-.03.02-.09.04-.12.03-.13-.06-.12-.13.01-.17.03,0,.08.02.12.04Z"/>
        <path class="cls-1" d="M75.38,59.45c.07-.06.13-.13.2-.19.02.04.05.09.07.13l-.28.05s0,.01,0,.01Z"/>
        <path class="cls-1" d="M69.53,55.47c-.11-.19-.21-.37-.32-.56.06-.05.12-.1.18-.15.11.18.22.37.34.55-.06.05-.13.1-.19.16Z"/>
        <path class="cls-1" d="M76.27,30.55s-.08-.03-.12-.04l.14-.14s.06.06.1.1c-.04.03-.07.05-.11.08Z"/>
        <path class="cls-1" d="M69.89,31.47s.08-.08.12-.12c0,.03,0,.06-.02.07-.03.02-.07.03-.1.04,0,0,.01.01.01.01Z"/>
        <path class="cls-1" d="M75.66,46.76s.09.08.14.12c-.03,0-.07,0-.09-.01-.03-.03-.03-.07-.05-.11,0,0,0,0,0,0Z"/>
        <path class="cls-1" d="M76.23,29.44s-.04.08-.06.12c.02-.04.04-.07.07-.11,0,0,0,0,0,0Z"/>
        <path class="cls-1" d="M114.33,29.16s.08.04.12.06c-.04-.03-.07-.05-.11-.08,0,0-.01.01-.01.01Z"/>
        <path class="cls-1" d="M36.13,46.18s.09-.09.13-.13c0,.03,0,.07-.02.08-.03.02-.07.03-.11.04,0,0,0,0,0,0Z"/>
        <path class="cls-1" d="M86.92,38.09s-.08-.04-.12-.07c.04.03.07.05.11.08,0,0,.01-.01.01-.01Z"/>
        <path class="cls-1" d="M36.12,47.62s.08.03.11.05c-.03-.02-.07-.04-.1-.06,0,0-.01.01-.01.01Z"/>
        <path class="cls-1" d="M91.84,56.3c-.06.04-.11.08-.17.13.04-.06.08-.11.12-.17,0,0,.04.04.04.04Z"/>
        <path class="cls-1" d="M83.14,17.31l.15.15s-.08,0-.1-.03c-.02-.04-.03-.09-.04-.13,0,0-.01,0-.01,0Z"/>
        <path class="cls-1" d="M100.2,49.35s-.08-.04-.11-.06c.03.03.07.05.1.08,0,0,.01-.01.01-.01Z"/>
        <path class="cls-1" d="M75.37,59.44s-.04.07-.06.1c.02-.03.05-.06.07-.09,0,0,0-.01,0-.01Z"/>
        <path class="cls-1" d="M77.96,44.17s-.08-.1-.12-.15l.14.13s-.02.02-.02.02Z"/>
        <path class="cls-1" d="M77.98,44.15c.05.05.09.1.14.15-.05-.04-.1-.09-.16-.13,0,0,.02-.02.02-.02Z"/>
        <path class="cls-5" d="M81.42,15.07c-.38.07-.76.15-1.14.22-.32-.91-2.28-1.69-2.52-1.03-.29.78-.71.31-1.02.48-.29.16-.88.33-.86.4.4,2.05-2.1,1.34-2.53,2.65-.07.22-.86.57-1.39.04-.75-.75-1.2-.55-1.14.51.02.42-.21.48-.46.59-.21.09-.42-.01-.46-.21-.22-1.36-1.28-.44-1.91-.67-.47-.17-1.1.14-1.79.25.23.53,1.35.98.41,1.53-.96.56-1.46,2.61-3.22,1.01-.17.74.58,1.69-.63,1.93-.83.17-2.65-.64-3.07-1.42-.44.5-.78,1.27-1.64.58.15-.07.3-.13.45-.2-.03-.05-.07-.11-.1-.16-.11.12-.23.25-.34.37-.34.02-.64,0-.89-.33-.51-.67-.65-.68-.97.25-.41,1.22-1.64.49-2.33.32-1.37-.34-2.67-1.03-3.85-1.85-.65-.45-1.38-.84-2.13-.61-.93.27-.91-.47-.94-.85-.11-1.52-.38-3.13-.01-4.56.18-.71.46-2.11,1.91-2.2,1.84-.11,3.36-1.33,5.15-1.68,1.45-.29,2.9-.56,4.34-.85.62-.12.78.35,1.09.7.23.27.5.11.5-.35,0-.47.32-.4.58-.41.28-.01.63-.01.6.41-.02.3-.33.62.07.89,1.11-2.3,3.32-3.19,5.48-3.81,3.01-.86,6.19-.8,9.31-.96.62-.03,1.23.06,1.85-.18.25-.1.94-.49.61.46-.11.31.4.29.67.25.44-.06.88-.45,1.54.22-1.37.12-2.55.26-3.73.29-.41,0-.67-.04-.64.44.04.52.37.41.73.33,1.21-.26,2.47-.8,3.63-.66,1.45.18,2.89-.85,4.43.31.71.53,2.2-.27,3.31.21.36.16,1.05-.14,1.06.46,0,.74-.73.37-1.13.51-.12.04-.23.11-.31.32.89.14,1.77.33,2.39-.71.56-.95,1.62-1,2.49-.91.74.07,1.13.8.98,1.65-.04.23-.06.57.07.7,1.62,1.67-.15,1.53-.97,1.75-1.53.41-3.15.52-4.59,1.28-.59.1-1.16.23-1.66.58-.9-1.17-2.09-1.05-3.33-.83.03.15,0,.27.06.32.31.32,1.13-.12,1.1.6-.02.57-.65.56-1.11.69-.71.2-1.45.37-2.01.93ZM59.21,11.56c-.26-.35-.56-.42-1.02-.06.41.03.72.04,1.02.06.25.29.48.58.74.86.43.46.97.3,1.48.25.21-.02.38-.18.33-.38-.13-.58-.58-.65-1.1-.66-.19,0-.42-.19-.56-.36-.61-.77-.62.14-.9.3ZM65.27,16.17h0c.26-1.29-1.24-1.25-1.61-2.12-.55-1.28-1.46-1.21-2.32-.29-.58.62-.73.41-1.15-.22-.77-1.15-1.77-1.83-3.03-.43-.32.35-.77.24-1.15-.12-.43-.41-.85.03-.89.3-.07.49-.52.97-.13,1.53.39.56.72.05.89-.11.77-.75,1.46-1.58,2.07.13.02.06.35.04.52,0,.61-.13,1.05.14,1.8.61-.88.09-1.42.15-1.96.21,1.01.44,1.62,1.85,3.19,1.19-.56-.53-1.19-1.13-.03-1.54.49-.17,2.59,1.12,2.62,1.65.04.63.18,1.04.91.93.35-.05.98.21.97-.26,0-.5.23-1.33-.71-1.47ZM83.32,8.49c-.83-.55-1.38-.43-1.87-.36-1.46.21-2.94.39-4.34.81-.83.25-1.28.16-1.81-.48-.5-.6-1.68-.59-1.82-.22-.37.97-1.04.63-1.63.74-.42.07-.94-.2-1.31.38.52.16.99.46,1.41.4,1.05-.16,1.92,1.09,2.85.52,1.28-.77,2.79-.78,4.04-.86,1.51-.09,2.74-.75,4.47-.92ZM85.16,10.3c-1.27-1.48-2.16.39-3.29.37-.22,0-.43.25-.26.53.13.21.34.31.61.21,1-.38,2-.75,2.94-1.11ZM49.95,15.75c-.02-.5-.45-.7-.76-.62-.49.12-.91.48-.93,1.07-.02.52.37.57.77.6.76.04.68-.64.92-1.04ZM69.75,11.4c-1.16-.52-2.28-.61-3.62.16,1.24,0,2.19,0,3.13,0,.16,0,.33-.1.49-.16ZM74.79,15.93c0-.32-.1-.57-.47-.56-.31,0-.56.17-.59.49-.03.33.22.51.52.56.36.06.51-.15.53-.49ZM92.23,10.83c.53.01.7-.23.76-.6-.26.15-.66.08-.76.6Z"/>
        <path class="cls-5" d="M40.39,18.73c-1.08-.49-2.13-1.03-3.23-1.46-.62-.24-.78-.77-1.13-1.3,1.73-.82,3.51-1.38,5.32-1.75.76-.16,1.46-.43,2.19-.64.63-.18,1.39-.64,1.85.03.53.77.39,1.78.08,2.61-.13.35-.6.61-.77,1.09-.17.49-1.02.42-1.1.21-.62-1.59-1.59-.12-2.54-.5.58.76,1.21.67,1.89.73-.14.67-.5,1.04-1.15,1.15-.47-.06-.94-.12-1.41-.17Z"/>
        <path class="cls-5" d="M79.42,3.76c-1.87.33-3.75-.28-5.88.35,2.03-1.82,3.8-3.39,6.42-3.25,1.12.06,2.19.2,2.9,1.24.3.44.78.54,1.28.5.68-.06,1.2.2,1.66.83-1.87-.74-3.42.85-5.22.57-.48-.47,1.01-.65.2-1.03-.6-.28-1.25-.06-1.36.79h0ZM79.11,2.34c-.19-.13-.28-.22-.38-.25-.07-.02-.16.05-.24.08.07.1.12.24.21.29.07.03.2-.05.41-.12Z"/>
        <path class="cls-5" d="M33.82,13.87c-.14-.25-.33-.62-.62-.38-.53.44-.86.08-1.27-.14-.26-.14-.58-.27-.55-.59.04-.39.44-.23.69-.34,1.11-.47,2.34.08,3.47-.47.48-.23,1.1-.28,1.59-.59,1.06-.67,2.07.45,3.22.01.87-.33,1.97-.16,3.27.16-3.35,1.31-6.39,2.58-9.81,2.31h.01Z"/>
        <path class="cls-1" d="M53.05,9.52c1.41-.33,2.85-.46,4.51-1.08-2-.21-3.61.61-5.47.4,1.04-1,2.85-.11,3.28-1.86.53,1.04,5.54,1.18,7.57.33-.48.91-7.62,2.59-9.89,2.21Z"/>
        <path class="cls-1" d="M60.37,34.35c-.56.93-1.38.98-2.32.58.02.61.48.47.72.63.79.56.51,1.29.22,1.93-.39.88-.94.02-1.21-.1-1.69-.74-1.89-1.75-.67-3.12.5-.57.3-1.13.1-1.78,1.5.07,1.99,1.55,3.17,1.86,0,0,0,0,0,0Z"/>
        <path class="cls-1" d="M60.89,39.88c-.07.22-.21.44-.2.65.05.78-.58.85-1.05.92-.55.07-.53-.54-.73-.9-.28-.49.2-.88.11-1.36-.05-.29.15-.67.53-.76.4-.09.43.27.53.52.17.41.86.25.91.81-.03.04-.07.08-.11.12Z"/>
        <path class="cls-5" d="M40.39,18.73c.47.06.94.12,1.41.17.26.26.52.52.93.94-.93-.01-1.56.44-2.25.8-.47.25-1.09.41-1.39-.15-.3-.54.39-.63.67-.9.26-.25.71-.36.63-.86Z"/>
        <path class="cls-1" d="M86.7,13.37c.5-.35,1.07-.48,1.66-.58.53.44,1.06.89,1.59,1.33-1.19.03-2.54.89-3.25-.75Z"/>
        <path class="cls-3" d="M64.73,4.79c.98-.02,1.79-.57,2.68-.85.93-.29,1.4.44,2.12.57.07.01.19.26.15.34-.13.3-.45.41-.72.32-1.38-.46-2.82-.13-4.23-.37Z"/>
        <path class="cls-1" d="M58.61,24.65c-.78.34-1.29-.2-1.34-.76-.06-.81.73-.43,1.18-.51.7-.13,1.42.24,1.44.79.04.78-.73.6-1.29.49Z"/>
        <path class="cls-1" d="M56.25,7.12c1-.38,1.7-1.26,2.85-1.04.28.05.61.03.6.43,0,.3-.25.36-.5.39-.94.09-1.86.48-2.95.22Z"/>
        <path class="cls-1" d="M54.43,25.54c-1.32-.04-1.51-1.1-2.13-1.97,1.39.05,2.02.66,2.13,1.97Z"/>
        <path class="cls-1" d="M61,39.76c.82.35,1.7.69.8,1.79-.13.17-.4.39-.54.35-.31-.08-.42-.44-.27-.69.31-.5-.04-.9-.1-1.34.04-.04.08-.07.11-.11Z"/>
        <path class="cls-3" d="M42.94,10.3c.14-.11.18-.16.22-.16.58-.1,1.15-.59,1.74-.09.04.04-.02.29-.1.36-.6.54-1.16.07-1.86-.12Z"/>
        <path class="cls-1" d="M95.86,13.87c.14.09.29.17.43.26-.05.05-.1.11-.15.16-.09-.14-.18-.28-.27-.43,0,0,0,0,0,0Z"/>
        <path class="cls-1" d="M62.9,41.26s-.02.09-.05.11c-.02.01-.07-.02-.1-.03.03-.06.06-.13.08-.19.02.04.05.07.07.11Z"/>
        <path class="cls-1" d="M95.29,13.87c.19-.31.38-.26.57,0,0,0,0,0,0,0-.2,0-.39,0-.59,0,0,0,.01.01.01.01Z"/>
        <path class="cls-3" d="M46.53,25.68c.21.11.2.21-.02.3,0,0,0,0,0,0-.02-.09-.02-.18-.02-.28l.03-.03Z"/>
        <path class="cls-1" d="M32.38,38.39s.07-.08.11-.13c0,.02,0,.06-.02.07-.03.02-.06.03-.1.05h0Z"/>
        <path class="cls-1" d="M32.37,38.38s-.08.08-.12.12c0-.02.01-.06.03-.07.03-.02.07-.02.1-.03,0,0,0-.01,0-.01Z"/>
        <path class="cls-3" d="M33.81,13.86s-.04.08-.06.12c.02-.04.05-.07.07-.11,0,0-.01-.01-.01-.01Z"/>
        <path class="cls-3" d="M79.41,3.77s.08.08.12.12c-.03,0-.06,0-.08-.02-.02-.03-.03-.07-.04-.1,0,0,0,0,0,0Z"/>
        <path class="cls-1" d="M33.25,30.87c1.27.04,1.91,1.79,3.43,1.32-.14.08-.4.17-.39.24.13,1.69-1.58.97-2.24,1.64-.08.09-1.12-.43-.63-1.01.76-.89.25-1.48-.2-2.16l.03-.03Z"/>
        <path class="cls-1" d="M14.63,35.21c-.7.17-1.37.24-.9,1.15.24.45.19.86-.34,1.04-.36.12-.85.27-1.07-.08-.32-.5.33-.54.54-.81.13-.16.23-.55.14-.65-.6-.66.14-.99.41-1.18.53-.37.71.41,1.22.53Z"/>
        <path class="cls-1" d="M23.58,21.29c1.07-1.03,2.57-.25,3.51-1.18.03-.03.48.2.52.36.07.27-.25.38-.46.45-1.09.38-2.21.56-3.57.37Z"/>
        <path class="cls-1" d="M29.09,26.15c-.49-.37-1.95,0-2.66-1.36,1.79-.96,1.93,1.55,2.66,1.36Z"/>
        <path class="cls-1" d="M20.55,34.64c-.96.49-1.91.97-3.2,1.63.8-1.71,1.91-1.85,3.19-1.64,0,0,.01.01.01.01Z"/>
        <path class="cls-1" d="M34.18,28.14c-.38,0-.44-.31-.54-.56-.15-.37-.04-.66.4-.68.3-.02.59.06.59.43,0,.34-.2.6-.46.81Z"/>
        <path class="cls-1" d="M30.93,27.42c.03-.24.07-.57.38-.42.27.13.5.43.62.71.09.2-.2.28-.39.29-.4.02-.63-.16-.61-.59Z"/>
        <path class="cls-2" d="M46.5,25.71c0,.09,0,.18.02.28-.12-.04-.25-.09-.37-.13.12-.05.23-.09.35-.14Z"/>
        <path class="cls-1" d="M20.83,34.35c.1-.07.2-.15.31-.22,0,0,.05.07.08.1-.13.04-.26.08-.39.12,0,0,0,0,0,0Z"/>
        <path class="cls-1" d="M32,30.71s.07-.03.1-.04c.01.05.02.1.03.15-.04,0-.08,0-.11-.02-.02-.01-.02-.06-.02-.09Z"/>
        <path class="cls-1" d="M33.22,30.9l-.12-.15s.1.08.15.12c0,0-.03.03-.03.03Z"/>
        <path class="cls-1" d="M20.83,34.35c-.09.1-.19.19-.28.29,0,0-.01-.01-.01-.01.1-.09.2-.19.29-.28,0,0,0,0,0,0Z"/>
        <path class="cls-1" d="M11.01,19.34c.02.56-.44.82-.76,1.16-.19.2-.36.47-.69.45-.26-.02-.26-.25-.26-.43-.01-.37.14-.67.49-.8.4-.15.82-.25,1.23-.37,0,0-.01-.01-.01-.01Z"/>
        <path class="cls-1" d="M15.92,17.62c.59.2,1.14-.55,1.86.01-.53.35-1.04.67-1.36,1.48-.22-.67-.36-1.08-.49-1.5h0Z"/>
        <path class="cls-1" d="M12.46,18.19c.01-.36.14-.65.52-.75.17-.04.29.06.24.23-.1.38-.41.48-.76.51h0Z"/>
        <path class="cls-1" d="M23.2,15.67c-.4.39-.83.24-1.38.17.42-.43.87-.2,1.24-.34.04.06.09.11.14.17Z"/>
        <path class="cls-1" d="M13.85,17.01s-.03.08-.04.12c-.04-.04-.09-.09-.13-.13.03-.03.06-.06.09-.09.03.03.05.07.08.1Z"/>
        <path class="cls-1" d="M11.02,19.35s.04-.08.06-.13c-.03.04-.05.08-.08.11,0,0,.01.01.01.01Z"/>
        <path class="cls-1" d="M12.46,18.19s-.09.08-.13.12c0-.03,0-.07.02-.08.03-.02.07-.03.11-.04,0,0,0,0,0,0Z"/>
        <path class="cls-1" d="M15.93,17.61s-.07-.04-.1-.06c.03.02.06.04.1.07,0,0,0,0,0,0Z"/>
        <path class="cls-2" d="M58.28,3.76c0,.29-.06.45-.28.49-.32.07-.56-.07-.66-.36-.07-.2.06-.34.28-.38.3-.05.54.02.66.24Z"/>
        <path class="cls-1" d="M72.66,19.73c.12.05.2.08.27.11-.04.1-.08.21-.14.29-.01.02-.21-.05-.21-.08,0-.1.04-.21.07-.32Z"/>
        <path class="cls-1" d="M77.89,17.93c-.06.05-.12.14-.19.14-.17.01-.24-.11-.2-.25.02-.05.15-.11.22-.09.06.01.1.12.17.21Z"/>
        <path class="cls-1" d="M109.43,41.27c-.19-.06-.47,0-.45-.34,0-.03.06-.09.09-.09.33-.03.31.23.34.44,0,0,.01-.01.01-.01Z"/>
        <polygon class="cls-1" points="115.34 41.18 115.31 41.1 115.38 41.11 115.34 41.18"/>
        <path class="cls-1" d="M94.14,47.05s.04-.08.07-.12c-.03.04-.05.07-.08.11,0,0,.01.01.01.01Z"/>
        <path class="cls-1" d="M65.27,16.17c.94.13.7.97.71,1.47,0,.46-.62.2-.97.26-.73.11-.87-.31-.91-.93-.03-.53-2.13-1.83-2.62-1.65-1.16.41-.53,1,.03,1.54-1.57.66-2.18-.75-3.19-1.19.54-.06,1.08-.11,1.96-.21-.75-.47-1.2-.74-1.8-.61-.17.04-.5.06-.52,0-.61-1.7-1.3-.88-2.07-.13-.16.16-.49.67-.89.11-.39-.56.06-1.03.13-1.53.04-.27.46-.71.89-.3.38.36.83.47,1.15.12,1.26-1.39,2.26-.72,3.03.43.42.62.56.84,1.15.22.86-.92,1.77-.98,2.32.29.37.87,1.88.82,1.61,2.13-.02.04-.05.07-.07.11.02-.04.04-.08.06-.11Z"/>
        <path class="cls-1" d="M83.32,8.49c-1.73.17-2.96.83-4.47.92-1.25.08-2.76.09-4.04.86-.94.57-1.8-.68-2.85-.52-.42.06-.89-.24-1.41-.4.37-.59.89-.31,1.31-.38.59-.1,1.27.23,1.63-.74.14-.37,1.31-.37,1.82.22.53.63.98.72,1.81.48,1.4-.42,2.88-.6,4.34-.81.49-.07,1.04-.18,1.87.36Z"/>
        <path class="cls-1" d="M85.16,10.3c-.95.36-1.95.73-2.94,1.11-.27.1-.48,0-.61-.21-.17-.28.04-.53.26-.53,1.13.02,2.02-1.85,3.29-.37Z"/>
        <path class="cls-1" d="M59.21,11.56c.28-.16.3-1.07.9-.3.13.17.37.36.56.36.52,0,.96.08,1.1.66.05.2-.12.36-.33.38-.51.05-1.06.2-1.48-.25-.26-.27-.49-.57-.74-.86h0Z"/>
        <path class="cls-2" d="M49.95,15.75c-.25.4-.17,1.08-.92,1.04-.4-.02-.79-.08-.77-.6.02-.58.45-.95.93-1.07.32-.08.74.12.76.62Z"/>
        <path class="cls-1" d="M69.75,11.4c-.16.05-.32.15-.49.16-.95.01-1.9,0-3.13,0,1.34-.78,2.46-.68,3.62-.16Z"/>
        <path class="cls-1" d="M74.79,15.93c-.02.34-.17.55-.53.49-.3-.05-.55-.23-.52-.56.02-.32.27-.48.59-.49.37,0,.47.24.47.56Z"/>
        <path class="cls-1" d="M92.23,10.83c.1-.52.5-.45.76-.6-.07.37-.23.62-.76.6Z"/>
        <path class="cls-1" d="M59.21,11.56c-.3-.02-.61-.04-1.02-.06.46-.35.76-.28,1.02.06,0,0,0,0,0,0Z"/>
        <path class="cls-1" d="M58.06,21.95c.11-.12.23-.25.34-.37.03.05.07.11.1.16-.15.07-.3.13-.45.2,0,0,0,0,0,0Z"/>
        <path class="cls-2" d="M79.11,2.34c-.21.07-.34.15-.41.12-.1-.05-.15-.19-.21-.29.08-.03.17-.1.24-.08.11.03.2.12.38.25Z"/>
        <path class="cls-1" d="M65.27,16.17s-.04.08-.06.11c.02-.04.05-.07.07-.11,0,0,0,0,0,0Z"/>
      </g>
    </g>
  </g>
</svg>