<?xml version="1.0" encoding="UTF-8"?>
<svg id="Layer_2" xmlns="http://www.w3.org/2000/svg" viewBox="0 0 119.94 98.57">
  <defs>
    <style>
      .cls-1 {
        fill: #506b2b;
      }

      .cls-2 {
        fill: #a6bc88;
      }

      .cls-3 {
        fill: #c3d2b0;
      }

      .cls-4 {
        fill: #d2d2cf;
      }

      .cls-5 {
        fill: #e1e2e2;
      }

      .cls-6 {
        fill: #bcbbbc;
      }

      .cls-7 {
        fill: #9f9e9d;
      }

      .cls-8 {
        fill: #88a561;
      }

      .cls-9 {
        fill: #6a8f39;
      }

      .cls-10 {
        fill: #fdfdfd;
      }
    </style>
  </defs>
  <g id="Layer_2-2" data-name="Layer_2">
    <g>
      <path class="cls-3" d="M33.83,5.02c.02-2.74,1.98-3.18,4.09-3.45.25.51.42,1.41.75,1.47,1.08.2,1.05-.78,1.18-1.51.34,0,.68-.01,1.03-.02.68,2.64.77,6.41,4.81,2.35.46-.46,1.78-.64,2.35-.32,2.62,1.48,3.56-.57,4.83-2.04,2.19.67,4.37,1.37,6.57,1.98.74.2,1.8.81,2.27-.03,4.14-7.43,8.11-.67,12.15.08-.37,1.14-1.56,2.6.78,2.89,1.71.21,3.46.08,5.19.11,3.62.76,6.21,2.87,7.97,6.07-.27,0-.54,0-.81,0-.97.43-2.61-1.94-2.99.66-.14.92,2.16,1.9-.28,2.87-2.22.88-2.83-1.13-4.18-1.78,0-.18.02-.35.09-.51.46-1.25,2.81-1.66,1.81-3.49-.74-1.35-2.3-.86-3.52-.81-2.43.1-.78,1.87-1.06,2.85-7.75-1.18-15.02-5.1-23.16-4.02-1.57-.42-2.08-2.64-4.05-2.43q.55,5.24,4.47,5.43c1.9.61.95,3.85,3.93,3.82,2.57-.03,5.16.95,7.74,1.48-.16,2.26-1.89,1.71-3.25,1.79-3.79.22-4.42,2.01-2.53,5.07-.7.21-1.69.11-1.81,1.09-.13,1.11.81,1.52,1.62,1.96.12,1.26.86,1.85,2.08,1.89,0,1.39-.71,2.37-2.06,1.8-3.81-1.62-2.89,1.24-3.11,3.08-2.5,1.81.67,3.31.53,4.62-1.59,1.83-4.63-.48-4.47.84.5,4.13-2.23,2.51-3.96,2.93-1.12.27-2.61.35-1.57,2.46.38.76-1.04,2.14-2.31,2.07-4.24-.25-2.96,2.04-2.07,4.22.21.67.42,1.34.63,2.01.79.54,2.7-.11,2.1,1.94-.94-.21-2.18-.9-2.77-.54-1.39.84-3.82,1.23-3.53,3.36.29,2.08,2.01.58,3.15.61,1.76.05,1.29,1.5,1.39,2.56-1.9,2.13-5.52-1.65-6.96,2.03-1.99-.97-3.99-1.31-5.99-.02-1.78-2.11-1.89.96-2.99.96l.05.05c-.27-1.43-.52-3.5-1.99-3.47-1.31.03-3.09,1.39-3.68,2.63-.39.82.48,2.96,2.61,2.67,1.8,1.61,1.36,2.9-.55,3.99-1.64-1.01-3.28-2.02-4.92-3.02-.8-.49-1.74-1.4-2.35.03-.37.86-.35,2.58.46,2.65,5.05.45,2.63,3.4,1.63,6.33,3.88-2.1,4.74-.48,4.47,2.61-.07.81-.01,1.64-.01,2.46-1.13,2.42-4.05-2.49-4.69,1.05-.5,2.79,1.08,4.55,3.84,5.18-.28,1-.55,2-.83,3-2.15-1.15-4.2-1.99-5.35-4.77-.61-1.46-3.78-4-5.83-2.81-2.36,1.36,1.67,2.61,1.29,4.41-.07.32-.04.66-.05.99-3.86-.81-6.16-3.2-7.07-6.99,3.67-2.22,3.99-3.62,1.7-7.34-1.45,1.51-.07,4.04-1.92,5.4-2.77-1.61-2.15-4.56-2.78-7.01.33-.35.66-.71.98-1.06-.02-.3-.03-.6-.03-.89.35-.36.69-.73,1.04-1.09,2.1-.03,2.31-1.86,3.03-3.2.32.09.65.17.97.26.77.89-2.18,2.82,1.03,3.17,1.82.2,3.87,1.27,4.57-1.13.61-2.09,1.18-4.86-2.53-5.15-.6-2.48.87-4.52,1.45-6.74,4.16-.22,2.34-3.16,2.39-5.25.42-.62.84-1.25,1.26-1.87,1.93-.34,3.85-.68,5.78-1.02-.02,1.73.71,3.02,1.78,4.41.77,1,.74,2.3,2.59,1.77,1.94-.56,1.01-2.08.77-2.77-1.07-3.03,1.08-4.7,2.78-6.57-1.38-.87-2.91-.9-3.45-2.35.55-1.61.89-3.13-1.48-3.51.18-1.33-.38-3.39,2.25-2.43,1.54.56,2.57.3,2.8-1.51,3.83-.4,6.32-2.17,6.47-6.33.01-.3.15-.6.22-.9,1.95-3.23.43-6.58.36-9.87,0-.95,0-1.91.01-2.86,1.33-.32,3.03,0,3.46-1.87.05-.22-.54-.83-.85-.85-1.66-.1-2.79.56-2.89,2.4-1.58.15-1.77,1.85-2.84,2.55-.32-.1-.64-.2-.96-.3-.17-.41-.35-.82-.52-1.23-.12.43-.24.87-.36,1.3l-1.26,1.76c-1.12.23-1.8.89-2,2.02-2.22,4.35-7.99,6.35-7.99,12.15-2.2,1.49-2.88,3.47-1.95,5.98-.15,1.05.22,2.29-1.05,2.95-.63.02-1.25.05-1.88.07-2.36-.68-4.21,1.52-7.29.32,1.27,1.45,1.8,2.05,2.32,2.66-.36.65-.73,1.3-1.09,1.95-1.27.46-2.98-2.52-3.96.58-.68,2.15-2.48,3.94-1.96,6.46-.95.02-1.91.05-2.86.07,1.15-5.95,1.42-12.07,4.43-17.64,1.43-2.65-.65-6.94,3.72-8.4.24.33.48.66.72.99-1.64,1.02-.76,2.72-1.1,4.09-.79.51-2.16.82-.76,2.12-.15.97-.29,1.94-.44,2.91-.13.88-2.52,1.64-.44,2.53,1.5.64,2.08-.56,2.3-2.19.23-1.73.78-3.71,1.88-4.97,2.34-2.65.39-3.44-1.45-4.49,1.26-.03,1.96-.62,1.93-1.93,1.65-.65,4.12-1.07,1.11-3.24-.83-.6-1.22-1.45-.74-2.05,4.13-5.07,7.78-10.71,14.52-12.83-.19,1.33-1.61,2.42-.75,4.35,2.11-1.71,4.65-.34,6.95-1.59,1.48-.8,1.32-4.31,4.26-2.28-.42-2.19-2.42-2.53-3.33-3.89ZM34.81,47.55c.17.12.34.24.51.36-.12-.17-.24-.34-.35-.51-.1-1.32-.19-2.64-.32-4.36-3.14,3.98-1.94,8.02-2.57,12.18,4.97-1.77,2.12-5.18,2.73-7.67ZM43.99,25.64c.05,3.4-.66,6.86.85,10.13.43.94,1.14,1.65,2.26,1.38.27-.06.65-.98.53-1.13-2.96-3.6,1.4-5.76,1.67-8.7.51-2.09-2.04-4.26.34-6.46.67-.61-1.17-2.73-1.43-2.04-.97,2.62-6.4,2.48-4.21,6.81ZM16.45,56.43c-.81,1.44-1.01,2.55-.02,3.68.68-1.06.73-2.09.02-3.68Z"/>
      <path class="cls-2" d="M118.8,79.42c-1.02,3.92-3.01,7.26-5.95,10.04-.66-2.63.63-6.24-3.56-7.1,2.76-3.59,2.35-8,3.11-12.1-.25-5.91-5.3-3.3-8.16-4.56-2.59-1.14-3.28,1.06-4.29,2.63-.1-.13-.19-.38-.3-.38-5.21-.25-11.5.87-9.78-7.93-1.7.03-1.74-3.11-3.87-2.08-.9.44-1.76,1.72-.86,2.41,2.79,2.15-.51,5.75,2.27,8.07,1.01.84.37,2.56-2.11,2.24-2.84-.37-8.1,4.94-8.28,7.74-1.47.6-.92,3.29-3.19,3.06h.01c-.34-1.05-.68-2.11-1.02-3.17.26-1.22,3.41-.24,2.06-2.69.02-1.07.05-2.15.07-3.22.86-.86,2.06-1.48,1.98-2.97.77-1.91,4.45-1.54,3.73-4.48-.6-2.45-4.4-1.3-5.04-3.95,1.72-1.49,4.97.87,5.62-1.65.56-2.17-2.9-1.43-3.91-2.99-.69-1.08-1.71-1.94-2.58-2.91,2.03-.59,4.07-.75,6.09.05,1.52,1.5,3.45.86,2.76-.8-1.36-3.27,1.22-5.43,1.23-8.17,3,.02,3.4-.3,2.27-1.7-1.9-2.37-.08-3.42,1.08-4.84,1.92.93,4.22,1.54,3.82,4.46-1.91,1.41-.64,2.36.65,2.72,2.37.65,2.13-1.24,2.18-2.7,2.23-3.88-.88-7.27-1.02-10.93,2.8-2.59,1.8-6.08,2.19-9.24,3.55,3.79,5.26,8.71,8.03,12.98-1.93,1.35-5.33,1.71-3.66,5.46-.43,2.41,1.48,3.27,2.8,4.74,3.1,3.44,7.08,6.2,8.13,11.32.75,3.66,2.46,7.11,3.97,11.31,2.59-4.78-1.58-7.93-.56-11.61,2.69,3.54,3.57,7.7,4.11,11.98-.94.25-3.2-.39-2.5,1.1,2.02,4.27-.52,6.68-3.09,8.99,1.82,2.42,4.01-1.75,5.56.87ZM96.95,36.36c-.19-.11-.38-.21-.56-.32.1.19.21.38.31.57.22.14.43.27.65.41-.13-.22-.26-.44-.4-.65Z"/>
      <path class="cls-8" d="M36.88,96.43c-2.53.11-4.9-.38-7.01-1.87.05-.39.09-.77.14-1.16,1.44-.94,7.86,4.36,4.07-3.29-.63-1.27.82-2.28,2.15-2.75,1.33,0,3.02,1.23,3.78-.88.83-2.29-1.02-3.6-2.13-5.15.07-2.19.23-4.42-1.97-5.85-.34-1-.68-2.01-1.03-3.01,4.48.07,8.13,3.73,12.81,2.97,1.08.46,2.16.93,3.24,1.39-1.18,3.23-2.51,6.51,1.98,8.41-.41.42-2.49-.39-1.05,1.41,1.09,1.37,2.27,2.72,1.6,4.7-6.38-1.07-11.65,1.44-16.58,5.09Z"/>
      <path class="cls-8" d="M80.07,97.75c-4.37,1.41-8.8.63-13.22.35.38-.45.75-.89,1.13-1.34-3.19-.14-3.38-3.28-4.99-5-1.25-1.33-.93.15-1.14.66-2.84-.98-4.58-3.16-6.07-5.6.3-1.28-.21-3.84,1.88-3.04,2.69,1.03,4.18-.77,6.2-1.31.52,1.5-1.14,2.93-.06,4.77,1.38-1.86,2.05-3.69,2.03-5.78l.03-.03c1.55.17,2.88.49,2.29,2.61-.47,1.7-.38,3.23,1.93,3.43-.35,2.07-.06,4.16,2.18,4.64,2.03.44,1.25-1.64,1.53-2.71,1.23.06,2.47.11,3.7.17,3.4.56.65,4.29,2.83,5.48-.49.86-1.58,1.66-.26,2.69Z"/>
      <path class="cls-9" d="M80.07,97.75c-1.32-1.03-.24-1.83.25-2.68,2.73,1.07,5.26-.24,7.87-.65,1.43-1.91,4.98.79,5.71-2.63,1.4-3.04,4.58-4.41,6.48-6.93.44-.59-.74-2.42,1.21-2.29,1.31.09,2.53.86,2.85,2.27.29,1.26.28,2.59.41,3.88-3.57.77-5.87,2.97-7.15,6.32-5.7,2.02-11.63,2.58-17.62,2.71Z"/>
      <path class="cls-9" d="M36.88,96.43c4.93-3.65,10.2-6.17,16.58-5.09.72,3.54,4.76,3.19,6.48,5.55-7.71.74-15.41,1.25-23.07-.46Z"/>
      <path class="cls-1" d="M114.72,56.48c-1.03,3.68,3.15,6.83.56,11.61-1.52-4.2-3.23-7.65-3.97-11.31-1.05-5.12-5.03-7.88-8.13-11.32-1.32-1.47-3.23-2.32-2.79-4.73,5.33.56,8.48,3.62,10.11,8.58.49,1.49,1.02,3.23,3.17,3.24.41,1.29,1.35,2.45,1.06,3.93Z"/>
      <path class="cls-9" d="M113.66,52.55c-2.15,0-2.68-1.74-3.17-3.24-1.63-4.96-4.79-8.02-10.11-8.58-1.67-3.76,1.73-4.12,3.66-5.47,3.46,5.62,7.78,10.76,9.62,17.29Z"/>
      <path class="cls-8" d="M92.94,19.47c1.21.02,1.94.59,2.11,1.81-.34.07-.67.14-1.01.21-2.26.84-2.49,1.83-.21,2.99-.52,1.83-.56,3.97-3.01,4.52-.79.31-1.48.25-1.97-.54.03-.31.04-.62.03-.93-1.33-2.42-5.66-.26-6.12-4,1.95.3,3.3-1.55,4.88-1.62,1.94-.08,3.61.51,3.16-2.38.71-.02,1.42-.05,2.14-.07Z"/>
      <path class="cls-8" d="M3.89,68.4c-.35.36-.69.73-1.04,1.09-4.27-2.69-2.42-6.97-2.63-10.65-.1-1.75.51-3.54.79-5.31.95-.02,1.91-.05,2.86-.07.03.38.07.76.1,1.14-.32.88-1.97,1.98-1.44,2.14,3.2.94.85,3.2,1.38,4.7-.95,2.32.25,4.64-.02,6.96Z"/>
      <path class="cls-9" d="M33.83,5.02c.91,1.35,2.91,1.7,3.33,3.89-2.94-2.03-2.78,1.48-4.26,2.28-2.29,1.25-4.83-.12-6.95,1.59-.86-1.93.56-3.02.75-4.35,1.74-2.47,4.63-2.52,7.12-3.41Z"/>
      <path class="cls-9" d="M11.98,87.39c.01-.33-.02-.67.05-.99.37-1.8-3.65-3.05-1.29-4.41,2.06-1.19,5.23,1.35,5.83,2.81,1.16,2.77,3.2,3.62,5.35,4.77-.39.66-.77,1.33-1.16,1.99-3.28-.64-6.16-2.14-8.79-4.17Z"/>
      <path class="cls-1" d="M59.94,96.89c-1.72-2.36-5.77-2.02-6.48-5.55.67-1.97-.51-3.32-1.6-4.7-1.44-1.81.64-.99,1.05-1.41.96.53,1.92,1.07,2.88,1.6,1.49,2.44,3.23,4.62,6.07,5.6.02,1.61.05,3.21.07,4.82-.66-.12-1.32-.24-1.99-.36Z"/>
      <path class="cls-9" d="M118.8,79.42c-1.54-2.62-3.74,1.55-5.56-.87,2.57-2.31,5.1-4.73,3.09-8.99-.7-1.48,1.56-.85,2.5-1.1,1.41,3.66,1.56,7.31-.03,10.96Z"/>
      <path class="cls-1" d="M20.77,91.56c.39-.66.77-1.33,1.16-1.99.28-1,.55-2,.83-3,.05-.47.09-.93.14-1.39,2.37,2.74,4.74,5.49,7.11,8.23-.05.39-.09.77-.14,1.16-3.03-1-6.07-2-9.1-3Z"/>
      <path class="cls-8" d="M97.7,95.04c1.28-3.35,3.58-5.55,7.15-6.32,1.32-.02,2.65-.03,3.97-.04.06,1.43-1.46,1.73-1.97,2.76-3.45.19-5.49,3.93-9.14,3.61Z"/>
      <path class="cls-2" d="M52.86,1.5c-1.26,1.47-2.21,3.52-4.83,2.04-.56-.32-1.89-.14-2.35.32-4.05,4.06-4.13.29-4.81-2.35,3.99.18,7.99-1.47,11.98,0Z"/>
      <path class="cls-9" d="M106.84,91.43c.51-1.02,2.03-1.32,1.97-2.76,1.89-1.98.33-4.21.47-6.32,4.19.86,2.9,4.47,3.56,7.1-1.62,1.83-3.64,2.42-6,1.97Z"/>
      <path class="cls-9" d="M90.83,29.01c2.45-.54,2.49-2.69,3.01-4.52.07-1,.14-1.99.21-2.99.34-.07.67-.14,1.01-.21.32.33.63.67.95,1-.39,3.16.6,6.65-2.19,9.24-1.5-.24-3-.48-2.98-2.52Z"/>
      <path class="cls-9" d="M61.93,97.25c-.02-1.61-.05-3.21-.07-4.82.21-.52-.11-1.99,1.14-.66,1.61,1.72,1.79,4.86,4.99,5-.38.45-.75.89-1.13,1.34-1.64-.29-3.28-.57-4.92-.86Z"/>
      <path class="cls-9" d="M92.94,19.47c-.71.02-1.42.05-2.14.07-1.25-2.34-4.47-3.59-3.83-6.96.27,0,.54,0,.81,0,2.3,1.86,5.17,3.29,5.16,6.88Z"/>
      <path class="cls-9" d="M4.68,78.46c1.86-1.37.48-3.89,1.92-5.4,2.29,3.73,1.97,5.13-1.7,7.34-.08-.65-.15-1.29-.23-1.94Z"/>
      <path class="cls-8" d="M79.82,6.52c-1.73-.02-3.48.1-5.19-.11-2.34-.28-1.15-1.75-.78-2.89,2.3.38,4.34,1.28,5.97,2.99Z"/>
      <path class="cls-2" d="M9.88,28.48c-.24-.33-.48-.66-.72-.99,0-.34-.07-.66-.23-.96h0c.96,0,1.92,0,2.88.01.03,1.31-.67,1.9-1.93,1.93h0Z"/>
      <path class="cls-4" d="M39.85,1.53c-.13.73-.1,1.72-1.18,1.51-.33-.06-.51-.96-.75-1.47.65-.01,1.29-.03,1.94-.04Z"/>
      <path class="cls-4" d="M2.88,70.39c-.33.35-.66.71-.98,1.06.33-.35.66-.71.98-1.06Z"/>
      <path class="cls-5" d="M8.93,26.54c-.14-.14-.28-.28-.41-.42.08.03.2.03.24.09.08.09.11.22.17.34,0,0,0,0,0,0Z"/>
      <path class="cls-1" d="M74.96,72.37c-.02,1.07-.05,2.15-.07,3.22-1.58-.67-3.89,1.66-4.96-1.39-1.7-4.84-3.81-5.3-7.81-1.55-1.8,1.69-3.42,2.36-5.61,1.08.92-2.48-5.35-3.12-1.61-6.32,3.4-.52,5.72-2.88,7.94-5.11,2.82-2.84,2.65-6.32.87-9.76,2.8-2.18,2.92-4.5.02-5.11-1.28-.27-2.34-3.09-4.05-.84-.78,1.04-1.46,2.15-2.19,3.23,1.52.98,2.62,2.97,4.95,2.07.11-.04.41.43.63.66-1.07.71-.82,3.32-2.13,2.76-3.33-1.41-3.4,1.29-4.45,2.87-3.38-1.98-7.07-3.05-10.89-3.75.6-2.05-1.3-1.39-2.1-1.94-.03-.73.49-1.63-.64-2.01-.9-2.18-2.17-4.47,2.07-4.22,1.28.08,2.69-1.31,2.31-2.07-1.04-2.11.45-2.19,1.57-2.46,1.73-.42,4.46,1.21,3.96-2.93-.16-1.32,2.88.99,4.47-.84.14-1.32-3.03-2.81-.53-4.62,3.38-2.15,6.67-.12,9.99.22,1.76,3.33.15,6.75-.31,9.92-.35,2.39.46,3.29,1.89,3.51,3.9.59,5.09,3.19,5.69,6.48-2.53,1.75-3.26,3.93-2.8,7.11.41,2.88,2.89,4.82,2.8,7.75-.04.34-.08.69-.13,1.03-1.19.72-1.25,1.82-1.06,3.02-.14.18-.29.35-.43.53.18-.14.37-.27.55-.41h.46s.44-.13.44-.13c.39,0,.77-.01,1.16-.02ZM51.88,43.45c-.11-.23-.22-.47-.33-.7-.12.06-.34.11-.34.17-.02.25.03.5.05.76.21-.07.41-.15.62-.23Z"/>
      <path class="cls-1" d="M90.83,29.01c-.02,2.04,1.47,2.28,2.98,2.52.14,3.66,3.25,7.05,1.02,10.93-.94,0-1.89-.01-2.83-.02.4-2.92-1.9-3.53-3.82-4.46-.77-2.01,2.3-2.11,2.04-4.03-3.49-.97-7.6-.08-10.18-3.47-1-4.37-5.5-4.5-8.22-6.79-.35-1.49-1.45-2.03-2.83-2.21-1.38-1.4-.28-4.46-3.23-4.8-2.58-.53-5.16-1.51-7.74-1.48-2.98.03-2.03-3.21-3.93-3.82-1.07-.87-.66-1.95-.41-3,8.14-1.08,15.41,2.84,23.16,4.02.92.48,1.85.96,2.77,1.44-.07.16-.1.33-.09.51-2.55.12-5.1.24-8.18.39,1.82,1.87,5.39,1.97,5.23,3.85-.43,5.31,2.92,4.86,6.19,4.96.47,3.74,4.79,1.58,6.12,4-.4.15-.8.3-1.21.46.39.16.79.31,1.18.47.49.79,1.18.85,1.97.54Z"/>
      <path class="cls-1" d="M32.86,16.5c.32.1.64.2.96.3.89.96,2.07.49,3.12.63.08,3.3,1.59,6.65-.35,9.87-3.29-.78-5.74,1.81-8.74,2.19.11-.57.95-1.18.22-1.68-.62-.43-1.35.12-1.47.75-.19.98.74.75,1.3.89-.05,1.29-.1,2.58-.15,3.88-2.51,1.12-4.8.51-7.01-.84,0-5.8,5.78-7.8,7.99-12.15,1.29-.06,2.24-.45,2-2.02.42-.59.84-1.17,1.26-1.76,0,0,.45.01.45.01l.44-.08Z"/>
      <path class="cls-2" d="M82.76,23.54c-3.28-.1-6.62.35-6.19-4.96.15-1.88-3.41-1.99-5.23-3.85,3.08-.15,5.63-.27,8.18-.39,1.35.65,1.96,2.66,4.18,1.78,2.44-.97.15-1.95.28-2.87.38-2.6,2.03-.23,2.99-.66-.64,3.37,2.58,4.62,3.83,6.96.45,2.88-1.23,2.3-3.16,2.38-1.58.06-2.93,1.92-4.88,1.62Z"/>
      <path class="cls-2" d="M45.59,54.43c3.82.71,7.51,1.78,10.89,3.76,4.32,3.3-.88,4.19-1.57,6.22-2.34-.45-4.95.65-7.02-1.27.39-1.26,2.51-3.25-1.21-2.74-.93.13-1.9.02-2.85.02-.1-1.06.36-2.51-1.39-2.56-1.14-.03-2.86,1.47-3.15-.61-.29-2.13,2.14-2.52,3.53-3.36.6-.36,1.83.33,2.77.54Z"/>
      <path class="cls-8" d="M71.81,23.69c2.72,2.28,7.22,2.42,8.22,6.79-1.88,1.31-3.8,2.47-6.25,2.01-2.75-1.23-4.64-4.17-8.08-4-1.28.41-2.55-1.72-3.83-.02-1.23-.04-1.96-.63-2.08-1.89,1.84-1.2,3.61-2.55,5.55-3.56,1.35-.71,1.53.43,1.5,1.48-.27.38-1.2.56-.37,1.26.14-.4.28-.81.43-1.21,1.6-.51,3.46.5,4.91-.85Z"/>
      <path class="cls-1" d="M30.88,62.43c2-1.29,4-.95,5.99.02.13,1.34.74,2.29,2.12,2.62.18.77.36,1.54.55,2.32-.72.51-.79,1.26-.71,2.05-1.53.25-3.36-.09-3.96,2-1.66,1.31-3.33,1.49-5.01.02-.05-1.97-.1-3.94-.15-5.92.39-1.04.78-2.08,1.17-3.12Z"/>
      <path class="cls-1" d="M3.91,61.44c-.53-1.5,1.82-3.76-1.38-4.7-.53-.16,1.12-1.26,1.44-2.14,2.94-.71,5.84-1.06,8.44,1.03-.58,2.23-2.04,4.26-1.45,6.74-.53,1.52.82,4.91-3.07,3.1-.32-.09-.65-.17-.97-.26.22-2.23.01-4.13-3.01-3.77Z"/>
      <path class="cls-1" d="M23.61,80.34c0-.82-.06-1.65.01-2.46.27-3.09-.6-4.71-4.47-2.61,1-2.93,3.42-5.89-1.63-6.33-.81-.07-.83-1.79-.46-2.65.61-1.43,1.55-.52,2.35-.03,1.64,1,3.28,2.01,4.92,3.01.68,1.18-.98,3.81,2.16,3.49-.23,2.58,1.81,4.37,2.34,6.69-1.74.01-3.48.02-4.93,1.21l-.29-.31Z"/>
      <path class="cls-2" d="M21.84,47.48c-1.93.34-3.85.68-5.78,1.02-.06-.32-.14-.64-.24-.94,0-2.02.02-4.04.03-6.06.63-.02,1.25-.05,1.88-.07.1,1.59.42,2.78,2.32,1.37,1.44-1.07,1.78-2.71,2.28-4.28l2.51-.04c2.37.37,2.04,1.89,1.49,3.5-1.01-.52-2.52-.31-2.17.69.95,2.66-1.62,3.21-2.32,4.81Z"/>
      <path class="cls-8" d="M12.41,55.63c-2.6-2.08-5.5-1.74-8.44-1.03-.03-.38-.07-.76-.1-1.14-.51-2.51,1.29-4.31,1.96-6.46.98-3.1,2.69-.12,3.96-.58.36,2.09,1.26,4.64-2.9,2.74,2.99,3.68,4.87,3.9,7.92,1.21-.05,2.09,1.76,5.03-2.39,5.25Z"/>
      <path class="cls-9" d="M21.84,47.48c.69-1.61,3.26-2.15,2.32-4.81-.36-1,1.16-1.21,2.17-.69.53,1.45,2.06,1.48,3.44,2.35-1.71,1.87-3.86,3.53-2.78,6.57.25.69,1.17,2.21-.77,2.77-1.85.54-1.82-.77-2.59-1.77-1.07-1.39-1.8-2.69-1.78-4.41Z"/>
      <path class="cls-8" d="M38.99,65.07c-1.38-.33-1.99-1.29-2.12-2.62,1.45-3.68,5.06.1,6.96-2.03.95,0,1.91.11,2.85-.02,3.72-.51,1.59,1.48,1.21,2.74,0,.76.02,1.51.03,2.27-2.15-.57-5.01,1.8-6.56-1.74-.25-.58-2.16-.15-2.36,1.4Z"/>
      <path class="cls-9" d="M27.74,33.34c.05-1.29.1-2.58.15-3.88l-.05.04c3-.38,5.45-2.97,8.74-2.19-.08.3-.21.6-.22.9-.16,4.16-2.65,5.93-6.47,6.33-.39-.97-1.3-1.03-2.14-1.2Z"/>
      <path class="cls-8" d="M27.74,33.34c.84.17,1.75.22,2.14,1.2-.23,1.81-1.26,2.07-2.8,1.51-2.63-.96-2.06,1.09-2.25,2.43-.84.01-1.68.03-2.52.04-1.16-1.99-2.36-.67-3.55-.04-.93-2.51-.24-4.49,1.95-5.98,2.21,1.35,4.51,1.96,7.01.84Z"/>
      <path class="cls-1" d="M14.81,50.38c-3.05,2.69-4.93,2.47-7.92-1.21,4.16,1.89,3.26-.65,2.9-2.74.36-.65.73-1.3,1.09-1.95,3.47-1.89,2.89,2.7,4.94,3.08.1.31.18.62.24.94-.42.62-.84,1.25-1.26,1.87Z"/>
      <path class="cls-9" d="M49.29,27.32c-.26,2.94-4.62,5.1-1.67,8.7.12.15-.26,1.07-.53,1.13-1.12.27-1.83-.44-2.26-1.38-1.5-3.27-.8-6.74-.85-10.13,1.77.56,3.53,1.12,5.3,1.68Z"/>
      <path class="cls-9" d="M71.81,23.69c-1.45,1.35-3.31.34-4.91.85l-.06-.05c.03-1.05-.15-2.18-1.5-1.48-1.94,1.02-3.71,2.36-5.55,3.56-.81-.44-1.75-.85-1.62-1.96.12-.99,1.11-.88,1.81-1.09,2.75-1.78,5.61-3.12,9.01-2.05,1.38.18,2.48.72,2.83,2.21Z"/>
      <path class="cls-2" d="M49.29,27.32c-1.77-.56-3.53-1.12-5.3-1.68-2.19-4.33,3.24-4.19,4.21-6.81.26-.69,2.1,1.42,1.43,2.04-2.39,2.2.16,4.36-.34,6.46Z"/>
      <path class="cls-9" d="M61.88,28.47c1.28-1.71,2.55.42,3.83.02.33,1.69.67,3.39,1,5.08-3.33-.34-6.61-2.37-9.99-.22.21-1.84-.7-4.7,3.11-3.08,1.34.57,2.06-.4,2.06-1.8Z"/>
      <path class="cls-8" d="M26.48,72.75c-3.14.32-1.47-2.31-2.16-3.49,1.91-1.08,2.36-2.38.55-3.98.11-2.12,1.75-1.71,3.06-1.84,0,0-.05-.05-.05-.05-.07,1.3.64,1.93,1.82,2.15.05,1.97.1,3.94.15,5.92-1.63-.88-3.02-1.14-3.38,1.29Z"/>
      <path class="cls-8" d="M68.99,21.47c-3.4-1.06-6.26.27-9.01,2.05-1.88-3.05-1.26-4.84,2.53-5.07,1.36-.08,3.08.46,3.25-1.79,2.95.35,1.85,3.41,3.23,4.8Z"/>
      <path class="cls-8" d="M9.88,28.48c1.83,1.05,3.79,1.84,1.45,4.49-1.11,1.26-1.65,3.24-1.88,4.97-.22,1.64-.8,2.83-2.3,2.19-2.09-.89.3-1.65.44-2.53.15-.97.29-1.94.44-2.91.25-.71.51-1.41.76-2.12.33-1.37-.54-3.07,1.1-4.09h0Z"/>
      <path class="cls-9" d="M7.89,65.47c3.89,1.81,2.53-1.58,3.07-3.1,3.7.29,3.14,3.05,2.53,5.15-.7,2.4-2.75,1.33-4.57,1.13-3.2-.36-.26-2.28-1.03-3.17Z"/>
      <path class="cls-2" d="M34.8,47.55c-.61,2.48,2.24,5.89-2.73,7.67.63-4.16-.58-8.2,2.57-12.18.13,1.72.22,3.04.32,4.36l-.16.16Z"/>
      <path class="cls-9" d="M22.89,85.17c-.04.46-.09.93-.14,1.39-2.76-.64-4.34-2.4-3.84-5.18.64-3.53,3.56,1.38,4.69-1.05,0,0,.29.31.29.31-.33,1.51-.67,3.02-1,4.52Z"/>
      <path class="cls-8" d="M15.82,47.56c-2.05-.39-1.47-4.97-4.94-3.08-.53-.6-1.05-1.2-2.32-2.66,3.08,1.2,4.94-1,7.29-.32,0,2.02-.02,4.04-.03,6.06Z"/>
      <path class="cls-9" d="M27.94,63.44c-1.31.13-2.95-.28-3.06,1.84-2.13.29-3-1.85-2.61-2.67.58-1.24,2.37-2.6,3.68-2.63,1.47-.03,1.72,2.03,1.99,3.47Z"/>
      <path class="cls-9" d="M3.91,61.44c3.02-.36,3.23,1.53,3.01,3.77-.72,1.34-.93,3.17-3.03,3.19.27-2.32-.93-4.64.02-6.96Z"/>
      <path class="cls-3" d="M53.67,8.37c-.25,1.05-.66,2.13.41,3q-3.92-.19-4.47-5.43c1.98-.21,2.49,2.01,4.05,2.43Z"/>
      <path class="cls-8" d="M79.61,13.83c-.92-.48-1.85-.96-2.77-1.44.29-.98-1.37-2.75,1.06-2.85,1.22-.05,2.78-.54,3.52.81,1,1.83-1.34,2.23-1.81,3.49Z"/>
      <path class="cls-1" d="M18.77,38.48c1.19-.63,2.39-1.95,3.55.04-.49,1.57-.84,3.21-2.28,4.28-1.89,1.41-2.22.22-2.32-1.37,1.27-.66.9-1.9,1.05-2.95Z"/>
      <path class="cls-9" d="M36.66,14.25c.1-1.84,1.24-2.5,2.9-2.39.32.02.9.63.85.85-.43,1.87-2.13,1.55-3.46,1.87,0,0-.29-.32-.29-.32Z"/>
      <path class="cls-9" d="M29.71,65.55c-1.19-.23-1.9-.86-1.82-2.15,1.1,0,1.21-3.07,2.99-.96-.39,1.04-.78,2.08-1.17,3.12Z"/>
      <path class="cls-9" d="M36.94,17.43c-1.05-.15-2.23.33-3.12-.63,1.08-.7,1.27-2.4,2.84-2.55,0,0,.28.32.29.32,0,.96,0,1.91-.01,2.86Z"/>
      <path class="cls-1" d="M16.45,56.43c.71,1.59.66,2.62-.02,3.68-.99-1.13-.79-2.24.02-3.68Z"/>
      <path class="cls-9" d="M30.62,18.33c.23,1.83-.67,2.29-1.9,2.36.19-1.33.83-2.1,1.9-2.36Z"/>
      <path class="cls-10" d="M8.78,32.57c-.26.71-.51,1.41-.76,2.12-1.4-1.3-.03-1.61.76-2.12Z"/>
      <path class="cls-7" d="M32.86,16.5l-.44.08s-.45-.02-.45-.01c.12-.43.24-.87.36-1.3.17.41.35.82.52,1.23Z"/>
      <path class="cls-4" d="M42.86,50.48c1.13.38.6,1.29.64,2.01-.21-.67-.42-1.34-.64-2.01Z"/>
      <path class="cls-4" d="M34.96,47.39c.12.17.24.34.35.51-.17-.12-.34-.24-.51-.36,0,0,.16-.16.16-.16Z"/>
      <path class="cls-1" d="M109.29,82.36c-.14,2.11,1.42,4.34-.47,6.32-1.32.02-2.65.03-3.97.05-.12-1.3-.12-2.62-.41-3.88-.32-1.41-1.54-2.18-2.85-2.27-1.95-.13-.77,1.7-1.21,2.29-1.9,2.52-5.08,3.89-6.48,6.93-4.09-.59-4.51-3.04-3.21-6.36.38-.41.77-.82,1.15-1.23,3.08-1.62,3.28-3.25.02-4.89-.22-.92-2.83.11-1.61-1.33,1.31-1.54.15-1.93-.46-2.54-1.43-1.43-1.8.46-2.6.99-3.72,2.45,1.43,3.91.68,6.04-1.89,4.04-2.3,8.04.32,11.95-2.61.41-5.15,1.72-7.87.65-2.17-1.19.58-4.93-2.82-5.48,2.64-.52.81-3.55,1.81-4.02,4.58-2.14,3.44-5.29,2.18-8.74-1.75-.02-2.59,2.27-4.45,1.57.18-2.8,5.44-8.11,8.28-7.74,2.48.33,3.13-1.39,2.11-2.24-2.78-2.32.52-5.92-2.27-8.07-.89-.69-.04-1.97.86-2.41,2.12-1.03,2.17,2.11,3.87,2.08-1.72,8.79,4.57,7.68,9.78,7.93.11,0,.2.25.3.38.45,3.28,1.92,3.86,3.99,1.23,1.12-1.42,2.1-1.71,2.78-.11,1.55,3.6,3.62,1.75,5.67.81-.76,4.11-.35,8.51-3.11,12.1ZM102.91,79.53c.79-.78,1.61-1.54,2.38-2.35.53-.56,1.24-1.14.41-1.99-.76-.79-1.71-.83-2.68-.55-1.11.32-.83,1.1-.64,1.92.21.93.27,1.89.4,2.84-.13.18-.27.36-.4.54.18-.14.36-.27.54-.41Z"/>
      <path class="cls-3" d="M66.71,33.57c-.33-1.69-.67-3.39-1-5.08,3.44-.17,5.33,2.78,8.08,4,.67.69,1.33,1.38,2,2.07.18,1.94,1.61,1.93,3.03,1.95.03.3.07.6.11.89-.1,1.54.75,2.07,2.15,2.03-.02,1.01-.04,2.01-.07,3.02-.98.15-1.58.33-1.85,1.67-.69,3.42,1.73,6.14,1.68,9.35-2.02-.8-4.05-.64-6.09-.05-.26,0-.52.02-.78.05-.6-3.29-1.79-5.89-5.69-6.48-1.43-.22-2.24-1.12-1.89-3.51.46-3.16,2.07-6.59.31-9.92Z"/>
      <path class="cls-2" d="M56.51,73.72c2.19,1.28,3.81.61,5.61-1.08,3.99-3.75,6.11-3.29,7.81,1.55,1.07,3.05,3.38.72,4.96,1.39,1.36,2.46-1.8,1.47-2.06,2.7-1.52,1.66-1.29,2.75,1.02,3.18,0,0-.01-.01-.01-.01-1.29,2.98-2.58,2.73-4.11.11-1.11-1.9-2.47-3.63-3.86-.12,0,0-.03.03-.03.03-.77.11-1.55.2-1.97,1.01-2.02.54-3.52,2.33-6.2,1.31-2.09-.8-1.58,1.76-1.88,3.04-.96-.53-1.92-1.07-2.88-1.6-4.49-1.9-3.16-5.17-1.98-8.41,0,0-.06-.3-.06-.3.91.69,1.93,1.22,2.4,2.42.68,1.75,2.28,2.19,3.66,1.41,2.03-1.15-.19-2.11-.48-3.18-.32-1.21-1.97-1.98-1.17-3.55.41.03.82.07,1.23.1Z"/>
      <path class="cls-9" d="M65.87,81.44c1.4-3.51,2.75-1.77,3.86.12,1.53,2.62,2.81,2.87,4.11-.11,2.27.24,1.72-2.46,3.19-3.06,1.86.71,2.7-1.59,4.45-1.57,1.27,3.44,2.41,6.6-2.18,8.74-.99.46.83,3.5-1.81,4.02-1.23-.06-2.47-.11-3.7-.17-.66-1.76-2.04-2.13-3.71-1.93-2.31-.21-2.39-1.73-1.93-3.43.58-2.12-.74-2.44-2.29-2.61Z"/>
      <path class="cls-2" d="M73.98,53.48c.26-.04.52-.06.78-.05.87.96,1.88,1.83,2.58,2.91,1.01,1.56,4.47.82,3.91,2.99-.65,2.52-3.9.16-5.62,1.65.65,2.66,4.44,1.5,5.04,3.95.72,2.94-2.96,2.57-3.73,4.48-.56-1.55-1.61-1.75-2.97-1.07.1-2.92-2.38-4.86-2.8-7.75-.45-3.18.27-5.36,2.8-7.11Z"/>
      <path class="cls-9" d="M78.93,37.4c-.04-.3-.08-.59-.11-.89.38-.51,1.12-1.43,1.09-1.46-1.24-1.08-2.73-.32-4.12-.49-.67-.69-1.33-1.38-2-2.07,2.45.46,4.37-.7,6.25-2.01,2.59,3.39,6.69,2.5,10.18,3.47.26,1.92-2.81,2.02-2.04,4.03-1.16,1.41-2.98,2.46-1.07,4.83,1.13,1.4.73,1.72-2.27,1.7-.48-2.15-3.13-.3-3.82-2.06.02-1.01.04-2.01.06-3.02,1-2.49.03-2.9-2.15-2.03Z"/>
      <path class="cls-9" d="M112.4,70.25c-2.05.94-4.12,2.79-5.67-.81-.69-1.6-1.66-1.31-2.78.11-2.08,2.63-3.54,2.05-3.99-1.23,1.01-1.57,1.69-3.77,4.29-2.63,2.86,1.26,7.91-1.35,8.16,4.56Z"/>
      <path class="cls-2" d="M81.01,42.45c.69,1.77,3.34-.09,3.82,2.06,0,2.74-2.59,4.89-1.23,8.17.69,1.66-1.24,2.3-2.76.8.04-3.21-2.37-5.93-1.68-9.35.27-1.34.86-1.52,1.85-1.67Z"/>
      <path class="cls-9" d="M92,42.43c.94,0,1.89.01,2.83.02-.05,1.46.19,3.35-2.18,2.7-1.29-.36-2.56-1.31-.65-2.72Z"/>
      <path class="cls-8" d="M73.97,68.34c1.37-.69,2.41-.49,2.97,1.07.08,1.49-1.12,2.11-1.98,2.97-.38,0-.77.01-1.16.02.01-1.01.02-2.01.04-3.02.04-.34.08-.69.13-1.03Z"/>
      <path class="cls-8" d="M73.85,81.46c-2.31-.43-2.54-1.52-1.02-3.18.34,1.06.68,2.12,1.02,3.18Z"/>
      <path class="cls-7" d="M96.95,36.35c.13.22.26.44.39.66-.22-.14-.43-.27-.65-.41l.25-.25Z"/>
      <path class="cls-7" d="M96.7,36.6c-.1-.19-.21-.38-.31-.57.19.11.38.21.57.32,0,0-.25.25-.25.25Z"/>
      <path class="cls-2" d="M22.89,85.17c.33-1.51.67-3.02,1-4.52,1.45-1.18,3.19-1.19,4.93-1.21,2.05.07,2.16,1.47,2.05,3.01-.54.24-1.07.48-1.61.72.13.2.26.4.39.61.4-.44.81-.89,1.21-1.33,3.28-1.17,2.07-5.58,5.03-6.97,2.19,1.43,2.04,3.65,1.97,5.85-2.07,1.6-4.54,3.08-1.65,6.03-1.32.47-2.78,1.48-2.15,2.75,3.79,7.65-2.63,2.35-4.07,3.29-2.37-2.74-4.74-5.49-7.11-8.23Z"/>
      <path class="cls-2" d="M38.99,65.07c.21-1.56,2.11-1.98,2.36-1.4,1.55,3.54,4.41,1.17,6.56,1.74.33.36.65.72.98,1.08-.71.35-.78.65.06.89,1.3.14,1.65,1.1,1.85,2.17.03.26.03.51-.02.76-1.33.04-1.98.77-2.11,2.05-1.09.31-2.28.57-1.06,2.06.02.33.05.67.07,1-4.68.77-8.32-2.9-12.81-2.97,0-.34,0-.68-.01-1.03.6-2.09,2.43-1.75,3.96-2,1.48-.26,2.72-.59.71-2.05-.18-.77-.36-1.54-.55-2.32ZM44.87,70.46c-.14-.08-.28-.15-.41-.23.14.08.27.15.41.23.13.44.25.87.38,1.31.13-.09.25-.17.38-.26-.25-.35-.5-.7-.76-1.06Z"/>
      <path class="cls-3" d="M34.86,71.44c0,.34,0,.68.01,1.03.34,1,.68,2.01,1.03,3.01-2.97,1.39-1.75,5.8-5.03,6.97h0c.11-1.54,0-2.94-2.05-3.01-.53-2.32-2.57-4.11-2.34-6.69.36-2.43,1.75-2.17,3.38-1.29,1.67,1.47,3.34,1.29,5.01-.02Z"/>
      <path class="cls-9" d="M48.89,66.49c-.33-.36-.65-.72-.98-1.08,0-.76-.02-1.51-.03-2.27,2.07,1.91,4.69.81,7.02,1.26,0,1,0,2,0,3-3.74,3.2,2.53,3.84,1.61,6.32-.41-.03-.82-.07-1.23-.1-4.9-4.24-3.18,1.56-4.41,2.9,0,0,.06.3.06.3-1.08-.46-2.16-.92-3.24-1.39-.02-.33-.05-.67-.07-1,.98-.37,1.21-1.11,1.05-2.06.13-1.27.78-2.01,2.11-2.05.41-.06,1.16-.11,1.16-.18.01-.87-.7-.48-1.14-.58-.2-1.08-.55-2.03-1.85-2.17-.03-.3-.05-.59-.06-.89Z"/>
      <path class="cls-1" d="M36.22,87.36c-2.9-2.95-.42-4.44,1.65-6.03,1.11,1.56,2.96,2.86,2.13,5.15-.76,2.1-2.44.89-3.78.88Z"/>
      <path class="cls-1" d="M70.09,87.48c1.67-.19,3.06.18,3.71,1.93-.29,1.07.5,3.15-1.53,2.71-2.23-.49-2.53-2.58-2.18-4.64Z"/>
      <path class="cls-9" d="M63.87,82.48c.41-.81,1.2-.9,1.97-1.01.03,2.1-.65,3.93-2.03,5.78-1.08-1.84.58-3.27.06-4.77Z"/>
      <path class="cls-8" d="M90.69,85.43c-1.3,3.32-.88,5.76,3.21,6.36-.73,3.43-4.28.73-5.71,2.64-2.62-3.92-2.21-7.91-.32-11.95,2.09-.11,1.66,2.18,2.82,2.96Z"/>
      <path class="cls-2" d="M94.05,21.5c-.07,1-.14,1.99-.21,2.99-2.28-1.16-2.06-2.14.21-2.99Z"/>
      <path class="cls-2" d="M88.86,28.47c-.39-.16-.79-.31-1.18-.47.4-.15.8-.3,1.21-.46.01.31,0,.62-.03.93Z"/>
      <path class="cls-8" d="M54.9,67.4c0-1,0-2,0-3,.69-2.03,5.89-2.92,1.57-6.22,1.05-1.58,1.12-4.28,4.45-2.87,1.31.55,1.06-2.06,2.13-2.76,0,0,.32-.04.32-.04l.32.02c1.78,3.44,1.95,6.92-.87,9.76-2.21,2.22-4.54,4.59-7.94,5.11Z"/>
      <path class="cls-9" d="M63.71,52.54l-.32-.02s-.32.04-.32.04c-.21-.23-.52-.7-.63-.66-2.33.9-3.43-1.09-4.95-2.07.73-1.08,1.41-2.2,2.19-3.23,1.71-2.25,2.76.56,4.05.84,2.9.61,2.78,2.93-.02,5.11Z"/>
      <path class="cls-2" d="M73.84,69.37c-.01,1.01-.02,2.01-.04,3.02,0,0-.44.13-.44.13h-.46s-.12-.13-.12-.13c-.19-1.2-.13-2.31,1.06-3.02Z"/>
      <path class="cls-5" d="M51.88,43.45c-.21.08-.41.15-.62.22-.02-.25-.07-.51-.05-.76,0-.07.22-.12.34-.17.11.23.22.47.33.7Z"/>
      <path class="cls-6" d="M72.9,72.51c-.18.14-.37.27-.55.41.14-.18.29-.35.43-.53,0,0,.12.12.12.12Z"/>
      <path class="cls-9" d="M27.89,29.46c-.55-.14-1.49.1-1.3-.89.12-.63.85-1.17,1.47-.75.73.5-.12,1.11-.22,1.68,0,0,.05-.04.05-.04Z"/>
      <path class="cls-7" d="M66.9,24.54c-.14.4-.28.81-.43,1.21-.83-.7.1-.88.37-1.26,0,0,.06.05.06.05Z"/>
      <path class="cls-3" d="M39.53,67.39c2.01,1.46.77,1.79-.71,2.05-.08-.79-.02-1.53.71-2.05Z"/>
      <path class="cls-9" d="M90.69,85.43c-1.16-.78-.73-3.07-2.82-2.96.75-2.13-4.4-3.59-.68-6.04.8-.53,1.17-2.42,2.6-.99.61.61,1.76,1,.46,2.54-1.22,1.44,1.4.41,1.61,1.33,0,1.63-.01,3.26-.02,4.88-.38.41-.77.82-1.15,1.23Z"/>
      <path class="cls-8" d="M102.78,79.4c-.12-.95-.18-1.91-.39-2.84-.19-.82-.47-1.6.64-1.92.97-.28,1.92-.23,2.68.55.82.85.11,1.43-.41,1.99-.77.81-1.58,1.57-2.38,2.35,0,0-.14-.14-.14-.14Z"/>
      <path class="cls-3" d="M91.84,84.2c0-1.63.01-3.26.02-4.88,3.27,1.64,3.06,3.27-.02,4.88Z"/>
      <path class="cls-7" d="M102.91,79.53c-.18.14-.36.27-.54.41.13-.18.27-.36.4-.54,0,0,.13.13.13.13Z"/>
      <path class="cls-2" d="M75.79,34.55c1.39.17,2.88-.59,4.12.49.04.03-.71.95-1.09,1.46-1.42-.02-2.85-.01-3.03-1.95Z"/>
      <path class="cls-2" d="M78.93,37.4c2.18-.87,3.15-.45,2.15,2.03-1.39.04-2.25-.49-2.15-2.03Z"/>
      <path class="cls-1" d="M50.87,76.52c1.23-1.33-.49-7.14,4.41-2.9-.8,1.57.85,2.34,1.17,3.55.29,1.07,2.51,2.04.48,3.18-1.39.78-2.99.34-3.66-1.41-.46-1.2-1.49-1.73-2.4-2.42Z"/>
      <path class="cls-5" d="M30.87,82.45c-.4.44-.81.89-1.21,1.33-.13-.2-.26-.4-.39-.61.54-.24,1.07-.48,1.61-.72h0Z"/>
      <path class="cls-3" d="M48.67,72.36c.16.95-.08,1.69-1.05,2.06-1.23-1.5-.03-1.75,1.05-2.06Z"/>
      <path class="cls-6" d="M44.87,70.46c.25.35.5.7.76,1.06-.13.09-.25.17-.38.26-.13-.44-.25-.87-.38-1.31h0Z"/>
      <path class="cls-3" d="M50.8,69.55c.44.11,1.16-.29,1.14.58,0,.07-.76.12-1.16.18.05-.25.05-.51.02-.76Z"/>
      <path class="cls-6" d="M48.89,66.49c0,.3.02.6.06.89-.84-.24-.77-.55-.06-.89Z"/>
      <path class="cls-6" d="M44.86,70.46c-.14-.08-.27-.15-.41-.23.14.08.28.15.41.23,0,0,0,0,0,0Z"/>
    </g>
  </g>
</svg>