<?xml version="1.0" encoding="UTF-8"?>
<svg id="Layer_2" xmlns="http://www.w3.org/2000/svg" viewBox="0 0 129.24 149.88">
  <defs>
    <style>
      .cls-1 {
        fill: #8ea86b;
      }

      .cls-2 {
        fill: #a8bd8a;
      }

      .cls-3 {
        fill: #7d9c55;
      }

      .cls-4 {
        fill: #7a9951;
      }

      .cls-5 {
        fill: #a3ba85;
      }

      .cls-6 {
        fill: #729347;
      }

      .cls-7 {
        fill: #adc192;
      }

      .cls-8 {
        fill: #5c753a;
      }

      .cls-9 {
        fill: #3b4d24;
      }

      .cls-10 {
        fill: #89a565;
      }

      .cls-11 {
        fill: #99b277;
      }

      .cls-12 {
        fill: #aec294;
      }

      .cls-13 {
        fill: #85a15f;
      }

      .cls-14 {
        fill: #7b9a53;
      }

      .cls-15 {
        fill: #b2c598;
      }

      .cls-16 {
        fill: #8faa6a;
      }

      .cls-17 {
        fill: #a6bc88;
      }

      .cls-18 {
        fill: #a5bb87;
      }

      .cls-19 {
        fill: #43552d;
      }

      .cls-20 {
        fill: #6c8f3f;
      }

      .cls-21 {
        fill: #77974d;
      }

      .cls-22 {
        fill: #9db57d;
      }

      .cls-23 {
        fill: #c3d2b0;
      }

      .cls-24 {
        fill: #45572f;
      }

      .cls-25 {
        fill: #495a34;
      }

      .cls-26 {
        fill: #94ae71;
      }

      .cls-27 {
        fill: #b9caa1;
      }

      .cls-28 {
        fill: #a7bd89;
      }

      .cls-29 {
        fill: #3d4f26;
      }

      .cls-30 {
        fill: #536e2f;
      }

      .cls-31 {
        fill: #86a361;
      }

      .cls-32 {
        fill: #88a463;
      }

      .cls-33 {
        fill: #acc090;
      }

      .cls-34 {
        fill: #abbf8f;
      }

      .cls-35 {
        fill: #afc394;
      }

      .cls-36 {
        fill: #829f5b;
      }

      .cls-37 {
        fill: #8ca866;
      }

      .cls-38 {
        fill: #9fb67f;
      }

      .cls-39 {
        fill: #35481d;
      }

      .cls-40 {
        fill: #dae3ce;
      }

      .cls-41 {
        fill: #6b8e3d;
      }

      .cls-42 {
        fill: #83a05d;
      }

      .cls-43 {
        fill: #8aa764;
      }

      .cls-44 {
        fill: #60783e;
      }

      .cls-45 {
        fill: #93ad6f;
      }

      .cls-46 {
        fill: #95af72;
      }

      .cls-47 {
        fill: #688b39;
      }

      .cls-48 {
        fill: #96b074;
      }

      .cls-49 {
        fill: #719245;
      }

      .cls-50 {
        fill: #b3c59a;
      }

      .cls-51 {
        fill: #6e9041;
      }

      .cls-52 {
        fill: #9ab379;
      }

      .cls-53 {
        fill: #aec293;
      }

      .cls-54 {
        fill: #506b2b;
      }

      .cls-55 {
        fill: #668a37;
      }

      .cls-56 {
        fill: #698c3b;
      }

      .cls-57 {
        fill: #a7bc8a;
      }

      .cls-58 {
        fill: #d7e1cb;
      }

      .cls-59 {
        fill: #8ca769;
      }

      .cls-60 {
        fill: #7e9d57;
      }

      .cls-61 {
        fill: #a6bc89;
      }

      .cls-62 {
        fill: #597236;
      }

      .cls-63 {
        fill: #92ac6e;
      }

      .cls-64 {
        fill: #b2c597;
      }

      .cls-65 {
        fill: #9bb37a;
      }

      .cls-66 {
        fill: #a0b781;
      }

      .cls-67 {
        fill: #97b176;
      }

      .cls-68 {
        fill: #a1b882;
      }

      .cls-69 {
        fill: #a9be8d;
      }

      .cls-70 {
        fill: #475831;
      }

      .cls-71 {
        fill: #5a7438;
      }

      .cls-72 {
        fill: #9cb47c;
      }

      .cls-73 {
        fill: #8eaa69;
      }

      .cls-74 {
        fill: #c5d4b3;
      }

      .cls-75 {
        fill: #b0c497;
      }

      .cls-76 {
        fill: #617a40;
      }

      .cls-77 {
        fill: #749549;
      }

      .cls-78 {
        fill: #78984f;
      }

      .cls-79 {
        fill: #88a561;
      }

      .cls-80 {
        fill: #8ba667;
      }

      .cls-81 {
        fill: #89a663;
      }

      .cls-82 {
        fill: #3f5128;
      }

      .cls-83 {
        fill: #afc395;
      }

      .cls-84 {
        fill: #75964b;
      }
    </style>
  </defs>
  <g id="Layer_2-2" data-name="Layer_2">
    <g>
      <path class="cls-69" d="M49,1.29c.64-.06,1.28-.13,1.91-.19,4.24,1.71,8.39,1.04,12.7.02,5.41-1.27,7.61.86,6.57,5.71.4,3.45.45,6.91.54,10.38.05,1.84-.02,3.61-1.14,5.18-1.6,1.84-3.3,3.39-6.01,2.39-2.17-.54-3.78-.56-2.22,2.39.06.48.09.97.09,1.45.02,2.32-1.73,3.47-3.19,4.82-1.15,1.07-2.76,1.16-4.06,1.92-.51.09-1.01.05-1.5-.11-.69-.33-1.21-.86-1.74-1.39-.51-.51-.99-1.06-1.42-1.64-1.94-2.59-.7-5.91-2-8.64-.34-2.09-1.12-3.41-3.53-2.14-1.12.59-2.24,1.33-3.64.99-1.16-.51-2.07-1.27-2.59-2.45-.1-2.97-.64-5.95-.09-8.93,2.54-4.68,7.25-6.84,11.31-9.75Z"/>
      <path class="cls-63" d="M69.11,21.3c-.58-2.41-.43-5.41-4.41-4.95.66-2.67,3.54-2.25,4.38-4.63-1.41-.42-3.85-.41-3.68-2.74.14-1.94,2.02-2.35,3.6-2.84.58-.46,1.23-.55,1.94-.41,1.63.76,3.39,2.16,5.08,1.35,4.7-2.22,7.76.53,11,3.06,1.73,1.76,2.97,3.81,3.76,6.14-.54,3.24-3.93,2.13-5.58,3.67-1.3.16-1.87-1.05-2.84-1.51-.21-.2-.31-.31-.31-.31-.11-.11,0,0,.3.31,2.39,1.52.68,4.13,1.64,6.04-.4,1.98-.53,3.84,1.32,5.3,1.23.98,1.8,2.28,1.18,3.89-1.2,1.28-2.48,2.45-4.26,2.88-3.91.04-7.87.21-9.4-4.6-.85-1.96-1.88-3.79-3.71-5.04-1.6-1.88-.46-3.75,0-5.63Z"/>
      <path class="cls-20" d="M127.83,97.23c.08,1.24.16,2.48.24,3.73.74,1.96.04,3.88-.13,5.82-.55,2.37.56,5.15-1.74,7.1-3.37.69-6.82.31-10.21,1.61-2.66,1.02-5.31-.21-6.1-3.46-.28-1.17-.77-2.17-1.45-3.13-.93-5.99-1.12-11.89,1.98-17.43,1.66-2.3,3.79-3.92,6.58-4.62,2.04-.25,3.27,1.13,4.62,2.26,5.1.38,5.4,4.44,6.2,8.11Z"/>
      <path class="cls-15" d="M2.89,77.16c.77-9.73,1.54-19.47,4.22-28.92,3.02-1.6,3.56,2.93,6.12,2.47,3.09.49,4.36,2.98,2.69,4.93-2.4,2.81-1.15,5.53-1.3,8.31-.16,2.3,1.1,4.21,1.78,6.27.14.79-.07,1.7.48,2.36,1.98,2.38,2.14,4.34-1.12,5.66-1.15.46-.97,1.56-1.13,2.49-.25,1.03-.99,1.78-1.46,2.7-3.02,3.5-6.7,1.25-10.14,1.19-1.75-2.45-1.09-4.95-.15-7.45Z"/>
      <path class="cls-33" d="M13.14,52.12c-2.32,2.16-4.12,2.81-4.62-1.38-.11-.88-.93-1.67-1.42-2.5,1.25-8.47,4.05-16.43,7.91-24.04,1.92-1.04,3.07,2.52,5.1.85,2.73.91,4.81,2.29,3.96,5.68-.43,1.71.82,2.73,1.55,3.96.2.43.34.88.43,1.34,1.07,2.63,0,5.2-.27,7.78-.19,1.74-1.56,3.73-2.94,3.62-4.33-.34-6.64,2.81-9.7,4.69Z"/>
      <path class="cls-21" d="M120.01,91.2c-.95-1.02-1.89-2.05-2.84-3.07-1.44-.19-2.18-1.09-2.47-2.44,1.97-3.35-1.77-1.86-2.5-2.93-1.57-1.31-2.7-3.08-4.44-4.22-.84-.98-1.1-2.21-1.48-3.39-.35-1.27-.45-2.57-.59-3.87.09-2.1-.95-4.4,1.07-6.16,1.11-.62,2.18-1.35,3.51-1.4,2.87-.33,3.57,2.76,5.71,3.57,1.28.77,2.8,1.01,4.04,1.86,2.18,4.09,4.09,8.3,5.03,12.88.48,2.61,1.62,5.14-.8,7.63-1.32,1.36-2.21,2.7-4.25,1.54Z"/>
      <path class="cls-32" d="M85.99,33.05c-.82-.49-1.63-1.03-2.48-1.47-4.63-2.39-4.78-3.12-1.51-7.5-.73-2.11.31-3.28,2.24-3.39,1.68-.1-.05-1.32.73-1.55.9-3.06,3.82-1.98,5.8-2.84.97,1.89,2.12,3.71,2.19,5.93-.12,4.32,2.73,7.87,3.11,12.07,1.2,4.68-1.96,5.49-5.38,6.09-2.2.92-4.34.81-5.58-1.35-1.16-2.03-1.62-4.32.87-5.98Z"/>
      <path class="cls-32" d="M99.03,146.22c-4.51,1.85-9.27,2.43-14.08,2.81-.69-.45-1.51-.71-2.09-1.33-.45-.73-.95-1.41-1.6-1.99-1.44-1.83-4.14-.37-5.59-2.18-.99-2.65-3.32-5.23-.34-8.04,1.28-.81,2.59-.47,3.89-.09,2.22,1.5,4.51,1.45,6.85.3.67-.08,1.33-.23,2.01-.25,2.24.72,4.47,2.84,6.73.02,3.01-1.18,4.38.58,5.37,3,.24.73.23,1.46-.02,2.18-1.26,1.67.78,4.04-1.15,5.58Z"/>
      <path class="cls-1" d="M29.9,137.16c-4.31.52-7.52-2.06-9.86-4.8-3.74-4.39-8.32-7.86-12.07-12.19-.85-1.84-2.88-3.79-.32-5.62,2.34-1.67,3.81.41,5.48,1.75,3.67,2.94,7.5,5.67,12.08,7.12,2.12.67,4.03,1.58,4.22,4.2.06,2.39.21,4.5,3.3,5.23,1.98.47,3.84,2.03,2.4,4.4-1.53,2.52-3.51,1.9-5.22-.1Z"/>
      <path class="cls-32" d="M29.9,137.16c1.75.69,3.12.45,4.2-2.08-3.79.79-5.32-1.75-7.31-3.79-2.52-2.58-.49-2.8,1.42-3.25.57-.59,1.2-1.07,2.03-1.24,1.07-.13,2.13-.23,3.14.29,2.46,3.37,5.49,4.59,9.4,2.45,2.33.31,4.77-.04,6.97,1.09,2.62,3.57.91,6.54-1.6,9.08-1.1,1.11-2.67,1.93-4.24,2.53-1.91.44-2.88-1.04-4.11-2-4.46,2.69-7.37.4-9.9-3.09Z"/>
      <path class="cls-23" d="M29.99,128.08c-.59-.01-1.18-.02-1.78-.03-.31-.38-.57-1-.95-1.1-6.74-1.62-12.12-5.38-16.72-10.42-.56-.61-1.32-1.31-2.09-.58-1.27,1.2-.35,2.81-.48,4.23-1.77-1.18-2.95-2.72-3.01-4.93.59-1.51-.75-3.03.03-4.54.91-1.35,2.12-2.29,3.72-2.69,3-.4,4.12,2.01,5.29,3.92,1.07,1.75,2.29,2.79,4.31,2.85,2.31,1.7,4.9,2.81,7.65,3.59,1.99,1.11,4.52,1.16,6.08,3.09,2.65,3.25.32,4.95-2.07,6.63Z"/>
      <path class="cls-10" d="M120.03,69.15c-1.59.66-3.19,1.33-4.78,1.99-2.33-1.74-.77-5.72-4-6.94-2.36-1.68-4.43-3.69-6.43-5.77-2.06-2.22-1.9-5.57-3.95-7.8-1.22-1.22-2.4-2.45-2.07-4.4.87-1.75.04-4.59,3.13-4.94,6.75,8.82,14.03,17.29,18.1,27.85Z"/>
      <path class="cls-42" d="M84,147.2c.32.61.63,1.22.95,1.83-7.33,1.72-14.65.34-21.98-.08-.83-.43-1.96-.22-2.55-1.17-1.43-1.24-3.3-.23-4.85-.92-2.06-1.94-3.76-4.03-3.01-7.15.54-2.43,1.81-4.27,4.16-5.28.78-.13,1.5.04,2.16.46,1.2,1.32,2.28,2.62,4.44,2.54,2.6-.1,4.12,1.6,4.99,3.92,1.71,1.39,3.16-.79,4.78-.34.99.21,1.45,1.02,1.97,1.75.8,1.15,1.82,1.93,3.3,1.9,1.67,1.29,3.99,1.16,5.62,2.54Z"/>
      <path class="cls-2" d="M49,1.29c-1.52,5.13-4.79,8.49-9.99,9.92-2.9,2.8-6.6,2.69-10.24,2.84-.38-.28-.67-.64-.9-1.06-.78-1.86,1.03-3.12,1.13-4.78,6.28-3.44,12.48-7.08,20-6.92Z"/>
      <path class="cls-40" d="M8.98,109.33c-.95.6-1.89,1.2-2.84,1.79-2.99-.46-3.03-3.17-3.8-5.21-1.64-4.34-1.65-8.99-2.23-13.54-.18-5.28-.51-10.58,2.78-15.22.23,2.38-.19,4.85.9,7.13.71.11,1.17.53,1.47,1.16.1.43.15.87.14,1.31-.05.44-.11.88-.13,1.32.92,3-.43,6.23,1.01,9.18,1.14,1.51,1.17,3.36,1.56,5.11.65,2.28,3.03,4.28,1.14,6.97Z"/>
      <path class="cls-11" d="M53.99,140.17c.2,2.16,2.91,3.47,2.03,6,1.48,1.19,3.5-.25,4.97,1.01.66.59,1.33,1.19,1.99,1.78-6.42-.45-12.59-2.22-18.8-3.71-2.7-.65-4.49-1.94-4.36-4.98,1.41.28,2.83.55,4.24.83,3.32-.22,6.24-4.85,9.94-.92Z"/>
      <path class="cls-2" d="M69.95,7.21c-.32-.35-.63-.71-.95-1.06-2.28-5.64-5.39-6.11-9.86-.98-2.21,2.54-3.62.22-4.98-.4-1.36-.62-2.18-2.4-3.24-3.67,6.67-1.41,13.29-1.72,19.85.68,1.68.62,3.48.92,5.22,1.37.33,3.99-.2,4.35-6.04,4.06Z"/>
      <path class="cls-74" d="M29.05,12.17c0,.34.02.69.03,1.03,1.37,1.65,1.42,3.18-.6,4.29-1.16.64-1.88,1.65-2.7,2.58-1.03,1.12-1.63,2.41-1.98,3.93-.43,1.88-1.78,2.69-3.75,2.25-1.2.38-1.83,1.28-2.32,2.37-.39.86-.94,1.64-1.68,2.89-1.43-2.66,2.59-5.57-1.03-7.31,2.21-3.67,3.5-8.05,7.8-10.1,2.33.16,3.56-3.2,6.23-1.93Z"/>
      <path class="cls-3" d="M101.93,41.3c-1.47,1.42.63,3.57-1.02,4.96-4.81,2.66-7.77-.01-10.39-3.62-.91-1.6-.38-3.04.48-4.45,2.09-.55,4.5-.87,3.05-4.07,1.78-1.61,2.82.41,4.18.86,1.24,2.11,2.48,4.22,3.71,6.33Z"/>
      <path class="cls-49" d="M127,106.26c.36-1.77.71-3.53,1.07-5.3,2.74,9.67.4,18.59-4.31,27.02-1.51,2.7-3.76,4.99-5.68,7.46-2.55-.8-1.89-2.69-1.51-4.48.58-2,2.45-3.13,3.35-4.93,2.37-6.59,7.67-12.13,7.08-19.77Z"/>
      <path class="cls-69" d="M69.95,7.21c2.36-.84,4.54-1.94,6.04-4.06,4.74.66,8.45,2.95,11.03,7.01-3.45-1.57-6.76-2.45-10.47-.26-2.51,1.48-4.41-1.68-6.82-1.94-.05,0-.14-.29-.1-.4.05-.14.21-.23.33-.35Z"/>
      <path class="cls-67" d="M99.03,146.22c-1.46-1.85-4.12-3.51-.95-6.08,3.84-1.82,7.7-3.46,12.1-2.18,1.27.81,1.81,1.8.8,3.18-3.22,3.48-7.82,3.73-11.96,5.07Z"/>
      <path class="cls-1" d="M110.98,141.15c-.34-1.01-1.05-1.64-2.02-2.01-1.12-1.06-1.69-2.41-2.09-3.86-.09-1.44.71-2.36,1.82-3.08.43-.22.89-.37,1.37-.43,2.18.19,4.07-.48,5.64-2.02,1.09-.2,1.79.26,2.19,1.26-.19,1.49-.51,2.98.18,4.43-1.68,2.76-4.08,4.62-7.09,5.72Z"/>
      <path class="cls-81" d="M120.01,91.2c3.7-1.95,5.18-5.12,5.05-9.17,2.28,4.82,3.39,9.85,2.77,15.2-.84-.3-2.98,1.26-2.42-.66,1.26-4.27-.09-4.53-3.61-3.38-1.05.34-1.52-1-1.79-1.98Z"/>
      <path class="cls-46" d="M.11,92.38c1.88,6.29,1.9,13.18,6.03,18.74.1,1.51,1.23,3.31-1.17,4.12C1.08,108.1-.37,100.45.11,92.38Z"/>
      <path class="cls-17" d="M29.05,12.17c-1.74,1.71-3.49,3.42-6.23,1.93,1.75-2.28,3.69-4.38,6.17-5.89,1.41.07,2.82.15,5.06.26-1.98,1.68-4.95.95-5.01,3.7Z"/>
      <path class="cls-54" d="M98.22,34.98c-1.6.72-2.74-.79-4.18-.86,1.21-4.11-2.95-7.73-1.07-11.9,1.75,4.25,3.5,8.5,5.25,12.75Z"/>
      <path class="cls-42" d="M74.12,31.19c1.78,3.05,5.62,2.1,7.95,4.08,3.01,1.35,3.18,3.56,1.92,6.22-1.06,1.01-3.54,1.09-2.35,3.58.24.55.48,1.1.99,1.47.61.32,1.06.8,1.38,1.4.64,1.13.56,2.31.21,3.5-.35,1.03-1.26,1.46-2.1,1.95-1.31.54-2.49,1.51-4.05,1.18-1.47-.53-2.94-.48-4.42,0-2.86-.88-5.71-1.63-8.57,0-.48.01-.94-.08-1.38-.26-3.8-1.77-1.2-6.12-3.44-8.52-.31-.34-.6-.7-.9-1.06-1.8-2.45-3.98-4.58-5.74-7.06-.41-1.23-.3-2.4.36-3.52.76-1.09,1.78-1.79,3.09-2.05,2.43-.14,4.9-2.63,7.29.11,2.92,1.89,4.9-.32,7.1-1.62,1.02-.43,1.89-.13,2.66.58Z"/>
      <path class="cls-32" d="M49.01,23.16c2.35,2.19.96,5.78,3.03,8.08.31.3.61.6.91.91.03.66.06,1.33.1,1.99.86,2.93-1.28,3.6-3.29,4.36-1.95.32-3.86.09-5.73-.45-.52-.35-1.05-.77-1.82-.48-.87.15-1.7.29-2.52.55-1.88.58-3.16-.87-4.71-1.37-2.61-1.29-4.37.33-6.18,1.81-2.5,1.04-3.06-1.84-4.77-2.38h-.05c-1.75-5.45,2.61-6.02,5.93-7.41,4.54-.17,8.45-3.11,13.02-3.04,2.35.03,3.12-2.06,4.77-2.93.49-.08.93.04,1.32.36Z"/>
      <path class="cls-11" d="M48.01,23.21c-.87,2.66-1.99,4.9-5.5,4.22-.72-.14-1.96.02-2.26.5-2.43,3.81-5.94,2.57-9.29,2.19-4.49-.6-3.98-3.99-3.98-7.1-1.15-4.38,1.86-7.23,4.84-8.43,3.19-1.29,5.3,2.21,7.16,4.69.66.65,1.32,1.3,1.98,1.95.99,1.16,2.12.54,3.2.22,1.82-.54,3.31-.42,3.86,1.77Z"/>
      <path class="cls-17" d="M38.98,19.27c-1.29-.19-2.72-.07-3.84-.61-5.06-2.45-6.28-1.6-6.13,4.51-4.44,2.15-4.9-.68-4.99-3.99.72-2.82,4.9-2.71,5.06-5.99,3.13-1.58,6.33-2.81,9.93-2,.11.46.08,1.22.36,1.35,5.2,2.58,2.8,4.66-.39,6.72Z"/>
      <path class="cls-42" d="M69.11,21.3c2.05,1.34,1.13,3.23.9,4.98.61.64,1.01,1.37,1,2.28-.98,2.55-2.39,4.53-5.56,4.18-2.17-1.06-4.34-2.12-5.46-4.47-.03-.31-.04-.62-.03-.93-.09-2.18-.27-4.44,3.03-4.13,2.2-.12,4.17-1,6.13-1.91Z"/>
      <path class="cls-10" d="M49,37.2c1.55-.75,3.07-1.54,4.04-3.05.31.02.63.03.94.02.34,1.03.68,2.05,1.03,3.08-.68,1.49.51,2.54,1.05,3.63,1.78,3.65,1.12,6.35-2.63,8.14-2.32.41-4.47.36-5.72-2.11-.33-2.22.11-4.48-.16-6.71-.07-1.27.81-2.08,1.45-3.01Z"/>
      <path class="cls-17" d="M48.01,23.21c-3.27.57-6.64.6-9.8,2.05-.82-2.64,2.26-2.44,2.74-4.04.48-.45.93-.94,1.45-1.33,1.61-1.17,3.44-2.53,5.37-1.65,1.99.91.94,3.22,1.23,4.92-.33.01-.67.03-1,.05Z"/>
      <path class="cls-76" d="M62.98,23.21c-.71,1.6-1.44,3.18-3.03,4.13-.68-.71-1.38-1.4-2.02-2.14-.74-.86-1.98-2.22-1.07-2.89,1.3-.95,3.21-1.31,4.9-1.41,1.2-.08,1.1,1.36,1.23,2.31Z"/>
      <path class="cls-28" d="M59.98,28.28l5.03,2.92c.32,1.69-.4,2.35-2.06,2.1-1.94-.46-4.07,0-5.88-1.17,1.17-1.13,2.62-2.05,2.91-3.84Z"/>
      <path class="cls-10" d="M52.95,32.16c-.3-.3-.61-.61-.91-.91.3.31.61.61.91.91Z"/>
      <path class="cls-84" d="M82.92,41.29c-.29-2.01-.57-4.01-.86-6.02,1.03-1.24,2.27-2.1,3.92-2.22-.62,3.94.18,6.5,5,5.14.35,1.38.71,2.76,1.06,4.14.81,3.21-.36,4.96-3.73,5.1-2.05-1.2-4.51-1.8-5.92-3.96-.21-.82-.13-1.57.52-2.19Z"/>
      <path class="cls-77" d="M84.97,19.13c2.51,1.5,3.53,3.7,3.13,7.69-1.52-3.59-2.37-8.5-6.1-2.74-1.69-.53-1.98-1.52-.77-2.78.87-.91,1.17-1.84.66-3l.25-.18c.94.34,1.89.68,2.83,1.02Z"/>
      <path class="cls-76" d="M70.03,28.12c0-.61-.01-1.23-.02-1.84,4.34-.85,2.92,3.12,4.11,4.91-.71.37-1.42.73-2.13,1.1-5.31.8-.91-2.97-1.96-4.17Z"/>
      <path class="cls-77" d="M81.89,18.29c-2.25-1.06-2.23-3.27-3.54-6.24,3.09,1.96,5.47,2.84,3.79,6.06,0,0-.25.18-.25.18Z"/>
      <path class="cls-56" d="M76.07,27.36c-.6-1.81-1.56-3.67.64-5.2.97.87,1.27,1.91,1.26,3.08-.79.57-.11,2.45-1.9,2.13Z"/>
      <path class="cls-69" d="M76.07,27.36c.63-.71,1.27-1.42,1.9-2.13-.14,1.15-.04,2.51-1.9,2.13Z"/>
      <path class="cls-16" d="M109.98,108.25c.31.38.68.72.93,1.14,2.42,3.95,7.64,4.4,10.7.9.7-.8.78-2.53,2.25-2.15,1.41.37.92,1.89.96,2.97.04.86.09,1.64,1.08,1.94-.17,4.07-1.51,7.7-3.99,10.93-3.77,1.26-7.59,2.46-8.7,7.03-.85,1.07-1.32,2.71-3.25,2.16h.03c-1.53-1.19-3.58.97-5.03-.78-1.87-2.99-4.75-5.7-2.71-9.77,1.99-1.55,4.11-2.69,6.76-1.95-2.44-.53-5.06.5-7.4-.91-2.76-.7-3.72-2.63-3.63-5.28,3.64-2.74,6.64-6.75,11.99-6.23Z"/>
      <path class="cls-42" d="M109.98,108.25c-1.15,1.69-2.95,2.6-3.9,4.79-1.31,3.03-4.74.54-7.17,1.11-2.69,1.28-3.55-.48-3.86-2.55-.31-2.06-.46-4.21,1-6.03.55-.57,1.24-.86,2.01-.98,1.6-.42,2.86-1.1,2.45-3.11-.09-.46-.07-.91.03-1.36,2.1-3.64,2.63-7.79,3.81-11.73,1.9-1.65,4.31-.48,6.39-1.16.51.07.97.26,1.37.59,1.17,1.43.52,2.83-.07,4.23-.84,3.12-2.53,6.18-.09,9.39.78,1.03.4,2.25-.75,2.99-1.46.95-1.92,2.18-1.22,3.8Z"/>
      <path class="cls-29" d="M112.05,92.06c-.06-1.38-.06-2.78-1.11-3.88-1.67-1.87-.59-3.31.74-4.71,2.07-1.06,3.29.29,4.52,1.6.32,1.02.64,2.04.97,3.05-.13,3.37-3.57,2.41-5.12,3.93Z"/>
      <path class="cls-7" d="M121.14,123.25c3.02-2.73,3.29-6.75,4.77-10.2.36-2.27.73-4.54,1.09-6.8,1.23,7.87-1.39,14.61-6.03,20.77-1.08-.76-1.06-1.82-.79-2.94.22-.4.54-.67.96-.83Z"/>
      <path class="cls-79" d="M24.03,36.19c1.34.32,2.69.64,4.03.97,1.59-.46,2.25.63,2.07,1.76-.42,2.65,1.72,2.64,3.14,3.43,1.04.86,1.28,2,1.14,3.26-.29,3.27-4.41,2.77-5.29,5.39,1.43,1.18,3.85.68,4.67,2.79-.67,3.38-1.43,6.74-2.65,9.98-1.6,2.56-4.46,1.14-6.57,2.1-3.42,1.64-6.67-1.3-10.07-.39-.69-.26-1.17-.78-1.67-1.27-2-3.29-4.75-6.52,1.05-9.12,1.6-.71.6-2.22-.74-2.96.77-2.65,1.49-5.31,2.34-7.93.38-1.17.35-2.89,2.16-2.88,1.69.01,2.08,1.32,2.16,2.77.04.77-.28,1.93.85,1.97.64.02,1.91-.81,1.89-1.19-.17-3.03,3.15-5.44,1.49-8.68Z"/>
      <path class="cls-18" d="M12.07,82.24c.33-.72.66-1.45.99-2.17.4-.53-.36-.17.19-.42,3.93-1.79,4.57-5.11,4.32-8.89,4-.21,4.36-5.1,7.79-6.07,5,.29,5.2.55,5.14,6.75-2.16,3.75-3.6,7.69-3.11,12.13-.2,1.01-.81,1.73-1.62,2.32-4.24,3.88-7.86,1.74-11.4-1.19-1.06-.54-1.74-1.44-2.31-2.45Z"/>
      <path class="cls-73" d="M12.07,82.24c1.01.34,2.02.69,3.02,1.03.49.8,1,1.59,1.01,2.58-.03.47-.16.91-.36,1.34-.73.9-1.13,1.97-1.52,3.05-1.11,1.59-1.79,3.59-3.98,4.13-2.94-.22-4.73-1.62-4.84-4.73-.05-1.35-1.14-2.25-1.45-3.48-.05-.62-.11-1.25-.16-1.87,2.38-2.23,5.95.37,8.29-2.04Z"/>
      <path class="cls-36" d="M17.99,71.17c.57,2.38-.04,5.16,4.09,7.26-4.23-.04-6.75.32-9.02,1.65-.33-1.23-2.78-1.74-1.86-2.94,1.13-1.48,3.19-2.07,5.1-1.03,1.16-2.57-5.69-2.43-1.45-5.64.47-2.76,1.83-1.74,3.19-.75.33.5.31.99-.05,1.46Z"/>
      <path class="cls-21" d="M17.77,70.13c-1-.11-2.01-.34-2.92.33-1.55-1.8-2.96-3.65-2.01-6.26.71,0,1.43-.01,2.14-.02.82.92,1.78,1.27,3.06,1.25,1.45-.02,2.59.84,2.68,2.39.12,2.04-1.25,2.46-2.95,2.32Z"/>
      <path class="cls-72" d="M24.01,19.19c1.6,1.4,2.31,3.93,4.99,3.99.46,2.37.18,4.95,1.96,6.94-1.82,2.61-6.73,1.67-6.98,6.08-2.89-2.69-1.42-7.11-3.93-9.95,1.9-2.03,1.01-5.62,3.97-7.06Z"/>
      <path class="cls-80" d="M107.91,66.51c-.99,1.59-.19,3.17.06,4.74-1.44,1.78-3.36.71-5.08.86-1.15.03-2.32.51-3.44-.15-1.93-1.59-3.09-3.89-5.82-4.82-2.28-.78-1.84-5.76.62-8.7,1.26-1.5,2.73-2.85,4.64-3.57,3.58-.95,4.6,2.54,6.83,3.94q4.81,2.98,2.18,7.7Z"/>
      <path class="cls-63" d="M113.01,84.22c-1.29,1.01-1.84,2.4-2.08,3.96,0,0,.03-.05.03-.05-5.14-.44-5.64-1.4-3.82-7.51.17-1.67,1.32-2.57,2.62-3.35,2.37.23,1.88,2.8,3.19,3.9.76,1,.96,2.01.06,3.05Z"/>
      <path class="cls-30" d="M109.76,77.27c.32,1.44-.27,2.66-.89,3.88-1.42,1.66-3.09,1.72-4.69.44-2.05-1.63-1.75-3.61-.44-5.58,1.13-1.31,2.39-2.02,4.03-.81.66.69,1.33,1.38,1.99,2.07Z"/>
      <path class="cls-24" d="M107.91,66.51c-.21-2.46,1.71-5.82-2.75-6.47-.49-1.6-.61-2.97,1.76-2.74,1.22,2.4,4.77,2.89,5,6.1.47,1.01-.27,1.37-.93,1.78-1.02.44-2.05.88-3.07,1.33Z"/>
      <path class="cls-30" d="M107.77,75.2l-2.88,1c-1.19.35-1.8-.34-2.28-1.26-.27-.67-.39-1.35-.22-2.07.1-.91.32-1.81.55-2.7,2.39-2.94,3.16,1.64,5.03,1.08-.07,1.32-.14,2.63-.21,3.95Z"/>
      <path class="cls-82" d="M110.98,65.18c.31-.6.62-1.19.93-1.79,2.33,2.06,2.71,4.95,3.33,7.75-1.99.21-3.84.36-2.78-2.68.51-1.46-.24-2.53-1.49-3.28Z"/>
      <path class="cls-70" d="M113.01,84.22c-.02-1.02-.04-2.03-.06-3.05,1.68.81,3.82,1.23,3.24,3.91-1.06-.29-2.12-.57-3.19-.86Z"/>
      <path class="cls-6" d="M74.01,144.17c-.35-.68-.7-1.36-1.05-2.04-2.51-.93-4.53,1.55-6.99,1-1.03-2.22-2.1-4.2-5.13-4.16-1.66.02-2.47-1.48-2.83-3.05,1.4-2.59,3.58-3.15,6.33-2.64,2.45.46,4.9.9,7.35,1.33,1.55.2,3.44-.48,4.24,1.64-.55,2.37.13,4.58.89,6.77-.59,1.26-1.58,1.52-2.83,1.14Z"/>
      <path class="cls-2" d="M98.88,139.02c-.98-1.31-1.73-3.11-3.9-1.74-2.37,1.84-4.68.88-6.99-.14-.68.04-1.36.07-2.05.11-1.89.8-2.61-.22-2.93-1.88.01-.9.42-1.63.97-2.29,2.36-1.32,4.78-2.49,7.53-2.79,2.52.89,5.05,1.44,7.78.97,1.61-.27,3.33-.35,4.69.95.62.88,1.24,1.77,1.22,2.92-.82,3.38-3.85,3.16-6.31,3.88Z"/>
      <path class="cls-71" d="M98.88,139.02c1.09-2.12,3.63-2.23,5.17-3.73,1.18-.9,2.44-1.18,3.82-.46,2.34.93,1.5,2.67,1.1,4.3-2.43.31-5.02.08-7.07,1.78-1.66,1.37-2.7.24-3.82-.78.27-.37.53-.75.8-1.12Z"/>
      <path class="cls-75" d="M75.94,136.26c-1.33.14-2.67.5-3.93-.29-1.46-1.6-1.21-3.18.05-4.74,2.09-2.46,4.26-2.82,6.65-.37,1.15,1.18,2.89,1.52,4.11,2.63.48.66.58,1.42.54,2.21-.74,2.26-2.07,3.03-4.25,1.7-1.06-.38-2.12-.75-3.18-1.13Z"/>
      <path class="cls-13" d="M74.01,144.17c.94-.38,1.89-.76,2.83-1.14,2.18-.37,4.26-.13,6.16,1.07-.77,4.23-3.31,3.34-5.97,2.05-1.01-.66-2.01-1.32-3.02-1.98Z"/>
      <path class="cls-51" d="M79.12,137.39c1.66-.29,3.21-.82,4.36-2.16l.22-.03c.38,1.09,1.15,1.74,2.24,2.05-2.26.57-4.41,6.66-6.82.14Z"/>
      <path class="cls-71" d="M77.02,146.16c2.22-.02,4.4-.15,5.97-2.05,1.04.8,3.25,1.23,1.01,3.1-2.45.47-5.09,2.23-6.98-1.05Z"/>
      <path class="cls-49" d="M87.98,137.14c2.33.05,4.66.09,6.99.14.4,3.65-2.17,3.01-4.05,2.47-1.14-.33-1.98-1.7-2.95-2.61Z"/>
      <path class="cls-64" d="M72.94,132.28c-.31,1.23-.62,2.46-.93,3.7-1.27,1.33-2.68.82-4.16.43-3.23-.85-6.52-1.13-9.83-.48-.34-.26-.67-.52-1.01-.78-3.27,1.44-5.56.36-7.06-2.75-2.67-.08-5.34-.16-8.01-.24-1.01-.83-2.54-.51-3.44-1.58-1.03-2.06-3.05-3.83-1.9-6.53,1.85-4.64,4.96-2.57,7.88-1.49,4.03,3.52,9.59,1.08,13.91,3.58,1.13.65,2.62.34,3.76,1.09,2.27,1.12,4.62,1.74,7.17,1.21,2.21.32,3.67,1.36,3.62,3.82Z"/>
      <path class="cls-78" d="M49.94,132.4c2.71.01,4.7,1.85,7.06,2.75-.85,1.77-1.21,3.83-3.02,5.02-3.29.54-6.52,1.74-9.94.92.04-.65,0-1.84.12-1.86,3.99-.57,3.51-4.86,5.77-6.83Z"/>
      <path class="cls-53" d="M38.01,124.16c.67,2.01,1.33,4.01,2,6.02-2.94,1.81-5.54.93-7.99-1.04-.67-.35-1.35-.7-2.02-1.05-.08-1.97,2.22-3.53.97-5.69,3.26-3.04,5.12-.47,7.05,1.77Z"/>
      <path class="cls-47" d="M32.01,129.13c2.57,1.06,5.5-.65,7.99,1.04.64.66,1.29,1.33,1.93,1.99-3.88.86-7.65,1.36-9.92-3.03Z"/>
      <path class="cls-31" d="M38.01,124.16c-2.43-.29-4.44-2.23-7.05-1.77-1.96-.77-3.92-1.55-5.88-2.32-1.09-1.89.73-2.88,1.31-4.25,1.14-2.85,4.16-3.62,6.04-5.59-.12-.35-.21-.69-.39-1-2.08-3.36-7.05-1.48-9.02-4.99-.22-.73-.18-1.44.12-2.14,1.21-1.89,4.97-1.26,4.62-4.7.21-.49.53-.88.95-1.2.71-.43,1.47-.56,2.28-.42,3.07.94,4.82,3.61,7.17,5.47.74,2.54-1,6.83,4.31,6.15q5.79,2.01,7.95-3.11c.42-.28.87-.47,1.37-.55.76-.08,1.51-.22,2.27-.07,1.73.45,3.46.88,4.87,2.07,1.78,2.42,5.16,3.51,5.76,6.91.48.92.59,1.85.16,2.82-1.92,2.34-4.74,2.97-7.4,3.9-3.29,4.75-7.86,6.52-13.5,5.82-2.23,1.03-3.44-3.78-5.97-1.03Z"/>
      <path class="cls-1" d="M8.98,109.33c-1.25-2.35-2.83-4.55-3.24-7.27,5.37-2.96,10.3-.93,11.86,4.91.58,2.17.65,4.48,1.74,6.52.05,1.09-.3,1.98-1.3,2.53-4.76.14-6.18-4.27-9.06-6.68Z"/>
      <path class="cls-31" d="M18.04,116.01c-.01-.96-.02-1.91-.03-2.87-.69-1.67.41-2.61,1.62-3.1,2.1-.86,4.32-1.27,5.73-3.46.55-.86,2.1-1.08,3.22-.46,1.24.68,1.88,1.87,1.79,3.3-.1,1.69-.62,3.26-1.78,4.55-1.09,1.21-1.27,2.3.36,3.18-.41,2.16-2.79,1.69-3.9,2.92-3.27.25-5.27-1.7-7.03-4.06Z"/>
      <path class="cls-44" d="M106.92,57.3c-.59.91-1.17,1.83-1.76,2.74-2.72-.27-4.03-2.71-6.09-3.99-2.64-.13-5.17.66-7.77.92-1.82.18-3.6.53-5.04-1.03-1.86-2.8,0-5.22.8-7.75,1.35-1.26,3.26-1.49,4.55-.75,3.35,1.94,6.95,1.57,10.5,1.84,2.29.04,3.22,1.48,3.18,3.49-.03,1.78.9,3.08,1.63,4.51Z"/>
      <path class="cls-16" d="M102.11,49.3c-5.16,5.16-9.66,2.23-14.13-1.14-.71-.14-1.16-.55-1.29-1.28.25-.66.56-1.19,1.39-.73,2-.57,2.84-2.35,3.98-3.81,2.64,2.01,5.98,2.45,8.86,3.93-.34,1.31.4,2.18,1.2,3.04Z"/>
      <path class="cls-37" d="M65.97,143.14c2.22-1.08,4.19-3.93,6.99-1-1.23,1.04-2.49,2.04-3.68,3.13-.85.78-1.7,1.81-2.92,1.29-1.9-.81-.13-2.28-.39-3.42Z"/>
      <path class="cls-62" d="M60.99,147.17c-1.69-.18-3.51.32-4.97-1.01,1.12-.57,2.68.93,3.61-1.12.78-1.72,2.43-.56,2.97.28,1.12,1.73-.7,1.52-1.62,1.84Z"/>
      <path class="cls-66" d="M28.97,117.14c-1.93-.36-3.88-.59-1.99-3.36,1.3-1.9,2.18-4.02.44-7.22-1.41,5.48-4.63,7.36-9.41,6.58-2.25-.9-2.14-3.17-2.66-4.94-1.13-3.8-2.68-6.57-7.42-5.19-.59.17-1.45-.61-2.19-.95-.23-1.3-.46-2.6-.7-3.9.14-1.07.82-1.67,1.77-2.06,4.04-1.36,7.49,1.37,11.32,1.62,1.81.29,3.11,1.12,3.24,3.13.11,1.72,1.21,2.63,2.64,3.27,3.09-.59,5.84,2.92,9.39.46.91-.63.51,2.3.64,3.61.16,1.36,1.63,2.37,1.07,3.93-2.39,1.25-6.26.71-6.14,5.03Z"/>
      <path class="cls-57" d="M7.02,97.17c-.66.33-1.32.66-1.97.99-3.37-3.19-.39-7.52-1.97-11.04.33-.32.65-.65.95-1,0,0-.08.03-.08.03,1.7-.25,2.97.08,3.06,2.16.09,2.17,1.18,3.73,3.06,4.77,2.62,4.08-1.29,3.28-3.05,4.08Z"/>
      <path class="cls-65" d="M4.02,86.13c-.32.33-.64.66-.95,1,.32-.33.64-.66.95-1Z"/>
      <path class="cls-27" d="M121.13,124.22c.7.98.28,1.9-.16,2.81-1.02,1.33-2.05,2.65-3.07,3.98-.58-.22-1.17-.44-1.75-.66-.19-.17-.38-.34-.57-.51-.49-4.18,2.57-4.86,5.56-5.62Z"/>
      <path class="cls-35" d="M107.87,134.84c-1.12,1.47-2.41,1.46-3.82.46-.35-.66-.7-1.33-1.05-2,.66-1.42,1.85-1.29,3.08-1.06,1.57-.82,3.07-1.31,3.92.93-.71.55-1.42,1.11-2.13,1.66Z"/>
      <path class="cls-64" d="M109.96,133.17c.61-.95,1.22-1.9,1.82-2.85,1.29-.38,2.45-2.02,3.95-.42.14.15.27.29.4.45-1.34,2.51-2.92,4.51-6.18,2.82Z"/>
      <path class="cls-59" d="M49,45.15c1.03,2.21,3.05,2.01,4.98,2.04,1.49-.03,2.86-.38,4-1.41.78-.21,1.58-.35,2.36-.57.59-.17,1.05-.53,1.47-.96,3.61,2.29.32,6.28,2.22,8.99.71,1.29.32,2.36-.66,3.31-2.93,3.92-7.56,1.21-11.27,2.76-1.9.79-4.11,1.32-6.04,2.38-4.55-.17-.6-4.04-2.36-5.42-.06-.2-.09-.41-.16-.61.12.78.82,1.35.75,2.19-.33.73-.94,1.16-1.62,1.51-1.87.57-3.75.43-5.63.17-3.21-.36-4.44-2.12-3.69-5.25-.21-.76-.28-1.53.06-2.28,1.18-2.15,1.36-4.64,2.34-6.86.56-1.49,1.62-2.37,3.2-2.61,2.18-.28,3.07-2.51,4.93-3.29.47-.09.94-.07,1.41.05,2.29,1.3,2.72,3.77,3.71,5.88Z"/>
      <path class="cls-51" d="M73.95,53.22c1.3-1.59,2.58-3.89,4-.09,2.08,2.05,3.86,4.25,4.63,7.2.7,2.67.29,4.52-2.67,5.19-3.04-1.1-6.26-1.46-9.39-2.19-1.74-.99-1.96-2.64-1.94-4.41-.1-3.68,3.92-3.49,5.37-5.71Z"/>
      <path class="cls-45" d="M73.95,53.22c.68,2.44,3.55,6.13-2.69,4.64-.32-.08-.88.82-1.33,1.26-4.62,1-5.81-.45-4.86-5.94,3.51-4.94,5.92-4.93,8.87.04Z"/>
      <path class="cls-41" d="M59,47.36c-1.69,2.34-2.05,2.33-5.02-.17.55-1.39.7-2.53-.15-4.11-1-1.88-.89-4.24,1.19-5.84,3.17,1.29,5.42,3.37,6.02,6.9-.04.57-.24,1.08-.58,1.54-.47.57-1,1.1-1.45,1.69Z"/>
      <path class="cls-67" d="M80.08,64.22c2.15-1.83.75-3.43-.15-5.25-.91-1.82-2.92-3.36-1.97-5.83,1.01-.37,1.8-1.44,3.08-.98,1.77.88,4.49.27,4.99,3.16.95,4.16.61,8.1-1.91,11.7-2.41.62-4.22.36-4.03-2.78Z"/>
      <path class="cls-8" d="M65.08,53.18c1.3,2.24,1.52,5.37,4.86,5.94,1.69.96,1.02,1.99.1,3.03-.06.24-.12.48-.18.72-1.91,2.16-3.87,4.17-7.16,2.72-2.71-1.24-1.92-3.67-1.96-5.81.91-1.37.36-3.16,1.32-4.52.66-.68,1.31-1.35,1.97-2.03.35-.02.7-.04,1.05-.05Z"/>
      <path class="cls-46" d="M70.03,28.12c1.34,1.07-.39,3.58,1.96,4.17-1.6,2.91-5.73,2.8-7.17,6.15-.4.93-2.23.27-2.3-1.26-.06-1.29.27-2.59.42-3.89.69-.7,1.37-1.4,2.06-2.1,2.29-.01,3.62-1.6,5.02-3.07Z"/>
      <path class="cls-11" d="M88.08,46.14c-.37.34-.74.67-1.11,1.01-.23,1.61,1.57,3.53-.69,4.83-1.32.76-2.48.57-3.32-.79-.07-1.09-.24-2.14-1.06-2.96-.27.34-.54.33-.81,0-1.01-.39-1.7-1.08-1.94-2.16,1.26-1,1.91-2.82,3.86-2.91,2.04.39,3.82,1.24,5.06,2.98Z"/>
      <path class="cls-1" d="M82.96,51.2c3.73,1.03,2.65-2.72,4.01-4.05.33.33.67.67,1,1,.73,2.46-.79,4.63-.87,6.99-.72.6-1.46.64-2.23.09-1.47-.8-3.3-1.15-3.85-3.09.64-.32,1.29-.64,1.93-.95Z"/>
      <path class="cls-83" d="M83.02,43.17c-.6,1.88-2.07,2.62-3.86,2.91.6-2.58-1.33-4.04-3.18-5.73,2.97-1.29,4.85.51,6.95.94.03.63.06,1.25.09,1.88Z"/>
      <path class="cls-19" d="M59.98,45.18c.35-.35.7-.69,1.04-1.04.26.05.52.08.78.11-.27.64-.54,1.29-.81,1.93l-.42-.02c-.29-.09-.48-.28-.58-.57l-.03-.41Z"/>
      <path class="cls-30" d="M81.09,48.24c.27,0,.54,0,.81,0,0,0-.4.14-.4.14l-.4-.14Z"/>
      <path class="cls-3" d="M39.94,44.17c-1.24.3-2.23.96-2.95,2.03-.46.84-1.2,1.32-2.11,1.57-1.02-.07-1.7-.54-1.9-1.59-.31-1-.62-2-.94-2.99-3.71-3.94-2.85-6.47,2.75-8.1,1.7.37,3.39.74,5.09,1.11,3.55,2.92,3.57,6.08.06,7.99Z"/>
      <path class="cls-33" d="M34.8,35.08c-.24,2.93-4.89,4.36-2.75,8.1-2.34,1.92-3.9,1.98-3.91-1.64,0-1.46.7-2.94-.08-4.39,2.15-.99,3.35-5.1,6.74-2.08Z"/>
      <path class="cls-18" d="M39.94,44.17c-.86-2.66,1.64-5.34-.05-7.99.97.02,1.93.05,2.9.07.46.12.72.42.79.88.65.98.75,2.03.36,3.13-.8,1.85.57,5.91-3.99,3.9Z"/>
      <path class="cls-77" d="M43.94,40.27c-.29-1.03-.58-2.07-.87-3.1.41-.81.82-.81,1.22,0,1.58-1.76,3.14-.49,4.71.03.98.98,1.13,1.95-.02,2.92-1.27,1.32-2.58.97-3.91.12-.38.01-.75.02-1.13.04Z"/>
      <path class="cls-62" d="M44.29,37.17c-.41,0-.81,0-1.22,0-.09-.3-.18-.6-.28-.9.8-.19,1.21.26,1.5.91Z"/>
      <path class="cls-5" d="M45.06,40.23c1.3-.04,2.61-.08,3.91-.12.88,1.68.81,3.36.02,5.04-2.97-.31-3.15-2.86-3.93-4.92Z"/>
      <path class="cls-21" d="M106.08,132.24c-1.03.35-2.05.7-3.08,1.05-3.68-.36-7.56,1.24-11.05-1.11-.72-4.31,2.53-4.09,5.19-4.55-2.3-1.75-4.6-3.27-7.51-4.15-3.08-.93-2.5-3.12,1.43-5.66-4.78,2.62-6.73,2.08-6.54-1.8.02-.49.22-.96.34-1.44.36-1.45-.95-2.85-.17-4.33.16-.43.4-.82.69-1.17,1.26-.95,2.01-2.11,1.59-3.78-.31-1.31-.21-2.65-.45-3.96-.04-3.33-2.04-6.46-1.08-9.9.1-1.86-.24-3.68-.52-5.51-.44-3.92,1.12-5.27,4.88-3.81,1.04.58,2.1,1.14,2.97,1.98,1.92,1.89,1.91,4.52,2.64,6.87.07.67.1,1.34.16,2,.05,1.13.62,2.14.77,3.24-.53,1.79-.51,3.5.71,5.04.13.42.16.86.13,1.29-.31,1.17.1,2.39-.15,3.57,1,2.59-1.11,5.92,1.89,8.04,1.14,1.56,1.99,3.41,4.07,4.02.5,1.64,2.61,2.95,1,5.01-2.04,3.65,2.17,5.86,2.09,9.06Z"/>
      <path class="cls-60" d="M115.73,129.9c-1.31.14-2.63.28-3.95.42-2.01-2.54-1.89-2.34,1.52-4.31,1.44-.83,3.68-.87,4.18-3.08.26-1.12.44-2.69,1.74-2.71,1.81-.04,1.05,2.13,1.91,3.05-.02.32-.02.64-.01.96-1.75,1.93-4.13,3.28-5.39,5.68Z"/>
      <path class="cls-77" d="M103.99,123.18c-.52-1.63-2.01-3.07-1-5.01,2.73,1.14,5.81.42,8.64,1.69.79.36,1.63.15,1.62,1.26,0,.93.41,2.13-.66,2.69-1.05.55-1.15-.56-1.67-1.15-2.45-2.74-4.71-.98-6.93.52Z"/>
      <path class="cls-6" d="M103.9,74.12c.33.69.66,1.39.99,2.08-.95,3.48.33,5.17,3.98,4.95.96,2.25-2.28,5.75,2.09,6.98-1.63,2.33-3.94.67-5.91,1-.74.94-.99,2.32-2.38,2.69-.49.07-.97.01-1.44-.16-2.8-3.01-2.43-7.14-3.75-10.69-.09-1.01-.54-1.98-.25-3.02,1.33-2.82,3.03-5.02,6.67-3.83Z"/>
      <path class="cls-73" d="M101.98,91.17c1.02-.68,2.04-1.36,3.07-2.04,1.2,4.3.89,8.18-3.07,11.05-.51-.06-.98-.23-1.42-.5-3.33-3.98-2.81-7.09,1.42-8.51Z"/>
      <path class="cls-11" d="M97.02,106.11c-.29-.14-.64-.21-.86-.42-1.09-1.06-3.84.84-3.77-1.71.05-1.72,2.51-.84,3.58-1.77,1.63-.49,3.25-.9,4.46.84.45,1.65-.23,2.64-1.82,3.1-.53-.01-1.07-.03-1.6-.04Z"/>
      <path class="cls-21" d="M100,103.17c-1.34-.32-2.68-.64-4.03-.96,0,0,.03-.11.03-.11.12-1.62-.15-3.45,2.08-3.96,1.38.08,2.72.34,3.94,1.04-.01.33-.02.66-.03.99,0,.35,0,.7,0,1.06.41.79.62,1.61-.23,2.21-.59.42-1.24.32-1.75-.27Z"/>
      <path class="cls-25" d="M100,103.17c1.15-.14,1.45-1.16,1.98-1.94,2.1-.07,2.93,1.49,2.25,2.88-1.04,2.12-3.37,2.31-5.6,2.04.46-1,.92-1.99,1.38-2.99Z"/>
      <path class="cls-56" d="M33.94,53.35c.07,2.57,1.24,4,3.96,3.83,2.8,3.42,1.84,6.38-1.1,9.1-2.89.18-6.19,1.29-7.04-3.12-2.4-4.23,2.02-6.09,3.15-9.09-.02-.76.22-1.14,1.02-.72Z"/>
      <path class="cls-61" d="M17.77,70.13c.95-1.24,2.83-2.87-.73-2.74-2.84.11-2.12-1.67-2.06-3.21,3-2.7,5.96,1.42,8.95.05,1.02.17,1.47.76,1.29,1.8-2.39,1.73-2.37,6.86-7.22,5.14-.07-.35-.15-.69-.22-1.04Z"/>
      <path class="cls-14" d="M25.21,66.03c-.43-.6-.86-1.2-1.28-1.8,1.7-1.68,3.99-.17,5.84-1.08,1.83,1.57,4.32,1.13,6.34,2.13.76,2-1.45,2.71-1.84,4.21-1.29,1.75-2.5,3.67-5.2,2.65-.61-2.46,1.08-6.38-3.86-6.11Z"/>
      <path class="cls-4" d="M32.99,46.17c.63.33,1.26.67,1.89,1,1.33,2.66-.68,3.43-2.44,4.35-2.14.26-4.34,2.11-6.36-.28-.3-2.78.45-4.43,3.76-4.01.99.13,2.1-.68,3.15-1.06Z"/>
      <path class="cls-50" d="M26.08,51.24l5.83-.99c1.13.52,2.71.38,3.02,2.09-.33.34-.66.67-.98,1.01-.34.24-.68.48-1.02.72-.95-.03-2.13-.43-2.82-.02-3.62,2.16-4.23.34-4.02-2.81Z"/>
      <path class="cls-50" d="M20.18,55.14c.12,2.11-.25,3.58-2,4.28-.25.1-1.06-.38-1.06-.59,0-1.76.77-3.03,3.06-3.69Z"/>
      <path class="cls-3" d="M24,104.12c-1.07,1.37-2.01,3.48-3.47.21-.78-1.74-1.01-3.77-2.52-5.15-1.38-1.9-4.32-1.9-5.25-4.34-.17-.51-.22-1.04-.16-1.57.24-1.02.93-1.86,1.17-2.89.19-.74.16-1.5.13-2.26.12-.78.61-1.35,1.13-1.89.02-.98.05-1.97.08-2.95,1.36.6,2.71,1.26,4.1,1.8,1.33.52,2.54,2.12,3.65-.83.77-2.05,1.3.82,2.17,1,2.09-.14,3.64,1.34,2.7,2.83-2.3,3.68.17,6.24,1.27,9.18,0,.32.01.65.02.97-.92,2.3-3.68,2.33-5.03,4.11,0,.6.02,1.2.02,1.8Z"/>
      <path class="cls-46" d="M28.99,97.25c-2.16-1.19-5.31-.91-5.93-4.37-.37-2.06-.83-4.09,1.65-4.88,2.62-.84.94-1.77.3-2.76.35-.69.71-1.38,1.06-2.07,1.04-2.08,2.89-2.51,4.98-2.44,3.36,0,6.71.02,9.21,2.84,2.06,1.18,5.09.96,5.88,4.01-.18,3.99-2.43,4.51-5.76,3.55-4.44-1.29-6.02-.24-7.11,4.48-.41,1.02-1.23,1.48-2.25,1.65-.67,0-1.35,0-2.02,0Z"/>
      <path class="cls-63" d="M30.99,82.18c-1.48,1.13-3.1,1.52-4.91.99-2.5-6.42-1.99-8.32,3-11.02,1.02-1.61,2.04-3.21,3.91-3.99.96-.23,1.92-.51,2.92-.2,2.69.78,4.07,2.72,4.73,5.31.34.9.79,1.78.82,2.77.11,2.58-1.3,4.86-3.63,4.03-3.24-1.15-4.75.85-6.83,2.11Z"/>
      <path class="cls-73" d="M14.94,94.01c1.52,1.43,3.17,2.78,3.07,5.17-2.2.3-4.61,3.04-6.4-.92-.83-1.84-3.85,2.85-4.59-1.09.71-1.59,3.37-1.72,3.05-4.08.98-1.29,1.97-2.58,2.95-3.86,1.13-.62,1.48.38,2.02.98l-.07,3.08-.35.35.33.37Z"/>
      <path class="cls-34" d="M15.04,90.2c-.67-.33-1.35-.65-2.02-.98-.62-1.05-1.61-2.08-.69-3.36.15-.21,1.08.15,1.65.25.22.81.65,1.54.99,2.3.02.6.04,1.19.06,1.79Z"/>
      <path class="cls-56" d="M14.97,88.41c-.75-.58-1.52-1.16-.99-2.3.34.03.69.07,1.03.1-.02.73-.03,1.46-.05,2.19Z"/>
      <path class="cls-32" d="M84.88,55.24c.74-.03,1.49-.06,2.23-.09,2.94-.39,5.88-.71,8.81-1.18,1.79-.29,2.9.18,3.15,2.09-1.54,3.13-4.01,5.81-4.63,9.63,4.91-1.17,4.38,3.03,5.57,5.59-.21,2.8-2.4,2.24-4.13,2.46-2.32-.95-3.8.8-5.54,1.74-3.99.54-6-1.48-6.7-5.19-.31-.9-.71-1.79-.47-2.78.21-.43.48-.81.81-1.15-1.72-3.87-.34-7.49.91-11.12Z"/>
      <path class="cls-49" d="M95.02,72.16c1.72.05,3.45.11,4.99-.88.98-.37,1.96-.74,2.94-1.11.37.62.75,1.25,1.12,1.87-1.71,2.1-5.7,2.35-5.08,6.32,0,.95,0,1.89,0,2.84.59,3.45.27,7.18,3.01,9.98,0,0-.02-.02-.02-.02-2.27,2.68-2.08,5.35.03,8.02-1.37,0-2.74-.01-4.11-.02-1.4-.87-2.53-2.09-3.91-2.99-.75-1-.76-2,0-3,.66-.66.83-1.32.01-1.99-2.84-1.29-.56-4.29-2.03-6.03-.35-1.42-.8-2.78-2.31-3.45-1.08-1.27-1.65-2.66-1.12-4.34.16-.77.53-1.41,1.17-1.89,2.25-.33,2.9-3.22,5.31-3.31Z"/>
      <path class="cls-26" d="M98.98,78.36c-1.95-5.04,1.63-5.62,5.08-6.32-.05.69-.11,1.38-.16,2.07-1.77,1.27-4,2-4.92,4.24Z"/>
      <path class="cls-67" d="M85.9,110.16q1.3,4.09.62,7.82c2.84-.2,4.09-2.5,5.85-4.12,4.6,4.76-1.47,4.98-3.05,7.18,1.78.76,3.54.33,5.32.14,1.24-.13,2.8-.9,3.6.65.86,1.66-1.89,1.62-1.83,3.13,2.39,1.45,2.72-1.97,4.47-1.79,1.44,4.53-.1,6.82-5.14,7.18-1.63.12-2.81.62-3.79,1.83-2.3.68-4.6,1.37-6.9,2.05-.95-3.25-4.23-5.39-4.33-9.05.16-.43.39-.81.73-1.13-.34.04-.59.29-.91.38-.74.21-1.5.2-2.26.28-1.34.07-2.37-.47-3.14-1.55,1.4-4.34,1.46-8.71.46-13.18-.2-.9.82-1.7,1.77-2.14,2.31-1.14,4.47.79,6.75.32,1.01.29,1.67.89,1.77,1.99Z"/>
      <path class="cls-32" d="M81.9,125.12c.99,3.06,5.86,4.77,3.15,9.11-.45.32-.9.64-1.35.97,0,0-.23.03-.23.03-.48-.37-.97-.73-1.45-1.1-1.4-2.26-5.04-3.38-3.6-7.08.84-1.21,1.74-2.33,3.48-1.93Z"/>
      <path class="cls-65" d="M80.12,126.99c.63,2.38,1.27,4.76,1.9,7.15-3.24.4-5.47-4.06-9.08-1.86-1.31-.71-2.63-1.41-3.94-2.12-2.66-.84-4.35-3.03-6.48-4.63-1.79-1.34-2.73-3.48-4.71-4.71-1.18-.73-2.23-2.02-.69-3.54,2.29-.68,4.58-1.37,6.87-2.05,4.78-.53,6.65,4.33,10.43,5.65.62.32,1.11.8,1.59,1.29,1.07.36,2.14.72,3.21,1.08,1.1,1.06,1.7,2.23.9,3.74Z"/>
      <path class="cls-79" d="M57.12,117.27c.25.4.41,1,.77,1.17,2.32,1.13,5.68,4.21,6.11,5.71,1.62,2.58.17,3.91-2.01,4.94-6.18-.51-12.08-2.3-18.02-3.92,1.16-.88,3.6-.38,3.7-2.05.31-5.24,2.47-2.99,4.8-.77.85-2.72-.36-7.25,4.64-5.1Z"/>
      <path class="cls-48" d="M62,129.1c.67-1.65,1.34-3.3,2.01-4.94,2.33,1.44,3.89,3.53,5,6-2.49.72-5.01,1.59-7-1.05Z"/>
      <path class="cls-49" d="M76.01,122.16c-.66-.02-1.33-.05-1.99-.07-.66-.21-1.38-.64-1.42-1.24-.29-4.07-2.58-6.12-6.42-6.89-.96-.19-1.53-1.2-2.13-1.99-.65-1.83-1.02-3.93-3.87-3.21-1.13.29-1.76-.59-2.16-1.57-1.46-.23-2.59-1.06-3.61-2.06-.74-3.45-3.5-6.99.47-10.23,3.26-.77,4.46,2.76,7.06,3.38,3.1,3.64,7.57,2.59,11.52,3.32,2.86.06,4.84,1.45,6.03,4.01.33,1.54-.48,2.59-1.49,3.57-2.03,4.79.44,5.97,4.66,5.7-1.27,3.38-5.06,4.33-6.65,7.29Z"/>
      <path class="cls-32" d="M65.01,111.16c.47.15.92.35,1.4.45,8.57,1.81,9.66-.05,7.61,10.48-.75.26-2.04.92-2.18.74-2.19-3-6.51-3.79-7.85-7.61-.33-.68-.66-1.37-.99-2.05-.35-1.69.35-2.32,2.01-2.01Z"/>
      <path class="cls-52" d="M55.06,96.19c-.27,2.98.96,6.07-.66,8.95-.82.01-1.64.02-2.46.04-1.38-2.76-4.64-.91-6.45-2.62-.32-.38-.53-.8-.65-1.28.35-2.65,1.34-5.15,1.75-7.78.12-.46.31-.89.57-1.29,4.37-5.76,4.71-5.84,9.74-2.33,1.3,2.67.04,4.58-1.85,6.31Z"/>
      <path class="cls-65" d="M46.03,101.3c0,.28-.02.56-.03.84,1.35,1.56,4.07.82,5.06,2.99-.69,6.75-3.06,7.8-9.05,4.05-2.59-1.74-4.63-3.74-3.52-7.28.62-1,1.64-1.26,2.7-1.47,1-.27,1.99-.59,3.04-.46.79.19,1.34.69,1.79,1.33Z"/>
      <path class="cls-37" d="M42.02,102.16c-1,0-2,0-3.01,0-.72.64-1.46.6-2.2.04-1.93-1.65-3.86-3.3-5.8-4.95.34-.7.68-1.41,1.02-2.11.76-.76,1.54-1.48,2.73-1.41,1.32-.04,2.55.21,3.49,1.24,1.06,2.5,6.21,2.85,3.77,7.19Z"/>
      <path class="cls-77" d="M51.06,105.13c-4.51,2.37-5.11,2.02-5.06-2.99,1.87-2.24,4.71-1.16,7.5-2.74-.66,2.45-1.1,4.11-1.55,5.77-.3-.02-.6-.03-.89-.03Z"/>
      <path class="cls-46" d="M65.01,111.16c-.67.67-1.34,1.34-2.01,2.01-1-1.21-1.65-2.7-3.72-2.67-3,.05-1.85-1.81-1.26-3.31,6.86-1.36,7.33-1.09,6.99,3.97Z"/>
      <path class="cls-38" d="M36.81,102.2c.73-.01,1.47-.03,2.2-.04,1,2.34,2,4.68,3,7.01-4.52-.25-6.06-2.71-5.2-6.97Z"/>
      <path class="cls-65" d="M23.98,102.33c-.21-3.68,3-3.17,5.03-4.11,1.11,4.78-1.58,4.91-5.03,4.11Z"/>
      <path class="cls-66" d="M37.96,119.02c-.31,2.14-1.88,1.84-3.39,1.92-1.5.08-2.54-.73-2.24-1.91.47-1.79,2.46-1.22,3.83-1.52,1.13-.25,2.04.02,1.8,1.5Z"/>
      <path class="cls-6" d="M35.11,112.12c-.77-1.2-4.44-1.6-1.07-3.93.68.4,1.36.81,2.04,1.21.88.51,2.61.39,2.23,1.92-.45,1.79-2.03.89-3.2.8Z"/>
      <path class="cls-41" d="M62.05,55.26c.32,1.6.65,3.21.97,4.81-1.79,4.02-4.9,2.83-7.91,2-2.88-.13-5.81.6-8.66-.36-.16-.16-.31-.32-.47-.48,1.34-2.42,1.44-6.87,6.15-3.73,2.69-3.49,7,.21,9.92-2.25Z"/>
      <path class="cls-68" d="M35.16,69.2c-.72-.35-1.45-.69-2.17-1.04.47-1.57,1.92-2.09,3.12-2.88.42-2.74,2.6-5.09,1.79-8.1,1.63.73,3.34,1.09,5.13,1.01.97,2.16.5,4.3-.08,6.45-.24.71-.39,1.45-.87,2.06-2.02,1.62-4.53,1.91-6.92,2.5Z"/>
      <path class="cls-54" d="M40.99,64.22c-.3-2.34.9-4.18,2.04-6.03.33-.34.66-.67,1-1.01-.31-.2-.41-.4-.31-.61.1-.21.2-.31.3-.31,1.37,1.37-.15,3.9,1.97,4.97,0,0-.02-.02-.02-.02,3.47,1.55,3.9,4.5,3.62,7.8-2.27,2.31-4.06,1.2-5.82-.74-1.12-1.23-1.48-2.96-2.77-4.05Z"/>
      <path class="cls-49" d="M44.01,56.26c0,.31,0,.61.01.92-1.42-2.58-5.06-4.7-1.73-8.51,1.64,2.43,1.7,5.01,1.72,7.59Z"/>
      <path class="cls-77" d="M34.92,52.34c-1.26-.33-2.29-.99-3.02-2.09,1.35-.67,2.62-1.44,2.98-3.07.41-.96,1.11-1.3,2.11-.98,1.69,2.85-1.9,3.92-2.07,6.15Z"/>
      <path class="cls-9" d="M59,47.36c.33-.73.66-1.45.99-2.18,0,0-.02-.03-.02-.03.33.38.69.75,1.08,1.08,0,0-.04-.05-.04-.05-.67.39-1.34.79-2,1.18Z"/>
      <path class="cls-8" d="M83.96,66.36c0,.28.02.56.04.83-.38,1.41-1.29,2.43-2.71,2.55-3.6.32-7.25-.35-10.54-1.39-3.02-.95-2.39-3.86-.74-6.19,0,0,.02-.02.02-.02,3.43.31,7.16-.88,10.04,2.07.83,1.55,2.38,1.81,3.89,2.14Z"/>
      <path class="cls-80" d="M70.01,62.17c.48,1,1.92,1.82,1.39,2.97-.85,1.85-.12,2.31,1.31,1.61,2.63-1.27,4.79-1.93,7.09.81.72.86,2.82.35,4.2-.37.33.66.66,1.32,1,1.98-.76,2.74-1.03,5.94-5.07,5.72-1.88,1.34.11,3.38-1.08,5.17-1.98,2.99-3.99,5.33-7.81,5.4-.74-.06-1.45-.29-2.17-.45-1.02-.3-1.76-.93-2.22-1.88-.97-3.06-3.13-4.94-6.03-6.11-1.34-.09-2.25-.79-2.84-1.95-2.09-3.38,1.98-5.39,1.85-8.35.11-.48.31-.92.61-1.32.74-.77,1.8-.8,2.71-1.17,2.34-.72,4.43-2.31,7.05-2.06Z"/>
      <path class="cls-48" d="M62.96,64.23c-.63.63-1.26,1.25-1.88,1.88-1.48.62-2.94.07-4.34-.22-3.96-.81-4.23-1.88-1.66-5.63,2.66.22,5.35,2.02,7.95-.19.63,1.39-1.53,2.75-.07,4.15Z"/>
      <path class="cls-22" d="M61.04,46.23c-.36-.36-.72-.72-1.08-1.08.36.36.72.72,1.08,1.08Z"/>
      <path class="cls-43" d="M87.01,91.13c.46,3.36,3.38,6.45,1.09,10.1-1.33,3.38-4.09,4.27-7.38,4.24-1.09-.22-1.77-1-2.46-1.76-.53-.89-.61-1.84-.33-2.82.87-1.67-.4-2.68-1.2-3.84-.63-1.25-.76-2.65-1.24-3.95-.68-4.51,1.93-6.34,7.18-4.95,1.76.47,3.48,1.14,4.35,2.98Z"/>
      <path class="cls-20" d="M87.01,91.13c-2.74-.11-5.33-1.13-8.16-1.06-3,.07-2.09,1.59-1.8,3.13-.47,2.32-2.05,2.77-4.03,2.22-1.92-.54-3.06-1.93-3.08-3.93-.02-2.02.28-4.03,1.31-5.85,2.66-2.1,6.92.58,9.09-3.03,1.7-.89,3.22-.63,3.96,1.18.56,1.34,1.4,2.05,2.7,2.4.36,1.65.83,3.29.01,4.94Z"/>
      <path class="cls-60" d="M86.99,86.19c-3.41,1.79-3.81-2.51-6.1-3.01-1.07.63-1.98.37-2.36-.76-.65-1.94.54-3.09,2.02-4.04,5.84-4.52,5.93-4.53,9.5-1.02.32,1.24.63,2.48.95,3.72.71,1.92.31,3.13-1.99,3.12-.54-.63-1.14-1.5-2.01-.77-.95.79-.31,1.83,0,2.76Z"/>
      <path class="cls-31" d="M81,104.17c2.24-1.29,4.43-2.68,7.1-2.94,1.13,1.12,1.73,2.36.9,3.92-.24,1.86-.76,3.61-2.06,5.04-.35-.01-.69-.02-1.04-.03-.63-.32-1.26-.63-1.88-.95-2.74-.64-4.53-1.85-3.02-5.04Z"/>
      <path class="cls-26" d="M89.01,84.2c.66-1.04,1.33-2.08,1.99-3.12,1.74.08,3.79-3.2,5.17.28.74,1.87-.08,3.18-2.36,3.19-.61,0-1.22.38-1.83.59-1.13.14-2.37.62-2.97-.94Z"/>
      <path class="cls-52" d="M94,96.17c1.09-.89,2.17-2.29,3.71-1.05,1.41,1.14.33,2.68.2,4.04-.64.98-1.27,1.96-1.91,2.94-2.66-1.3-1.96-3.74-2-5.93Z"/>
      <path class="cls-11" d="M94.01,91.18c.09-1.97,1.08-3.32,3.26-4.32.32,3.04-.86,4.97-3.27,6.32,0-.66,0-1.33.01-1.99Z"/>
      <path class="cls-66" d="M86.94,110.19c-.88-2.32.16-3.85,2.06-5.04,2.15,2.84,2.02,4.74-2.06,5.04Z"/>
      <path class="cls-73" d="M102,91.18c-4.22-2.36-3.64-6.16-3.01-9.98,1.73,3.11,2.13,6.62,3.01,9.98Z"/>
      <path class="cls-58" d="M14.94,94.01l-.22-.37s.25-.35.25-.35c0,.24,0,.48-.03.72Z"/>
      <path class="cls-78" d="M56.04,90.18c-1.6.33-5.19-3.38-4.4,2.14.02.13-2.34.59-3.59.9-3.05-.45-1.97-3.43-3.09-5.06-2.02-.96-4.05-1.92-6.07-2.87-.53-2.93.74-4.88,3.45-5.78,1.33-.44,2.23-1.35,3.3-2.11,5.53.04,9.06,3.19,11.79,7.61.31.95.05,1.91.02,2.86-.05.48-.16.95-.34,1.39-.15.19-.3.38-.45.57-.21.12-.42.23-.63.35Z"/>
      <path class="cls-14" d="M46,78.15c-.2,4.54-5.51,3.98-7.11,7.13-2.16,0-3.8-3.38-6.49-.85-.49.46-.94-1.45-1.42-2.25-.14-.96-.26-1.93-.42-2.89-.26-1.58.21-3.16,1.35-3.98,1.23-.89,2.26.79,3.42,1.21,1.65.6,3.42,3.71,4.63-.41,2.91-1.97,4.99-1.5,6.03,2.05Z"/>
      <path class="cls-6" d="M44.96,88.16c3,.48,2.51,3.1,3.09,5.06,0,0,0-.02,0-.02-1.64,2.61-4.2,2.52-6.79,2.32-2.18,1-4.14-1.85-6.35-.36-.96,0-1.91,0-2.87,0-2.17-3.16-3.66-5.64,2.46-5.54,2.7.04,5.34-2.7,8.22.12.58.57,1.65-.76,2.26-1.55Z"/>
      <path class="cls-37" d="M46,78.15c-2.01-.68-4.02-1.36-6.03-2.04-.33-.57-.65-1.15-.98-1.72.89-1.07,1.31-2.36.72-3.61-.98-2.07.07-3.44,1.27-4.85,0-.57,0-1.15,0-1.72,3.17.25,4.37,4.44,7.9,3.97,1.43-3.17,3.76-3.63,6.7-2.23,2.29,2.22-.21,6.45,3.39,8.14.97.36,1.94.72,2.91,1.08,2.99,1.06,1.63,5.08,4.34,6.33.45,2.46,1.13,4.39,3.83,1.65.31.33.62.66.94,1,.87.45,1.68.92,1.04,2.12.48,7.29.73,7.63,5,6.91,1.08.76,1.79,1.64.92,3-.75,2.21,2.29,2.86,2.02,4.87-.32.72-.63,1.44-.95,2.16.64,1.26.51,2.1-1.15,2.1-1.29-1.5-4,.31-4.89-2.11-1.2-1.58-3.13-2.33-4.77-2.18-4.33.41-5.91-1.57-6.01-5.52,0-.43-.57-.75-1-1.01-1.36-1.18-3.61-1.35-4.07-3.56-.12-1.84-.03-3.77-2.11-4.75-.19-.62.2-1.97-1.2-1.16-.82.48-2.19.33-2.1.09,2.16-5.76-5.46-3.38-5.74-6.98Z"/>
      <path class="cls-14" d="M40.98,65.94c-.56,2.84,3.29,6.72-1.99,8.45-.83-2.06-2.31-3.64-3.84-5.19,1.14-2.53,3.43-2.99,5.83-3.26Z"/>
      <path class="cls-45" d="M90.05,77.36c-4.02-2.85-5.11,2.62-8.05,2.83-2.26-1.76-3.95-3.77-3.01-6.92,2.86-.1,3.86-2.94,6-4.1,1,2.19,1.97,4.41,4.66,5.04.99.27,1.77.7,1.43,1.95-.34.4-.69.8-1.03,1.19Z"/>
      <path class="cls-62" d="M91.08,76.16c-.47-.65-.95-1.3-1.42-1.95.32-.71.87-1.4.92-2.13.1-1.45-1.1-3.36,1.73-3.48,2.71-.12,2.62,1.75,2.7,3.56-.06,2.56-2.04,3.24-3.93,4.01Z"/>
      <path class="cls-32" d="M77.88,105.33c.38-.7.76-1.4,1.15-2.1.66.31,1.31.63,1.97.94,1.01,1.68,2.01,3.36,3.02,5.04-2.03,4.04-4.01-.65-6.01-.04-.04-1.28-.08-2.56-.12-3.84Z"/>
      <path class="cls-6" d="M80.12,126.99c-.3-1.25-.6-2.49-.9-3.74,1.24-.41,2.49-.8,3.72-1.24,1.06-.38,2.22-1.19,3.03.22.38.66.69,1.95.35,2.32-.95,1.02-1.49-1.02-2.42-.68-.72.26-1.34.82-2,1.25-.59.62-1.19,1.24-1.78,1.86Z"/>
      <path class="cls-52" d="M61.81,93.11c.94.26,1.87.61,2.82.78,2.38.42,4.05.96.75,2.83-.61.35-1.14.76-.94,1.5.28,1.08,1.11.93,1.97.76,3.52-.68,5.63.91,6.59,4.24-4.32-.13-8.77.28-12.25-3.12-.46-1.05-.81-2.15-1.4-3.15-1.7-2.9-.45-3.9,2.46-3.84Z"/>
      <path class="cls-55" d="M61.81,93.11c-3,1.93-.02,4.77-1.06,6.99-1.87-1.35-3.26-3.39-5.68-3.92-.64-2.16.14-4.09.97-6.01,0,0-.05.04-.05.04.69-.63,1.33-.63,1.93.12,1.3.92,2.59,1.85,3.89,2.77Z"/>
      <path class="cls-77" d="M41.01,93.16c2.35-1.35,4.68,1.6,7.03.03.03,2.88-.94,5.5-2.02,8.11-.67-.05-1.35-.1-2.02-.15-.95-.45-1.17-1.45-1.71-2.21-1.25-1.74-2.02-3.59-1.29-5.78Z"/>
      <path class="cls-21" d="M44.03,98.31c0,.95-.01,1.89-.02,2.84-.66.34-1.33.68-1.99,1.02-.25-3.07-3.47-3.24-4.97-5.09,2.44-3.58,4.03-3.29,6.97,1.24Z"/>
      <path class="cls-66" d="M44.03,98.31c-2.14-1.48-4-4.46-6.97-1.24-.42-.98-1.15-1.6-2.15-1.92.78-1.84,1.38-4.09,3.86-1.33.23.25,1.48-.42,2.25-.66.25,2.16,5.87,1.18,3.02,5.15Z"/>
      <path class="cls-31" d="M55.02,67.22c-2.19-.59-3.99,1.23-6.13.97-2.68-1.61-3.17-4.14-2.93-6.98,2.92-1.46,5.95-1.77,9.11-.95-1.23,5.27,4.38,3.51,6,5.84,0,0-.06.06-.06.06-1.6,2.63-3.27,4.84-5.99,1.05Z"/>
      <path class="cls-72" d="M78.99,73.27c1,2.31,2,4.61,3.01,6.92-1.46.6-3.78.87-1.1,2.99.06,3.17-.6,5.35-4.58,3.82-1.32-.51-2.85-.49-4.28-.72-.35-.7-.69-1.41-1.04-2.11,1.69-1.47,4.16-1.78,5.45-3.93,1.22-2.04,1.41-2.08-1.25-3.05-1.5-.55-.98-1.5-.75-2.3.74-2.56,2.44-2.74,4.55-1.62Z"/>
      <path class="cls-20" d="M55.02,67.22c2.26,1.18,4.07-.23,5.99-1.05.16,1.59,1.59,2.32,2.49,3.52-1.52,1.51-4.59,1.4-4.52,4.41-4.99,1.14-5.73.4-4.41-4.44.22-.8.31-1.63.45-2.45Z"/>
      <path class="cls-41" d="M65.01,82.17c-4.4-.83-1.92-4.73-3.11-6.99,2.99-.74,3.66,3.8,6.93,3.09.51-.11-.87,2.46-.8,3.9-1.01.87-2.01.81-3.02,0Z"/>
      <path class="cls-41" d="M65.01,82.17c1.01,0,2.01,0,3.02,0,.68.33,1.35.66,2.03,1-.08,3.83-2.25,5.14-5.75,4.91.24-2.04.47-3.97.7-5.91Z"/>
      <path class="cls-20" d="M79.98,101.07c-1.4-1.32-5.15-1.67-2.02-4.87,1.13,1.25,2.84.55,4.18,1.22.26,1.82-1.57,2.38-2.16,3.66Z"/>
      <path class="cls-12" d="M57.92,90.34c-.64-.04-1.29-.08-1.93-.12.03-.3.03-.61.02-.91.31-.21.42-.49.31-.85-.08-.25-.19-.36-.31-.36-.32-.63-.64-1.26-.97-1.88,2.21.51,3.45,1.68,2.88,4.13Z"/>
      <path class="cls-39" d="M56.01,88.1c.65.4.63.81,0,1.21,0-.4,0-.81,0-1.21Z"/>
      <path class="cls-71" d="M51.43,74c-.29,1.5-1.35,2.08-2.78,2.07-2.3-.02-1.23-1.83-1.37-2.88-.17-1.29.42-2.26,1.95-2.03,1.55.23,2.04,1.4,2.21,2.83Z"/>
    </g>
  </g>
</svg>