<?xml version="1.0" encoding="UTF-8"?>
<svg id="Layer_2" xmlns="http://www.w3.org/2000/svg" viewBox="0 0 137.1 87.34">
  <defs>
    <style>
      .cls-1 {
        fill: #a8bd8a;
      }

      .cls-2 {
        fill: #a6bc88;
      }

      .cls-3 {
        fill: #a9be8c;
      }

      .cls-4 {
        fill: #c3d2b0;
      }

      .cls-5 {
        fill: #53633f;
      }

      .cls-6 {
        fill: #35481d;
      }

      .cls-7 {
        fill: #8aa764;
      }

      .cls-8 {
        fill: #60783e;
      }

      .cls-9 {
        fill: #719245;
      }

      .cls-10 {
        fill: #9ab379;
      }

      .cls-11 {
        fill: #aec293;
      }

      .cls-12 {
        fill: #506b2b;
      }

      .cls-13 {
        fill: #758a58;
      }

      .cls-14 {
        fill: #668a37;
      }

      .cls-15 {
        fill: #4d5e38;
      }

      .cls-16 {
        fill: #597236;
      }

      .cls-17 {
        fill: #b2c597;
      }

      .cls-18 {
        fill: #5e773c;
      }

      .cls-19 {
        fill: #617a40;
      }

      .cls-20 {
        fill: #6c834d;
      }

      .cls-21 {
        fill: #78984f;
      }

      .cls-22 {
        fill: #88a561;
      }

      .cls-23 {
        fill: #738955;
      }
    </style>
  </defs>
  <g id="Layer_2-2" data-name="Layer_2">
    <g>
      <path class="cls-7" d="M96.03,3.2c2.16.18,4.21.74,6.05,1.94.49,2.62-.09,4.69-3.03,5.25-2.24.42-3.35,2.74-5.57,3.11-2.68-.66-5.14.38-7.64,1.04-1.04.03-2.13-.09-2.61,1.16.39,2.85.69,5.66-1.22,8.14-2.32,3.09-5.32-.88-7.06.79,2.43-.52,3.8.98,4.01,4.01.14,2-.41,3.92-.5,5.9-.06,1.45-.34,2.06,1.55,2.7,2.88.97,1.26,3.12.31,4.84-4.56,4.63-5.78,4.75-10.73,1.04-1.44-1.08-3.25-1.59-4.46-2.95-.62,1.77-.22,4.43-2.96,4.4-2.23-.02-3.32-1.88-3.79-3.97-.18-.81-.57-1.55-.73-2.37-.08-.7-.06-1.4.11-2.08.48-1.33,2.72-2.4.82-4.09-1.64-1.45-2.93-.53-3.95,1-.85,1.34-1.77,2.63-2.42,4.08-1.99,3.72-4.97,4.99-9.03,3.66-5.78-1.89-5.79-1.87-7.5,3.67-.32.37-.72.64-1.17.84q-6.06.68-9.16-.46c1.54,4.57-.51,6.89-4.81,7.8-2.39.07-4.76.23-6.62,2.06-.41.21-.85.31-1.32.32-.67-.12-1.2-.5-1.68-.95.05.12.16.2.25.28,1.82,1.59,2.36,3.49.05,4.8-2.52,1.43-5.3,1.71-7.54-.88-1.06-1.23-1.11-3.12-2.66-4.03-1.61-3.19-.8-6.6-.9-9.93,2.05-1.1,3.92-2.04,4.13-4.99.25-3.54,3.4-4.56,6.3-4.93,5.12-.65,8.47-3.4,12.17-6.94,3.66-3.5,9.25-5.22,14.67-5.6,1.04-.07,1.45.53,2.58-.68,2.1-2.23,3.56.15,4.66,1.61-.59-.88-1.45-1.85-2.34-2.82-1.25-1.34-.43-2.51.99-3.09,1.96-.8,4.67,1.7,6.18-1.45,1.04-2.16,3.74-1.99,5.25-3.54-1.42,1.54-3.94,1.34-5.11,3.26-.98,1.61-2.26,2.76-3.99,1.27-1.77-1.53-1.75-3.66-.31-5.37,1.82-2.16,4.13-3.87,6.76-4.97,4.85-2.04,9.15-5.53,15.29-2.71,3.68,1.69,7.8-1.69,11.98-1.84,2.26-.08,3.79-.37,6.15.79,2.99,1.47,6.98.81,10.55.88Z"/>
      <path class="cls-12" d="M130.88,66.15c-4.51,7.11-11.36,11.32-18.99,13.85-29.53,9.77-59.07,10.21-88.35-1.23-2.3-.9-4.39-2.33-6.57-3.51.31-1.59-.61-3.1-.29-4.69,2.65-3.9,3.7-4.13,6.76-1.25,1.1,1.03,2.19,2.09,3.54,2.72,2.22,1.03,4.16,1.86,5.43-1.64,1.53-4.23,4.98-3.62,8.35-2.27,1.37.4,2.73-.06,4.1-.01.46.13.86.35,1.21.66,1.13,1.52,2.51,2.57,4.53,2.4,2.69-.22,4.33,1.03,5.21,3.93,2.59-2.65,6.01-3.05,9.23-3.95.38-.15.78-.22,1.16-.28.56-.18,1.09-.41,1.52-.88,2.01-2.61,4.45-1.72,6.89-.92,3.59,1.23,4.23-4.04,7.54-3.43,1.18.15,2.15.82,3.22,1.25,1.25.83,2.42,1.7,2.18,3.54.38-3.18,1.89-5.02,5.3-4.6,1.33-.16,2.49-.77,3.62-1.45,3.98-.98,4.57,2.23,5.73,4.43.09-2.67,1.93-3.69,4.45-4.01.34-.07.69-.1,1.02-.15,1.92-.99,2.29-3.3,3.85-4.6,4.72-.78,9.33.75,14.03.63,3.28.35,5.18,2.05,5.33,5.46Z"/>
      <path class="cls-13" d="M93.01,12.26c1.09-2.63,1.68-5.7,5.88-4.57,1.66.45,2.25-1.51,3.19-2.55,5.44,2.45,11.33,4.02,15.98,8.04.51,3.82,2.05,7.77-1.5,11.11,2.5-1.37,4.54-3.38,7.56-3.07,3.32,2.59,4.93,9.55,3.27,14.05-.55.62-1.08,1.28-1.88,1.59-2.83,1.11-3.81,3.21-5.32,5.91-2.15,3.85-4.08,7.98-6.49,11.68-2.94,4.51-8.59,4.15-13.46,4.78-1.88-.73-3.64-1.6-4.63-3.5-.32-4-2.78-7.14-4.34-10.65.21-.73.66-1.28,1.33-1.65,3.37-.25,5.36-4.16,9.09-3.46,1.25.51,1.66,1.88,2.89,2.84.25.27.29-.23-.03-.27-1.19-.15-1.23-1.78-2.34-2.19-3.95-1.9-5.84,2.89-9.22,2.83-1.74.1-2.97-.62-3.07-2.41-.11-1.89.52-3.92,2.32-4.51,2.38-.77,4.11-2.81,6.6-3.05-.08,0,.04,0-.04,0-3.51,1.14-6.43,4.1-10.53,2.95-2.61-2.24-1.76-5.06-1.31-7.81.08-.14.15-.29.26-.41,2.69-2.84,7.31-4.65,5.35-9.99.41-1.58-.42-3.07-.32-4.63.14-.44.39-.81.77-1.08Z"/>
      <path class="cls-11" d="M96.03,3.2c-.94.33-1.87.73-2.83.97q-6.67,1.61-9.72,4.99c-1.21-1.15.19-2.1.24-3.14.07-1.5.45-3.43-1.12-4.01-1.63-.6-1.94,1.37-2.52,2.49-.86,1.65-1.67,2.99-2.66.07-.09-.26-.46-.43-.7-.63-2.25,3.8-7.13.91-9.52,3.64-1.01,1.16-1.35.82-2.22.44-.97-.42-2.01-.89-1.16-2.13,1.85-2.7-.7-2.17-1.43-1.63-4.15,3.03-9.81,3.02-13.55,6.87-1.15,1.18-2.85,1.89-1.85,4.53,3.43-2.83,6.62-6.33,11.59-4.63,1.41.48,2.27,1.39,1.58,3.29-3.89-3.42-6.27,1.24-9.31,2.06-2.17.58-4.43,1.78-7.68,2.14,4.06,2.13,8.11,3.8,5.55,8.97-.44.9-.79,1.97-1.9,2.13-1.25.17-1.59-1.03-2.09-1.84-1.15-1.88-1.4-4.42-3.86-5.42-1.62,2.07.96,3.36.77,6.59-3.67-7.61-7.79-3.13-11.83-2.2-2.32.53-.46,2.08-1,2.91-2.18.32-1.05-2.98-2.77-2.59-1.74.4-1.1,2.07-.94,3.33-4.44.24-5.18,7.34-11.21,5.59-2.12-.62-7.24-.88-6.66,5.14.35,3.63-4.06,5.3-7.1,3.19.65-3.02,1.3-6.03,1.94-9.05,3.81-4.51,10.2-6.52,11.55-13.61.7-3.66,4.93-5.78,8.29-7.74.54-.32,1.66.25,2.15-.61,2.88-5.04,8.83-5.09,12.98-8.05C50.87.92,65.06-.71,79.52.28c5.59.38,11.26.5,16.51,2.93Z"/>
      <path class="cls-19" d="M41.03,70.24c-2.18,2.1-3.77.54-5.22-1.23-.46.54-.86.8-.84,1.02.25,2.42,1.09,6.07-1.1,6.67-2.77.76-6.26-.52-8.97-2.26-1.34-.86-2.53-2.19-3.36-3.56-1.59-2.62-2.48-1.12-3.51.34-3.67,3.52-5.46-1.22-8.19-1.85-5-3.85-7.6-9.09-8.82-15.14,1.46-1.82,1.95-.06,2.35.79.93,1.94,2.39,2.62,4.42,2.46,1.07-.08,2.46.82,3.07-.66.44-1.05-.61-1.79-1.16-2.58-1.34-1.92-3.35-3.95.4-5.38.99-.38,2.71-.56,1.25,1.48-1.58,2.22.56,2.81,1.66,3.86,2.3,1.22,6.36-1.03,6.97,3.53-.08.47-.28.9-.56,1.29-.49.74-2.36.65-1.75,1.82.64,1.23,2.34.65,3.58.83.44.03.89.05,1.33.05,2.95.27,5.08-1.17,6.9-3.29.43-.19.88-.26,1.35-.25,2.87.47,2.27,4.97,5.65,4.84,1.25.51,2.28-.05,3.08-.85,2-2.01,4.12-2.43,6.42-.66,1.6,1.23,3.13-.32,4.69.05.51.16.92.46,1.24.89.36.75.28,1.48.24,2.31-.31,6.38-1.19,6.96-7.16,4.44h0c-1.69-1.09-2.76.26-3.97,1.02Z"/>
      <path class="cls-4" d="M37.02,5.25c-1.58,4.16-6.5,2.74-9.14,5.36.57,2.2,2.81.41,3.68,1.6-1.34,3.41-8.76-.2-7.03,6.42-1.86-.38-.74-3.45-2.86-2.95-1.57.38-1.15,2.16-1.24,3.44-.06.89-.41,1.88-1.34,1.79-5.18-.51-3.98,3.03-3.81,5.88.11,1.94-.21,2.97-2.53,3.76-3.65,1.24-6.52,4.44-10.68,4.7,6.38-13.69,16.19-23.75,30.65-28.86,1.4-.49,2.87-.77,4.31-1.15Z"/>
      <path class="cls-15" d="M130.88,66.15c-2-1.25-5.69.02-5.88-3.94-.67-.5-1.27-1.07-1.56-1.86-.54-1.46-.55-3.36.21-4.3,3.87-4.77.65-12.5,6.9-16.15.86-.5,1.75-.93,2.8-.7,2.51.92,2.51,3.02,2.68,5.23.29,3.92-.79,7.79-.19,11.7-.66,3.83-2.49,7.09-4.96,10.02Z"/>
      <path class="cls-16" d="M123.96,22.25c-1.74,2.19-3.9,4.1-4.29,7.14-1.97-.78-.79-2.68-2.07-3.53-2.01.87-.16,4.41-4.27,4.88,4.47-5.55-.11-12.5,4.72-17.55,2.48,2.13,5.69,3.49,7.06,6.78.52,1.22-.07,1.88-1.15,2.29Z"/>
      <path class="cls-6" d="M135.84,56.13c-1.57-1.63-1.25-3.56-1.07-5.58.31-3.57.95-7.27-1.81-10.33-.75-.51-1.76-.67-2.22-1.59-1.48-3.86-3.47-7.56-3.5-11.86,0-1.28-.44-2.7,1.68-2.46,7.5,9.48,9.93,20.07,6.92,31.83Z"/>
      <path class="cls-5" d="M128.92,24.3c-.25,4.92,3,9.07,3.07,13.92-4.12,1.82-5.67.79-6.01-3.99-.05-4.1.09-8.23-2.02-11.98.38-.76.77-1.52,1.15-2.29,1.27,1.44,2.54,2.89,3.81,4.33Z"/>
      <path class="cls-15" d="M9.84,69.38c2.73.62,5.46,1.24,8.19,1.85,3.34,2.33.28,2.95-1.07,4.03-2.81-1.43-5.16-3.42-7.12-5.88Z"/>
      <path class="cls-14" d="M74.99,71.24c-2.18-.81-4.4-1.87-5.98.98-1,.82-2,.81-3.01,0h0c-4.04-1.6-2.21-4.91-2.22-7.68,1.82-1.07-.35-3.57,1.57-4.58-.05.01.41.12.41.12,0,0-.14-.05-.19-.08-2.13.85-.2,3.11-1.53,4.24-.51,3.52-1.74,6.19-6.06,6.05-2.68-.09-5.16-.39-5.73-3.45-.59-3.18,1.06-4.98,4.12-5.23-1.8-.63-3.35,1.73-5.37.61h0c-10.34-2.11-14.22-6.48-15.98-18-.28-1.18-.92-2.09-1.93-2.8-1.68-1.19-1.6-3,.05-3.53,3.2-1.01,6.36-4.53,10.04-.29,2.9,3.35,5.3-.17,7.8-1.36,1.02-1.17,2.39-2.16,2.03-4.03.73-2.07,1.89-4.33,4.1-4.31,1.96.02,3.01,2.35,3.95,4.1,1.24,2.3.58,3.79-2.08,4.24-.67.67-.79,1.34.03,1.99,3.19-.22,1.07,3.54,3.4,4.19,1.47-1.92.01-5.11,2.51-6.95,1.61,4.25,6.08,4.86,8.98,7.46,2.01,1.8,3.37-1.1,5.09-1.72,2.83-1.27,5.8-4.63,8.2.54.2,1.26-.54,2.13-1.19,3.09-.78,1.15-3.54,1-2.72,2.83,1.35,3.03-.69,7.14,3.09,9.28,3,4.17,2.37,9.2-1.39,11.28-1-.35-2-.7-2.99-1.05-1.8.36-5.22-1.88-4.26,2.93.29,1.43-1.24,2.14-2.75,1.11Z"/>
      <path class="cls-14" d="M36.01,65.21c-5,.78-3.11-4.18-4.99-5.99-2.3-1.87-3.52.46-5.12,1.32-3.12,1.67-5.72,1.84-6.87-2.31-1.07-2.73-5.5-.43-6-4.01,0,0,0,0,0,0,1.45-3.07,4.71-1.91,7-3,3.51-1.92,4.74-4.63,2.11-7.98-1.18-1.5-.59-1.88.55-2.52,1.19-.67,2.15-1.67,2.46.94.08.71,2.42,2.82,4.75.99,1.6-1.26,2.85.73,4.13,1.6,3.33,1.88,1.01,5.66,2.71,8.21.46.69.52,1.98,1.12,2.98,2.9,4.84,2.65,5.87-1.84,9.77Z"/>
      <path class="cls-9" d="M94.02,18.28c.34,1.6.59,3.23,1.05,4.8.44,1.52,2.2,2.43,2.21,4.25-2.21,1.28-2.58-3.59-4.85-1.29-1.76,1.79,1.2,3.1.75,5-1.85-1-3.52-1.9-5.18-2.81-.78.76-1.59,1.44-2.79,1.34-3.44-.76-5.2-2.63-4.21-6.33-2.02-2.67,1.55-5.34,0-8.01.26-2.43,3.55-.82,4.01-2.99,2.67-1.06,5.34-1.53,8.01.02,0,.32,0,.64,0,.96.58,1.64.44,3.42,1.02,5.06Z"/>
      <path class="cls-23" d="M81,23.24c1.35,1.68,2.7,3.37,4.05,5.05,2.94,1.82,2.4,5.02,3.07,7.74,1.06,1.44,1.86,2.94.89,4.76-.77.98-1.44,2.15-3.02,1.42-1.96-2.99-4.79.24-6.99-.98.34-1.34,1.53-3.19-1.54-2.39-1.47.38-3.03.55-4.13-.8-.6-.73-1.15-1.68.21-2.4,3.3-1.73,3.5-7.8.66-10.19-1.75-1.47-3.87-2.94-4.02-6.18,3.07,3.17,6.43,5.19,10.81,3.96Z"/>
      <path class="cls-20" d="M36.01,65.21c-.59-1.86-.77-3.56,1.82-4.03-1.1-1.58-3.49-.31-3.82-2.22-.27-1.54,1.84-1.05,2.47-2.28-1.72-1.64-4.81-.71-6.45-3.36,1.82-.4,3.46-.75,6.75-1.47-8.26-1.65-1.48-5.17-2.75-7.6.33,0,.67-.01,1-.02,1.44.02,3.83-1.14,3.16,1.92-.85,3.9,1.33,5.72,3.79,8.32,2.8,2.96,6.73,4.4,9.03,7.77-2.04,1.53-3.3,4.56-6.81,1.18-2.46-2.37-5.16,2.13-8.18,1.8Z"/>
      <path class="cls-17" d="M85,12.24c-.4,2.25-1.28,3.86-4.01,2.99-1.35.17-2.83.4-2.14-1.78.37-1.16.71-2.86,2.51-1.87,1.22.67,2.34.91,3.64.66Z"/>
      <path class="cls-11" d="M35.96,25.02c3.38,3.89,1.02,5.61,0,7.12-.86,1.27-2.1-.68-4.32-1.06,2.97-.98,4.56-2.36,4.32-6.06Z"/>
      <path class="cls-19" d="M20.02,51.23c-.16.75.76,2.53-.88,1.95-2.43-.86-4.1.68-6.12,1.05.37-5.59,4.09-3.34,7-3Z"/>
      <path class="cls-2" d="M53.01,32.22c1.16-.47,2.32-.94,3.48-1.41-1.83,1.95-2.4,5.09-5.51,5.45.09-1.64.91-2.91,2.03-4.03Z"/>
      <path class="cls-1" d="M59.02,38.24c-2.19,2.48-2.36-.7-3.32-1.31-1.04-.66-.55-1.7.41-2.29,1.88-1.16,1.52,1.78,2.88,1.62.01.66.02,1.33.03,1.99Z"/>
      <path class="cls-18" d="M125.99,34.23c2.46.64,3.25,3.8,6.01,3.99.32.67.65,1.33.97,2-2.67,1.89-1.28,6.65-5.33,7.57,1.32,1.98,2.64,3.96,4.11,6.17-6.53-.83-5.31,4.75-6.75,8.25-4.67,4.05-8.79.83-13.01-.99-1.37,1.65-2.9,3.16-4.01,5.01-.33,0-.65,0-.98,0-6.22-.57-8.24-3.59-6-8.98,3.25.98,2.27-1.03,1.91-2.67-.25-1.12-1.68-2.63.57-3.14,1.7-.38,2.92.3,2.81,2.38-.05.94-.36,2.17,1.02,2.41.92.16,1.23-1.05,1.88-1.35,4.55-2.1,3.34-6.09,3.28-9.68-.03-1.85-.37-4.05,1.76-4.68,2.74-.81,1.7,2.75,3.32,3.35q.61-5.57-2.96-8.07c4.1,1.17,7.7-.49,11.4-1.56Z"/>
      <path class="cls-20" d="M101,57.24c1.97,3.02,1.75,7.49,6,8.98-.44,1.77-6.79,1.63-1.77,5.37.14.11-1.39,2.56-2.26,3.83-.18.26-1,.32-1.37.15-1.82-.82-.24-1.88-.16-2.87.06-.78,0-2.26-.13-2.28-2.61-.26-3.08-2.62-4.3-4.21-1.72.28-3.47.53-3.01,3-1.96-.12-4.39-2.26-4.72,2.32-.16,2.29-4.72.97-6.13,3.81-1-3.19,4.66-3.83,1.84-7.1-.53-2.52-1.43-5.03.98-7.25.64-.59-.21-1.41-.98-1.78-1.62-1.57-2.56-3.64-2.16-5.72.38-1.96,3.54-1.62,4.12-3.82,1.26-1.92,2.26-3.95,5.38-3.13,3.02.79,3.41,2.83,3.19,5.21-.19,2.08,1.61,1.71,2.47,2.48,1,1,2,2.01,3.01,3.01Z"/>
      <path class="cls-20" d="M51,62.23c1.56-2.39,6.48-1.87,5.17-6.75,4.09,3.56,3.81,6.41-.5,8.45-1.08.51-1.59,1.12-1.41,2.25.19,1.16.99,1.68,2.11,1.66,3.09-.05,5.93-.65,7.62-3.64h0c1.01,2.58,2.89,4.95,1.99,8.01-3.64,3.98-9.41,3.72-13.93,7.28,3.32-4.98.73-6.07-3.19-6.38-2.4-.19-3.4-1.8-3.87-3.91,4.91.16,5.7-3.2,6-6.99Z"/>
      <path class="cls-20" d="M74.99,71.24c2.65-2.37-1.55-3.36-1.09-5.38.28-1.21-1.47-3.06.87-3.58,1.45-.32,3.36-.73,3.22,2.16-.13,2.63,2.94,1.42,4.01,2.76-1.31.58-1.66,1.79-2.19,2.98-1.06,2.4-2.68,3.13-4.82,1.06Z"/>
      <path class="cls-22" d="M94,69.21c-.31-1.44-.53-2.91-.97-4.31-.41-1.27-1.17-2.52.17-3.61.77-.63,1.53-.02,2.29.32,2.11.93,1.45,2,.3,3.22-.04.04.79.9,1.21,1.38-1,1-2,2-3.01,3Z"/>
      <path class="cls-20" d="M107.98,66.23c-.54-1.42-1.07-2.84-1.75-4.66,2.19.04,4.12,1.04,5.76-.35-.59,1.32-1.17,2.63-1.75,3.93.87.94,1.83-.87,2.84.4-1.53,1.69-3.19,1.84-5.1.67Z"/>
      <path class="cls-20" d="M41.03,70.24c-.32-2.02-.3-3.6,2.5-3.83,3.22-.26,1.13,1.82,1.48,2.82-1.33.34-2.65.68-3.98,1.01Z"/>
      <path class="cls-20" d="M66,72.23c1,0,2.01,0,3.01,0-.24,1.92-.36,3.88-2.14,5.3-1.91-1.72-.52-3.64-.87-5.29Z"/>
      <path class="cls-9" d="M87.99,40.22c-.31-1-.63-2.01-.94-3.01.48-.8,1-1.55,1.9-1.95,3.75-.77,6.17-6.41,11.05-3.02.58.66.62,1.33,0,2-2.18,1.35-4.44,2.58-6.5,4.08-1.36.99-3.25,2.27-.48,3.93.58.67.58,1.34-.03,1.99-.33.33-.66.66-.99.99-2.01,1.59-3.49,1.05-4.57-1.13-.46-1.39.67-2.54.56-3.88Z"/>
      <path class="cls-18" d="M88,43.19c1.11,1.11,2.34,2,4,2.04,4.51,1.33,4.24,5.84,6,8.99-1.93-.19-4.22.05-3.96-2.99.15-1.78.01-3.65-2.13-3.66-3.91-.02.9,2.31-.7,3.16-.53.28-.82.99-1.22,1.51-2.17.24-4.5,1.37-6.16-1.11-.88-1.31-1.48-3.22-.28-4.08,1.63-1.17,2.08-3.66,4.46-3.86Z"/>
      <path class="cls-18" d="M101.99,40.23c2.47,1.93,4.57.66,6.58-1.11q.96,4.16-7.64,5.15c-.34-1.54,2.71-2.29,1.07-4.04h0Z"/>
      <path class="cls-18" d="M92.99,44.24c0-.66.02-1.33.03-1.99,1.88-.35,2.87-2.01,4.35-2.9,1.58-.94,3.39-1.03,4.62.88,0,0,0,0,0,0-3.11,1.1-5.63,3.5-9,4.01Z"/>
      <path class="cls-18" d="M100,34.23c0-.67,0-1.33,0-2,1.65.1,2.57-1.3,3.98-2,.64,1.6.74,3.14.39,5.02-1.53-.36-2.94-.69-4.36-1.02Z"/>
      <path class="cls-3" d="M88.94,35.25c-.63.65-1.27,1.3-1.9,1.95.53-3.24-1.4-5.93-2-8.92.98-.02,1.96-.04,2.94-.05.32,2.34.63,4.68.95,7.02Z"/>
      <path class="cls-7" d="M94.02,18.28c-2.47-1.26-1.23-3.26-1.02-5.06.5.63,1.07,1.22,1.48,1.91.6,1.01,2.66-1.2,2.45,1.08-.14,1.55-1.59,1.86-2.91,2.08Z"/>
      <path class="cls-8" d="M19.02,58.22c2.34-.23,5.55,3.56,7.04-1.54.07-.24,4.31-.5,4.96,2.53-.32,0-.65,0-.97,0-1.89,2.93-5.2,3.58-8.02,5-.34,0-.67,0-1.01,0-.94-1.91-4.59-2.92-1.99-6h0Z"/>
      <path class="cls-21" d="M19.03,58.22c.66,2,1.33,4,1.99,6-2.81-1.29-5.63-2.58-8.44-3.86,2.43-.22,4.19-2.02,6.45-2.13Z"/>
      <path class="cls-14" d="M22.03,64.22c2.36-2.17,5.04-3.82,8.02-5-.77,4.29-5.11,4.24-7.7,6.32-.11-.44-.21-.88-.32-1.31Z"/>
      <path class="cls-7" d="M88,43.19c-.28.77-.46,1.61-.86,2.31q-3.03,5.37,2.85,6.74c-.29.17-.56.46-.86.48-4.36.28-5.91,2.33-4.13,6.5-3.46-1.24-3.55-4-3.1-6.96.23-1.57.47-3.12-1.61-3.51-.92-.17-2.13.32-2.06-1.29.06-1.32.9-2.12,2.03-2.61,1.93-.84,4.39-.55,5.75-2.64.66-.67,1.33-1.33,1.99-2,.7.99.46,1.98,0,2.98Z"/>
      <path class="cls-10" d="M70.82,46.17c-3.22.39-5.02,1.29-6.73-.28-.15-.14.09-1.05.38-1.26,1.87-1.28,3.38-.11,6.34,1.53Z"/>
      <path class="cls-20" d="M64.01,64.22c.06-1.25-.03-2.54.21-3.75.27-1.32,1-1.53,1.79-.26h0c-1.94,2.69,1.79,2.31,2.17,3.7-1.4,1.63-2.79.78-4.17.31,0,0,0,0,0,0Z"/>
      <path class="cls-20" d="M66.01,60.21c1.48-.92,2.11-3.53,4.64-2.39.72.33.92,1.03.5,1.59-1.42,1.87-3.22,1.9-5.15.81,0,0,0-.01,0-.01Z"/>
    </g>
  </g>
</svg>