<?xml version="1.0" encoding="UTF-8"?>
<svg id="Layer_2" xmlns="http://www.w3.org/2000/svg" viewBox="0 0 82.81 72.74">
  <defs>
    <style>
      .cls-1 {
        fill: #7d9c55;
      }

      .cls-2 {
        fill: #7a9951;
      }

      .cls-3 {
        fill: #a3ba85;
      }

      .cls-4 {
        fill: #729347;
      }

      .cls-5 {
        fill: #adc192;
      }

      .cls-6 {
        fill: #526c2d;
      }

      .cls-7 {
        fill: #556f31;
      }

      .cls-8 {
        fill: #aec294;
      }

      .cls-9 {
        fill: #85a15f;
      }

      .cls-10 {
        fill: #7b9a53;
      }

      .cls-11 {
        fill: #b2c598;
      }

      .cls-12 {
        fill: #8faa6a;
      }

      .cls-13 {
        fill: #a6bc88;
      }

      .cls-14 {
        fill: #a5bb87;
      }

      .cls-15 {
        fill: #6c8f3f;
      }

      .cls-16 {
        fill: #77974d;
      }

      .cls-17 {
        fill: #c3d2b0;
      }

      .cls-18 {
        fill: #ebf0e5;
      }

      .cls-19 {
        fill: #a2b984;
      }

      .cls-20 {
        fill: #86a361;
      }

      .cls-21 {
        fill: #acc090;
      }

      .cls-22 {
        fill: #abbf8f;
      }

      .cls-23 {
        fill: #829f5b;
      }

      .cls-24 {
        fill: #8ca866;
      }

      .cls-25 {
        fill: #35481d;
      }

      .cls-26 {
        fill: #637b42;
      }

      .cls-27 {
        fill: #83a05d;
      }

      .cls-28 {
        fill: #60783e;
      }

      .cls-29 {
        fill: #95af72;
      }

      .cls-30 {
        fill: #92ac71;
      }

      .cls-31 {
        fill: #677e47;
      }

      .cls-32 {
        fill: #91ab6f;
      }

      .cls-33 {
        fill: #719245;
      }

      .cls-34 {
        fill: #e3eadb;
      }

      .cls-35 {
        fill: #b3c59a;
      }

      .cls-36 {
        fill: #b5c79d;
      }

      .cls-37 {
        fill: #6e9041;
      }

      .cls-38 {
        fill: #9ab379;
      }

      .cls-39 {
        fill: #506b2b;
      }

      .cls-40 {
        fill: #b2c599;
      }

      .cls-41 {
        fill: #668a37;
      }

      .cls-42 {
        fill: #698c3b;
      }

      .cls-43 {
        fill: #bbcca5;
      }

      .cls-44 {
        fill: #8ca769;
      }

      .cls-45 {
        fill: #7e9d57;
      }

      .cls-46 {
        fill: #597236;
      }

      .cls-47 {
        fill: #92ac6e;
      }

      .cls-48 {
        fill: #9bb37a;
      }

      .cls-49 {
        fill: #a0b781;
      }

      .cls-50 {
        fill: #b4c69b;
      }

      .cls-51 {
        fill: #97b176;
      }

      .cls-52 {
        fill: #475831;
      }

      .cls-53 {
        fill: #c0cfab;
      }

      .cls-54 {
        fill: #c1d0ac;
      }

      .cls-55 {
        fill: #94ad73;
      }

      .cls-56 {
        fill: #8eaa69;
      }

      .cls-57 {
        fill: #b0c497;
      }

      .cls-58 {
        fill: #617a40;
      }

      .cls-59 {
        fill: #78984f;
      }

      .cls-60 {
        fill: #88a561;
      }

      .cls-61 {
        fill: #8ba667;
      }

      .cls-62 {
        fill: #89a663;
      }

      .cls-63 {
        fill: #75964b;
      }
    </style>
  </defs>
  <g id="Layer_2-2" data-name="Layer_2">
    <g>
      <path class="cls-35" d="M6.52,18.72c2.49-7.55,8.79-11.2,15.3-14.35,1.73-.84,3.59-1.44,5.18-2.62,2.43,1.04,6.11-.6,7.17,3.37.13,1.3-.22,2.49-.8,3.63-.36.72-.71,1.7-1.43,1.89-3.48.93-1.38,2.7-.74,4.27-.07,2.87-1.74,4.67-4.03,6.05-1.92.13-3.86.26-5.14,2.03-.53.53-1.16.83-1.9.93-2.83-.32-3.9-2.18-4.14-4.76-.17-1.92-.94-3.19-3.14-2.87-1.82.41-2.73,2.22-4.41,2.84-.71.18-1.35.07-1.92-.42Z"/>
      <path class="cls-60" d="M75.91,14.59c2.72,3.87,6.74,7.34,4,12.9,1.75,5.69-3.33,3.38-5.39,4.61-1.32.37-2.48,1.36-3.98,1.09-2.01.09-3.75-.72-5.47-1.61-1.35-.92-.86-2.61-1.62-3.78-.35-.79-.83-1.53-1.17-2.33-.41-.77-.84-1.54-.98-2.42-.08-.95.15-1.81.75-2.56,1.77-1.57,5.05.6,6.19-2.53.5-.75.91-1.54,1.28-2.36.24-.4.55-.73.93-1.01.42-.2.86-.33,1.33-.38.69-.05,1.39-.04,2.08.05.68.15,1.35.31,2.05.32Z"/>
      <path class="cls-3" d="M40.02,0c7.2,1.97,15.13.49,21.86,4.65-.56,2.13,1.15,3.14,2.16,4.52,1.25,1.71,2.13,3.58,1.74,5.8-.34.69-.9,1.17-1.52,1.59-2.63,1.59-4.53-1.12-6.88-1.15-.46-.06-.93-.11-1.39-.15-.69-.06-1.37-.16-2.07-.2-1.58-.16-3.24.41-4.73-.53-2.27-1.73-.71-5.33-3.37-6.86-.71-1.62-2.43-1.1-3.63-1.69-2.39-1.39-4.28-2.96-2.17-5.98Z"/>
      <path class="cls-63" d="M82.65,32.66c.28,7.25-2.64,13.52-6.5,19.29-1.06,1.59-1.66,3.53-3.12,4.86-.21-.04-.42-.08-.63-.12-1.44-.29-2.61.6-3.9.95-1.09.17-2.09-.02-2.98-.72-1.46-1.31-2.36-2.94-2.8-4.83.18-3.36,4.19-3.56,5.16-6.26.72-.63,1.59-1.03,2.37-1.58,2.43-1.28,4.17-3,3.86-6.05-.15-1.54.55-2.81,1.53-3.95,1.89-2.51,4.03-3.92,7.01-1.58Z"/>
      <path class="cls-21" d="M.83,44.65c.09-3.37-2.51-7.03,1.05-10.04,2.99.46,6,.87,8.16,3.33.37.1.74.22,1.12.28,1.26.11,2.4-.89,3.71-.41.47.19.85.49,1.17.87,1.68,1.93,1.6,4.24,1.49,6.57.05,1.03-.49,1.84-1,2.65-.24.56-.59,1.05-1.04,1.44-.18.27-.44.48-.69.68.04.03-.36.29-.32.34-.16.32-.41.53-.7.72-.56.54-1.01,1.19-1.74,1.54-.44.17-.88.23-1.34.2-.69-.16-1.31-.48-1.96-.74-3.07-2.02-6.46-3.7-7.91-7.44Z"/>
      <path class="cls-56" d="M22.92,70.58c-1.85-.67-3.82-1.13-5.22-2.68-.62-1.73-.45-3.46-.06-5.2,1.75-1.79,3.67-3.45,4.8-5.76.63-1.41,1.9-2.05,3.22-2.61.69-.17,1.41-.21,2.11-.3,3.42-.5,6.81-1.89,10.28-.23.53.8,1.11,1.59,1.17,2.6,0,1.04-.27,2.51-1.03,2.65-4.92.9-6.44,5.85-10.11,8.18-1.47,1.51-3.71,1.83-5.17,3.36Z"/>
      <path class="cls-30" d="M10.09,41.63c-3.55-1.39-5.09-5.13-8.21-7.02-1.25-6.11,1.81-10.96,4.64-15.89.5-.37,1-.74,1.51-1.12,2.8-1.3,3.7,1,4.96,2.63.19.51.25,1.04.19,1.58-.18.76-.54,1.42-1.15,1.92-3.62,1.89-2.12,4.86-1.59,7.62.19,1.57.93,3.04.94,4.65.02.89-.02,1.77-.07,2.66-.09,1.12-.74,2.01-1.21,2.98Z"/>
      <path class="cls-27" d="M26.9,65.69c2.39-1.35,3.02-3.12.29-5.94,4.99,1.2,7.88-.87,10.71-3.11.92-1.44,2.04-2.4,3.88-1.61.44.3.74.71.9,1.21.1,2.8-.42,5.38-2.68,7.3-1.75,1.71-1.31,4.67-3.5,6.12-2.31.65-4.9.68-6.58,2.81-.68-.25-1.36-.5-2.04-.75-1.92-1.75-2.53-3.72-.97-6.03Z"/>
      <path class="cls-12" d="M64.92,14.52c-1.32-1.82-2.67-3.61-3.94-5.47-1.17-1.72-1.23-3.3.89-4.39,4.88.79,8.44,3.84,11.93,7.01-.48.75-1.13,1.31-1.9,1.76-.37.25-.74.5-1.11.75-1.38,1.47-2.99,2.07-4.97,1.34-.41-.23-.72-.56-.91-1Z"/>
      <path class="cls-63" d="M65.88,55.63c1.08.01,2.16.02,3.24.03,1.42-.52,3.11-2.23,3.68.86l.22.27c-2.19,3.25-4.57,6.28-8.8,6.94-1.04.65-2.04.66-2.99-.18-1.42-3.15-2.8-6.31-1.17-9.82,2.93-2.45,3.62,2.03,5.81,1.89Z"/>
      <path class="cls-49" d="M40.02,0c1.37,1.35,1.15,3.71,3,4.77-.19,3.21-3.14,3.11-5.07,4.23-2.4-.07-3.9-1.43-4.94-3.45-2-1.26-4.01-2.53-6.01-3.79,4.34-.58,8.68-1.17,13.02-1.75Z"/>
      <path class="cls-31" d="M53.95,68.95c-2.35,3.29-5.76,2.77-9.09,2.52-4.87-2.77-4.93-3.23-1.16-9.25.62-.6,1.37-.9,2.2-.99.52-.06,1.05-.04,1.57.05.47.18.92.42,1.32.72,2.11,1.77,6.06.91,6.77,4.7,0,1.14-.78,1.72-1.62,2.26Z"/>
      <path class="cls-7" d="M44.86,62.7c-1.7,2.92-1.74,5.85,0,8.77-3.46,2.11-7.24.95-10.9,1.05-.99-2.54,2.26-2.34,2.6-4.03,2.24-1.12.05-4.02,2.1-5.21,2.03-.55,3.92-2.67,6.2-.58Z"/>
      <path class="cls-59" d="M82.65,32.66c-1.97.99-3.94,1.99-5.91,2.98-.96-.22-2.08.12-2.85-.8-1.09-1.37-1.38-2.76-.15-4.21.1-1.66,1.08-1.59,2.33-1.3,1.71.4,3.17.04,3.85-1.83,3.06.58,3.11,2.76,2.73,5.16Z"/>
      <path class="cls-36" d="M.83,44.65c3.03,2.06,6.7,3.17,9.13,6.13.27.41.49.84.68,1.29.18.46.25.94.22,1.44-1.59,4.15-3.28,2.83-4.99.09-3.64-1.88-4.67-5.23-5.05-8.95Z"/>
      <path class="cls-10" d="M5.88,53.59c1.91,1.76,3.17.45,4.43-.92.64-.64,1.45-.62,2.26-.6.82.31,1.34.9,1.62,1.73.27,1.66.44,3.32.11,4.99-.53,1.7-1.15,3.3-3.45,2.88-2.87-1.95-5.41-4.1-4.96-8.08Z"/>
      <path class="cls-37" d="M53.95,68.95c.3-.74.6-1.48.9-2.22-.43-1.35-.77-2.69.14-3.99,2.28-2.13,4.56-3.88,6.9-.09.78.36,1.55.72,2.33,1.09-2.24,4.07-5.72,5.69-10.27,5.21Z"/>
      <path class="cls-10" d="M36.97,68.72c-.1,1.98-1.61,2.84-3.01,3.79-1.35-.01-2.71-.03-4.06-.04.35-3.73,2.55-4.62,5.86-3.81.43-.59.83-.57,1.21.06Z"/>
      <path class="cls-23" d="M10.84,61.67c.7-1.04,1.41-2.07,2.11-3.11,1.39-1.26,2.82-1.5,4.31-.17.5.66.67,1.4.52,2.21-.92,1.94.55,4.62-1.88,6.1-2.23-1.13-3.72-3.01-5.06-5.03Z"/>
      <path class="cls-15" d="M26.9,65.69c.32,2.01.65,4.02.97,6.03-1.65-.38-3.3-.76-4.95-1.14-.05-2.75,2.16-3.66,3.98-4.9Z"/>
      <path class="cls-48" d="M15.91,66.71c-.43-2.05-.5-4.09.06-6.12,2.49-1.1,2.81.46,2.89,2.34.06,1.76-.26,3.44-1.15,4.98-.6-.4-1.2-.8-1.79-1.2Z"/>
      <path class="cls-61" d="M70.72,11.69c1.03,0,2.06-.02,3.08-.03.7.98,1.4,1.95,2.11,2.93-.68.35-1.36.7-2.04,1.05-.34-.58-.89-.59-1.47-.53-.57.03-1.12.12-1.55.56l.06-.03c-.26.34-.59.46-1.01.36-.53-.35-.76-.83-.63-1.46.07-.36.15-.72.26-1.07.15-.32.33-.64.53-.94.22-.28.45-.56.67-.84Z"/>
      <path class="cls-49" d="M15.96,45.48c-.36-2.28-.72-4.56-1.09-6.84-.61-3.88,2.2-6.13,4.14-8.75-.05.02.28-.28.23-.26-.05.02.18-.23.12-.23-.06,0,.01-.26-.05-.27-.07-.01-.19-.27-.24-.29-.38-.4-.64-.84-.95-1.27-.61-1.32-.82-2.64.02-3.94.48-.6,1.29-.59,1.86-1.02l.88-.93c2.16-1.51,3.91.6,5.9.64,2.21.04,3.96.88,5.09,2.83.63,2.24,1.96,4.17,2.86,6.28.83,1.95,1.66,4.06-.12,6.02-1.78,1.61-3.55,3.23-5.15,5.04-2.75,2.37-6.31,2.53-9.58,3.5-1.37.3-2.73.52-3.93-.5Z"/>
      <path class="cls-11" d="M33.01,5.55c1.91.14,3.46,1.17,5.07,2.04,1.47-.15,2.51.43,3.08,1.82.4,6.91-.73,8.96-5.41,9.72-1.41.15-2.4-.7-3.43-1.44-.36-.35-.62-.77-.8-1.23-.96-2.64.8-5.14.39-7.75.37-1.05.74-2.1,1.11-3.16Z"/>
      <path class="cls-24" d="M19.99,22.6c-.37.36-.74.72-1.12,1.08-3.11,2.29-5.56,2.17-6.93-1.89,0-.35-.02-.71-.02-1.06-1.92-2.36.36-4.74-.03-7.11,3.94-.97,5.8,1.02,6.58,4.59.33,1.52-.32,3.39,1.52,4.39Z"/>
      <path class="cls-44" d="M31.9,8.7c3.34,1.91.34,4.67.93,6.96-1.47.84-2.32-.59-3.46-.96-3.55,1.67-3.05-1.93-4-3.3-1.26-1.83.77-3.2,1.75-4.11,1.8-1.65,2.21.62,3.05,1.67.54.67,1.17.05,1.72-.25Z"/>
      <path class="cls-16" d="M29.38,14.7c1.15.32,2.31.64,3.46.96.02.32.06.64.1.96,1.94,4,.67,6.92-3.04,9.01-1.14-1.3-2.61-1.2-4.11-.94-1.38-1.73-2.03-3.45.05-5.14,2.26-.83,3.75-2.23,3.54-4.86Z"/>
      <path class="cls-24" d="M25.83,19.55c4.54,1.75-.62,3.42-.04,5.14-2.03-.37-3.21-2.13-4.91-3.03.97-2.3,2.48-3.35,4.96-2.11Z"/>
      <path class="cls-45" d="M11.89,13.62c2.69,2.36.3,4.73.03,7.11-1.3-1.04-2.6-2.08-3.9-3.12,1.29-1.33,2.58-2.66,3.87-3.99Z"/>
      <path class="cls-56" d="M56.92,13.65c2.63-.35,4.68,1.47,7.11,1.89.16.14.32.27.48.41.09.19.19.38.28.57.02.21.05.42.07.63-.07.41-.18.82-.31,1.22-.12.4-.26.8-.4,1.19-.35.53-.91.86-1.33,1.32.02.92.04,1.85.06,2.77,0,.43-.05.86-.13,1.29-.08.2-.17.4-.25.6-.26.36-.55.7-.87,1-.7.6-1.3,1.3-2.1,1.8-2.68.93-4.51-1.29-6.81-1.81-.72-.67-1.54-1.27-1.67-2.36,1.8-3.59,3.21-7.41,5.86-10.53Z"/>
      <path class="cls-32" d="M65.89,30.63c1.88-.71,3.31.77,4.99,1.01,1.62,1.5.4,3.16.25,4.75-2.2,2.8-2.82,6.5-5.24,9.18-.6.51-1.27.72-2.05.57-.47-.2-.86-.51-1.15-.93-.86-1.77-2.24-3.42-1.27-5.6.81-1.78.23-3.83,1.03-5.62.6-1.68,1.21-3.36,3.45-3.36Z"/>
      <path class="cls-24" d="M65.89,30.63c-.71,1.39-1.41,2.77-2.12,4.16-2.34,1.37-4.61,2.33-6.19-1.01-1.03-3.06,1.3-4.49,3-6.24,1.26-.99,2.48-2.19,4.25-.97.35,1.35.71,2.7,1.06,4.05Z"/>
      <path class="cls-55" d="M70.06,35.83c-.79-1.61.27-2.85.83-4.19.55-1.47,1.73-1.15,2.86-1.01.38,1.33.76,2.67,1.13,4-.55,1.81-1.75,2.52-3.6,2.16-.5-.2-.9-.52-1.22-.95Z"/>
      <path class="cls-26" d="M62.83,20.88c.01-.83.03-1.67.04-2.5.78-.53,1.64-.88,2.55-1.09,1.42-.11,2.75.22,4.03.82.14.18.28.37.42.55-1.13,4.62-4.07,3.46-7.05,2.22Z"/>
      <path class="cls-27" d="M64.83,26.57c-.98.68-1.97,1.37-2.95,2.05-1.12-.42-2.38-.64-2.88-1.97.65-.66,1.29-1.33,1.94-1.99.29.33.59.36.9.03.1-.14.21-.28.33-.41.63-.12,1.26-.25,1.7.41.32.63.64,1.25.96,1.88Z"/>
      <path class="cls-42" d="M69.72,15.41c.4.08.8.16,1.2.23-.35,1-.69,2.01-1.04,3.01,0,0,.02,0,.02,0-.88-.69-2.28-.84-2.36-2.34.37-1.16,1.14-1.36,2.19-.92Z"/>
      <path class="cls-5" d="M63.87,24.7c-.57-.13-1.13-.27-1.7-.4.23-.23.47-.44.71-.64.8-.1,1.92-.49.98,1.05Z"/>
      <path class="cls-29" d="M71.97,14.63c.93-.21,1.64,0,1.9,1.02-.61,0-1.23.01-1.84.02-.61-.31-.63-.66-.06-1.04Z"/>
      <path class="cls-42" d="M71.97,14.63c.02.35.04.69.06,1.04-.39,0-.78,0-1.17,0,.37-.35.74-.7,1.12-1.05Z"/>
      <path class="cls-62" d="M46.93,6.69c1.32,1.24,3.22.2,5.26,1.37-2.73,1.23-2.68,3.34-2.4,5.51.13.69.19,1.38-.12,2.05-.46.87-.95,1.7-2.03,1.93-.52.06-1.02-.02-1.49-.23-5.05-1.13-4.96-5.12-5.01-9.02,1.03-3.79,3.55-2.21,5.79-1.6Z"/>
      <path class="cls-57" d="M56.92,13.65c-.41,8.84,2.04,8.2-5.13,9.97-.39.35-.84.49-1.36.42-1.74-.59-2.14-1.92-2-3.56.03-.48.1-.96.22-1.43.57-1.29.9-2.72,1.98-3.74.37-.28.77-.51,1.2-.7,1.26-.59,2.55-1.06,3.98-.99l1.11.02Z"/>
      <path class="cls-23" d="M46.93,6.69c-1.48.36-3.88-1.16-4.03,1.95-.73,1.17-1.53,2.17-3.04,1.02-.6-.69-1.19-1.38-1.79-2.07,1.28-1.59,3.32-1.84,4.95-2.82,1.47.3,3.47-.47,3.91,1.93Z"/>
      <path class="cls-8" d="M48.91,14.6c.29-.34.58-.68.87-1.02,1.76-.27,3.52-.55,5.28-.82-.11,2.03-2.33,1.73-3.21,2.92l.05-.03c-1.31.53-2.36.33-3-1.05Z"/>
      <path class="cls-42" d="M51.86,15.67c.48-1.62,2.08-2.01,3.21-2.92.25.29.49.59.74.88-1.18.94-2.34,1.91-3.95,2.04Z"/>
      <path class="cls-54" d="M64.92,14.52c.31.09.64.13.96.12,1.16-.16,1.4.33.94,1.32-1.06.67-2.03.48-2.94-.29,0,0,.14-.12.14-.12.3-.34.6-.69.9-1.03Z"/>
      <path class="cls-58" d="M71.11,35.91c1.25-.43,2.51-.86,3.76-1.28.62.33,1.24.67,1.86,1,1.41,3.2.15,6.45-.48,9.42-.86,4.08-3.72-1.01-5.5.5-.23-.09-.46-.17-.68-.26-.65-.36-1.17-.86-1.51-1.52-.39-3.02.97-5.48,2.54-7.86Z"/>
      <path class="cls-41" d="M65.88,55.63c-2.59,1.66-3.39-1.28-5.06-1.97-.69,1.19-.54,2.93-2.28,3.43-1.92,1-3.86,1.3-5.85.19-4.59-2.43-4.87-3.28-2.46-7.39,2.53-1.07,5.18-1.57,7.92-1.64.5-.04.99-.05,1.49-.04,2.14.36,3.83,1.22,4.18,3.63.69,1.26,1.38,2.53,2.06,3.79Z"/>
      <path class="cls-30" d="M63.82,51.84l-4.76-2.37c-.16-3.88,2.23-4.01,5.08-3.47,1.01-.11,1.91-.73,2.97-.63.79.15,1.4.54,1.76,1.28-.69,2.69-2.6,4.2-5.05,5.18Z"/>
      <path class="cls-46" d="M72.8,56.53c-.96-1.44-2.58-.04-3.68-.86.82-1.55,1.64-3.09,2.68-5.06,1.36,2.11,1.07,4.04,1,5.92Z"/>
      <path class="cls-39" d="M68.87,46.66c-.59-.08-1.17-.16-1.76-.23-.78-.35-.85-.99-.69-1.72.54-.94,1.38-1.12,2.36-.96.87.34,1.53.94,2.01,1.73,0,0-.04.08-.04.08-.63.37-1.26.73-1.89,1.1Z"/>
      <path class="cls-24" d="M16.97,59.42c-1.34-.28-2.68-.57-4.02-.85.07-1.7.13-3.4.2-5.1.14-.71-.27-1.08-.84-1.36-.15-.13-.3-.27-.44-.4l.95-1.97c.72.05.47-.7.8-.98.46-.42.93-.85,1.39-1.27,1.65-1.02,3.35-1.29,5.13-.35,2.35,2.05,5.4.86,8.02,1.73,1.6,1.25,1.29,2.94,1.07,4.61-.19.86-.71,1.52-1.29,2.16-.66,0-1.33,0-1.99,0-2.29-.59-2.96.83-3.31,2.66-1.69,1.4-3.22,3.56-5.67,1.13Z"/>
      <path class="cls-8" d="M20.94,30.64c-2.94,1.97-2.69,6.37-6.08,8-.31,0-.61,0-.92,0-.3.34-.68.5-1.14.48-.97-.26-1.32-1.05-1.62-1.88-.05-.21-.1-.42-.15-.63-.06-.43-.08-.87-.06-1.3.07-.67-.02-1.34-.14-2-.26-.95-.25-1.87.33-2.72.83-.98,2.03-1.31,3.12-1.84,1.08-.63,2.17-1.24,3.49-1.09,1.25.85,2.93-.02,4.13,1.03l-.03-.06c.54,1.07-.08,1.6-.94,2.02Z"/>
      <path class="cls-36" d="M19.84,48.55c-1.61-.36-3.22-.72-4.83-1.07.32-.67.63-1.33.95-1.99,1.07-.61,2.15-1.21,3.22-1.81.82.73,1.85.8,2.83.68,2.19-.27,3.81.41,3.76,2.76-.06,2.83-2.48,2.02-4.16,2.18-.68.07-1.29-.22-1.77-.74Z"/>
      <path class="cls-48" d="M12.89,38.61c.35,0,.71.01,1.06.02-.62,1.53-1.8,2.44-3.34,2.93-.32-.76-.51-1.54-.36-2.37-.04-.41-.05-.81,0-1.22.19-.38.47-.65.87-.8.42,0,.79.13,1.1.42.19.36.41.71.67,1.03Z"/>
      <path class="cls-13" d="M12.91,48.63c-.59.02-1.18.03-1.77.05.04-.21.09-.41.13-.62.54.19,1.09.39,1.63.58,0,0,.01-.01.01-.01Z"/>
      <path class="cls-40" d="M10.89,38.72c-.09.94-.18,1.89-.28,2.83-.18.01-.36.04-.53.07-.65-.93-.53-1.89-.1-2.86.14-.16.29-.32.43-.48.16.15.32.29.47.44Z"/>
      <path class="cls-13" d="M13.62,48.75c.09.62-.08,1.02-.8.98.03-.37.06-.73.09-1.1,0,0-.01.01-.01.01.24.03.48.07.72.11Z"/>
      <path class="cls-42" d="M12.08,52.62c-.59.02-1.19.03-1.78.05-.1-.22-.2-.43-.29-.66.03-.57.31-.71.82-.5.34.06.69.12,1.03.18,0,0-.03-.06-.03-.06.69.17.77.5.25.98Z"/>
      <path class="cls-13" d="M10.83,51.52c-.27.16-.55.33-.82.49-.02-.41-.04-.82-.06-1.24.29.25.58.49.87.74Z"/>
      <path class="cls-22" d="M41.88,55.65c-1.33.33-2.66.65-3.99.98-.33-.67-.66-1.33-.99-2,.45-.52.58-1.14.56-1.81,0-.46.01-.91.06-1.36.12-.75.5-1.32,1.1-1.77.45-.24.91-.41,1.41-.51.52-.08,1.03-.17,1.55-.25,1.42-.45,2.71-.15,3.9.69,1.69,4.26.93,5.51-3.62,6.03Z"/>
      <path class="cls-58" d="M16.97,59.42c1.64-.58,3.29-1.16,4.93-1.75.67-.6,1.41-.82,2.27-.45-.71,1.84-2.57,3.81,1.94,5.23-3.32.21-5.29.34-7.26.46-.96-.78-1.93-1.56-2.89-2.34.34-.39.67-.78,1.01-1.17Z"/>
      <path class="cls-14" d="M38.81,53.4c-.64.41-1.27.82-1.91,1.23-2.95.66-5.89,1.42-8.97.99-.01-.64-.02-1.28-.04-1.92,1.4-1.01,1.5-3.1,3.2-3.86,2.27-.75,4.35-.54,6.08,1.28.36.31.69.65.99,1.02.23.41.44.83.64,1.26Z"/>
      <path class="cls-22" d="M24.17,57.22c-.76.15-1.51.3-2.27.45.2-1.48-1.37-3.47.46-4.35,1.75-.85,2.81.85,3.58,2.31-.1,1.07-.97,1.3-1.77,1.59Z"/>
      <path class="cls-62" d="M14.91,30.64c-1.03.33-2.06.65-3.09.98-.3.36-.67.61-1.12.75-.74.07-1.34-.21-1.83-.74-3.76-4.82-3.02-8.09,2.02-8.99,2.79,1.94,6.67,3.33,4.03,8Z"/>
      <path class="cls-36" d="M14.91,30.64c-1.34-2.67-2.69-5.34-4.03-8,.35-.28.71-.57,1.06-.85,2.03,1.64,4.84.46,6.93,1.89.31,1.25.63,2.5.94,3.75-.04,1.26-1.2,1.56-1.93,2.23-.99.33-1.99.66-2.98.99Z"/>
      <path class="cls-50" d="M8.86,31.63l1.99.03c.55,1.23,1.15,2.45,1,3.86.03.37.05.74.08,1.11l-.25.43c-.32.06-.65.1-.98.13-.4,0-.63-.2-.7-.59-.61-1.61-1.5-3.15-1.14-4.97Z"/>
      <path class="cls-48" d="M10,36.6c.32.03.65.05.97.08.65.38.62.7-.08.97h0c-.27.41-.68.68-.98,1.04,0,0,.08.07.08.07-.53-.72-.61-1.45.02-2.16Z"/>
      <path class="cls-51" d="M41.88,55.65c1.65-1.34,2.76-2.98,2.94-5.16-1.2-2.48-3.74-4.4-3.24-7.61.32-1.17,1.03-1.98,2.16-2.42,3.47-.18,7.09-.73,8.64,3.64-.25,2.15.23,4.38-.5,6.51-3.55,3.06-.36,3.98,1.67,5.26,1.83,2,1.4,4.01-.4,5.57-1.68,1.46-3.9,1.51-5.21-.39-1.54-2.23-5.82.34-6.03-3.72,0-.24,0-.47-.01-.71,0-.32,0-.64-.03-.97Z"/>
      <path class="cls-12" d="M44.86,62.7c-1.93.68-3.83,1.62-5.98.92-.21-.2-.28-.4-.21-.6.07-.2.15-.3.22-.3,1.77-1.66,1.01-4.56,3.01-6.11,0,0-.03-.01-.03-.01.73,1.42,1.41,2.77,3.28,3.14,1.37.27,2.32,1.2,1.74,2.86-.68.03-1.35.07-2.03.1Z"/>
      <path class="cls-29" d="M38.9,62.72c0,.3-.01.6-.01.9-.97,1.58.82,4.19-1.91,5.11-.4-.02-.8-.04-1.21-.06,1.32-2.24,1.15-4.25-1.22-5.81,1.68-1.31,3.02-.51,4.35-.13Z"/>
      <path class="cls-3" d="M66.89,15.63c-.33-.33-.67-.66-1-.99,1.56-.7,3.2-1.28,4.07-2.93.48.68.57,1.34-.08,1.98-.05.58-.11,1.16-.16,1.73-.58.39-1.17.78-1.75,1.18.45,1.2-.26,1.5-1.24,1.59-.44-.05-.81-.23-1.12-.55-.22-1.08.64-1.47,1.27-2.01Z"/>
      <path class="cls-17" d="M69.88,13.68c.03-.66.05-1.32.08-1.98.26-.03.51-.03.77,0,.01.33.06.65.14.96.27.22.35.44.26.66-.09.21-.19.32-.28.32-.32.03-.64.05-.97.05Z"/>
      <path class="cls-6" d="M57.87,55.63c.98-.66,1.97-1.31,2.95-1.97-.62,3.11,1.24,5.93,1.07,8.99-2.22-.92-4.22-.52-6.03,1.02-2.43-1.82-1.98-3.79-.06-5.53.84-.76,1.75-1.36,2.07-2.5Z"/>
      <path class="cls-59" d="M57.87,55.63c1.26,3.16-3.15,4.9-2.01,8.04-.34,1.02-.67,2.04-1.01,3.06-2.3-1.92-6.66,1.32-7.94-3.16.26-.24.33-.46.23-.67-.1-.21-.2-.31-.29-.31,0,0,.04.01.04.01-2.36-1.43-4.87-2.72-5.02-6,1.18-.03,1.91,2.16,3.46.62.73-.72,1.82-1.12,2.51.11,3.8,6.78,4.35,1.11,5.72-1.47,1.44-.08,2.88-.16,4.32-.23Z"/>
      <path class="cls-53" d="M46.85,62.58c.1.22.23.44.29.67.02.08-.15.21-.23.31-.02-.33-.04-.66-.06-.98Z"/>
      <path class="cls-8" d="M12.08,52.62c-.08-.33-.17-.65-.25-.98.94.3,2.26-.05,2.47,1.43.01.07-.76.26-1.16.39-.35-.28-.71-.56-1.06-.84Z"/>
      <path class="cls-3" d="M70.85,13.63c.02-.33.03-.65.02-.98.06.23.15.45.17.68,0,.09-.12.2-.19.3Z"/>
      <path class="cls-60" d="M29.89,25.63c-.44-3.5,1.75-6.1,3.04-9.01.94.31,1.89.62,2.83.93,1.2,1.23,2.53,1.08,3.37-.2,1.1-1.68,2.35-2.46,4.09-1.32,1.78,1.16,1.51,2.7.38,4.3-.59.83-.22,1.96-.58,2.9-.31.7-.85,1.18-1.49,1.55-1.92.71-3.09,1.34-1.53,3.84,1.71,2.73,3.96,5.8,1.11,9.26-2.04,2.67-4.61,3.02-7.56,1.75-1.03-.81-1.58-1.72-.68-2.97.91-2.32-.2-4.17-1.46-5.92-1.11-1.55-1.56-3.23-1.54-5.09Z"/>
      <path class="cls-60" d="M19.84,48.55c.94-.2,1.88-.4,2.82-.6.59-.13,1.43-.03,1.5-.84.07-.87-.47-1.6-1.38-1.6-1.55,0-2.86-.32-3.59-1.84,3.45.29,6.21-2.66,9.73-2.02.22.14.44.27.66.41,1.5,2.02.39,3.91-.29,5.81-.42,1.08-1.4,1.41-2.36,1.77-2.58,1.09-5.06,1.56-7.07-1.08Z"/>
      <path class="cls-30" d="M32.89,36.65c.35.67.7,1.34,1.05,2.02.72.72,2.72.38,2.15,2.11-.72,2.21-2.45,3.39-4.81,3.54-1.43-.31-1.36-1.98-2.38-2.66,0,0,0,0,0,0,.56-2.28,1.72-4.09,3.99-5Z"/>
      <path class="cls-41" d="M20.94,30.64c.31-.67.63-1.34.94-2.02,1.11.62,1.92,1.44,1.85,2.83-.53.79-1.14.77-1.79.15-.33-.32-.66-.65-.99-.97Z"/>
      <path class="cls-23" d="M17.89,29.66c.64-.74,1.28-1.48,1.93-2.23.98-.05,1.84.09,2.1,1.25-1.34.33-2.68.65-4.02.98Z"/>
      <path class="cls-8" d="M21.94,31.61c.6-.05,1.19-.1,1.79-.15.25.98-.27,1.45-1.14,1.43-.77-.02-.91-.6-.65-1.27Z"/>
      <path class="cls-45" d="M41.88,22.64c-1.1-1.9.07-3.58.85-5.03-2.6-2.06-4.61,3.89-6.96-.07,3.83-1.35,2.22-5.52,4.09-7.89,1.01-.34,2.02-.68,3.04-1.02-.42,3.59,1.57,5.97,4.08,8.08.93.87,2.75,1.07,2.25,3.01-1.04,2.4-3.49,2.77-5.49,3.8-.76,0-1.41-.25-1.86-.89Z"/>
      <path class="cls-9" d="M59,26.66c1.23.26,2.18.93,2.88,1.97-1.33,1.45-2.57,2.96-3,4.96-.41,1.08-1.08,1.86-2.32,1.96-2.82-.11-3.43-2.21-3.95-4.38-.32-2.3.06-4.47,1.18-6.51,2,0,3.05,2.44,5.22,2.01Z"/>
      <path class="cls-8" d="M53.78,24.65c1.36,1.94,1.03,3.99.39,6.06-1.68,2.72-3.36,2.2-5.05.02-.28-.43-.47-.91-.57-1.41.44-1.98-.23-4.38,2.09-5.69.38,0,.77,0,1.15,0,.66.34,1.32.68,1.99,1.02Z"/>
      <path class="cls-3" d="M65.89,18.68c-1.01-.1-2.02-.2-3.02-.3.05-.31.1-.62.14-.93.26-.21.52-.43.77-.66l.16-.32c.97-.3,1.44.31,1.86,1.01l.09.18c.35.23.47.45.35.68-.12.23-.23.34-.35.34Z"/>
      <path class="cls-1" d="M65.8,17.48c-.62-.34-1.24-.67-1.86-1.01-.03-.27-.05-.54-.06-.81,1-.01,2-.02,3-.04-.36.62-.72,1.24-1.08,1.85Z"/>
      <path class="cls-33" d="M60.27,19.57c-.11.03-.25.12-.32.08-.08-.05-.09-.21-.14-.32.11-.03.25-.12.33-.08.08.04.09.21.13.32Z"/>
      <path class="cls-25" d="M61.84,24.7c-.3-.01-.6-.02-.9-.03.3-.02.6,0,.9.03Z"/>
      <path class="cls-18" d="M63.79,16.79c-.26.22-.52.44-.77.66.26-.22.52-.44.77-.66Z"/>
      <path class="cls-47" d="M50,29.6c1.1,1.43,2.5,1.76,4.16,1.1.91,1.32,1.82,2.64,2.73,3.96,2.74.81,5.77,1.27,6.02,5.05.3,1.71.61,3.42.91,5.12-2.03,1.27-4.55,1.6-6.36,3.32-4.63,1.92-5.21,1.69-6.57-2.53-1.32-2.99-3.96-3.68-6.85-3.96-.72-.36-1-1-1.06-1.76,2.06-3.04,5.01-5.59,4.99-9.77,0-.72,1.14-1.08,2.02-.54Z"/>
      <path class="cls-4" d="M68.88,44.66c-.69-.01-1.39-.02-2.08-.04-.59.61-1.17.59-1.74-.02,1.06-3.27,1.93-6.65,5-8.77.35.03.7.05,1.05.08.73,2.71.35,5.23-1.19,7.58,0,.69-.55.91-1.04,1.17Z"/>
      <path class="cls-28" d="M55.9,45.56c2.31-3.81,5.31-.22,7.92-.73,0,.27.02.54.05.81.36.2.5.42.42.68-.08.27-.18.4-.29.4-1.94.4-3.39,1.67-4.96,2.75-.04.36-.09.72-.14,1.09-1.77.65-2.42-.42-2.32-1.84.08-1.19.27-2.26-.69-3.16Z"/>
      <path class="cls-57" d="M62.91,39.71c-2.78-.76-3.81-3.62-6.02-5.05.66-.36,1.32-.72,1.98-1.08,1.63.4,3.26.8,4.9,1.2.39,1.76,1.8,3.7-.86,4.93Z"/>
      <path class="cls-2" d="M64.01,46.72c-.04-.36-.09-.72-.13-1.07.39-.35.78-.7,1.18-1.05.58,0,1.16.01,1.74.02.1.6.21,1.2.31,1.81-1.03.1-2.07.2-3.1.3Z"/>
      <path class="cls-60" d="M65.89,18.68c0-.34,0-.68,0-1.02.69-.36,1.38-.71,2.07-1.07.97.38,1.67,1.02,1.92,2.08-1.33.73-2.66.92-4,.01Z"/>
      <path class="cls-4" d="M48.91,14.6c1,.35,2,.7,3,1.05-1.07,1.15-.06,3.35-2.05,4.03-.72-.99-1.35-2.04-1.87-3.16.31-.64.62-1.28.92-1.92Z"/>
      <path class="cls-8" d="M47.99,16.52c2.61-.13,1.68,1.85,1.87,3.16,0,0,.04-.03.04-.03-.31.37-.61.36-.91-.02-.78-.89-2.03-1.46-2.01-2.9.34-.07.67-.14,1.01-.21Z"/>
      <path class="cls-24" d="M48.99,19.63c.3,0,.61,0,.91.02.25,1.33.5,2.66.74,3.98-.03,1.69.27,3.43-.7,4.98-1.04.97-2.18.97-3.38.32-.39-.28-.73-.62-1.01-1.02-1-1.66-1.54-3.44-1.49-5.39.05-3.69,2.75-2.84,4.93-2.89Z"/>
      <path class="cls-21" d="M68.88,44.66c.35-.39.69-.78,1.04-1.17.29.66.59,1.33.88,1.99-.64-.27-1.28-.55-1.92-.82Z"/>
      <path class="cls-14" d="M55.9,45.56c3.51.16.41,4.29,3.01,5-2.34.79-4.68,1.47-7.03.04-1.73-1.38-3.26-2.8-.99-4.98,1.68,1.06,3.4,4.94,5.01-.06Z"/>
      <path class="cls-27" d="M43.95,39.66c.03.67.06,1.34.1,2-.41.65-.83,1.3-1.24,1.95-.48.75-1.02,1.42-1.97,1.6-1.04.1-2.01.4-2.86,1.06-1.43.98-1.68,3.02-3.35,3.78-1.13.17-1.15,2-2.58,1.73-1.26.92-2.45,1.96-4.15,1.93-.02-1.43-.12-2.85-.99-4.07.33-.68.67-1.37,1-2.05,2.23-.38.7-3.62,3.01-3.93,1.2-1.55,4.65-1.73,3.03-4.99,2.52.29,4.52-1.23,6.75-1.93.23.03.46.06.69.09,1.46.39,2.56,1.12,2.56,2.84Z"/>
      <path class="cls-60" d="M11.85,35.52c-1.19-1.07-1.43-2.38-1-3.87.32-.01.65-.02.97-.03.36.68.72,1.36,1.08,2.03-.63.51-.4,1.47-1.04,1.97v-.1Z"/>
      <path class="cls-50" d="M12.89,38.61c-.36-.37-.72-.74-1.08-1.1-.28-.2-.36-.39-.25-.57.1-.17.2-.26.3-.26,0,0,.07-.05.07-.04.32.66.64,1.32.96,1.98Z"/>
      <path class="cls-50" d="M11.86,35.63c.35-.66.69-1.31,1.04-1.97-.35.66-.69,1.31-1.04,1.97Z"/>
      <path class="cls-26" d="M11.86,36.68c0,.28-.02.56-.05.83-.3.07-.61.12-.92.14.02-.32.04-.65.08-.97.3-.03.59-.03.89,0Z"/>
      <path class="cls-30" d="M9.91,38.69c.33-.35.66-.69.98-1.04,0,.36,0,.71,0,1.07-.33-.02-.65-.03-.98-.03Z"/>
      <path class="cls-61" d="M39.97,43.62c.94,0,1.89,0,2.83,0,1.78,1.96,4.07,3.78,2.01,6.87-1.34.05-2.69.1-4.03.15-.83-.94-1.78-1.8-2.18-3.04-.18-1.02-.19-2.03.22-3,.27-.45.66-.78,1.15-.97Z"/>
      <path class="cls-43" d="M39.83,47.56c1.06.79,1.03,1.93.95,3.08,0,0-.41,0-.41,0l-.41.02c-.33-.26-.71-.38-1.13-.39-.41-.08-.78-.24-1.11-.51-.27-.33-.45-.7-.54-1.11.02-.21.04-.42.06-.63.17-.4.45-.7.83-.91.67-.17,1.25,0,1.74.46Z"/>
      <path class="cls-15" d="M38.01,52.75c-.36-.04-.72-.08-1.09-.12-.61-1.4.15-1.99,1.37-2.31.2.09.39.19.59.28.42.74.52,1.47-.09,2.17-.27.3-.53.29-.78-.02Z"/>
      <path class="cls-34" d="M38.01,52.75c.26-.06.52-.05.78.02,0,.21,0,.42.02.63-.27-.22-.53-.43-.8-.65Z"/>
      <path class="cls-52" d="M38.86,49.64c.37.34.74.67,1.12,1.01-.36-.01-.73-.03-1.09-.04,0,0-.02.03-.02.03-.21-.22-.28-.44-.21-.66.07-.22.14-.33.21-.33Z"/>
      <path class="cls-43" d="M38.86,49.64c-.04.33-.03.66,0,1-.93.39-1.6,1.03-1.93,2-1.39-1.65-3.29-.38-4.88-.86.59-.75,1.19-1.49,1.78-2.24.55-.35,1.16-.58,1.73-.9.79-.54,1.58-.66,2.37-.01l-.08-.05c.38.34.69.76,1.08,1.08l-.07-.02Z"/>
      <path class="cls-19" d="M40.7,36.74c-.05-2.67-.8-5.03-2.52-7.17-2.67-3.32-1.88-4.88,2.76-5.94,2.76.21,3.64,3.18,5.95,4.06l-.03-.04c2.21,6.46-.28,10.35-5.95,9.29l-.2-.2Z"/>
      <path class="cls-2" d="M46.89,27.68c-5.79,3.12-5.99,2.99-5.95-4.06.32-.33.63-.65.95-.98.72-.04,1.45-.08,2.17-.13,2.67.78,3.56,2.53,2.83,5.16Z"/>
      <path class="cls-57" d="M30.92,43.65c-.93,1.82,2.79,1.15,1.61,2.78-1.07,1.48-2.97,1.18-4.63,1.16.33-1.98.66-3.96,1-5.94,1.77-.44,1.98.7,2.02,2Z"/>
      <path class="cls-20" d="M40.9,36.94c3.86-1.89,6.08-4.84,5.95-9.29,1.03.32,2.06.64,3.09.96.04.33.05.66.06.99-.29.92-.96,1.91-.8,2.74.85,4.39-1.27,6.49-5.26,7.32-1.27-.62-2.46-1.33-3.05-2.72Z"/>
      <path class="cls-38" d="M35.91,49.62c-.69-.03-1.39-.05-2.08-.08,1.28-1.83.86-4.54,3.05-5.9.21.15.42.31.63.46,1.53,2.44-.76,3.77-1.6,5.52Z"/>
      <path class="cls-8" d="M39.97,43.62c-.05.31-.08.63-.07.95-.39.48-.58,1.15-1.24,1.38-1.56-.02-.96-1.7-1.76-2.3,0,0-.01-.01-.01-.01,1.03-.88,2.05-.89,3.09-.01Z"/>
      <path class="cls-39" d="M38.75,45.4c.38-.28.76-.55,1.14-.83-.02,1-.04,1.99-.06,2.99-.65.04-1.29.08-1.94.13-.58-1.09.24-1.65.86-2.29Z"/>
      <path class="cls-27" d="M38.75,45.4c-.29.76-.58,1.52-.86,2.29-.02.32,0,.63.04.94-.67.33-1.35.66-2.02.99.33-1.99.66-3.98.98-5.97.62.58,1.24,1.17,1.86,1.75Z"/>
      <path class="cls-37" d="M38.93,49.66c-.36-.36-.72-.72-1.08-1.08.36.36.72.72,1.08,1.08Z"/>
    </g>
  </g>
</svg>