<?xml version="1.0" encoding="UTF-8"?>
<svg id="Layer_2" xmlns="http://www.w3.org/2000/svg" viewBox="0 0 163.83 108.49">
  <defs>
    <style>
      .cls-1 {
        fill: #506b2b;
      }

      .cls-2 {
        fill: #a6bc88;
      }

      .cls-3 {
        fill: #e1e2e2;
      }

      .cls-4 {
        fill: #bcbbbc;
      }

      .cls-5 {
        fill: #9f9e9d;
      }

      .cls-6 {
        fill: #88a561;
      }

      .cls-7 {
        fill: #6a8f39;
      }
    </style>
  </defs>
  <g id="Layer_2-2" data-name="Layer_2">
    <g>
      <path class="cls-1" d="M95.6,107.74c-15.98-1.76-31.55-5.42-47.09-9.45-14.58-3.79-26.09-11.93-35.86-22.99.15-1.41,5.37-1.39,1.35-3.79-5.79-3.47-6.74-8.96-7.22-14.8-.19-2.31.08-4.77-2.98-5.49l-.02-.02c-1.23-2.22.98-5.88-2.92-6.98.05-.64.1-1.28.15-1.92,4.31-.64,3.42-4.4,3.65-6.93.39-4.49,1.97-4.13,4.98-1.27-.31-3.76.82-6.28,3.34-8.45,1.11-.96.67-1.46,7.37-2.19.2-.02.31-.84.46-1.28,1.58-.13,3.01-.58,4.04-1.88,7.91.69-.62,2.97.41,4.32,1.27,1.35,4.32-.5,4.62,2.58-1.06.12-1.66,2.76-2.61,1.24-3.64-5.78-2.16,1.42-3.63,1.25-1.55-.75-.77-3.55-3.1-3.92-2.17,2.86-.24,5.74.95,7.64,1.39,2.21,3.62-.64,4.99-1.48,3.44-2.11,4.47-1.82,3.69,2.31-.17.89.71,1.58,1.51,1.74,3.52.68,4.26,3.26,4.24,6.43,3.61-2.16,7-4.13,7.92,2.14.14.98.64,1.39,1.7,1.24,3.85-.53,7.35-.04,10.23,3.03.54.58,2.23.3,3.34.11,7.92-1.38,8.41-.88,5.95,6.82,7.16-.18,13.7.86,18.23,7.36,2.03,2.91,5.23,5.39,9.12,4.59,3.6-.73,6.53.93,9.87,1.01-.31,1.82-2.75,1.4-2.29,3.3.71,2.89,6.03,4.77,9.13,4.48,4-.37,7.25-4.29,11.62-2.28.01.32.03.65.06.97-1.37.1-2.96.41-2.53,2.09.33,1.3,2.08,1.43,3.31,1.3,2.41-.26,1.27-2.06,1.23-3.35,4.04.62,7.2,3.93,11.43,3.87,2.91-.04,5.2.81,6.49,3.53,1.13,2.37,3.42,2.04,4.58,1.01,2.87-2.55,3.33.08,3.02,1.5-.94,4.37,1.79,1.92,3.27,2.08,2.49.26,1.69-3.16,3.46-3.25,3.01,3.92-2,6.67-1.19,10.28-.37.16-.73.32-1.1.48-.43-1.22-.86-2.45-1.56-4.45-1.34,4.72-4.58,2.67-7.1,3.33-8.1,2.14-15.96,5.26-23.86,8.14-3.02,1.1-5.71,2.38-6.67-2.39-.51-2.51-2.18-4.4-4.8-5.17-.13-.91-.12-1.93-1.28-2.21-.12-.03-.48.36-.5.57-.1,1.28.84,1.48,1.8,1.62.2.78.83,1.87.52,2.28-.8,1.07-1.72-.02-2.58-.34-2.63-.97-.5-4.43-2.86-5.78-.93,7.7-8.8,10.24-15.58,5.33-2.4-1.74-4.62-4.46-8.11-1.65-.81.65-3.05-1.69-3.28,1.2-.15,1.91,1.61,1.74,2.65,2.39.93.58,2.7.16,2.75,1.66.05,1.61-1.65,1.9-2.78,2.44-.86.42-1.87.53-2.92.8,2.25,1.93,4.48,1.39,6.91.68,6.63-1.91,10.2-.48,12.12,4.56ZM125.22,95.53c-2.14-.48-.99-4.41-3.55-3.83-2.09.47-5.47,1.2-5.38,4.1.07,2.28,3.19,1.47,4.87,2.15,1.65.67,3.14-.37,4.06-2.42ZM51.52,77.9c-2.03-.9-2.85,2.03-4.85.55-.71-.52-1.16,3.35.13,3.25,2.17-.16,3.96-1.29,4.72-3.81ZM69.47,88.6c-.82,1.87,3,1.1,1.07,3.15-.43.46-1.96,1-.02,1.42.89.19,1.84,1.21,2.71.27.33-.36.34-1.28.15-1.81-.65-1.78-1.72-3.15-3.91-3.02ZM124.02,80.54c-.11-.04-.23-.09-.34-.13-.02.17-.03.34-.05.51.12-.02.26-.02.36-.09.06-.04.03-.19.04-.29Z"/>
      <path class="cls-2" d="M24.85,20.29c-1.03,1.3-2.46,1.75-4.04,1.88-.96-1.83,2.67-4.8-.33-5.29-2.11-.35-3.56-2.31-5.75-1.77,4.25-6.41,11.07-9.15,17.72-11.81C41.65-.39,51.39-.1,61.18.11c16.98.37,31.85,6.75,46.17,14.96,8.73,5,17.76,9.82,25.67,15.79,12.53,9.45,26.46,18.42,29.97,35.74.79,3.91,1.47,7.76-.18,11.61-4.38-3.43-11.82-.41-14.76-6.97-.11-.24-.97-.08-1.42-.26-3.2-1.27-7.81-8.58-6.39-11.01,2.6-4.46-1.42-2.11-2.48-2.77l-.03-.03c-.18-1.72.84-2.47,2.13-3.48,1.54-1.22,1.47-3.62.15-4.9-1.41-1.37-2.56.52-3.73,1.36-2.94,2.13-3.26,5.62-4.54,8.71,1.76.55,4.8.07,3.89,3.45-.86,3.18-3.44,1.75-5.38,1.48-1.27-.18-2.65-.67-3.66-1.44-1.73-1.32-3.48-1.09-4.3.45-2.24,4.18-2.99,1.11-4.02-.64-.68-1.15-1.2-2.35-2.51-2.99-2.68-1.3-4.39-3.18-3.21-6.28-2.03-.93-3.03,1.93-4.38.85-4.06-3.27-10.03-3.6-13.35-6.97-4.87-4.94-10.79-7.96-16.56-10.88-7.04-3.56-15.49-4.34-20.79-11.2-.17-.22-.76-.42-.89-.31-4.25,3.61-7.49-.68-11.1-1.53-2.36-.56-3.78.37-5.4,1.55-3.2,2.33-3.45,2.29-6.75-.73,1.28.08,2.42.36,3.47.16.93-.18.95-1.21.87-2.07-.08-.78-.53-1.32-1.29-1.1-5.56,1.59-5.69-2.52-6.54-6.6-1.59,2.44-7.87.19-4.99,6.21ZM40.35,6.29c3.47.58,6.77,1.18,8.99,4.59-1.24-1.95,2.99-4.61-.76-5.47-2.54-.58-5.46-.63-8.23.87ZM117.35,25.68c-1.89-.04-3.61-.04-4.71-1.8-.42-.66-1.48-.87-2.18-.16-.82.82.11,1.42.42,2.13,1.87,4.33,4.11,2.56,6.47-.17Z"/>
      <path class="cls-6" d="M137.75,57.21c1.07.66,5.08-1.69,2.48,2.77-1.42,2.43,3.2,9.73,6.39,11.01.45.18,1.31.01,1.42.26,2.94,6.56,10.38,3.54,14.76,6.97-.76,6.6-3.47,12.1-8.97,16.04-.81-3.61,4.2-6.36,1.2-10.28-1.77.09-.97,3.51-3.46,3.25-1.48-.16-4.2,2.29-3.27-2.08.3-1.42-.15-4.06-3.02-1.5-1.16,1.03-3.46,1.36-4.58-1.01-1.29-2.72-3.57-3.57-6.49-3.53-4.22.06-7.38-3.25-11.43-3.87-.67-.01-1.33-.03-2-.04-.03-.32-.05-.65-.06-.97-.83-2.41-1.58-4.75-5.05-3.15-.8.37-2.83.41-2.41-1.39.73-3.15-1.93-2.83-3.26-3.18-4.13-1.09-7.51-3.25-10.57-6.11-2.43-2.27-4.97-4.14-8.58-4.48-1.79-.17-3.72-.7-5.46-1.99-7.67-5.67-16.03-10.49-22.6-17.51-1.52-1.63-4.37-.09-4.84-2.64-.85-4.66-2.97-3.58-5.9-1.78-3.08,1.89-8.04.6-7.89-1.83.3-4.99-2.23-2.87-4.01-1.72-2.39,1.56-4.45,2.13-6.52-.34-1-1.19-2.43-.81-3.73-.9-.3-3.08-3.35-1.24-4.62-2.58-1.03-1.36,7.5-3.63-.41-4.32-2.88-6.02,3.4-3.77,4.99-6.21.85,4.07.98,8.19,6.54,6.6.76-.22,1.21.32,1.29,1.1.08.85.07,1.89-.87,2.07-1.05.2-2.19-.08-3.47-.16,3.3,3.02,3.55,3.06,6.75.73,1.62-1.18,3.04-2.11,5.4-1.55,3.6.86,6.85,5.14,11.1,1.53.13-.11.72.09.89.31,5.3,6.86,13.75,7.64,20.79,11.2,5.76,2.91,11.68,5.94,16.56,10.88,3.32,3.37,9.29,3.7,13.35,6.97,1.35,1.08,2.35-1.78,4.38-.85-1.18,3.1.53,4.98,3.21,6.28,1.31.63,1.83,1.84,2.51,2.99,1.03,1.75,1.79,4.83,4.02.64.82-1.54,2.58-1.77,4.3-.45,1.01.77,2.39,1.27,3.66,1.44,1.94.27,4.52,1.7,5.38-1.48.91-3.38-2.13-2.9-3.89-3.45,1.29-3.1,1.6-6.58,4.54-8.71,1.17-.84,2.32-2.73,3.73-1.36,1.32,1.28,1.4,3.69-.15,4.9-1.29,1.01-2.31,1.76-2.13,3.48-.07.15-.14.3-.22.44.08-.14.16-.28.24-.42Z"/>
      <path class="cls-7" d="M108.74,94.18c2.62.78,4.29,2.67,4.8,5.17.97,4.77,3.65,3.5,6.67,2.39,7.9-2.88,15.75-6,23.86-8.14,2.52-.67,5.76,1.39,7.1-3.33.7,2.01,1.13,3.23,1.56,4.45-4.06,6-10.32,8.63-16.91,10.26-13.21,3.27-26.65,4.39-40.23,2.75-1.92-5.04-5.49-6.47-12.12-4.56-2.43.7-4.66,1.25-6.91-.68,1.05-.28,2.06-.39,2.92-.8,1.14-.55,2.83-.84,2.78-2.44-.05-1.51-1.82-1.08-2.75-1.66-1.04-.66-2.81-.48-2.65-2.39.23-2.89,2.47-.55,3.28-1.2,3.49-2.81,5.71-.09,8.11,1.65,6.78,4.91,14.65,2.37,15.58-5.33,2.36,1.35.23,4.81,2.86,5.78.86.32,1.77,1.41,2.58.34.3-.4-.32-1.5-.52-2.28l-.03.03Z"/>
      <path class="cls-7" d="M14.72,15.1c2.19-.54,3.64,1.42,5.75,1.77,3,.49-.63,3.47.33,5.29-.15.45-.26,1.26-.46,1.28-6.7.74-6.26,1.23-7.37,2.19-2.52,2.18-3.65,4.69-3.34,8.45-3.01-2.86-4.58-3.22-4.98,1.27-.22,2.53.66,6.29-3.65,6.93.52-11.11,3.86-20.79,13.71-27.19Z"/>
      <path class="cls-7" d="M3.81,51.21c3.06.71,2.78,3.18,2.98,5.49.49,5.85,1.44,11.34,7.22,14.8,4.01,2.4-1.21,2.39-1.35,3.79C4.47,67.6.45,58.05,0,46.91c-.04-1,0-1.98.86-2.7,3.9,1.1,1.69,4.76,2.92,6.98-.13.14-.27.29-.4.43.14-.14.28-.27.42-.41Z"/>
      <path class="cls-7" d="M29.88,27.19c1.29.09,2.73-.28,3.73.9,2.08,2.47,4.13,1.9,6.52.34,1.78-1.16,4.31-3.27,4.01,1.72-.14,2.43,4.81,3.72,7.89,1.83,2.93-1.8,5.05-2.88,5.9,1.78.47,2.55,3.32,1.02,4.84,2.64,6.57,7.02,14.93,11.83,22.6,17.51,1.74,1.29,3.68,1.82,5.46,1.99,3.61.34,6.15,2.21,8.58,4.48,3.06,2.86,6.44,5.02,10.57,6.11,1.34.35,3.99.03,3.26,3.18-.41,1.8,1.62,1.76,2.41,1.39,3.48-1.6,4.23.75,5.05,3.15-4.37-2.01-7.62,1.91-11.62,2.28-3.1.29-8.42-1.59-9.13-4.48-.47-1.9,1.97-1.48,2.29-3.3-3.33-.08-6.26-1.74-9.87-1.01-3.89.79-7.09-1.68-9.12-4.59-4.53-6.5-11.07-7.54-18.23-7.36,2.46-7.7,1.97-8.2-5.95-6.82-1.11.19-2.79.47-3.34-.11-2.88-3.08-6.38-3.57-10.23-3.03-1.05.15-1.55-.27-1.7-1.24-.92-6.27-4.31-4.3-7.92-2.14.03-3.17-.71-5.75-4.24-6.43-.8-.16-1.68-.85-1.51-1.74.78-4.13-.24-4.41-3.69-2.31-1.37.84-3.6,3.69-4.99,1.48-1.19-1.9-3.13-4.78-.95-7.64,2.32.37,1.55,3.18,3.1,3.92,1.47.16,0-7.03,3.63-1.25.96,1.52,1.55-1.13,2.61-1.24Z"/>
      <path class="cls-7" d="M125.22,95.53c-.92,2.05-2.41,3.09-4.06,2.42-1.68-.69-4.8.12-4.87-2.15-.09-2.9,3.29-3.62,5.38-4.1,2.56-.58,1.4,3.36,3.55,3.83Z"/>
      <path class="cls-7" d="M51.52,77.9c-.77,2.52-2.55,3.65-4.72,3.81-1.3.1-.84-3.77-.13-3.25,2.01,1.48,2.83-1.45,4.85-.55Z"/>
      <path class="cls-7" d="M69.47,88.6c2.19-.13,3.26,1.24,3.91,3.02.2.53.19,1.45-.15,1.81-.88.94-1.82-.07-2.71-.27-1.93-.42-.41-.96.02-1.42,1.93-2.05-1.89-1.27-1.07-3.15Z"/>
      <path class="cls-7" d="M120.79,75.18c.67.01,1.33.03,2,.04.04,1.29,1.19,3.09-1.23,3.35-1.23.13-2.98,0-3.31-1.3-.42-1.68,1.17-1.99,2.53-2.09Z"/>
      <path class="cls-7" d="M108.77,94.16c-.97-.13-1.9-.33-1.8-1.62.02-.21.38-.6.5-.57,1.16.29,1.14,1.3,1.28,2.21,0,0,.03-.03.03-.03Z"/>
      <path class="cls-4" d="M124.02,80.54c-.01.1.02.25-.04.29-.09.07-.23.06-.36.09.02-.17.03-.34.05-.51.11.04.23.09.34.13Z"/>
      <path class="cls-6" d="M40.35,6.29c2.77-1.5,5.69-1.45,8.23-.87,3.75.85-.48,3.52.76,5.47-2.22-3.41-5.52-4.01-8.99-4.59Z"/>
      <path class="cls-6" d="M117.35,25.68c-2.36,2.73-4.6,4.5-6.47.17-.31-.71-1.24-1.31-.42-2.13.7-.71,1.76-.5,2.18.16,1.11,1.76,2.82,1.76,4.71,1.8Z"/>
      <path class="cls-3" d="M137.75,57.21c-.08.14-.16.28-.24.42.07-.15.14-.3.22-.44,0,0,.03.03.03.03Z"/>
      <path class="cls-5" d="M3.81,51.21c-.14.14-.28.27-.42.41.13-.14.27-.29.4-.43,0,0,.02.02.02.02Z"/>
    </g>
  </g>
</svg>