<?xml version="1.0" encoding="UTF-8"?>
<svg id="Layer_2" xmlns="http://www.w3.org/2000/svg" viewBox="0 0 138.94 104.27">
  <defs>
    <style>
      .cls-1 {
        fill: #a6bc88;
      }

      .cls-2 {
        fill: #35481d;
      }

      .cls-3 {
        fill: #6a8f39;
      }
    </style>
  </defs>
  <g id="Layer_2-2" data-name="Layer_2">
    <g>
      <path class="cls-1" d="M133.66,53.2c1.07.94-.22,2.58,1.03,3.46-.45.52-.89,1.06-1.37,1.57-.17.18-.49.2-.65,0-.31-.42-.16-.92-.07-1.38.15-.82.73-1.85-.99-1.49-.6.13-.96-.47-.79-.97.24-.67-.13-1.41.43-2,.08.17.21.38.27.61.25.84.53,1.41,1.34.39.13-.17.53-.12.81-.18h-.01Z"/>
      <path class="cls-1" d="M130.21,65.04c.32-1.07.81-2.02,1.66-2.78.94.6.9,2,2,2.51.2.09.05.18-.06.26-.84.64-.28.82.33.86.48.03.7.2.69.68,0,.4-.04.87-.35,1.04-.43.23-.56-.47-.81-.52-1.23-.26-.89-1.15-.86-1.91.02-.6-.42-.86-.82-1.07-.77-.41-.49.42-.71.67-.3.35-.7.21-1.07.23,0,0,.01.01.01.01Z"/>
      <path class="cls-1" d="M131.31,58.22c-.09.17-.13.37-.21.39-1.2.27-1.03,1.76-2.03,2.27-.27.13-.43.47-.79.28-.37-.2-.3-.5-.19-.86.12-.37,1.71-1.1-.21-1.17-.39-.01-.07-.46-.03-.71.07-.4.23-.44.58-.24.5.3,1.01.44,1.19-.37.1-.49.33-1.1.84-.96.56.14.24,1.07.84,1.38Z"/>
      <path class="cls-1" d="M124.07,62.78c-.24-1.55,1.1-1.7,1.73-2.67.13,1.32-.3,2.84,2.1,2.35-.99.77-1.63,1.7-2.27.4-.49-.99-.91-.81-1.56-.07Z"/>
      <path class="cls-1" d="M122.13,39.36c0-.54.51-.76.77-1.14.23-.34.71-.29.8.07.19.83.92,1.57.45,2.51,0,0,.01-.01.01-.01-.61-.03-.99-.39-1.15-.93-.14-.51-.49-.52-.89-.51h.01Z"/>
      <path class="cls-1" d="M133.67,53.21c.03-.23.01-.49.36-.45.04,0,.1.21.1.22-.15.08-.31.15-.47.22,0,0,.01.01.01.01Z"/>
      <path class="cls-1" d="M131.94,66.48s.04-.08.06-.13c-.02.04-.04.08-.07.12,0,0,.01,0,.01,0Z"/>
      <path class="cls-1" d="M127.49,79.68c-.4-.24-.61.52-.93.08-.2-.28.04-.53.23-.75.18-.21.33-.49.56-.62.93-.55,1.49-1.26,1.23-2.42-.05-.24-.16-.61.22-.74.39-.13.4.28.59.44,1.09.91.48,2.3.98,3.37.1.22-.19.63-.63.34-.27.5-1.12.11-1.24.78-.1.56-.43,1.03-.91.85-.62-.22-.05-.82-.09-1.33Z"/>
      <path class="cls-1" d="M126.45,67.34c.25-.13.54-.23.76-.41.89-.75.95-.23.99.57.1,1.81.66,2.35,2.53,2.48.33.02.61.06.59.42-.02.46-.36.64-.79.66-1.99.12-4.01-1.73-4.07-3.73,0,0,0,0,0,0Z"/>
      <path class="cls-1" d="M125.12,75.15c.09-.44.6-.34.84-.65.29-.38.57,0,.8.21.37.35.19.74-.06,1-.47.49-.47-.1-.6-.33-.24-.43-.73.22-.98-.24Z"/>
      <path class="cls-1" d="M123.36,77.69c-.15.44-.19.61-.27.77-.19.4.01,1-.58,1.18-.19.06-.3-.13-.36-.33-.17-.61.2-.97.58-1.32.09-.09.24-.12.62-.29Z"/>
      <path class="cls-1" d="M124.25,72.4c.77.08,1.22.13,1.68.18-.17.43-.32.79-.48,1.19-.34-.39-.66-.76-1.2-1.37Z"/>
      <path class="cls-1" d="M126.75,76.87c-.09.07-.18.15-.27.22-.03-.05-.07-.1-.1-.15.12-.03.23-.06.35-.09,0,0,.02.02.02.02Z"/>
      <path class="cls-1" d="M123.88,72.8c.04.05.08.11.11.16-.05-.04-.11-.08-.16-.11,0,0,.05-.05.05-.05Z"/>
      <path class="cls-1" d="M126.73,76.85s.09-.09.14-.13c-.04.05-.08.1-.12.15,0,0-.02-.02-.02-.02Z"/>
      <path class="cls-1" d="M122.12,39.35c.4,0,.75,0,.89.51.15.54.54.9,1.15.93-.23.24-.44.5-.7.7-.29.22-.62.59-1,.27-.36-.3-.76-.77-.43-1.22.32-.44.12-.8.09-1.2Z"/>
      <g>
        <path class="cls-3" d="M87.23,104.27c-4.74-.04-9.45-.66-14.18-.82-3.03-.1-5.98-.65-8.97-.94-4.09-.39-8.14-1.05-12.18-1.74-2.82-.48-5.68-.72-8.45-1.49-1.51-.42-3.05-.86-4.6-.98-1.2-.1-2.15-.73-3.26-.99-3.53-.83-7.19-1.11-10.56-2.57-2.72-1.17-5.68-2-8.05-3.67-2.77-1.96-5.58-4-7.67-6.86-1.51-2.07-1.96-4.6-3.46-6.65-1.8-2.45-2.79-5.32-3.75-8.16-.62-1.85-1.02-3.77-1.47-5.67-.3-1.24-.71-2.43-.61-3.77.11-1.48.92-2.73.96-4.27.25-8.17,3.44-15.39,7.81-22.11,4.06-6.26,8.98-11.81,14.53-16.84,5.6-5.08,11.72-9.3,18.73-12.12C48.43,2.03,55.08.45,62.01.11c5.68-.28,11.32-.08,16.84,1.37,6.52,1.72,12.75,4.19,18.55,7.69,8.66,5.23,16.09,11.89,22.95,19.27,4.06,4.36,7.49,9.18,10.79,14.09,3.61,5.37,5.91,11.27,6.58,17.74.29,2.78,1.49,5.42,1.17,8.3-.57,5.1-1.86,9.9-4.63,14.33-1.43,2.29-3.03,4.5-4.27,6.91-.67,1.31-1.68,2.26-2.78,3.2-3.87,3.31-8.31,5.67-13.04,7.36-5.53,1.97-11.28,3.11-17.2,3.36-3.25.14-6.48.55-9.74.54ZM94.99,62.73s-.02-.07-.05-.1c-.01-.02-.05-.01-.08-.02.04.04.08.08.13.12.01.04.02.08.04.11.01.02.05.02.08.02-.04-.04-.09-.09-.13-.13ZM7.84,56.95c.07.15.14.3.23.45,0,.01.21-.05.21-.09.04-.32-.21-.34-.44-.36-.29-.56-.78-.81-1.39-.8-.24,0-.31.24-.19.42.36.54.94.34,1.44.39.05,0,.1,0,.14,0ZM82.29,45.13c0-.22.45-.21.26-.51-.03-.04-.19-.04-.26,0-.31.17-.22.34.01.51-.63.43-.26.97.03,1.26.5.48.93-.39,1.63-.07-.5-.77-.87-1.31-1.68-1.18ZM25.16,45.12s.02.07.04.1c.01.02.05.02.07.02-.04-.04-.08-.07-.12-.11.69-.4,1.37-.81,1.4-1.74,0-.26-.05-.49-.33-.52-.39-.05-.25.24-.29.46-.06.4-.09.92-.71.81-.33-.06-.57-.06-.61.33-.04.39.15.63.55.67ZM96.15,39.65c-1.11-.09-.84-.93-.87-1.61-.02-.35-.06-.73-.54-.61-.37.09-.33.45-.19.7.46.85.26,1.93.88,2.78.46-.38.67-.78.71-1.27.02-.03.05-.07.07-.1l-.07.11ZM121.54,58.97c1.72-.34,1.21,1.09,1.45,1.99.53-.48-.04-1.23.54-1.57.63.19.46,1.16,1.24,1.22-.17-1.18-2.33-2.96-3.41-2.77-1.16.2-.33.73-.11,1.14.03.12.06.35.09.35.26.01.16-.22.19-.36ZM106.25,69.36c.52-.06.88-.67,1.56-.34.42.21.88-.06,1.3-.38.59-.45-.4-.82-.04-1.2.7-.11,1.55,1.18,1.97-.02.43-1.22-.66.03-1.08-.43-.93-1.04-1.35-.23-1.53.76-.04.24-.15.74-.48.49-1.63-1.19-1.35.42-1.71,1.11-.08.09-.15.18-.23.28.05.03.1.06.15.09.03-.12.05-.24.08-.36ZM6.98,48.87c-1.44.36-1.45,1.03-.05,2.65,1.24-.64.99-2.08,1.65-3.05.28-.4-.2-.69-.51-.89-.32-.21-.63-.17-.85.21-.2.34-.31.7-.26,1.1h.01ZM133.67,53.21c-.28.05-.68.01-.81.18-.82,1.02-1.1.45-1.34-.39-.07-.23-.2-.45-.27-.61-.55.59-.19,1.33-.43,2-.17.5.19,1.09.79.97,1.72-.36,1.14.67.99,1.49-.09.47-.24.96.07,1.38.15.21.48.18.65,0,.48-.5.92-1.04,1.37-1.57-1.25-.88.04-2.53-1.03-3.46.16-.07.32-.14.47-.22,0,0-.05-.21-.1-.22-.34-.04-.33.22-.36.45ZM99.9,60.7c.33,0,.72-.07.84.36.14.52-.02,1.34.92,1.02.77-.26.71-1.06.53-1.6-.45-1.36.32-1,1.1-.68-.11-.53,0-.99-.49-1.17-1.43-.52-1.6-.84-1.05-2.09.13-.29.01-.57-.21-.54-.86.1-.67-.31-.52-.84.09-.33.21-.81-.28-.99-.45-.17-.89.01-1.18.33-.31.34-.39.92,0,1.15,1.45.81-.13.93.03,1.51-.99-.56-.68-1.34-.93-1.93-.31-.74-.91-.63-1.47-.98-.12,1.78,1.67,2.69,1.5,4.31,0,.06.22.15.35.23.76.43,1.01,1.08.88,1.92-.19,0-.38,0-.57.02-.32.02-.56.16-.55.51,0,.16.1.41.22.46.31.12.56-.11.71-.33.12-.17.12-.44.17-.67ZM122.13,39.36c-.43,0-.93-.13-1.28.04-1.15.54-1.33.25-1.09-.93.26-1.24-.33-1.77-1.81-1.82.52.53,1.18,1.04.21,1.71-.4.28-.23.53.05.81.31.31.35.76.48,1.13.21.6,0,1.63,1.01,1.85.49.1.84-.11,1.17-.4.18-.16.09-.69.51-.49.2.09.39.5.35.72-.18.95.66,1.63,1.08,1.78,1.08.39,2.32.36,3.5.47.32.03.71.12.91-.24.21-.37.13-.78-.19-1.05-1.03-.88-1.38-1.95-1.07-3.26.03-.13-.13-.39-.26-.46-.31-.16-.38.17-.5.35-.3.45-.04,1.39-1.05,1.21.47-.94-.26-1.69-.45-2.51-.08-.36-.56-.41-.8-.07-.26.38-.76.6-.77,1.14ZM107.4,70.8h0c-1.79-1.94-.79,1.48-1.88.87.22-.87-2.55-1.44-.18-2.6-2.3-.89-3.1-.56-3.66,1.63-.11.44-.96.77-.35,1.34.83.78,1.84,1.53,2.93.84,1.27-.81,1.99-.55,2.55.7.15.34.4.45.68.36.55-.17-.17-.4,0-.62.26-.34.47-.72.78-1,.16-.15.45-.01.64.18.51.51.61,3.18.16,3.89-.73-.61-.2-1.53-.43-2.34-.17.16-.29.22-.29.28,0,.93-.82.88-1.35.97-.69.11-.84-.29-.43-.86-.25-.11-.49-.26-.75-.32-.32-.07-.46.18-.37.43.23.63-.41.77-.57.65-1.03-.74-1.28.38-1.86.7-1.11.62-.44,1.43.14,1.45.86.03,1.53-.26,1.14,1.01,0,.02.17.14.24.13,1.6-.24,1.35,1.17,1.78,1.98.24.45.06.74-.36.9-.52.2-.52-.18-.59-.53-.09-.5-.36-.51-.69-.2-.8.75-.85.78-1.38-.24-.16-.31-1.26-.31-.41-1.1.29-.26-.27-.32-.5-.43-2.09-.97-3.77.86-5.72.85-.08,0-.16.41-.24.62h0c-.56.03-.84-.68-1.43-.55-.22.13-.05.34-.1.5-.12.38-.14,1.03-.72.83-.65-.22-.11-.77,0-1.09.34-1.06.32-2.01-.37-2.9-.28-.36-.37-.72-.51-1.11-.09-.25-.25-.43.09-.53.58-.17.57-.61.8-1.06.69-1.33-.13-1.28-.94-1.43.91-.51,1.76-1.8,2.63-.06.04.09.3.16.39.11,1-.53,1.69.41,2.71.58-.34-.77.05-1.21.61-1.49.56-.27.82-.77,1.19-1.21.35-.42.82-.86.41-1.36-.36-.44-.99-.23-1.49-.09-.62.16-.95.6-1.05,1.23-.07.49,0,1.04-.58,1.52-.08-.59-1.2-.84-.58-1.37.77-.67,1.02-.89-.11-1.25-.1-.03-.05-.53-.07-.82h0c1.32-1.4,1.08-2-1.16-2.88.02.3-.06.66.24.78.58.22,1.23.5.72,1.16-.35.44-.78,1.34-.83,1.32-1.13-.52-1.98.63-3.01.48h0c-.03-.49.39-.62.7-.8.33-.2.59-.52.3-.8-1.05-1.01-1.25-2.04-.34-3.25.23-.31.12-.67-.28-.81-.42-.15-.63.07-.66.49-.02.24-.02.48-.05.72-.03.29-.24.4-.5.41-.6.02-.21-.3-.18-.51.03-.24-.17-.34-.37-.31-1.39.18-1.49-.82-1.6-2.11-.22.36-.28.49-.37.6-.29.34-.72.46-1.02.19-.5-.46.01-.59.35-.78.2-.11.22-.34,0-.44-.3-.14-.88-.32-.9-.28-.56,1.25-1.92.5-2.73,1.12-.54.42-1.17.69-1.77.03-.39.37-1.06-.61-1.1.02-.05.75-1.06,1.52-.07,2.3.16.13.11.37-.07.5-.1.08-.36.13-.36.13-.24-.61-.6-1.11-1.23-1.32.19-.47.86-.07.87-.69-.51-.24-1-.59-1.39.23-.46.96-.96.38-1.39-.04-.44-.42-.23-.99-.27-1.51h-.01c.25-.12.64-.19.74-.39.27-.55.46-1.16.61-1.76.1-.38.41-.97-.47-.86-.02-.69-.18-1.37,0-2.09-.25.21-.51.43-.52.67-.1,1.67-1.47,1.7-2.53,1.8-1.17.11-2.36-.15-3.25,1.14-.05-.73-.05-1.21-.12-1.68-.02-.16-.19-.34-.35-.42-.19-.1-.42,0-.41.23.04.96-1,.86-1.43,1.35.52.51,1.75.8.36,1.62-.26.15-.04.54-.07.8-.11.98-.05,2.14-1.54,2.17-.23,0-.5.07-.68.2-1.33,1.08-3.14,1.07-4.54,1.99-.29.19-.54-.08-.81-.17,0,0,0,0,0,0-.04-.47-.05-.95-.13-1.42-.04-.21-.05-.39.14-.49.1-.05.29-.02.39.05.29.19.34,1.09.85.52.42-.48.72-1.28.67-1.91-.06-.78-.24-.83.61-.79.83.03,1.33-.71,1.28-1.08-.12-.88-.46-1.68.2-2.5.11-.13-.11-.42-.3-.4-1.38.13-.81-.87-.83-1.55-1.37,1-1.39,1.11-.3,2.35.42.48.4.76-.25.86-.54.08-1.28.02-1.33-.53-.09-.79-.8-1.15-.95-1.71-.24-.9-.91-.9-1.48-1.13-.3-.12-.73-.13-.8.33-.06.38.23.77.56.69.89-.24.82.46,1.08.91.39.69.28,1.36.02,2.04h0c-.85-.36-1.2-3.15-2.66-.55-.13.22-.39.31-.62.18-.16-.08-.3-.24-.38-.4-.03-.06.1-.28.19-.32,1.7-.66.23-1.01-.17-1.31-.75-.55-1.8-.52-2.42-1.42-.28-.41-.72-.06-.82.36-.09.36-.03.76-.04,1.14-.04.01-.08.02-.1.04-.02.01-.02.05-.03.07.04-.04.08-.08.13-.12.49.05.96-.52,1.37-.22.57.42-.11.76-.21,1.15-.1.38.41.22.6.41.38.39,1.07,1.08.79,1.29-.71.52-1.43,1.51-2.48,1.08-.72-.29-1.03-.04-1.54.41.9.42,1.93.33,2.39,1.35-1.25.09-1.31.92-1.11,1.86.08.36.42.76-.14.96-.31.11-.75.56-1,.07-.22-.44-.74-1,.03-1.5.4-.26.6-.73.31-1.12-.31-.43-.7-.06-1.11.04-1.15.27-.75,1.07-.79,1.74h.01c-.55.05-1.06-.37-1.22-.64-.51-.83-.76-.56-1.26-.02-.58.64-.77,1,.07,1.67.53.42,1.23.56,1.82,1.11-.35.15-.55.27-.77.32-.75.18-1.46.19-1.69-.76-.27-1.14-1.17.11-1.57-.43-.15-.2-.3-.5-.51-.2-.7,1.02-.78.25-.94-.29-.15-.52-.84-.98-.9-.61-.11.73-1.55.86-.76,1.93.2.28-.33.84-.8.98-.25.08-.53-.23-.37-.44.69-.94-.02-1.55-.46-2.23-.19-.3-.23-.66-.09-.97.2-.42.56-.14.88-.12.47.03,1.19.58,1.26-.52.02-.28.37-.21.56-.04.71.65.61,0,.7-.41.16-.73-.36-1.57.35-2.37.15.45.19.8.36,1.07.2.31.23,1.19.67.8.45-.39,1.67-.81,1.05-1.68-.79-1.13.04-1.93.06-2.98.23.17.31.22.38.28.62.59.61,2.24,2.15,1.26.57,1.43,1.37.4,1.96.09.7-.36,1.08-.06,1.54.41-.13-.75.12-1.69-1.2-1.4-.41.09-1.1.02-.98-.77.07-.47-.35-.35-.53-.47-.53-.35-.26.25-.39.38-.35.37-.76.78-1.27.66-.56-.14-.71-.78-.84-1.26-.16-.58.72-.66.78-1.25.02-.22.12.1.19.13.7.33,1.51.74,2.1.07.52-.58,1.07-.51,1.67-.56.01.04.02.08.04.11.01.02.05.02.08.02-.04-.04-.08-.09-.12-.13.02-.28-.04-.73.26-.76,1.08-.1,1.44-1.15,2.32-1.62.13.36.33.71.39,1.07.19,1.16,1.03,1.06,1.86,1.01.37-.02,1.01.08.97-.33-.06-.66-.55-1.13-1.32-1.21-.17-.02-.36-.51-.47-.48-.82.2-1.4-2.03-2.44-.24-.08.13-1.29.79-1.76.38-.83-.74-1.76-.44-2.63-.59-.83-.15-1.64.57-1.63,1.21.04,1.54-1.21,1.57-2.03,2.1-.2.13-.62.07-.69-.3-.08-.39.16-.52.52-.41.57.18.63-.33.9-.6-1.2.36-1.54-.36-1.76-1.26-.06-.26.28-.68-.07-.76-1.65-.35-.83-1.15-.25-1.92-1.06-.27-1.99-.5-3.1-.78.26.75,1.22.98.81,1.71-.37.67-1.2.57-1.65.36-1.12-.52-2.05.16-3.14.18.63.46.73,1.11.93,1.74.09.29.43.68.76.48.41-.25.16-.54-.17-.76-.57-.38-.2-.76-.05-1.16.75.53,1.47,1.08,1.06,2-.53,1.19-.27,1.63,1.16,1.94.56.12,1.2.79.54,1.2-.77.48-.37.92-.23,1.3.33.9.35,1.58-.89,1.86.38.34.63.55.86.79.31.33.36.72-.04.97-.3.19-.74.1-.83-.28-.34-1.44-1.31-2.61-1.67-4.02-.18-.68.05-1.49-.18-2.13-.32-.88-1.48.04-2-.71.19-.33.89.13.83-.46-.05-.53-.58-.61-1-.62-.67-.03-.92.41-.9,1.03.03.83-.72.61-1.14.81-.45.22-.69-.05-.9-.43-.3-.55.21-.63.46-.86.25-.24.52-.49.32-.86-.24-.43-.7-.18-1.05-.28.29-1.35-.41-2.5-.69-3.76-.28.65-.62,1.36-.42,1.88.24.65-.26,1.88,1.12,1.88-.01,1.22-.45,1.45-1.49.74-.65-.44-.93-1.05-1.26-1.7-.59-1.17-1.98-1.24-2.96-1.88-.54,1.95,2.02,1.37,2.35,2.87-1.16-.26-1.9.19-2.38,1.25-.09.19-.62.93-1.28.55-.28-.16-.7-.24-.68-.65.03-.58.56-.55.96-.66.44-.12.39-.49.39-.81,0-.19-.1-.47-.29-.33-.55.39-.85.27-1.05-.34-.24-.71-.04-1.43.43-1.85,1.07-.99,1.38-2.25,1.69-3.62-.55,0-.84.6-1.35.39-.02-.19-.04-.37-.07-.56-.06.03-.16.05-.16.09-.04.21.04.37.24.46.1.98-.73.99-1.26,1.34-.48-.68.19-1.92-.49-1.93-1.06-.02-.01,1.24-.56,1.75h-.01c-.24.02-.49.06-.72.03-.72-.12-1.87.58-1.83-1.08,0-.38-1.02-.56-1.65-.65-.08,1.36-1.24.29-1.75.76-.16.14-.67-.08-.4-.42.2-.26.47-.28,0-.49-.37-.16-.74-.22-1.12-.09-.27.09-.37.45-.2.58.54.44.21,1.35.95,1.66.5.21.33.49.07.77-.24.25-.55.52-.85.16-.43-.52-1.07-.86-1.32-1.66-.34.74-.61,1.33-.87,1.89.34.52.68-.39.99.05.2.3-.46.7.04.97.44,0,.31-.86.63-.55.25.24.66.79.59,1.11-.12.56-.75.74-1.35.78q1.48.47,1.35,2.43c-.49,0-.27-.86-.72-.7-.85.3-1.06.08-.98-.78,0-.11-.51-.87-1.05-.72-.7.2-.18.73-.14,1.08.14,1.1.87,1.74,2,2.17-.87.39-1.56.84-2.35.11-.21-.2-.47-.08-.62.12-.07.09-.04.26-.05.39.69-.09.54,1.74,1.68.72.26-.23.52.2.61.42.44,1.12.19,1.85-1.33,1.87,1.11.46,1.49,1.36,1.94,2.18.25.47.76,1.13.07,1.51-.56.3-1.44.65-1.91-.21-.27-.49-.6-.73-.98-.43-.39.3-.71.84-.23,1.35.63.66.17,1.12-.34,1.32-.62.24-1.38.31-1.59-.64-.1-.46-.05-.98-.24-1.4-.18-.4-.34-1-.93-.97-.64.03-.62.59-.69,1.07-.07.42-.01,1.11-.72.96-.64-.14-.89-.12-.41.49.38.48.08.88-.13,1.16-.32.43-.5-.25-.82-.26-.19,0-.41-.03-.55-.14-1.02-.75-1.01.55-1.42.83-.51.35.18.6.57.76.33.14.85.17.78.69-.21,1.68,1.05,1.95,2.2,2.31.16.05.38-.05.46.17.07.2-.02.41-.22.47-.53.17-1.07.6-1.61.09-.54-.51-1.02-.79-1.7-.16-.26.24-.78.13-.57-.38.53-1.28-.1-1.55-1.46-1.37,1.04-1,.29-1.56-.11-2.22-.4-.67-.47.42-.81.11-.26-.23-.75-3.03-.49-3.35.49-.58.56-1.13.15-1.81-.47.34-.17.64-.16.94.02.41-.32.52-.56.3-.64-.58-.55-1.25-.14-1.95.47-.81,1.29-.33,1.42-.06.48,1.01,1.14.62,1.74.35.48-.21.82,0,.97.29.3.59-.29.5-.61.65-1.43.66-1.78,2.3-.7,3.16-.04.02-.08.03-.11.05-.02.02-.01.06-.02.09.05-.04.09-.09.14-.13,1.21-.45,2.27-.82,2.84-2.34.42-1.12.29-2.18.55-3.23.06-.26.02-.79.56-.6.39.14.33.51.35.86.01.35-.73.59-.33.75.62.25,1.12,1.25,1.88.68.72-.54.74-1.41.23-2.18-.28-.42-.67-.77-.93-1.19-.09-.15.11-.49-.14-.64-.38-.24-2.04.87-1.91,1.32.19.69-.32.88-.7,1.07-.51.25-.57-.37-.78-.61-.31-.35-.5-.81-.39-1.33.07-.32.49-.77-.18-.91-.46-.1-.65.32-.84.65-.41.72-.16,1.51-.22,2.26-.02.28.04.61-.3.73-.35.12-.48-.22-.7-.38-.99-.72.47-.97.3-1.36-.49-1.1-.14-2.12,0-3.2.07-.5-.32-.99-1.03-.74h.01c.02-.27.02-.56.05-.85.04-.39.49-.84-.13-1.11-.46-.2-.83.12-1.2.32-.48.26-.45.64-.31,1.11.15.51.33,1.08-.23,1.69-.34-1.1-.34-2.23-1.35-2.94.01.33-.04.64.05.89.65,1.79.23,3.54.03,5.34-.1.98-.76,2.35.57,2.96.74.34.73.55.42,1.09-.21.35-.12.7-.1,1.09.09,1.35.69,2.55.96,3.85.61,2.83,2.62,4.86,4.3,6.99,3.19,4.06,6.79,7.76,11.16,10.66,2.92,1.94,6.06,3.34,9.23,4.73,3.12,1.37,6.42,2.18,9.72,3.01,6.6,1.64,13.33,2.47,20.02,3.57,4.34.71,8.73,1.05,13.09,1.56,4.33.51,8.66.82,13.01,1.01,3.01.14,6.03.04,9.06-.18,3.15-.22,6.29-.45,9.41-.94,6.22-.97,12.07-2.94,17.27-6.58,2.8-1.96,5.03-4.54,7.45-6.92,3.93-3.86,7.44-7.98,8.95-13.43.44-1.58.85-3.18.68-5.02-1,1.45-1.15,1.44-2.06.04-.28-.43-.6-.4-.98-.18-.17.1-.22.21-.24.44-.02.31,1.28-.24.31.51-.3.23-.98.42-1.03.15-.19-1.1-1.08-.67-1.65-.88-.92-.35-.74-1.4-1.31-1.96,0,0,.15-.27.24-.27.72-.04.68.81,1.18,1.04.04.02.09,0,.17,0,.54-.55-.11-1.05-.08-1.58.02-.04.04-.08.07-.12-.02.04-.04.08-.06.13-.97-.02-1.29-.82-1.74-1.46.37-.02.77.12,1.07-.23.22-.25-.06-1.08.71-.67.4.21.84.47.82,1.07-.03.76-.38,1.65.86,1.91.26.05.38.75.81.52.32-.17.35-.65.35-1.04,0-.48-.21-.65-.69-.68-.61-.04-1.17-.22-.33-.86.11-.08.26-.17.06-.26-1.1-.5-1.05-1.91-2-2.51-.85.75-1.35,1.71-1.66,2.78-.13.04-.36.05-.39.13-.47,1.12-1.01,1.37-1.97.39-.34-.35-1.05-.43-1.6-.46-.4-.03-.86.21-.93.73-.06.51.22.62.71.59.81-.04.26.62.42.93h0c-.19-.02-.4.01-.57-.06-.48-.19-1.12-.31-1.21.22-.07.41.55,1.02-.32,1.15-.73.11-.64-.67-.86-1.09-.15-.29-.34-.5-.64-.19-.19.19-.53.47-.22.71.81.61.94,1.36.7,2.27-.05.19.16.4.36.31,1.33-.57.85.85,1.67,1.25-.86.09-1.78-.25-1.48.89l-.05.05c-.39,0-.8-.04-.83.53-.04.87.74.96,1.42,1.22-.72.45-1.99.24-1.89.6.29.99-.67,1.28-.76,1.99-.03.28-.39.61-.61.37-.39-.41-1.17-.32-1.31-1.01-.09-.48.25-.55.61-.58.37-.03.48-.26.46-.59-.02-.2-.09-.46-.29-.42-1.36.29-.43-.61-.53-.98.91-.06,1.26-.53,1.19-1.46-.02-.25.4-.53-.08-.76-.22.52-1.08-.48-1.18.54-.06.57-.09,1.1.04,1.65-.23-.06-.46-.16-.69-.17-1.08-.05-.51,1.21-1.19,1.54-.15.07.1.41.32.53.73.38.61-.47.96-.84-.06,1.75-.53,2.19-1.84,1.77-.89-.28-.94-1.11-.99-1.88-.03-.49.1-1.22-.55-1.16-.56.05-.59,0-.42-.42.31-.8-.48-1.17-.81-1.31-.67-.28-1.29-.43-1.51-1.25-.09-.32-.48-.28-.75-.18-.26.1-.37.5-.19.56.79.24.17,2.11,1.7,1.45.19-.08.54.27.24.4-.61.27-.21.51-.16.84.08.51-.16.95-.71.42-.81-.78-.9.15-1.13.49-.2.29-.13.74-.26,1.1-.19.52-.73.63-1.18.66-.58.05-.79-.57-.97-.93-.3-.59.49-.36.68-.65.34-.52.99-.84,1.08-1.64-.35.08-.64.06-.79.2-.25.24-.34.71-.85.46-.48-.24.03-.59-.08-.88-.49-1.31.26-2.42.6-3.74-.96.47-2.28-.02-2.65,1.43-.02.06-.36.04-.54.06ZM96.58,64.39c.68.35.51,1.84,1.82,1.29.91,1.37,1.86.77,2.71-.01.55-.51.95-.85,1.35.07.19.44.46.41.79.18.46-.33.14-.67-.1-.79-.96-.48-1.07-1.39-1.26-2.39-.41,1.38-1.41,1.05-2.22.87-.73-.17-1.86.85-2.22-.7-.06-.25-.81-.82-1.12-.52-.61.58.63.49.53,1.01-.47.37-1.4.3-1.27,1.26.02.16.17.42.29.44.51.08.34-.62.71-.71ZM63.56,51.45c-.08-.45.09-.95-.36-1.22-1.27-.74-2.78-.91-4.01-1.77-.42-.3-.48.19-.58.52-.16.5-.31,1.23-.92.22-.31-.51-.73-.09-.92.17-.3.4.2.46.38.68.32.41,1.93.32.69,1.47-.13.12.48.62.61.46.69-.83,1.32-1.62,2.26-.28.72-.54,1.11-.06,1.53.47.21.26.5.4.85.06.24-.24.78-.27.49-.78ZM117.87,73.37c.19-.02.38-.03.56-.07,2.35-.47-.03-2.07.69-3,.29-.37-.11-.78-.61-.89-.29-.07-.73.17-.83-.32-.05-.26-.25-.71-.33-.31-.13.62-1.39.25-.84.92.61.74.31,1.36.12,1.99-.37,1.2.13,1.63,1.25,1.68ZM65.15,53.71c-.9.33-1.47-.37-2.16-.59-.33-.11-.67-.33-.92-.08-.2.19-.37.76-.27.85.45.4.44,1.12.79,1.37.29.21,1.28.02,1.45-.13,1.43-1.19,2.65-.52,4.01.29.2-.81-.19-1.59-.49-2.04-.39-.59-.43.68-1.07.54.26-1.76-1.25-1.29-2.13-1.66-.15.67.53.92.78,1.45ZM26.56,45.72c-1.55,1.76-1.56,1.77-3.46.27-.79-.62-1.12.39-1.72.5-.36.06.22.44.36.69.39.68.89.98,1.71.83.67-.12.63,1.04,1.58.89,1.15-.18.28-1.26.71-1.36,1.2-.27.78-1.09.82-1.82ZM131.31,58.22c-.6-.31-.28-1.23-.84-1.38-.52-.13-.74.47-.84.96-.17.82-.69.67-1.19.37-.35-.21-.52-.16-.58.24-.04.25-.36.7.03.71,1.92.07.33.8.21,1.17-.11.37-.18.67.19.86.35.19.52-.15.79-.28,1-.51.83-2,2.03-2.27.08-.02.12-.22.21-.39ZM7.33,55.63c.78.23.96,1.27,1.87.82.03-.02.29.25.31.4.25,1.91,1.86,1.61,3.09,2.13-.73-2.73-2.42-3.76-5.27-3.35ZM107.66,31.96c-.32.22-.8.47-1.17.82-.77.73-.92,1.61-.51,2.61.27.66.65.33,1.05.23.48-.13.69-.31.31-.78-.31-.37-.38-.83-.09-1.19.53-.64.41-1.34.4-1.7ZM50.65,47.4c-.96-.15-1.19,1-1.09,1.09.57.48.02,1.69.86,1.67.75-.02,1.65-.39,1.83-1.41-.88-.03-.51-1.62-1.6-1.34ZM74.66,42.05c-.5.11-.79.81-1.21.28-.46-.57-.73-.78-.97.11-.08.3-.31.34-.55.2-.25-.15-.49-.37-.64.09-.12.39.2.36.4.41,1.42.34,1.37.9.06,1.7,1.18-.15,2.73.42,1.96-1.66-.11-.31.26-.26.5-.28.45-.03.44-.39.45-.85ZM47.34,49.74c-.65.07-.52.72-.78,1.08-.34.47.07.62.38.86.42.33,1.21.13,1.32.93.03.27-.17.83.4.67.21-.06.69-.09.72-.56.03-.34.12-.6-.03-1.02-.32-.94-2.34-.25-1.72-1.9-.09-.02-.19-.04-.29-.06ZM45.91,50.92c-.01-.16.01-.47-.25-.26-.44.36-.87-.31-1.4.11-.25.2-1.39.88-1.57-.45-.03-.21-.26-.25-.46-.2-.3.08-.37.36-.3.56.26.69.46,1.45,1.02,1.97.27.25.88.6.79-.27-.1-1.03.56-.91,1.18-.94.41-.02.9.12.99-.52ZM14.42,62.37c1-.25,1.48-1.08,1.85-1.86.21-.44-.46-.76-.82-1.06-.34.87-1.63.84-1.8,1.84-.1.57.34.84.77,1.08ZM38.15,45.09c.08.12.17.22.24.34.2.35-.58.89.12,1.08.53.14.79-.46,1.06-.81.26-.33.41-.76.53-1.16.09-.33-.22-.68-.45-.48-.53.46-1.06.15-1.59.22-.53.07-.92.49-1.05,1.03-.06.24.13.47.38.55.69.2.28-.71.76-.77ZM10.15,40.68c.08-.27.19-.46.17-.63-.08-.57-.64-.46-1-.6-.24-.09-.57.28-.48.36.94.98.24,1.35-.56,1.75-.08.04-.12.44-.04.5.44.36,1.03.03,1.56.35.24.15.53-.45.53-.84,0-.32-.12-.65-.17-.89ZM124.07,62.78c.65-.73,1.08-.92,1.56.07.64,1.3,1.28.37,2.27-.4-2.4.49-1.97-1.02-2.1-2.35-.63.98-1.97,1.13-1.73,2.67ZM75.41,58.63c-.88-.35-1.41-.96-1.88-1.64-.6.59-1.5.27-2.12.67-.22.14-.12.79.51.62.87-.22,1.52-.04,2.04.76.22.35.69.28,1.05.09.14-.07.22-.27.41-.5ZM119.89,63.66c.75,1.62,1.94,1.58,3,1.94.72.24.76-.11.86-.45.18-.57-.16-1.07-.7-.92-1.05.3-1.97.11-3.17-.57ZM71.29,40.27c-.39-.63-.9-1.3-1.01-2.17-.03-.22-.44-.23-.63-.11-.48.3-.55.87-.67,1.35-.1.42.38.51.68.55.49.06.8.2.84.76.02.28.24.41.51.32.28-.09.26-.36.28-.7ZM73.5,17.1c0-1.72-1.38-1.46-2.21-1.82-.36-.15-.56.45-.66.79-.17.58.38.34.6.49.7.47,1.56-.2,2.26.54ZM110.85,49.61c-.19-.94.5-1.56.41-2.38-.03-.28.13-.62-.3-.6-.44.01-1.03-.34-1.27.2-.07.17-.56.56-.08.92.58.43.71,1.18,1.24,1.87ZM71.12,63.05c-.78-.95-2-1.14-2.08-.71-.13.78-.56.99-1.02,1.35-.24.19-.27.55-.08.78.3.36.48-.18.67-.16,1.16.09.94-1.82,2.5-1.26ZM15.04,56.91c-.06-.22.12-.81-.44-.74-.82.1-1.29.72-1.45,1.51-.08.38.15.71.55.61.65-.18,1.49-.23,1.35-1.37ZM24.6,40.79c.51.02,1.1-.07,1.05-.66-.06-.75-.87-.85-1.42-.91-.37-.04-1.06.32-.99.81.09.63.73.8,1.35.77ZM16.88,40.53c-.54.1-1.2.08-1.23.87-.02.43.17,1.09.55.99.55-.15,1.38-.25,1.51-.98.08-.41-.14-.98-.84-.88ZM80.63,59.58c.2.89.33,1.39.43,1.89.05.26.23.62-.13.74-.3.1-.78,0-.54.52.11.25.56.07.86.31.31.24.48-.25.51-.47.13-1,.29-2.05-1.13-2.98ZM122.61,52.01c.28-.91-.17-1.76-.22-2.65-.01-.26-.15-.44-.45-.43-.24,0-.28.2-.36.37-.58,1.27.26,1.98,1.02,2.71ZM18.16,43.56c-.54.38.89,1.84-.88,1.3-.25-.08-.51-.43-.7-.06-.2.38.14.65.46.73.64.17,1.43.74,1.6-.58.05-.37.4-.7.67-1.12-.46-.11-.85-.2-1.14-.27ZM84.01,60.89c.42-.11,1.07.45,1.06-.3-.01-.75-.85-1.03-1.39-1.19-.48-.14-.75.6-.74,1.03.01.9.7.46,1.08.47ZM106.48,31.41c.52-.63.68-1.3.59-2.02-.05-.36-.24-.66-.64-.59-.31.06-.7.18-.85.41-.18.29.18.48.43.6.75.35.46,1,.47,1.59ZM70,23.25c-.43,1.36,1.08.15.85,1.08.21-.32.58-.65.59-.98.02-.61-.6-.9-1.05-.9-.77-.01-.35.71-.39.8ZM10.54,53.11c.56-.16.93-.59,1.5-.48.34.07.72-.04.63-.52-.07-.38-.5-.63-.74-.52-.61.28-1.5.39-1.39,1.52ZM98.39,40.84c-.67-.12-.93.25-.98.69-.05.48.29.87.76.86.64-.01.59-.69.73-1.09.2-.56-.33-.41-.51-.46ZM57.35,10.69c-.82-.1-.33-1.56-1.49-1.42-.27.03-.38.23-.28.33.46.5.61,1.27,1.28,1.57.12.05.46-.11.5-.49ZM117.18,40.77c.01-.52-.32-.54-.67-.58-.71-.07-.77.47-.83.92-.04.3.05.79.48.71.53-.11.84-.58,1.02-1.06ZM14.72,51.32c-.1-.74-.18-1.38-.27-2.02-.06-.4-.38-.53-.71-.53-.21,0-.35.22-.25.4.37.69.17,1.72,1.23,2.15ZM28.97,26.23c.02.73-.92.69-.92.87.02.74.45,1.28,1.23.7.81-.59-.32-1-.32-1.58ZM29.73,47.09c1.02-.32,1.41-.85,1.07-1.55-.46-.94-1.15.07-1.77-.11.42.46,2.53-.15.7,1.67ZM52.12,63.67c-.2-.4-.47-.64-.9-.66-.48-.02-.71.21-.7.69,0,.35,0,.73.48.72.51-.02.82-.39,1.12-.75ZM77.94,54.07c.16-.73.81-.51,1.32-.67.27-.09.21-.72-.2-.75-.66-.05-1.35.07-1.56.9-.08.3.03.45.44.52ZM47.8,45.78c-.34-.67-.88-1.06-1.39-1.45-.13-.1-.4.03-.36.28.12.76,1.01.86,1.31,1.47.14-.09.28-.19.44-.29ZM104.5,42.73c-.11-.34.23-.96-.45-.96-.44,0-.36.48-.35.78.01.4-.05.97.52.97.48,0,.23-.5.28-.79ZM23.54,24.46c-.58-.34.03-1.38-.88-1.37-.4,0-.64.59-.56.87.18.71.93.24,1.44.5ZM121.82,37.85c-.05-.22-.04-.73-.54-.66-.56.08-.26.7-.44,1.06-.18.35.1.5.42.51.54.01.57-.37.56-.9ZM74.89,45.2c-.45.07-.79.33-.84.79-.04.32.25.51.55.52.65.02.46-.72.82-1.01.11-.09-.27-.29-.54-.3ZM99.58,52.92c.03-.33-.13-.57-.37-.47-.33.14-.96-.02-.91.62.03.31.21.67.63.61.43-.06.54-.46.65-.77ZM68.52,37.05c.14-.18.7.19.63-.41-.03-.31-.14-.66-.5-.8-.17.48-.87.47-.96.81-.11.42.43.35.83.4ZM53.11,47.12c0-.36-.2-.31-.46-.33-.52-.05-.68.13-.64.62.03.31.06.61.46.55.47-.07.46-.54.64-.84ZM96.03,65.95c-.63-.4-.83-1.17-1.57-.64-.17.12-.32.27-.22.45.39.7.97.28,1.79.19ZM60.6,42.08c.59-.03,1.28.17,1.51-.61.04-.14-.09-.48-.17-.49-.77-.09-.76.84-1.34,1.1ZM94.92,26.21c.29-.43,1.04-.27,1.1-.87.02-.22-.29-.4-.53-.36-.63.12-.72.59-.57,1.23ZM120.32,68.77c-.25.04-.64-.08-.59.36.03.3.02.71.47.75.38.04.63-.19.71-.54.09-.45-.22-.56-.58-.58ZM86.97,25.64c-.64.36-1.22.71-.36,1.51.17-.5.84-.82.36-1.51ZM69.38,24.96c-1.35.14-1.15.8-.92,1.48.26-.42.51-.83.92-1.48ZM105.86,63.12c.17.38.21.9.7.95.11.01.87-.26.6-.76-.27-.5-.8-.41-1.3-.19ZM109.03,33.8c.05-.27-.05-.46-.35-.45-.37.02-.62.26-.64.63-.01.3.14.6.47.59.45-.02.27-.54.51-.78ZM81.14,48.78c-.32.11-.56.27-.53.61.04.38.31.59.67.6.28,0,.45-.21.32-.47-.13-.26-.03-.7-.47-.74ZM98.08,77.11c-.68-.3-1-.49-1.35-.58-.39-.1-.77-.02-.96.4-.05.12-.12.32-.06.39.29.33.61.04.92-.01.32-.05.65-.09,1.45-.19ZM40.92,41.07c-.43-.15-.52-.92-1.13-.61-.21.11-.3.42-.16.64.35.55.8.27,1.3-.02ZM73.73,55.13c0,.38.31.45.56.55.3.12.46-.04.48-.32.02-.29,0-.61-.38-.66-.32-.05-.54.14-.66.44ZM71.89,51.7c.29-.35,1.01-.49.53-1.16-.08-.12-.37-.23-.48-.18-.74.39-.02.87-.05,1.34ZM15.3,45.91c.32-.58.58-.98.05-1.29-.28-.17-.55.08-.8.2.23.33.45.66.75,1.1ZM108.72,47.13c-.02-.34-.26-.5-.55-.55-.2-.03-.54-.14-.55.21-.01.29.19.54.52.58.22.03.49.09.58-.24ZM112.4,62.34c.54-.08.74-.43.9-.8,0-.02-.2-.21-.29-.2-.49.06-.74.33-.62,1ZM86,44.59c-.02-.28-.02-.59-.43-.58-.23,0-.33.19-.32.38.01.29.1.57.45.59.25.02.25-.22.29-.4ZM73.3,50.32c.24,0,.49-.01.43-.35-.04-.22-.16-.44-.43-.48-.26-.04-.46.06-.5.33-.06.37.2.47.5.49ZM54.57,62.66c0-.22-.02-.44-.27-.43-.34,0-.49.26-.54.56-.03.2.02.41.27.4.34,0,.48-.25.54-.53ZM48.52,48.5c-.3-.23-.45-.59-.67-1.09-.21.78.03,1.07.67,1.09ZM17.19,43.19c-.43-.11-.74-.18-1.04,0-.03.02.02.26.09.32.35.25.58-.01.95-.32ZM10.36,59.22c-.08-.05-.18-.16-.27-.15-.24.03-.43.18-.4.44,0,.08.17.23.25.22.25-.02.39-.19.42-.51ZM96.78,56.62s.12-.15.09-.23c-.07-.15-.21-.29-.35-.36-.22-.11-.34.04-.31.26.03.21.19.3.58.33ZM84.9,44.85c-.22-.16-.35-.29-.51-.36-.25-.11-.35.05-.32.27.03.22.2.33.41.31.11,0,.22-.11.42-.23ZM15.45,57.51c.04.07.07.18.12.19.06.02.14-.05.22-.07-.06-.09-.11-.18-.17-.26-.06.05-.11.1-.18.15ZM38.37,55.82c-.02-.15-.08-.27-.24-.22-.06.02-.15.15-.14.17.06.09.16.16.24.23.05-.06.1-.12.14-.18ZM113.02,63.41c.09-.14.19-.25.23-.37.02-.06-.04-.15-.07-.22-.08.09-.19.18-.24.29-.03.07.04.17.07.31ZM37.52,54.73c-.05-.02-.11-.04-.16-.06-.01.04-.04.1-.03.13.03.07.08.12.12.19.03-.08.05-.17.07-.25ZM30.68,55.29s-.08.02-.12.03c.01.03.02.1.03.1.04,0,.08-.02.12-.03-.01-.03-.02-.07-.03-.1ZM39.23,43.47s.01-.08.02-.13c-.06.01-.12.02-.17.03.02.04.02.09.05.11.02.01.07-.01.1-.02ZM70.6,60.33l.05-.07h-.07s.02.07.02.07Z"/>
        <path class="cls-2" d="M78.84,62.72c.04.51-.16,1.08.27,1.51.43.42.93,1,1.39.04.39-.82.87-.47,1.39-.23,0,.62-.68.22-.87.69.63.22.99.72,1.23,1.32,0,0,.26-.05.36-.13.17-.13.23-.37.07-.5-.99-.78.03-1.56.07-2.3.04-.63.71.35,1.1-.02.6.66,1.23.39,1.77-.03.81-.63,2.17.13,2.73-1.12.02-.04.61.14.9.28.22.1.19.33,0,.44-.33.19-.85.32-.35.78.3.27.73.15,1.02-.19.09-.11.15-.24.37-.6.11,1.29.21,2.29,1.6,2.11.2-.03.4.07.37.31-.03.22-.42.53.18.51.26,0,.47-.12.5-.41.03-.24.03-.48.05-.72.03-.42.24-.63.66-.49.4.14.52.49.28.81-.91,1.21-.7,2.24.34,3.25.29.28.03.6-.3.8-.32.19-.73.32-.7.81-.59-.22-.45,1.04-1.16.57.03-.23.05-.46.09-.69.04-.25.28-.55-.11-.7-.14-.05-.37.02-.51.11-.29.16-.33.41-.17.71.16.3.3.58.7.57.04.43.18.8.71,1.12-.06-.68,1.01-.9.44-1.71,1.03.15,1.88-1,3.01-.48.05.02.48-.88.83-1.32.51-.66-.14-.94-.72-1.16-.3-.11-.22-.48-.24-.78,2.25.88,2.48,1.48,1.16,2.88-.02-.03-.02-.07-.05-.1-.01-.02-.05-.01-.08-.02.04.04.08.08.12.12.02.28-.03.78.07.82,1.13.37.89.58.11,1.25-.62.54.51.78.58,1.37.59-.48.51-1.03.58-1.52.1-.64.44-1.07,1.05-1.23.5-.13,1.13-.34,1.49.09.42.5-.05.95-.41,1.36-.37.43-.63.93-1.19,1.21-.56.27-.96.71-.61,1.49-1.02-.18-1.71-1.12-2.71-.58-.09.05-.35-.03-.39-.11-.87-1.74-1.72-.45-2.63.06.81.15,1.62.1.94,1.43-.23.45-.23.89-.8,1.06-.34.1-.18.29-.09.53.14.39.23.76.51,1.11.69.88.71,1.83.37,2.9-.1.31-.65.86,0,1.09.58.2.6-.45.72-.83.05-.16-.12-.37.1-.5.59-.13.87.58,1.43.54.33,1.4-1.21,1.96-1.53,3.15,1.12-.06,1.85-.75,2.74-1.05.38-.13.75-.56.26-.83-.59-.34-.74-1.15-1.48-1.26.08-.22.16-.62.24-.62,1.95.01,3.63-1.82,5.72-.85.23.11.78.16.5.43-.85.79.25.79.41,1.1.53,1.02.58.99,1.38.24.33-.31.6-.3.69.2.06.34.07.73.59.53.42-.17.6-.46.36-.9-.43-.8-.18-2.22-1.78-1.98-.08.01-.25-.11-.24-.13.39-1.27-.28-.98-1.14-1.01-.58-.02-1.25-.83-.14-1.45.58-.32.82-1.45,1.86-.7.16.12.8-.02.57-.65-.09-.25.05-.5.37-.43.26.06.5.21.75.32-.41.57-.26.98.43.86.53-.09,1.34-.03,1.35-.97,0-.06.12-.12.29-.28.23.82-.3,1.73.43,2.34.45-.72.34-3.38-.16-3.89-.19-.19-.47-.33-.64-.18-.31.28-.52.67-.78,1-.17.22.55.45,0,.62-.28.09-.52-.02-.68-.36-.56-1.24-1.28-1.51-2.55-.7-1.08.69-2.1-.05-2.93-.84-.61-.58.24-.9.35-1.34.56-2.19,1.36-2.52,3.66-1.63-2.37,1.16.4,1.73.18,2.6,1.08.6.09-2.82,1.88-.87-.07.1-.15.21-.22.31.04.02.08.05.12.07l.11-.39c.19-.02.53,0,.54-.06.37-1.45,1.69-.97,2.65-1.43-.34,1.32-1.1,2.44-.6,3.74.11.29-.41.64.08.88.5.25.59-.23.85-.46.15-.14.44-.12.79-.2-.09.8-.74,1.12-1.08,1.64-.19.29-.99.06-.68.65.19.37.39.98.97.93.45-.04.99-.14,1.18-.66.13-.35.06-.81.26-1.1.23-.34.32-1.27,1.13-.49.56.54.79.09.71-.42-.05-.34-.46-.57.16-.84.3-.13-.05-.48-.24-.4-1.53.66-.92-1.2-1.7-1.45-.18-.05-.07-.46.19-.56.27-.1.66-.14.75.18.22.82.83.97,1.51,1.25.33.14,1.13.5.81,1.31-.16.42-.14.48.42.42.65-.06.52.67.55,1.16.05.77.1,1.6.99,1.88,1.31.42,1.78-.02,1.84-1.77-.34.38-.23,1.23-.96.84-.22-.12-.47-.46-.32-.53.68-.33.11-1.59,1.19-1.54.23.01.46.11.69.17l.03.03c.1.36-.84,1.27.53.98.21-.04.28.22.29.42.03.33-.09.56-.46.59-.36.03-.7.1-.61.58.13.69.91.6,1.31,1.01.23.23.58-.1.61-.37.09-.71,1.04-1,.76-1.99-.1-.36,1.16-.16,1.89-.6-.68-.26-1.46-.35-1.42-1.22.03-.57.44-.53.83-.53.05.04.11.08.16.11-.04-.05-.08-.11-.11-.16-.29-1.14.63-.8,1.48-.89-.83-.39-.34-1.82-1.67-1.25-.2.09-.41-.13-.36-.31.24-.91.11-1.66-.7-2.27-.32-.24.03-.52.22-.71.3-.31.49-.1.64.19.22.42.12,1.2.86,1.09.86-.13.25-.74.32-1.15.09-.53.73-.41,1.21-.22.17.07.38.04.57.05.06,2,2.08,3.85,4.07,3.73.43-.03.77-.21.79-.66.02-.36-.26-.4-.59-.42-1.87-.13-2.43-.66-2.53-2.48-.04-.8-.1-1.32-.99-.57-.21.18-.5.27-.76.41-.16-.3.39-.97-.42-.93-.49.03-.77-.08-.71-.59.06-.51.52-.75.93-.73.55.03,1.26.11,1.6.46.96.98,1.5.73,1.97-.39.03-.08.26-.09.39-.13h-.01c.46.62.77,1.42,1.74,1.44h-.01c-.03.52.62,1.02.08,1.57-.08,0-.13.01-.17,0-.5-.23-.46-1.08-1.18-1.04-.09,0-.25.27-.24.27.58.56.39,1.61,1.31,1.96.57.21,1.46-.22,1.65.88.05.27.72.08,1.03-.15.97-.75-.33-.2-.31-.51.02-.23.07-.34.24-.44.38-.23.7-.25.98.18.9,1.4,1.05,1.41,2.06-.04.17,1.83-.24,3.44-.68,5.02-1.51,5.45-5.02,9.57-8.95,13.43-2.42,2.38-4.65,4.96-7.45,6.92-5.2,3.64-11.05,5.61-17.27,6.58-3.12.49-6.26.72-9.41.94-3.03.21-6.05.31-9.06.18-4.34-.2-8.68-.51-13.01-1.01-4.36-.51-8.75-.85-13.09-1.56-6.69-1.1-13.42-1.93-20.02-3.57-3.3-.82-6.6-1.63-9.72-3.01-3.17-1.39-6.32-2.79-9.23-4.73-4.37-2.9-7.97-6.6-11.16-10.66-1.68-2.13-3.69-4.17-4.3-6.99-.28-1.29-.87-2.5-.96-3.85-.03-.39-.11-.74.1-1.09.32-.54.32-.76-.42-1.09-1.33-.61-.68-1.98-.57-2.96.19-1.8.62-3.56-.03-5.34-.09-.25-.04-.56-.05-.89,1.01.71,1.01,1.83,1.35,2.94.56-.61.39-1.18.23-1.69-.14-.47-.17-.85.31-1.11.37-.2.75-.53,1.2-.32.62.28.17.73.13,1.11-.03.29-.03.57-.05.86-1.61.05-.57.89-.48,1.5.04.27-.61.71.17.77.62.04.61-.44.53-.9-.08-.46-.16-.92-.24-1.38.7-.25,1.09.24,1.03.74-.14,1.07-.5,2.1,0,3.2.18.39-1.28.64-.3,1.36.22.16.35.5.7.38.35-.12.28-.45.3-.73.06-.76-.19-1.54.22-2.26.19-.34.37-.75.84-.65.66.14.24.59.18.91-.11.52.08.98.39,1.33.21.24.27.86.78.61.38-.19.89-.38.7-1.07-.12-.45,1.53-1.56,1.91-1.32.25.15.05.49.14.64.26.43.66.77.93,1.19.51.78.49,1.64-.23,2.18-.76.57-1.26-.43-1.88-.68-.4-.16.34-.4.33-.75-.01-.35.04-.72-.35-.86-.55-.19-.5.33-.56.6-.25,1.06-.12,2.11-.55,3.23-.57,1.52-1.63,1.89-2.84,2.34h0c-1.08-.86-.73-2.51.7-3.17.32-.15.91-.06.61-.65-.15-.3-.5-.5-.97-.29-.6.26-1.26.65-1.74-.35-.13-.28-.95-.75-1.42.06-.41.7-.5,1.37.14,1.95.25.22.59.11.56-.3-.02-.3-.31-.61.16-.94.41.68.34,1.23-.15,1.81-.26.31.23,3.11.49,3.35.34.31.41-.79.81-.11.4.66,1.14,1.22.11,2.22,1.36-.18,1.99.09,1.46,1.37-.21.51.31.62.57.38.68-.62,1.16-.35,1.7.16.54.51,1.08.08,1.61-.09.19-.06.29-.27.22-.47-.08-.22-.3-.12-.46-.17-1.14-.36-2.41-.62-2.2-2.31.06-.51-.46-.55-.78-.69-.39-.17-1.07-.42-.57-.76.41-.28.4-1.58,1.42-.83.14.1.36.13.55.14.32,0,.49.69.82.26.22-.28.51-.68.13-1.16-.48-.61-.23-.63.41-.49.71.15.65-.54.72-.96.08-.48.05-1.05.69-1.07.59-.03.75.57.93.97.19.42.13.94.24,1.4.21.95.97.89,1.59.64.51-.2.97-.66.34-1.32-.48-.51-.16-1.05.23-1.35.39-.3.71-.06.98.43.47.86,1.35.51,1.91.21.69-.37.18-1.04-.07-1.51-.44-.83-.83-1.73-1.94-2.18,1.52-.02,1.78-.75,1.33-1.87-.09-.22-.34-.66-.61-.42-1.14,1.02-.99-.81-1.68-.72.01-.13-.02-.3.05-.39.16-.21.41-.32.62-.12.78.73,1.48.28,2.35-.11-1.14-.42-1.87-1.06-2-2.17-.04-.35-.56-.88.14-1.08.54-.15,1.06.61,1.05.72-.07.85.13,1.08.98.78.45-.16.24.7.72.7q.13-1.96-1.35-2.43c.6-.03,1.23-.22,1.35-.78.07-.32-.34-.87-.59-1.11-.32-.31-.19.55-.63.55-.5-.27.16-.67-.04-.97-.3-.44-.65.47-.99-.05.26-.57.53-1.16.87-1.89.25.81.89,1.14,1.32,1.66.3.36.6.09.85-.16.26-.28.43-.56-.07-.77-.73-.31-.41-1.21-.95-1.66-.16-.13-.07-.49.2-.58.37-.13.75-.07,1.12.09.47.21.2.23,0,.49-.26.34.24.56.4.42.51-.47,1.67.6,1.75-.76.62.09,1.66.27,1.65.65-.04,1.66,1.11.96,1.83,1.08.23.04.48,0,.72-.02-.33.44-.65.87-1.04,1.39.55.13,1.08.21.9.9-.07.29.11.46.35.51.22.05.25-.2.37-.32,1.05-1.13.23-1.8-.57-2.49.54-.51-.5-1.77.56-1.75.68.01,0,1.26.49,1.93.53-.35,1.35-.36,1.26-1.34h-.01c.51.22.8-.38,1.35-.38-.31,1.38-.61,2.64-1.69,3.62-.47.43-.67,1.14-.43,1.85.2.61.51.73,1.05.34.19-.14.3.14.29.33,0,.33.05.7-.39.81-.4.11-.93.08-.96.66-.02.4.4.48.68.65.66.38,1.2-.35,1.28-.55.48-1.06,1.22-1.5,2.38-1.25-.33-1.5-2.89-.92-2.35-2.87.98.64,2.37.71,2.96,1.88.33.66.61,1.26,1.26,1.7,1.04.71,1.48.47,1.49-.74h0c.35.1.81-.15,1.05.28.21.37-.07.63-.32.86-.24.24-.76.31-.46.86.21.38.46.65.9.43.42-.2,1.16.02,1.14-.81-.02-.62.23-1.06.9-1.03.42.02.94.09,1,.62.06.59-.64.13-.83.46.52.75,1.68-.17,2,.71.23.65,0,1.45.18,2.13.36,1.41,1.34,2.58,1.67,4.02.09.39.53.47.83.28.4-.25.35-.64.04-.97-.22-.24-.48-.44-.86-.79,1.24-.27,1.22-.96.89-1.86-.14-.38-.54-.81.23-1.3.65-.41.01-1.08-.54-1.2-1.43-.3-1.69-.75-1.16-1.94.41-.92-.31-1.47-1.06-2-.15.4-.51.78.05,1.16.33.22.58.51.17.76-.33.2-.67-.19-.76-.48-.2-.62-.3-1.27-.93-1.74,1.08-.02,2.02-.7,3.14-.18.44.21,1.27.3,1.65-.36.4-.72-.56-.95-.81-1.71,1.11.28,2.04.51,3.1.78-.58.76-1.4,1.56.25,1.92.35.08,0,.5.07.76.22.9.56,1.62,1.76,1.26-.28.27-.33.78-.9.6-.35-.11-.59.02-.52.41.07.37.49.42.69.3.82-.53,2.07-.55,2.03-2.1-.02-.64.79-1.36,1.63-1.21.87.15,1.8-.15,2.63.59.46.42,1.68-.24,1.76-.38,1.04-1.78,1.62.44,2.44.24.11-.03.29.47.47.48.77.07,1.27.55,1.32,1.21.04.41-.6.31-.97.33-.82.05-1.67.15-1.86-1.01-.06-.37-.25-.71-.39-1.07-.87.47-1.23,1.52-2.32,1.62-.3.03-.23.47-.26.76h0c-.6.05-1.16-.03-1.67.56-.59.67-1.41.26-2.1-.07-.07-.04-.17-.35-.19-.13-.06.59-.94.67-.78,1.25.14.48.28,1.12.84,1.26.51.13.92-.28,1.27-.66.13-.14-.14-.73.39-.38.18.12.6,0,.53.47-.12.78.57.86.98.77,1.31-.3,1.06.65,1.2,1.4-.46-.47-.84-.77-1.54-.41-.59.31-1.39,1.33-1.96-.09-1.54.99-1.53-.67-2.15-1.26-.07-.06-.15-.11-.38-.28-.02,1.06-.85,1.85-.06,2.98.61.87-.6,1.29-1.05,1.68-.44.39-.48-.49-.67-.8-.17-.27-.22-.62-.36-1.07-.71.8-.19,1.64-.35,2.37-.09.42.01,1.06-.7.41-.19-.18-.54-.25-.56.04-.07,1.1-.79.54-1.26.52-.32-.02-.67-.3-.88.12-.15.3-.11.66.09.97.44.68,1.15,1.28.46,2.23-.15.21.12.51.37.44.47-.14,1.01-.7.8-.98-.79-1.07.65-1.2.76-1.93.05-.37.75.09.9.61.15.55.24,1.32.94.29.2-.29.36,0,.51.2.4.54,1.29-.72,1.57.43.23.95.94.94,1.69.76.22-.05.42-.17.77-.32-.59-.55-1.29-.69-1.82-1.11-.84-.67-.65-1.02-.07-1.67.5-.55.75-.81,1.26.02.16.26.67.69,1.22.63.04.02.08.05.12.07-.04-.02-.09-.04-.13-.06.03-.67-.36-1.47.79-1.74.41-.1.8-.46,1.11-.04.28.39.09.86-.31,1.12-.76.5-.24,1.07-.03,1.5.25.5.69.05,1-.07.55-.2.22-.6.14-.96-.2-.94-.14-1.77,1.11-1.86-.45-1.02-1.49-.94-2.39-1.35.51-.46.82-.71,1.54-.41,1.05.43,1.77-.56,2.48-1.08.28-.21-.4-.9-.79-1.29-.19-.19-.7-.03-.6-.41.1-.39.78-.73.21-1.15-.41-.3-.88.27-1.37.22h0c0-.38-.05-.78.04-1.14.1-.42.54-.77.82-.36.61.89,1.67.87,2.42,1.42.41.3,1.87.65.17,1.31-.1.04-.22.26-.19.32.08.16.22.31.38.4.24.13.5.04.62-.18,1.47-2.6,1.81.19,2.66.55-.19.71-.49.75-.86.13-.18-.31-.39-.43-.65-.13-.29.34-.14.61.21.8.33.17.67.35,1.02.48.65.24.9-.52,1.45-.61.15-.02.25-.3.12-.49-.36-.53-.86-.17-1.3-.17.26-.68.37-1.35-.02-2.04-.25-.44-.18-1.15-1.08-.91-.32.09-.61-.31-.56-.69.07-.46.5-.46.8-.33.57.23,1.24.23,1.48,1.13.15.56.87.92.95,1.71.06.55.79.61,1.33.53.65-.09.67-.38.25-.86-1.1-1.24-1.08-1.35.3-2.35.02.67-.55,1.68.83,1.55.19-.02.41.27.3.4-.66.81-.32,1.62-.2,2.5.05.37-.45,1.11-1.28,1.08-.85-.03-.68.02-.61.79.05.63-.25,1.43-.67,1.91-.51.58-.56-.32-.85-.52-.1-.07-.29-.1-.39-.05-.19.09-.17.27-.14.49.08.47.09.94.13,1.42-.72.13-.67.56-.4,1.05.11.21.51.6-.01.53-1.06-.15-.57.32-.44.77.36,1.24.16,1.5-1.07,1.53-.11,0-.29.09-.32.18-.09.27.08.4.31.55.29.18,1.02-.03.74.7-.09.24-.73.45-.04.64.38.1,1.18-.25,1.1-.39-.69-1.21,1.09-1.59.78-2.69.24,1.06,1.76.83,1.8,2.1.02.6.71.92,1.28.32.41-.44.81-.8-.02-1.46-.54-.43-.82-.89-1.54-.57-.35-.82-1.34-1.48-.46-2.6-.81.05-1.72.69-1.7-.66.26.08.52.36.81.17,1.4-.92,3.21-.91,4.54-1.99.17-.14.45-.2.68-.2,1.49-.04,1.43-1.19,1.54-2.17.03-.26-.18-.65.07-.8,1.39-.82.17-1.1-.36-1.62.43-.49,1.46-.39,1.43-1.35,0-.22.22-.33.41-.23.15.08.32.27.35.42.07.47.07.95.12,1.68.88-1.3,2.08-1.04,3.25-1.14,1.07-.1,2.44-.13,2.53-1.8.01-.24.27-.47.52-.67-.18.72-.02,1.4,0,2.09.88-.11.57.48.47.86-.16.6-.34,1.2-.61,1.76-.1.21-.48.27-.74.4-.12-.58-.39-1.13-.29-1.75.1-.06.38.13.3-.2-.1.07-.19.14-.29.21-1.18.79-.29,1.23.29,1.72ZM126.73,76.85c-.12.03-.23.06-.35.09.03.05.07.1.1.15.09-.07.18-.15.27-.22l.12-.15s-.09.09-.14.13ZM38.7,62.74c-.09.26-.59.3-.42.65.13.26.42.07.62-.02.22-.1.66-.07.48-.49-.06-.13-.42-.12-.64-.18.13-.84-.55-.85-1.06-1-.29-.08-.43.15-.37.42.13.6.62.61,1.1.62.09,0,.19,0,.28,0ZM22,52.07c.24,0,.48.01.72,0,.58,0,.88-.36.92-.89.03-.34-.14-.69-.48-.8-.65-.21-.52.54-.85.75-.33.21-.36.54-.35.88-.04.05-.08.11-.11.16.05-.04.11-.07.16-.11ZM35.54,69.65c-.04-.17-.02-.39-.26-.43-.04,0-.16.11-.15.15.04.23.24.23.42.26.11.85.48,1.09,1.43,1.34,1.11.3.32-.97,1.08-.82.48.09.96-.51.32-1.08-.42-.38-.86-.8-1.35.03-.3.52-.74,1.08-1.5.53ZM58.92,65.61c-.51-.04-1.16.07-1.08.61.11.76.14,1.66.78,2.24.77.7.28-.62.87-.58.9.06.57-.83.64-1.31.09-.64-.53-.3-.82-.42-.27-.11-.35-.29-.39-.54.04-.02.08-.02.11-.05.02-.01.01-.05.02-.08-.04.05-.08.09-.12.14ZM87.5,63.59c-.6-.32-1.11-.24-1.42.4-.19.41-.32.82-.92.62-.55-.18-.92.11-1.16.58-.1.2-.29.47.01.62.41.2.83-.03,1.25-.06.45-.03,1.09-.92,1.37.15.25.96.78.49,1.18.26.48-.28.85-.61.08-1.15-.31-.22-.28-.93-.4-1.42.08-.1.15-.2.23-.3l-.11-.08c-.04.13-.07.26-.11.39ZM38.43,59.54c-.37,0-.6.22-.84.48-.67.75-1.12-.39-1.77-.25-.27.06-.43-.46-.27-.69,1.16-1.66-.17-1.03-.88-.98-.12-.27-.3-.45-.58-.58-1.46-.67-2.7-.06-3.94.62-.1.06-.24.25-.22.29.12.2.3.36.44.55.21.29.82-.69.73.19-.06.58-.68.3-1.08.31-.23,0-.52-.36-.72.2,2.19.72,3.74-.61,5.38-1.59-.94,2.02,1.4,3.01,1.5,4.74.2-.46.61-.82.32-1.39-.13-.25-.1-.73.28-.57.89.36,1.44-.54,2.23-.47.68.06.74-.43.76-.94.02-.64-.57-.88-.92-.89-.68-.04-.22.67-.42.99h.01ZM74.79,76.58c-.14-.5.28-.88.33-1.42-.27,0-.51-.02-.74,0-.68.06-1.67.25-1.65.83.03.93,1.06.41,1.65.56.14.03.29,0,.43.01-1.25.33-2.52.64-2.59,2.3l-.03.03c-.38-.18-.76-.37-1.15-.53-.19-.07-.39.01-.47.21-.04.12-.04.32.04.4.79.8,2.19.62,2.79,1.78.04.08.73-.18,1.15-.29-.43-.45-.46-.89-.22-1.37.57-.08,1.38.7,1.53.22.19-.59.82-1.1.51-1.94-.33-.89-.94-.79-1.59-.79ZM79.7,66.47c-1.33.35-1.97,2.29-3.85,1.55.83.37,1.13.82.9,1.66-.12.42,0,.96.16,1.39.4,1.07,1.2.32,1.83.34.35,0,.86.04.62-.39-.62-1.09.71-1.16.8-1.16.7.03.65.63.68,1.15.02.53.04,1.05.08,1.58.06.83.64.72,1.23.73.4,0,.76-.02.75-.41,0-.79-.81-.16-1.09-.52-.06-.07-.11-.15-.21-.26.29-.4.91-1.12.6-1.28-1.54-.8-.17-2.18-.74-3.18-.26-.46-.44-1.05-.79-1.46-.37-.44-.84-.52-.99.26h0ZM19.67,67.62h0c.2-.89-.37-1.2-1.07-1.45-.16.36,0,.66.09.98.1.38-.12.78-.52.49-1.04-.75-1.63-.33-2.2.6-.26.42-1.55.56-.24,1.29.17.1-.04.31-.23.39-.34.14-.9.37-.49.72.4.34,1.1.31,1.67.45-.36-.39.65-.71.07-1.09-.74-.49.18-.68.2-.67.99.47,2.76-.35,2.65,1.88.32-.41,1.22-.38,1.66-.61.62-.33.73.13,1.04.32-.41.39-.21,1.35-.48,1.35-1.18.02-1.42,1.56-2.64,1.35,1.79.93,1.83.92,2.88-.54.2-.28.51-.22.79-.25,0,.53-.15.99-.35,1.49-.26.65-.78,1.34.64,1.81,1.13.37,1.9-.53,2.85-.16l.06.06c.06.31.42.65.49.32.27-1.18,1.27-1.2,2.12-1.52-1.31-1.14-1.34-1.75-.37-2.33.79-.47.21.86.78.47.79-.54,2.78.02,1.86-2.06-.01-.02.04-.08.07-.12.19-.06.18.11.26.2.7.87,1.42.15,2.07-.05.72-.22-.03-.67,0-.95.1-.92.95-1.5,1.33-2.32.02-.04.22-.04.27,0,1.06,1.1.87-.07.86-.53-.01-.63.32-.92.72-1.29.71-.66.13-1.48.17-2.23-.48.11-.98.11-1.37.56-.29.33-.74.58-.74-.31,0-.82-.66-.95-1.35-.87-.04-.02-.07-.05-.11-.07.04.02.08.04.12.06.28.73.2,1.56.71,2.24.19.25-.21.32-.43.37-.04-.02-.07-.05-.11-.07.04.02.08.04.12.06.09.16.14.4.28.47.37.18.73.34.48.84-.2.4-.58.52-.98.41-.41-.11-.91-.22-1.15-.51-.53-.63-.97-1-1.77-.36-.2.16-1.06.08-.99-.16.16-.52-.27-1.13-.24-1.14.91-.06,1.77-.72,2.7-.31.31.13.49.71.89.17.42-.56-.05-.71-.45-.92-.33-.17-.7-.38-.9-.67-.27-.38-.49-1.11.16-1.1.59,0,1.13-.5,1.77-.09.76.49,1.03-.31,1.26-.72.33-.59-.23-.91-.69-.99-.6-.11-1.35-.61-1.79.35-.21.46-.56.36-.97.25-.73-.19-1.48-.28-2.23-.42-.04-.21-.08-.42-.13-.63-.04.03-.1.04-.11.08-.09.25,0,.43.23.56-.4.45-.03.9,0,1.36.03.63-.52.94-.92.87-.79-.13-.99-.95-1.28-1.58-.18-.39.06-.67.51-.59.34.06.59.05.55-.37-.03-.28-.05-.61-.21-.8-.29-.36-.44.15-.69.21-.93.2-.61.89-.57,1.49.02.4.18.92-.42,1.07-.62.15-.66-.37-.82-.76-.17-.42-.18-1.04-.87-.92-.73.13-1.11-.42-1.59-.7.22-.51,1.48.48,1.14-.85-.12-.47-.55-.75-.81-.62-.58.28-1.51.23-1.54,1.2-.01.42-.32.89.38,1.18,1.59.66,1.53.8.77,2.52-.31.7-1.16,1.33-.71,2.28.56.18.4-.92.98-.52.44.31.68.79.48,1.38-.19.54-.04,1.16-.42,1.65-1.17.41-2.15-.25-3.18-.59ZM90.09,76.58c-.45-.26-1.06-.11-1.13.22-.18.97-1.34,1.04-1.49,2.17-.29-.62-.47-.99-.63-1.37-.32-.77-.54-1.43.76-1.34,1.14.07.63-.67.42-1.13-.48-1.05.01-1.61.91-2.02-.31.61-.01,1.24.08,1.82.05.32.38,1.03,1.15.79.56-.17.71-.75.54-.99-.46-.65-.65-1.68-1.78-1.62-1.37-.05-1.21-1.01-1.23-1.89.91,1.09,2.54-.08,3.3,1.32.31-.75.6-1.27.12-1.9-.52-.67-.83-.22-1.28.08-.3.2-.61-.12-.89-.31-.68-.48-1.45-.72-2.24-.97-.54-.17-1.11.61-1.61-.18.33-.14.67-.25.96-.43.22-.14.31-.44,0-.56-.35-.14-.85-.2-1.05.16-.17.31-.93.09-.62.85.16.41.2.68.68.67.37,0,.83.12.67.51-.41,1.01.41,2.23-.69,3.1.73.16,1.42.23,1.52,1.44-1.22-.89-2.14-.19-3.08.21-.76.32-.83.86-.16,1.42.58.48,1.18.69,2.01.31-.61-.58-1.48-.28-2.02-.93.5-.35.81-.64,1.61-.38,1.35.43,1.02,1.62,1.33,2.44.16.41.65,1.11.51,1.18-1.62.73-.37,1.56-.13,2.6.63-1.9,1.48-2.19,2.93-.94.47.41,1.68,1.07,1.89.88.78-.71,1.23-1.75,1.97-2.56.49-.53.02-1.09-.32-1.62-.3-.46-.15-1.46-1.1-1.07-.94.38-.07.91.04,1.39.21.95.35,1.91-1.2,2.23.64-1.47-.89-2.31-.76-3.6.1-.07.37.13.3-.2-.1.07-.19.14-.29.21ZM21.39,55.91c.37.1.5.15.64.18.58.13,2.02-.17.45.98-.32.23-.02.52.17.71.25.24.54.47.77-.04.35-.79.55-.19.7.11.44.88,1.23,1.18,2.27.87.47-.14,1.32.18.95-.87-.58.26.02-2.14-1.2-.53-.18.24-.37-.12-.51-.3-.46-.57-1.1-1.01-1.35-1.66.19-.56,1.2-.13,1.02-1-.15-.7-.82-.53-1.27-.72-1.01-.43-1.31.55-1.6,1.03-.26.42-.58.77-1.04,1.24ZM127.49,79.68c.04.51-.52,1.11.09,1.33.47.17.81-.29.91-.85.12-.67.97-.29,1.24-.78.44.29.74-.12.63-.34-.5-1.08.12-2.46-.98-3.37-.19-.16-.2-.57-.59-.44-.38.13-.28.49-.22.74.26,1.16-.29,1.87-1.23,2.42-.23.14-.38.41-.56.62-.19.22-.43.47-.23.75.32.44.53-.32.93-.08ZM74.13,61.76c.73.54-.02,2.02,1.37,2.12.14,0,.29.14.14.27-1.32,1.13.51.71.61,1.19.08.4.63.84.97.38.41-.55,1.38-.68,1.29-1.59-.06-.66-.74-.96-1.13-.92-1.42.15-2.13-.99-3.26-1.44ZM40.25,66.68c.67-.42.24-1.64,1.39-1.33.25.07.21-.35.22-.57.01-.25-.04-.55-.34-.52-1.43.15-.34-.59-.35-.95-.04-1.12,0-2.23.25-3.33.02-.09-.38-.39-.81-.33.3,1.19-1.13,2.19-.34,3.48.04.06-.1.26-.19.36-1.15,1.16-.19,2.08.17,3.17ZM74.87,87.76c.89-.2,1.96-.26,2.19-.58.68-.96,1.69-.79,2.49-1.2.43-.22.07-.94-.1-1.4-.21-.59-.57-.11-.88-.11-1.85-.05-2.01,2.23-3.58,2.53-.07.01-.08.43-.13.77ZM55.55,71.78c-.18.61.23.84.36,1.19.18.46.28,1.46.7,1.15.65-.48,1.71-.09,1.99-.91.31-.95.99-1.03,1.63-.75.49.21.47-.08.57-.27.14-.26.03-.45-.27-.52-.32-.07-.66-.03-.97-.06-1.34-.13-2.61.92-4.01.18ZM66.53,81.32c-.09.02-.22,0-.26.06-.44.62-1.02,1.21-1.24,1.9-.14.44.68.48,1.03.74.15.11.33.25.5.26.32.03.41.7.79.35.33-.31.26-.62-.22-.88-.48-.25.07-.34.17-.39.39-.2.5-.38.38-.88-.17-.69-.86-.69-1.16-1.16ZM46.11,61.54c1.13.37,1.54-.2,1.49-.99-.04-.58-.19-.92.58-1.1.55-.13.12-.54-.1-.73-.21-.19-.63-.74-.73-.27-.23,1.02-1.32,1.25-1.64,2.15-.1.28-.42.55-.3.87.16.41.62-.01.71.07ZM37.93,77.87c-1.18-.12-1.64,1.16-2.65.91-.1-.03-.33.36-.17.45.88.53,1.1,1.76,2.19,2.06.19.05.38.14.49-.07.05-.1.05-.34-.03-.4-1.23-.96-.8-1.93.17-2.96ZM107.59,86.45c.16-.59.24-1.13.13-1.7-.17-.91-.94-.85-1.54-.92-.54-.06-.48.46-.48.83,0,.69.31,1.18,1.01,1,.78-.21.61.48.89.79ZM73.26,67.48c-.16-.5-.72-.43-.79-.88-.19-1.24-.98-.36-1.37-.26-.55.13-.92.62-.65,1.32.1.27.16.45.47.23.68-.48,1.49-.15,2.34-.42ZM41.5,73.38c.46.06.95.05.97-.64.02-.52-.14-1.1-.74-.98-.5.09-1.35-.07-1.43.61-.06.53.41,1.07,1.2,1.02ZM89.41,82.19c-1.29.97-1.27,1.77-.04,2.36.26.13.61.53.87.15.23-.33.34-.95-.14-1.12-.7-.25-.53-.81-.69-1.4ZM99,84.68c-.17-.41-.29-1.05-.9-.78-.38.16-1.17-.21-1.14.64.03.77.73.8,1.24.9.48.1.79-.21.8-.76ZM99.91,80.88c.14.22-.13.78.46.79.77.01.83-.8.96-1.21.15-.45-.77-.34-1-.77-.34.29-.44.68-.42,1.2ZM89.89,89.11c-1.01.39-1.74-.03-2.51-.07-.37-.02-.75.15-.94.52-.05.09,0,.32.07.37.35.24.61-.09.89-.22.42-.19.79-.22,1.23-.06.37.14.81.39,1.26-.55ZM65.8,80.63h2.56c-.09-.89-1.2-.61-1.48-1.29-.02-.05-.17-.05-.26-.08-.23.39-.46.77-.81,1.37ZM34.14,75.91c-.24.67-.83,1.31-.36,1.95.29.4.57-.21.81-.46.71-.73.2-1.09-.45-1.49ZM68.79,69.45c-.47.09-.85.39-.77.64.28.87,1.37.15,1.84.8,0,.01.43-.24.43-.25-.34-.65-1.2-.58-1.49-1.18ZM46.37,69.23c.48.44.69,1.23,1.47,1.13.29-.04.48-.39.36-.67-.37-.89-1.22-.21-1.83-.46ZM113.17,86.78c-.86-1.09-1.36-.26-1.91.06-.19.11-.45.36-.17.55.54.36.79-.38,1.25-.42.22-.02.44-.1.83-.19ZM51.16,82.36c-.39.02-.59.23-.44.34.65.49-.38,1.45.5,1.78.24.09.52-.35.47-.59-.12-.54-.36-1.05-.54-1.52ZM56.2,68.54c-.76-.34-1.45-.29-2.09-.19-.17.03-.14.53.16.69.71.38,1.35.3,1.93-.5ZM125.12,75.15c.25.46.74-.2.98.24.13.23.13.82.6.33.25-.26.43-.65.06-1-.23-.22-.51-.59-.8-.21-.24.31-.75.21-.84.65ZM27.38,76.13c.31.49-.82,1.21.23,1.51.32.09.8.2.88-.12.2-.79-.92-.74-1.11-1.39ZM94.25,85.76c.16-.21.62-.3.45-.43-.43-.35-.31-1.16-1.03-1.2-.29-.01-.42.24-.33.48.18.46.38.91.9,1.15ZM84.06,73.32c.39-.13.82-.23.83-.8,0-.34-.21-.63-.49-.62-.55.02-.6.61-.82.97-.12.19.19.38.47.44ZM123.36,77.69c-.38.18-.53.21-.62.29-.38.35-.75.71-.58,1.32.06.2.16.39.36.33.59-.17.39-.78.58-1.18.08-.15.12-.33.27-.77ZM92.07,66.65c-.25.66-.53,1.12-.14,1.56.27.31.72.15.84-.15.24-.6-.36-.83-.7-1.41ZM72.27,70.73c.21,1.38.48,1.52,1.64.84-.57-.29-1.09-.55-1.64-.84ZM44.52,54.64c-.43-.01-.57.16-.48.62.06.32-.05.75.43.72.43-.03.28-.54.44-.81.23-.38-.04-.5-.39-.53ZM124.25,72.4c.54.62.87.99,1.2,1.37.16-.4.31-.77.48-1.19-.46-.05-.91-.1-1.68-.18ZM69.87,77.84c-.06-.24.05-.64-.42-.52-.31.08-.39.37-.37.67.02.3.09.59.47.52.39-.07.31-.4.32-.67ZM81.15,79.2c.03.45.32.56.68.55.26,0,.47-.13.44-.42-.05-.46-.43-.6-.81-.62-.33-.02-.28.29-.31.49ZM34.54,84.02c.49.43.97.47,1.42.15.06-.04.01-.4-.09-.48-.57-.5-.86.31-1.33.33ZM92.24,81.9c.35.25.81.6,1,.29.2-.32,0-.88-.01-1.33-.18.51-.74.57-.99,1.04ZM49,81.84c-.71-.02-1.01.2-.97.74,0,.1.17.26.27.27.68.03.45-.57.7-1.01ZM63.24,63.85c0-.34-.15-.53-.42-.52-.34,0-.48.25-.46.57.01.25.1.49.39.47.31-.03.47-.26.49-.51ZM113.41,78.85c-.04-.3-.22-.48-.45-.49-.38,0-.42.3-.39.59.03.24.15.46.45.38.24-.07.38-.25.39-.49ZM16.91,71.77c-.31,0-.42.16-.39.35.03.29.18.54.49.61.21.05.46-.1.41-.25-.1-.28-.35-.5-.5-.71ZM21.32,75.63c.28,0,.32-.19.25-.38-.08-.24-.28-.4-.54-.4-.19,0-.42.08-.36.32.07.32.38.38.65.47ZM113.13,75.51c-.28.24-.87.45-.21.95.29-.26.33-.57.21-.95ZM65.01,80.63c-.12.16-.23.26-.24.36-.04.36.19.5.51.48.1,0,.2-.11.3-.17-.17-.2-.35-.41-.57-.67ZM60.1,64.99c-.04-.07-.11-.33-.19-.33-.26,0-.37.22-.38.46,0,.19.05.37.29.36.24-.01.25-.21.29-.5ZM43.04,63.81c-.07-.15-.13-.26-.19-.37-.1.06-.25.1-.29.18-.08.17-.04.37.18.4.08.01.19-.12.3-.21ZM85.75,81.18c-.18-.08-.3-.19-.38-.17-.11.04-.18.17-.27.27.1.06.21.17.3.16.1-.01.19-.14.35-.26ZM63.61,64.79c.11.05.21.12.32.14.02,0,.13-.18.11-.2-.07-.08-.18-.13-.27-.2-.04.07-.09.14-.16.26ZM49.85,81.66c-.04.08-.11.15-.11.22,0,.08.06.15.09.23.04-.07.11-.14.11-.22,0-.08-.06-.15-.09-.23ZM45.76,64.87c-.13-.06-.2-.12-.28-.11-.1,0-.3,0-.16.2.04.05.16.05.24.04.06,0,.12-.08.19-.13ZM81.98,67.39c-.02.08-.09.18-.06.22.04.07.15.1.23.15.03-.08.09-.19.07-.25-.03-.06-.15-.09-.23-.13ZM111.83,78.49s-.05.09-.04.12c.05.14.12.14.18.01.02-.03,0-.09-.03-.12-.02-.02-.07,0-.11-.01ZM94.49,70.98s-.02-.07-.03-.11c-.04.01-.09.02-.12.04-.01,0,.02.07.03.1.04-.01.08-.03.12-.04ZM30.67,60.36s.07-.05.1-.08c-.03-.03-.06-.06-.09-.09-.04.04-.09.09-.13.13.04.01.08.03.12.04Z"/>
        <path class="cls-1" d="M124.14,40.8c1.02.17.75-.77,1.05-1.21.12-.18.19-.51.5-.35.14.07.3.33.26.46-.31,1.32.04,2.38,1.07,3.26.32.27.4.67.19,1.05-.2.36-.6.27-.91.24-1.18-.11-2.42-.08-3.5-.47-.42-.15-1.25-.83-1.08-1.78.04-.22-.16-.63-.35-.72-.41-.2-.33.33-.51.49-.33.29-.68.5-1.17.4-1.02-.22-.8-1.25-1.01-1.85-.13-.37-.17-.82-.48-1.13-.28-.28-.45-.54-.05-.81.97-.67.31-1.18-.21-1.71,1.48.05,2.07.58,1.81,1.82-.24,1.17-.06,1.46,1.09.93.36-.17.85-.03,1.28-.04h-.01c.03.39.23.75-.09,1.19-.33.45.08.92.43,1.22.38.32.71-.05,1-.27.26-.2.47-.47.7-.7h-.01Z"/>
        <path class="cls-1" d="M99.91,60.71c.14-.84-.12-1.49-.88-1.92-.12-.07-.35-.16-.35-.23.17-1.62-1.62-2.54-1.5-4.31.56.35,1.17.25,1.47.98.25.59-.06,1.37.93,1.93-.16-.58,1.42-.7-.03-1.51-.4-.22-.32-.8,0-1.15.29-.32.73-.5,1.18-.33.49.18.37.66.28.99-.14.53-.34.94.52.84.22-.03.34.25.21.54-.55,1.25-.37,1.57,1.05,2.09.49.18.38.64.49,1.17-.77-.32-1.54-.69-1.1.68.18.55.23,1.35-.53,1.6-.93.31-.78-.51-.92-1.02-.11-.42-.5-.36-.84-.36h.01Z"/>
        <path class="cls-1" d="M96.58,64.39c-.37.08-.19.79-.71.71-.12-.02-.27-.27-.29-.44-.13-.96.8-.9,1.27-1.26.1-.52-1.14-.43-.53-1.01.31-.3,1.06.27,1.12.52.37,1.55,1.49.53,2.22.7.8.18,1.81.51,2.22-.87.19,1,.3,1.91,1.26,2.39.24.12.56.46.1.79-.33.23-.6.26-.79-.18-.4-.92-.8-.58-1.35-.07-.85.78-1.8,1.38-2.71.01-1.31.55-1.14-.94-1.82-1.29ZM99.56,64.51c-.06-.12-.1-.19-.14-.26-.09.06-.2.11-.27.19-.02.02.08.2.1.2.11-.02.2-.08.31-.12ZM98.39,64.43l-.07-.09s-.08.07-.08.07c.03.04.07.08.11.12.01-.03.02-.07.04-.1Z"/>
        <path class="cls-1" d="M63.56,51.45c.29.51-.24.54-.49.78-.35.35-.64.2-.85-.06-.42-.52-.8-1-1.53-.47-.94-1.34-1.57-.55-2.26.28-.13.16-.75-.34-.61-.46,1.25-1.15-.37-1.06-.69-1.47-.18-.23-.68-.28-.38-.68.19-.26.61-.68.92-.17.61,1.01.76.29.92-.22.11-.33.16-.82.58-.52,1.23.86,2.75,1.03,4.01,1.77.46.27.28.77.36,1.22Z"/>
        <path class="cls-1" d="M117.87,73.37c-1.11-.06-1.62-.48-1.25-1.68.2-.63.49-1.25-.12-1.99-.55-.67.72-.3.84-.92.08-.39.28.05.33.31.1.49.54.26.83.32.51.11.91.52.61.89-.73.93,1.66,2.52-.69,3-.18.04-.37.05-.56.07Z"/>
        <path class="cls-1" d="M65.15,53.71c-.25-.53-.93-.78-.78-1.45.88.36,2.4-.1,2.13,1.66.64.14.69-1.13,1.07-.54.29.45.69,1.22.49,2.04-1.37-.81-2.59-1.48-4.01-.29-.17.15-1.16.33-1.45.13-.36-.26-.35-.97-.79-1.37-.1-.09.07-.65.27-.85.25-.25.59-.02.92.08.69.23,1.27.93,2.16.59Z"/>
        <path class="cls-1" d="M26.56,45.72c-.03.73.39,1.55-.82,1.82-.44.1.43,1.18-.71,1.36-.95.15-.91-1.01-1.58-.89-.83.15-1.32-.15-1.71-.83-.14-.25-.72-.63-.36-.69.6-.11.93-1.12,1.72-.5,1.9,1.5,1.91,1.49,3.46-.27Z"/>
        <path class="cls-1" d="M7.33,55.63c2.85-.41,4.55.62,5.27,3.35-1.23-.52-2.84-.22-3.09-2.13-.02-.15-.27-.42-.31-.4-.92.45-1.1-.59-1.87-.82Z"/>
        <path class="cls-1" d="M6.97,48.88c-.05-.4.06-.75.26-1.1.22-.38.53-.41.85-.21.31.2.79.49.51.89-.67.97-.42,2.42-1.65,3.05-1.4-1.62-1.4-2.29.05-2.65.04.5-.55,1.13.32,1.53.27-.62-.05-1.06-.33-1.52Z"/>
        <path class="cls-1" d="M106.25,69.36c.36-.68.08-2.3,1.71-1.11.33.24.44-.25.48-.49.18-.99.6-1.8,1.53-.76.42.46,1.5-.79,1.08.43-.42,1.2-1.26-.09-1.97.02-.36.38.62.74.04,1.2-.41.32-.88.59-1.3.38-.68-.34-1.04.27-1.56.34h0Z"/>
        <path class="cls-1" d="M107.66,31.96c.01.35.12,1.06-.4,1.7-.3.36-.22.82.09,1.19.38.46.17.65-.31.78-.4.1-.78.43-1.05-.23-.41-1-.26-1.88.51-2.61.37-.36.85-.6,1.17-.82Z"/>
        <path class="cls-1" d="M50.65,47.4c1.1-.27.72,1.31,1.6,1.34-.18,1.02-1.08,1.4-1.83,1.41-.84.02-.29-1.19-.86-1.67-.1-.09.13-1.23,1.09-1.09Z"/>
        <path class="cls-1" d="M74.66,42.05c0,.46,0,.82-.45.85-.24.02-.61-.03-.5.28.77,2.08-.78,1.51-1.96,1.66,1.31-.8,1.35-1.36-.06-1.7-.21-.05-.53-.02-.4-.41.15-.47.39-.24.64-.09.25.15.47.11.55-.2.24-.89.52-.68.97-.11.42.53.71-.17,1.21-.28Z"/>
        <path class="cls-1" d="M47.34,49.74c.1.02.2.04.29.06-.62,1.65,1.4.95,1.72,1.9.14.42.05.68.03,1.02-.03.46-.52.5-.72.56-.57.16-.36-.4-.4-.67-.1-.8-.89-.6-1.32-.93-.31-.24-.72-.39-.38-.86.26-.36.13-1.01.78-1.08Z"/>
        <path class="cls-1" d="M45.91,50.92c-.09.65-.58.5-.99.52-.61.03-1.28-.09-1.18.94.09.86-.51.52-.79.27-.56-.52-.76-1.27-1.02-1.97-.08-.2,0-.48.3-.56.2-.05.43-.01.46.2.18,1.33,1.32.65,1.57.45.53-.42.96.25,1.4-.11.26-.21.24.1.25.26Z"/>
        <path class="cls-1" d="M14.42,62.37c-.43-.24-.86-.51-.77-1.08.17-1.01,1.46-.97,1.8-1.84.36.3,1.03.62.82,1.06-.38.78-.85,1.61-1.85,1.86Z"/>
        <path class="cls-1" d="M38.15,45.09c-.48.06-.08.97-.76.77-.25-.07-.44-.31-.38-.55.13-.54.52-.96,1.05-1.03.52-.07,1.05.24,1.59-.22.23-.2.55.15.45.48-.12.41-.27.84-.53,1.16-.27.35-.53.95-1.06.81-.7-.19.08-.73-.12-1.08-.07-.12-.15-.23-.24-.34Z"/>
        <path class="cls-1" d="M10.15,40.68c.05.25.16.57.17.89,0,.39-.28.99-.53.84-.53-.32-1.12,0-1.56-.35-.08-.06-.04-.46.04-.5.81-.4,1.5-.77.56-1.75-.08-.09.24-.45.48-.36.36.13.92.02,1,.6.02.17-.09.36-.17.63Z"/>
        <path class="cls-1" d="M121.25,58.97c-.22-.41-1.05-.94.11-1.14,1.09-.18,3.24,1.59,3.41,2.77-.78-.06-.61-1.03-1.24-1.22-.58.34,0,1.1-.54,1.57-.24-.89.26-2.33-1.45-1.99h0c-.09-.21-.19-.21-.29,0h0Z"/>
        <path class="cls-1" d="M75.41,58.63c-.18.23-.26.42-.41.5-.36.19-.82.26-1.05-.09-.51-.8-1.17-.98-2.04-.76-.63.16-.73-.48-.51-.62.62-.4,1.52-.08,2.12-.67.46.68,1,1.29,1.88,1.64Z"/>
        <path class="cls-1" d="M119.89,63.66c1.19.68,2.12.87,3.17.57.54-.15.88.35.7.92-.11.34-.14.7-.86.45-1.06-.36-2.25-.32-3-1.94Z"/>
        <path class="cls-1" d="M71.29,40.27c-.02.34,0,.61-.28.7-.27.09-.49-.04-.51-.32-.03-.55-.35-.69-.84-.76-.3-.04-.78-.13-.68-.55.12-.48.19-1.05.67-1.35.19-.12.61-.11.63.11.11.87.61,1.54,1.01,2.17Z"/>
        <path class="cls-1" d="M73.5,17.1c-.71-.73-1.56-.07-2.26-.54-.22-.15-.78.09-.6-.49.1-.34.3-.95.66-.79.83.36,2.21.1,2.21,1.82Z"/>
        <path class="cls-1" d="M36.41,55.8c-1.37,0-.88-1.23-1.12-1.88-.19-.52.14-1.24.42-1.88.28,1.26.98,2.4.69,3.76h0Z"/>
        <path class="cls-1" d="M110.85,49.61c-.53-.69-.66-1.44-1.24-1.87-.48-.35,0-.75.08-.92.24-.54.83-.18,1.27-.2.43-.01.27.32.3.6.09.82-.6,1.44-.41,2.38Z"/>
        <path class="cls-1" d="M71.12,63.05c-1.56-.56-1.34,1.35-2.5,1.26-.2-.02-.38.53-.67.16-.19-.23-.17-.59.08-.78.46-.36.88-.57,1.02-1.35.07-.43,1.3-.24,2.08.71Z"/>
        <path class="cls-1" d="M15.04,56.91c.14,1.15-.7,1.2-1.35,1.37-.39.11-.63-.22-.55-.61.16-.79.63-1.41,1.45-1.51.56-.07.38.52.44.74Z"/>
        <path class="cls-1" d="M24.6,40.79c-.62.04-1.26-.13-1.35-.76-.07-.49.61-.85.99-.81.55.06,1.36.16,1.42.91.05.6-.54.69-1.05.66Z"/>
        <path class="cls-1" d="M16.88,40.53c.71-.1.92.46.84.88-.13.73-.96.83-1.51.98-.38.1-.57-.56-.55-.99.03-.79.69-.77,1.23-.87Z"/>
        <path class="cls-1" d="M80.63,59.58c1.42.94,1.26,1.98,1.13,2.98-.03.22-.2.72-.51.47-.3-.24-.75-.06-.86-.31-.24-.53.24-.41.54-.52.36-.13.18-.48.13-.74-.1-.5-.22-1-.43-1.89Z"/>
        <path class="cls-1" d="M122.61,52.01c-.76-.73-1.6-1.44-1.02-2.71.08-.17.12-.36.36-.37.3,0,.43.17.45.43.05.89.5,1.74.22,2.65Z"/>
        <path class="cls-1" d="M18.16,43.56c.29.07.68.16,1.14.27-.26.42-.62.75-.67,1.12-.17,1.32-.96.75-1.6.58-.32-.08-.66-.35-.46-.73.19-.37.45-.02.7.06,1.77.55.34-.92.88-1.3Z"/>
        <path class="cls-1" d="M84.01,60.89c-.38,0-1.06.44-1.08-.47,0-.42.27-1.17.74-1.03.54.16,1.38.44,1.39,1.19.01.76-.64.19-1.06.3Z"/>
        <path class="cls-1" d="M96.14,39.64c-.04.49-.26.89-.71,1.27-.62-.85-.42-1.93-.88-2.78-.14-.25-.18-.6.19-.7.48-.12.52.26.54.61.03.68-.24,1.51.87,1.61h0Z"/>
        <path class="cls-1" d="M120.08,73.96c-.13-.55-.1-1.08-.04-1.65.1-1.02.96-.02,1.18-.54.48.23.06.51.08.76.07.93-.27,1.39-1.19,1.46,0,0-.03-.03-.03-.03Z"/>
        <path class="cls-1" d="M106.48,31.41c-.01-.59.28-1.23-.47-1.59-.25-.12-.61-.31-.43-.6.15-.23.54-.36.85-.41.4-.07.59.22.64.59.09.72-.07,1.38-.59,2.02Z"/>
        <path class="cls-1" d="M70,23.25c.03-.09-.38-.81.39-.8.45,0,1.07.3,1.05.9-.01.33-.38.65-.59.98.23-.93-1.27.28-.85-1.08Z"/>
        <path class="cls-1" d="M25.16,45.12c-.4-.04-.59-.27-.55-.67.04-.39.28-.38.61-.33.62.11.64-.41.71-.81.04-.22-.1-.5.29-.46.29.03.34.26.33.52-.03.93-.71,1.34-1.4,1.74h0Z"/>
        <path class="cls-1" d="M10.54,53.11c-.11-1.13.78-1.25,1.39-1.52.24-.11.67.14.74.52.09.48-.3.59-.63.52-.56-.11-.94.32-1.5.48Z"/>
        <path class="cls-1" d="M98.39,40.84c.18.05.71-.1.51.46-.15.41-.1,1.08-.73,1.09-.46,0-.81-.38-.76-.86.05-.44.31-.81.98-.69Z"/>
        <path class="cls-1" d="M57.35,10.69c-.04.38-.38.54-.5.49-.67-.3-.82-1.07-1.28-1.57-.09-.1.02-.3.28-.33,1.16-.14.67,1.32,1.49,1.42Z"/>
        <path class="cls-1" d="M117.18,40.77c-.18.47-.49.95-1.02,1.06-.42.08-.51-.41-.48-.71.05-.46.12-.99.83-.92.35.03.68.06.67.58Z"/>
        <path class="cls-1" d="M14.72,51.32c-1.07-.43-.86-1.46-1.23-2.15-.1-.19.04-.41.25-.4.34,0,.65.13.71.53.1.64.17,1.28.27,2.02Z"/>
        <path class="cls-1" d="M28.97,26.23c0,.58,1.12.98.32,1.58-.78.58-1.21.04-1.23-.7,0-.18.94-.14.92-.87Z"/>
        <path class="cls-1" d="M82.29,45.13c.81-.13,1.18.41,1.68,1.18-.7-.32-1.13.55-1.63.07-.29-.28-.66-.82-.03-1.26h-.01Z"/>
        <path class="cls-1" d="M29.73,47.09c1.83-1.81-.27-1.21-.7-1.67.62.19,1.31-.83,1.77.11.34.71-.05,1.23-1.07,1.55Z"/>
        <path class="cls-1" d="M52.12,63.67c-.3.36-.61.73-1.12.75-.47.02-.48-.36-.48-.72,0-.48.22-.71.7-.69.43.02.7.26.9.66Z"/>
        <path class="cls-1" d="M77.94,54.07c-.4-.07-.51-.22-.44-.52.21-.84.9-.95,1.56-.9.42.03.48.66.2.75-.51.17-1.17-.06-1.32.67Z"/>
        <path class="cls-1" d="M47.8,45.78c-.16.11-.3.2-.44.29-.3-.61-1.19-.71-1.31-1.47-.04-.25.24-.37.36-.28.51.39,1.04.78,1.39,1.45Z"/>
        <path class="cls-1" d="M104.5,42.73c-.06.29.19.8-.28.79-.57,0-.51-.57-.52-.97,0-.31-.09-.78.35-.78.68,0,.34.61.45.96Z"/>
        <path class="cls-1" d="M23.54,24.46c-.51-.26-1.26.21-1.44-.5-.07-.28.16-.87.56-.87.91,0,.3,1.03.88,1.37Z"/>
        <path class="cls-1" d="M121.82,37.85c0,.54-.03.92-.56.9-.32,0-.6-.16-.42-.51.18-.35-.12-.98.44-1.06.5-.07.49.44.54.66Z"/>
        <path class="cls-1" d="M74.89,45.2c.27.01.64.21.54.3-.36.29-.17,1.03-.82,1.01-.3,0-.59-.2-.55-.52.05-.47.39-.72.84-.79Z"/>
        <path class="cls-1" d="M99.58,52.92c-.12.3-.22.71-.65.77-.41.06-.6-.31-.63-.61-.06-.64.57-.48.91-.62.24-.1.41.14.37.47Z"/>
        <path class="cls-1" d="M68.52,37.05c-.4-.05-.94.02-.83-.4.09-.34.8-.33.96-.81.36.15.46.5.5.8.06.6-.49.23-.63.41Z"/>
        <path class="cls-1" d="M53.11,47.12c-.18.3-.17.77-.64.84-.4.06-.43-.24-.46-.55-.04-.49.13-.68.64-.62.26.03.46-.03.46.33Z"/>
        <path class="cls-1" d="M96.03,65.95c-.81.08-1.39.51-1.79-.19-.1-.18.05-.33.22-.45.74-.53.93.24,1.57.64Z"/>
        <path class="cls-1" d="M60.6,42.08c.57-.26.57-1.19,1.34-1.1.08,0,.21.35.17.49-.23.78-.92.58-1.51.61Z"/>
        <path class="cls-1" d="M94.92,26.21c-.15-.63-.06-1.1.57-1.23.24-.05.55.14.53.36-.06.6-.81.44-1.1.87Z"/>
        <path class="cls-1" d="M120.32,68.77c.37.02.68.13.58.58-.07.35-.33.58-.71.54-.45-.05-.44-.46-.47-.75-.05-.45.34-.33.59-.36Z"/>
        <path class="cls-1" d="M86.97,25.64c.47.69-.19,1.01-.36,1.51-.85-.8-.28-1.15.36-1.51Z"/>
        <path class="cls-1" d="M69.38,24.96c-.4.65-.66,1.06-.92,1.48-.24-.68-.44-1.34.92-1.48Z"/>
        <path class="cls-1" d="M105.86,63.12c.51-.22,1.04-.31,1.3.19.27.5-.49.77-.6.76-.49-.05-.52-.56-.7-.95Z"/>
        <path class="cls-1" d="M109.03,33.8c-.24.24-.06.76-.51.78-.33.01-.49-.29-.47-.59.02-.37.26-.61.64-.63.29-.02.4.18.35.45Z"/>
        <path class="cls-1" d="M81.14,48.78c.44.04.34.48.47.74.13.27-.05.48-.32.47-.36-.01-.63-.22-.67-.6-.04-.34.21-.5.53-.61Z"/>
        <path class="cls-1" d="M99.9,60.7c-.05.23-.05.49-.17.67-.16.22-.41.45-.71.33-.12-.05-.21-.29-.22-.46-.02-.35.22-.49.55-.51.19-.01.38-.01.57-.02,0,0-.01-.01-.01-.01Z"/>
        <path class="cls-1" d="M98.08,77.11c-.81.1-1.13.14-1.45.19-.31.05-.62.34-.92.01-.06-.06,0-.27.06-.39.19-.42.57-.5.96-.4.35.09.67.28,1.35.58Z"/>
        <path class="cls-1" d="M40.92,41.07c-.49.29-.95.57-1.3.02-.13-.22-.05-.53.16-.64.62-.3.71.46,1.13.61Z"/>
        <path class="cls-1" d="M73.73,55.13c.12-.3.34-.48.66-.44.37.05.4.37.38.66-.02.29-.18.44-.48.32-.26-.1-.57-.17-.56-.55Z"/>
        <path class="cls-1" d="M71.89,51.7c.04-.47-.68-.95.05-1.34.1-.05.39.06.48.18.48.67-.24.81-.53,1.16Z"/>
        <path class="cls-1" d="M15.3,45.91c-.3-.44-.53-.77-.75-1.1.26-.12.52-.37.8-.2.54.31.27.71-.05,1.29Z"/>
        <path class="cls-1" d="M7.84,56.95s-.1,0-.14,0c-.5-.04-1.08.15-1.44-.39-.12-.18-.04-.41.19-.42.61-.01,1.1.24,1.39.8h0Z"/>
        <path class="cls-1" d="M108.72,47.13c-.09.33-.35.27-.58.24-.33-.04-.53-.29-.52-.58.01-.35.35-.24.55-.21.3.04.53.2.55.55Z"/>
        <path class="cls-1" d="M112.4,62.34c-.12-.66.13-.93.62-1,.09-.01.3.17.29.2-.16.37-.36.72-.9.8Z"/>
        <path class="cls-1" d="M86,44.6c-.04.18-.04.41-.29.4-.35-.02-.44-.3-.45-.59,0-.19.09-.38.32-.38.4-.01.41.29.43.58Z"/>
        <path class="cls-1" d="M73.3,50.32c-.3-.03-.56-.12-.5-.49.04-.27.24-.37.5-.33.27.04.39.26.43.48.06.33-.19.35-.43.35Z"/>
        <path class="cls-1" d="M54.57,62.66c-.06.28-.2.53-.54.53-.25,0-.3-.21-.27-.4.05-.3.2-.55.54-.56.25,0,.27.21.27.43Z"/>
        <path class="cls-1" d="M48.52,48.5c-.64-.03-.88-.31-.67-1.09.22.5.37.87.67,1.09Z"/>
        <path class="cls-1" d="M17.19,43.19c-.36.31-.6.57-.95.32-.07-.05-.12-.3-.09-.32.3-.17.61-.11,1.04,0Z"/>
        <path class="cls-1" d="M10.36,59.22c-.03.32-.17.48-.42.51-.08,0-.25-.13-.25-.22-.02-.26.16-.41.4-.44.09-.01.19.11.27.15Z"/>
        <path class="cls-1" d="M96.78,56.62c-.39-.03-.56-.13-.58-.33-.03-.22.09-.36.31-.26.15.07.29.21.35.36.04.08-.09.23-.09.23Z"/>
        <path class="cls-1" d="M84.9,44.85c-.2.11-.31.22-.42.23-.21.01-.38-.1-.41-.31-.03-.22.07-.38.32-.27.16.07.29.2.51.36Z"/>
        <path class="cls-1" d="M82.3,45.12c-.23-.16-.32-.34-.01-.51.07-.04.23-.04.26,0,.19.3-.26.29-.26.51,0,0,.01,0,.01,0Z"/>
        <path class="cls-1" d="M15.45,57.51c.06-.05.12-.1.18-.15.06.09.11.18.17.26-.07.03-.16.09-.22.07-.05-.02-.08-.12-.12-.19Z"/>
        <path class="cls-1" d="M7.84,56.95c.23.02.47.03.44.36,0,.04-.21.1-.21.09-.09-.14-.15-.3-.23-.45,0,0,0,0,0,0Z"/>
        <path class="cls-1" d="M38.37,55.82c-.05.06-.09.12-.14.18-.08-.08-.18-.14-.24-.23-.01-.02.08-.15.14-.17.17-.04.23.07.24.22Z"/>
        <path class="cls-1" d="M113.02,63.41c-.04-.13-.1-.24-.07-.31.05-.11.16-.19.24-.29.02.08.09.17.07.22-.05.12-.14.23-.23.37Z"/>
        <path class="cls-1" d="M29.49,49.74c-.2-.09-.28-.25-.24-.46,0-.04.11-.06.16-.09.02.19.04.37.07.56,0,0,.01,0,.01,0Z"/>
        <path class="cls-1" d="M37.52,54.73c-.02.09-.05.17-.07.25-.04-.06-.09-.12-.12-.19-.01-.04.02-.09.03-.13.05.02.11.04.16.06Z"/>
        <path class="cls-1" d="M121.54,58.97c-.03.14.07.37-.19.36-.04,0-.06-.23-.09-.35,0,0,0,0,0,0,.1,0,.19,0,.29,0h0Z"/>
        <path class="cls-1" d="M30.68,55.29s.02.07.03.1c-.04.01-.08.03-.12.03-.01,0-.02-.06-.03-.1.04-.01.08-.02.12-.03Z"/>
        <path class="cls-1" d="M106.25,69.36c-.03.12-.05.24-.08.36-.05-.03-.1-.06-.15-.09.08-.09.15-.18.23-.28,0,0,0,0,0,0Z"/>
        <path class="cls-1" d="M39.23,43.47s-.09.03-.1.02c-.03-.02-.03-.07-.05-.11.06-.01.12-.02.17-.03,0,.04-.01.08-.02.13Z"/>
        <path class="cls-1" d="M6.98,67.63s-.09.09-.14.13c0-.03,0-.07.02-.09.03-.03.07-.04.11-.05,0,0,0,0,0,0Z"/>
        <polygon class="cls-1" points="70.6 60.33 70.57 60.25 70.65 60.26 70.6 60.33"/>
        <path class="cls-1" d="M55.46,57.53s.08.09.12.13c-.03,0-.07,0-.08-.02-.02-.03-.03-.07-.04-.11,0,0,0,0,0,0Z"/>
        <path class="cls-1" d="M25.15,45.13s.08.07.12.11c-.02,0-.06,0-.07-.02-.02-.03-.03-.06-.04-.1,0,0,0,0,0,0Z"/>
        <path class="cls-1" d="M96.15,39.65s.04-.07.07-.11c-.02.03-.05.07-.07.1,0,0,0,0,0,0Z"/>
        <path class="cls-1" d="M94.99,62.73s.09.09.13.13c-.03,0-.07,0-.08-.02-.02-.03-.03-.07-.04-.11h0Z"/>
        <path class="cls-1" d="M56.32,59.26s-.08.08-.13.12c0-.03,0-.06.03-.07.03-.02.07-.03.1-.04,0,0,0,0,0,0Z"/>
        <path class="cls-1" d="M95,62.72s-.08-.08-.13-.12c.03,0,.06,0,.08.02.02.03.03.07.05.1,0,0,0,0,0,0Z"/>
        <path class="cls-1" d="M22.85,68.21c.38-.49.23-1.11.42-1.65.21-.59-.03-1.07-.48-1.38-.57-.4-.41.7-.98.52-.46-.95.39-1.58.71-2.28.76-1.71.82-1.86-.77-2.52-.7-.29-.4-.76-.38-1.18.03-.97.96-.92,1.54-1.2.27-.13.69.15.81.62.34,1.33-.92.34-1.14.85.48.28.86.83,1.59.7.69-.12.7.5.87.92.16.39.2.91.82.76.6-.15.44-.67.42-1.07-.03-.6-.36-1.29.57-1.49.25-.05.39-.57.69-.21.16.2.19.53.21.8.04.42-.21.43-.55.37-.45-.08-.69.2-.51.59.29.63.49,1.45,1.28,1.58.4.07.95-.24.92-.87-.02-.45-.39-.9,0-1.36h0c.74.13,1.5.22,2.23.41.41.11.76.21.97-.25.44-.96,1.18-.46,1.79-.35.46.08,1.02.41.69.99-.23.41-.49,1.21-1.26.72-.63-.41-1.18.1-1.77.09-.65,0-.43.73-.16,1.1.21.29.57.49.9.67.4.21.87.36.45.92-.4.54-.58-.04-.89-.17-.93-.41-1.79.26-2.7.31-.03,0,.4.62.24,1.14-.07.24.79.32.99.16.8-.64,1.23-.27,1.77.36.25.29.75.4,1.15.51.4.11.78-.01.98-.41.25-.5-.12-.65-.48-.84-.14-.07-.19-.31-.28-.47,0,0-.01.01-.01.01.22-.04.62-.11.43-.37-.51-.68-.43-1.51-.71-2.24h-.01c.69-.07,1.34.06,1.35.88,0,.89.46.64.74.31.39-.45.88-.45,1.37-.56-.04.75.54,1.58-.17,2.23-.4.37-.74.66-.72,1.29.01.46.2,1.63-.86.53-.05-.05-.25-.04-.27,0-.38.82-1.22,1.4-1.33,2.32-.03.28.72.73,0,.95-.64.2-1.37.91-2.07.05-.07-.09-.07-.26-.26-.2-.03.04-.08.09-.07.12.91,2.08-1.08,1.52-1.86,2.06-.57.39.01-.94-.78-.47-.97.58-.94,1.19.37,2.33-.85.32-1.85.34-2.12,1.52-.07.33-.44,0-.49-.32.04-.06.08-.11.12-.17-.06.04-.12.07-.18.11-.94-.37-1.72.53-2.85.16-1.42-.47-.9-1.17-.64-1.81.2-.5.35-.97.35-1.49h0c1.26.05.93-.93.86-1.52-.17-1.31.55-1.35,1.54-1.45.87-.09-.29,1.02.55.75.09.33-.02.55-.38.58-.95.08-1.06.69-1.03,1.46.53,0,.94-.19,1.32-.3.89-.27,1.87-.26,2.66-.84.82-.6-.13-.81-.25-1.2-.05-.16-.03-.77-.39-.13-.21.37-.43.62-.89.25-.45-.36-.51-.68-.29-1.23.35-.85,1.04-1.21,1.8-1.52.28-.11.57-.17.5-.56-.04-.22-.22-.28-.42-.32-.61-.12-1.72.47-1.38-1.01.05-.24-1.15.19-.53-.62.26-.34.75-.6,1.25-.12.43.41.76.1.82-.32.09-.61.27-.79.91-.64.37.09.59-.32.5-.69-.12-.49-.51-.41-.78-.17-.45.41-.96.35-1.49.37q-2.08.08-2.01,2.08c0,.09-.06.18-.12.34-.29-.32-.65-.55-1.02-.33-.49.29-.09.71.02,1.02.25.74.22,1.56.71,2.16-1.18.83-1.53-.85-2.47-.66h0ZM30.3,69.95c.18-.11.41-.2.4-.25-.13-.79.47-1,.96-1.39.4-.32.02-.81-.27-1.09-.31-.31-.7-.26-.99.08-.34.39-.44.92-.68,1.37-.23.42.37.83.59,1.29ZM24.39,65.29c.27-1.63.09-1.89-1.44-1.8.86.44.67,1.31,1.44,1.8ZM28.82,68.53c-.05-.08-.08-.2-.14-.22-.07-.02-.21.03-.24.09-.06.15.01.27.18.28.06,0,.13-.1.19-.15ZM32.62,70.47s-.06-.06-.09-.09c-.04.07-.08.13-.11.2,0,.02.06.06.09.09.04-.07.08-.13.11-.2Z"/>
        <path class="cls-1" d="M90.08,76.56c-.13,1.29,1.41,2.13.76,3.6,1.55-.32,1.4-1.27,1.2-2.23-.1-.48-.98-1.01-.04-1.39.95-.39.8.61,1.1,1.07.34.53.8,1.09.32,1.62-.74.81-1.2,1.85-1.97,2.56-.21.19-1.42-.48-1.89-.88-1.45-1.24-2.3-.96-2.93.94-.24-1.04-1.49-1.87.13-2.6.14-.07-.35-.77-.51-1.18-.31-.82.02-2.01-1.33-2.44-.8-.26-1.11.03-1.61.38.54.66,1.41.36,2.02.93-.82.38-1.43.17-2.01-.31-.68-.56-.61-1.1.16-1.42.94-.39,1.86-1.1,3.08-.21-.1-1.21-.79-1.28-1.52-1.44,1.1-.87.28-2.09.69-3.1.16-.39-.3-.52-.67-.51-.47.01-.51-.26-.68-.67-.31-.77.46-.55.62-.85.2-.37.69-.31,1.05-.16.3.12.21.42,0,.56-.29.18-.63.29-.96.43.5.79,1.07.01,1.61.18.79.25,1.56.49,2.24.97.28.2.59.51.89.31.45-.29.76-.75,1.28-.08.49.63.19,1.15-.12,1.9-.77-1.39-2.39-.23-3.3-1.32.02.88-.14,1.84,1.23,1.89h0c-.89.4-1.39.96-.91,2.01.21.46.72,1.2-.42,1.13-1.3-.08-1.09.58-.76,1.34.16.38.34.74.63,1.37.15-1.13,1.31-1.19,1.49-2.17.06-.33.68-.48,1.13-.22h-.01Z"/>
        <path class="cls-1" d="M22.85,72.82c-.28.03-.59-.03-.79.25-1.04,1.46-1.09,1.47-2.88.54,1.23.21,1.46-1.33,2.64-1.35.27,0,.07-.96.48-1.35-.31-.19-.43-.65-1.04-.32-.44.24-1.34.21-1.66.61.11-2.23-1.66-1.41-2.65-1.88-.01,0-.94.18-.2.67.58.38-.43.7-.07,1.09-.57-.13-1.27-.11-1.67-.45-.41-.35.15-.58.49-.72.19-.08.4-.29.23-.39-1.31-.73-.02-.86.24-1.29.57-.93,1.16-1.35,2.2-.6.4.29.62-.11.52-.49-.08-.32-.25-.61-.09-.98.69.25,1.27.56,1.07,1.45-.03.01-.07.02-.1.04-.02.01-.01.05-.02.07.04-.04.07-.08.11-.12,1.04.33,2.01,1,3.18.59,0,0,0,0,0,0-.3.79-.84,1.56.16,2.29.23.16.19.7-.11.9-.74.48-.09.96-.06,1.44h0ZM21.97,69.38c0-.42-.22-.6-.62-.57-.25.02-.48.13-.39.44.09.31.21.66.63.64.28-.02.37-.24.37-.5Z"/>
        <path class="cls-1" d="M79.69,66.48c.14-.78.61-.7.99-.26.35.41.53,1,.79,1.46.57,1.01-.79,2.38.74,3.18.31.16-.31.88-.6,1.28.09.12.15.19.21.26.28.37,1.08-.26,1.09.52,0,.39-.36.42-.75.41-.59-.01-1.17.09-1.23-.73-.04-.52-.06-1.05-.08-1.58-.02-.52.02-1.13-.68-1.15-.09,0-1.42.07-.8,1.16.25.43-.27.4-.62.39-.64-.02-1.43.73-1.83-.34-.16-.43-.28-.97-.16-1.39.23-.84-.06-1.29-.9-1.66,1.88.74,2.52-1.2,3.85-1.55.01.03.02.07.04.1.01.02.05.02.07.02-.04-.04-.08-.08-.12-.11Z"/>
        <path class="cls-1" d="M21.39,55.91c.46-.47.78-.82,1.04-1.24.29-.48.59-1.46,1.6-1.03.45.19,1.12.02,1.27.72.19.87-.82.44-1.02,1,.25.65.89,1.09,1.35,1.66.14.17.33.54.51.3,1.22-1.62.62.78,1.2.53.37,1.05-.48.73-.95.87-1.03.32-1.83,0-2.27-.87-.15-.3-.34-.9-.7-.11-.23.51-.52.28-.77.04-.2-.19-.49-.48-.17-.71,1.57-1.15.13-.85-.45-.98-.14-.03-.27-.08-.64-.18Z"/>
        <path class="cls-1" d="M63.83,67.34c-.02,1.35.89.71,1.7.66-.88,1.12.11,1.78.46,2.6.73-.33,1.01.14,1.54.57.83.66.44,1.02.02,1.46-.57.6-1.26.28-1.28-.32-.04-1.28-1.56-1.05-1.8-2.1.31,1.1-1.47,1.48-.78,2.69.08.13-.72.49-1.1.39-.69-.19-.05-.39.04-.64.28-.72-.45-.52-.74-.7-.23-.15-.4-.28-.31-.55.03-.09.21-.18.32-.18,1.22-.03,1.42-.29,1.07-1.53-.13-.45-.61-.92.44-.77.52.07.12-.32.01-.53-.27-.5-.32-.93.4-1.05,0,0,0,0,0,0Z"/>
        <path class="cls-1" d="M72.21,78.87c.07-1.66,1.34-1.97,2.59-2.3h-.01c.66.02,1.26-.08,1.59.81.32.84-.32,1.35-.51,1.94-.16.49-.96-.3-1.53-.22-.24.48-.21.91.22,1.37-.42.11-1.11.37-1.15.29-.6-1.15-2.01-.98-2.79-1.78-.08-.08-.08-.28-.04-.4.07-.2.28-.28.47-.21.39.15.76.35,1.15.53.05.04.1.08.15.12-.04-.05-.08-.1-.12-.14Z"/>
        <path class="cls-1" d="M34.68,58.11c.71-.05,2.05-.68.88.98-.16.23,0,.74.27.69.65-.14,1.1.99,1.77.25.24-.26.47-.48.84-.48.13.24.32.32.57.23.03-.01.05-.08.07-.12-.22-.03-.44-.07-.66-.1.2-.32-.26-1.03.42-.99.35.02.95.25.92.89-.02.51-.08,1.01-.76.94-.79-.08-1.33.83-2.23.47-.38-.15-.41.32-.28.57.29.57-.12.93-.32,1.39-.1-1.73-2.43-2.72-1.5-4.74h-.01Z"/>
        <path class="cls-1" d="M74.13,61.76c1.13.45,1.84,1.59,3.26,1.44.39-.04,1.07.26,1.13.92.09.91-.88,1.04-1.29,1.59-.35.47-.89.02-.97-.38-.1-.48-1.93-.06-.61-1.19.15-.13,0-.26-.14-.27-1.39-.1-.64-1.58-1.37-2.12Z"/>
        <path class="cls-1" d="M40.25,66.68c-.36-1.1-1.32-2.01-.17-3.17.1-.1.23-.3.19-.36-.79-1.29.64-2.29.34-3.48.43-.07.83.23.81.33-.25,1.1-.29,2.21-.25,3.33.01.35-1.07,1.1.35.95.3-.03.36.27.34.52-.01.22.03.64-.22.57-1.16-.31-.72.9-1.39,1.33Z"/>
        <path class="cls-1" d="M74.87,87.76c.05-.35.05-.76.13-.77,1.58-.29,1.73-2.58,3.58-2.53.31,0,.67-.48.88.11.16.46.53,1.18.1,1.4-.8.41-1.81.24-2.49,1.2-.23.32-1.3.38-2.19.58Z"/>
        <path class="cls-1" d="M34.69,58.1c-1.64.98-3.19,2.31-5.38,1.59.2-.56.49-.2.72-.2.4,0,1.02.27,1.08-.31.09-.87-.52.1-.73-.19-.14-.19-.32-.35-.44-.55-.03-.04.11-.24.22-.29,1.24-.67,2.48-1.29,3.94-.62.28.13.47.31.58.58,0,0,.01-.01.01-.01Z"/>
        <path class="cls-1" d="M55.55,71.78c1.4.73,2.67-.31,4.01-.18.31.03.65-.01.97.06.3.07.41.26.27.52-.1.19-.09.48-.57.27-.64-.28-1.31-.2-1.63.75-.27.82-1.34.43-1.99.91-.42.31-.52-.69-.7-1.15-.13-.34-.54-.58-.36-1.19Z"/>
        <path class="cls-1" d="M87.49,63.59c.12.49.09,1.2.4,1.42.77.54.4.86-.08,1.15-.4.24-.93.71-1.18-.26-.28-1.07-.92-.18-1.37-.15-.42.03-.84.26-1.25.06-.3-.15-.12-.41-.01-.62.24-.47.61-.76,1.16-.58.6.2.73-.2.92-.62.3-.65.81-.73,1.42-.4h0Z"/>
        <path class="cls-1" d="M66.53,81.32c.29.47.99.47,1.16,1.16.12.5.01.68-.38.88-.1.05-.65.13-.17.39.48.25.55.57.22.88-.37.35-.46-.32-.79-.35-.17-.01-.35-.15-.5-.26-.35-.27-1.17-.3-1.03-.74.22-.7.8-1.28,1.24-1.9.04-.05.17-.04.26-.06Z"/>
        <path class="cls-1" d="M46.11,61.54c-.08-.08-.55.34-.71-.07-.12-.32.2-.59.3-.87.32-.9,1.42-1.13,1.64-2.15.1-.47.53.09.73.27.22.19.65.6.1.73-.78.18-.62.52-.58,1.1.05.78-.36,1.36-1.49.99Z"/>
        <path class="cls-1" d="M58.92,65.61c.04.24.12.43.39.54.29.12.92-.22.82.42-.07.48.26,1.37-.64,1.31-.59-.04-.1,1.28-.87.58-.64-.58-.66-1.48-.78-2.24-.08-.54.57-.65,1.08-.61h0Z"/>
        <path class="cls-1" d="M37.93,77.87c-.97,1.03-1.4,2-.17,2.96.07.06.08.29.03.4-.11.21-.3.12-.49.07-1.09-.3-1.31-1.53-2.19-2.06-.15-.09.07-.48.17-.45,1.01.25,1.47-1.03,2.65-.91Z"/>
        <path class="cls-1" d="M96.43,80.33c.74.11.89.92,1.48,1.26.48.27.12.7-.26.83-.89.3-1.62.98-2.74,1.05.32-1.19,1.86-1.75,1.53-3.15,0,0,0,0,0,0Z"/>
        <path class="cls-1" d="M35.54,69.65c.75.54,1.2-.02,1.5-.53.49-.83.93-.41,1.35-.03.63.57.15,1.17-.32,1.08-.76-.14.03,1.12-1.08.82-.95-.25-1.32-.49-1.43-1.34h-.01Z"/>
        <path class="cls-1" d="M107.59,86.45c-.28-.31-.11-.99-.89-.79-.7.19-1.02-.31-1.01-1,0-.38-.06-.89.48-.83.6.07,1.37,0,1.54.92.11.58.04,1.11-.13,1.7Z"/>
        <path class="cls-1" d="M88.93,73.11c1.13-.06,1.32.97,1.78,1.62.17.24.02.82-.54.99-.76.23-1.09-.47-1.15-.79-.09-.58-.39-1.21-.08-1.82,0,0,0,0,0,0Z"/>
        <path class="cls-1" d="M73.26,67.48c-.85.26-1.67-.06-2.34.42-.3.22-.37.03-.47-.23-.27-.7.1-1.19.65-1.32.4-.1,1.19-.98,1.37.26.07.45.63.38.79.88Z"/>
        <path class="cls-1" d="M41.5,73.38c-.79.05-1.26-.49-1.2-1.02.08-.68.94-.52,1.43-.61.6-.11.76.47.74.98-.02.69-.52.7-.97.64Z"/>
        <path class="cls-1" d="M89.41,82.19c.16.59-.01,1.14.69,1.4.48.17.37.78.14,1.12-.26.37-.61-.03-.87-.15-1.23-.6-1.24-1.39.04-2.36Z"/>
        <path class="cls-1" d="M27.18,50.89c.81.69,1.62,1.36.57,2.49-.12.13-.15.37-.37.32-.25-.05-.43-.23-.35-.51.18-.69-.35-.77-.9-.9.39-.52.71-.95,1.04-1.39,0,0,.01,0,.01,0Z"/>
        <path class="cls-1" d="M74.8,76.57c-.14,0-.3.02-.43-.01-.59-.15-1.62.37-1.65-.56-.02-.57.98-.76,1.65-.83.23-.02.47,0,.74,0-.06.54-.47.92-.33,1.42,0,0,.01-.01.01-.01Z"/>
        <path class="cls-1" d="M99,84.68c0,.55-.31.87-.8.76-.51-.11-1.21-.13-1.24-.9-.04-.86.76-.48,1.14-.64.61-.26.73.37.9.78Z"/>
        <path class="cls-1" d="M63.25,61.57c.44,0,.93-.36,1.3.17.13.19.03.46-.12.49-.54.08-.8.85-1.45.61-.35-.13-.69-.3-1.02-.48-.35-.18-.51-.46-.21-.8.26-.3.46-.18.65.13.37.63.67.59.86-.13,0,0,0,0,0,0Z"/>
        <path class="cls-1" d="M99.91,80.88c-.02-.52.08-.9.42-1.2.23.43,1.16.32,1,.77-.14.41-.2,1.23-.96,1.21-.59-.01-.32-.57-.46-.79Z"/>
        <path class="cls-1" d="M89.89,89.11c-.45.94-.89.69-1.26.55-.43-.16-.81-.14-1.23.06-.27.13-.53.46-.89.22-.08-.05-.12-.28-.07-.37.19-.37.57-.54.94-.52.77.04,1.5.46,2.51.07Z"/>
        <path class="cls-1" d="M65.8,80.63c.36-.6.58-.99.81-1.37.1.03.24.03.26.08.28.68,1.39.4,1.48,1.29h-2.56Z"/>
        <path class="cls-1" d="M21.95,52.02c-.01-.35.03-.67.35-.88.33-.21.2-.96.85-.75.34.11.51.47.48.8-.04.53-.34.88-.92.89-.24,0-.48,0-.72,0l-.05-.05Z"/>
        <path class="cls-1" d="M5.24,57.23c.08.46.16.92.24,1.38.08.45.09.94-.53.9-.78-.05-.13-.5-.17-.77-.09-.6-1.13-1.44.48-1.5,0,0-.01-.01-.01-.01Z"/>
        <path class="cls-1" d="M34.14,75.91c.65.4,1.16.76.45,1.49-.24.25-.52.85-.81.46-.47-.63.12-1.28.36-1.95Z"/>
        <path class="cls-1" d="M68.79,69.45c.29.6,1.16.53,1.49,1.18,0,0-.42.27-.43.25-.47-.65-1.56.08-1.84-.8-.08-.25.3-.55.77-.64Z"/>
        <path class="cls-1" d="M46.37,69.23c.61.25,1.46-.44,1.83.46.12.28-.07.64-.36.67-.78.1-1-.69-1.47-1.13Z"/>
        <path class="cls-1" d="M113.17,86.78c-.38.09-.6.17-.83.19-.46.04-.71.78-1.25.42-.29-.19-.02-.44.17-.55.55-.32,1.05-1.15,1.91-.06Z"/>
        <path class="cls-1" d="M51.16,82.36c.17.47.42.98.54,1.52.05.24-.23.68-.47.59-.89-.33.15-1.28-.5-1.78-.15-.11.04-.32.44-.34Z"/>
        <path class="cls-1" d="M56.2,68.54c-.59.8-1.22.89-1.93.5-.3-.16-.33-.66-.16-.69.65-.11,1.33-.15,2.09.19Z"/>
        <path class="cls-1" d="M27.38,76.13c.2.65,1.31.6,1.11,1.39-.08.32-.56.21-.88.12-1.05-.3.08-1.02-.23-1.51Z"/>
        <path class="cls-1" d="M94.25,85.76c-.52-.24-.73-.7-.9-1.15-.09-.24.04-.5.33-.48.72.04.6.85,1.03,1.2.16.14-.29.22-.45.43Z"/>
        <path class="cls-1" d="M84.06,73.32c-.28-.06-.59-.25-.47-.44.22-.36.27-.95.82-.97.28,0,.49.27.49.62,0,.57-.44.67-.83.8Z"/>
        <path class="cls-1" d="M92.07,66.65c.34.58.94.81.7,1.41-.12.29-.57.45-.84.15-.39-.44-.1-.9.14-1.56Z"/>
        <path class="cls-1" d="M72.27,70.73c.55.28,1.07.55,1.64.84-1.16.69-1.43.54-1.64-.84Z"/>
        <path class="cls-1" d="M93.26,69.64c.57.8-.5,1.03-.44,1.71-.54-.32-.67-.69-.71-1.12h0c.71.46.57-.8,1.16-.58,0,0,0,0,0,0Z"/>
        <path class="cls-1" d="M38.7,62.74c-.09,0-.19,0-.28,0-.48,0-.97-.03-1.1-.62-.06-.27.08-.5.37-.42.5.15,1.19.15,1.06,1l-.05.04Z"/>
        <path class="cls-1" d="M44.52,54.64c.34.03.61.15.39.53-.16.27,0,.78-.44.81-.48.03-.37-.4-.43-.72-.09-.46.05-.63.48-.62Z"/>
        <path class="cls-1" d="M69.87,77.84c0,.27.07.61-.31.67-.39.07-.46-.23-.47-.52-.02-.3.06-.59.37-.67.46-.12.36.28.41.52Z"/>
        <path class="cls-1" d="M81.15,79.2c.03-.2-.02-.51.31-.49.38.02.75.16.81.62.03.29-.18.41-.44.42-.36,0-.65-.1-.68-.55Z"/>
        <path class="cls-1" d="M34.54,84.02c.47-.02.76-.83,1.33-.33.1.09.15.44.09.48-.45.32-.93.28-1.42-.15Z"/>
        <path class="cls-1" d="M92.11,70.23c-.4,0-.55-.28-.7-.57-.16-.3-.12-.55.17-.71.15-.08.37-.16.51-.11.4.14.15.45.11.7-.03.23-.06.46-.09.69,0,0,0,0,0,0Z"/>
        <path class="cls-1" d="M92.24,81.9c.25-.47.81-.53.99-1.04.02.45.21,1.01.01,1.33-.19.31-.65-.04-1-.29Z"/>
        <path class="cls-1" d="M49,81.84c-.26.44-.03,1.04-.7,1.01-.1,0-.26-.17-.27-.27-.04-.55.26-.76.97-.74Z"/>
        <path class="cls-1" d="M78.54,60.98c-.1.61.17,1.17.29,1.75,0,0,.01-.01.01-.01-.58-.49-1.47-.93-.29-1.72h-.01Z"/>
        <path class="cls-1" d="M63.24,63.85c-.01.25-.18.49-.49.51-.29.02-.38-.22-.39-.47-.02-.32.12-.56.46-.57.26,0,.41.18.42.52Z"/>
        <path class="cls-1" d="M113.41,78.85c0,.23-.14.42-.39.49-.3.08-.42-.14-.45-.38-.04-.29,0-.6.39-.59.23,0,.41.19.45.49Z"/>
        <path class="cls-1" d="M38.74,62.7c.22.06.59.05.64.18.18.42-.26.38-.48.49-.2.09-.49.28-.62.02-.18-.35.33-.39.42-.65,0,0,.05-.04.05-.04Z"/>
        <path class="cls-1" d="M16.91,71.77c.16.21.4.44.5.71.06.15-.2.3-.41.25-.31-.08-.46-.32-.49-.61-.02-.2.08-.35.39-.35Z"/>
        <path class="cls-1" d="M21.32,75.63c-.26-.09-.58-.15-.65-.47-.06-.24.17-.32.36-.32.26,0,.46.16.54.4.07.2.02.38-.25.38Z"/>
        <path class="cls-1" d="M113.13,75.51c.13.38.08.69-.21.95-.67-.51-.08-.71.21-.95Z"/>
        <path class="cls-1" d="M65.01,80.63c.22.26.4.46.57.67-.1.06-.2.17-.3.17-.32.02-.55-.12-.51-.48.01-.1.13-.2.24-.36Z"/>
        <path class="cls-1" d="M60.1,64.99c-.04.28-.05.48-.29.5-.24.01-.3-.17-.29-.36.01-.24.12-.47.38-.46.08,0,.15.26.19.33Z"/>
        <path class="cls-1" d="M43.04,63.81c-.11.08-.22.22-.3.21-.22-.03-.26-.23-.18-.4.04-.09.19-.12.29-.18.06.11.11.22.19.37Z"/>
        <path class="cls-1" d="M85.75,81.18c-.16.13-.25.25-.35.26-.09.01-.2-.1-.3-.16.09-.09.16-.23.27-.27.08-.03.2.08.38.17Z"/>
        <path class="cls-1" d="M63.61,64.79c.07-.12.11-.19.16-.26.09.06.2.11.27.2.02.02-.09.2-.11.2-.11-.02-.21-.09-.32-.14Z"/>
        <path class="cls-1" d="M35.55,69.64c-.18-.03-.38-.03-.42-.26,0-.04.11-.16.15-.15.24.04.21.26.26.43,0,0,.01-.01.01-.01Z"/>
        <path class="cls-1" d="M49.85,81.66c.03.08.1.16.09.23,0,.07-.07.14-.11.22-.03-.08-.09-.15-.09-.23,0-.07.07-.14.11-.22Z"/>
        <path class="cls-1" d="M45.76,64.87c-.08.06-.13.12-.19.13-.08.01-.2,0-.24-.04-.15-.2.05-.2.16-.2.07,0,.15.06.28.11Z"/>
        <path class="cls-1" d="M28.9,60.71c-.23-.12-.32-.31-.23-.56.01-.03.07-.05.11-.08.04.21.08.42.13.63,0,0,0,0,0,0Z"/>
        <path class="cls-1" d="M81.98,67.39c.08.04.2.06.23.13.03.06-.04.16-.07.25-.08-.05-.18-.08-.23-.15-.03-.05.04-.15.06-.22Z"/>
        <path class="cls-1" d="M90.09,76.58c.1-.07.19-.14.29-.21.07.32-.21.12-.3.2,0,0,.01.01.01.01Z"/>
        <path class="cls-1" d="M111.83,78.49s.09,0,.11.01c.03.03.05.09.03.12-.06.13-.14.12-.18-.01-.01-.03.03-.08.04-.12Z"/>
        <path class="cls-1" d="M87.5,63.59c.04-.13.07-.26.11-.39l.11.08c-.08.1-.15.2-.23.3,0,0,0,0,0,0Z"/>
        <path class="cls-1" d="M107.4,70.8l-.11.39s-.08-.05-.12-.07c.07-.1.15-.21.22-.31,0,0,0,0,0,0Z"/>
        <path class="cls-1" d="M94.49,70.98s-.08.03-.12.04c0-.04-.04-.1-.03-.1.03-.03.08-.03.12-.04,0,.04.02.07.03.11Z"/>
        <path class="cls-1" d="M30.67,60.36s-.08-.03-.12-.04c.04-.04.09-.09.13-.13.03.03.06.06.09.09-.03.03-.07.05-.1.08Z"/>
        <path class="cls-1" d="M78.55,61c.1-.07.19-.14.29-.21.08.33-.2.14-.3.2,0,0,.01.01.01.01Z"/>
        <path class="cls-1" d="M97.3,68.78s-.08-.08-.12-.12c.03,0,.06,0,.08.02.02.03.03.07.05.1,0,0,0,0,0,0Z"/>
        <path class="cls-1" d="M53.43,66.77s.09.04.13.06c-.04-.02-.08-.05-.12-.07,0,0-.01.01-.01.01Z"/>
        <path class="cls-1" d="M58.92,65.61s.08-.09.12-.14c0,.03,0,.07-.02.08-.03.02-.07.03-.11.05,0,0,0,0,0,0Z"/>
        <path class="cls-1" d="M33.53,65.6s-.08-.04-.12-.06c.04.02.07.05.11.07,0,0,.01-.01.01-.01Z"/>
        <path class="cls-1" d="M33.24,63.01s-.08-.04-.12-.06c.04.02.07.05.11.07,0,0,.01-.01.01-.01Z"/>
        <path class="cls-1" d="M22,52.07c-.05.04-.11.07-.16.11.04-.05.08-.11.11-.16,0,0,.05.05.05.05Z"/>
        <path class="cls-1" d="M99.56,64.51c-.11.05-.21.11-.31.12-.02,0-.12-.18-.1-.2.07-.08.18-.13.27-.19.04.07.08.14.14.26Z"/>
        <path class="cls-1" d="M98.39,64.43s-.02.07-.04.1c-.04-.04-.08-.08-.11-.12,0,0,.05-.05.08-.07l.07.09Z"/>
        <path class="cls-1" d="M6.97,48.88c.28.45.6.9.33,1.52-.87-.4-.27-1.02-.32-1.53,0,0-.01,0-.01,0Z"/>
        <path class="cls-1" d="M121.55,58.98c-.1,0-.19,0-.29,0,.1-.21.2-.21.29,0Z"/>
        <path class="cls-1" d="M22.84,72.83c-.03-.48-.68-.95.06-1.44.3-.2.33-.73.11-.9-1.01-.73-.46-1.51-.16-2.29.93-.2,1.29,1.48,2.47.66-.49-.6-.46-1.42-.71-2.16-.1-.31-.5-.72-.02-1.02.37-.22.73,0,1.02.33.06-.17.12-.26.12-.34q-.07-2,2.01-2.08c.52-.02,1.04.04,1.49-.37.26-.24.65-.32.78.17.09.37-.13.78-.5.69-.64-.16-.83.03-.91.64-.06.42-.39.73-.82.32-.5-.48-.99-.22-1.25.12-.62.81.58.39.53.62-.34,1.48.78.88,1.38,1.01.2.04.38.1.42.32.06.38-.23.45-.5.56-.76.31-1.45.66-1.8,1.52-.22.55-.16.87.29,1.23.46.37.68.11.89-.25.36-.63.34-.03.39.13.12.39,1.07.6.25,1.2-.79.58-1.78.58-2.66.84-.38.11-.79.3-1.32.3-.02-.77.09-1.38,1.03-1.46.36-.03.47-.24.38-.58-.84.27.32-.84-.55-.75-.99.1-1.7.14-1.54,1.45.08.59.4,1.58-.86,1.53ZM25.88,68.58c.04-.08.11-.15.11-.23,0-.07-.07-.14-.11-.22-.04.07-.11.14-.11.22,0,.07.07.15.11.23Z"/>
        <path class="cls-1" d="M30.3,69.95c-.22-.46-.82-.87-.59-1.29.24-.45.34-.98.68-1.37.3-.34.69-.38.99-.08.29.29.67.77.27,1.09-.49.39-1.08.6-.96,1.39,0,.05-.21.14-.4.25Z"/>
        <path class="cls-1" d="M24.39,65.29c-.77-.49-.58-1.36-1.44-1.8,1.53-.09,1.71.18,1.44,1.8Z"/>
        <path class="cls-1" d="M28.82,68.53c-.06.05-.13.15-.19.15-.17,0-.24-.13-.18-.28.02-.06.17-.11.24-.09.06.02.09.14.14.22Z"/>
        <path class="cls-1" d="M32.62,70.47c-.04.07-.08.14-.11.2-.03-.03-.09-.07-.09-.09.02-.07.07-.14.11-.2.03.03.06.06.1.09Z"/>
        <path class="cls-1" d="M25.99,75.96c.06-.04.12-.07.18-.11-.04.06-.08.11-.12.17,0,0-.06-.06-.06-.06Z"/>
        <path class="cls-1" d="M21.97,69.38c0,.26-.09.49-.37.5-.42.03-.54-.32-.63-.64-.09-.31.13-.42.39-.44.39-.03.62.15.61.57Z"/>
        <path class="cls-1" d="M19.67,67.62s-.07.08-.11.12c0-.02,0-.06.02-.07.03-.02.07-.03.1-.04,0,0,0,0,0,0Z"/>
        <path class="cls-1" d="M79.69,66.48s.08.08.12.11c-.02,0-.06,0-.07-.02-.02-.03-.03-.07-.04-.1,0,0,0,0,0,0Z"/>
        <path class="cls-1" d="M72.21,78.87s.08.1.12.14c-.05-.04-.1-.08-.15-.12,0,0,.03-.03.03-.03Z"/>
        <path class="cls-1" d="M38.42,59.56c.22.03.44.07.66.1-.02.04-.04.1-.07.12-.26.09-.45,0-.57-.23,0,0-.01.01-.01.01Z"/>
        <path class="cls-1" d="M25.88,68.58c-.04-.08-.11-.16-.11-.23,0-.07.07-.14.11-.22.04.07.11.14.11.22,0,.07-.07.15-.11.23Z"/>
      </g>
    </g>
  </g>
</svg>