<?xml version="1.0" encoding="UTF-8"?>
<svg id="Layer_2" xmlns="http://www.w3.org/2000/svg" viewBox="0 0 125.05 94.36">
  <defs>
    <style>
      .cls-1 {
        fill: #a8bd8a;
      }

      .cls-2 {
        fill: #7d9c55;
      }

      .cls-3 {
        fill: #7a9951;
      }

      .cls-4 {
        fill: #a3ba85;
      }

      .cls-5 {
        fill: #b4c79b;
      }

      .cls-6 {
        fill: #729347;
      }

      .cls-7 {
        fill: #adc192;
      }

      .cls-8 {
        fill: #b6c89d;
      }

      .cls-9 {
        fill: #5c753a;
      }

      .cls-10 {
        fill: #b3c69a;
      }

      .cls-11 {
        fill: #526c2d;
      }

      .cls-12 {
        fill: #556f31;
      }

      .cls-13 {
        fill: #99b277;
      }

      .cls-14 {
        fill: #85a15f;
      }

      .cls-15 {
        fill: #7b9a53;
      }

      .cls-16 {
        fill: #8faa6a;
      }

      .cls-17 {
        fill: #a6bc88;
      }

      .cls-18 {
        fill: #a5bb87;
      }

      .cls-19 {
        fill: #43552d;
      }

      .cls-20 {
        fill: #6c8f3f;
      }

      .cls-21 {
        fill: #77974d;
      }

      .cls-22 {
        fill: #9db57d;
      }

      .cls-23 {
        fill: #c3d2b0;
      }

      .cls-24 {
        fill: #809e59;
      }

      .cls-25 {
        fill: #94ae71;
      }

      .cls-26 {
        fill: #cad7b9;
      }

      .cls-27 {
        fill: #abc08f;
      }

      .cls-28 {
        fill: #829f5b;
      }

      .cls-29 {
        fill: #8ca866;
      }

      .cls-30 {
        fill: #9fb67f;
      }

      .cls-31 {
        fill: #35481d;
      }

      .cls-32 {
        fill: #83a05d;
      }

      .cls-33 {
        fill: #577133;
      }

      .cls-34 {
        fill: #60783e;
      }

      .cls-35 {
        fill: #93ad6f;
      }

      .cls-36 {
        fill: #688b39;
      }

      .cls-37 {
        fill: #d0dbc1;
      }

      .cls-38 {
        fill: #b5c79c;
      }

      .cls-39 {
        fill: #719245;
      }

      .cls-40 {
        fill: #9ab379;
      }

      .cls-41 {
        fill: #aec293;
      }

      .cls-42 {
        fill: #506b2b;
      }

      .cls-43 {
        fill: #b2c599;
      }

      .cls-44 {
        fill: #668a37;
      }

      .cls-45 {
        fill: #698c3b;
      }

      .cls-46 {
        fill: #7e9d57;
      }

      .cls-47 {
        fill: #a6bc89;
      }

      .cls-48 {
        fill: #aabf8e;
      }

      .cls-49 {
        fill: #597236;
      }

      .cls-50 {
        fill: #92ac6e;
      }

      .cls-51 {
        fill: #9bb37a;
      }

      .cls-52 {
        fill: #a0b781;
      }

      .cls-53 {
        fill: #97b176;
      }

      .cls-54 {
        fill: #90ab6c;
      }

      .cls-55 {
        fill: #6f9143;
      }

      .cls-56 {
        fill: #a1b882;
      }

      .cls-57 {
        fill: #5a7438;
      }

      .cls-58 {
        fill: #9cb47c;
      }

      .cls-59 {
        fill: #8eaa69;
      }

      .cls-60 {
        fill: #749549;
      }

      .cls-61 {
        fill: #78984f;
      }

      .cls-62 {
        fill: #8da967;
      }

      .cls-63 {
        fill: #88a561;
      }

      .cls-64 {
        fill: #89a663;
      }
    </style>
  </defs>
  <g id="Layer_2-2" data-name="Layer_2">
    <g>
      <path class="cls-17" d="M97.53,11.97c3.4,2.19,6.85,4.32,8.99,7.93.23,2.2,1.08,4.37.35,6.62-.77,2.55,2.58,5.16-.07,7.7-.82.57-1.75.5-2.67.52-1.86.05-3.89-.57-5.3,1.34-.41.23-.84.37-1.3.43-2.82-1.03-4.45,3.4-7.43,1.63-1.51-.78-1.59-2.51-2.49-3.71-3.16-3.17-4.18-7.02-3.66-11.37,1.33-4.02,5.43-5.14,8.09-7.76,1.62-1.44,4.8-.33,5.48-3.33Z"/>
      <path class="cls-29" d="M5.35,75.35C-1.42,66.68-.26,56.73.84,46.82c.18-1.61.82-3.17,1.25-4.76q4.15-4.24,8.96.37c1.44,2.77,1.23,5.95,1.32,8.82.07,2.09,1.14,3.15,1.84,4.65.53,2.04-1.22,3.4-1.54,5.19-.43.8-.92,1.55-1.53,2.21-.69,3.31,1.46,6.32.98,9.6.26.97.39,1.93-.2,2.84-2.35,2.65-4.47,1.33-6.57-.39Z"/>
      <path class="cls-30" d="M93.38,17.24c-2.58,2-5.15,3.99-7.73,5.99-2.09,2.95-4.28.9-6.45.14-.4-.27-.71-.63-.95-1.04-.46-1.28-.12-2.71-.72-3.98-.23-1.54-1.42-2.19-2.66-2.14-2.13.09-3.34-1.04-4.46-2.54-.37-.94-.2-1.84.18-2.73.37-1.08.24-2.28.78-3.31,1.97-2.79,4.72-4.16,8.07-4.46,5.47,1.39,10.73,3.19,14.93,7.21,1.42,2.53-.77,4.56-.98,6.86Z"/>
      <path class="cls-63" d="M119.31,38.26c3.41,6.66,7.16,13.24,5.18,21.22-1.96.26-3.34-1.02-4.93-1.93,1.33,1.72,3.17,3.09,2.61,5.64-.46,2.1.29,4.59-2.1,6.01-3.51.6-6.25-1.03-8.86-3.05-1.03-1.69-2.49-3.04-3.62-4.66-.35-2.03,1.43-4.21-.45-6.13.41-2.31-1.04-4.99,1.32-6.93,2.36-.94,2.5-3.5,3.76-5.25.12-.45.32-.87.57-1.26,2.29-1,2.03-6.57,6.51-3.68Z"/>
      <path class="cls-49" d="M92.45,88.38c-1.47,1.26-3.41,1.11-5.11,1.69-3.58-1.48-7.85-.03-11.16-2.64-1.95-3.94-.09-7.73.49-11.57.34-1.03.87-1.91,1.96-2.3,1.37-.4,2.37.56,3.51.96,4.6,1.68,9-.77,13.53-.66.49.04.96.15,1.41.34,1.72,1,3.45,2,3.97,4.14,1.55,4.23-.06,7.22-4.67,7.98-1.68.28-3.25.11-3.92,2.06Z"/>
      <path class="cls-18" d="M12.32,21.04c.05-.26.13-.5.24-.74,4.72-1.82,8.21-6.19,13.64-6.55,2.32.42,4.7.75,5.53,3.51.54,2.03-1.51,3.02-1.86,4.7-1.32,3.66-1.86,7.34-.15,11.05.07.49.08.97.04,1.46-.19.75-.6,1.34-1.23,1.77-1.07.59-1.75,1.66-2.77,2.29-1.78.4-2.41,2.13-3.67,3.14-1.08.87-2.39,1.13-3.72.57-1.48-.63-1.8-1.82-1.28-3.25,1.03-2.84-1.48-4.08-2.63-5.93-.58-1.05-.53-2.22-.63-3.36.58-1.57,1.56-3.19-.54-4.45-1.37-1.16-1.76-2.54-.96-4.19Z"/>
      <path class="cls-41" d="M27.42,21.35c.99-1.06,1.98-2.11,2.98-3.17,1.08-1.38.14-1.97-.94-2.63-1.76-1.07-2.7-2.6-1.44-4.51,1.21-1.83,3.62-1.87,4.88-.93,4.8,3.6,5.64.81,6.16-3.28.16-1.26.43-2.61,1.3-3.68,2.54-1.13,5.14-2.01,7.98-1.77,2.14,2.15,4.96,4.07,2.64,7.74-2.21,2.3-3.4,4.99-3.08,8.25-.02.98,0,1.95-.18,2.92-.15.48-.39.91-.73,1.28-.4.29-.85.47-1.34.54-6.29-2.88-7.41-2.63-13.14,2.97-3.11.68-3.5-2.34-5.09-3.73Z"/>
      <path class="cls-42" d="M92.45,88.38c-.97-.58-1.94-1.16-3.18-1.89.91-1.58,2.43-2.55,3.94-1.99,5.34,1.99,6.3-.83,6.16-5.16.75-.69.26-1.81.9-2.54,2.77-.62,5.78-.73,5.03-5.14-.34-1.98,1.1-3.65,3.47-3.88,2.6-.53,4.63.22,5.9,2.65.71,1.28,2.03,2.27,2.02,3.93-.99,3.74-4.31,5.19-7.14,6.97-5.27,3.31-10.97,5.73-17.1,7.04Z"/>
      <path class="cls-51" d="M119.31,38.26c-2.52.02-2.89,2.1-2.7,3.67.25,2.16-1.36,1.73-2.26,2.32-2.6-3.13-5.17-6.22-9.79-6.39-1.16-.04-1.84-1.32-2.05-2.56-.02-.79.33-1.43.83-2.01.95-.01,1.9-.02,2.84-.03,1.97-2.55-.4-4.63-.75-6.92-.87-2.35-.38-4.47,1.1-6.42,5.38,5.34,9.28,11.71,12.79,18.36Z"/>
      <path class="cls-9" d="M11.34,75.22c-.3-.66-.59-1.32-.89-1.98.2-2.27,1.03-6.33,1.95-6.04,4.02,1.3,8.21-3.58,11.84.55,1.7,2.25,3.44,4.49,2.31,7.6-.71,2.1,1.13,3.25,1.82,4.84.35,1.3.11,2.49-.69,3.57-1.47,1.41-4.01,1.77-4.27,4.37-.27.38-.61.7-1,.96-1.86-.61-3.67-1.28-5.05-2.77-1.63-1.5-2.07-3.19-.85-5.16,1.32-2.14-.19-2.84-1.8-3.47-1.28-.61-2.99-.64-3.38-2.47Z"/>
      <path class="cls-47" d="M12.32,21.04c.09,1.46,3.44.78,2.09,3.19,1.7,1.77-.83,4.27,1.03,6.02-.01.66-.02,1.32-.03,1.99.33.31.5.7.49,1.16-.1.9-.57,1.68-.78,2.55-1.58,2.22-2.62,4.75-4.06,7.05-.22.09-.43.17-.65.26-2.5-2.31-5.29-2.58-8.32-1.19,1.35-8.01,5.13-14.83,10.23-21.02Z"/>
      <path class="cls-58" d="M40.36,3.15c1.99,1.67-1.46,6.02,3.16,6.39-.61,1.57-1.16,3.18-1.85,4.71-.66,1.47-1.28.84-2.08-.05-1.3-1.44-2.77.04-4.16,0-1-.04-2.82,1.06-2.82-.63.01-2.98-2.06-2.12-2.81-1.44-1.2,1.09.22,2.27.84,3.39.44.79,4.67,2.28-.24,2.66-.99-2.15-3.08-2.41-5.02-2.92-2.25-.62-2.95-2.04-2.21-4.22,2.06-1.93,4.57-3.06,7.15-4.07,2.42.56,4.6.62,5.22-2.53,1.6-.43,3.2-.86,4.81-1.29Z"/>
      <path class="cls-12" d="M22.41,89.1c0-.29,0-.58,0-.87.94-1.77,2.23-2.93,4.4-2.58,4.99-.35,9.71.9,14.39,2.48,5.97,5.07,12.9,2.29,19.49,2.41,1.34.64,2.58,1.38,3.11,2.88-14.14,1.9-28.01,1.17-41.38-4.32Z"/>
      <path class="cls-24" d="M120.4,68.29c.26-3.85.75-7.84-4.58-8.77-1.64-.29-.98-1.76-.85-2.34.45-2.02,2.14-3.15,3.92-3.95,1.4-.63,2.66.03,3.36,1.3.86,1.59,1.51,3.29,2.26,4.95-.03,3.56-.92,6.84-3.17,9.67-.43-.16-.74-.44-.93-.86Z"/>
      <path class="cls-38" d="M49.5,8.23c.87-2.5-2.43-4.28-1.16-6.85.31-.08.62-.13.93-.15,3.29-.49,6.73-1.78,9.26,1.76,2.14,3.09,1.66,5.67-1.53,7.69-.36.35-.75.67-1.16.96-.13.09-.28.17-.4.29-1.54,1.57-2,5.35-5.41,3.34-3.15-1.85-1.48-4.6-.52-7.04Z"/>
      <path class="cls-11" d="M63.79,93.41c-1.47-.06-2.94-.13-4.4-.19-.51-3.7,2.7-3.43,4.71-4.42.46-.14.93-.17,1.4-.13,3.97-.41,7.83-1.87,11.91-1.43,4.7-3.94,6.68,1.69,9.93,2.82-7.74,1.88-15.52,3.5-23.55,3.35Z"/>
      <path class="cls-4" d="M79.43,3.17c-1.95,2.26-3.64,4.89-7.06,5.1-3.64,3.31-6.47,1.38-9.16-1.43.55-4.13,2.25-5.44,7.41-5.7,3.04.22,6.03.7,8.82,2.03Z"/>
      <path class="cls-20" d="M15.38,76.25c2.12-.65,3.9,0,5.28,1.59,2.06,2.38,2.11,4.98-1.33,5.33-2.96.29-2.05,1.67-1.97,3.16-2.49-.57-4.39-2.07-6.04-3.93-1.81-4.14,1.53-4.88,4.06-6.15Z"/>
      <path class="cls-5" d="M23.18,11.04c1.19,1.17,2.24,2.41,2.21,4.22-3.96,2.48-6.88,7.61-12.82,5.04,2.69-4.06,6.2-7.17,10.62-9.26Z"/>
      <path class="cls-48" d="M70.61,1.13c-2.56,1.56-5.76,2.48-6.18,6.18.35.37.67.77.94,1.2.43,1.02.33,1.97-.37,2.83-3.25.1-6.45-.26-9.59-1.11.95-1.87,3.32-3.27,1.94-5.9.8-2.57,2.47-3.71,5.22-3.43,1.25.12,2.65.54,3.78-.52,1.49-.14,2.92,0,4.25.75Z"/>
      <path class="cls-21" d="M120.4,68.29c.31.29.62.57.93.86-.41,1.18-.81,2.38-1.93,3.13-2.01.14-4.02.58-6.02,0-1.36-1.51-2.71-3.06-5.03-2.95-.83-.57-1.05-1.41-1-2.35.63-2.82,1.86-4.53,5-2.7,2.57,1.56,5.01,3.41,8.05,4.03Z"/>
      <path class="cls-61" d="M15.38,76.25c-.08,2.89-3.15,3.81-4.06,6.15-2.51-1.91-4.8-4-5.97-7.05,1.95-2.38,4.01.5,5.99-.13,1.44-.02,2.83.16,4.04,1.02Z"/>
      <path class="cls-25" d="M93.38,17.24c-2.88-1.33-6.77-2.5-.68-5.08.68-.29,1.11-1.17,1.66-1.78,1.37-.08,2.3.69,3.18,1.59-.43,2.2,1.58,4.48-.56,7.27.33-4.79-2.05-2.17-3.59-2Z"/>
      <path class="cls-52" d="M66.36.38c-2.59,2.27-6.6,1.27-9.01,3.96-1.7-3.61-4.98-3.12-8.08-3.1,5.6-2.16,11.38-.83,17.08-.86Z"/>
      <path class="cls-10" d="M35.55,4.44c.64,1.71,2.61.91,3.79,1.92-2.89,3.43-5.83,3.78-9.01.61,1.74-.84,3.48-1.69,5.22-2.53Z"/>
      <path class="cls-33" d="M113.38,72.26c2.01-2.08,4.02-1.98,6.02,0-.57,1.13-1.17,2.22-2.71,2.08-1.44-.17-2.67-.66-3.31-2.09Z"/>
      <path class="cls-53" d="M109.38,49.26c-.65,1.94.2,4.15-1.04,5.99-1.23,1.6-2.67.78-4.07.35-2.62-2.7-5.46-1.83-8.33-.49-2.62-.52-2.83-2.45-2.67-4.58-.14-4.98-4.4-4.98-7.59-6.28-1.15-.9-2.54-1.61-2.74-3.3.19-1.96-1.5-2.57-2.54-3.74-2.22-2.51-2.73-5.11.6-7.27,3.91-1.15,6.09,2.61,9.35,3.3,0,1.43.18,2.82,1.02,4.05,1.61,1.04,3.04-.28,4.57-.32.96.25,2.06.35,2.73,1.07,1.54,1.69,2.88,2.37,5.07.73,1.19-.89,2.86-.13,3.95,1.12,1.51,2.95,3.77,5.78,1.66,9.38Z"/>
      <path class="cls-2" d="M106.4,41.09c-4.42-2.22-3,2.4-4.73,4.07-1.26-3.13-3.61-5.17-6.31-6.85-.58-1.81-.41-3.13,1.97-3.01.36,0,.73-.02,1.09-.03,1.64-1.12,3.29-1.34,4.95-.02,5.25,1.06,10.6,1.99,10.98,8.99,0,0,.04-.02.04-.02-4.12,2.66-5.27-2.24-7.99-3.14Z"/>
      <path class="cls-24" d="M90.38,33.24c-1.24.03-2.46,2.12-3.75-.08-1.17-1.99-3.28-1.84-5.23-1.93-.35-.29-.67-.62-.96-.99-.24-2.67-2.38-5.09-1.02-7.97,2.17-.3,3.97,1.87,6.24.95-.93,4.52,1.21,7.59,4.73,10.01Z"/>
      <path class="cls-32" d="M97.33,35.3c-.66,1-1.31,2-1.97,3-1.22.35-2.43.7-3.65,1.04-.58.16-1.39.51-1.35-.51.03-.53.67-1.03,1.04-1.55,3.11-.74.33-3.91,2.35-5.37,1.17,1.11,2.38,2.24,3.59,3.38Z"/>
      <path class="cls-29" d="M105.43,26.32c3.09,2,3.5,4.29.75,6.92.08-2.1-.25-3.7-2.79-4.37-1.96-.52-1.37-2.77-.65-3.64,1.06-1.27,1.64.96,2.69,1.09Z"/>
      <path class="cls-64" d="M103.37,35.25c-1.65,0-3.3.01-4.95.02.04-.16.05-.33.12-.48.92-2.02-2.36-4.82.08-5.82,2.43-.99,1.37,3.22,3.27,3.98.45.18.96.23,1.44.33.01.66.02,1.31.03,1.97Z"/>
      <path class="cls-2" d="M23.33,69.33c-3.15-2.08-6.67.43-10.02-.83-1.05-.39-1.18,1.51-.63,2.66,1.43,3-1.31,1.58-2.23,2.08-1.42-2.99-.51-6.64-3.01-9.45-.99-1.12.62-2.21,2-2.56,3.15,1.77,4-1.8,6.05-2.61,1.44-2.32,4.66-1.41,6.25-3.49,3.01-1.2,5.93-3.56,9.26-.79,1.52,1.94,4.4.56,5.97,2.42.26.4.4.84.46,1.31q-2.45,6.65-7.27,4.88c1.6,1.2,4.41,1.46,3.55,4.04-1.11,3.31-4.24,1.31-6.42,1.87-1.28.49-2.59.67-3.95.46Z"/>
      <path class="cls-40" d="M22.26,56.41c-.77,1.22.8,2.67-.32,3.8-.44.44-1.14.91-1.71.9-1.83-.03-.23-1.08-.41-1.6-.89-2.55-2.31.28-3.43-.29-.21-.04-.41-.08-.62-.11-1.31-.52-1.44-2.02-2.36-2.86-5.18-1.46-3.26-5.78-3.6-9.13-.12-1.26.38-2.58.59-3.87,0,0-.02-.02-.02-.02,1.07-.94,2.2-1.16,3.44-.34,1.45,1.68.64,5.22,4.25,5.14,1.48.58,2.24,1.73,2.61,3.21.19,1.82,2.33,3.06,1.57,5.17Z"/>
      <path class="cls-40" d="M16.39,59.22c.33,1.43.83,2.85.89,4.3.02.58-.93,1.19-1.43,1.79-.4-4.1-5.88-.2-6.41-4.08.65-.34,1.3-.69,1.95-1.03,1.11-3.31,3.07-2.15,5.03-.96l-.03-.02Z"/>
      <path class="cls-3" d="M16.42,59.24c-1.68.32-3.35.64-5.03.96-3.44-3.42.96-2.84,2.02-3.96,2.29-.29,2.49,1.51,3.01,3Z"/>
      <path class="cls-56" d="M79.41,22.28c1.86.77.88,3.66,3.63,4.3,1.21.28-1.75,2.04-1.66,3.63-.72.35-1.43.64-2.04,1.26-2.58,2.62-4.25,1.71-5.07-1.52-.21-.82-.51-1.52-.99-2.17-1.67-2.4-4.2-2.02-6.61-2.04-2,.21-3.36-.73-4.34-2.39-.61-1.5-.37-3.03-.21-4.56.52-1.42.76-3.01,2.35-3.75,2.38-.24,3.95-3.64,6.88-1.79,2.64,1.72,7.62-.37,8.02,4.96-.41.49-.78,1.01-1.11,1.55-.79,1.32-.13,1.65,1.1,1.58,0,.31,0,.63.02.94Z"/>
      <path class="cls-27" d="M71.37,13.25c-.48.41-1.4.83-1.39,1.22.2,5.49-2.3,3.33-4.64,1.69-3.04-1.13-4.32-2.59-.96-4.96,0-.99,0-1.98,0-2.96,3.34.26,6.98,1.63,8,3.01-.34.67-.68,1.33-1.02,2Z"/>
      <path class="cls-62" d="M72.4,11.25c-2.51-1.42-5.86-.6-8-3.01,0-.31.02-.62.04-.93,2.72-.29,5.31.5,7.93.96.4,1.2,2.37,1.48,1.82,3.14-.04.13-1.17-.1-1.79-.16Z"/>
      <path class="cls-23" d="M79.39,21.34c-.51.99-1.02,1.98-1.01,1.96,1.02-.77-6.62-4.92,1.01-5.09.43,1.04,1.92,2.09,0,3.13Z"/>
      <path class="cls-22" d="M106.4,41.09c1.62.23,3.85-1.72,4.63,1.58.31,1.32,2.03,1.43,3.35,1.55-.64.73-1.25,1.45-1.05,2.56.23,1.28,1.89,2.57.11,3.88-2,1.48-2.72-.92-4.07-1.4-.99-2.72-1.99-5.45-2.98-8.17Z"/>
      <path class="cls-24" d="M112.35,64.26c-2.09-.02-2.95,1.6-3.99,2.98-3.03,1.97-6.05,3.85-8.89-.27-.11-5.19,4.03-4.82,7.32-5.59.26-.04.52-.08.78-.13.26-.02.52-.04.79-.06,1.8.41,3.08,1.5,4,3.06Z"/>
      <path class="cls-30" d="M104.4,54.23c1.32.34,2.63.68,3.95,1.02,4.63,1.98.71,3.97,0,5.95,0,0,.03.07.03.07-1.42.76-2.13-.27-2.9-1.14-.57-.71-1.08-1.47-1.67-2.18-.47-.51-.87-1.06-.98-1.77.05-1.03.52-1.73,1.57-1.95Z"/>
      <path class="cls-44" d="M77.41,87.24c-1.88,3.32-8.45,4.95-12,2.97-.01-.91-.36-1.8-.1-3.01-.42,1.21-.59,2.17-.88,3.11-1.01,2.13-3.68,1.38-5.03,2.92-3.8-1.35-7.75.04-11.6-.63-2.8-.49-5.4-1.24-7.38-3.41-.54-1.08-.05-1.84.78-2.49,2.71-.19,5.41,1.19,8.27.11-2.77-.38-5.69.64-8.03-1.45-6.03-5.59-3.62-11.09.16-16.58.31-.37.7-.66,1.14-.86,2.13-.42,3.75-1.56,4.8-3.48.37-.29.78-.49,1.23-.61,4.07.28,8.17-.29,12.22.49,1.25.47,2.68.22,3.85.91,1.55.91,1.73,2.35,1.14,3.9-.52,1.36-1.8,2.61-3.03,1.84-3.69-2.34-5.07-.34-6.26,2.71-.13.33-.88.39-1.32.61-.36.32-.78.59-1.27.6-.57,0-1.12-.3-1.71-.17.49-.06.96.07,1.43.16.71.13,1.23-.25,1.72-.68.75-.31,1.57-.51,2-1.31,1.87-3.45,3.32-3.82,5.92-.85,1.49,1.7,2.71,2.73,4.93,1.82.71-.11,1.42-.18,2.12.06,1.74,1.38,3.35,3.31,5.89,1.43.75-.02,1.36.31,1.91.8-.3,3.7-.6,7.4-.9,11.11Z"/>
      <path class="cls-36" d="M100.38,66.23c2.47,1.86,5.4.07,7.98,1.02,0,.69,0,1.38,0,2.07-.42,2.42-2.63,5.47,2.92,6-4.07.99-7.05,3.45-10.78,1.98-1.09-1.33-2.13-2.75-4.2-2.04-.31-.02-.62-.03-.93-.04-3.64.41-5.22-1.51-4.97-4.86.16-2.19-.78-4.59.91-6.57,3.27-2.63,5.41,1.14,8.16,1.45.34.31.64.64.92,1Z"/>
      <path class="cls-15" d="M92.38,64.23c.02,3.92-.87,8.1,2.97,10.99-4.61,1.04-9.11,3.64-13.99,1.01-.93-1.18.34-3.04-1.29-4-.32-.36-.53-.77-.67-1.22.05-4.43,3.94-4.8,6.72-6.34,1.62-1.33,3.06-3.27,5.55-1.65.34.34.57.74.7,1.21Z"/>
      <path class="cls-15" d="M78.31,76.13c-.62.04-1.25.08-1.87.12-1.28.27-2.4.05-3.22-1.08-1.03-1.52-1.6-3.13-1-4.98,3.32-4.57,4.75-4.38,8.17,1.03l.13.09c.83.57,1.66,1.19,1.21,2.34-.46,1.19-1.34,1.21-2.33.6-.36.62-.72,1.24-1.08,1.86Z"/>
      <path class="cls-9" d="M79.39,74.27c1.56-.53,1.48-1.69,1.12-2.95.97.1,2.02-.01,2.9.33,1.31.52,3.18,1.08,2.8,2.86-.44,2.03-2.18.38-3.28.65-.57.14-1.05.7-1.56,1.07-.96-.35-1.62-1-1.98-1.96Z"/>
      <path class="cls-64" d="M96.28,75.26c.74-3.67,3.29-2.2,4.91-1.32,2.48,1.34-.33,2.23-.71,3.35-.37.68-.74,1.36-1.12,2.04-.38-1.85-2.11-2.68-3.09-4.08Z"/>
      <path class="cls-40" d="M19.14,52.23c-.6-1-1.2-2-1.8-3-1.72-1.3-2.63-3.25-3.9-4.91-1.01-.36-2.02-.73-3.04-1.09-1.68-3.53,1.75-5.92,2.02-9.02.93-.55,2.3.23,3.01-.99,0-.33-.01-.66-.02-.99.76.6,1.5,1.25,2.3,1.8,2.5,1.74,5.76,3.31.07,6.16,4.04.79,4.3-4.08,7.49-3,2.42,1.14,1.57,3.35,1.73,5.23.01.44.03.88.05,1.32.04,1.8.92,3.47.86,5.3.18,1.81-1.11,2.63-2.33,3.5-2.26,2.2-4.32.34-6.44-.31Z"/>
      <path class="cls-46" d="M25.4,43.26c-.04-2.02-.09-4.05-.13-6.07.67-.64,1.34-1.28,2-1.92.37-.3.71-.63,1.1-.9-.01-.37-.03-.73-.04-1.1-.31-.84.13-1.35.76-1.78,1.8-.37,3.6-.61,5.2.61.78.6,1.56,1.22,1.77,2.29.68,3.44-6.19,10.52-9.69,9.91-.47-.08-.78-.58-.98-1.05Z"/>
      <path class="cls-50" d="M29.45,32.23c-.37.35-.75.69-1.12,1.04-2.61-1.8-.6-6.21-4.22-7.56-.21-.08.7-1.47,1.48-1.61,1.68-.3,2.2-1.18,1.83-2.75,1.66.95,3.32,1.9,4.98,2.85.78,5.07.21,6.62-2.96,8.03Z"/>
      <path class="cls-43" d="M15.44,30.25c-1.22.44-2.52,1.22-3.61-.1-.99-1.2.12-2.12.69-3.05.6-.97,1.26-1.91,1.89-2.86,3.47,1.47,4.75,3.32,1.03,6.02Z"/>
      <path class="cls-31" d="M28.37,34.36c-.37.3-.73.6-1.1.9.37-.3.73-.6,1.1-.9Z"/>
      <path class="cls-56" d="M29.45,32.23c.97-2.68-1.3-6.55,2.96-8.03-3.26-4.67,2.52-5.18,4-7.15,1.09-1.45,5.07.92,7.52,2.24.65.35,1.01,1.25,1.51,1.9-.56,2.4-1.21,4.74-3.03,6.59-2.23,2.28-2.29,4.6.15,6.82,1.01,1.6.98,3.25.29,4.94-1.9,3.9-6.84,2.72-9.37,5.59-1.39,1.03-2.84,1.89-4.68,1.29-1.28-.91-3.6-.71-3.38-3.2,0,0-.02.03-.02.03,2.34-.21,4.48-.8,5.84-2.95-.75-1.63-2.68.2-3.47-1.49.21-.24.42-.72.77-.85,1.93-.7,4.95-.32,5.28-2.76.34-2.57-3.25-1.39-4.36-2.99Z"/>
      <path class="cls-32" d="M41.62,35.16c-4.53,1.1-2.26-4.59-5.16-5.38-.23-.06,1.55-2.3,2.86-2.77,2.94-1.07,1.59-6.51,6.1-5.81.31.06.63.11.94.16,1.97.16,3.98.16,5.8,1.12,1.54,1.76,1.02,3.28-.57,4.67-.69.66-1.31,1.44-2.27,1.76-3.1.52-3.42,3.75-5.3,5.47-.65.74-1.38,1.23-2.41.78Z"/>
      <path class="cls-38" d="M64.39,11.2c-.89,1.89-.17,3.47.96,4.96-.66,1.07-1.33,2.15-1.99,3.22-2.06.79-2.44-1.56-3.77-2-.23-.16-.38-.26-.41-.26.22.14.44.29.69.47,2.28,2.29,1.2,3.49-1.38,3.66-1.55.1-3.15-.44-4.76-.35-2.49.34-5.09,1.87-7.33-.64,0-1.04,0-2.07,0-3.11.54-.63,1.21-1.56,1.96-1.33,4.98,1.5,6.01-1.87,6.94-5.44,0,0,.1-.15.1-.15,3.13-.94,6.33-2.54,8.98.97Z"/>
      <path class="cls-13" d="M55.31,10.39c.87,1.82,2.04,4.23.4,5.52-2.61,2.04-5.97,2.56-9.31,1.25-4.48-4.89,1.96-5.99,3.1-8.92,3.16,1.01-1.44,4.46,1.73,5.47.61-2.03,1.69-3.47,4.08-3.31Z"/>
      <path class="cls-41" d="M46.4,20.27c2.36-.34,4.72-.67,7.08-1.01,1.59-.19,1.62.91,1.66,2-.57,1.95-2.07,2.21-3.78,2.1-2.04.27-3.97.27-4.99-2,0-.36.02-.73.03-1.1Z"/>
      <path class="cls-60" d="M42.38,69.21c1.42,1.29,4.39,2.02.33,4.27-2.77,1.53-3.53,4.8-1.46,7.85.62.92,1.86,1.49,1.17,2.9-1,.77-.04,2.21-1.02,2.99-.33.65-.66,1.3-.99,1.95-1.95.59-3.79,2.94-5.84-.2-.76-1.16-2.75-.9-4.14-.32-1.62.68-2.43-.05-3.09-1.35-.9-1.27-2.39-2.4-1.02-4.21.37-.9.74-1.8,1.11-2.7-.52-.96-2.56-.35-2.25-2.09.25-1.41,1.09-2.38,2.62-2.53.98-.15,1.95-.33,2.62-1.18,1.47-3.19,1.49-7.86,7-6.96,1.55.84,4.22-1.8,4.96,1.58Z"/>
      <path class="cls-2" d="M31.37,78.23c-.98-.33-1.97-.66-2.95-1-1.45-.36-2.98-.53-3.9-1.94-.42-1.98.47-4.22-1.18-5.96,1.06-.71,2.12-1.42,3.18-2.13,1.82-1.08,3.58-.4,4,1.26.8,3.15,2.73,6.34.85,9.76Z"/>
      <path class="cls-39" d="M26.31,83.09c.58,1.35,1.67,2.57,1.02,4.21-1.64.31-3.28.62-4.92.93-1.8-4.07-.17-5.54,3.91-5.14Z"/>
      <path class="cls-59" d="M24.51,75.29c1.5.24,2.79.91,3.9,1.94-1.85.57-2.65,1.47-.99,3.15-4.74.46-2.88-2.86-2.91-5.09Z"/>
      <path class="cls-43" d="M15.43,33.22c.48.84,1.03,1.65,1.43,2.53.42.92.58,2.07-.46,2.57-1.24.61-1.53-.61-2.02-1.43-.57-.95-1.3-1.79-1.97-2.69.61-1.53,1.87-1.08,3.01-.99Z"/>
      <path class="cls-2" d="M64.42,90.3c-3.09-4.15,2.34-6.26,2.4-9.69-.27,3.25,2.47,6.89-1.42,9.6-.33.01-.66.05-.98.1Z"/>
      <path class="cls-29" d="M75.17,26.29c.33.56.96,1.14.94,1.68-.15,2.95.53,4.11,3.38,1.98.36-.27,1.25.17,1.89.28,0,.34.01.68.02,1.02-.19,1.63-2.34,3.65,1.82,3.91,3.44.21,2.77,2.93,1.19,5.15-1.01,1.31-1.27,3.3-3.3,3.71-3.59.14-7.23.8-10.66-.89-.71-.25-1.46-.43-2.07-.91-1.14-1.61-2.41-3.05-4.33-3.79-2.57-1-2.92-3.42-3.07-5.64-.17-2.46,1.95-3.1,3.84-3.72,1.97.4,3.91.67,5.48-1.05,1.02-.44,2.02-.91,2.99-1.44.61-.27,1.21-.52,1.89-.26Z"/>
      <path class="cls-53" d="M80.4,42.22c1.12-1.09,2.34-1.97,4-1.94.66.94,1.32,1.89,1.99,2.83,1.96,1.21,3.33,3.07,5.04,4.56,1.92,3.12,3.02,6.16-.57,8.98-1.22.96-1.07,2.66-1.65,4-.41.93-.64,1.95-1.49,2.63-1.57,1.23-3.19,1.9-5.04.56-1.44-1.18-1.81-4.7-4.93-2.23-2.78,1.1-5.17.72-7.01-1.82-.66-1.85.54-2.99,1.61-4.17.73-.77,1.76-.61,2.67-.89,2.82-.85,3.78-2.4,1.41-4.84-.22-.44-.32-.9-.33-1.38.07-.74.39-1.38.76-2,.82-1.73,2.72-2.57,3.54-4.3Z"/>
      <path class="cls-3" d="M86.49,60.24c-1.66-3.2,1.28-4.42,2.89-5.76,2.11-1.75,2.21-3.28.84-5.31,2.18-1.89,3.8-1.04,5.15,1.07-.22,1.48-.69,3.03,1.24,3.81,1.99-.16,4.1-.91,5.57,1.23,1.63,4.28-1.55,7.33-2.77,10.89q-3.23.87-7.05-1.93c-.34,0-.69-.02-1.03-.02-1.33-1.67-3.53-2.28-4.85-3.97Z"/>
      <path class="cls-1" d="M95.38,50.23c-1.72-.36-3.43-.71-5.15-1.07-4.01.69-5.29-1.31-3.84-6.05,5.92-.75,8.29,1.12,8.99,7.11Z"/>
      <path class="cls-7" d="M101.51,56.12c-1.63-.69-3.27-1.38-4.9-2.07,4.79-3.37,6.65-3.32,7.78.18-.35.64-.71,1.29-1.07,1.93,0,0-.23.43-.23.43-.28.21-.59.28-.94.22-.35-.1-.57-.33-.65-.69Z"/>
      <path class="cls-45" d="M31.37,78.23c-1.89-3.56-1.58-8.08-4.86-11.03,1.62-1.43,3.5-.23,5.68-.54-1.07-2.62-3.28-4.15-5-6.51,4.38,3.89,6.88,1.37,9.13-2.07,2.77-1.13,3.84.4,4.38,2.77-1.24,3.07-1.11,6.63-3.28,9.38-2.99-1.05-3.9.61-3.9,3.14,0,1.99.27,3.98-2.14,4.86Z"/>
      <path class="cls-6" d="M39.37,61.23c-.89-1.17-1.56-2.56-3.05-3.15.03-.22.07-.43.1-.64-.52-.61-.88-1.28-.82-2.11,1.2-3.38,3.38-5.16,7.14-4.42,2.11.97,4.53,1.11,6.49,2.48,1.46,1.25,1.53,2.81.99,4.5-1.31,5.96-1.56,6.13-8.68,5.58-1.21-.27-1.76-1.18-2.18-2.23Z"/>
      <path class="cls-34" d="M19.14,52.23c1.52-1.48,3.55-.22,5.21-.96,2.15,1.18,6.53-1.96,6.54,3.37-.16.22-.31.43-.47.65-3-1.7-5.27,1.94-8.15,1.13-1.48-1.07-2.64-2.37-3.13-4.18Z"/>
      <path class="cls-19" d="M36.29,55.33c.04.7.09,1.4.13,2.1-1.44.27-2.89.48-4.31.8-3.81.86-2.08-1.42-1.69-2.94h-.02c1.09-2.07,1.65-4.9,5.12-3.59,1.27,1,1.13,2.29.76,3.63Z"/>
      <path class="cls-46" d="M13.43,44.32c3.14.17,5.14,1.25,3.91,4.91-.68,1.11-1.35,2.21-2.03,3.32.15-3-2.93-5.18-1.88-8.22Z"/>
      <path class="cls-35" d="M54.38,21.25c-.3-.67-.61-1.33-.91-1.99,1.4-1.14,2.79-.5,4.21-.03,2.1.7,2.36-.27,1.73-1.98l-.03.03c1.32.7,2.65,1.4,3.97,2.11.51.96.4,1.91,0,2.87-.53,1.47-1.88,1.9-3.11,2.49-3,.59-4.74-.93-5.86-3.48Z"/>
      <path class="cls-54" d="M60.39,23.25c.57-1.57,1.69-1.54,2.97-1.01,1.14,1.12,2.41,1.98,4.07,2.06.59.79.53,1.65.27,2.53-.24.64-.52,1.26-.83,1.88-.45.61-1.04.96-1.79,1.06-4.61.13-5.7-1.38-4.7-6.53Z"/>
      <path class="cls-21" d="M66.46,26.11c.32-.6.65-1.2.97-1.8,2.96-.83,5.99-1.94,7.74,1.98-.26.24-.51.48-.77.73-2.75.61-5.59,1.94-7.95-.9Z"/>
      <path class="cls-35" d="M101.51,56.12c.29.04.58.08.86.11.76.72,1.43,1.5,1.97,2.4.24.33.48.66.72,1,.81,1.23,2.19,1.74,3.31,2.59-2.54,1.59-6.2.95-8,4.01-.32-.01-.64-.04-.95-.07-1.83-3.87,1.72-6.63,2.09-10.04Z"/>
      <path class="cls-20" d="M108.37,62.22c-2.04-.08-4.16.29-6-1.01.61-.47.9-1.14,1.17-1.83.34-.48.79-.76,1.38-.83.38.03.71.18,1,.43.15.11.3.22.45.34.67.65,1.34,1.3,2,1.95,0,.32,0,.63,0,.95Z"/>
      <path class="cls-35" d="M105.67,59.26c-.47.36-.93.71-1.4,1.07-.37.33-.73.33-1.1,0-.56-1.11-.17-2.08.45-3.02.47-.44,1.12-.61,1.61-1.02.81.85,1.11,1.89,1.14,3.03,0,0-.09-.08-.09-.08-.2,0-.41,0-.61.01Z"/>
      <path class="cls-31" d="M105.24,56.3c-.28.33-.57.66-.85.99-.92.22-1.34-.03-.97-1.03,0,0-.08-.11-.08-.11.63.05,1.27.09,1.9.14Z"/>
      <path class="cls-15" d="M68.35,75.25c.53,1.81-.67,2.21-2.02,2.62-1.53.46-1.96-.47-2.47-1.59-.6-1.33-1.26-2.67-2.1-3.85-1.19-1.67-2.56-2.55-2.91.51-.34,2.9-1.95,1.85-3.46,1.28l.03.03c.73-1.29,1.54-2.51,1.73-4.08.23-1.86,1.61-2.26,3.32-2.16,1.24.07,2.85,4.17,3.59,0,.43-2.42-2.47-.96-3.63-1.75,1.13-3.22-2.51-6.17-.54-9.44.02-3,2.33-4.41,4.22-6.13,4.86.61,5.47,4.72,6.76,8.26,1.2,1.76.25,4.1,1.59,5.83,1.85,2.64.11,4.69-1.1,6.83-1.49.8-2.33,2.15-3,3.64Z"/>
      <path class="cls-2" d="M41.4,87.22c-.53-.74-1.55-1.34-1.04-2.43.4-.85,1.24-.84,2.06-.56,4.04-1.1,8.02-.91,11.9.64,1.23.49,2.58,1.14,2.37,2.75-.19,1.43-1.56,1.46-2.7,1.62-4.4.61-8.85,1.52-12.58-2.02Z"/>
      <path class="cls-25" d="M63.28,57.04c.12,1.77-3.12,1.9-2.09,3.92.95,1.87,2.64-.42,4.1.45-1.11,2.12-4.12,2.43-4.87,4.85-3.61-.75-7.63,2.12-10.96-1.21-1.1-1.02-.99-2.12-.19-3.25,2.25-2.89,6.18-3.23,8.72-5.87,1.74-1.82,3.43,1.06,5.3,1.12Z"/>
      <path class="cls-32" d="M55.37,74.22c-1.44,2.46-4.27,2.8-6.45,4.12-1.23.74-2.69.51-3.35-.97-.69-1.56.5-2.56,1.65-3.15,2.68-1.38,5.45-.52,8.18.03,0,0-.03-.03-.03-.03Z"/>
      <path class="cls-15" d="M39.37,61.23c.68.34,1.37.68,2.05,1.01.94.3,1.64.91,2.17,1.72.62,1.75,1.68,3.51-.16,5.19-.35.02-.7.03-1.05.05-1.84-.55-3.27.87-4.97,1.02-.11-3.16-.17-6.32,1.95-9Z"/>
      <path class="cls-57" d="M68.35,75.25c-.88-.46-3.06,1.24-2.51-1.16.15-.64-1.48-3.58,1.71-2.86.91.2,1.92-.05,2.89-.09,1.02-.71,2-.78,2.93.15-.11,1.15,2.16,1.49,1.02,2.99-.85,2.14-2.37,1.57-3.91.97-.71,0-1.42,0-2.12,0Z"/>
      <path class="cls-62" d="M42.42,64.23c-.33-.66-.67-1.32-1-1.98,2.98-.74,7.52.78,7.07-4.9,1.46-.57,2.28.13,2.81,1.4.2,1.27-.59,2.28-.9,3.42-.32.96-.63,1.92-.95,2.88-.3.09-.61.16-.93.22-2.67,3.37-4.26.46-6.1-1.04Z"/>
      <path class="cls-64" d="M51.53,82.56c4.71-3.91,7.58-3.31,8.61,1.74-2.86-.58-5.64-1.14-8.61-1.74Z"/>
      <path class="cls-59" d="M42.42,64.23c2.03.35,4.07.69,6.1,1.04-.11,3.37-1.3,5.32-5.08,3.89-.83-1.54-2.55-2.9-1.02-4.93Z"/>
      <path class="cls-16" d="M70.47,75.25c1.03-1.43,2.63-.55,3.91-.97.69.66,1.37,1.32,2.06,1.98-.19,2.39-2.31,2.99-3.82,2.91-1.94-.11-1.32-2.62-2.14-3.91Z"/>
      <path class="cls-63" d="M73.36,71.29c-.98-.05-1.95-.1-2.93-.15.65-2.17.95-4.28-1.08-5.96.86-2.53,2.58-3.75,5.25-3.25,1.55.29,2.93-.18,4.34-.62,1.58-.41,2.84.62,4.26.93,1.4.89,2.81.18,4.22.01,2.06,1.78,2.03,2.5-.17,4.99-2.29,1.33-4.58,2.66-6.87,3.99-2.34-.43-4.72-4.47-7.02.06Z"/>
      <path class="cls-36" d="M87.26,67.24c.83-1.64,1.3-3.29.17-4.99-.31-.67-.63-1.34-.94-2,1.4.42,2.78.98,4.2,1.22.82.14,2.01-1.24,2.51.13.48,1.32-1.16,1.78-1.86,2.62-2.46-.46-1.99,3.01-4.09,3.03Z"/>
      <path class="cls-18" d="M35.39,52.35c-1.66.98-3.33,1.96-4.99,2.95-.99-2.88-4.93-1.34-6.06-4.03,1.12-.75,1.82-1.77,2.06-3.1.27-.35.57-.67.92-.95,1-.55,2.16-.64,3.21-1.05,1.33-.21,1.04-2.28,2.6-2.23,1.35.19,2.81.18,3.46,1.76.09,2.3,1.34,4.82-1.2,6.65Z"/>
      <path class="cls-46" d="M27.09,48.21c-.23-.03-.46-.05-.69-.05-.21-1.67-3.57-2.71-.99-4.94,1.38.66,2.75,1.31,4.13,1.97-.06.83-.57,1.4-1.12,1.94-.41.4-.82.8-1.34,1.08Z"/>
      <path class="cls-6" d="M35.39,45.26c-.99-.36-1.99-.71-2.98-1.07-.29-.23-.37-.43-.25-.61.12-.17.23-.26.34-.26,2.26-3.09,5.66-3.58,9.09-4.02,1.21-.46,2.11.01,2.86.96,1.81,4.42-2.56,5.32-4.38,7.68-.48.19-.99.24-1.5.17-1.59-.34-1.77-2.28-3.17-2.84Z"/>
      <path class="cls-39" d="M43.33,40.23c-.58-.31-1.16-.62-1.74-.93-.41-1.38-.55-2.77.04-4.14.26-.59.51-1.18.77-1.77,5.14-.91,6.19.12,5.06,4.98-.87,1.75-2.08,2.72-4.12,1.86Z"/>
      <path class="cls-16" d="M32.5,43.32c-.04.29-.07.58-.1.87.29,1.73-.07,3.02-2.15,3.12-1.32.89-2.07.03-2.78-.93.69-.4,1.38-.79,2.07-1.19.98-.63,1.97-1.25,2.95-1.87Z"/>
      <path class="cls-56" d="M45.57,37.15c2.06-3.9-1.62-2.93-3.18-3.76,1.46-2.28,2.9-4.57,4.38-6.83,1.55-2.35,1.18.26,1.67.66,2.2,1.38,2.88,4.2,5.17,5.49,1.42.49,2.23,1.83,3.52,2.52-1.41-.88-2.47-2.29-4.12-2.83-1.45-1.8-3.13-3.5-2.71-6.12.73-.83,1.77-1.55,1.06-2.91,1.01-.7,2.01-1.41,3.02-2.11,2,.67,4,1.34,6.01,2,2.31,1.45,1.34,5.7,5.06,5.95.21.36.22.73,0,1.1-3.53,2.84-3.53,4.66.49,5.75,3.11.84,2.92,2.94,3.33,5.08-.54,1.67-1.94,2.52-3.25,3.47-1.53.58-2.99,1.45-4.74,1.05-3.78-.67-7.74-.49-11.3-2.3-2.46-1.36-2.43-4.49-4.41-6.2Z"/>
      <path class="cls-63" d="M50.3,26.27c5.75.28,5.79.36,3.09,5.98.4.15.54.33.43.53-.12.21-.24.31-.36.31-.64-.08-1.27-.17-1.92-.22q-5.74-.47-3.11-5.65c.62-.32,1.24-.64,1.86-.95Z"/>
      <path class="cls-53" d="M59.42,17.25c-3.34-1.78-1.18-4.03-.92-6.56,4.26,2.16,1.87,4.43.89,6.59,0,0,.03-.03.03-.03Z"/>
      <path class="cls-22" d="M80.4,42.22c0,1.87-.89,3.37-2.02,4.76-2.38,1.4-4.62,3.37-7.68,2.54-1.95-.53-3.92-1.5-4.32-3.67-.42-2.31,1.57-3,3.29-3.68.61-.24,1.24-.47,1.74-.92,2.88,1.42,6.03.31,8.98.98Z"/>
      <path class="cls-24" d="M71.42,41.24c-.2,2.13-5.67,2.76-1.75,5.99,1.01.83,2.45,1.22,3.64.27,1.69-1.35-.93-2.01-.69-3.15,2.94-1.29,3.25,3.04,5.76,2.62-.34.42-.67.84-1.01,1.27-1.82,2.77-5.02,2.99-7.71,4.19-5.84-2.78-6.74-4.73-4.26-9.19,1.09-1.07,2.29-1.94,3.87-2.13.71.04,1.43.08,2.15.12Z"/>
      <path class="cls-55" d="M65.45,30.3c0-.37,0-.73,0-1.1-.02-.55-.04-1.11-.06-1.66,4.48-1.09,5.56-.78,6.15,1.77-1.98.65-3.25,5.62-6.09.99Z"/>
      <path class="cls-47" d="M71.54,29.31c-1.81-1.41-3.99-1.57-6.15-1.77.36-.48.71-.95,1.07-1.43,2.65.26,5.49-1.07,7.95.91-.63,1.17-1.18,2.44-2.87,2.29Z"/>
      <path class="cls-40" d="M65.4,43.25c.07,3.44.73,6.47,4.92,7.04.73-.52,1.26-.16,1.76.38.12,1.93,1.22,3.64,1.31,5.59-.67.97-1.33,1.93-2,2.9-.31.4-.64.41-1,.07-3.82-1.25-3.88-5.37-6.03-7.89-.84,2.08-1.82,3.26-3.38.5-.2-1.44-.93-2.65-1.51-3.95-.73-1.64-.77-3.47,1.87-3.64,1.38-.22,2.42-1.85,4.07-.99Z"/>
      <path class="cls-60" d="M73.39,56.26c-2.43-.98-5.05-1.89-2.01-5.05,2.29.2,3.89-1.88,6.12-1.86,1.74.32,3.48.63,5.32.97-1.62,3.16-4.67,4.51-6.92,6.68-1.65,1.59-1.75-.31-2.51-.74Z"/>
      <path class="cls-46" d="M83.21,62.23c-1.31.3-2.63.6-3.94.91-1.03-.78-2.8-1.08-1.95-3.06-.68-4.14,4.98-2.24,4.91-5.95,1.27,2.94-.43,5.66.98,8.11Z"/>
      <path class="cls-60" d="M77.32,60.08c.65,1.02,1.3,2.04,1.95,3.06-3.42.14-6.8.4-9.91,2.03-1.05-2.22.88-3.93,1.03-5.94.33-.02.67-.05,1-.07,1.91.74,3.75,1.96,5.93.92Z"/>
      <path class="cls-48" d="M77.5,49.35c1.1,1.12-5.52,1.99.35,3.33-2.82,1.03-4.66-.15-6.47-1.47-.35-.31-.71-.61-1.06-.92,1.99-1.92,4.79-1.06,7.05-2.04.04.37.09.73.13,1.1Z"/>
      <path class="cls-3" d="M103.41,56.27c.32.34.65.68.97,1.02-.36.91-.72,1.81-1.08,2.72-.14.68-.45.76-.92.26,0-1.35,0-2.69,0-4.04.35.01.69.02,1.04.03Z"/>
      <path class="cls-28" d="M61.33,44.24c-1.74,2.64,3.32,4.29,1.02,7.01-3.21,2.94-5.78,6.68-10.17,8.15-.66.22-1.25.18-1.82-.22-.63-.62-1.25-1.23-1.88-1.84-.04-1-.07-2.01-.11-3.01-1.19-2.39-.3-4.89-.38-7.34.48-1.76-.05-4.02,2.4-4.8,1.18-1.22,2.36-3.28,3.98-.59,1.68,2.8,5.68-.94,6.95,2.64Z"/>
      <path class="cls-17" d="M50.43,47.11c1.76,3.1-1.75,4.7-2.05,7.22-2.22.91-4.06-.16-5.92-1.15-1.18-2.08-6.28-1.46-4.05-5.89.32-.03.63-.08.94-.15,3.68-3.76,7.39-.67,11.08-.03Z"/>
      <path class="cls-14" d="M38.41,47.29c.62,2.47,3.7,3.24,4.05,5.89-2.81-1.44-3.82,2.28-6.18,2.15-.3-.99-.6-1.99-.9-2.98,0-2.36,0-4.72,0-7.08.69-.55.94-2.14,2.08-1.54,1.32.7.73,2.33.94,3.57Z"/>
      <path class="cls-37" d="M102.38,60.27c.31-.06.62-.15.92-.26.32.1.65.21.97.31-.41.78-1.16.81-1.89.88.02-.31.03-.62,0-.94Z"/>
      <path class="cls-8" d="M105.67,59.26c.2.03.41.02.61-.01,0,0-.31.32-.31.32l-.3-.31Z"/>
      <path class="cls-6" d="M50.36,59.18c2.69-3.07,6.85-4.37,9.28-7.79.65-.91,1.78-.51,2.71-.15.61,1.38,1.32.38,2,.09,1.54,2.26-3.51,3.28-1.07,5.71-1.92.09-4.6-1.07-4.32,2.63.18,2.34-1.33,2.56-2.88,1.91-2.1-.88-3.86-.34-5.68.58-.43-.99-.79-1.98-.04-2.98Z"/>
      <path class="cls-26" d="M27.48,46.39c.93.31,1.85.62,2.78.93-1.05.3-2.11.6-3.16.9.13-.61.25-1.22.38-1.82Z"/>
      <path class="cls-59" d="M50.43,47.11c-1.52,1.94-2.78,4.62-5.48,1.03-1.41-1.87-3.68-.92-5.6-1,1.3-2.32,3.86-3.91,3.98-6.91,1.17-.72,1.84-1.79,2.24-3.08,3,.34,4.67,1.97,4.83,5.04.01,1.64.02,3.28.03,4.92Z"/>
      <path class="cls-21" d="M53.47,33.1c-.03-.28-.05-.56-.07-.84q7.1,1.85,4.78,7.79c-1.67-2.46-3.19-4.71-4.71-6.95Z"/>
    </g>
  </g>
</svg>