<?xml version="1.0" encoding="UTF-8"?>
<svg id="Layer_2" xmlns="http://www.w3.org/2000/svg" viewBox="0 0 136.09 99.43">
  <defs>
    <style>
      .cls-1 {
        fill: #6f7172;
      }

      .cls-2 {
        fill: #506b2b;
      }

      .cls-3 {
        fill: #a6bc88;
      }

      .cls-4 {
        fill: #c3d2b0;
      }

      .cls-5 {
        fill: #35481d;
      }

      .cls-6 {
        fill: #d2d2cf;
      }

      .cls-7 {
        fill: #e1e9d7;
      }

      .cls-8 {
        fill: #e1e2e2;
      }

      .cls-9 {
        fill: #bcbbbc;
      }

      .cls-10 {
        fill: #9f9e9d;
      }

      .cls-11 {
        fill: #88a561;
      }

      .cls-12 {
        fill: #6a8f39;
      }
    </style>
  </defs>
  <g id="Layer_2-2" data-name="Layer_2">
    <g>
      <path class="cls-11" d="M99,4.16c9.55,2.65,17.31,8.21,24.33,14.96.41.4.43,1.21.63,1.83-1.05.8.58,3.18-1.86,3.16-.25-1.56-.12-3.28-1.61-4.18-2.78,3.77-2.67,7.95-1.29,12.04.86,2.54-.5,3.22-2.21,4.02-1.01-.2-1.36-2.51-2.64-1.16-.85.89-.8,2.55.25,3.6.9.9,2.17.48,3.3.51-.61,1.9,3.04,2.83,1.15,5.02-1.52,2.23-3.28,4.52-2.1,7.39,1.07,2.59,1.64.83,2.11-.45.99.02,1.97.04,2.96.06.35,3.71.7,7.43,1.04,11.14-.39,3.28-.77,6.56-1.16,9.84-1.25-.1-2.84.37-2.49-1.93.4-2.6.46-5.26.93-7.84.57-3.08-.84-5.93-3.01-6.91-2.8-1.26-3.23,2.16-4.49,4.01-1.54,2.28-2.11,5.36-4.95,6.67-.66-.67-1.31-1.33-1.97-2-2.9-6.44-2.79-14.17-8.49-19.44,3.14,6.25,2.22,14.02,7.55,19.42-.87.62-1.74,1.25-3.27,2.35,5.09.63,5.57,3.81,5.24,7.46-.2.92.32,2.3-.82,2.63-2.21.64-1.89-2.46-3.63-2.75-.84.63-1.65,1.7-1.12,2.49,1.4,2.1,2.69,3.56-1.46,2.67-.76-.16-1.06,1.53-.73,2.53.41,1.24,1.14,2.42.31,3.78-1.29-.78-1.12-2.42-1.96-3.31-.97-1.03-2.6-1.62-3.55,0-1.78,3.02-3.12,4.02-6.07,3.11-1.71-.52-2.08-.21-3.34,1.19-2.84,3.17-5.78,6.88-10.76,6.84-3.22-.03-2.36,1.66-1.87,3.53.43,1.64,2.32,1.18,2.95,2.38-5.76,1.12-11.25-.72-16.76-1.77-8.18-1.55-16.53-2.53-24.19-6.14-.72-4.64-4.43-7.78-6.03-11.98,4.06.23,8.16.23,12.08,1.93-1.29-1.3-3.3-2.55-1.25-3.96,2.36-1.62-.07-2.71.19-3.99,2.32.12,3.56-.88,3.57-3.88-1.76,1.22-3.33,1.87-3.56,3.88-4.04.38-7.12-.19-6.05-5.52.21-1.06-.75-3.47-1.56-2.36-1.78,2.43-4.87.9-6.39,3-.46,1-.92,1.99-1.38,2.99-.16.09-.3.2-.43.33-2.11-.8-3.44-2.4-2.87-4.55.6-2.26,2.57-1.84,4.51-1.55,3.23.48,2.17-1.54,1.27-2.89-1.35-2.02-3.46-3.62-3.1-6.45.64-.09,1.37-.08,1.49-.93.02-.17-.38-.58-.55-.56-.85.12-.82.87-.94,1.49-8.07,2.66-2.2-6.66-8.05-6.88,2.7-.98,5.84,1.71,4.47-2.4-.12-.36,1.02-1.14,1.58-1.72l.43-.23-.19-.19-.24.42c-.91-.29-1.67-.87-2.79-.63-2.73.58-5.75-.9-6.64-2.56-1.14-2.15,2.54-2.67,3.81-4.2.13-.16-.02-.54-.04-.85-1.12.08-2.23.16-3.35.23.04-.81.24-1.55.99-2.01,3.02-1.99,6.81-3.34,9.89-2.67,3.37.74,4.23-.52,4.99-2.78.46-1.37.76-2.92,2.44-2.33,2.91,1.02,2.2,4.08,2.96,6.3.31.91.81,2.34-.79,2.05-3.6-.67-2.83,2.07-2.24,3.27,1.67,3.38.86,6.76.75,10.16-.95.65-1.2,1.67-.88,2.61,1.15,3.31,2.95,6.58-.94,9.43-.94.69.18.98.6,1.26,1.49.97,2.06.17,2.27-1.25,2.82,2.59,2.79,2.57,4.92-1.42.26-.49.97-.75,2.62-1.96-3.1,5.75,1.7,7.2,3.5,9.92,1.04,1.58,2.54-.69,3.43-1.65,1.95,1.09.64,3.67,3.06,4.94-.35-2.33-1.09-4.78,2.09-5.07-.23-.6-.47-1.21-.7-1.81h.01c1.49-.77,3.05-2.83,4.27.43.17.46,1.77.38,2.71.55l.02.02c.22,2.27-2.68,3.89-1.18,6.99,1.11-1.92,1.87-5.17,4.29-1.34.55.88,2.82-.21,2.37-1.87-.87-3.23,4.54-7.1-1.04-9.75.3-.54.54-1.13.9-1.62,2.27-3.12.88-4.25-2.36-4.4,0,0,0,0,0,0,.24-4.07.93-8.06,2-12,.07-.14.15-.29.22-.43-.08.14-.15.28-.23.42-1.6-.34-3.19-.81-4.8-.99-2.78-.31-3.15-4.08-2.96-4.19,3.19-1.82,1.56-5.3,2.87-7.67.49-.89.9-2.04,2.05-1.58,1.2.48.49,1.61.33,2.55-.91,5.54,1.81,9.78,7.03,11.17.98.26,2.46.64,2.26-.69-.78-5.13,2.88-3.3,5.22-3.59.36.25.72.51,1.07.76.09-.13.17-.26.26-.39-.44-.13-.88-.26-1.32-.39-.03-1.35-.07-2.69-.1-4.03,2.36,2.34,4.72,4.69,7.08,7.03h-4.69c.99,4.5,2.97,2.08,4.77.85,3.21.58,4.24,3.97,6.85,5.32.36,6.94,2.73,12.8,8.97,16.73,0-2.34-.45-3.82-2.07-6-2.22-2.97-5.88-7-3.36-12.13.74-1.5.9-4.23-2.52-3.68-6.53.82-7.06-6.09-11.02-8.69-3.17-2.08-5.09-5.89-8.87-7.42h-.01c.07-.87-.17-1.58-1-2,0,0,.01,0,.01,0-.08-1-.17-2-.25-2.99,1.85-1.02,3.4-2.33,4.86-3.92,2.73-2.96,6.04-4.88,10.31-3,.15.13.31.25.46.38-.12-.16-.25-.31-.37-.47-.6-2.21-1.22-4.41-1.79-6.62-.21-.82.09-2.23.81-1.78,4.71,2.92,11.24,1.45,15.05,6.3.6.77,1.19,1.22,2.01.79,1.04-.54.82-1.68.87-2.64.44-.12.87-.25,1.31-.37-.08-.13-.17-.25-.25-.38-.36.25-.71.5-1.07.75-2.62-.28-1.84-2.27-1.93-3.83ZM95.07,39.85c-.07-.94-.14-1.89-.21-2.83,1.05-2.33-1.78-4.71.09-7.03.13-.14.27-.28.4-.42-.14.13-.28.27-.42.4-.6,0-1.71.11-1.73,0-1.3-6.83-8.47-2.82-11.48-6.56,2.85,2.05,2.04,6.63,6.36,8.03,1.35.44,5.33,2.18,5.83,5.5-.94,1.41.09,2.23.92,3.11.16.74.24,1.56,1.3,1.51.12,0,.31-.19.32-.31.13-1.03-.62-1.23-1.38-1.41ZM54.96,79.95c.14.08.28.16.42.23-.14-.08-.28-.15-.43-.23-.81-3.22-3.56-1.72-5.46-2.29,1.41,1.76,3.33,2.29,5.46,2.28ZM79.07,68.1c.31-.03.61-.06.92-.08.58,2.87,3,4.21,4.95,5.93.05.11.09.24.16.33.05.06.16.05.25.07-.14-.14-.27-.27-.41-.41,2.13-1.45-2.7-3.71.44-4.74,1.45-.48,2.6,1.43,3.41,2.46,1.53,1.94,1.31,2.11,3.63,1.39-.87-2.52-1.59-3.2-7.48-7.1h0c2-.1,4.05,1.28,6.05-.47.39-.34,2.12,1.29,1.98-1.02-.09-1.41-7.52-6.41-8.72-5.71-.4.23-.55.87-.94,1.14-1.09.74-2.24,1.39-3.37,2.08-1.27-.56-2.26-.49-2.05,1.24.18,1.54.57,3.06.87,4.59l-.3.62c.2-.11.41-.21.61-.32ZM99.97,36.01c-.61,3.39,1.11,5.09,4.23,4.74,3.87-.44-2.14-2.68.46-3.62,2.27.06,1.67-1.81,2.13-3.04.38-1-.11-1.1-.81-1.1-2.28,0-4.57-.05-6.84.12-.98.07-2.01.82-1.7,1.95.31,1.15,1.59.82,2.52.93ZM69.95,63.97c2.16-1.21,1.72,4.92,4.59,1.63,2.32-2.67.37-4.35-1.48-6.03-.77-.7-1.09-1.58-1.11-2.6,1.24-1.23,1.46-2.52-.02-4.56v4.55c-3.83-.53-1.58,5.6-5.76,4.79,1.57.65,3.74-.43,3.76,2.21-6.57.21-1.11,2.94-.94,4.56.32-1.52.63-3.03.95-4.55ZM48.95,92.94c2.52.87,4.72.84,6.59-1.54.76-.96,2.68-2.26,3.19-1.95,2.87,1.75,2.43-.01,2.38-1.82-.01-.5.54-1.18,1.02-1.49.82-.53,2.12-1.68.8-1.81-2.56-.26-.91-4.4-3.66-3.42-.74.26-1.71,1.11-1.62,2.99.15,3.48-1.55,6.8-6.05,5.95-3.26-.62-2.53,1.42-2.64,3.09-.35.26-1.38-.46-1.07.74.35-.25.71-.5,1.06-.75ZM81.8,49.28c-2.83.49-4.73,1.95-6.21,3.54-.64.69,1.12,2.11,2.3,2.6,1.06.44,1.12,1.11.82,1.93-.43,1.16-.96,2.34.95,2.52,1.73.16,2.1-.7,2.16-2.43.06-1.55,1.11-3.05,1.61-4.61.62-1.92-1.19-2.49-1.62-3.57ZM93.41,10.2c1.45,3.22-4.92,10,4.85,10.22-2.28-3.45-3.8-6.71-4.85-10.22ZM64.4,76.17c-.15,2.1-3.1,3.19-.93,5.34.53.53,1.52,1.32,2.07.49,1.18-1.76,1.24-3.66-1.14-5.83ZM54.64,83.01c-1.68-.52-3.38-1.61-4.5.7-.31.64-1.05,1.62.06,2.05,2.53.98,2.36-2.65,4.44-2.75ZM82.86,44.45c-2.04-.42-3.33-1.83-4.53-.04-.4.6-.2,1.43.43,1.65,1.59.56,2.09-1.33,4.1-1.61ZM58.92,37.72l.39-.21c-.11-.09-.22-.25-.35-.26-.12-.01-.26.12-.39.19.11.09.23.19.34.28ZM89.62,38.21c.02-.13.05-.26.07-.38-.18.03-.35.07-.53.1.04.12.06.26.15.34.05.04.2-.03.31-.06ZM21.33,54.49c-.24-.02-.49-.04-.73-.06.11.09.22.25.34.26.12.01.26-.12.39-.2ZM51.66,72.19c.02-.13.05-.26.07-.38-.18.03-.35.07-.53.1.05.12.07.26.15.34.05.04.2-.03.31-.05ZM85.29,7.71c-.05.12-.09.24-.14.36.18.02.36.03.55.05-.03-.13-.02-.28-.09-.38-.04-.06-.21-.03-.32-.04Z"/>
      <path class="cls-3" d="M50.95,63.97c.23.6.47,1.21.7,1.81-3.18.29-2.44,2.74-2.09,5.07-2.42-1.27-1.11-3.85-3.06-4.94-.9.96-2.39,3.23-3.43,1.65-1.8-2.72-6.6-4.17-3.5-9.92-1.66,1.21-2.36,1.46-2.62,1.96-2.12,4-2.1,4.01-4.92,1.42,1.38-4.17,3.24-8.38-1.06-12.05.11-3.4.92-6.78-.75-10.16-.59-1.19-1.35-3.94,2.24-3.27,1.6.3,1.11-1.13.79-2.05-.76-2.22-.05-5.28-2.96-6.3-1.68-.59-1.98.96-2.44,2.33-.76,2.26-1.62,3.52-4.99,2.78-3.08-.67-6.87.68-9.89,2.67-.62-2.14-.51-4.22.72-6.12,1.56-2.42,1.93-5.15,2.24-7.91.66-.39,1.31-.78,1.97-1.17.72,1.38,1.74,2.96,3.22,1.3,1.47-1.65,4.4-3.01,2.64-6.16.05-.31.12-.62.2-.93,3.9.29,8.26-.02,7.19,6.57,1.88-2.03,3.24-3.21,1.22-5.42-1.09-1.19-1.62-3.2-1.37-5.09,7.81-4.19,15.92-7.44,24.9-7.94.48,1.71-1.2,4.32,2.04,4.88l.03.03c2.49,5.85,4.78,11.86,11.02,14.95,0,0-.01,0-.01,0-.03.85.13,1.6,1,2,0,0,.01,0,.01,0-.05.37-.1.75-.15,1.12-1.64.1-3.29.33-4.92.26-1.23-.06-2.03.13-1.83,1.5.15,1.07.72,1.88,2.03,1.37.92-.35,2.11-2.02,2.6.14.33,1.45-.67,2.67-2.38,2.21-1.63-.43-3.27-.44-3.6,1.3-.28,1.51,1.16,2.53,2.56,3.32,1.62.91,3.72.54,3.91-.65.71-4.36,3.62-2.52,5.9-2.56.24-.02.49-.03.73-.03.03,1.35.07,2.69.1,4.04h-.01c-2.34.3-6-1.53-5.22,3.6.2,1.33-1.27.95-2.26.69-5.22-1.38-7.94-5.63-7.03-11.17.16-.94.87-2.07-.33-2.55-1.15-.46-1.56.68-2.05,1.58-1.31,2.37.32,5.85-2.87,7.67-.19.11.18,3.88,2.96,4.19,1.62.18,3.2.65,4.8.99h0c-1.07,3.94-1.75,7.93-2,12-2.65-1.84-5.31-.65-7.97-.04-.15-.13-.31-.26-.46-.39.13.15.26.31.39.46,2.7,4.34,5.36.87,8.04-.04,3.24.16,4.63,1.29,2.36,4.4-.36.5-.6,1.08-.9,1.62,5.57,2.65.17,6.52,1.04,9.75.45,1.67-1.81,2.75-2.37,1.87-2.42-3.83-3.18-.58-4.29,1.34-1.5-3.1,1.4-4.72,1.18-6.99.73-.13,1.58-.11,1.51-1.21,0-.11-.2-.3-.31-.31-1.1-.08-1.09.78-1.21,1.5-.94-.17-2.54-.1-2.71-.55-1.22-3.26-2.78-1.2-4.27-.44-1.77-2.41,1.37-4.9.32-6.77-2.86-5.09-.38-7.33,4.07-8.83-4.04-5.32-4.97,1.08-7.39,1.63l-.02-.02c-.16-.95.97-2.45-.01-2.74-3.74-1.11-3.55-4.69-4.99-7.23l.03-.04c2.81.02,5.05,1.31,7.08,3.13,1.61,1.44,4.13.34,3.81-.69-.84-2.68-1.99-5.65-5.09-6.91-2.8-1.13-2.16,2.24-3.11,2.64-2.39.53.96-4.18-2.98-2.18-1.62.82-1.9-1.31-1.28-2.5.51-.96,1.69-1.54,2.38-2.44.68-.9,1.48-2.04.34-3.1-.7-.65-1.64-1.25-2.56-1.42-1.93-.37-1.51,1.29-1.61,2.31-.14,1.39-.78,2.03-2.16,2.22-1.79.24-2.91,1.78-2.41,3.16,1.73,4.73-1.49,9.45.12,13.96,1.15,3.23,1.5,7.56,6.45,7.84h0c1,4.91,3.62,8,8.99,8ZM43.99,21.02c2.63-.85,3.04,2.12,4.77,3.23.23-2.1.54-3.87-1.25-4.84-1.69-.91-2.78.12-3.59,1.55-.73.15-1.6.14-1.51,1.26,0,.12.2.31.32.32,1.11.08,1.12-.77,1.26-1.51ZM53.94,22.98c-3.41-4.54,3.59-.47,2.36-3.46-.53-.99-1.93-.79-2.81-.36-2.84,1.37-.94,4.48-2.1,6.57-.35.63.59,1.23,1.22,1.03,1.99-.63,1.12-2.42,1.35-3.76.08-.15.15-.3.23-.44-.08.14-.17.28-.25.42ZM53.48,32.6c.15-1.82-.92-2.55-1.57-3.45-1.09-1.49-2.56-1.52-3.81-.25-.85.86-2.6,1.6-1.77,3.17.9,1.71,2.3.18,3.5.13,1.1-.04,2.21.23,3.64.4ZM54.63,59.55c.71.04,1.11-.23.98-.77-.09-.39-.42-.86-.77-1.01-.58-.25-.83.27-.74.75.07.39.37.74.53,1.04Z"/>
      <path class="cls-12" d="M107.88,65.96c2.85-1.32,3.41-4.4,4.96-6.67,1.26-1.86,1.69-5.27,4.49-4.01,2.18.98,3.58,3.82,3.01,6.91-.47,2.58-.53,5.24-.93,7.84-.35,2.3,1.24,1.84,2.49,1.93.17,3.47-1.54,6.76-.94,10.27-.32.27-.65.54-.97.82-.02-2.25-3.16-3.46-2.05-6.1.13.08.26.16.39.23l-.43-.19c-1.59-3.06-2.52-.95-2.81.57-.6,3.15-.79,6.39-1.14,9.58-11.38,9.33-24.17,14.01-39.04,11.73-.64-1.2-2.52-.74-2.96-2.38-.49-1.88-1.35-3.56,1.87-3.53,4.97.04,7.91-3.67,10.76-6.84,1.25-1.4,1.62-1.72,3.34-1.19,2.95.9,4.3-.1,6.07-3.11.95-1.61,2.59-1.03,3.55,0,.83.89.66,2.53,1.96,3.31.83-1.36.1-2.54-.31-3.78-.33-1.01-.03-2.7.73-2.53,4.14.88,2.86-.58,1.46-2.67-.52-.78.29-1.86,1.12-2.49,1.74.29,1.42,3.39,3.63,2.75,1.14-.33.62-1.71.82-2.63,1.95.47,1.3,3.25,3.48,3.89.67-4.36-2.59-7.69-2.54-11.69Z"/>
      <path class="cls-3" d="M20.97,44.97c-.56.58-1.7,1.36-1.58,1.72,1.37,4.11-1.77,1.42-4.47,2.4,5.85.21-.02,9.54,8.05,6.88h0c-.37,2.83,1.75,4.42,3.1,6.45.9,1.35,1.96,3.38-1.27,2.89-1.94-.29-3.91-.71-4.51,1.55-.57,2.15.75,3.75,2.86,4.54-.34,2,.3,3.81.83,5.74,1.21,4.47,5.35,7.4,5.98,12.09-3.6-1.25-7.77-1.34-10.17-5.03,2.42-1.85,2.85-3.74-.07-5.46-1.55-.91-1.89-2.07-1.37-3.71.33-1.04-.21-2.44-1-2.42-1.12.03-2.3.86-3.31,1.55-1.38.94.07,1.51.39,2.29.6,1.49.94,3.08,1.39,4.62-9.01-5.11-13.39-13.2-14.94-23.12,2.99-.85,1.17,5.97,5.87,3.04-3.82-2-2.31-6.85-5.65-9.08-.02-.65-.05-1.29-.07-1.94,5.16-4.41,6.13-4.03,13.8,5.07-1.55-4.03-2.46-8.58-5.92-11.42-2.2-1.8-1.16-2.42.06-3.59,1.11-.68.11-1.38.02-2.08.4-1.37.8-2.74,1.31-4.49,1.04,1.23.42,2.87,1.69,3.51,1.11-.08,2.23-.15,3.35-.23.02.3.17.69.04.85-1.27,1.54-4.96,2.05-3.81,4.2.88,1.66,3.9,3.14,6.64,2.56,1.12-.24,1.88.33,2.79.63ZM5.94,50.95c.14.44.27.88.41,1.32.13-.09.25-.17.38-.26-.26-.36-.51-.72-.77-1.09-.58-.84-1.36-1.31-2.41-1.18-.08,0-.22.31-.18.4.57,1.14,1.67.66,2.56.8ZM16.63,68.55c-.21-.23-.44-.7-.8-.83-.61-.22-.82.31-.7.77.1.38.39.88.71.99.5.18.83-.19.79-.93ZM5.91,55c.34-.13.77-.3,1.2-.47-.23-.17-.46-.47-.7-.48-.53-.02-1.25-.34-1.43.53-.01.06.52.24.93.41Z"/>
      <path class="cls-3" d="M83.9,12.04c-4.27-1.87-7.58.04-10.31,3-1.47,1.59-3.01,2.9-4.86,3.92-2.96-2.24-5.4-4.94-6.46-8.54-.68-2.32-2.17-3.16-4.3-3.42,0,0-.03-.03-.03-.03,0-1.67-.01-3.35-.02-5.02C61.67-.18,65.8-.07,69.88.06c9.84.33,19.66.96,29.11,4.1.09,1.56-.68,3.55,1.94,3.83h0c-.05.97.17,2.11-.87,2.65-.82.43-1.4-.02-2.01-.79-3.81-4.86-10.34-3.39-15.05-6.3-.72-.44-1.02.96-.81,1.78.57,2.21,1.19,4.41,1.79,6.62l-.09.09Z"/>
      <path class="cls-5" d="M120.96,82.22c-.6-3.51,1.11-6.8.94-10.27.39-3.28.77-6.56,1.16-9.84,6.09-2.97,3.59-8.46,3.88-13.14l-.03.02c2.33.03,4.08.04,3.92-3.44-.1-2.07,2.48-3.96,1.54-6.74-.25-.73,1.56-.79,2.54-.83,3.87,17.43-1.98,31.79-13.94,44.23Z"/>
      <path class="cls-12" d="M134.9,37.99c-.97.04-2.78.09-2.54.83.94,2.78-1.64,4.66-1.54,6.74.16,3.48-1.59,3.47-3.92,3.44-.16-.88.28-1.95-.78-2.55-.08-.05-.39.09-.39.16-.07,1.02.42,1.77,1.2,2.37-.29,4.68,2.21,10.17-3.88,13.14-.35-3.71-.69-7.43-1.04-11.14,1.17-8.94,1.28-17.89.08-26.84,2.45.02.81-2.36,1.86-3.16,6.91,3.58,9.64,9.85,10.95,17.03Z"/>
      <path class="cls-4" d="M8.95,40.04c-1.22,1.17-2.26,1.79-.06,3.59,3.47,2.84,4.38,7.39,5.92,11.42-7.67-9.11-8.64-9.48-13.8-5.07.55-11.95,4.36-22.23,14.91-29.04-.31,2.76-.68,5.49-2.24,7.91-1.23,1.9-1.34,3.98-.72,6.12-.76.46-.95,1.2-.99,2.01-1.28-.64-.66-2.27-1.69-3.51-.51,1.75-.91,3.12-1.31,4.49-.45.4-1.18.74-1.28,1.21-.19.86.73.71,1.26.87Z"/>
      <path class="cls-4" d="M29.95,89.23c-.63-4.69-4.78-7.62-5.98-12.09-.52-1.93-1.17-3.73-.83-5.74.13-.12.28-.23.44-.32.4.11.81.22,1.21.34.28.25.56.49.84.74-.08.24-.09.48-.04.72-1.2,2.81-.66,4.94,2.37,6.11h-.03c1.59,4.19,5.3,7.33,6.03,11.96-1.61.07-3.09-.17-4.01-1.72Z"/>
      <path class="cls-11" d="M15.81,81.08c-.45-1.55-.79-3.14-1.39-4.62-.32-.79-1.76-1.35-.39-2.29,1.01-.69,2.19-1.52,3.31-1.55.79-.02,1.34,1.38,1,2.42-.52,1.64-.18,2.8,1.37,3.71,2.92,1.73,2.49,3.61.07,5.46-.61-.4-1.23-.81-1.84-1.22-.01-1.37-.69-2.02-2.07-1.9h-.06Z"/>
      <path class="cls-2" d="M117.94,76.93c-1.11,2.64,2.03,3.84,2.05,6.1-1.66,1.88-3.18,3.98-6.04,4.1.36-3.2.54-6.43,1.14-9.58.29-1.52,1.22-3.63,2.81-.57l.04-.04Z"/>
      <path class="cls-4" d="M30.99,10.04c-.25,1.89.28,3.9,1.37,5.09,2.02,2.21.66,3.39-1.22,5.42,1.07-6.59-3.29-6.28-7.19-6.57,2.06-1.82,4.14-3.62,7.04-3.94Z"/>
      <path class="cls-4" d="M23.75,14.91c1.77,3.15-1.17,4.51-2.64,6.16-1.48,1.66-2.51.08-3.22-1.3.97-2.81,2.69-4.7,5.86-4.85Z"/>
      <path class="cls-4" d="M1.09,51.92c3.34,2.22,1.83,7.08,5.65,9.08-4.69,2.93-2.87-3.89-5.87-3.04-2-2.09.05-4.03.21-6.04Z"/>
      <path class="cls-4" d="M57.92,1.96c0,1.67.01,3.35.02,5.02-3.24-.56-1.56-3.17-2.04-4.88.67-.05,1.35-.09,2.03-.14Z"/>
      <path class="cls-6" d="M15.87,81.08c1.38-.12,2.06.53,2.07,1.9-1.2-.08-1.93-.68-2.07-1.9Z"/>
      <path class="cls-3" d="M84.94,73.96c-1.95-1.72-4.37-3.06-4.95-5.93-.17-2.02,1.69-4.05-.05-6.06,1.13-.69,2.28-1.33,3.37-2.08.39-.27.54-.9.94-1.14,1.2-.7,8.63,4.31,8.72,5.71.15,2.32-1.59.68-1.98,1.02-2,1.76-4.05.38-6.05.47-.14-.08-.28-.16-.42-.24.14.08.28.16.42.24,5.89,3.9,6.61,4.58,7.48,7.1-2.32.73-2.1.55-3.63-1.39-.81-1.03-1.96-2.93-3.41-2.46-3.13,1.03,1.69,3.29-.44,4.74h0Z"/>
      <path class="cls-3" d="M122.09,24.12c1.2,8.95,1.09,17.9-.08,26.84-.99-.02-1.97-.04-2.96-.06,0-2.31,0-4.62,0-6.94,1.89-2.19-1.76-3.12-1.15-5.02.56-.23,1.57-.39,1.62-.7.34-1.95-2.29-.77-2.53-2.25,1.71-.8,3.07-1.48,2.21-4.02-1.39-4.08-1.49-8.27,1.29-12.04,1.49.9,1.36,2.62,1.61,4.18Z"/>
      <path class="cls-3" d="M38.96,72.95c-.27,1.28,2.16,2.37-.19,3.99-2.05,1.41-.04,2.66,1.25,3.96-3.92-1.7-8.01-1.7-12.08-1.93,0,0,.03.01.03.01-.48-1.29-1.23-2.7,1.29-2.4,1.47.17,1.95-.29.89-1.58-.38-3.31-.13-7.1-5.18-6.91,1.52-2.1,4.61-.57,6.39-3,.81-1.11,1.77,1.3,1.56,2.36-1.06,5.33,2.02,5.9,6.05,5.52h0Z"/>
      <path class="cls-4" d="M69.84,25.08c.05-.37.1-.75.15-1.12,3.78,1.53,5.7,5.34,8.87,7.42,3.96,2.6,4.5,9.5,11.02,8.68.01.27.02.55.02.83-.66,1.25-1.09,2.54-.83,3.98l-.21.27c-2.61-1.35-3.64-4.74-6.85-5.32-.03-.28-.06-.57-.08-.86-2.36-2.34-4.72-4.69-7.08-7.03-.25,0-.49,0-.73.03-.06-3.15-4.63-3.49-4.28-6.89Z"/>
      <path class="cls-4" d="M94.95,29.99c-1.86,2.32.96,4.7-.09,7.03-.32-.03-.63-.05-.95-.07-.49-3.32-4.47-5.06-5.83-5.5-4.32-1.41-3.51-5.99-6.36-8.03,3.01,3.73,10.18-.27,11.48,6.56.02.1,1.13,0,1.73,0l.02.02Z"/>
      <path class="cls-3" d="M89.9,40.89c0-.28,0-.55-.02-.83,3.42-.55,3.26,2.18,2.52,3.68-2.53,5.13,1.14,9.16,3.36,12.13,1.62,2.18,2.06,3.66,2.07,6-6.24-3.94-8.61-9.8-8.97-16.73,0,0,.21-.27.21-.27.86-1.2,2.67-2.21.83-3.98Z"/>
      <path class="cls-3" d="M48.96,92.95c.11-1.67-.62-3.71,2.64-3.09,4.5.85,6.21-2.47,6.05-5.95-.08-1.89.88-2.73,1.62-2.99,2.75-.98,1.1,3.16,3.66,3.42,1.32.13.02,1.28-.8,1.81-.48.31-1.03.99-1.02,1.49.05,1.81.49,3.57-2.38,1.82-.51-.31-2.43.99-3.19,1.95-1.87,2.38-4.08,2.41-6.59,1.54h0Z"/>
      <path class="cls-3" d="M81.8,49.28c.43,1.08,2.24,1.65,1.62,3.57-.5,1.56-1.55,3.06-1.61,4.61-.06,1.72-.43,2.59-2.16,2.43-1.9-.18-1.38-1.36-.95-2.52.31-.83.24-1.49-.82-1.93-1.17-.49-2.94-1.91-2.3-2.6,1.48-1.6,3.38-3.06,6.21-3.54Z"/>
      <path class="cls-4" d="M104.98,63.94c-5.33-5.4-4.41-13.17-7.55-19.42,5.7,5.27,5.59,13,8.49,19.44-.31-.01-.62-.02-.93-.01Z"/>
      <path class="cls-4" d="M57.97,7.01c2.14.25,3.62,1.09,4.3,3.42,1.06,3.6,3.51,6.3,6.46,8.54.08,1,.17,2,.25,2.99-6.24-3.09-8.53-9.09-11.02-14.95Z"/>
      <path class="cls-3" d="M71.95,56.97c.02,1.02.35,1.9,1.11,2.6,1.85,1.68,3.8,3.36,1.48,6.03-2.87,3.29-2.43-2.84-4.59-1.63h-.01c-.03-2.65-2.19-1.57-3.76-2.22,4.18.81,1.93-5.32,5.76-4.79h.02Z"/>
      <path class="cls-3" d="M104.98,63.94c.31,0,.62,0,.93.01.66.67,1.31,1.33,1.97,2-.05,4,3.22,7.33,2.54,11.69-2.18-.64-1.53-3.42-3.48-3.89.33-3.65-.15-6.83-5.24-7.46,1.53-1.1,2.4-1.72,3.27-2.35Z"/>
      <path class="cls-7" d="M93.41,10.2c1.05,3.51,2.58,6.77,4.85,10.22-9.77-.22-3.41-7-4.85-10.22Z"/>
      <path class="cls-4" d="M30.96,48.97c4.29,3.67,2.44,7.88,1.06,12.05-.21,1.41-.77,2.22-2.27,1.25-.43-.28-1.54-.57-.6-1.26,3.88-2.85,2.08-6.12.94-9.43-.32-.94-.07-1.96.88-2.61Z"/>
      <path class="cls-4" d="M99.97,36.02c-.93-.11-2.21.21-2.53-.93-.31-1.13.72-1.88,1.7-1.95,2.27-.17,4.56-.12,6.84-.12.7,0,1.19.09.81,1.1-.46,1.23.13,3.1-2.13,3.04-1.24-.42-2.47-.83-3.71-1.25-.2-.41-.41-.81-.61-1.22-.13.45-.25.9-.38,1.35h0Z"/>
      <path class="cls-2" d="M24.96,68.09c5.05-.19,4.8,3.59,5.18,6.91-1.83-.05-3.22-1.02-4.55-2.12-.05-.24-.04-.48.04-.72.07-.64-.21-.89-.84-.73-.4-.11-.8-.22-1.21-.34.46-1,.92-2,1.38-2.99Z"/>
      <path class="cls-5" d="M100.96,35.89c1.24.42,2.47.83,3.71,1.25-2.6.94,3.41,3.18-.46,3.62-3.13.35-4.84-1.35-4.23-4.74,0,0,0,0,0,0,.33-.04.66-.09.99-.13Z"/>
      <path class="cls-12" d="M116.98,35.99c.24,1.48,2.86.3,2.53,2.25-.05.32-1.06.47-1.62.7-1.13-.03-2.4.39-3.3-.51-1.05-1.06-1.1-2.71-.25-3.6,1.28-1.34,1.64.97,2.64,1.16Z"/>
      <path class="cls-4" d="M64.4,76.17c2.38,2.17,2.32,4.07,1.14,5.83-.55.82-1.54.03-2.07-.49-2.17-2.15.77-3.24.93-5.34Z"/>
      <path class="cls-12" d="M119.04,43.96c0,2.31,0,4.62,0,6.94-.48,1.28-1.05,3.04-2.11.45-1.18-2.87.58-5.15,2.1-7.39Z"/>
      <path class="cls-4" d="M54.64,83.01c-2.08.09-1.91,3.72-4.44,2.75-1.11-.43-.37-1.41-.06-2.05,1.12-2.3,2.82-1.22,4.5-.7Z"/>
      <path class="cls-12" d="M79.94,61.97c1.74,2.01-.12,4.04.05,6.06-.31.02-.61.05-.92.08l-.31-.31c-.3-1.53-.68-3.05-.87-4.59-.21-1.73.77-1.8,2.05-1.24Z"/>
      <path class="cls-3" d="M69.95,63.97c-.32,1.52-.63,3.03-.95,4.55-.17-1.62-5.63-4.35.94-4.56,0,0,.01.01.01.01Z"/>
      <path class="cls-6" d="M81.93,38.97c.02.29.05.57.08.86-1.8,1.23-3.79,3.64-4.77-.86h4.69Z"/>
      <path class="cls-4" d="M54.96,79.95c-2.13,0-4.05-.52-5.46-2.28,1.9.57,4.64-.94,5.46,2.29h0Z"/>
      <path class="cls-4" d="M38.96,72.96c.23-2.01,1.8-2.66,3.56-3.88,0,3-1.24,3.99-3.57,3.88,0,0,0,0,0,0Z"/>
      <path class="cls-4" d="M82.86,44.45c-2.01.28-2.51,2.17-4.1,1.61-.63-.22-.83-1.05-.43-1.65,1.2-1.79,2.49-.38,4.53.04Z"/>
      <path class="cls-3" d="M71.94,56.96v-4.55c1.47,2.04,1.26,3.34.02,4.56,0,0-.02-.01-.02-.01Z"/>
      <path class="cls-8" d="M95.08,39.85c.76.18,1.51.38,1.38,1.41-.02.12-.21.3-.32.31-1.06.05-1.14-.77-1.3-1.51,0,0,.24-.21.24-.21Z"/>
      <path class="cls-6" d="M22.97,55.97c.12-.63.09-1.38.94-1.49.16-.02.57.39.55.56-.11.85-.84.85-1.49.93,0,0,0,0,0,0Z"/>
      <path class="cls-8" d="M93.91,36.95c.32.02.63.04.95.07.07.94.14,1.89.21,2.83,0,0-.24.2-.24.21-.83-.88-1.86-1.7-.92-3.1Z"/>
      <path class="cls-6" d="M74.95,35.97c.44.13.88.26,1.32.39-.09.13-.17.26-.26.39-.36-.25-.72-.51-1.07-.76,0,0,.01-.01.01-.01Z"/>
      <path class="cls-6" d="M58.92,37.72c-.11-.09-.23-.19-.34-.28.13-.07.27-.2.39-.19.12.01.23.17.35.26-.13.07-.26.14-.39.21Z"/>
      <path class="cls-6" d="M89.62,38.21c-.11.02-.26.1-.31.06-.08-.07-.1-.22-.15-.34.18-.03.35-.07.53-.1-.02.13-.05.26-.07.38Z"/>
      <path class="cls-8" d="M69.98,23.96c-.87-.4-1.03-1.15-1-2,.84.41,1.07,1.13,1,2Z"/>
      <path class="cls-6" d="M48.95,92.94c-.35.25-.71.5-1.06.75-.31-1.2.72-.48,1.07-.74,0,0,0,0,0,0Z"/>
      <path class="cls-6" d="M21.33,54.5c-.13.07-.27.21-.39.19-.12,0-.23-.17-.34-.26.24.02.49.04.73.06Z"/>
      <path class="cls-6" d="M51.66,72.19c-.11.02-.26.1-.31.05-.08-.07-.1-.22-.15-.34.18-.03.35-.07.53-.1-.02.13-.05.26-.07.38Z"/>
      <path class="cls-6" d="M100.93,7.99c.36-.25.71-.5,1.07-.75.08.13.17.25.25.38-.44.12-.87.25-1.31.37,0,0,0,0,0,0Z"/>
      <path class="cls-6" d="M85.29,7.71c.11.01.27-.02.32.04.07.09.06.25.09.38-.18-.02-.36-.03-.55-.05.05-.12.09-.24.14-.36Z"/>
      <path class="cls-10" d="M79.07,68.1c-.2.11-.41.21-.61.32.1-.21.2-.42.3-.62,0,0,.31.31.31.31Z"/>
      <path class="cls-6" d="M83.99,11.95c.12.16.25.31.37.47-.15-.13-.31-.25-.46-.38,0,0,.09-.09.09-.09Z"/>
      <path class="cls-6" d="M84.94,73.96c.14.14.27.27.41.41-.09-.02-.2-.02-.25-.07-.08-.09-.11-.22-.16-.33,0,0,0,0,0,0Z"/>
      <path class="cls-6" d="M54.95,79.96c.14.08.28.15.43.23-.14-.08-.28-.16-.42-.23,0,0,0,0,0,0Z"/>
      <polygon class="cls-6" points="20.97 44.97 21.2 44.55 21.39 44.75 20.97 44.97"/>
      <path class="cls-6" d="M62.95,40.97c.08-.14.15-.28.23-.42-.07.14-.15.29-.22.43,0,0,0,0,0,0Z"/>
      <path class="cls-6" d="M94.93,29.97l.42-.4c-.13.14-.27.28-.4.42,0,0-.02-.02-.02-.02Z"/>
      <path class="cls-11" d="M50.95,63.97c-5.37,0-7.99-3.09-8.99-8,1.51-.38,3.7-.27,3.47-2.48-.15-1.46-1.75-1.63-3.21-1.16-3.21,1.03.31,2.47-.26,3.64-4.95-.28-5.3-4.62-6.45-7.84-1.6-4.5,1.61-9.23-.12-13.96-.5-1.37.61-2.92,2.41-3.16,1.39-.18,2.02-.83,2.16-2.22.1-1.02-.32-2.68,1.61-2.31.92.18,1.86.77,2.56,1.42,1.14,1.06.34,2.2-.34,3.1-.69.9-1.88,1.48-2.38,2.44-.62,1.19-.34,3.32,1.28,2.5,3.94-2,.59,2.71,2.98,2.18.95-.4.31-3.77,3.11-2.64,3.1,1.26,4.25,4.23,5.09,6.91.32,1.03-2.2,2.14-3.81.69-2.04-1.82-4.27-3.11-7.08-3.13-.36-.25-.71-.49-1.07-.74-.09.13-.17.25-.26.38.43.13.86.26,1.29.4,1.44,2.54,1.25,6.11,4.99,7.23.98.29-.15,1.79.01,2.74-.07.15-.15.3-.22.44.08-.14.16-.28.24-.42,2.43-.55,3.35-6.95,7.39-1.63-4.45,1.5-6.93,3.74-4.07,8.83,1.05,1.87-2.09,4.36-.32,6.77,0,0-.01.01-.01.01Z"/>
      <path class="cls-11" d="M69.84,25.08c-.35,3.4,4.22,3.74,4.28,6.89-2.28.04-5.19-1.8-5.9,2.56-.19,1.19-2.29,1.56-3.91.65-1.4-.79-2.85-1.81-2.56-3.32.32-1.74,1.96-1.74,3.6-1.3,1.72.46,2.71-.76,2.38-2.21-.49-2.16-1.68-.49-2.6-.14-1.31.51-1.88-.3-2.03-1.37-.2-1.36.6-1.55,1.83-1.5,1.63.08,3.28-.16,4.92-.26Z"/>
      <path class="cls-11" d="M53.48,32.6c-1.43-.17-2.54-.44-3.64-.4-1.2.04-2.6,1.58-3.5-.13-.83-1.57.92-2.31,1.77-3.17,1.24-1.27,2.72-1.23,3.81.25.65.89,1.72,1.63,1.57,3.45Z"/>
      <path class="cls-11" d="M53.97,23c-.23,1.34.64,3.13-1.35,3.76-.63.2-1.57-.4-1.22-1.03,1.15-2.09-.74-5.2,2.1-6.57.88-.43,2.28-.63,2.81.36,1.23,2.99-5.77-1.08-2.36,3.46l.02.02Z"/>
      <path class="cls-11" d="M52.98,52.93c2.66-.61,5.32-1.8,7.97.04,0,0,0,0,0,0-2.67.9-5.34,4.38-8.04.04l.07-.07Z"/>
      <path class="cls-11" d="M43.93,20.96c.81-1.42,1.9-2.46,3.59-1.55,1.79.97,1.48,2.73,1.25,4.84-1.74-1.11-2.15-4.08-4.77-3.23l-.06-.06Z"/>
      <path class="cls-9" d="M54.63,59.55c-.16-.3-.46-.64-.53-1.04-.09-.48.16-1,.74-.75.35.15.67.62.77,1.01.13.54-.27.81-.98.77Z"/>
      <path class="cls-9" d="M57.94,64.95c.13-.73.11-1.58,1.21-1.5.12,0,.3.2.31.31.07,1.1-.78,1.09-1.51,1.21,0,0-.02-.02-.02-.02Z"/>
      <path class="cls-9" d="M43.99,21.02c-.14.74-.15,1.59-1.26,1.51-.12,0-.31-.2-.32-.32-.09-1.11.78-1.11,1.51-1.26,0,0,.06.06.06.06Z"/>
      <path class="cls-9" d="M52.91,53c-.13-.15-.26-.31-.39-.46.15.13.31.26.46.39,0,0-.07.07-.07.07Z"/>
      <path class="cls-9" d="M53.94,22.98c.08-.14.17-.28.25-.42-.08.15-.15.3-.23.44,0,0-.02-.02-.02-.02Z"/>
      <path class="cls-1" d="M117.9,76.97l.43.19c-.13-.08-.26-.16-.39-.23,0,0-.04.04-.04.04Z"/>
      <path class="cls-9" d="M16.63,68.55c.04.73-.29,1.11-.79.93-.32-.12-.62-.61-.71-.99-.12-.46.1-1,.7-.77.36.13.59.61.8.83Z"/>
      <path class="cls-8" d="M5.94,50.95c-.9-.15-1.99.34-2.56-.8-.04-.09.1-.39.18-.4,1.05-.13,1.82.34,2.41,1.18l-.02.02Z"/>
      <path class="cls-9" d="M5.91,55c-.41-.18-.94-.35-.93-.41.18-.87.9-.55,1.43-.53.24,0,.47.31.7.48-.43.17-.85.34-1.2.47Z"/>
      <path class="cls-9" d="M8.95,40.04c-.53-.16-1.44-.01-1.26-.87.1-.47.83-.81,1.28-1.21.09.69,1.09,1.4-.02,2.08Z"/>
      <path class="cls-9" d="M5.96,50.93c.26.36.51.72.77,1.09l-.38.26c-.14-.44-.27-.88-.41-1.32,0,0,.02-.02.02-.02Z"/>
      <path class="cls-2" d="M126.93,48.97c-.78-.59-1.27-1.35-1.2-2.37,0-.07.31-.2.39-.16,1.06.6.61,1.67.78,2.55,0,0,.03-.02.03-.02Z"/>
      <path class="cls-11" d="M25.59,72.87c1.33,1.1,2.72,2.08,4.55,2.12,1.06,1.29.58,1.76-.89,1.58-2.52-.3-1.77,1.11-1.29,2.4-3.03-1.17-3.57-3.3-2.37-6.11Z"/>
      <path class="cls-9" d="M24.79,71.42c.63-.15.91.09.84.73-.28-.24-.56-.49-.84-.73Z"/>
      <path class="cls-9" d="M84.94,65.96c-.14-.08-.28-.16-.42-.24.14.08.28.16.42.24,0,0,0,0,0,0Z"/>
      <path class="cls-11" d="M89.9,40.89c1.84,1.77.03,2.78-.83,3.98-.26-1.44.17-2.73.83-3.98Z"/>
      <path class="cls-9" d="M100.96,35.89c-.33.04-.66.09-.99.13.13-.45.25-.9.38-1.35.2.41.41.81.61,1.22Z"/>
      <path class="cls-3" d="M41.96,55.97c.57-1.17-2.95-2.61.26-3.64,1.46-.47,3.05-.3,3.21,1.16.23,2.21-1.96,2.1-3.47,2.48,0,0,0,0,0,0Z"/>
      <path class="cls-6" d="M42.94,40c-.43-.13-.86-.26-1.29-.4.09-.13.17-.25.26-.38.36.25.71.49,1.07.74,0,0-.03.04-.03.04Z"/>
      <path class="cls-6" d="M47.96,49.98c-.08.14-.16.28-.24.42.07-.15.15-.3.22-.44,0,0,.02.02.02.02Z"/>
    </g>
  </g>
</svg>