<?xml version="1.0" encoding="UTF-8"?>
<svg id="Layer_2" xmlns="http://www.w3.org/2000/svg" viewBox="0 0 136.73 112.29">
  <defs>
    <style>
      .cls-1 {
        fill: #7d9c55;
      }

      .cls-2 {
        fill: #dae4cf;
      }

      .cls-3 {
        fill: #526c2d;
      }

      .cls-4 {
        fill: #556f31;
      }

      .cls-5 {
        fill: #a6bc88;
      }

      .cls-6 {
        fill: #6c8f3f;
      }

      .cls-7 {
        fill: #77974d;
      }

      .cls-8 {
        fill: #c3d2b0;
      }

      .cls-9 {
        fill: #809e59;
      }

      .cls-10 {
        fill: #3d4f26;
      }

      .cls-11 {
        fill: #dce4d0;
      }

      .cls-12 {
        fill: #cad7b9;
      }

      .cls-13 {
        fill: #35481d;
      }

      .cls-14 {
        fill: #95af72;
      }

      .cls-15 {
        fill: #506b2b;
      }

      .cls-16 {
        fill: #b2c599;
      }

      .cls-17 {
        fill: #668a37;
      }

      .cls-18 {
        fill: #7e9d57;
      }

      .cls-19 {
        fill: #c9d6b8;
      }

      .cls-20 {
        fill: #92ac6e;
      }

      .cls-21 {
        fill: #b2c597;
      }

      .cls-22 {
        fill: #41532b;
      }

      .cls-23 {
        fill: #6f9143;
      }

      .cls-24 {
        fill: #5a7438;
      }

      .cls-25 {
        fill: #c4d2b1;
      }

      .cls-26 {
        fill: #749549;
      }

      .cls-27 {
        fill: #8da967;
      }

      .cls-28 {
        fill: #88a561;
      }

      .cls-29 {
        fill: #d0dcc1;
      }

      .cls-30 {
        fill: #75964b;
      }
    </style>
  </defs>
  <g id="Layer_2-2" data-name="Layer_2">
    <g>
      <path class="cls-14" d="M100.02,7.15c1.67,1,3.33,1.99,5,2.99.1,2.98,3.04,3.34,4.71,4.16,3.65,1.78,6.49,4.09,8.43,7.58.62,3.76-.95,5.74-4.78,5.56-2.45-.12-4.91.86-7.4-.24,3.11,4.86,2.77,6.82-1.79,10.82-.91.67-1.92,1.23-2.69,2.09-1.72,1.44-3.94,1.52-5.95,2.12-1.44.43-3.08.42-3.9-1.25-.81-1.65-1.54-3.42.07-5.04,1.16-1.17,2.32-2.32,2.6-3.25-.37.89-1.58,2.02-2.62,3.3-1.61,2-3.06,2.33-4.87.41-.28-.3-.19-.99-.87-.87-.65.12.28-.02-.11.49-.27.35-.58,1.13-.46,1.33.35.59.74-.26,1.22-.19,2.46.33,4.53,1.06,4.87,3.99.26,2.24,1.28,3.75,3.85,3.5,6.75,1.2,6.9,2.07,4.51,8.56-1.19,3.25-1.73,6.31-5.74,6.93-9.68,2.47-9.71,2.47-14.66-1.01-1.07,2.11-1.4,4.44-4.23,5.72-2.71,1.24-4.96.95-7.5.81-3.73-.03-5.44-1.76-4.8-5.58.27-1.61.19-3.26.15-4.9.43-1.4,1.94-1.83,2.68-2.94.82-.99,1.25-2.16,1.56-3.39,1-3.03-.9-5.14-2.36-7.38,0-2.3-.31-4.64.75-6.82.89-3.23,2.38-5.29,6.6-2.38-.74-3.98-1.17-7.16.47-10.24,1.64-3.09,3.48-3.79,5.59-1.24,1.32,1.6,1.84,2.01,3.1.26.37-.52,0,.15.31-.38,1.73-3.01,5.98.43,7.05-2.31,1.39-3.55,3.74-3.7,7.2-3.28-2.69-.85-3.69-2.48-2.69-4.36,1.33-2.48,3.27-4.61,6.68-3.57Z"/>
      <path class="cls-19" d="M.09,62.11c-.31-4.48.17-8.84,2-13,1.06-1.81.99-5.64,4.76-2.67.26.21.44.11.64-.54.24-.79.91-1.56.84-2.28-.47-4.77,1.84-8.21,5.11-11.25.07-.66.13.19.15-.47.07-3.08-.71-6.66,3.76-7.41,4.41-.73,6.01,2.45,7.32,5.69.51.04.82-.08.95-.42,3.42-8.49,4.96-7.16,12.08-5.06,2.79.82,4.75-.83,7.12-.46,1.23.02,2.46-.51,3.69.01,2.12,1.83,4.28,3.63,5.02,6.52.24,1.44,1.54,2.7.76,4.31-.32.58-.66,1.33-1.25,1.46-2.78.61-6.09.05-6.57,3.67.99.03,2.09-2.17,4.08-1.56,1.04.2,1.73.91,2.39,1.66,1.09,1.79.71,3.94-.27,5.19-3.18,4.07-2.82,8.88-3.77,13.47-.5,2.42.21,6.16-3.77,6.68-2.67.35-4.76-2.79-5.11-7.37-.11-1.48-.46-3.03.03-4.45.71-2.07.48-2.9-1.92-3.8-3.2-1.2-3.5-4.39-3.14-6.73,1.44,4.24.11,9.1-.58,14.03-.39,2.77-1,5.15-3.7,6.49-2.13-.16-4.06-1.84-6.35-.81-7.73-.01-11.07-2.73-10.61-8.62,3.87-2.04,9.29-1.8,10.3-5.92-.98,3.81-5.8,4.06-9.8,5.53-2.59,2.81,1.12,5.67-.05,8.5-1.11,1.58-1.9,3.34-3.55,4.59-5.23,3.96-8.3,2.89-9.41-3.42-.11-.65-.66-1.12-1.12-1.58Z"/>
      <path class="cls-26" d="M11.94,94.23c-5.38-4.5-7.95-10.62-9.91-17.1-.78-2.67.64-2.96,2.46-1.96,1.55.85,2.9,2.21,3.95,3.65,1.8,2.48,3.43,1.69,5.21.15,2.35-.78,4.31-.43,6.41,1.18,4.53,3.47,7.3,2.25,8.11-3.25.72-4.86,1.69-5.43,6.66-3.4.88.36,1.14.08,1.57-.3,1.33-1.18,3.03-1.28,4.63-1.62,5.13-1.06,10.42-1.78,9.36-9.28-.23-1.64,1.23-3.13,3.24-3.05,2.13.08,3.65,1.5,3.59,3.44-.21,6.01,2.95,3.42,5.57,2.39.99-.16,1.82.37,2.72.62,1.5.6,3.07,1.05,4.28,2.21,1.32,1.73,2.61,1.49,3.82-.09,1.04-1.36,2.19-1.75,3.64-.62,1.69,2.83,2.38,5.77,1.06,8.94-1.04,3.21-.07,6.37.46,9.48.58,3.39-.27,5.37-3.92,4.44-2.5-.64-3.85,1.1-5.72,1.76-3.88-4.07-7.78-3.03-11.79-.15-3.56,2.56-6.7.5-9.3-1.62-1.54-1.26-3.05-3.02-3.85-4.99,0,.08-.07-.17-.07-.17,0,0-.1.01-.1.1-.05.37-.17.62-.36.88-.37.51-.89.8-1.29,1.24q-2.59,4.88-9.08,4.96c1.52-.03,2.79.41,3.55,1.85.21.5.27,1.01.21,1.54-.4,1.74-1.44,2.76-3.24,2.96-2.76-.8-5.45-2.83-8.4-.5-4.91,2.61-6.1,2.4-9.83-2.18-1.03-1.26-2.14-1.73-3.66-1.51Z"/>
      <path class="cls-11" d="M52.07,31.12c-.85-2.32-3.44-3.48-4-6-1.53-1.26-2.13.25-2.99,1-3.06,2.44-5.62,5.57-9.73.62-1.6-1.93-5.9-2.02-6.44,2.8-.13,1.13-.22,2.51-.9,3.28-.96,1.08-1.14,4.34-3.41,2.56-1.37-1.08-6.55-.84-3.15-5.15.79-1,.45-1.64-.7-2.29-1.28-.72-2.28-1.97-3.99-1.15-2.49,1.19.77,1.56.34,2.42-.65,1.31-1.34,2.61-2.01,3.92-1.64.32-2.9,1.38-4.2,2.29-1.43.98-2.63,1.16-3.79-.3,5.7-9.96,12.93-18.32,23.51-23.45,2.49-1.21,4.33-4.19,6.85-4.8,6.93-1.68,13.21-5.47,20.33-6.31,7.45-.88,14.95-.57,22.42-.14.63.04,1.23.47,1.84.72-1.36,1.39-2.62,2.69-2.44,5,.13,1.6.38,3.69-1.85,4.53-1.09.26-1.86-.36-2.65-.94-2.39-1.61-4.32-3.89-7.87-3.19-5.64,1.11-7.89,3.72-7.26,9.57.12,1.15.49,2.26-.1,3.37-1.5,1.74-3.93,2.3-5.6,4.52,2.88,1.81,6.01,4.07,3.64,7.84-1.82,2.9-3.96.32-5.84-.71Z"/>
      <path class="cls-8" d="M52.07,31.12c.97-.03,1.95-.15,2.92-.07,1.23.11,1.94-.29,1.89-1.57-.04-.97-.54-1.55-1.6-1.36-3.62.65-5.07-1.78-4.96-4.51.11-2.75,2.67-3.78,5.33-4.01,1.15-.1,2.28-.32,3.42-.49,2.98.65,1.95,2.96,1.98,3.82,1.62-7.49,8.16-11.31,15.02-14.81.34.66.68,1.31,1.02,1.97,2.1.46,1.91-1.48,2.13-2.42.88-3.71,3.37-5.18,6.85-5.55,4.72,1.49,9.76,2.1,13.96,5.03-2.49,1.18-2.59,4.52-5.68,5.72,4.43-.38,4.49,2.42,4.89,6.41-2.45-5.68-5.33,1.3-7.71-1.76-1.46,3.1,1.93,4.17,2.9,6.71-2.86.61-5.33,2.72-7.47-1.55-1.46-2.92-3.5-1.13-4,1.01-.46,1.99-1.08,3.74-2.65,5.86-1.13-3.04-5.53-3.77-4.21-8.15-1.32,2.44-2.65,4.66-1.51,7.52.36.89.48,1.97.37,2.93-.19,1.71.39,3.67-1.28,5.01-1.29-1.93-5.77.59-4.71-4.86-1.07,1.74-1.5,2.43-1.93,3.12-.2-.04-.4-.07-.6-.11-.46-.24-.87-.53-1.09-.94-.16,0-.28.1-.35.45-1.32,1.95-2.99,3.36-5.26,3.99-2.08.09-4.2.4-5.93-1.22-.37-.4-.61-.87-.72-1.41-.01-.27-.02-.54-.04-.8l-1-3.95Z"/>
      <path class="cls-22" d="M11.94,94.23c2.15-4,3.81-1.78,5.26.51,2.16,3.4,2.03,3.38,4.87.54,1.19-1.19,1.97.57,2.99.83,3.05,1.05,5.56,2.9,7.7,5.28.66,1.53,1.16,3.37,3.48,2.19,5.41-2.74,11.2-.99,16.19.2,7.22,1.73,13.31,2.63,19.18-2.94,2.82-2.68,7.16-1.24,10.44,2.82,1.39,1.18,2.53.56,3.59-.53,4.51-4.2,10.62-5.56,15.65-8.84.82-.53,2.59-.47,1.38-2.27-.32-3.39-1.72-7.24,3.42-8.38,2.43.12,3.71-3.31,6.27-2.29,3.37,1.35,6.3,3.6,9.36,5.52,1.79,1.12,1.22,2.73-.34,4.09-1.86,1.63-4.58,2.41-5.3,5.2-10.41,7.94-22.29,12.47-35.07,14.57-17.52,2.87-34.8,2.01-51.47-4.7-6.69-2.69-12.88-6.19-17.63-11.82Z"/>
      <path class="cls-22" d="M128.89,32.16c10,16.95,10.85,33.92.14,50.93-2.44.41-3.25,3.39-6.29,3.38-4.75-.02-6.3-.8-6.92-5.59-.42-3.25-1.72-5.58-5.21-6.12-1.58.07-2.94-.32-3.94-1.66-.71-.96-1.45-1.88-.78-3.14.52-.98,1.5-1.59,2.47-1.3,2.42.73,3.78-.57,5.66-1.82,2.69-1.79,6.01-.95,9.6.25-2.13-3.92-1.23-7.17,1.37-10.09,4.06-2.47.67-5.15.2-7.74-.04-.48.03-.94.2-1.39,4.66-3.25,4.68-3.29.87-8.17-1.65-2.12-2.16-4.49-1.05-6.88.71-1.54,2.19-1.89,3.68-.66Z"/>
      <path class="cls-16" d="M14.09,80.11c-1.41,2.25.73,3.93,1.67,6.4-6.34-1.47-9.23-5.93-12.59-9.79-.09-.11-.34-.22-.42-.17-.26.15-.48.38-.72.58C.2,72.28-.07,67.22.09,62.11c1.14.33,2.28.78,2.42,2.12.33,3.11,2.26,3.09,4.62,2.56-.24-1.27-2.54-1.72-1.39-3.25.8-1.07,1.84-.08,2.57.43,2.46,1.69,3.07-.14,3.76-1.87,3.61-.43,5.66,1.69,6.26,4.74,1,5.05,1.2,10.14-4.25,13.26Z"/>
      <path class="cls-24" d="M111.02,72.14c4.64-.69,5.79,5.33,11.55,4.67-4.05,2.59-5.22,4.99-3.6,8.12,2.92-3.62,7.08.36,10.06-1.84-3.37,5.29-7.44,9.88-12.92,13.08-1.17-2.54.77-3.45,2.32-4.69.98-.78,3.57-1.17,2.12-2.91-1.19-1.43-3.52-2.5-5.41-2.62-2.02-.13-2.07.44-2.61-1.19-.19-.56-.33-1.14-.66-2.25-1.65,2.4-2.61,5.17-5.84,3.58.49-1.69-.78-1.73-1.85-2.01-2.21-.58-2.8-2.33-3.04-4.31.28-1.76,1.86-2.11,3.1-2.82,1.25-.44,2.58-.69,3.76-1.34,1.49-.73,1.82-2.47,3-3.46Z"/>
      <path class="cls-4" d="M128.89,32.16c-3.09,1.04-2.61,3.01-1.18,5.03.65.92,1.9,1.42,2.53,2.34,1.18,1.75,2.61,3.64,1.7,5.9-1.05,2.61-3.49,2.73-5.89,2.69-2.06,0-4.17.21-5.83-1.43-1.75-4.08-3.67-7.64-1.04-12.69,1.7-3.25-.83-7.95-1.82-11.94-.76-1.22-2.18-2.59.7-2.95,4.1,3.95,8.21,7.89,10.83,13.05Z"/>
      <path class="cls-2" d="M7.09,35.12c1.66-.08,3.12-.65,4.29-1.83,1.21-1.22,2.41-1.46,3.71-.15-.63,1.4,2.2,4.71-2.54,3.93-2.48-.41-1.71,2-.96,3.16,1.63,2.52,1.26,4.26-1.39,5.65-.9.47-1.66,1.36-1.46,2.42.48,2.61-.81,4.84-3.04,4.24-3.21-.86.72-3.29-.53-5.41-1.55-.66-2.03,1.27-3.08,1.99.09-5.23,2.31-9.7,5.01-13.99Z"/>
      <path class="cls-29" d="M86.06,2.12c-2.7,2.4-3.97,5.81-5.99,8.68-.79,1.12-1.91,2.09-2.86,1.9-.93-.19-.15-1.69-.14-2.61,1.74-3.02.79-5.68-1.78-8.95,2.68,0,4.71,0,6.74,0,1.42.02,2.8.16,4.02.98Z"/>
      <path class="cls-7" d="M118.05,19.11c-.71,1-.46,2.01-.02,3.02-.33.49-.66.49-.99,0-4.54-1-5.87-6.55-10.64-7.5-.79-.16-3.88-2.08-1.38-4.48,5.02,2,9.44,4.88,13.03,8.97Z"/>
      <path class="cls-6" d="M121.05,46.12c2.07-.33,5.52-4.12,5,2,0,.33,0,.66.01.99,1.3,2.98.52,5.97.05,8.96-.83,3.96-1.41,7.85.43,11.79.74,1.58-1.04,1.82-2.12,1.81-2.07-.03-2.53-1.8-3.24-3.68-1.25.63-1.95,4.66-4.03,1.01-.38-.67-1.81-1.51-2.43-.15-1.64,3.59-4.56,1.51-7.22,1.75.63,2.1,2.16,1.62,3.51,1.53-.01,2.04-.17,4.06-.98,5.96-2.85-.52-5.7-.74-8.54.07-3.4.33-7.45,2.56-8.81-3.02.75-3.99,3.01-7.13,5.57-10.15,1.49-1.76,3.02-2.42,5.03-.93,2.29,1.74,4.45,2.01,5.71-.45-1.09.28-2.14,3.14-4.48,1.24-1.39-.76-2.54-1.98-4.44-1.59-5.06,1.02-5.2.87-6.07-4.2,3.71-2.02,3.26-6.45,5.33-9.51,1.18-1.74-.86-3.23-3.24-2.49-1.65-4.93,2.75-5.14,5.3-6.67,2.54-1.53,4.02.14,5.19,2.17.58,1.01,1.34,1.91,1.85,2.97.42,3.67,2.75,7.79-1.85,9.91,3.68-.24,2.97-3.37,3.38-6.24.27-1.87.83-3.8,1.23-5.72.25-.42.51-.83.77-1.24,3.95-3.27,5.9-2.44,9.08,3.86Z"/>
      <path class="cls-9" d="M94.01,59.07c2.58,2.86,5.77,3.73,9.48,2.89.62-.14,1.2-1.69,1.83-.25.28.64-.16,1.59-.27,2.4-.35.92-.87,1.53-1.97,1.02-2.7-1.37-2.44,1.46-3.3,2.48-2.04,2.39-3.83,4.99-5.72,7.51-.2,0-.41.02-.61.03-1.39-.24-2.59-1.22-4.09-1.05-1.31.03-2.32.63-3.09,1.68-.33.35-.69.64-1.09.9-2.9,1.63-5.83,1.36-8.76.1-.12-.22-.24-.43-.36-.65,1.49-3.02-.34-6.02-.08-9.03-2.56-.1-4.03,3.52-6.98,2.05-1.44-.42-3.82.97-3.93-2.02-.44-1.87,1.28-2.66,1.98-3.96.92-1.12,1.84-2.23,2.58-3.13,2.51.84.81,3.13,2.32,3.93,3.76-1.68,6.18-3.81,1.83-8.21,4.04.51,7.47-.95,10.02,3.02,1.38,2.15,7.02-.13,8.6-3.27.58,1.28,1.09,2.43,1.61,3.59Z"/>
      <path class="cls-28" d="M113.04,43.09c1.39,4.51-1.56,9.14.33,13.68.11.26-.74.92-1.15,1.4-3.03-3.4-8.46,1.73-11.26-3.43,1.38-1.13,2.76.74,4.05.08.87-.44,2.46-1.36,1.89-1.72-3.36-2.11.44-4.82-.86-6.97.75-1.79-.48-3.18-.94-4.73-.43-1.58-2.55-2.37-2.08-4.38,1.92-2.73,4.29-5.28.13-8.32-2.1-1.53.87-4.42-1.17-6.41,2.34-.48,2.72,1.88,4.27,2.32,2.01.57,4.17,2.23,4.93-1.4,1.46,1.24,2.93,2.74,4.95,1.16.55-.43.62-1.48.9-2.25.33,0,.66,0,.99,0,3.85,2.48,3.08,7.37,5.51,10.61.25.33-.04,1.56-.43,1.79-5.26,3.09-2.79,7.49-2.07,11.59-2.37-1.8-4.2-5.08-8.02-3.01-.84-1.6-.69-3.15.33-4.96.11-.34.44.69-.09.29-.15-.12-.22.02-.33.37-.47,1.44-.76,2.88.1,4.28Z"/>
      <path class="cls-25" d="M106.02,41.17c.32,1.65,1.21,3.3.02,4.96-.58-.23-2.83,1.61-1.43-1.04.7-1.32.47-2.18-.55-2.96-1.11-.85-3.03-.23-3.06.32-.19,3.26-4.15,2.23-4.91,4.63-.22,1.83-1.09,2.72-3.03,2.14-1.93-.58-3.24-1.82-3.46-3.8-.15-1.28.23-2.61.36-3.92.16-1.63-.81-2.52-2.21-2.83-1.55-.35-2.54.43-2.82,2.02-.24,1.37.37,3.53-1.78,3.46-2-.06-1.7-2.56-2.6-3.86-1.73-2.5,1.61-1.59,2.17-2.68.2-.39.76-.59,1.39-1.04-1.43-1.23-5.35.01-4.36-2.53,1.2-3.05,5.44-2.26,8.06-2.53,3.77-.4-.75,3.16,1.61,4.57,1.91-.63,3.89-2.07,3.76-4.55-.14-2.7,3.06-2.48,3.3-4.71.06-.53,1.51-.17,2.11.46.77.81.17,1.44-.38,2.1-1.68,2.04-3.37,4.09-4.95,6.22-.9,1.21-1.74,2.72-.5,4.06,1.08,1.17,2.91.66,3.55-.31,1.07-1.6,2.83-.03,3.74-1.29,2.83-.56,4.73.63,5.95,3.13Z"/>
      <path class="cls-23" d="M67.04,63.14c-.26,1.52-.89,2.85-1.98,3.96-.67-.33-1.34-.66-2-1-4.5-1.06-6.27-3.82-5.94-9.22,4.26-2.94,4.74-3.06,6.94-1.77,2.11,1.78,1.65,4,1.08,6.24-.44,1.73-.04,2.59,1.9,1.79Z"/>
      <path class="cls-30" d="M70.06,50.11c.69,2.06-2.68,2.06-2.06,4.08-2.99-.83-5.69.23-8.4,1.28-1.94-3.13-5.74-5.87-2.15-10.17,4.11,1.48,9.02.6,12.47,4.13.05.23.1.45.14.68Z"/>
      <path class="cls-30" d="M66.05,41.09c4,1.82,3.92,5.46,4.01,9.02h0c-.97-1.79-3.07-1.8-4.55-2.26-2.44-.76-3.06-2.04-2.93-4.22.04-1.42.46-2.6,1.99-3.04.56-.05,1.06.12,1.48.5Z"/>
      <path class="cls-12" d="M60.08,55.07c2.35-2.88,5.01-3,7.92-.89-1.2.82-2.56.94-3.95.93-2.07.47-3.7,2.19-5.97,2.08-.37-1.69.3-2.38,2-2.13Z"/>
      <path class="cls-30" d="M73.99,53.77c-.2-2.5-.28-4.18-1.76-6.06,5.32,1.49,5.36,1.64,1.76,6.06Z"/>
      <path class="cls-8" d="M66.05,41.09c-.33,0-.65-.02-.98-.03-1.61-.59-4.37-.57-3.6-3.03.68-2.17,2.37-4.57,5.59-2.91,0,0,0,0,0,0-.73,1.92,1.3,4.31-1.01,5.97Z"/>
      <path class="cls-15" d="M106.02,41.17c-1.98-1.04-3.97-2.09-5.95-3.13.55-1.62,1.73-1.39,2.96-1.02.58,1.68,4.86.7,2.99,4.15Z"/>
      <path class="cls-14" d="M67.06,35.12c-4,.86-5.33,2.62-1.99,5.94-.34,1.02-.68,2.05-1.02,3.07-1.13,3.23-3.78,1.87-5.94,1.96.3,3.07,2.5,5.73,1.97,8.98-.67.71-1.33,1.42-2,2.13,1.14,3.26,3.02,6.1,4.98,8.9-.49.67-.97,1.35-1.48,2.01-1.37,1.79-2.93,3.59-5.39,2.24-2.37-1.3-2.95-3.57-1.71-5.98.82-1.6.94-2.73-.96-3.73-1.2,3.81-1.86,7.44-.03,11.05.45.89.66,1.54-.41,1.95-.72.28-1.39,1.07-2.27.42-4.33-3.25-8.28.79-12.47.79-1.74,0-.87,1.58.19,2.4,1.22.95,1.05,2.08-.03,2.92-1.16.9-2.29.35-2.95-.76-1.12-1.9-3.72-2.97-2.96-5.86-2.2.4-2.1,1.71-1.65,3.07,1.25,3.83-1.1,6.14-3.77,7.81-2.83,1.77-5.75,1.28-7.97-1.58-1.28-1.65-2.92-2.71-5.1-2.75-.98-1.93.79-2.9,1.43-4.29,2.54-5.46.89-9.94-3.45-13.71-.2-1.64-.03-3.45-.68-4.89-1.55-3.38.28-3.38,2.68-3.11h0c.43,3.6,3.51,4.5,6.07,5.97,3.52,2.01,2.11-3.95,4.94-2.98-1.22,3.79,2.06,4.27,4.14,5.63.18.26.31.54.39.85.1.42.17.37.2-.18,0-.03.27-.29.27-.29,1.59-2.29,1.48-4.86,1.75-7.53.66-6.61-.21-13.79,5.7-19.89.33,4.04-1.68,7.34-.04,10.61,1,1.99,1.78,3.38,3.74.91.54-.68.95-2.68,2-.15.37.89,2.53.38.93,2.77-2.97,4.43-2.17,9.37.81,15.1,1.26-6.16,2.07-11.27,2.05-16.54,0-1.06-2.02-3.9,2.11-2.69,1.74.51,2.43-2.68,2.96-4.58,1.65-2.72,5.61-.06,7.14-3.06.28-.33.56-.64.86-.93,1.34-1.32,2.68-2.64,4.02-3.96.64-.56,1.29-.64,1.97-.06.34.68.68,1.35,1.01,2.03Z"/>
      <path class="cls-20" d="M60.06,37.12c0,.33,0,.65,0,.98-2.63,4.06-6.4,2.58-9.98,2.05-3.68.34-7.14,4.02-11.14.97.36-1.72,1.36-1.32,2.36-1.12,3.73.73,5.41-.42,4.29-4.48-.34-1.22-.2-2.65.03-3.92.22-1.22,1.08-2.08,2.51-1.88,1.36.19,1.34,1.16,1.23,2.23-.27,2.79.62,4.28,3.7,3.14,0,0,0,.04,0,.04.32.34.39.95,1.01.99,2,.34,3.99.67,5.99,1.01Z"/>
      <path class="cls-5" d="M14.08,54.12c.75-1.79,2.47-2.04,4.02-2.55,1.44-.47,3.57-1.15,3.54-2.38-.09-4.39,3.86-5.13,6.27-8.27.69,3.93,2.76,7.43-2.94,8.2-.55.07-1.31.73-1.46,1.25-1.52,5.46-5.68,4.07-9.44,3.74,0,0,0,0,0,0Z"/>
      <path class="cls-8" d="M50.08,40.15c3.55.41,6.79-.69,9.98-2.05.93,1.39,1.77,2.65.17,4.29-1.59,1.63-2.06-.05-3.04-.64-1.57-.94-3.74,2.32-5.13-.63-.66-.32-1.32-.64-1.97-.96Z"/>
      <path class="cls-21" d="M45.08,26.12c.42-2.25.84-4.49,1.43-7.63,1.82,2.55,1.44,4.65,1.56,6.63-1,.33-1.99.67-2.99,1Z"/>
      <path class="cls-18" d="M29.17,63.2c-2.89-1.01-6.15-1.77-4.09-6.1.18,3.23,4.23,3.25,4.99,6.01,0,0,0,0,0,0-.25.52-.55.53-.9.1Z"/>
      <path class="cls-24" d="M81.06,105.09c-2.03.59-2.74-1.71-4.71-2.18-5.48-1.33-4.93.47-2.75,4.88-2.75-1.09-6.62-5.81-4.81,2.16-3.93-3.22-7.83-1.78-11.37-1.78-4.15,0-7.28-3.31-11.8-2.19-2.63.65-5.61-2.48-9.07.18-1.12.87-6.03.59-5.48-4.06,1.1-.99,1.19-1.83.29-3.24-1.17-1.83-.66-2.91,1.71-1.79,1-.67,2-1.35,3.01-2.02,1.66-1.79,3.08-.52,4.7.2,1.37.61,2.9,2.5,4.48.2.25-.64.68-1.1,1.23-1.47,1.58-.47,3.17-.89,4.73-1.42,1.38-.3,2.53.35,3.73.86,2.37,1,4.3,1.87,5.29-2.02.59-2.33,3.07-3.79,5.86-1.9.93.63,1.74,1.5,2.96,1.6,1.7-2.18.43-4.67.71-7.29,1.73,2.86,3.96,4.44,7.63,4.12-.9-2.58-.38-5.4-2.44-7.67-1.57-1.73-.16-2.99,1.09-4.15,0,0,0,0,0,0,1.63,2.47,6.72.45,6.56,5.21,5.86-5.25,11.32-5.49,16.61-.82,1.07,3.78,2.48,7.4,4.84,10.6.65.08,1.33.08,1.95.27,1.08.34,3.16-1.51,3.11.74-.04,1.66-.68,4.52-3.11,4.34-4.56-.34-7.8,1.12-9.78,5.22-.52,1.08-1.37.9-2.03.55-2.99-1.56-4.92.68-7.15,1.86-.22-.03-.44-.07-.65-.1-1.91-1.35-3.26.02-4.69.98-.22.04-.44.08-.66.13Z"/>
      <path class="cls-17" d="M69.06,91.1c-.67,1.34-1.57.78-2.48.33-1.36-.68-2.84-1.44-4.11-.11-1.27,1.33.2,2.43.74,3.51.62,1.25.76,2.6-.77,2.7-4.15.29-8.69,1.35-11.36-3.44-2.43-.09-5.12.85-6.93-1.74-.22-.44-.33-.91-.36-1.39.65-2.06-.81-3.87-.72-5.88,0-.33,0-.67,0-1,.67-.62,1.33-.52,1.99.04,1.57,1.47,2.91,3.85,5.6.1-.68,6.35.65,7.29,5.62,5.09,1.89-.84,3.98-1.06,5.55-3.02,1.47-1.84,3.38.28,4.7,1.17,1.15.76,1.71,2.4,2.53,3.65Z"/>
      <path class="cls-17" d="M47.08,95.08c-.34.34-.67.68-1.01,1.02-2.27,1.69-4.46,2.07-6.16-.68-.99-1.61-2.33-1.56-3.85-1.33-2.91.74-4.36-1.82-7.46-2.97,2.82-.36,4.71-.84,6.59-.78,2.87.09,4.59-.2,3.47-3.86-.66-2.17,1.01-1.96,2.43-1.36,1.85,1.64,7.02,1.08,3.97,5.98h0c-1.21,2.27,2.77,1.93,2.01,3.98Z"/>
      <path class="cls-17" d="M33.08,97.07c.23,3.08,3.27,2.98,5.52,4.28-2.74,1.9-5.28-.37-7.52.74-1.51-3.66-4.56.48-6.84-1.56,2.3-1.12,4.23-2.52.83-4.42,3.02-2.56,5.71-2.41,8.01.96Z"/>
      <path class="cls-1" d="M36.06,94.09c1.88-2.18,4.18-2.55,5.3.23,1.14,2.82,2.95,1.72,4.7,1.78,1.16.62,2.32,1.25,3.68,1.98-3.65,4.56-6.24-.91-9.33-.76-1.41.06-2.89-1.46-4.33-2.26,0-.32-.01-.64-.02-.97Z"/>
      <path class="cls-14" d="M68.99,69.13c2.11-1.41,4.02-3.55,6.99-2.05-.62,1.14-1.41,2.22-1.79,3.43-.4,1.25.2,3.89-1.6,3.1-1.25-.55-4.54-1.36-3.59-4.48Z"/>
      <path class="cls-27" d="M45.07,91.1c-.65-.89,1.27-3.28-1.86-2.8-2.32.36-1.25-2.19-2.11-3.18.66,0,1.32-.02,1.97-.03,1.14.85,2.43,1.56,3.4,2.58,1.86,1.97.99,3.07-1.4,3.43Z"/>
      <path class="cls-27" d="M45.05,84.13c-.66-.01-1.32-.03-1.99-.04-.28-1.52-3.74-1.27-2.17-3.61.43-.65,2.68-1.02,2.99-.63.92,1.13,3.55,2.17,1.16,4.28Z"/>
      <path class="cls-29" d="M76.06,8.12c-.39,1.42-1.02,2.83-1.11,4.27-.16,2.45-1.24,3.29-3.54,2.66-1.58-.43-3.52-.44-3.74,1.27-.56,4.34-6.06,5.25-6.3,9.73-.05,1-1.2,1.93-2.32,2.6-.7-3.43,1.88-6.44.02-9.54-3.94-2.26-2.1-5.52-1.14-8.32.72-2.1.35-5.44,2.77-6.05,3.95-1.01,8.17-1.3,12.27-1.26,2.42.02,1.36,3.52,3.1,4.64Z"/>
      <path class="cls-29" d="M66.05,33.09c-.66.02-1.31.04-1.97.06.14-2.08-.93-5.78,1.37-5.63,2.45.16.03,3.63.59,5.58Z"/>
      <path class="cls-14" d="M54.07,36.1c-.68.02-.89-.43-1.01-.99.34.33.67.66,1.01.99Z"/>
      <path class="cls-10" d="M104.05,91.1c-3.58,1.44-2.98-2.68-4.67-3.5-3.56-1.72-2.71-3.95-1.3-6.46.92-1.89,2.18-2.46,3.97-1.04,1.12,2.14,5.25,2.27,3.99,5.99-1.92,1.17-1.65,3.21-1.99,5.01Z"/>
      <path class="cls-24" d="M87.05,104.09c-.3,1.17,1.35,3.13-.08,3.35-2.06.3-4.61.08-5.91-2.34h0c1.61-2.69,3.71-2.41,6-1h0Z"/>
      <path class="cls-4" d="M126.11,58.07c-1.93-2.98-2.56-5.96-.05-8.96,1.63.26,3.79.33,3.06,2.76-.82,2.75,2.53,4.77,1.02,7.53-1.66.32-1.96-3.25-4.03-1.33Z"/>
      <path class="cls-26" d="M102.04,80.09c-1.32.38-1.83,3.81-3.97,1.04-1.73,1.58-2.44.75-2.99-1.12-.28-.96-1.44-1.84-2.3-1.42-1.63.8.81,1.87.06,3.02-2.07.85-3.77-4.27-6.12-.55-.4.63-1.63.83-1.15,1.91,1.2,2.68-.43,3.98-2.55,4.08-2.85.14-3.6-2.36-3.25-4.53.39-2.35-.04-3.25-2.46-3.52-1.45-.16-1.13-1.79-1.27-2.9,3.12.78,5.86-1.84,8.99-1.01,3,1.48,6-.96,9,0,0,0,.01,0,.01,0,2.67,3.45,5.33-.29,8,0,.4,1.58,1.48,2.51,2.97,3.02-.99.66-1.98,1.31-2.98,1.97Z"/>
      <path class="cls-10" d="M105.02,78.13c-1.82-.19-2.82-1.19-2.97-3.02.39.3,1.04.94,1.13.87,3.37-2.69,4.66,1.18,6.85,2.13-1.67,1.23-3.34.27-5.02.02Z"/>
      <path class="cls-3" d="M103.08,65.12c.66-.34,1.31-.68,1.97-1.02,2.04.47,2.41-1.22,3.17-2.43.49-.77,1.25-1.2,2.06-.63,1.1.78,1.82,1.92,2.05,3.26.14.86-.81,2.14-.9,2.05-2.36-2.31-5.25,1.58-7.53-.68-.23-.23-.54-.37-.82-.55Z"/>
      <path class="cls-24" d="M94.04,75.1c-3,1.74-6,4.93-9,0,0,0,0,0,0,0,1.3-1.65,3-2.61,5.06-2.97,2.63-.75,2.75,1.82,3.93,2.98Z"/>
      <path class="cls-26" d="M90.11,72.12c-.88,2.37-2.08,4.17-5.06,2.97-.14-4.09,2.28-3.84,5.06-2.97Z"/>
      <path class="cls-24" d="M113.04,43.09c-.89-1.94-2.08-4.07-.52-5.95.85-1.03,2.65-1.26,4.18.28-.98,2.02-4.61,2.52-3.68,5.69,0,0,.01-.01.01-.01Z"/>
      <path class="cls-8" d="M58.11,46.09c1.7-1.5,3.98-1.26,5.94-1.96.23,3.78,5.29,2.69,6.01,5.98-4.4-.09-8.95.25-11.95-4.02Z"/>
      <path class="cls-19" d="M28.03,68.88c-2.82-1.95-6.62,1.93-9.08-1.77,2.83,2.37,6.65-2.77,9.08,1.77Z"/>
      <path class="cls-19" d="M29.17,63.2c.3-.03.6-.06.9-.1,1.69,1.16,4.28.36,5.82,2.96-3.15.54-5.7.83-6.72-2.87Z"/>
      <path class="cls-13" d="M87.06,104.09c-1.74,1.92-3.98.8-6,.99-1.31-4.3,2.43-4.75,4.66-4.94,3.06-.26,1.31,2.43,1.34,3.95Z"/>
      <path class="cls-1" d="M47.08,95.08c-1.02-.94-2.22-1.75-3.02-2.85-.73-.99.07-1.29,1.02-1.13,1.38,2.26,4.17,1.69,6.01,3-.9,2.09-2.54,1.17-4,.98Z"/>
    </g>
  </g>
</svg>