<?xml version="1.0" encoding="UTF-8"?>
<svg id="Layer_2" xmlns="http://www.w3.org/2000/svg" viewBox="0 0 117.73 104.3">
  <defs>
    <style>
      .cls-1 {
        fill: #526c2d;
      }

      .cls-2 {
        fill: #8faa6a;
      }

      .cls-3 {
        fill: #a6bc88;
      }

      .cls-4 {
        fill: #77974d;
      }

      .cls-5 {
        fill: #b0c395;
      }

      .cls-6 {
        fill: #c3d2b0;
      }

      .cls-7 {
        fill: #718753;
      }

      .cls-8 {
        fill: #35481d;
      }

      .cls-9 {
        fill: #b1c496;
      }

      .cls-10 {
        fill: #677e47;
      }

      .cls-11 {
        fill: #688049;
      }

      .cls-12 {
        fill: #556541;
      }

      .cls-13 {
        fill: #cddabd;
      }

      .cls-14 {
        fill: #bacba2;
      }

      .cls-15 {
        fill: #506b2b;
      }

      .cls-16 {
        fill: #bdcda7;
      }

      .cls-17 {
        fill: #758a58;
      }

      .cls-18 {
        fill: #668a37;
      }

      .cls-19 {
        fill: #c5d3b2;
      }

      .cls-20 {
        fill: #aabf8e;
      }

      .cls-21 {
        fill: #97b176;
      }

      .cls-22 {
        fill: #6f9143;
      }

      .cls-23 {
        fill: #475831;
      }

      .cls-24 {
        fill: #8eaa69;
      }

      .cls-25 {
        fill: #bccda6;
      }

      .cls-26 {
        fill: #749549;
      }

      .cls-27 {
        fill: #88a561;
      }

      .cls-28 {
        fill: #738955;
      }

      .cls-29 {
        fill: #89a663;
      }

      .cls-30 {
        fill: #d9e3cd;
      }

      .cls-31 {
        fill: #75964b;
      }
    </style>
  </defs>
  <g id="Layer_2-2" data-name="Layer_2">
    <g>
      <path class="cls-3" d="M89.71,9.19c5.4,4.23,11.5,7.7,15.06,13.92.54,3.29,2.7,5.68,4.62,8.2,3.9,5.11,3.9,6.44-.12,11.67-3.89,1.47-5.99-2.97-9.45-2.89-3.91.09-4.17-2.24-3.44-5.28-1.31,3.77.5,4.94,3.91,5.59,2.36.45,5.75.93,4.57,4.95-.89,3.04-5.1,5.04-8.07,3.72-2.47-1.1-3.48.4-3.93,2.15-.87,3.35-2.62,4.38-6.12,4.11-3.64-.29-5.89,3.12-8.41,5.08-1.9,1.48-3.84,3.57-5.3,5.78-.84,1.42-2.29,2.29-3.09,3.8-1.44,2.72-3.72,3.35-6.68,2.38-1.77-.58-3.77-1.02-4.06-2.99-.3-2.09,2.1-2.14,3.09-2.96-2.33,1.25-2.19,1.26-2.41,5.06-.16,2.67-2.16,2.92-4.33,2.57-1.18-.31-2.27.06-3.41.3-1.81.37-3.3-.35-4.18-1.99-.84-1.57-1.06-3.22.47-4.54,1.09-.94,1.78-1.95,1.36-3.46.44,1.75-.33,3.39-1.86,3.43-3.17.08-6.05,1.39-9.09,1.64-4.01.32-6.75-1.88-6.85-4.93-.09-2.82,1.32-3.83,6.26-4.47.67.03.28-.88.27-.21,0,.25-.14.34-.41.28-2.52-.64-3-1.77-1.6-3.88,1.17-1.77,3.22-2.25,4.92-3.25,3.69.87,5.94-.22,5.94-4.37,1.98-4.87,6.28-2.75,9.7-3.26,1.81-1.22,3.55-2.84,3.83-4.88.55-3.94,3.04-5.51,6.35-6.52,1.64-.37,3.33-.4,4.94-.18,1.99.27,1.51-1.25,1.92-2.16.07-.45.15-.89.22-1.34-.61-5.29,1.81-9.81,3.7-14.46,1.11-1.46,3.06-2.15,3.91-3.77,1.79-3.39,4.46-3.89,7.78-2.84Z"/>
      <path class="cls-29" d="M108.69,42.2c1.81-4.58,2.58-8.69-2.99-11.67-.6-.32-2.89-4.62-.93-7.41,5.02,5.59,8.94,11.8,10.79,19.18-1.91,7.9-1.96,16.11-4.1,23.97-.13,3.72-.35,7.39-5.49,7.35-3.45.83-6.49,1.64-6.65,6.4-.12,3.5-3.99,5.03-8.74,3.62-1.86-.55-3.1-.67-4.34.78-.6.71-2.2.46-1.87,2.11,1.11,5.52,1.09,5.52-4.77,6.92-1.21.27-2.8-1.92-3.67,1.04-.54,1.83-2.37,3.35-4.34,4.26-.77,0-1.38-.31-1.87-.88-.54-4.12-3.35-5.07-6.7-4.1-3.16.92-6.48.88-9.56,2-2.88,2.13-4.92.49-6.88-1.51-1.03,0-2.02.14-2.97.6-2.19.88-3.82.31-4.81-1.87-.51-4.34,2.92-5.77,5.61-7.72-.76-2.42-.65-4.99,1.57-6.17,3.57-1.9,6.39-4.71,9.71-6.88.49-.03.99-.07,1.48-.1-.87-4.2,4.19-5.51,4.46-9.17.14-1.86.99-2.78,2.96-1.81,2.25,1.1,1.01,4.35,3.32,5.53.12.06-.79,2.28-2.33,1.15-2.44-1.79-3.33.86-5.96,1.4,2.6.96,4.26.34,6.01,1.02,3.19,1.24,3.63-2.05,3.87-4.19.27-2.47.96-2.06,2.25-.79.92-.41,1.85-.53,2.8-.16,2.48,3.96,2.21,5.7-1.42,7.22-.99.41-1.87.54-1.97,1.77-.08.96-.59,1.51-1.56,1.61-.46.48.07-.7.25-.05.07.27.21.21.48-.12,1.17-1.43,1.62-4.59,4.56-1.85.33.31.14-.38.15-.55.08-1.64,1.81-2.38,2.05-3.92.08-.44.21-.87.36-1.3,1.43-2.76,4.49-1.76,6.62-2.89.32-.28.65-.55.94-.86,2.74-4.24,8-3.92,11.66-6.52.45-.16.91-.22,1.38-.21,3.86-.18,4.06-4.05,6.09-6.06.75-3.42,2.33-6.43,4.53-9.14Z"/>
      <path class="cls-21" d="M55.71,72.19c-1.32,3.54-.37,8.75-6.94,8.27-1.26-.09-3.26,2.51-1.06,4.72-.94.81-2.05.58-3.13.5-1.42-.17-2.94-.68-3.74,1.17-.94,3.36-2.46,5.88-6.62,4.62-1.24-.82-2.23-2.42-3.63-2.51-4.29-.28-6.13-2.12-4.7-5.62-.08-.2.25.42-.17,1.08-.47.74-1.18,1-2.03,1.19-3.95.91-7.45-.04-9.32-3.57-1.58-2.99-2.74-2.98-4.69-.71-2.32-2.27-3.79-5.08-5.02-8.03-.45-.71-.66-1.51-.9-2.31-1.93-6.52-1.95-6.39,4.86-5.8,2.59.22,5.21-.36,7.86-.23,1.44.07,3.53-.95,3.16-2.54-1.28-5.35,2.33-8.13,5.28-11.34.31-2.2.99-4.12,3.34-5,1.29-.48,2.16-1.52,2.42-2.9.84-4.59,3.36-4.63,6.72-2.57,1.38.56,2.25,1.89,3.69,2.37,2.6.86,2.78,2.9,2.54,5.16-.23,2.14-1.35,3.21-3.55,3.15-.69-.02-1.17.5-1.53,1.08-1.07,1.09-1.69,3.01-4.07,2.19-.44.08.51-.58.5.05,0,.22.89.28,1.36.06,1.67-.77,1.94-3.16,4.02-3.46,2.76.03,3.46-1.93,3.26-3.99-.44-4.48,2.16-5.39,5.74-5.46,1.99-.04,3.96-.33,5.91-.7,2.19.25,2.88,2.09,3.83,3.65.33,1.26-.49,1.89-1.38,2.48-2.77,1.72-6.75-2.02-9.01,2-2.22,1.81-2.7,6.06-6.98,5-1.34,1.42-3.55,1.9-4.41,4.33,1.49.77,2.31-1.9,3.75-.74-.38,1.75-1.96,2.41-3.28,3.22-1.48.91-3.72,1.01-3.59,3.48.07,1.37,1.08,2.11,2.33,2.14,1.78.05,3.93,1.1,4.71-1.94.52-2.02,2.11-1.7,3.52-.59,1.01.8,1.65,2.13,3.62,2.18.12-2.38-.39-5.31,3.26-6.42.72,3.02-.9,5.41-1.9,7.88-.65,1.6-.23,3.15.72,4.17,1.3,1.39,1.8-.59,2.65-1.12,1.69-1.06,1.78.86,2.61,1.41Z"/>
      <path class="cls-6" d="M35.69,42.23c-.73-.23-2.27-1.74-2.03-.57,1.06,5.15-1.77,6.71-5.83,7.61-1.04.23-1.06,1.09-1.12,1.91-2.56,1.23-4.89,3.44-8.07,1.86-.3.03-.62.05-.93.14-.28.19-.57.36-.84.57-1.69.92-1.55,2.77-2.17,4.22-5.69-.68-7.92,5.82-13.05,6.32-1.66-3.23-2.2-6.57-.98-10.09.33-4.03,2.45-7.69,1.83-12.04-.29-2.03,2.57-3.73,3.77-5.81,2.18-3.79,3.67-7.87,6.85-11.43,2.99-3.35,4.79-6.89,9.78-7.15,1.21-.06,1.6-1.45,2.2-2.46,2.36-3.93,3.82-4.14,7.93-1.42.78.51,1.64.55,2.53.41,3.01.16,5.63,2.01,8.69,1.96.84.04,1.61-.27,2.4-.47,1.68-.43,3.02.05,3.38,1.86.33,1.67.31,3.38-1.83,3.96-.63.17-1.29.23-1.91.45-4.97,1.75-5.03,1.93-2.55,6.93.39,1.25,1.51,2.1,1.66,2.93-.57-1.07-1.56-2.46-2.17-4.06-.7-1.55-2.32-3.36.18-4.49,2.46-1.11,5.11-3.47,7.84-.33,2.57,1.41,5.42,1.81,8.27,2.17.66.25,1.29.57,1.88.97,3.51,4.64,3.08,6.06-2.44,7.01-1.78.31-3.03,1.25-4.35,2.2-2.5,1.79-5.1,3.03-8.29,2.19-2.36-.62-3.98.58-5.78,1.96-1.41,1.08-2.24,3.61-4.82,2.68Z"/>
      <path class="cls-13" d="M47.71,24.23c.57-.88,1.13-2.04-.68-1.46-1.18.38-3.67.31-2.48,2.92.26.57.76,1.02,1.15,1.53-1.12.87-1.99,2-3.01,2.98-3.69-2.86-3.15-6.22,1.29-8.22,1.81-.82,4.54-.56,4.49-4.22-1.48.97-2.62,2.2-3.97,2.5-3.32.75-.86-1.27-.86-2.12-2.69-2.95-5.91-.7-8.87-.91-1.02-.35-2.05-.7-3.07-1.05q-1.26-6.74,5.53-8.07c1.86-.36,3.22-1.46,4.73-2.5,2.61-1.79,3.82-.61,3.74,2.2-.03-5.85-.01-5.71,5.93-6.27,7.4-.7,14.76-.94,22.08.66,2.15.18,4.19.71,5.96,2.02-.03.94.12,1.89-.28,2.8-1.36,3.62-2.46,7.37-5.41,10.17-.75.71-1.45,1.31-2.49,1.45-.75,0-1.43-.23-2.02-.68-2.3-4.46-9.02-5.82-12.67-2.56-1.53,1.37-2.03,2.71-.89,4.75,2.51,4.53,2.37,4.37-2.62,5.13-2.17.33-3.81-.29-5.59-1.06Z"/>
      <path class="cls-30" d="M73.71,2.2c-7.73-1.36-15.41,1.3-23.14.23-1.42-.2-2.79.38-3.39,1.65-.87,1.84-.92,3.93.49,5.5,1.11,1.24,2.01,2.2.53,4.14-1.97-2.05-3.75-3.98-3.12-8.62-2.23,4.2-4.55,6.06-7.78,5.67-4.32-.52-5.58,1.7-5.59,5.41-.82-.74-1.11-2.24-2.59-2.04-1.88.26-.94,1.77-1.12,2.78-.72,4.02-3.76,4.05-6.85,3.94-2.12-.08-4.55-.91-2.94,3.04.8,1.97-1.4,3.03-3.04,3.95-2.13,1.21-3.98,1.96-4.18,5.52-.15,2.76-3.57,5.54-5.96,7.89-.97.96-1.41,1.36-1.06,2.71,1.05,4.06-.4,7.4-3.3,10.23-1.56-6.93,1.44-12.98,3.91-19.03,5.32-13.04,15.12-22.19,27.28-28.51C45.04-.18,59.16-1.9,73.71,2.2Z"/>
      <path class="cls-9" d="M17.72,51.19c3.22.56,6.13.56,6.28-4.48,1.64,1.66,1.01,3.81,2.71,4.47,1.79,2.88,1.65,2.56-1.94,4.1-1.82.78-3.79,3.31-2.91,5.27,2.21,4.95-3.43,4.94-4.44,7.85-.72,2.06-2.15,0-3.12-.58-.97-.58-1.86-.64-2.8-.1-2.93,1.69-5.26-.16-7.74-1.49.32,2.49.61,4.77.91,7.06-2.57-2.48-2.82-5.73-3.01-9,.41-1.62,3.79-2.26,1.55-4.74,2.97-.97,3.87-3.81,5.56-5.97.37-.47,1.41.51,1.78,1.3.64,1.37,1.22,2.8,3.21,2.3,1.98-.91,2.51.75,3.3,1.76-2.68-2.73-1.06-5.24.68-7.74Z"/>
      <path class="cls-29" d="M9.67,81.32c-1-3.99.02-7.07,4.66-9.41-1.63,4.94,2.29,7.24,3.75,10.54.92,2.09,4.02,1.36,6.61,1-1.34-1.57-4.76-1.84-2.26-5.34,1.12,3.1,5.21,3.59,5.13,7.43-.03,1.16.94,1.52,1.7,1.13,3.89-1.98,4.38,1.18,5.46,3.48-2.41,4.11-6.04.91-9.04,1.52-4.02.74-6.52-2.63-9.88-3.68-2.79-1.54-4.17-4.38-6.13-6.68Z"/>
      <path class="cls-17" d="M47.77,91.21c1.49,1.25,2.63,3.1,4.96,2.94,2.14,1.18,5.33,1.37,4.85,5.06-2.04,3.14-5.13,3.69-8.38,2.84-3.47-.91-7-1.3-10.52-1.81-1.36-.04-2.57-.33-3.06-1.83-1.6-1.93-1.91-3.97-.51-6.15,1.52-1.08,3.05-1.55,4.62-.09,1,1.3,1.99,2.07,2.98-.01,1.44-1.63,3.67.93,5.06-.95Z"/>
      <path class="cls-22" d="M108.69,66.19c-.12-.86-3.83-1-.48-2.59,3.63-1.73,4.15-4.36,1.89-7.61-.83-1.2-1.13-2.95-.4-3.74,2.71-2.93,2.86-7.28,5.86-9.96.94,2.95,1.87,5.91,1.96,9.04-.74,2.59-.13,5.23-.35,7.84-.38,4.62-4.07,7.65-8.49,7.01Z"/>
      <path class="cls-28" d="M108.69,66.19c5.26-3.57,8.33-8.45,8.83-14.85.15,7.47,1.07,15.03-2.66,22.04-2.05.54-2.34,4.04-5.25,3.15-1.57-1.18-5.61-.14-3.91-4.3,3.7-.68,3.31-3.37,2.99-6.04Z"/>
      <path class="cls-1" d="M38.68,100.24c2.42-1.87,5.25-.77,7.57-.32,3.7.72,7.02.03,10.46-.78.28-.37.63-.67,1.04-.9,3.57-1.04,7.4.11,10.92-1.35.72-.2,1.38-.1,1.97.38.34.33.68.67,1.02,1,.45.28.76.66.93,1.16.11.5.09,1-.06,1.48-2.13,3.67-5.9,2.66-8.94,2.59-3.31-.08-6.54.1-9.8.48-5.21-.57-10.33-1.54-15.14-3.75Z"/>
      <path class="cls-25" d="M77.69,5.22c.66-.33,1.32-.67,1.98-1,3.55,1.24,7.21,2.26,10.03,4.97-1.11,1.05-3.4.16-3.79,2.52-.68,4.14-3.59,4.99-7.24,4.49-.23-.03-.47-.05-.7-.08-2.17-3.58-1.04-7.25-.29-10.91Z"/>
      <path class="cls-7" d="M35.71,93.18c.39,1.75.35,3.49-.09,5.23-7.86-1.09-13.97-5.49-19.81-10.41,3.27.89,6.94-.1,9.9,2.18,3.08,1.84,7.1.57,10,3Z"/>
      <path class="cls-15" d="M109.75,75.25c2,.18,1.96-5.19,5.11-1.88-1.4,4.81-3.91,9-7.22,12.73-1.99.33-3.44,3.66-5.95,1.06-1.71-2.86-.78-5.02,1.75-6.78,1.59-1.04,2.75-2.51,3.97-3.93.66-.63,1.43-1.06,2.35-1.2Z"/>
      <path class="cls-12" d="M102.65,87.15c1.71-.11,3.05-2.03,4.99-1.05-1.87,2.79-4.08,5.24-7.03,6.94-3.7-.15-5.18,4.7-9.11,4.04-4.22-2.51-.54-5.17-.17-7.78.72-1.27,2.01-1.63,3.27-2.04,2.67-.54,5.32-3.18,8.04-.11Z"/>
      <path class="cls-23" d="M53.81,103.99c3.35-1.09,6.49-2.32,10.32-1.21,2.56.74,5.44-.53,7.56-2.6,2.54-1.99,5.08-3.86,8.13-.82.9,1.38-.28,2.07-.97,2.92-8.2,2.69-16.63,2.03-25.04,1.71Z"/>
      <path class="cls-8" d="M78.85,102.28c.26-.74.52-1.48.79-2.22,1.52-3.62,4.54-5.05,9.39-4.4.91.12,1.63,1.21,2.7.53,3.56.63,4.92-4.91,8.88-3.15-6.36,5.17-13.7,8.07-21.76,9.24Z"/>
      <path class="cls-2" d="M73.7,66.18c-.65-.32-1.29-.63-1.94-.95,2.22-3.32,3.79-7.18,8.14-8.57,2.27-.72,3.33-2.69,3.53-4.98.17-1.87,0-4.15,2.7-3.66,2.22.41,2.45,2.38,1.86,4.4-.1.35.19.81.72,2.75,2.03-5.41,3.86-9.68,9.15-10.52.6.9-1.38,3.47.8,3.22,1.54-.18,3.13-2.29,4.16-3.89.8-1.24-.72-2.02-1.75-2.51-.89-.42-1.9-.57-2.84-.89-5.25-1.78-6.9-4.85-5.44-9.96.25-.87.58-1.72,1.61-1.42,1.86.56,4.13.54,5.13,2.64,1.21,2.53,1.02,4.8-2.52,6.13,3.97,2.6,8.43,1.77,11.67,4.2,1.12.53,2.42,1.73,1.42,2.53-2.51,2-2.31,5.4-4.45,7.47-1.79,1.25-3.62,1.62-5.52.32-.52-.37.27.18-.28-.2.1.03.16.11.28.18,2.55,2.86,1.94,4.5-2.45,6.69h0c-3.98,1.18-8.04-.23-11.97.21-.91,2.72,2.95,5.23-.02,7.77h-.01c-2.06.39-3.87-.82-5.94-.94-3.02-.17-.06,1.75-1.05,1.95,0,.34,0,.68-.01,1.02-1.79,2.4-3.12,2.93-3.52-.82-.1-.93.69-2.58-1.46-2.21Z"/>
      <path class="cls-5" d="M35.69,42.23c.49-2.27-.69-5.42,3.77-5.3,1.65.05-.03-1.35-.42-1.98-.88-1.43.09-2.17,1.02-2.84,1.07-.77,1.58,0,2.38.78,3.78,3.66,9.03,3.37,13.14-.45.79-.74,1.05-2.81,2.33-2.13,5.66,3,1.76-2.2,2.78-3.11,1.12-2.22,2.99-2.41,4.38-.78,2.08,2.43,5.91,4.64,2.62,8.78-.55.95,1.03,3.35-2,2.66-1.45-.33-2.25.74-2.28,2.29-.06,3.83-1.94,6.21-5.71,7.04.34-.67.68-1.33,1.02-2-.88-1.65.04-3.97-1.85-5.15.07.07-.06.11,0,.17.08.99.7,2.29-1.18,2-1.03.53-2.05,1.52-3.08,1.52-4.74.03-8.29,1.22-9.15,6.69-.25,1.61-2.26,1.69-3.79,1.76-.68.56-1.35.64-2.01-.03.28-1.38.06-3.22,2.45-2.65,1.4.33,2.25-.18,2.36-1.64.1-1.39-.8-1.85-1.96-2.37-1.76-.8-4.53-.27-4.83-3.25Z"/>
      <path class="cls-25" d="M67.7,35.2c-1.37-2.28-2.82-4.52-4.07-6.86-.72-1.36-1.77-1.24-2.93-1.14-.66,0-1.32,0-1.98,0-.8-2.49.03-4.84.7-7.16.84-2.9,2.7-4.05,5.62-2.72.23.19.35.47.34.79.39-.34.07-.93.48-1.3,1.42-1.05,2.71-1.02,3.85.38.65,0,1.3,0,1.96-.01,2.42.21,4.23-3.95,7.03-.98,0,0-.01,0-.01,0,.98,1.74,4.71,3.49-.48,5.13-.91.29-1.35,5.18-.46,7.3,1.33,3.19-.61,2.36-2.06,2.57-1.32-1.09-2.81-.28-3.65-.38.84.06,2.33-.69,3.66.37-.21,1.26-.21,2.61-.68,3.77-.71,1.78-.96,1.6-3.5.47-1.09-.49-2.54-.18-3.82-.24Z"/>
      <path class="cls-16" d="M79.7,40.21c.62-1.57-.5-2.74-1.17-4.38,3.08,0,6.1.37,6.82-3.84.24-1.41,2.54.68,4.19-.14.67-.33.57,2.09.15,3.32-1.5,3.57-5.8,3.41-8.03,6.02-.66-.33-1.31-.66-1.97-.99h0Z"/>
      <path class="cls-5" d="M41.72,54.18c3.23-.4,2.76-5.97,6.98-5-.16,6.98-1.72,8.1-6.98,5Z"/>
      <path class="cls-2" d="M81.66,41.18c1.04-4.19,4.51-5.13,8.03-6.02.77,6.61-5.43,3.91-8.03,6.02Z"/>
      <path class="cls-25" d="M93.59,17.99c-.48-.28-.93-.43-1.24-.73-1.41-1.35-4.32-1.53-3.67-4.48.21-.96,1.16-1.18,1.95-.7,2.11,1.29,4.15,2.69,2.95,5.9Z"/>
      <path class="cls-19" d="M79.69,40.19c-.42.49-.74,1.14-1.27,1.42-1.2.64-2.52.82-3.57-.28-.51-.53-.19-1.24.27-1.74,1.04-1.12,2.21-1.25,3.45-.32.39.29.75.62,1.12.93,0,0,0-.01,0-.01Z"/>
      <path class="cls-18" d="M102.65,87.15c-2.72.43-5,2.59-7.98,1.97-1.04-1-2.08-1-3.53-.64-4.35,1.07-6-.66-5.47-5.32,3.01-4.31,7.04-2.75,11.23-1.86.15-3.32-2.87-8.26,4.17-8.35,2.13-.03-.65-2.94,1.39-4.3,1.79.21,2.07,2.38,3.24,3.56.43,2.23,3.37,1.12,4.05,3.03-.36.63-.72,1.26-1.08,1.89-2.43.29-2.77,2.11-2.98,4.04-1.46,1.76-3.3,3.34-3.04,5.97Z"/>
      <path class="cls-31" d="M85.67,83.16c1.39,2.21,3.03,3.79,6.02,3.34,1.69-.26,2.55,1.1,2.97,2.63-.51.18-1.04.34-.98,1.05-2.57,2.6-4.63,5.77-8.92,6.11-2.84.22-4.46-.56-5.07-3.33-.01-.27-.02-.55-.04-.82,5.09-2.88,4.97-3.61-2.04-8.03,3.29.39,5.38-1.71,8.05-.94Z"/>
      <path class="cls-26" d="M57.69,99.22c-.33-.02-.65-.04-.98-.07-1.16-1.8-3.63-2.56-3.98-5,4.85-3.23,10.3-3.23,15.7-2.42,3.15.47,2.39,3.32,2.23,5.55-.32.29-.64.58-.96.88-4.04-.04-8.02.45-12,1.07Z"/>
      <path class="cls-3" d="M85.7,67.18c.53-2.34-.05-4-2.27-5.38-2.96-1.84-2.03-3.31.71-4.85,5.26-2.96,8.87,2.63,13.56,2.24-.29.39-.52,1.05-.87,1.13-4.27.94-7.79,2.95-10.17,6.73-.11.17-.63.09-.95.13Z"/>
      <path class="cls-4" d="M35.71,93.18c-3.82.61-7.2-.23-10-3,3-1.2,6.01.87,9.01-.02,1.58-.42,4.55.62,2.66-3.13-.96-1.91,1.28-1.51,2.33-1.83,1.71-.15,3.59.55,5.03-.99.99.32,1.98.65,2.96.97.07,1.76,1.89,4.86-2.43,3.37-3.5-1.21-3.83,2.21-5.55,3.62-1.34.34-2.68.67-4.02,1.01Z"/>
      <path class="cls-3" d="M73.7,66.18c1.71-1.51,1.75.18,1.92,1.11.34,1.84,1.22,2.58,3.06,1.91.37,1.42.75,2.84,1.21,4.59-.44,1.04-4.39-3.18-2.94,1.54.43,1.41-.99,2.86-2.32,2.55-2.69-.64.77-1.02.27-2-.91-1.77-1.9-2.24-3.38-.87-2.29,2.11-4.75,1.9-7.52.51,5.41,1.6,5.1-6.24,10.01-5.78.45.04.58-2.38-.31-3.56Z"/>
      <path class="cls-26" d="M71.73,99.12c-.03-.28-.05-.56-.07-.85.9-3.2,3.39-5.62,4.11-8.98.63-2.91,2.96-1.64,4.74-1.29.52,1.64-4.31,1.96-.86,4.13,0,0,.04.07.04.07,2.23,5.52,2.2,5.74-3.48,6.32-1.51.15-2.77,2.41-4.49.59Z"/>
      <path class="cls-3" d="M97.68,59.19c1.54-2.09,4.26-3.83,2-7.01h0c1.99,0,3.98,0,5.97,0-.96,2.63-5.09,4.37-2.35,8.13.02.03-1.31,1.24-2.13,1.67-1.35.7-1.18-.56-1.31-1.24-.24-1.25-1.17-1.45-2.18-1.56Z"/>
      <path class="cls-3" d="M78.69,68.19c-1.69-2.63-2.56-5.35-.84-8.64,2.36,1.36,2.18,3.35,1.06,6.49,3.73-3.05,4.8.26,6.77,1.16-2.1,1.92-4.9-.99-6.99,1Z"/>
      <path class="cls-27" d="M47.77,91.21c.13,1.62.7,3.58-1.47,4.18-2.6.73-1.5-3.12-3.6-3.23,1.36-2.07,3.24-1.35,5.06-.95Z"/>
      <path class="cls-3" d="M56.71,38.21c4.85,1.12,4.04,3.88,2.02,6.98-1.55-.45-2.36-1.63-3.03-2.97-.33-1-.66-2.01-1-3.01.47-.74,1.11-1.12,2.01-.99Z"/>
      <path class="cls-29" d="M44.74,84.21c.3,1.14.52,2.3-1.02,2.7-1.73.45-3.15-.02-4.01-1.71q.34-2.87,5.03-.99Z"/>
      <path class="cls-14" d="M37.67,52.16c.67.01,1.34.02,2.01.03-.62.77-1.18,1.59-1.88,2.29-2.12,2.11-4.33.94-5.53-.73-1.44-2.01.92-2.6,2.44-3.62.02,2.36-.19,5.14,2.96,2.03Z"/>
      <path class="cls-5" d="M65.7,18.2c-2.88-.15-4.26,1.43-4.27,4.11-.01,2.22-1.15,3.63-2.71,4.89-3.49-1.65-8.32,1.65-11.01-2.98,2.62,0,5.24,0,7.8,0,.39-1.41-.48-1.67-1.21-1.98-1.19-.5-3.71,1.06-3.46-1.31.18-1.77-.78-4.25,1.6-5.56,3.27-1.8,5.62-4.43,6.73-8.21,1.74,1.38-.2,3.12,1.18,4.37.8-.98,1.6-1.96,2.33-2.86,1.6.41-1.26,4.73,2.83,2.67,1.96-.99,4.66-2.06,6.27.31,1.56,2.28-1.02,3.8-2.06,5.55-1.42.01-2.81.14-4.01,1h0Z"/>
      <path class="cls-24" d="M17.72,51.19c-1.49,4.25,2.29,8.58-.2,12.83-.4.68-.4,1.61-1.78,1.98.84-3.36.88-6.5-2-8.83-.87-2.24,1.17-3.36,1.92-4.98.4-.92.94-1.56,2.06-1Z"/>
      <path class="cls-5" d="M42.7,30.2c.16-1.85,1.15-2.85,3.01-2.98-.11,1.43-.99,3.25.71,4.04,1.73.81,1.34-1.38,2.07-2.07.82-.78,1.95-.79,2.77-.35,1.44.77.2,1.58-.24,2.35-2.11,3.71-3.75,3.52-8.32-.99Z"/>
      <path class="cls-9" d="M17.72,51.19c-.69.33-1.37.67-2.06,1-1.5-.46-2.78-1.16-2.09-3.04.18-.49.87-1.11,1.36-1.13,2.16-.12,2.53,1.51,2.79,3.17Z"/>
      <path class="cls-3" d="M34.78,17.23c3.01-.16,6.41-4.19,8.87.91-2.96-.3-5.92-.61-8.87-.91Z"/>
      <path class="cls-20" d="M78.7,16.21c-2-.51-2.92,1.46-4.01,2.29-2.43,1.85-2.38-.09-3.02-1.3.99-2.74,6.65-3.74,3.09-8.35-.22-.28,1.9-2.38,2.94-3.63,1.4,3.57-.43,7.43,1,10.99Z"/>
      <path class="cls-10" d="M71.73,99.12c3.65-1.16,8.3-1.17,7.97-6.91,2.91,3.23,5.92,3.59,9.34.61,1.32-1.15,3.09-1.78,4.65-2.65,1.6,2.74-3.55,3.27-1.97,6.01-3.82,1.93-8.46,1.33-12.09,3.87-2.67-1.5-5.28,1.25-7.94.12.01-.35.03-.7.04-1.05Z"/>
      <path class="cls-17" d="M57.69,99.22c2.19-2.22,5.67-1.4,8.08-3.77,1.42-1.39,2.59,1.69,3.92,2.7-.56,1.26-1.43,2.72-2.86,2.17-3.01-1.16-6.19-.02-9.14-1.1Z"/>
      <path class="cls-11" d="M105.68,81.18c-.6-1.63-1.86-3.51-.7-4.98,1.23-1.55,2.45.52,3.69.94-.99,1.34-1.99,2.69-2.98,4.03Z"/>
      <path class="cls-3" d="M99.69,52.19c-3.39,1.38-5.17.08-5.7-3.59,2.8-.09,3.62,2.81,5.7,3.6h0Z"/>
      <path class="cls-6" d="M56.71,38.21c-.67.33-1.34.66-2.01.99-3.21-.36-.8-2.26-.57-3.06.35-1.2,1.83-1.46,2.94-.75,1.66,1.06.19,1.93-.36,2.82Z"/>
      <path class="cls-5" d="M65.7,18.21c2.89.17,1.92,2.35,1.48,3.59-.48,1.35-2.03,1.04-2.89.19-2.2-2.16,1.58-2.27,1.41-3.79h0Z"/>
      <path class="cls-3" d="M75.7,31.19c-2.27-.34-3.99,1.11-5.96,2.03.9-4.52,1.14-4.6,5.96-2.02,0,0,0,0,0,0Z"/>
    </g>
  </g>
</svg>