<?xml version="1.0" encoding="UTF-8"?>
<svg id="Layer_2" xmlns="http://www.w3.org/2000/svg" viewBox="0 0 141.78 105.06">
  <defs>
    <style>
      .cls-1 {
        fill: #6f7172;
      }

      .cls-2 {
        fill: #506b2b;
      }

      .cls-3 {
        fill: #a6bc88;
      }

      .cls-4 {
        fill: #c3d2b0;
      }

      .cls-5 {
        fill: #35481d;
      }

      .cls-6 {
        fill: #d2d2cf;
      }

      .cls-7 {
        fill: #e1e2e2;
      }

      .cls-8 {
        fill: #bcbbbc;
      }

      .cls-9 {
        fill: #9f9e9d;
      }

      .cls-10 {
        fill: #88a561;
      }

      .cls-11 {
        fill: #6a8f39;
      }
    </style>
  </defs>
  <g id="Layer_2-2" data-name="Layer_2">
    <g>
      <path class="cls-4" d="M124.73,16.12c5.7,7.32,10.77,14.98,12.86,24.22-1.73-.37-2.7-1.73-3.88-2.86-3.62-3.48-7.92-5.63-12.91-6.34-1.78-1.46-10.57-2.38-11.75-1.06-.55.62-.13,1.55.68,2.06-.11,1.99.56,3.66,2.04,5.01-.33.67-.66,1.33-1,2-1.74.22-1.99-1.36-2.76-2.3-1.14-2.88-.36-6.48-3.22-8.72.07-.8-1.87-1.83.46-2.38,2.7-.64.49-1.8.06-2.66-1.24-2.46-3.48-2.39-5.48-1.54-1.32.57-.29,1.64.44,2.27.78.67,1.72,1.28.41,2.22-.77.56-1.8,1.29-2.61.29-1.49-1.84-2.88-.85-4.33-.1-1.4-.14-2.46-.76-3.03-2.09,1.92.21,3.59-.64,5.24-1.38.82-.37.86-1.34.69-2.21-.16-.78-.91-1.36-1.37-.89-2.38,2.41-5.26.66-7.94.81.05,2.08,2.26,2.2,2.58,3.71-3.03,1.46-6-.63-9.01-.17.49-1.48,1.96-3.07-1.42-3.22-3.56-.16-7.09-1.08-10.63-1.66-.76-1.08-1.92-.9-3.01-.94-4.6-2.49-9.83-1.57-14.7-2.73-6.74-1.61-8.13-.45-9.33,6.71-1.87.54-4.18.57-5.33,2.22-2.63,3.77-6.24,6.07-10.14,8.26-1.67.94-3.81,3.26-3.64,4.69.22,1.76,2.8,2.87,5.12,3,.94.05,1.86.6,2.79.93,3.52,1.95,6.8,4.62,11.24,4-.09,2.1,1.91,3.23,2.64,5.48-4.04-.73-7.95-1.63-10.64,2.26-2-.29-4.01-.58-6.01-.87-2.5-3.01-5.93-1.71-9.03-1.95-1.52-1.79-4.82-2.74-2.87-6.15,3.33.33,5.52-2.71,4.51-4.37-2.83-4.64.34-7.34,2.07-10.62.6-1.13,1.99-2.19.57-3.42-1.07-.93-2.62-.79-3.69.08-1.7,1.39-3.79,2.51-5.08.42-1.13-1.85-1.1-4.53.6-6.53,1.94-2.28,4.07-4.3,7.08-5.2,8.97-2.68,17.41-7.1,26.87-8.2,0,1.76-.01,2.99,2.19,4.16,4.38,2.34,8.86,2.89,13.6,2.84,8.13,5.18,17.52,3.85,26.08,3.4,11.36-.6,22.58-3.78,34-.48ZM25.23,20.51c1.87.7,3.25,1.48,4.63,2.28,1.7.99,3.47-.4,5.11-1.05.58-.23.87-1.06.41-1.69-1.07-1.48-2.72-.89-4.1-.86-1.88.04-3.95-.76-6.06,1.33Z"/>
      <path class="cls-5" d="M117.86,95.18c-9.79,4.91-19.57,9.89-31.06,8.85,4.92-2.67,5.43-4.88,2.13-9.22-.69-.91-1.38-1.83-2.06-2.75-1.6-1.06-3.2-2.11-4.81-3.17-1.41-3.81-4.6-5.07-8.22-5.72-.68.28-1.37.56-2.05.84-.35,0-.69.01-1.04.02-.69.11-1.38.21-2.08.32-.64.04-1.29.08-1.93.12-.62-1.11-1.25-2.22-1.87-3.32.94-.79,1.87-1.58,2.81-2.37,2.63,2.16,4.86,1.79,6.98-.86,2.72-3.4-1.45-2.95-2.29-4.35-.66-1.1-1.23-2.24-1.84-3.37,2.41-2.65,4.75-.74,7.11.11-2.2,2.88.59,5.28,1.91,6.03,1.6.91,3.76-1,4.23-3.4,3.66,3.28,8.76,1.42,12.74,3.53,4.02,1.25,7.92,3.11,12.32,2.58-.03,1.07-.5,2.94.96,2.72,5.59-.83,10.69,1.21,15.98,2.12-.54,2.46-1.49,4.45-4.23,5.31-2.8.87-4.07,2.99-3.69,5.99Z"/>
      <path class="cls-10" d="M124.73,16.12c-11.42-3.3-22.64-.13-34,.48-8.56.45-17.95,1.79-26.08-3.4-.35-.7,2.93-1.42.07-2.01-1.59-.33-3.33.1-4.95-.15-1.84-.28-3.31-1.59-2.1-3.38,1.91-2.83,8.9-1.57,10.3,1.64,2.46,5.64,7.57,6.52,13.05,2.13-1.51-.36-2.91-.87-4.35-.99-1.12-.09-2.53,1.35-3.15-.77,1.74-.42.68-3.41,2.86-3.28,3.91.23,7.97-.43,11.57,1.81-.98,1.11-3.41-.2-3.72,2.48,2.61.65,4.65.44,5.55-2.56-3.22-2.64-1.18-5.21.09-7.79.62,0,1.23,0,1.85,0,.13.62.26,1.34,1.04,1.37.79.04.96-.67,1.13-1.29.97.23,1.94.47,2.91.7.04,1.03.08,2.05.12,3.08-.17,1.74-1.16,2.66-2.87,2.87-1.02.13-2.16.33-2.02,1.63.17,1.6,1.62,1.25,2.72,1.43,4.93.82,9.48.13,13.83-3.34-2.13-1.09-4.11-.46-5.97-.62-1.59-.14-3.46.34-3.97-1.96,1.11-1.51,2.83-.9,4.29-1.23,8.8,1.83,16.04,6.27,21.81,13.13Z"/>
      <path class="cls-3" d="M89.87.33c-1.27,2.58-3.32,5.16-.09,7.79-.61.03-1.22.05-1.83.08-3.6-2.24-7.66-1.58-11.57-1.81-2.18-.13-1.12,2.86-2.86,3.28.62,2.12,2.03.68,3.15.77,1.44.12,2.84.63,4.35.99-5.48,4.39-10.58,3.51-13.05-2.13-1.4-3.21-8.4-4.47-10.3-1.64-1.21,1.8.26,3.1,2.1,3.38,1.62.24,3.36-.18,4.95.15,2.87.59-.41,1.31-.07,2.01-4.74.05-9.22-.5-13.6-2.84-2.21-1.18-2.19-2.4-2.19-4.16,13.67-1.95,26.82-7.61,41.02-5.87Z"/>
      <path class="cls-5" d="M39.82,102.08c-10.74-.54-20.36-3.64-27.72-11.98,2.52-.84,6.3,2.8,7.67-2.15,8.22-3.94,14.27.96,20.53,5.03,0,.96,0,1.93-.01,2.89-.15,2.07-.31,4.14-.46,6.21Z"/>
      <path class="cls-2" d="M120.79,31.13c4.99.71,9.29,2.86,12.91,6.34,1.18,1.13,2.15,2.49,3.88,2.86,3.02,5.59,5.22,11.33,3.52,17.85-.37.01-.75.03-1.12.04-2.24-3.86-3.77-7.89-3.21-12.48.15-1.25.24-2.15-1.74-1.52-1.25.4-2.87-.36-4.32-.6.1-1.56-.44-2.47-2.19-2.5-2.89-.04-5.72-.78-8.68-.12-1.93.43-4.82.12-4.47-2.28.32-2.23-1.57-6.49,3.4-6.6h0c.21.68.11,1.87,1.24,1.49,1.08-.36.67-1.58.77-2.47Z"/>
      <path class="cls-2" d="M86.87,92.06c.69.92,1.37,1.83,2.06,2.75,3.3,4.35,2.79,6.55-2.13,9.22-8.17,1.51-16.31,1.34-24.42-.38.32-2.05-3-1.47-2.58-3.59,1.32-.03,2.64-.05,3.96-.08,2.23,1.52,4.14.4,6.05-.73l3.97-.08c1.46,2.38,3.46,3.73,7.75,3.72-2.84-1.58-1-5.29-4.73-4.83.1-1.8,1.5-2.45,2.72-1.9,4.49,2.04,5.97-.86,7.36-4.11Z"/>
      <path class="cls-4" d="M1,66.24c.48-4.06-2.12-7.95-.41-12.17.95-2.34,1.81-3.46,4.24-1.97-.06,2.92-1.85,6.1,1.81,8.94-.56-3.31,2.28-6.65-1.81-8.94,1.96-2.24,4.15-4.29,3.23-7.87-.18-.7.09-3.68,2.77-2.21-.1,1.79.09,3.59-.6,5.35-.63,1.59-.94,3.33,1.58,3.72h.01c0,1.02.01,2.02.02,3.02-.35,1.65-.69,3.3-1.04,4.96-.05,1.5-3.87,1.21-2.1,2.82,2.75,2.51-.62,2.88-.84,4.25-2.29.03-4.58.07-6.86.1Z"/>
      <path class="cls-10" d="M59.8,100.06c-.42,2.12,2.9,1.55,2.58,3.59-5.97,1.1-11.81-.25-17.68-.89.25-3.4-.8-5.97-4.42-6.89,0-.96,0-1.93.01-2.89,1.24.42,3.2.47,3.61,1.3,3.08,6.17,8.65,4.65,13.72,4.85.74.03,1.45.61,2.18.93Z"/>
      <path class="cls-4" d="M8.46,86.1c-3.17-4.27-5.98-8.7-6.5-14.19.97.27,2.26-3.37,2.95.24,2.95,1.41,5.9,2.82,8.85,4.24-.64,1.86-.52,4.01-2.97,5.03-1.5.62-.08,1.88.28,2.83-.3,1.42-1.36,1.77-2.61,1.85Z"/>
      <path class="cls-2" d="M117.86,95.18c-.39-2.99.89-5.11,3.69-5.99,2.74-.85,3.69-2.85,4.23-5.3.32-.59.65-1.19.97-1.79,2.03-.09,2.85-1.81,4.06-3.01,1.54,0,3.09,0,4.63,0-3.96,7.44-10.07,12.52-17.57,16.08Z"/>
      <path class="cls-3" d="M139.98,58.22c.37-.01.75-.03,1.12-.04,1.35,6.94,1.01,13.49-4.28,18.92-.4-.42-.8-.83-1.19-1.25,1.88-1.65,2.46-3.8,2.25-6.19-.17-1.94-1.25-.71-2.03-.49-1.23-.73-1.05-1.97-1.11-3.12,2.01-2.43,4.57-4.5,5.24-7.83Z"/>
      <path class="cls-3" d="M11.84,54.12c0-1-.01-2.01-.02-3.01.24-.36.49-.71.73-1.07l-.38-.24c-.12.43-.24.87-.37,1.3-2.51-.39-2.2-2.12-1.58-3.72.69-1.77.5-3.56.6-5.35.66.32,1.31.64,1.97.96.69,1.34,1.92,1.08,3.07,1.04,0,0,.04.01.04.01-1.95,3.4,1.35,4.36,2.87,6.15-.26.07-.53.1-.8.09l-.67.31c.19.16.38.32.57.48l-.08,2.03c-1.99.34-3.97.69-5.96,1.03Z"/>
      <path class="cls-10" d="M4.92,72.15c-.69-3.62-1.98.02-2.95-.25-.45-1.87-1.32-3.66-.97-5.66,2.29-.03,4.58-.07,6.87-.1-.42,2.04.83,3.3,2.54,4.76-2.05.47-3.77.86-5.48,1.25Z"/>
      <path class="cls-10" d="M8.46,86.1c1.25-.09,2.31-.43,2.6-1.85.5-.04,1-.08,1.51-.12l.19,2.03c1.54,3.69,4.86.46,7,1.79-1.37,4.95-5.15,1.31-7.67,2.15-2-.62-2.94-2.2-3.63-4Z"/>
      <path class="cls-2" d="M40.28,95.87c3.62.93,4.66,3.5,4.42,6.89-1.63-.23-3.25-.46-4.88-.68.15-2.07.31-4.14.46-6.21Z"/>
      <path class="cls-4" d="M4.82,35.11c-.23-2.71.76-5.13,1.84-7.51.46-1.01,1.01-2.51,2.34-1.94,1.42.61.61,2.01.05,2.94-1.34,2.21-2.8,4.35-4.21,6.51h0Z"/>
      <path class="cls-10" d="M135.63,75.85c.4.42.79.83,1.19,1.25-.11.91-.43,1.68-1.39,2-1.55,0-3.09,0-4.63,0-.81-.39-1.04-1.09-1.06-1.92,1.96-.44,3.92-.89,5.88-1.33Z"/>
      <path class="cls-3" d="M96.92,4.2c-.04-1.03-.08-2.05-.12-3.08,2.21.05,4.61-.53,6.11,1.86-1.45.33-3.17-.28-4.28,1.23-.57,0-1.14,0-1.71-.01Z"/>
      <path class="cls-4" d="M15.88,44.02c-1.15.03-2.38.29-3.07-1.04,1.62-1.41,2.63-1.03,3.07,1.04Z"/>
      <path class="cls-3" d="M93.88.42c-.17.62-.34,1.32-1.13,1.29-.78-.04-.91-.75-1.04-1.37.72.03,1.45.06,2.17.09Z"/>
      <path class="cls-7" d="M4.83,35.11c-.12.44-.25.88-.37,1.32-.13-.08-.26-.17-.38-.25.25-.36.5-.71.75-1.07,0,0,0,0,0,0Z"/>
      <path class="cls-3" d="M19.77,87.95c-2.14-1.34-5.46,1.9-7-1.79.54-.3,1.5-.56,1.54-.91.13-1.2-.95-1.02-1.73-1.12-.5.04-1.01.08-1.51.12-.36-.94-1.78-2.2-.28-2.83,2.45-1.02,2.33-3.16,2.97-5.03.69-.07,1.38-.14,2.07-.22,3.03,1.74,5.24.65,7-2.02.67-.04,1.34-.08,2.01-.12,2.93,3.3,7.49,2.84,11.05,4.72.02.01.59-1.01.91-1.55,3.07-.34,6.14-.69,9.22-1.03.42.02.83.03,1.25.05,4.12.24,8.95,3.84,11.72-2.44,6.06.17,6.08-5.53,8.59-8.82.47-.12.94-.25,1.41-.37-.36-.17-.71-.34-1.07-.51-1.98-5.1-7.5-3.43-10.95-5.72-.97.04-1.94.08-2.91.12-1.01-.44-2.02-.88-3.25-1.42v4.17c-.66-.06-1.33-.12-1.99-.19-2.17-4.8-4.72-6.91-8.1-6.68-2.19-.99-4.95.91-6.89-1.35,2.68-3.88,6.59-2.99,10.64-2.26-.73-2.25-2.73-3.38-2.64-5.48.03-.17.04-.33.02-.5,5.32.78,10.64,1.55,15.96,2.33,1.39,1.44,3.23,1.67,5.06,1.92.96.13,1.93.25,2.89.37,2.18,2.06,4.94,1.11,7.45,1.43,2.92.53,5.91.84,8.54,2.4.03,1.62.06,3.23.08,4.85l-.08.08c-1.8,1.22-4.61-2.82-5.88,1.13-.69-.07-1.38-.14-2.07-.21-.12-.74-.28-1.86-1.18-1.46-1.01.46-.32,1.18.39,1.59-1.2,4.71,1.09,6.83,5.47,7.4,4.5,3.77,10.22,2.11,15.27,3.44-.88,2.92,4.7,3.07,2.76,6.44-3.99-2.12-9.08-.26-12.74-3.53-1.76-1.54-3.69-2.69-6.13-2.63-2.36-.86-4.7-2.76-7.11-.11-1.35.07-2.24.65-2.41,2.07-.12,1.59-.25,3.19-.37,4.78,0,0,.03-.03.03-.03-1.65.52-.71,1.03,0,1.54,0,0-.1.2-.1.2-.94.79-1.87,1.58-2.81,2.38-4.34,2.15-8.98,2.22-13.77,1.82,2.8,1.61,5.47,3.14,8.68,3.14.38,2.75,1.83,1.41,3.09.81.95.02,1.89.04,2.84.06,2.95,1.68,6.11,1.24,9.21.78.82-.12,1.6-1.51,2.21.11,1.13,3.02,3.16,1.31,4.93,1.03,1.6,1.06,3.2,2.11,4.81,3.17-1.39,3.26-2.86,6.15-7.36,4.11-1.22-.55-2.62.1-2.72,1.9-1.14.01-2.36-.21-3.02,1.1-1.32.03-2.65.05-3.97.08-2.25-1.72-4.38-2.36-6.05.73-1.32.03-2.64.05-3.96.08-.73-.32-1.44-.9-2.18-.93-5.07-.2-10.64,1.31-13.72-4.85-.41-.83-2.37-.89-3.61-1.3-6.26-4.06-12.31-8.97-20.53-5.03Z"/>
      <path class="cls-2" d="M108,36.84c.78.94,1.02,2.52,2.76,2.3-1.03,3.36-2.06,6.71-3.1,10.07-5.11-1.45.08-5.99-2.64-8.25-1.26.33-1.64,2.47-3.97,1.62-2.11-.78-3.77,5.18-6.89,1.08-1.1,3.68-5.99,2.21-7.4,5.46l.02-.02c-.9-.26-2.07.19-2.64-.89-.31-.6-.38-1.44.61-1.38,2.04.12,2.4-.9,1.58-2.39-.88-1.6-2.15-1.2-3.22-.09-1.67,1.73-3.17,1.66-4.15-.55-.71-1.58-1.55-1.82-3.08-1.22-1.61.63-3.14,1.32-4.97-.1-1.22-.95-1.97.4-2.2,1.66-2.59-1.4-3.74-4.21-5.92-6.02-2.29-3.92,2.54-5.12,3.05-7.97l-.03.03c1.29-.1,2.57-.2,3.86-.3-.08,1.74-.79,4.27,2.45,2.09,1.26-.85,2.41-.57,3.59.09l.16.15c-1.56,1.93-6.81,3.61-.17,6.21.56-4.19,3.25-4.5,6.85-3.46-.7,1.39-2.46,2.5-1.16,4.6,2.32-5.33,10.82-.2,11.99-8.97,1.23,3.98,2.08,7.2,5.66,3.59,1.06-1.07,2.29-.38,2.64.99,1.12,4.4,3.7,3.01,6.31,1.7ZM93.14,40.85c-.05.14-.16.29-.13.41.14.48.36.5.56.04.05-.11-.02-.31-.1-.42-.04-.06-.22-.03-.34-.04Z"/>
      <path class="cls-11" d="M108,36.84c-2.6,1.31-5.18,2.71-6.31-1.7-.35-1.37-1.58-2.06-2.64-.99-3.58,3.61-4.43.38-5.66-3.59-1.17,8.77-9.67,3.65-11.99,8.97-1.3-2.09.46-3.21,1.16-4.6-3.6-1.03-6.29-.73-6.85,3.46-6.64-2.61-1.39-4.28.17-6.22.71-.54,1.79-.65,2-1.75,0-.04-.26-.2-.41-.21-1.28-.08-1.61.78-1.75,1.81-1.18-.65-2.33-.94-3.59-.09-3.23,2.18-2.52-.35-2.45-2.09,1.92-5.4,7.58-3.68,11.18-5.86,3.01-.46,5.98,1.63,9.01.17.27,0,.54,0,.8-.03.57,1.34,1.64,1.95,3.03,2.09,2.75,6.08,7.24,2.05,11.06,1.89,2.87,2.25,2.08,5.84,3.22,8.72Z"/>
      <path class="cls-2" d="M15.83,76.17c-.69.07-1.38.14-2.07.22-2.95-1.41-5.9-2.82-8.85-4.23,1.72-.39,3.44-.78,5.48-1.25-1.71-1.46-2.96-2.72-2.54-4.76.23-1.37,3.59-1.75.84-4.25-1.76-1.61,2.05-1.31,2.1-2.82,4.92,1.02,6.61-1.72,6.99-5.99.03-.68.05-1.35.08-2.02.03-.27.07-.53.11-.79.27.02.54-.01.8-.09,3.1.24,6.53-1.05,9.03,1.95.32,2.29-3.8,4.81.44,7.02.45.23-.69,1.76-1.78,1.6-1.08-.15-2.08-1.04-3.69.36,2.55.88,2.17,5.15,6.11,4.14.1,1.64-.41,3.19-2.25,2.95-2.61-.35-3.5,1.54-4.84,2.96l.17,2.75c-2.6-.75-5.58-2.49-6.15,2.27Z"/>
      <path class="cls-11" d="M30.58,41.27c-.93-.32-1.85-.87-2.79-.93-2.33-.13-4.91-1.24-5.12-3-.18-1.43,1.97-3.75,3.64-4.69,3.9-2.19,7.51-4.49,10.14-8.26,1.15-1.65,3.45-1.69,5.33-2.22,0,0,0-.02,0-.02.43.94,1.26,1.07,2.16,1.03h.36s.35-.03.35-.03c.49.94.98,1.87,1.47,2.81,2.23,1.4,4.46,2.79,6.69,4.19.87,3.96-3.92,5.48-3.91,9.07-2.2.97-2.42-1.95-4.07-2.06-2.41.54-4.68-4.4-7.15-.25-1.63,2.75-6.09.74-7.11,4.37Z"/>
      <path class="cls-3" d="M52.82,30.14c-2.23-1.4-4.46-2.79-6.7-4.19.89-.05,1.61-.44,1.24-1.41-.45-1.14-1.55-1.43-2.71-1.41l-.35.03s-.36,0-.36,0c-.48-.84-1.27-1.04-2.15-1.03,0,0,0,.02,0,.02,1.21-7.16,2.6-8.33,9.33-6.71,4.87,1.16,10.1.24,14.7,2.73.7,2.11-3.76,1.81-2.17,3.49,4.29,4.54,1.98,5.17-2.54,5.62-1.66.16-2.53,1.8-5.04.39-3.04-1.71-1.39,1.48-1.33,2.76-.64-.1-1.27-.2-1.91-.29Z"/>
      <path class="cls-10" d="M107.67,49.2c1.03-3.36,2.06-6.71,3.1-10.07.33-.67.66-1.33,1-2,3.06-2.72,2.79-3.36-2.04-5.01-.82-.5-1.24-1.44-.68-2.06,1.18-1.32,9.97-.4,11.75,1.06-.1.89.31,2.11-.77,2.47-1.13.38-1.03-.81-1.24-1.49l.24-.39c-.08.13-.15.27-.23.4-4.97.11-3.08,4.37-3.4,6.6-.35,2.4,2.54,2.71,4.47,2.28,2.95-.66,5.79.08,8.68.12,1.74.02,2.29.94,2.19,2.5-4.28.53-8.56,1.06-12.84,1.59-2.73.62-7.78-2.66-6.88,4.09,0,.3-.05.59-.17.86-1-.03-2-.05-3-.08-.05-.29-.1-.59-.16-.88Z"/>
      <path class="cls-5" d="M28.9,65.25c-3.94,1.01-3.56-3.26-6.11-4.14,1.61-1.4,2.61-.51,3.69-.36,1.09.15,2.23-1.37,1.78-1.6-4.24-2.2-.12-4.73-.44-7.02,2,.29,4.01.58,6.01.87,1.94,2.25,4.7.36,6.89,1.35,1.54,3.1.74,5.46-2.38,6.88-3.11,1.42-5.44,4.68-9.44,4.02Z"/>
      <path class="cls-10" d="M54.73,30.44c-.06-1.28-1.72-4.47,1.33-2.76,2.52,1.41,3.38-.22,5.04-.39,4.53-.45,6.84-1.08,2.54-5.62-1.59-1.68,2.86-1.38,2.17-3.49,1.09.04,2.25-.15,3.01.94.25.59.34,1.51.77,1.71,3.75,1.77,3.59,3.24-.05,5.01-1.74.84-3.33,2.15-3.71,4.32,0,0,.03-.03.03-.03-2.75.35-5.95.05-5.5,4.9-1.9-2.15-3.14-3.94-5.54-3.93-.06-.22-.08-.44-.08-.67Z"/>
      <path class="cls-2" d="M30.58,41.27c1.02-3.63,5.48-1.62,7.11-4.37,2.47-4.15,4.74.79,7.15.25,2.03,3.73-3.36,4.54-2.99,7.61.02.17.01.34-.02.5-4.44.62-7.71-2.04-11.24-4Z"/>
      <path class="cls-3" d="M65.82,30.16c.38-2.17,1.98-3.48,3.71-4.32,3.65-1.77,3.81-3.24.05-5.01-.43-.2-.52-1.12-.77-1.71,3.54.59,7.07,1.5,10.63,1.66,3.38.15,1.91,1.74,1.42,3.22-3.61,2.18-9.26.46-11.18,5.86-1.29.1-2.57.2-3.86.3Z"/>
      <path class="cls-3" d="M104.78,28.12c-3.82.16-8.31,4.19-11.06-1.89,1.46-.76,2.84-1.74,4.33.1.82,1,1.84.27,2.61-.29,1.31-.95.37-1.56-.41-2.22-.73-.63-1.76-1.7-.44-2.27,2.01-.86,4.24-.93,5.48,1.54.43.85,2.64,2.02-.06,2.66-2.33.55-.39,1.58-.46,2.38Z"/>
      <path class="cls-3" d="M25.23,20.51c2.1-2.09,4.18-1.29,6.06-1.33,1.38-.03,3.03-.61,4.1.86.46.63.17,1.46-.41,1.69-1.64.65-3.41,2.04-5.11,1.05-1.38-.8-2.76-1.57-4.63-2.28Z"/>
      <path class="cls-3" d="M90.68,24.13c-.27.02-.54.04-.8.03-.32-1.51-2.52-1.63-2.58-3.71,2.68-.14,5.56,1.6,7.94-.81.46-.46,1.22.11,1.37.89.17.87.13,1.84-.69,2.21-1.65.74-3.32,1.59-5.24,1.38Z"/>
      <path class="cls-11" d="M109.72,32.13c4.84,1.64,5.1,2.29,2.04,5.01-1.48-1.34-2.16-3.01-2.04-5.01Z"/>
      <path class="cls-4" d="M96.51,76.48c1.94-3.37-3.64-3.53-2.76-6.44,3.1-2.75,5.11,2.52,8.03,1.08,2.81,1.65,5.63,1.19,9.17.27-2.9-2.49-5.42-2.31-8.06-1.3.17-2.68-1.98-3.22-3.78-3.81-2-.65-4.12-.9-6.18-1.33-.16-.17-.3-.37-.41-.58,1.43-2.35,3.74-2.95,6.25-3.18.97.2,1.94.4,2.91.6,1.02,4.05,3.46,5,7.13,3.27,1.31.42,2.61.84,3.92,1.26.32,1.89-.26,4.02,3.1,4.13,2.3.07,2.52,3.05,2.66,4.82.23,2.91-2.19.57-3.28,1.14-1.32.69-2.8,1.1-3.44,2.64h-2.94c-4.4.53-8.29-1.32-12.32-2.58Z"/>
      <path class="cls-10" d="M108.83,79.06c.98,0,1.96,0,2.94,0,4.36.14,8.77.75,13.05.26,3.49-.39,1.9,1.47,1.92,2.79-.32.6-.65,1.19-.97,1.78-5.29-.91-10.39-2.95-15.98-2.12-1.46.22-.99-1.65-.96-2.72Z"/>
      <path class="cls-10" d="M82.07,88.9c-1.77.28-3.8,2-4.93-1.03-.61-1.62-1.39-.24-2.21-.11-3.1.47-6.27.9-9.21-.78.35-.83.69-1.67,1.04-2.5.64-.04,1.29-.08,1.93-.12.34.44.64,1.24,1.01,1.27,1.05.1.96-.87,1.06-1.59.35,0,.69-.01,1.04-.02,1.46,1.62,1.79.46,2.05-.84,3.62.64,6.81,1.9,8.22,5.72Z"/>
      <path class="cls-2" d="M66.75,84.47c-.35.83-.69,1.67-1.04,2.5-.95-.02-1.89-.04-2.84-.06-.83-1.03-1.98-.84-3.09-.81-3.21,0-5.89-1.54-8.68-3.14,4.79.4,9.43.33,13.77-1.82.63,1.11,1.25,2.22,1.87,3.32Z"/>
      <path class="cls-2" d="M68.11,72.28c.18-1.42,1.07-2.01,2.41-2.07.62,1.13,1.19,2.27,1.85,3.37.84,1.4,5.01.95,2.29,4.35-2.12,2.65-4.35,3.02-6.98.86,0,0,.1-.2.1-.21,0-.52,0-1.03,0-1.54,0,0-.03.03-.03.03,1.16-.34,3.48.56,3.25-.93-.17-1.14.23-4.28-2.88-3.85Z"/>
      <path class="cls-2" d="M77.64,70.32c2.45-.07,4.37,1.09,6.13,2.63-.47,2.41-2.63,4.31-4.23,3.4-1.32-.75-4.11-3.16-1.91-6.03ZM81.05,73.51c-.13-.05-.27-.12-.4-.12-.04,0-.08.21-.13.32.13.04.27.12.4.12.05,0,.09-.2.13-.31Z"/>
      <path class="cls-11" d="M70.75,84.04c-.1.72-.01,1.68-1.06,1.59-.37-.03-.68-.83-1.01-1.27.69-.1,1.38-.21,2.07-.32Z"/>
      <path class="cls-11" d="M73.85,83.18c-.27,1.3-.59,2.45-2.05.84.68-.28,1.37-.56,2.05-.84Z"/>
      <path class="cls-4" d="M96.92,4.2c.57,0,1.14,0,1.71.01.5,2.31,2.38,1.83,3.97,1.97,1.87.16,3.85-.48,5.97.62-4.35,3.47-8.9,4.16-13.83,3.34-1.1-.18-2.55.17-2.72-1.43-.14-1.3,1.01-1.5,2.02-1.63,1.71-.21,2.7-1.13,2.87-2.87Z"/>
      <path class="cls-4" d="M87.94,8.2c.61-.03,1.22-.05,1.83-.08-.9,3-2.94,3.21-5.55,2.56.31-2.68,2.74-1.37,3.72-2.48Z"/>
      <path class="cls-5" d="M101.69,61.8c-.97-.2-1.94-.4-2.91-.6-3.78-6.7-10.78-6.54-17.02-7.99-2.63-1.56-5.62-1.87-8.54-2.4-1.89-1.96-3.67-4-4.49-6.68.24-1.26.98-2.61,2.21-1.66,1.83,1.42,3.36.73,4.97.1,1.52-.6,2.37-.37,3.08,1.22.99,2.22,2.48,2.29,4.15.55,1.07-1.11,2.34-1.51,3.22.09.82,1.49.46,2.51-1.58,2.39-.99-.06-.92.78-.61,1.38.57,1.08,1.74.63,2.64.89.11.07.22.14.33.21-.12-.06-.24-.13-.35-.19,1.41-3.25,6.3-1.78,7.4-5.46,3.12,4.1,4.77-1.85,6.89-1.08,2.32.85,2.71-1.29,3.97-1.62,2.72,2.26-2.47,6.8,2.64,8.25.06.29.12.58.16.88.54,2.21,1.08,4.42,1.89,7.75,1.43-3.25,1.03-5.49,1.1-7.67.12-.27.17-.56.17-.86,2.88-.38,6.44.41,6.88-4.08,4.28-.53,8.56-1.06,12.84-1.59,1.45.24,3.07,1,4.32.6,1.98-.63,1.89.28,1.74,1.52-.56,4.59.98,8.62,3.21,12.48-.66,3.33-3.23,5.4-5.23,7.83-3.87-.19-6.45,3.2-10.1,3.61-4.08-.74-8.17-1.43-11.92-3.34-1.31-.42-2.61-.84-3.92-1.26-1.82-2.3-4.34-3.08-7.13-3.27Z"/>
      <path class="cls-10" d="M73.78,99.17c.66-1.31,1.88-1.09,3.02-1.1,3.73-.46,1.89,3.25,4.73,4.83-4.28,0-6.29-1.34-7.75-3.72Z"/>
      <path class="cls-10" d="M63.76,99.98c1.67-3.09,3.8-2.45,6.05-.73-1.91,1.13-3.82,2.25-6.05.73Z"/>
      <path class="cls-10" d="M17.8,53.09c-.38,4.27-2.07,7.01-6.99,5.99.35-1.65.69-3.3,1.04-4.96,1.99-.34,3.97-.69,5.96-1.03Z"/>
      <path class="cls-11" d="M4.83,52.1c4.09,2.29,1.25,5.63,1.81,8.94-3.66-2.84-1.87-6.02-1.81-8.94,0,0,0,0,0,0Z"/>
      <path class="cls-3" d="M112.74,66.32c3.75,1.92,7.84,2.61,11.92,3.34-.17,1.77,1.48,2.4,2.25,3.59-.81,2.58.27,3.79,2.84,3.93.02.82.24,1.53,1.06,1.92-1.2,1.2-2.02,2.92-4.05,3.01-.02-1.32,1.57-3.18-1.92-2.79-4.29.48-8.7-.13-13.05-.26.64-1.55,2.12-1.95,3.44-2.64,1.09-.57,3.5,1.77,3.28-1.14-.14-1.77-.36-4.74-2.66-4.82-3.36-.11-2.78-2.24-3.1-4.13Z"/>
      <path class="cls-10" d="M129.74,77.18c-2.57-.14-3.65-1.35-2.84-3.93,3.65.1,6.85-.77,8.95-4.08.77-.22,1.86-1.45,2.03.49.21,2.39-.37,4.54-2.25,6.19-1.96.44-3.92.89-5.88,1.33Z"/>
      <path class="cls-10" d="M135.85,69.17c-2.1,3.3-5.3,4.17-8.95,4.08-.77-1.18-2.42-1.81-2.25-3.59,3.65-.41,6.23-3.81,10.1-3.61.05,1.15-.13,2.39,1.11,3.12Z"/>
      <path class="cls-7" d="M11.81,51.09c.12-.43.24-.87.37-1.3l.38.24c-.24.36-.49.71-.73,1.07,0,0-.01-.01-.01-.01Z"/>
      <path class="cls-8" d="M17.98,50.27c-.04.26-.08.53-.11.79-.19-.16-.38-.32-.56-.48l.67-.31Z"/>
      <path class="cls-4" d="M12.57,84.13c.78.1,1.86-.09,1.73,1.12-.04.35-1,.61-1.54.91-.06-.68-.13-1.35-.19-2.03Z"/>
      <path class="cls-5" d="M21.98,73.9c-.06-.92-.11-1.83-.17-2.75,1.4.16,2.61.49,4.22-.06,4.14-1.4,8.15-4.03,12.98-2.08,2.18.87,4.08-.59,5.69-2.1,2.22,1.12,3.53-4.47,6.09-.82-.12.05-.27.08-.37.16-.06.05-.05.18-.06.28.15-.14.29-.29.44-.43,2.64.68,4.46.43,3.51-3.04-.07-.9-.13-1.8-.2-2.69,1.27-.23,2.75-.15,2.85-2.02,3.45,2.29,8.97.62,10.95,5.72-.18.27-.3.56-.34.89-2.51,3.29-2.53,8.99-8.59,8.82-2.77,6.28-7.59,2.67-11.71,2.44,1.08-3.59-1.56-5.82-5.98-4.65-5.41,1.43-10.79,2.8-16.45,2.48-.67.04-1.34.08-2.01.12-.27-.13-.55-.21-.85-.25Z"/>
      <path class="cls-11" d="M44.72,66.91c-1.61,1.51-3.52,2.97-5.69,2.1-4.83-1.94-8.84.68-12.98,2.08-1.61.55-2.82.22-4.22.06,1.34-1.42,2.22-3.3,4.84-2.96,1.84.25,2.34-1.31,2.25-2.95,3.99.65,6.33-2.6,9.44-4.02,3.12-1.42,3.92-3.79,2.38-6.88,3.38-.23,5.94,1.88,8.1,6.68-.16,2.8-5.1,2.27-4.1,5.88Z"/>
      <path class="cls-11" d="M81.76,53.21c6.24,1.45,13.24,1.29,17.02,7.99-2.51.23-4.83.83-6.25,3.18-5.55-1.7-11.1-3.4-16.65-5.11,1.27-3.96,4.08.09,5.88-1.13.16.12.31.25.47.38-.13-.15-.26-.31-.38-.46-.03-1.62-.06-3.23-.08-4.85Z"/>
      <path class="cls-2" d="M54.73,30.44c0,.23.02.45.08.67.34.99.69,1.98,1.03,2.98-.61.16-1.36.12-1.49.95-.02.16.38.56.54.54.83-.13.81-.87.94-1.49,2.58.21,2.8,3.31,4.94,4.05.02,1.96,2.32,3.01,2.04,5.1-1.72,1.94-1.01,3.86.05,5.78-1.84-.25-3.68-.48-5.07-1.92.32-1.09.76-2.17.92-3.28.11-.77-.02-1.45-1.35-1.09-5.08,1.35-5.47,1.09-7.13-3.1-.11-.27-.87-.28-1.34-.4,0-3.59,4.78-5.11,3.91-9.07.64.1,1.27.2,1.91.29Z"/>
      <path class="cls-5" d="M75.88,59.27c5.55,1.7,11.1,3.4,16.65,5.11.11.21.25.4.41.58-.74.99-.46,2.99-2.93,2.03-3.71-1.44-7.65-1.03-11.51-.39-4.39-.57-6.68-2.7-5.48-7.4,0,0,.41.02.41.02l.38-.15c.69.07,1.38.14,2.07.21Z"/>
      <path class="cls-10" d="M24.84,74.03c5.66.32,11.04-1.05,16.45-2.48,4.42-1.17,7.05,1.06,5.98,4.65-.42-.01-.84-.03-1.26-.04-2.24-2.18-6.83-1.67-9.22,1.03-.31.54-.88,1.56-.91,1.55-3.55-1.88-8.12-1.42-11.05-4.72Z"/>
      <path class="cls-2" d="M78.49,66.6c3.87-.64,7.8-1.05,11.51.39,2.47.96,2.19-1.05,2.93-2.03,2.07.43,4.19.68,6.18,1.33,1.81.58,3.95,1.13,3.78,3.81-.37.34-.74.69-1.1,1.03-2.92,1.43-4.94-3.83-8.03-1.08-5.05-1.32-10.77.33-15.27-3.44Z"/>
      <path class="cls-5" d="M48.9,39.21c.46.13,1.23.14,1.34.4,1.66,4.19,2.05,4.45,7.13,3.1,1.33-.35,1.46.32,1.35,1.09-.15,1.12-.6,2.19-.92,3.28-5.32-.78-10.64-1.55-15.96-2.33-.36-3.07,5.03-3.89,2.99-7.61,1.65.12,1.87,3.04,4.07,2.07Z"/>
      <path class="cls-10" d="M62.81,43.23c.28-2.08-2.02-3.13-2.04-5.1.68,0,1.35-.01,2.03-.02,2.18,1.81,3.33,4.62,5.92,6.02.82,2.68,2.6,4.72,4.49,6.68-2.51-.32-5.27.63-7.45-1.43,1.75-3.36-.83-4.65-2.95-6.15Z"/>
      <path class="cls-2" d="M44.72,66.91c-1-3.61,3.94-3.08,4.1-5.88.66.06,1.33.12,1.99.19.67,1.56,1.96,1.94,3.51,1.84.96,3.47-.87,3.72-3.51,3.04h0c-2.56-3.66-3.87,1.94-6.09.82Z"/>
      <path class="cls-10" d="M21.98,73.9c.3.04.58.12.85.25-1.76,2.66-3.97,3.75-7,2.02.57-4.76,3.55-3.01,6.15-2.27Z"/>
      <path class="cls-11" d="M62.81,43.23c2.12,1.51,4.7,2.79,2.95,6.15-.96-.12-1.93-.25-2.89-.37-1.07-1.92-1.78-3.84-.05-5.78Z"/>
      <path class="cls-5" d="M36.8,77.19c2.39-2.7,6.98-3.22,9.22-1.03-3.07.34-6.14.69-9.22,1.03Z"/>
      <path class="cls-11" d="M54.31,63.06c-1.54.1-2.84-.28-3.51-1.84,0-1.25,0-2.51,0-4.17,1.23.54,2.24.98,3.25,1.41.02.63.04,1.27.06,1.9.07.9.13,1.8.2,2.69Z"/>
      <path class="cls-5" d="M68.11,72.28c3.11-.42,2.7,2.71,2.88,3.85.23,1.49-2.09.59-3.25.93.12-1.59.25-3.19.37-4.78Z"/>
      <path class="cls-2" d="M54.12,60.36c-.02-.64-.04-1.27-.06-1.9.97-.04,1.94-.08,2.91-.12-.1,1.87-1.58,1.79-2.85,2.02Z"/>
      <path class="cls-10" d="M59.78,86.11c1.11-.03,2.26-.22,3.09.81-1.26.6-2.71,1.94-3.09-.81Z"/>
      <path class="cls-10" d="M73.8,59.06l-.38.15s-.41-.02-.41-.02c-.71-.41-1.4-1.13-.39-1.59.89-.4,1.05.72,1.18,1.46Z"/>
      <path class="cls-8" d="M67.57,64.95c.04-.32.16-.62.34-.89.36.17.71.34,1.07.51-.47.12-.94.25-1.41.37Z"/>
      <path class="cls-1" d="M67.77,77.03c0,.51,0,1.03,0,1.54-.72-.51-1.65-1.02,0-1.54Z"/>
      <path class="cls-3" d="M62.8,38.11c-.68,0-1.35.01-2.03.02-2.15-.74-2.36-3.84-4.94-4.05h0c-.34-.99-.69-1.98-1.03-2.98,2.4,0,3.64,1.78,5.54,3.93-.45-4.85,2.76-4.55,5.5-4.9-.51,2.85-5.33,4.06-3.04,7.97Z"/>
      <path class="cls-1" d="M93.14,40.85c.12,0,.29-.02.34.04.08.11.14.31.1.42-.2.45-.43.44-.56-.04-.03-.12.08-.27.13-.41Z"/>
      <path class="cls-10" d="M75.72,32.03c.14-1.03.47-1.89,1.75-1.81.15,0,.42.16.41.21-.2,1.1-1.29,1.21-2,1.75,0,0-.16-.15-.16-.15Z"/>
      <path class="cls-4" d="M44.65,23.14c1.16-.02,2.26.26,2.71,1.41.38.96-.35,1.36-1.24,1.41-.49-.94-.98-1.87-1.47-2.81Z"/>
      <path class="cls-4" d="M41.78,22.14c.89-.01,1.67.19,2.15,1.03-.9.04-1.72-.09-2.15-1.03Z"/>
      <path class="cls-11" d="M117.87,45.21c-.44,4.49-4.01,3.7-6.88,4.08-.9-6.74,4.15-3.46,6.88-4.08Z"/>
      <path class="cls-11" d="M110.83,50.15c-.08,2.18.32,4.42-1.1,7.67-.81-3.33-1.35-5.54-1.89-7.75,1,.03,2,.05,3,.08Z"/>
      <path class="cls-9" d="M118.78,32.12c.08-.13.15-.27.23-.4l-.24.39s0,0,0,0Z"/>
      <path class="cls-3" d="M101.79,71.12c.37-.34.74-.69,1.1-1.03,2.64-1.01,5.17-1.18,8.06,1.3-3.54.91-6.36,1.38-9.17-.27Z"/>
      <path class="cls-3" d="M101.69,61.8c2.79.19,5.31.97,7.13,3.27-3.67,1.73-6.11.78-7.13-3.27Z"/>
      <path class="cls-1" d="M81.05,73.51c-.04.11-.08.31-.13.31-.13,0-.26-.07-.4-.12.04-.11.08-.32.13-.32.13,0,.27.08.4.12Z"/>
      <path class="cls-9" d="M86.78,49.11c.12.06.24.13.35.19-.11-.07-.22-.14-.33-.21,0,0-.02.02-.02.02Z"/>
      <path class="cls-9" d="M50.81,66.09c-.15.14-.29.29-.44.43.02-.1,0-.23.06-.28.1-.08.24-.11.37-.16,0,0,0,0,0,0Z"/>
      <path class="cls-6" d="M81.84,58.06c.13.15.26.31.38.46-.16-.13-.31-.25-.47-.38,0,0,.08-.08.08-.08Z"/>
      <path class="cls-8" d="M55.83,34.08c-.14.62-.12,1.36-.94,1.49-.16.03-.57-.38-.54-.54.12-.83.88-.8,1.49-.95,0,0,0,0,0,0Z"/>
    </g>
  </g>
</svg>