<?xml version="1.0" encoding="UTF-8"?>
<svg id="Layer_2" xmlns="http://www.w3.org/2000/svg" viewBox="0 0 140.2 105.62">
  <defs>
    <style>
      .cls-1 {
        fill: #506b2b;
      }

      .cls-2 {
        fill: #a6bc88;
      }

      .cls-3 {
        fill: #c3d2b0;
      }

      .cls-4 {
        fill: #35481d;
      }

      .cls-5 {
        fill: #d2d2cf;
      }

      .cls-6 {
        fill: #e1e2e2;
      }

      .cls-7 {
        fill: #bcbbbc;
      }

      .cls-8 {
        fill: #9f9e9d;
      }

      .cls-9 {
        fill: #88a561;
      }

      .cls-10 {
        fill: #6a8f39;
      }
    </style>
  </defs>
  <g id="Layer_2-2" data-name="Layer_2">
    <g>
      <path class="cls-1" d="M47.01,103.65c-7.91,1.72-15.82,3.05-23.86.74.43-2.42-3.41-3.25-2.85-3.88,2.54-2.89-1-3.92-1.3-5.83,1.04-.74,2.83-1.23.98-2.93,2.72-2.73,7.36-3.6,7.74-8.92,5.43,4.34,9.03,8.82,7.54,16.65,5.28-4.61-.34-8.61.35-12.38,3.05.02,4.77,1.6,5.86,3.95,2.08-3.44-1.71-5.08-2.27-8.19,1.89.48,3.71-.78,4.84.61,1.28,1.57,2.48,2.31,4.1.99,1.68-1.38,1.1-3.49.69-5.14-.64-2.56-2.53-.7-3.63-.38-1.78.52-3.27.79-4.34-.99-.97-1.61-1.53-3.32.09-4.94.34-.34,1.74-.72.81-1.04-4.59-1.58-2.58-7.42-6.39-9.43-.95-.5-1.07-1.67-.27-2.61.85-1.01,1.39.14,2.08.34,2.48.72,5.34,2.22,4.92-2.63-.25-2.93,3.12-.7,3.85-2.28-2.49-5.72-7.1-1.28-8.37-.51-3.8,2.31-3.66-1.83-5.49-2.24,1.16-2.34-2.46-4.26-.19-7.11,2.04-2.56,5.92-4.37,5.14-8.69,3.5-.64,5.6,3.05,8.95,2.9.99.38,1.98.75,2.97,1.13.46,2.41-1.02,4.51-1.07,6.83-.23.4-.47.79-.67,1.2-.02.04.23.2.35.3.2-.42.41-.84.61-1.25,1.95-.27,3.53.41,4.83,1.85-.12.05-.25.09-.34.17-.06.05-.05.17-.07.26.14-.14.28-.28.42-.42,2.6-.19,6.31-1.62,4.02,3.64-.24.55-.41,1.63-.16,1.81,3.42,2.41,4.24,6.05,4.5,10.02,2.45-.75,4.38-1.89,6.63-1.49.1.74.09,1.57,1.17,1.54.11,0,.31-.19.31-.31.07-1.09-.78-1.08-1.5-1.23-.21-1.51-.74-2.87-1.87-3.94-.44-.41-1.14-.97-.05-1.34,6.86-2.31,3.19-5.24.12-7.88,3.51-2.37,5.29,1.52,7.95,1.43-.3,1.87-.8,3.38-2.63,4.64-1.11.77-2.1,3.51-1.56,4.54,1.32,2.52,6.84,1.38,8.57-1.53,3.47-5.83,5.22-6.1,9.67-1.29-1.71.73-4.79-.11-4.14,3.31l-.1.1c-1.28.09-2.55.19-3.19,1.67,4.67,2.91,9.92,3.56,15.14,4.29.93,2.65.89,5.31.09,7.97-1.27-.95-2.02-2.32-1.81-3.81.46-3.18-1.44-2.41-2.86-1.69-3.99,2.01-4.33,4.02-1.33,6.51-.35.32-.7.64-1.06.95-.12.15-.25.3-.38.46.15-.12.31-.25.46-.37.32-.35.64-.7.96-1.05,2.07-.34,3.71.36,4.94,2.04.88,5.62,1.29,11.28,1.03,16.97-1.07.8-1.57,2.05-3.64,1.43-4.03-1.2-8.27-1.72-12.62-1.55,1.75-4.68,1.75-4.6-2.55-4.3-.83.06-1.71-.79-2.58-1.18-1.03-.46-1.98-1.15-2.89.38-3.45,5.77-8.54,4.69-13.7,3.12l1.04-1.91c.4-.24,1.64.31,1.01-.83-.25-.46-1.23-1.22-1.99-.19-.36.02-.72.04-1.08.06h.01c-.28-1.2.79-2.84-1.37-3.7.16,1.73-.99,2.78-1.55,4.1-.84,1.3-3.06,1.42-2.97,3.51l-.11.09c-2.28-3.18-4.46.25-6.7.11-.43-.68-.76-1.58-1.74-1.42-.18.03-.42,1.18-.24,1.68.43,1.21,1.08,2.33,1.65,3.49,2.31.89,2.15,3.29,3.07,5.03ZM81.01,67.73c.49,2.16-2.42,2.46-2.52,4.74,1.68-.32,3.24-.43,4.64-.96,1.03-.39,1.94,2.19,2.69.08.49-1.37-1.14-1.82-1.75-2.73-.76-1.14-1.87-1.21-3.07-1.13.05-1.42-1.04-2.02-2.02-2.6-.91-.53-1.19-3.23-2.81-1.23-.82,1.01-2.99,1.36-2.27,3.41.63,1.8,2.38.68,3.2,1.14,1.8,1.02,2.56-1.02,3.91-.73ZM56.09,75.48c2.8,2.66,1.6,4.86.42,6.65-1.25,1.9-.46,2.19,1.1,2.5,4.6.93,1.56-3.2,2.88-4.72,1.67-1.91.51-4.4-4.41-4.43ZM84.93,84.14c-1-2.7-4.61-.3-6.1-2.47-.57-.83-1.48-.56-2.06.18-.29.36-.49.87-.52,1.33-.09,1.12.68,2.36,1.5,2.17,2.42-.57,4.69.4,7.03.16.07,0,.08-.61.16-1.37ZM61.92,74.47c2.14-.18,3.86,2.21,5.18.26,1.51-2.23-1.75-2.75-2.21-4.75-1.06,1.61-1.82,2.76-2.97,4.5ZM64.62,84.56c1.29-2.61,1.75-3.79,2.43-4.82.5-.75.93-1.41.12-2.07-1.08-.88-1.72.25-2.47.72-2.69,1.67-.31,3.16-.07,6.17ZM59.78,71.77c-1.32-1.7,2.81-3.37-.05-4.84-.47-.24-1.64-.1-1.83.24-1.18,2.04.84,3.14,1.89,4.6ZM44.52,62.68c1.56.82,2.93,2.71,5.76.98-2.26-.88-3.65-2.25-5.76-.98ZM50.58,58.2c.32-.56.62-.94.78-1.37.22-.57-.13-.93-.66-.97-.76-.06-1.24.27-.94,1.1.15.4.48.74.82,1.24ZM53.63,52.11c-.23.6-.55,1.02-.47,1.34.09.35.54.62.83.92.22-.34.65-.71.6-1.01-.06-.38-.51-.7-.96-1.25ZM54.29,58.58c-.08.56-.22,1.02-.18,1.45.03.28-.04,1.25.69.49.25-.26.15-.91.1-1.37-.02-.17-.33-.32-.62-.57ZM46.71,58.45c-.26-.13-.53-.26-.79-.39-.02.26-.07.53-.03.78.02.1.35.25.37.23.17-.18.3-.4.44-.62ZM57.67,62.12c.02.11.01.27.08.32.1.07.26.06.39.08-.04-.18-.07-.36-.11-.55-.12.05-.24.1-.36.14Z"/>
      <path class="cls-1" d="M101.34.98c8.26-2.84,14.61.88,20.14,6.32,7.98,7.86,14.5,16.81,17.74,27.7.67,2.26,2.58,5.48-1.92,6.89-1.41.44.02,1.45.68,2.07,1.79,1.67.11,2.14-.99,2.8-.58-.51-1.2-1.46-1.74-1.42-.79.06-1.25,1.06-.93,1.91,1.42,3.83-1.14,5.23-3.89,6.55-5.84-1.54-7.71-7.28-11.54-10.93,1.45-3.78,5.95-5.06,7.36-8.92.07-.19,1.62-.1,2.3.24,2.53,1.25,2.5,1.31,4.14-1.12-4.1-1.05-8.32-2.2-11.63,2.02-.4.51-1.64.8-2.3.59-3.61-1.15-4.84.94-5.59,3.83-.87-2.83-2.77-4.79-5.25-6.28-2.6-1.57-4.74-3.57-6-6.4.77-.14,1.88-.07,1.78-1.18-.39-4.35,2.22-3.15,4.55-2.57.92.23,1.83.46,2.75.69.33.34.66.67.99,1.01,0,.83,0,1.66-.01,2.49,0,1.04.09,2.1,1.38,2.25,1.06.12,2.01-.37,2.37-1.42.38-1.12.55-2.44-.81-3-.87-.36-1.95-.23-2.93-.31-.34-.33-.67-.66-1.01-.99,1.13-3.94.07-8.01-3.44-9.12-2.84-.89-.86,2.73-1.25,4.28-.04.15-.17.28-.26.42-1.28-.24-2.55-.48-3.83-.72.07-5.9-1.65-11.72-.86-17.66ZM113.98,13.78c-.1-1.02-.29-2.03-1.65-1.85-.32.04-.87.7-.8.9.42,1.24,1.59.73,2.47.93.47,1.55-1.22,3.01-.16,4.81,1.48-1,4.24-.05,4.54-1.86.39-2.31-2.69-1.65-3.95-2.75-.11-.1-.3-.12-.45-.18Z"/>
      <path class="cls-1" d="M133.48,68.53c-.3.78-.59,1.56-.89,2.34-3.52-.62-5.46.86-5.56,4.42-.07,2.26-.6,4.38-2.18,5.91-2.23,2.16-3.41,4.78-4.49,7.59-1.37,3.56-2.41,7.83-8.02,5.42-.48-.21-1.56.99-2.36,1.53l.05-.05c-1.67-.72-4.63-1.45-4.96-.51-1.45,4.1-4.66,1.92-7.02,2.55v-13.97c3.32-.33,6.72.89,9.57.94,5.65.09,2.85,2.71,2.8,4.8,0,.21.34.44.59.72,1.24-.66,2.27-1.91,3.89-1.59,0,.88-1.24,1.74-.13,2.59.22.17.97-.04,1.25-.31,1.14-1.07,1.22-2.22-.05-3.3,0-.33,0-.66,0-.99-.09-3.18,1.77-8.26-4.89-5.05-.68.33-.96-.08-.98-.51-.2-5.8-4.19-2.05-6.06-2.01-4.31.09-4.32.4-3.19-3.65.21-.76-.6-1.8-.93-2.71-1.93-5.62,2.21-2.65,4.09-2.89,1.12.54.92,4.41,2.04,2.38,1.88-3.4,4.07-.68,5.87-1.56,2.38-1.16,8.77,3.78,6.4-4.39-.51-1.76,3.04.21,1.92-2.35-2.39.09-4.54-1.71-7.15-1.19-.53-2.17-2.73-2.62-4.08-3.94-1.7-.93-2.29-2.23-1.5-4.1.39-.92.04-1.83-1.02-1.5-1.2.37-2.05,1.93-1.23,2.71,1.24,1.19-2.89,4.34,1.57,3.9l.03,2.86c-2.09-1.1-4.14-2.35-6.66-2.03-.08-2.63-.15-5.26-.23-7.89,3,.18,5.71-1.03,5.65-4.03-.07-3.59-3.69-1.07-5.45-2.08-.62-2.48.77-2.97,2.8-2.82,0,0,0-.02,0-.02.3.29.61.58.91.87,2.09.18,4.66,3.73,6.09-.85,5.03,4.51,10.25,8.82,15.01,13.59,2.98,2.98,7.92,5.05,6.63,10.77.62.13,1.24.26,1.86.4ZM102.06,58.51c.11-.08.22-.17.33-.25-.09-.1-.19-.2-.28-.31-.14.14-.28.28-.43.42.13.05.25.1.38.14Z"/>
      <path class="cls-4" d="M51.08,94.67c-.09-2.09,2.14-2.2,2.97-3.51.97-.13,1.95-.26,2.92-.39,0,0-.01,0-.01,0-.41,1.22-.42,2.3,1.03,2.87,5.16,1.57,10.25,2.65,13.7-3.12.91-1.53,1.87-.84,2.89-.38.87.39,1.75,1.24,2.58,1.18,4.3-.3,4.3-.38,2.55,4.3,4.35-.17,8.59.36,12.62,1.55,2.07.62,2.57-.63,3.64-1.43,0,.99,0,1.97,0,2.96-1.01.08-2.06.21-2.24,1.4-.02.15,1.34.51,2.06.77.01.57.02,1.14.03,1.7-7.28.26-14.54-.04-21.79-.72-.61-1.1-1.24-1.78-2.02-.12-8.3,1.14-16.64,1.61-25,1.93-.92-1.74-.76-4.14-3.07-5.03.11-1.25.22-2.5.33-3.75,2.23.15,4.41-3.28,6.7-.11.16.45.33.89.49,1.34.13-.1.37-.27.36-.29-.23-.39-.49-.76-.74-1.14ZM54.02,98.52c.12-.08.23-.16.35-.24-.1-.1-.26-.3-.28-.29-.17.1-.31.25-.45.39.13.05.26.09.38.14Z"/>
      <path class="cls-2" d="M133.48,68.53c-.62-.13-1.24-.26-1.86-.4,1.29-5.71-3.65-7.78-6.63-10.77-4.76-4.77-9.99-9.08-15.01-13.59-2.98-3.04-5.96-6.07-8.94-9.11-.47-.76-1.22-.91-2.03-.92-1.69-1.3-3.39-2.61-5.08-3.91-1.26-.76-2.3-1.96-3.92-2.02-3.65-2.67-5.09-7.8-10.04-9.03-.92-1.97-3.42-2.64-3.99-4.89,2.72-.09,1.87-4.58,5.05-4.1.65,2.41,1,5.02,3.86,6.02,0,0,.08.08.08.08.1,1.25.83,1.81,2.03,1.87,4.48,3.29,7.77,8.44,14,8.99l.49.1.5-.03-.06-.02c1.26,2.83,3.41,4.83,6,6.4,2.48,1.49,4.37,3.46,5.24,6.28,1.73,1.42,3.21,3.25,5.71,3.36,3.84,3.66,5.7,9.39,11.54,10.93,1.15,2.08.54,5.19,3.61,6.15,3.65,3.11-.42,5.73-.55,8.6Z"/>
      <path class="cls-9" d="M48.09,10.91c5.96-1.33,10.7,2.26,15.92,3.93-.48,1.63,1.8,5.2-1.31,4.61-3.69-.69-3.64,2.65-5.71,3.33,0,0,.02.01.02.01-.18-1.05.31-2.64-1.32-2.74-2.06-.12-1.47,1.68-1.64,2.87.19,2.81.32,5.59-3.01,6.85-.07.66.11,1.61-.26,1.92-2.2,1.83-6.7,4.78-7.11,2.01-.74-4.98-5.12-.28-5.52-3.28-.02-.16-.13-.36-.07-.48.98-2.2-1.12-4.92,1.33-6.93,1.82-1.5.74-3.36-.1-4.83-.7-1.22-3.58-2.3-.66-3.5,2.15-.88,5.05-4.46,7.38.09-.07.13-.15.26-.22.4.07-.13.15-.26.22-.4,3.8.39,2.3-2.08,2.07-3.85Z"/>
      <path class="cls-2" d="M48.09,10.91c.23,1.78,1.73,4.24-2.07,3.85h0c-2.33-4.54-5.23-.96-7.38-.09-2.92,1.19-.04,2.27.66,3.5.84,1.47,1.93,3.33.1,4.83-2.45,2.01-.35,4.73-1.33,6.93-.06.13.05.32.07.48.4,3,4.77-1.7,5.52,3.28.41,2.77,4.91-.17,7.11-2.01.36-.3.18-1.26.26-1.92.74.27,2.02.42,2.12.84.38,1.62,1.47,3.24.12,5.02-1.49,1.96-3.12,1.78-5.13,1.05-1.09-.39-2.49-1.74-3.49-.21-.71,1.08,1.15,1.31,1.44,2.21-.03.33-.06.66-.1,1-3.34.16-5.44-3.54-8.95-2.9,0,0-.15-.29-.15-.28-.14-.32-.38-.53-.72-.63.2-1.82-2.17-2.25-2.15-3.96-.95-1.69-2.6-.99-3.99-1.15-1.43-2.35-.65-7.36-6-5,1.28-8.64,13.92-16.65,24.07-14.85Z"/>
      <path class="cls-3" d="M24.03,25.76c5.36-2.37,4.58,2.64,6,5,0,0,0,0,0,0-1.83.01-3.8-2.12-5.45.22-1.21,1.72-.12,3.55.99,4.46,1.41,1.15.54,5.65,4.46,3.33,1.01,0,2.02-.01,3.02-.02-1.36,4.7-4.27,6.63-9.12,5.1.36-2.87.24-5.52-3.09-6.58-2.49,2.32-.79,4.39.2,6.49-.08.14-.16.28-.24.42.08-.14.16-.28.24-.43.71,0,1.41.02,2.12.02-1.8,2.9-3.21,5.93-3.92,9.32-.33,1.57-1.7,1.85-3.17,1.47.02-.23.04-.45.05-.68,1.57-1.55.4-3.29-.7-3.5-2.16-.4-2.01,1.94-2.58,3.33-1.67,2.36.21,4.11,1.04,6.04.42,1.41.86,2.82,1.26,4.23.24.86,1.16,2.07-.27,2.44-1.68.44-1.68-1.09-1.79-2.22-.08-.82-.05-1.64-.06-2.46-.8-1.64-1.47-3.35-2.44-4.88-.6-.94-.07-3.34-2.11-2.55-1.42.55-3.66,2.62-3.44,3.19,1.72,4.44-2.5,3.01-3.89,4.28,1.25-6.02,4.1-11.11,8.85-15.08,7.49,1.4,8.93.38,7.09-5.01-.16-.12-.32-.25-.48-.37.13.16.25.32.38.47-.39,2.87-1.87,1.25-3.08.75,1.78-6.56,7.06-11,10.13-16.79Z"/>
      <path class="cls-4" d="M98.03,97.74c2.36-.63,5.57,1.55,7.02-2.55.33-.94,3.3-.21,4.96.51.04,1.31.51,2.2,2.01,1.74.28-.09.65-.9.54-1.06-.64-.9-1.67-.6-2.59-.63.8-.54,1.88-1.73,2.36-1.53,5.61,2.41,6.66-1.86,8.02-5.42,1.08-2.81,2.26-5.43,4.49-7.59,1.57-1.52,2.11-3.65,2.18-5.91.11-3.56,2.05-5.04,5.56-4.42-1.2,8.97-3.71,17.43-9.4,24.71-2.78,3.56-6.37,5.72-10.79,6.55-1.88-.83-3.37-.38-4.45,1.37-.6-.03-1.21-.06-1.81-.1.29-.84.58-1.68.86-2.53-.78.15-1.58.22-2.33.47-1.02.34-1.6,1.12-1.74,2.21-.6-.07-1.19-.13-1.79-.2-.08-1.94-.06-3.96-2.9-3.79-.07-.61-.14-1.22-.21-1.84ZM108.46,98.72c-.47-.35-1.05-.88-1.73-1.26-.79-.44-1.2.18-1.37.79-.3,1.1.52,1.37,1.35,1.46.57.06,1.25.25,1.74-.99Z"/>
      <path class="cls-2" d="M1.14,61.79c1.39-1.26,5.61.17,3.89-4.28-.22-.58,2.02-2.64,3.44-3.19,2.04-.79,1.51,1.61,2.11,2.55.97,1.53,1.64,3.24,2.44,4.88-.82,0-1.67-.13-2.47,0-1.6.26-4.1-.97-4.31,1.85-.16,2.2,1.77,3.47,3.5,4.31.88.43,2.2-.06,3.33-.13.33.31.66.63.99.94h.01c-.04.35-.08.72-.12,1.08-3.49,1.59-4.42,3.57-.48,5.62,3.37,1.75,1.98,2.49-.42,3.29-.61-2.65-2.36-2.78-5.01-2.71,1.43,2.56,3.15,2.76,4.96,2.75.62,2.15-3.68,3.49-.98,5.97h0c-5.53.97-6.05-4.57-9-6.94-.02-1.14.04-2.26-.73-3.27-2.37-3.09-3.31-6.28-.94-9.91.41-.62-.13-1.86-.23-2.82Z"/>
      <path class="cls-2" d="M98.03,97.74c.07.61.14,1.22.21,1.84-.45,1.07-.89,2.13-1.34,3.2-.36-.07-.73-.14-1.09-.21-.01-.57-.02-1.14-.03-1.71.06-.72.12-1.45.19-2.17,0-.99,0-1.97,0-2.96.25-5.69-.16-11.35-1.03-16.97.07-1.12,2.23-1.49,1.07-3.04.8-2.67.84-5.33-.09-7.97,3-1.62,1.03-3.33.08-5.02-.38-1.35.5-2.99-.93-4.1-.04-.29-.07-.59-.06-.89.07-.15.15-.29.22-.44-.08.14-.16.28-.23.42-.32-.02-.64-.02-.96-.02v-.02c-.71-1.47-.22-2.06,1.37-1.98,1.47.08,2.6-.3,2.33-2.16-.22-4.61,1.05-9.2.28-13.82.33-2,.67-3.99,1-5.99.81.01,1.56.16,2.03.92-2.15,1.95-.43,3.27.86,4.46,1.49,1.37,2.44,2.69,1.08,4.64-2.03-.15-3.42.34-2.8,2.82-.07,2.04-.14,4.08-.21,6.11.08,2.63.15,5.26.23,7.89-1.8,2.83-2.05,5.08,1.84,6.41.88.3,3.31.53,1.95,2.81-1.87.24-6.02-2.74-4.09,2.89-3.66,3.18-1.23,7.38-1.85,11.07v13.97Z"/>
      <path class="cls-2" d="M84.88,15.82c-2.85-1-3.2-3.61-3.85-6.02,5.02-2.26,9.51-5.66,14.98-6.98,3.64,2.4,4.22,6.02,3.95,9.97-3.99-.34-7.94.94-11.96.13-2.04-.41-2.86,1.09-3.12,2.9Z"/>
      <path class="cls-2" d="M56.99,22.78c2.07-.68,2.02-4.02,5.71-3.33,3.12.58.83-2.99,1.31-4.61,3.85-2.07,7.98-.62,11.97-.93.57,2.25,3.07,2.93,3.99,4.89-1.5.17-3.19-.66-4.8,1.06,3.04,1.49,4.29,4.3,5.76,6.95-3.54.61-5.44-3.51-8.92-3.06l.02.02c-1.56-3.55-3.04-5.88-7.34-2.28-1.62,1.35-4.69,3.74-7.7,1.29Z"/>
      <path class="cls-2" d="M19.98,91.75c1.85,1.71.06,2.2-.98,2.93-2.73-1.21-6.14-4.37-6.15,2.16-3.31-1.02-4.93-3.31-5.06-6.72,3.28.56,6.48,1.06,3.8-4.04-.15-.3.29-.9.45-1.37,0,0,0,0,0,0,1.72-.38,3.04-.67,3.1,2.04.06,2.81,1.35,5.16,4.85,4.98Z"/>
      <path class="cls-9" d="M12.85,96.84c.01-6.53,3.42-3.37,6.15-2.16.31,1.91,3.85,2.94,1.3,5.83-.56.63,3.28,1.46,2.85,3.88-3.78.41-6.22-1.75-8.4-4.4.36-1.62-.27-2.66-1.83-3.17h-.07Z"/>
      <path class="cls-9" d="M12.04,84.72c-.16.46-.6,1.07-.45,1.37,2.68,5.1-.52,4.59-3.8,4.04-4.17-3.36-6.14-8.49-4.75-12.34,2.95,2.38,3.46,7.91,9,6.94Z"/>
      <path class="cls-4" d="M134.03,59.93c-3.07-.96-2.46-4.07-3.61-6.15,2.75-1.32,5.31-2.72,3.89-6.55-.32-.85.14-1.85.93-1.91.54-.04,1.16.91,1.74,1.42.05,4.63,1.22,9.51-2.96,13.18Z"/>
      <path class="cls-2" d="M99.96,12.79c.27-3.95-.31-7.57-3.95-9.97,1.44-1.59,3.61-1.06,5.34-1.84-.79,5.94.93,11.75.86,17.66-.39,1.48-.24,3.17-1.95,4.42-.08-1.23-.16-2.27-.23-3.32.72-1.67,1.92-3.36-.08-4.99,0-.65,0-1.3.01-1.96Z"/>
      <path class="cls-2" d="M17.08,41.69c1.84,5.4.41,6.42-7.09,5.01.37-2.26,1.82-3.5,3.9-4.16,1.21.5,2.69,2.12,3.08-.75l.1-.1Z"/>
      <path class="cls-1" d="M96.91,102.77c.45-1.07.89-2.13,1.34-3.2,2.84-.17,2.82,1.85,2.9,3.78-1.46.18-3,.91-4.24-.58Z"/>
      <path class="cls-1" d="M102.93,103.56c.14-1.09.71-1.87,1.74-2.21.75-.25,1.55-.32,2.33-.47-.29.84-.58,1.68-.86,2.53-1.07.05-2.14.1-3.2.15Z"/>
      <path class="cls-1" d="M107.95,103.5c1.08-1.75,2.57-2.21,4.45-1.37-1.17,1.47-2.71,1.76-4.45,1.37Z"/>
      <path class="cls-2" d="M12.92,96.83c1.56.51,2.19,1.55,1.83,3.17-1.64-.46-1.81-1.77-1.83-3.17Z"/>
      <path class="cls-1" d="M72.01,101.72c.77-1.67,1.41-.98,2.02.12-.71.57-1.4.97-2.02-.12Z"/>
      <path class="cls-10" d="M19.98,91.75c-3.5.18-4.79-2.17-4.85-4.98-.06-2.71-1.38-2.42-3.1-2.04-2.7-2.49,1.59-3.83.98-5.97l.05-.05c2.39-.81,3.79-1.55.42-3.29-3.94-2.04-3.01-4.02.48-5.62,1.68,1.68,3.57-.43,5.3.56-1.29-2.36-3.4-1.39-5.18-1.65,0,0-.01.01-.01.01-.33-.31-.66-.63-.99-.94-1.12.07-2.45.56-3.33.13-1.73-.84-3.67-2.11-3.5-4.31.21-2.82,2.71-1.6,4.31-1.85.8-.13,1.64,0,2.47,0,.02.82-.01,1.65.06,2.46.1,1.13.11,2.66,1.79,2.22,1.43-.38.52-1.58.27-2.44-.4-1.42-.84-2.82-1.26-4.23.31-1.91,2.76-2.91,2.19-5.19,1.47.38,2.85.09,3.17-1.47.7-3.39,2.11-6.42,3.91-9.32.26.02.52.04.78.07,4.85,1.53,7.76-.4,9.12-5.1l-.03.03,1.04-1.04-.04.03c.83-.04,1.62-.18,2.04-1.03l-.04.03c.31-.04.6-.12.88-.27,0,0,.15.29.15.29.78,4.32-3.1,6.13-5.14,8.69-2.28,2.86,1.35,4.77.19,7.11,1.83.41,1.69,4.55,5.49,2.24,1.27-.77,5.88-5.21,8.37.51-.73,1.58-4.1-.65-3.85,2.28.41,4.85-2.45,3.35-4.92,2.63-.69-.2-1.23-1.35-2.08-.34-.79.94-.68,2.11.27,2.61,3.8,2.01,1.8,7.85,6.39,9.43.93.32-.47.7-.81,1.04-1.62,1.62-1.05,3.33-.09,4.94,1.06,1.78,2.56,1.51,4.34.99,1.1-.32,2.99-2.17,3.63.38.41,1.65,1,3.76-.69,5.14-1.62,1.32-2.81.59-4.1-.99-1.13-1.39-2.95-.13-4.84-.61.56,3.12,4.35,4.75,2.27,8.19-1.09-2.35-2.81-3.93-5.86-3.95-.69,3.77,4.93,7.77-.35,12.38,1.49-7.83-2.1-12.31-7.54-16.65-.39,5.32-5.02,6.19-7.74,8.92ZM25.9,61.85l.55,1.27c.12-.1.36-.26.35-.29-.19-.41-.43-.8-.65-1.2.41-3.28-1.13-5.48-3.86-7.06-2.28,5.15-2.1,5.5,3.6,7.28ZM22.43,75.54c2.75.47,5.06.18,5.62-3.32.14-.85.57-.89,1.38-.64,2.31.72,1.75-.96.94-1.6-1.88-1.5-3.98-3.27-6.16-.11-.73,1.05-1.83,2.02-2.97,2.56-1.34.63-2.54,1.19-1.99,2.84.86,2.55,2.04.08,3.17.26ZM22.4,86.06c-1.95-.34-.29-3.74-2.87-3.48-.89.09-2.77-.53-2.68,1.2.13,2.41,3.62,1.36,4.3,3.56.04.13,1.14-.34,1.25-1.27ZM29.33,57.32c.52.02-.42.01-.11,1.23.31,1.22.56,2.65,2.08,2.97.91.19,1.77-.38,1.27-1.35-.51-.98.14-2.84-3.24-2.85ZM20.17,62.97c.8,1.83,1.48,3.28,3.41,3.23.4-.01,1.15-.96,1.09-1.39-.32-2.3-2.05-2.12-4.5-1.84Z"/>
      <path class="cls-10" d="M97.73,53.55c.28,1.85-.86,2.23-2.33,2.16-1.59-.08-2.08.51-1.38,1.98-1.57,1.31-4.17.79-6.11,3.93,3.79-2.12,4.84,3.32,8.09,1.11.95,1.69,2.92,3.4-.08,5.02-5.23-.73-10.47-1.38-15.14-4.29.63-1.48,1.91-1.58,3.19-1.67.17.13.33.26.5.38-.13-.16-.26-.33-.39-.49-.65-3.42,2.43-2.57,4.14-3.31-4.45-4.81-6.2-4.54-9.67,1.29-1.73,2.91-7.25,4.05-8.57,1.53-.54-1.03.44-3.77,1.56-4.54,1.83-1.26,2.34-2.77,2.63-4.64-2.66.08-4.44-3.81-7.95-1.43,3.07,2.64,6.74,5.57-.12,7.88-1.09.37-.39.92.05,1.34,1.14,1.08,1.66,2.43,1.87,3.94h0c-2.24-.4-4.18.74-6.63,1.49-.26-3.97-1.08-7.62-4.5-10.02-.26-.18-.08-1.26.16-1.81,2.28-5.26-1.42-3.83-4.02-3.64h-.01c-1.3-1.44-2.88-2.13-4.83-1.86l-.29-.25c.06-2.32,1.53-4.43,1.07-6.83,0,0,.11-.12.11-.12,4,.74,8.24,1.01,10.36,7.03.42-3.06.63-4.54.87-6.3q2.59,3.3,6.29,5.03c4.88,2.28,5.92,1.68,6.43-3.71h-.01c2.97,1.22,5.74,2.05,6.31,6.33.4,2.95,5.53,3.94,6.78,2.9,2.56-2.12,4.14-.32,5.01.62,2.16,2.34,4.18,2.25,6.62.95Z"/>
      <path class="cls-2" d="M96.01,75.72c1.15,1.55-1.01,1.92-1.07,3.04-1.23-1.68-2.87-2.38-4.94-2.04,0,0,.01.01.01.01-3-2.49-2.66-4.5,1.33-6.51,1.42-.72,3.33-1.49,2.86,1.69-.22,1.49.53,2.86,1.81,3.81Z"/>
      <path class="cls-2" d="M56.09,75.48c4.92.03,6.08,2.52,4.41,4.43-1.33,1.52,1.71,5.65-2.88,4.72-1.56-.31-2.35-.6-1.1-2.5,1.18-1.79,2.38-4-.42-6.65Z"/>
      <path class="cls-2" d="M84.93,84.14c-.08.76-.09,1.36-.16,1.37-2.33.24-4.61-.74-7.03-.16-.82.19-1.59-1.05-1.5-2.17.04-.46.24-.97.52-1.33.59-.74,1.5-1.01,2.06-.18,1.49,2.17,5.1-.23,6.1,2.47Z"/>
      <path class="cls-2" d="M81.01,67.73c-1.35-.3-2.1,1.75-3.91.73-.82-.46-2.56.66-3.2-1.14-.72-2.05,1.45-2.4,2.27-3.41,1.62-2,1.9.7,2.81,1.23.98.57,2.07,1.17,2.02,2.6h0Z"/>
      <path class="cls-2" d="M81.01,67.73c1.19-.08,2.31-.01,3.07,1.13.6.91,2.23,1.36,1.75,2.73-.75,2.11-1.66-.47-2.69-.08-1.4.53-2.96.64-4.64.96.1-2.28,3.01-2.58,2.52-4.74,0,0,0,0,0,0Z"/>
      <path class="cls-2" d="M61.92,74.47c1.15-1.73,1.9-2.88,2.97-4.5.46,2,3.73,2.52,2.21,4.75-1.32,1.95-3.04-.43-5.18-.26Z"/>
      <path class="cls-2" d="M64.62,84.56c-.23-3.01-2.62-4.5.07-6.17.75-.47,1.39-1.6,2.47-.72.81.66.38,1.32-.12,2.07-.68,1.03-1.14,2.21-2.43,4.82Z"/>
      <path class="cls-2" d="M59.78,71.77c-1.05-1.46-3.07-2.56-1.89-4.6.2-.34,1.36-.48,1.83-.24,2.86,1.46-1.27,3.14.05,4.84Z"/>
      <path class="cls-2" d="M44.52,62.68c2.11-1.27,3.49.1,5.76.98-2.83,1.73-4.2-.15-5.76-.98Z"/>
      <path class="cls-2" d="M56.98,90.77c-.97.13-1.95.26-2.92.39.56-1.32,1.71-2.37,1.55-4.1,2.16.85,1.09,2.5,1.37,3.71Z"/>
      <path class="cls-2" d="M44.27,94.87c-.11,1.25-.22,2.5-.33,3.75-.56-1.16-1.22-2.28-1.65-3.49-.18-.5.06-1.65.24-1.68.98-.16,1.31.74,1.74,1.42Z"/>
      <path class="cls-2" d="M45.99,39.68c.03-.33.06-.66.09-1,1.42.04,2.89,0,2.99,2.01,0,0-.11.12-.11.12-.99-.38-1.98-.75-2.97-1.13Z"/>
      <path class="cls-2" d="M50.58,58.2c-.34-.5-.67-.84-.82-1.24-.3-.83.18-1.17.94-1.1.54.05.88.4.66.97-.16.43-.46.81-.78,1.37Z"/>
      <path class="cls-2" d="M53.63,52.11c.45.55.9.87.96,1.25.05.3-.38.67-.6,1.01-.29-.3-.74-.57-.83-.92-.08-.32.24-.74.47-1.34Z"/>
      <path class="cls-2" d="M57.99,93.63c-1.44-.56-1.44-1.64-1.03-2.87.36-.02.72-.04,1.08-.06.33.34.66.68.99,1.02l-1.04,1.91Z"/>
      <path class="cls-2" d="M59.03,91.71c-.33-.34-.66-.68-.99-1.02.77-1.04,1.74-.27,1.99.19.63,1.14-.61.59-1.01.83Z"/>
      <path class="cls-2" d="M54.29,58.58c.29.26.6.4.62.57.04.46.15,1.12-.1,1.37-.73.75-.66-.21-.69-.49-.05-.43.1-.89.18-1.45Z"/>
      <path class="cls-2" d="M68.01,63.74c.72.15,1.57.14,1.5,1.23,0,.11-.2.3-.31.31-1.09.03-1.07-.8-1.17-1.54,0,0,0,0,0,0Z"/>
      <path class="cls-2" d="M46.71,58.45c-.14.21-.27.43-.44.62-.02.03-.36-.13-.37-.23-.04-.25.01-.52.03-.78.26.13.53.26.79.39Z"/>
      <path class="cls-2" d="M48.18,47.89c-.2.42-.41.84-.61,1.25-.12-.1-.37-.27-.35-.3.2-.41.44-.8.67-1.2,0,0,.29.25.29.25Z"/>
      <path class="cls-2" d="M57.67,62.12c.12-.05.24-.1.36-.14.04.18.07.36.11.55-.13-.02-.29-.01-.39-.08-.07-.05-.05-.21-.08-.32Z"/>
      <path class="cls-2" d="M53.02,49.75c-.14.14-.28.28-.42.42.02-.09.01-.21.07-.26.09-.08.22-.11.34-.17,0,0,.01.01.01.01Z"/>
      <path class="cls-2" d="M88.95,77.68c.35-.32.7-.64,1.06-.95,0,0-.01-.01-.01-.01-.32.35-.64.7-.96,1.05l-.09-.09Z"/>
      <path class="cls-2" d="M89.04,77.77c-.15.12-.31.25-.46.37.13-.15.25-.3.38-.46,0,0,.09.08.09.08Z"/>
      <path class="cls-10" d="M100.02,19.73c.07,1.04.14,2.09.23,3.32,1.71-1.25,1.56-2.94,1.95-4.42,1.28.24,2.55.48,3.83.72.09-.14.22-.27.26-.42.4-1.55-1.58-5.18,1.25-4.28,3.51,1.11,4.57,5.18,3.44,9.12,0,0,.02-.02.02-.02-.92-.23-1.83-.46-2.75-.69-2.32-.58-4.94-1.78-4.55,2.57.1,1.1-1.01,1.04-1.78,1.18,0,0,.06.02.06.02-.15-.45-.3-.9-.44-1.34-.18.43-.36.85-.54,1.28-6.24-.55-9.52-5.7-14-8.99.02-.88.05-1.75.07-2.63-.7.25-1.4.51-2.1.76,0,0-.08-.08-.08-.08.26-1.81,1.07-3.31,3.12-2.9,4.02.81,7.97-.47,11.96-.13,0,.65,0,1.3-.01,1.96-1.94.06-4.79-.22-5.13,1.71-.43,2.44,2.84,1.86,4.32,2.87.26.18.59.27.89.4Z"/>
      <path class="cls-10" d="M118.88,42.85c-2.5-.11-3.98-1.94-5.71-3.36.75-2.89,1.97-4.99,5.59-3.84.66.21,1.9-.08,2.3-.59,3.31-4.22,7.53-3.07,11.63-2.02-1.64,2.43-1.61,2.37-4.14,1.12-.68-.33-2.23-.43-2.3-.24-1.41,3.86-5.92,5.14-7.36,8.92Z"/>
      <path class="cls-10" d="M111.99,24.76c.99.09,2.06-.05,2.93.31,1.35.56,1.19,1.88.81,3-.36,1.05-1.3,1.54-2.37,1.42-1.29-.15-1.38-1.21-1.38-2.25,0-.83,0-1.66.01-2.49h0Z"/>
      <path class="cls-10" d="M113.98,13.78c.15.06.34.08.45.18,1.26,1.1,4.33.44,3.95,2.75-.3,1.81-3.06.86-4.54,1.86-1.05-1.8.64-3.26.16-4.81,0,0-.02.02-.02.02Z"/>
      <path class="cls-10" d="M114.01,13.75c-.88-.19-2.05.31-2.47-.93-.07-.2.48-.86.8-.9,1.36-.18,1.54.83,1.65,1.85,0,0,.02-.02.02-.02Z"/>
      <path class="cls-7" d="M112,24.75c-.33-.34-.66-.67-.99-1.01,0,0-.02.02-.02.02.34.33.67.66,1.01.99,0,0,0,0,0,0Z"/>
      <path class="cls-10" d="M98.05,83.77c.62-3.69-1.81-7.89,1.85-11.07.34.91,1.14,1.95.93,2.71-1.13,4.05-1.12,3.74,3.19,3.65,1.87-.04,5.86-3.78,6.06,2.01.02.43.3.84.98.51,6.66-3.21,4.8,1.87,4.89,5.05,0,.33,0,.66,0,.99-.36.34-.72.68-1.07,1.02-1.62-.32-2.65.92-3.89,1.59-.24-.29-.59-.51-.59-.72.05-2.09,2.85-4.72-2.8-4.8-2.85-.04-6.25-1.27-9.56-.94Z"/>
      <path class="cls-10" d="M103.99,69.81c1.36-2.29-1.07-2.51-1.95-2.81-3.9-1.33-3.65-3.58-1.84-6.41,2.53-.32,4.57.93,6.66,2.03.25,2.33,1.68,3.96,3.42,5.25,1.38,1.02,1.54-.38,1.85-1.26,1.48-.15,3.17.86,4.66-.95-1.32-.99-2.56-1.92-3.79-2.85l.08-.11c2.6-.51,4.75,1.28,7.14,1.19,1.12,2.56-2.44.59-1.92,2.35,2.38,8.17-4.02,3.23-6.4,4.39-1.8.88-3.99-1.84-5.87,1.56-1.12,2.03-.92-1.84-2.04-2.38Z"/>
      <path class="cls-10" d="M102.98,43.77c1.36-1.95.41-3.27-1.08-4.64-1.29-1.19-3.01-2.51-.86-4.46,2.98,3.04,5.96,6.07,8.94,9.11-1.43,4.58-3.99,1.03-6.09.85-.3-.29-.61-.58-.91-.88v.02Z"/>
      <path class="cls-3" d="M112.13,66.61c-.31.89-.48,2.28-1.85,1.26-1.74-1.29-3.16-2.92-3.42-5.25-.01-.95-.02-1.91-.03-2.86.86-.04,1.69-.15,2.17-1.01,1.35,1.32,3.55,1.77,4.08,3.94,0,0-.08.11-.08.11-1.62.96-.89,2.46-.87,3.8Z"/>
      <path class="cls-10" d="M99.97,52.7c.07-2.04.14-4.08.21-6.11,1.76,1.01,5.37-1.5,5.45,2.08.06,3-2.66,4.21-5.65,4.03Z"/>
      <path class="cls-10" d="M109,58.76c-.48.86-1.31.97-2.17,1.01-4.46.44-.33-2.71-1.57-3.9-.82-.78.02-2.35,1.23-2.71,1.06-.32,1.4.58,1.02,1.5-.79,1.87-.2,3.17,1.5,4.1Z"/>
      <path class="cls-4" d="M114.88,88.65c.36-.34.72-.68,1.07-1.02,1.27,1.08,1.19,2.22.05,3.3-.28.27-1.03.48-1.25.31-1.12-.86.13-1.71.13-2.59Z"/>
      <path class="cls-7" d="M102.06,58.51c-.13-.05-.25-.1-.38-.14.14-.14.28-.28.43-.42.09.1.19.2.28.31-.11.08-.22.17-.33.25Z"/>
      <path class="cls-5" d="M102.98,43.75c.3.29.61.58.91.88-.3-.29-.61-.58-.91-.88Z"/>
      <path class="cls-1" d="M95.97,98.69c-.06.72-.12,1.45-.19,2.17-.72-.26-2.08-.62-2.06-.77.18-1.19,1.24-1.32,2.24-1.4Z"/>
      <path class="cls-2" d="M51.08,94.67c.25.38.51.75.74,1.14.01.02-.24.19-.36.29-.16-.45-.33-.89-.49-1.34,0,0,.11-.09.11-.09Z"/>
      <path class="cls-2" d="M54.02,98.52c-.13-.05-.26-.09-.38-.14.15-.13.29-.28.45-.39.03-.02.19.19.28.29-.12.08-.23.16-.35.24Z"/>
      <path class="cls-1" d="M49.07,40.69c-.1-2-1.57-1.96-2.99-2.01-.29-.9-2.14-1.12-1.44-2.21,1-1.53,2.41-.18,3.49.21,2.01.73,3.64.91,5.13-1.05,1.35-1.78.26-3.41-.12-5.02-.1-.42-1.38-.57-2.12-.84,3.33-1.26,3.2-4.04,3.01-6.85.99-.05,1.97-.09,2.96-.13,0,0-.02-.01-.02-.01,3.01,2.45,6.08.06,7.7-1.29,4.3-3.6,5.78-1.27,7.34,2.28-.07.14-.15.28-.22.42.07-.15.13-.29.2-.44,3.48-.45,5.39,3.67,8.92,3.06,0,0,.06-.02.06-.02.33.38.67.77,1,1.15,1.99,1.29,3.99,2.58,5.98,3.86.16.13.32.27.48.4-.13-.16-.27-.32-.4-.48-.17-1.71,1.34-2.58,1.96-3.9,1.62.06,2.66,1.26,3.92,2.02-1.22,2.23-2.88,4.68-5.35,4.67-4.3-.03-4.47,3.15-5.4,5.72-.54,1.49.57,2.93,2.12,2.38,4.14-1.48,8.99.31,12.71-2.87.78,4.62-.49,9.21-.28,13.82-2.44,1.29-4.46,1.38-6.62-.96-.87-.94-2.45-2.74-5.01-.62-1.26,1.04-6.39.05-6.78-2.9-.58-4.28-3.34-5.11-6.31-6.32,2.21-2.7,5.09-5.03,5-9.01.08-.13.17-.27.25-.4-.08.14-.15.28-.23.42-4.85-3.17-6.44,4.91-10.88,3.16-.02,1.4-.07,4.16.41,3.91,2.79-1.45,3.27,2.64,5.47,1.91-.5,5.38-1.55,5.98-6.43,3.71q-3.69-1.73-6.29-5.03c-.24,1.76-.45,3.25-.87,6.3-2.12-6.01-6.36-6.29-10.36-7.03ZM63.02,28.75c.26-.37.52-.73.78-1.1-.13-.09-.27-.17-.4-.26-.13.45-.25.9-.38,1.36-.32-.04-.64-.05-.96-.04-.43-.43-.86-.86-1.28-1.29-.13.2-.26.41-.39.61.53.25,1.07.5,1.6.75.37.78.71.66,1.03-.03ZM69.52,28.02c-.66.59-2.3.56-2,1.69.23.88,1.46,1.69,2.42,2.16,1.14.55,1.39-.74,1.47-1.38.16-1.23-.4-2.21-1.9-2.47ZM63.63,31.07c-.68.5-2.09.36-1.86,1.74.08.48.8,1.24,1.18,1.21.98-.07,1.91-.6,1.94-1.79.02-.71-.43-1.18-1.26-1.17ZM82.54,36.07c.15-.3.4-.57.39-.83,0-.26-.27-.51-.42-.77-.14.26-.39.53-.39.79,0,.26.26.52.43.81Z"/>
      <path class="cls-10" d="M98.01,39.73c-3.71,3.18-8.57,1.39-12.71,2.87-1.55.56-2.66-.88-2.12-2.38.93-2.57,1.1-5.75,5.4-5.72,2.46.02,4.13-2.44,5.35-4.67,1.69,1.3,3.39,2.61,5.08,3.91-.33,2-.67,3.99-1,5.99ZM94.07,39.54c.11-.08.21-.16.32-.24-.09-.1-.18-.2-.27-.3-.14.13-.27.27-.41.4.12.05.24.09.36.14Z"/>
      <path class="cls-10" d="M90,27.82c-.62,1.31-2.13,2.19-1.96,3.9l-.08.08c-1.99-1.29-3.99-2.58-5.98-3.87-.33-.38-.67-.77-1-1.15,0,0-.05.02-.06.02-1.47-2.64-2.72-5.46-5.76-6.95,1.61-1.73,3.3-.89,4.8-1.06,4.95,1.23,6.38,6.36,10.04,9.03Z"/>
      <path class="cls-3" d="M84.96,15.9c.7-.25,1.4-.51,2.1-.76-.02.88-.05,1.75-.07,2.63-1.2-.06-1.93-.62-2.03-1.87Z"/>
      <path class="cls-8" d="M101,26.75c.18-.43.36-.85.54-1.28.15.45.3.9.44,1.34,0,0-.5.03-.5.03l-.49-.1Z"/>
      <path class="cls-3" d="M57,22.79c-.99.04-1.97.09-2.96.13.17-1.19-.42-2.99,1.64-2.87,1.63.09,1.14,1.68,1.32,2.74Z"/>
      <path class="cls-5" d="M46.02,14.76c-.07.13-.15.26-.22.4.07-.13.15-.26.22-.4,0,0,0,0,0,0Z"/>
      <path class="cls-9" d="M33.04,38.74c-1.01,0-2.02.01-3.02.02.33-2.02,1.34-3.94.9-6.07.82-1.1,1.97-.91,3.1-.78-.01,1.72,2.35,2.15,2.15,3.96-.11.29-.16.59-.16.9,0,0,.04-.03.04-.03-.84.03-1.61.2-2.04,1.03,0,0,.04-.03.04-.03-.35.35-.69.69-1.04,1.04,0,0,.03-.03.03-.03Z"/>
      <path class="cls-3" d="M34.02,31.9c-1.13-.13-2.28-.32-3.1.78-1.85.08-1.25-.99-.9-1.93,0,0,0,0,0,0,1.39.16,3.04-.54,3.99,1.15Z"/>
      <path class="cls-6" d="M36.01,36.77c0-.31.05-.61.16-.9.34.1.58.31.72.63-.28.14-.57.23-.88.27Z"/>
      <path class="cls-2" d="M30.03,30.76c-.36.95-.95,2.01.9,1.93.44,2.13-.58,4.05-.9,6.07-3.92,2.32-3.05-2.17-4.46-3.33-1.11-.91-2.2-2.73-.99-4.46,1.65-2.34,3.62-.21,5.45-.22Z"/>
      <path class="cls-2" d="M23.92,43.83c-.26-.03-.52-.05-.78-.07-.7,0-1.41-.02-2.11-.02h0c-.99-2.1-2.69-4.16-.2-6.49,3.33,1.06,3.44,3.7,3.09,6.58Z"/>
      <path class="cls-2" d="M16.06,54.56c.58,2.28-1.88,3.29-2.19,5.19-.83-1.93-2.71-3.68-1.04-6.04,1.09.05,2.19.11,3.28.16,0,.23-.02.45-.05.68Z"/>
      <path class="cls-9" d="M16.11,53.88c-1.09-.05-2.18-.11-3.28-.16.56-1.39.42-3.73,2.58-3.33,1.1.2,2.27,1.95.7,3.5Z"/>
      <path class="cls-5" d="M21.03,43.74c-.08.14-.16.28-.24.43.08-.14.16-.28.24-.42,0,0,0,0,0,0Z"/>
      <path class="cls-5" d="M16.98,41.79c-.13-.16-.25-.32-.38-.47.16.12.32.25.48.37,0,0-.1.1-.1.1Z"/>
      <path class="cls-1" d="M108.46,98.72c-.49,1.24-1.16,1.05-1.74.99-.84-.09-1.65-.35-1.35-1.46.17-.61.58-1.23,1.37-.79.67.38,1.26.91,1.73,1.26Z"/>
      <path class="cls-1" d="M109.97,95.74c.92.03,1.95-.27,2.59.63.11.16-.26.97-.54,1.06-1.5.46-1.97-.43-2.01-1.74,0,0-.05.05-.05.05Z"/>
      <path class="cls-9" d="M13.01,78.75c-1.82.01-3.53-.2-4.96-2.75,2.65-.07,4.4.06,5.01,2.71,0,0-.04.05-.04.05Z"/>
      <path class="cls-3" d="M14.07,68.7c1.78.26,3.89-.7,5.18,1.65-1.73-.98-3.62,1.12-5.3-.56.04-.36.08-.73.12-1.09Z"/>
      <path class="cls-6" d="M13.06,67.77c.33.31.66.63.99.94-.33-.31-.66-.63-.99-.94Z"/>
      <path class="cls-1" d="M96,62.73c-3.25,2.21-4.3-3.23-8.09-1.11,1.93-3.14,4.54-2.62,6.11-3.93,0,0,0,.02,0,.02.35.31.69.61,1.04.92,1.43,1.11.55,2.75.93,4.1Z"/>
      <path class="cls-7" d="M95.07,58.63c-.35-.31-.69-.61-1.04-.92.32,0,.64,0,.96.02l.02.02c0,.3.02.59.06.89Z"/>
      <path class="cls-7" d="M94.99,57.73c.08-.14.16-.28.23-.42-.07.15-.15.29-.22.44,0,0-.02-.02-.02-.02Z"/>
      <path class="cls-3" d="M100.02,19.73c-.3-.13-.62-.22-.89-.4-1.48-1.02-4.75-.43-4.32-2.87.34-1.93,3.19-1.65,5.13-1.71,1.99,1.63.8,3.31.08,4.99Z"/>
      <path class="cls-1" d="M22.43,75.54c-1.13-.18-2.32,2.28-3.17-.26-.55-1.65.65-2.21,1.99-2.84,1.15-.54,2.25-1.51,2.97-2.56,2.18-3.16,4.28-1.39,6.16.11.8.64,1.37,2.32-.94,1.6-.82-.25-1.25-.22-1.38.64-.57,3.5-2.88,3.79-5.62,3.32Z"/>
      <path class="cls-1" d="M25.9,61.86c-5.7-1.78-5.88-2.13-3.6-7.28,2.73,1.58,4.27,3.78,3.86,7.06l-.26.22Z"/>
      <path class="cls-1" d="M22.4,86.06c-.11.93-1.21,1.4-1.25,1.27-.68-2.2-4.18-1.15-4.3-3.56-.09-1.72,1.79-1.11,2.68-1.2,2.58-.26.92,3.15,2.87,3.48Z"/>
      <path class="cls-1" d="M29.33,57.32c3.38,0,2.73,1.88,3.24,2.85.5.96-.36,1.54-1.27,1.35-1.52-.32-1.77-1.75-2.08-2.97-.31-1.22.63-1.21.11-1.23Z"/>
      <path class="cls-1" d="M20.17,62.97c2.45-.28,4.18-.46,4.5,1.84.06.43-.69,1.38-1.09,1.39-1.93.05-2.61-1.4-3.41-3.23Z"/>
      <path class="cls-3" d="M34.01,37.76c.44-.83,1.2-1,2.04-1.03-.42.85-1.21.99-2.04,1.03Z"/>
      <path class="cls-8" d="M26.16,61.64c.22.4.45.79.65,1.2.02.04-.23.19-.35.29-.18-.42-.37-.85-.56-1.27,0,0,.26-.22.26-.22Z"/>
      <path class="cls-6" d="M33.01,38.77c.35-.35.69-.69,1.04-1.04-.35.35-.69.69-1.04,1.04Z"/>
      <path class="cls-8" d="M84.07,61.68c.13.16.26.33.39.49-.17-.13-.33-.26-.5-.38,0,0,.1-.1.1-.1Z"/>
      <path class="cls-1" d="M112.13,66.61c-.01-1.34-.74-2.84.87-3.8,1.23.93,2.47,1.86,3.79,2.85-1.49,1.81-3.18.8-4.66.95Z"/>
      <path class="cls-10" d="M73.02,42.74c-2.2.73-2.68-3.36-5.47-1.91-.48.25-.43-2.51-.41-3.91,4.44,1.74,6.02-6.33,10.88-3.16l-.02-.02c.09,3.98-2.78,6.31-5,9.01,0,0,.01-.01.01-.01Z"/>
      <path class="cls-2" d="M69.52,28.02c1.5.26,2.06,1.23,1.9,2.47-.08.65-.33,1.93-1.47,1.38-.96-.46-2.19-1.27-2.42-2.16-.3-1.13,1.34-1.1,2-1.69Z"/>
      <path class="cls-2" d="M63.63,31.07c.83-.01,1.28.45,1.26,1.17-.03,1.19-.95,1.72-1.94,1.79-.38.03-1.1-.73-1.18-1.21-.23-1.38,1.18-1.24,1.86-1.74Z"/>
      <path class="cls-7" d="M61.99,28.79c-.53-.25-1.07-.5-1.6-.75.13-.2.26-.41.39-.61.43.43.86.86,1.28,1.29,0,0-.06.07-.06.07Z"/>
      <path class="cls-7" d="M82.54,36.07c-.16-.29-.42-.55-.43-.81,0-.26.25-.52.39-.79.15.26.42.51.42.77,0,.26-.24.53-.39.83Z"/>
      <path class="cls-7" d="M63.02,28.75c.13-.45.25-.9.38-1.36l.4.26c-.26.37-.52.73-.78,1.1,0,0,0,0,0,0Z"/>
      <path class="cls-5" d="M72,23.75c-.07.15-.13.29-.2.44.07-.14.15-.28.22-.42,0,0-.02-.02-.02-.02Z"/>
      <path class="cls-7" d="M78.02,33.76c.08-.14.15-.28.23-.42-.08.13-.17.27-.25.4,0,0,.02.02.02.02Z"/>
      <path class="cls-7" d="M63.02,28.75c-.32.69-.66.81-1.03.04,0,0,.06-.07.06-.07.32-.01.64,0,.96.04h0Z"/>
      <path class="cls-5" d="M80.98,26.79c.33.38.67.76,1,1.15-.33-.38-.67-.76-1-1.15Z"/>
      <path class="cls-7" d="M88.05,31.72c.13.16.27.32.4.48-.16-.13-.32-.27-.48-.4,0,0,.08-.08.08-.08Z"/>
      <path class="cls-8" d="M94.07,39.54c-.12-.05-.24-.09-.36-.14.14-.13.27-.27.41-.4.09.1.18.2.27.3-.11.08-.21.16-.32.24Z"/>
    </g>
  </g>
</svg>