<?xml version="1.0" encoding="UTF-8"?>
<svg id="Layer_2" xmlns="http://www.w3.org/2000/svg" viewBox="0 0 135.22 122.03">
  <defs>
    <style>
      .cls-1 {
        fill: #506b2b;
      }

      .cls-2 {
        fill: #a6bc88;
      }

      .cls-3 {
        fill: #88a561;
      }
    </style>
  </defs>
  <g id="Layer_2-2" data-name="Layer_2">
    <g>
      <path class="cls-3" d="M1.38,30.52c.04-.19.07-.39.11-.58.57-.1.58-.38.26-.78,1.37-4.84,3.91-9.03,7.28-12.72,5.66-6.19,12.1-11.3,20.11-14.14C35.48.05,41.95-.5,48.66.44c7.35,1.02,14.08,3.68,20.51,7.11,5.17,2.76,10.5,5.28,15.21,8.84,1.15.86,2.18,1.87,3.3,2.77,1.66,1.32,3.36,2.6,5.05,3.89,3.15,2.41,6.2,4.94,9.09,7.66,2.61,2.46,5.35,4.79,7.84,7.35,4.85,4.98,9.76,9.9,13.65,15.72,1.86,2.79,3.88,5.47,5.48,8.43,2.56,4.72,4.61,9.66,5.61,14.93,1.71,9.01.83,17.73-3.67,25.87-2.72,4.91-5.85,9.53-10.66,12.71-.97-.58-1.37-1.5-1.44-2.62-.73.28-.85.91-1.22,1.32-.68.74-.62,1.97-1.58,2.46-.72.37-1.52.53-2.13,1.14-.37.36-1.03.45-1.33.11-.78-.86-1.57-.35-2.36-.2-.56.11-1.08.47-1.67.34-.4-.09-1.18.33-1.12-.41.06-.76.77-.14,1.17-.24.08-.02.14-.1.22-.16.08-.46-1.01-.27-.54-.89.29-.38.71-.54.99.09.2.45.36,0,.51-.06,1.06-.41,2.69.34,3.05-1.5,0-.05.17-.1.25-.09.96.09,1.4-.45,1.32-1.3-.1-.99-1.07-1.16-1.8-1.34-.24-.06-1.21.05-1.09.89.03.18.68.14.4.53-.21.29-.63.17-.89-.08-.23-.22-.5-.39-.77-.29-.69.26-1.12.27-1.4-.6-.18-.57-.82-.3-1.26-.17-.77.22-.72.97-.82,1.54-.06.35.08.92.75.73.26-.07.49-.09.53.25.03.19,0,.44-.25.43-1.19-.04-1.8.58-1.91,1.9q-.48-.93-1.43-.95c-1.4-.04-1.76-.61-1.11-1.88.12-.24.4-.41.41-.72.03-.01.07-.02.1-.04.02-.01.02-.05.02-.07-.04.04-.07.08-.11.12-.6.14-1.15-.14-1.58-.43-.7-.46-1.21.06-1.66.27-.75.35.39.69.17,1.3-.25.72.72-.3.85.41-.94.14-1.95.64-2.16-.93-.03-.24-.19-.5-.45-.47-.41.04-.4.47-.3.67.6,1.16-.46,1.11-.93,1.1-1.13-.02-.25-.75-.29-1.16-.03-.29-.02-.58-.29-.77-.06-.39-.03-.75.31-1.03.16-.13.49-.21.22-.51-.18-.21-.49-.22-.63-.03-.35.5-.72.42-1.23.29-.48-.13-.62.2-.52.69.26,1.4,1.17.62,1.86.58-.35.56-.45,1.58-1.29,1.41-1.34-.28-2.45.38-3.68.55-.97.13-2.23.49-2.85-.27-.67-.82-1.46-1.06-2.3-1.4h0c-.04-.22-.02-.61-.14-.66-1.05-.43-1.87-1.16-2.75-1.83-.47-.36-1.23-.7-1.75.15-.22.36-.57.35-.87.11-.59-.48-1.2-.75-1.98-.44-.31.12-.6-.07-.54-.44.06-.34.26-1.02.61-.74,1.09.87,1.15-.15,1.25-.67.28-1.39,1.55-1.07,2.37-1.36.48-.17,1.03.45.47,1.16-.26.33-.65.67-.14,1.1.29.24.67.29.93.06.36-.32.56-.75.36-1.27-.87-2.19-.77-2.32,1.54-2.05.14.02.27.08.41.1,1.08.19,1.1-1.23,2-1.33.02,0,.05-.32,0-.35-.77-.44-1.01.55-1.61.6-.09,0-.18,0-.28-.02.08-1.88-.77-2.58-3.71-3.02.29.38.59.59,1.05.65.42.05.46.44.47.78,0,.11-.14.32-.16.31-1.16-.38-2.35,1.09-3.57-.56,0,.85-.05,1.19.01,1.51.17.86-.06,1.25-1,1.54-1.16.36-.73-.59-.93-.91-.39-.66-.92-.74-1.58-.75-.41,0-.75-.19-.84-.64-.1-.47.29-.51.58-.66.29-.16.53-.39.79-.58-.5-.46-1.79-.68-.5-1.76.34-.29-.14-.43-.4-.49-.27-.06-.82-.43-.68.18.16.68-.24.98-.58,1.15-1.62.78-1.8,2.23-1.75,3.71.02.77-.56.65-.82.68-.62.09-.19-.44-.28-.68-.22-.63.36-.94.54-1.39.43-1.07-.04-1.43-.97-1.55-.75-.1-1.42-.08-1.73.83-.2.6-.69.69-1.23.5.34-2.42,2.11-3.42,4.1-4.26-1.08-.55-3.03.35-3.69,1.1-.68.77-.85,2.61-2.66,1.82h.01c-.13-.53-.31-.98.16-1.56.44-.55.31-1.43-.22-1.9-.25-.23-1.01-.15-1.34.39-.13.21.05.63-.27.61-.84-1.63-2.69-.36-3.65-1.48.6-.16,1.24-.2,1.73-.8-.47-.23-1.44-.55-.81-1,.52-.37.64-.97,1.09-1.22.57-.32,1.02-.71.81-1.3-.25-.71-1.02-.24-1.54-.38-.03-.03-.07-.05-.1-.08.04.02.08.04.12.07-.82.29-1.62.72-2.47.86-1.86.31-2.98,1.65-4.33,2.83,1.52-.25,2.28.81,3.31,1.6-1.62.66-2.55-.89-3.9-.87-.43,0,.13-.43.09-.64-.16-.69.2-1.81-1.32-1.34-.81.26-1.26-.94-2.13-1.03-.15-.02.09-.44.32-.47.46-.06,1.11-.28,1.33.18.34.72.81.47,1.14.23.69-.51,1.19-.62,1.83.11.61.7.94-.31,1.44-.42.23-.05.32-.33.03-.55-.59-.45-1.13-1.07-1.94-1.01-.44.04-.89.27-1.02-.35-.13-.62.55-.84.82-1.26.25-.39.61-.13.94.17.66.59,1.41,1.05,2.37.36-.37-.37-1.41-.13-.94-.89.51-.82.87-1.96,2.24-1.92.39.01.93-.08,1.3-.79-1.24.39-2.28.09-3.33.05-.67-.03-1.26.32-1.63-.67-.21-.55-1.06-.86-1.57-.04-.62.98-.75.48-1.17-.19-.26-.42-.56-1.96-1.64-.52-.36.48-.63,0-.87-.3-.16-.2-.23-.67-.59-.44-.28.18-.7.38-.6.88.05.24.33.51-.05.71-.78-.39-.42-2.05-1.88-1.66,0,0-.06-.15-.08-.23-.33-1.57-1.52-2.73-2.04-4.21-.04-.11-.39-.29-.23-.39,1.34-.87-.16-1.05-.32-1.56-.19-.63-1.12-.74-.95-1.49.14-.58.89-.14,1.17-.54-.39-1.12-1.13-.16-1.69-.3-.75-.19-.69,0-.89.32-.47.77-.1,1.02.57,1.24.28.09.87.34.59.61-.63.61-.33,1.05-.18,1.7.09.41.41.7.39,1.15-.01.51-.31.75-.7.74-.49,0-.39-.36-.28-.73.19-.63.18-1.27-.77-.92-.41.15-1-.45-1.22.32-.18.64.16,1.23.56,1.53.53.4.33.79.18,1.12-.21.48-.85.49-1.12.25-.41-.36-1.14-.33-1.27-1.01.09-.05.26-.07.09-.22l-.14.17c-.37-.03-.78.08-1.09-.24-.56-.6-.91-.15-1.3.23-.24.24-.19.82-.76.68-.1-.03-.24-.26-.21-.33.16-.38.1-.91.53-1.11.37-.17.97-.06.78-.73-.14-.5-.6-.72-1.1-.82-1.19-.25-2.37-.51-3.89-.83.49-.19.66-.24.81-.32.35-.2.97-.33.65-.88-.3-.5-.6.04-.92.17-.8.33-.9-.39-.91-.85,0-.48.25-.97.36-1.34.67-.28,1.22,1.31,1.48.17.24-1,1.36-1.59,1.09-2.76-.08-.33.39-.48.74-.54-.32.49.98,1.42-.46,1.64-.19.03-.16.44,0,.64.6.8.44,1.82.95,2.87.57-1.33,1.25-2.46,1.06-4.22.49.76.73,1.16.99,1.54.33.48.97.75,1.32.49.45-.34-.05-.72-.41-.98-.28-.2-.31-.49-.13-.76.18-.26.37-.61.8-.44.29.11.73.05.78.5.04.33,0,.67.02,1,.01.33-.04.7.39.83.38.11.72-.04.81-.4.2-.76,1.17-.16,1.42-.85.03-.09.69.69.7-.15,0-.3-.37-.68-.78-.7-.64-.04-1.58.82-1.68-.64,0-.02-.18-.06-.26-.04-.9.22-1.13-.41-1.59-1-.89-1.15-1.91-2.18-1.94-3.88-.77.69-1.18,1.16-.52,1.94.23.27.73,1.09-.41.9-.26-.04-.55-.38-.66.07-.09.38-.26.9.43,1,.04.03.08.07.11.11.27,1.14-.33.83-.91.54-.27-.79-1.25-1.07-1.36-2.04-.06-.51.25-1.43-.93-1.41-.89.01-1.65-.03-1.75,1.12-.02.3-.08.65-.49.45-.43-.21-.05-.44.07-.67.59-1.16.3-2.74,1.73-3.5.31-.16.05-.26-.12-.34-.54-.24-.34-.72-.36-1.13-.04-.94.04-1.9-1-2.46-.25-.14-.2-.51-.04-.8.64-.04,1.04.89,1.82.45-.55-.75-.74-2.04-2.29-.99.28-.95.52-1.65.36-2.49-.33.19-.73.28-.87.52-.44.81-.4.79-1.38.67-.4-.05-.98.09-1.1.49-.18.57-.3,1.28.41,1.66.29.16.42.71.94.41,1.21-.69,1.22-.69,1.48,1.01-1.1-.75-2.36.77-3.33-.59-.14.12-.29.22-.41.35-.69.83-.34,1.37.51,1.76l.05.04c-.02.38-.01.94-.53.8-.57-.15-.93-.74-1.49-1.04-.46-.24.16-.59.33-.74.62-.52.75-1.22.71-1.91-.03-.45-.68-.7-1.02-.64-.72.12-1.72.38-1.84,1.08-.21,1.2-1.47,1.25-1.83,2.22-.24-.79-.53-1.46-1.24-2.09.93.01,2.13.73,1.87-.79-.16-.96-.18-1.78.29-2.62.1-.17.07-.62-.03-.67-.82-.39-1.59-1-2.59-.8.15.71-.71,1.36-.16,2.06.42.54.15,1.34.73,1.8-.9.11-.52,1.09-1.07,1.65-.12-.4.06-.75-.36-.95-.8-.38-1.98-.7-.8-1.99.29-.32-.11-.58-.51-.59h0c.02-.27.01-.55.06-.83.38-2.08-.01-2.64-2.09-2.92h.01c.03-.32,0-.68.11-.98.42-1.15.41-1.97-1.17-1.95-.35,0-.63-.34-.94-.56-1.16-.82-2.08-2.06-3.86-1.76-.77.13-1.62-.56-2.53-.63-.4-.03-.38-.87-.19-.97.97-.49.56-1.75,1.55-2.22-.3-.17-.46-.35-.63-.35-.78-.01-1.57-.17-1.46-1.11.1-.84.94-.28,1.43-.44.29-.1.79.14.84-.3.04-.33-.12-.81-.36-1.03-.34-.3-.83-.49-1.28-.6-2.01-.49-2.04-.48-1.78-2.62.05-.39-.48-1.06.34-1.17,1.1-.14,1.35-1.48,2.43-1.64.26-.04.24-.39.11-.61-.13-.21-.35-.33-.61-.24-.33.12-.52.34-.7.66-.28.52-.85.58-1.21.21-.37-.38.02-.98.33-1.07,1.09-.33.92-1.45,1.47-2.1.48-.56-.29-1.27.05-1.93-.16.15-.24.32-.3.49-.05.16-.07.33-.12.56-.78-.89-.86-.9-1.23.04-.09.23-.14.49-.35.57-.83.31-.91.72-.56,1.56.36.86-.75.97-1.2,1.3-.57.42-.57-.31-.67-.7-.17-.67-.22-1.7-.46-1.95-1.24-1.28-.28-2.43.14-3.42.39-.92.15-1.15-.54-1.49-.56-.27-1.24-.56-1.03-1.34.22-.83-.23-.84-.74-.68-.47.14-.55-.28-.83-.41ZM65.24,96.29c-.07-.03-.14-.06-.21-.09.03.07.06.14.09.21.05.14.04.43.26.29.17-.11.01-.3-.15-.41ZM30.57,62s.02.08.05.11c.01.02.05.01.08.02-.05-.04-.09-.08-.14-.11-.12-.14-.29-.26-.37-.42-.12-.24.21-.72-.38-.72-.26,0-.48.14-.54.39-.11.47.32.53.59.65.2.09.46.06.7.08ZM23.93,33.15c-.26.05-.68-.07-.73.27-.07.5.38.75.78.87.7.22.66-.61,1.09-.84.3-.15.21-.53-.08-.7-.49-.28-.91-.24-1.08.41v-.02ZM97.8,93.46c.82-.23.58-.91.1-.88-1.09.08-1.33-.81-1.97-1.28.3.94.27,1.96,1.19,2.63.87.64.52-.23.67-.47h0ZM85.4,92.02c-.71.13-.53.59-.48,1.09.13,1.21,1.15,1.49,1.97,1.98.27.16.67.16.94-.1.18-.18.13-.44.01-.66-.17-.3-.33-.47-.77-.42-1.39.15-1.82-.64-1.68-1.89.02-.04.05-.08.07-.12-.02.04-.04.08-.06.13ZM38.14,65.27c-.06-.06-.11-.12-.17-.17.37-1.03-.42-1.1-1.04-1.15-.81-.06-1.11.71-1.14,1.24-.05,1.06,1.08.72,1.66,1.03.35.19.98.3,1.16-.38.09-.34-.12-.53-.46-.57ZM10.37,34.32c-.52.03-1.06.01-1.57.12-.39.08-.67.13-.72-.36-.04-.41.17-.65.58-.65.55,0,1.11.08,1.64,0,.45-.06,1.07.25,1.26-.58.19-.85-.57-.4-.79-.68-.15-.18-.06-.64-.55-.52-.06.21-.17.64-.19.63-.87-.18-1.66,1.58-2.56.13-.11-.17-.22-.16-.29-.03-.35.72-1.47,1.06-.67,2.31.8,1.24,1.75.64,2.64.6.5-.02,1.2-.18,1.2-.98.03-.01.07-.02.1-.04.02-.01.02-.05.02-.07-.04.04-.08.08-.11.13ZM69.56,92.26c-.09-.15-.15-.35-.28-.42-.13-.08-.3.09-.23.22.07.14.26.21.4.31,0,1.42-1.56,1.25-2.2,2.08-.23.3-.91.34-.86.98.03.34.37.42.62.53.68.32.92-.27,1.24-.66.55-.65,1.17-1.14,2.26-1.04-.53.75-.96,1.36-1.39,1.97-.12.17-.5.45-.19.53.66.18.47,1.1,1.14,1.17.29.03.35-.29.46-.48.09-.17.31-.45-.05-.54-.85-.23-.28-.67-.11-.94.19-.3.54-.45.59-.91.21-1.98.31-2.04,2.15-1.81.27.03.4.24.6.32.91.37,1.15-.57,1.46-.98.33-.44-.2-.81-.77-.86-.71-.07-1.26-.43-1.65-1.02-.21-.32-.58-.58-.8-.25-.31.47-1.09.52-1.14,1.04-.09.97,0,.98-1.25.77ZM90.3,94.03s.02.08.05.1c.01.02.05.01.08.02l-.13-.11c.1-.45-.49-1.29-.12-1.25,1.62.19,1.3-1.25,1.86-1.93h0c.28-.57.5-1.19,1.3-1.37-.9-.75-1.69.26-2.45-.17.86-.68.72-1.34-.13-1.87-.8-.5-1.66-.91-2.49-1.36-.94-.51-.95-.51-1.06.5-.04.32-.33.3-.51.42-.27.19-.83-.16-.88.47,1.45.49,3.05.72,3.88,2.37-.82.24-1.38.18-1.76-.49-.13-.23-.4-.25-.64-.13-.17.08-.23.19-.19.44.23,1.59.59,1.85,2.24,1.55.36-.06.67-.08.77.35-.64.61-1.55.29-2.33.63.27.47.76.58.88,1.13.18.82.87,1.01,1.66.7ZM95.24,79.58c.31.12.25.65.72.64.21-.43-.04-1.07.58-1.33.2-.09.23-.27,0-.41-1.39-.78-.87-2.18-.91-3.3-.02-.47.26-.81-.38-.98-.2-.05-.55-.03-.38-.4.11-.24.38-.25.63-.24.03.02.06.04.1.06-.03-.02-.07-.04-.1-.05.15-1.44.83-2.11,2.39-1.54-2.28-1.51-2.69-1.44-4.16.58-.18.25-.25.79-.67.58-.43-.22-.99-.43-1.06-1.08-.05-.51.05-.56-.66-.28-1.37.53-.41,1.57-.85,2.27-.22.35-1.19,1.61.47,1.92.36.07-.16.69.07,1.04-.55.32-.24.67-.05,1.04.15.29.37.68-.09.84-.33.11-.66-.14-.78-.48-.1-.27-.12-.57-.19-.95-.19.27-.26.49-.41.56-1.33.63-1.9,1.5-1.22,2.99.16.36-.11.93-.22,1.39-.06.25-.1.68-.5.48-.19-.09-.65-.26-.38-.72.38-.64-.02-.89-.51-.63-.78.42-.8-.34-.78-.54.11-1-.58-.93-1.08-.74-.88.34-1.39.1-1.97-.59-.76-.91-1.64-.95-2.31.19-.3.51-.55.64-.91.07-.23-.37-.58-.32-.89-.15-.53.29-.75-.17-1.27-.76.41,1.3-.71,2.03-.56,2.55.29.98,1.84,1.49,1.23,2.94,0,.02.33.15.46.28.43.41,1.6-.07,1.4.98-.14.75.49,1.39.1,2.1-.67,1.23.63,1.64,1.05,2.41.15.28.5.11.54-.13.22-1.38,1.07-.94,1.92-.53-.21-1.2-.24-2.29-1.6-2.59-.45-.1-.3-.51-.17-.84.14-.35.46-.48.66-.2.83,1.19,1-.17,1.11-.39.29-.58.23-1.27,1.16-1.41.77-.12,1.14.34,1.59.87.16-.46.38-.77.37-1.08-.02-.93.6-.78.78-.32.36.89.73.46,1.03.11.4-.47.56-.4.83.11.09.16.29.57.65.38.29-.15.38-.53.26-.76-.58-1.14.58-1.08,1.02-1.38.6-.42.84.4,1.27.64.25.14.5.52.18.69-.85.45-.26,1.21-.76,1.94.62-.34,1.15-.78,1.28-.16.22,1,.88,1.75,1.24,2.63.57,1.36.45,1.41,2,1.21-.43-.33-.54-.93-1.13-1.06-.34-.07-.56-.3-.26-.59,1.19-1.16,1.18-2.3.2-3.62-.29-.39-.41-1-.34-1.63.08-.84.4-1.67.2-2.54l.06-.06ZM55.08,80.09c-.58-.22-1.18-.34-1.27.12-.23,1.1-.55,2.08-1.07,3.11-.37.73-.68.67-1.04.56-1.09-.31-2.14-.76-3.22-1.12-.18-.06-.34-.67-.6-.11-.08.18-.24.42.03.64,1.08.9.85,2.44,1.72,3.48.29.35.55.66.96.76.58.14.34-.42.48-.66.33-.56.66-.23,1.06-.05.91.41,1.86.66,2.89.43,1.15-.25.14-1.14.49-1.61,1.05-1.37.04-1.53-.96-1.53-.47,0-.75-.08-.88-.49-.14-.47.18-.58.56-.6.37-.02.43-.31.23-.46-.73-.56-.83-.84.23-1.01.36-.06-.02-.28-.1-.35-.61-.6.12-.72.48-1.12ZM25.1,58.99c-.12-.17-.22-.27-.28-.39-.14-.33-.16-.94-.65-.72-.46.2-.26.76-.02,1.12.16.24.47.47.35.74-.55,1.23.42,2.4.08,3.68-.24.9.51.99,1.4.81,1.24-.25.83-1.55,1.58-1.95,1.49-.79,1.82-2.29,2.46-3.7-.92.57-1.79,1.22-2.13-.43-.05-.22-.16-.06-.25.03-.86.86-1.56.34-2.23-.28-.44.29.2.76-.33,1.1ZM86.61,109.06c-.34.1-.86-.28-1.13.26-.08.17-.03.31.22.4.98.36.9,1.77,1.99,2.08.16.05.33.4.32.6-.05,1.22.78,1.32,1.7,1.57,1.07.3.9-.19.77-.84-.3-1.47-1.65-2.13-2.49-3.18-.31-.39-.34-1.45-1.38-.9ZM74.94,97.89c-.2.67-.97.3-.87.83.06.32.43.6.7.87.15.15.31.06.48-.08,1.24-1-.39-2.01,0-3.12.14-.39-.55.09-.86.29-.27.17-.23-.17-.31-.3-.28-.44-.54-.89-.84-1.31-.2-.27-.46-.54-.84-.24-.26.2-.26.46-.19.77.36,1.4.94,2.51,2.73,2.3ZM124.8,105.74c-.4.57-.83,1.13-1.2,1.31-.46.23-1.05.47-1.61.58-.6.11-1.01.62-.7.95.41.44.64,1.36,1.47,1.18,1.27-.27,2.49-2.64,2.04-4.02ZM102.88,109.01c.18.44.79.29.74.43-.4,1.17.57,1.08,1.09,1.06.77-.03.9.26.88.9-.01.39-.2.93.42,1.05.56.1,1.01-.13,1.34-.62.3-.46.37-1.07-.06-1.28-.84-.41-1.52-1.89-2.73-.51-.28-.89-.52-1.64-1.68-1.03ZM18.31,54.79c-.51-1.16-.37-2.8-2.23-2.22-.53.16-.82.59-.69,1.34.44,2.45,1.92.43,2.92.88ZM74.14,88.98c.33-.22.64.02.9.18.82.49,1.43-.02,1.55-.62.14-.68-.1-1.52-.83-1.95-.23-.14-.69-.08-.66.27.09.83-.41.82-.96.84-.7.01-.68.66-.73,1.04-.07.55.39.33.73.25ZM99.89,92.43c-.54-.36-.29-.87-.45-1.25-.14-.35-.44-.31-.72-.22-.27.09-.42.44-.28.55.65.57.82,1.42,1.3,2.07.14.19.45.12.6-.12.52-.85,1.32-.93,2.27-.71-1.2-1.65-1.56-1.68-2.72-.33ZM131.9,98.11c-.15-.19-.24-.36-.37-.47-.17-.14-.39-.08-.5.09-.76,1.15-1.16,2.45-1.43,3.78-.05.27.12.73.52.75.42.01.59-.47.5-.72-.22-.6.17-.89.45-1.24.51-.65.05-1.62.84-2.19ZM35.41,23.16c.31.25.82.58.78.64-.56,1.14.85,1.73.75,2.73-.03.32.19.58.54.48.5-.15.8-.43.95-1.04.17-.68-.3-.24-.42-.34-.53-.42-.96-.87-1.19-1.53-.19-.54-.45-1.1-1.41-.95ZM60.57,64.1c-.62.42-.94.88-1.18,1.51-.21.55-.02.85.35,1.08.47.28,1.08.37,1.48.03.35-.3.4-.81-.16-1.18-.44-.29-.13-.92-.49-1.43ZM72.84,73.47c-.66-.25-.76.96-1.18.51-.89-.94-.63.23-.91.39-.64.35.15,1.16-.49,1.52-.01,0,.18.62.36.68.42.13.62-.26.56-.6-.15-.87.46-1.17,1.05-1.37.68-.23.7-.62.61-1.13ZM62.86,87.15c-.02-.28.09-.6-.18-.79-.21-.15-.47-.09-.65.09-.65.63-1.1,1.41-1.43,2.24-.19.47.14.71.6.72.34,0,.7.04.55-.52-.16-.58.08-.89.7-.95.45-.05.4-.45.41-.78ZM12.85,50.49c.53-.39.19-.88.23-1.32.05-.54.68-.67.86-1.18-.66.43-1.68-.3-2.09.69-.4.98.59,1.25.99,1.81ZM63.01,84.16c.7.31.9-.33.95-.88.07-.76-.58-.73-1.1-.75-.39-.02-.91-.02-.63.55.17.34-.34,1.19.78,1.09ZM72.35,85.31c-.04-.74-.69-.92-1.16-1.12-.37-.16-.99.43-.88.61.3.5.8.96,1.32,1.21.37.17.55-.37.71-.7ZM60.7,85.5c-.7-.27-.02-1.74-1.26-1.47-.52.11-.72.64-.54.99.34.66,1.1.45,1.8.48ZM12.9,46.92c.43-.65,1.62.77,1.66-.4.02-.55-.37-1.24-1.15-1.44-.18.66-.34,1.25-.5,1.84ZM58.72,80.85c-.29-.5-.28-1.14-.86-1.15-1.11-.02.17,1.18-.65,1.41-.09.03-.04.49.28.49.57,0,.8-.52,1.23-.75ZM73.14,54.5c.5.43.88,1.16,1.62.8.39-.19.06-.64-.08-.87-.48-.78-1-.02-1.53.07ZM105.95,114.39c-.56-.58-1.12-.39-1.67-.06-.35.21-.62.57-.4.94.29.48.63.05.91-.11.4-.23.78-.51,1.16-.77ZM10.1,51.12c.12.44.18.81.31,1.15.15.39.51.57.89.63.12.02.35-.16.41-.3.23-.49-.18-.67-.49-.88-.3-.2-.45-.64-1.12-.6ZM113.1,70.26c.63-.57.66-1.29.61-2.03,0-.04-.28-.12-.37-.07-.79.43-.42,1.17-.45,1.8,0,.07.09.14.21.3ZM32.86,60.93c.45-.25.76-.58.74-.92-.04-.55-.17-1.13-.59-1.56-.06-.06-.3-.05-.36.01-.43.49.11.85.19,1.28.07.36.01.74.01,1.19ZM54.71,51.97c-.36.19-.74.36-.69.9.04.37.3.46.6.42.46-.07.79-.41.85-.8.05-.36-.41-.42-.76-.52ZM19.33,56.95c-.45.18-1.08.14-1.14.84-.03.34.19.58.51.46.48-.19,1.21-.12,1.22-.92,0-.34-.25-.47-.59-.38ZM70.27,88.72c-.54-.24-.01-1.08-.53-1.21-.65-.15-.41.57-.57.9-.22.48-.05.72.47.69.25-.01.6.12.63-.38ZM87.74,56.58c-.57-.43-.74-1.16-1.44-.72-.33.21-.41.59-.16.88.49.58.93,0,1.59-.17ZM65.46,95.64c.92-1.64-.64-1.26-1.26-1.67.38.58,1.16.84,1.26,1.67ZM22.1,57.22c.73-1.21-.74-1.22-.89-2.06-.47,1.15.38,1.48.89,2.06ZM94.31,91.88c.03-.42,0-.83-.51-.85-.31-.01-.22.35-.29.56-.15.48.24.54.53.65.52.2.13-.28.27-.35ZM110.58,112.26c-.5-.34-.75-.73-1.24-.42-.16.1-.3.34-.15.47.35.32.76.23,1.39-.06ZM102.38,90.42c-.27.13-.39.38-.41.66-.02.25.19.3.38.26.29-.06.31-.31.32-.54,0-.18-.02-.38-.29-.38ZM89.4,84.62c-.05-.08-.11-.24-.2-.27-.23-.06-.33.13-.32.31,0,.11.1.29.19.31.23.07.29-.13.34-.36ZM11.87,50.86c.09-.08.18-.17.28-.25-.11-.03-.25-.12-.34-.09-.09.03-.13.18-.19.28.08.02.15.04.25.06ZM87.92,114.14c.08-.03.2-.04.24-.1.03-.05,0-.2-.05-.23-.13-.09-.26-.03-.3.12-.01.06.07.14.12.21ZM21.78,60.49c-.08-.03-.15-.07-.23-.1-.03.07-.1.17-.08.22.03.06.14.08.22.11.03-.07.06-.15.1-.23ZM78,101.12c-.08-.05-.15-.13-.23-.13-.08,0-.16.07-.24.11.08.05.15.13.23.13.08,0,.16-.07.24-.11ZM29.62,58.01c-.08.03-.17.06-.25.1.07.04.14.09.22.11.04.01.09-.02.13-.04-.03-.05-.07-.11-.1-.17ZM52.36,87.59s-.06.06-.07.09c0,.03.03.07.04.11.02-.03.06-.06.07-.09,0-.03-.03-.07-.04-.11ZM34.12,71.71s0-.08-.02-.09c-.03-.02-.08-.02-.12-.02.01.05.02.11.03.16.04-.01.07-.03.11-.04Z"/>
      <path class="cls-1" d="M36.92,75.85c-.35.05-.82.2-.74.54.27,1.17-.85,1.75-1.09,2.76-.27,1.13-.81-.45-1.48-.17-.11.37-.37.86-.36,1.34,0,.46.11,1.18.91.85.32-.13.62-.68.92-.17.32.55-.3.68-.65.88-.15.08-.32.13-.81.32,1.52.32,2.7.58,3.89.83.5.1.95.32,1.1.82.19.67-.41.56-.78.73-.43.2-.37.73-.53,1.11-.03.07.12.3.21.33.56.15.51-.44.76-.68.39-.38.74-.83,1.3-.23.3.33.71.21,1.09.24l.05.05c.13.69.86.65,1.27,1.01.27.24.9.24,1.12-.25.15-.33.35-.72-.18-1.12-.4-.3-.74-.88-.56-1.53.22-.77.82-.17,1.22-.32.95-.35.95.29.77.92-.11.37-.21.72.28.73.39,0,.68-.23.7-.74.01-.44-.31-.74-.39-1.15-.14-.66-.45-1.1.18-1.7.28-.27-.31-.52-.59-.61-.68-.21-1.04-.47-.57-1.24.2-.33.14-.52.89-.32.56.14,1.3-.81,1.69.3-.28.4-1.03-.04-1.17.54-.18.75.76.87.95,1.49.15.52,1.66.69.32,1.56-.16.1.19.27.23.39.52,1.48,1.71,2.64,2.04,4.21.02.08.07.24.08.23,1.46-.39,1.09,1.27,1.88,1.66.38-.21.1-.47.05-.71-.1-.5.33-.7.6-.88.36-.23.43.24.59.44.24.3.51.78.87.3,1.08-1.44,1.37.1,1.64.52.42.66.55,1.17,1.17.19.51-.81,1.36-.51,1.57.04.38.99.96.65,1.63.67,1.05.04,2.09.34,3.33-.05-.37.71-.91.8-1.3.79-1.36-.04-1.73,1.1-2.24,1.92-.47.76.57.52.94.89-.96.69-1.71.23-2.37-.36-.34-.3-.69-.56-.94-.17-.27.42-.95.63-.82,1.26.13.61.58.38,1.02.35.81-.07,1.35.55,1.94,1.01.29.22.19.5-.03.55-.5.1-.83,1.12-1.44.42-.64-.74-1.14-.63-1.83-.11-.33.24-.79.49-1.14-.23-.22-.46-.87-.24-1.33-.18-.23.03-.47.45-.32.47.87.09,1.32,1.29,2.13,1.03,1.51-.47,1.16.65,1.32,1.34.05.21-.52.64-.09.64,1.35-.02,2.28,1.53,3.9.87-1.04-.8-1.79-1.85-3.31-1.6,1.35-1.18,2.46-2.53,4.33-2.83.85-.14,1.65-.56,2.47-.86,0,0-.01.01-.01.01.52.14,1.29-.33,1.54.38.21.58-.24.98-.81,1.3-.45.25-.57.84-1.09,1.22-.63.45.34.78.81,1-.49.59-1.12.64-1.73.8.97,1.13,2.82-.15,3.65,1.48.32.03.14-.4.27-.61.34-.54,1.09-.62,1.34-.39.53.47.66,1.35.22,1.9-.46.58-.29,1.04-.16,1.58-.44.06-1.05-.26-1.27.33-.28.76.9.52.89,1.21.09-.57.09-1.1.37-1.56,1.8.79,1.97-1.05,2.66-1.82.66-.75,2.61-1.65,3.69-1.1-1.99.84-3.76,1.84-4.1,4.26.54.2,1.02.1,1.23-.5.31-.91.99-.94,1.73-.83.92.13,1.39.48.97,1.55-.18.45-.77.76-.54,1.39.09.25-.34.77.28.68.27-.04.85.08.82-.68-.05-1.48.14-2.93,1.75-3.71.34-.16.74-.47.58-1.15-.15-.61.41-.24.68-.18.26.06.74.2.4.49-1.29,1.08,0,1.3.5,1.76-.26.19-.5.42-.79.58-.29.16-.68.19-.58.66.09.45.44.64.84.64.65,0,1.19.09,1.58.75.19.33-.23,1.28.93.91.94-.29,1.17-.68,1-1.54-.06-.32-.01-.66-.01-1.51,1.22,1.65,2.4.17,3.57.56.02,0,.16-.2.16-.31,0-.34-.05-.73-.47-.78-.46-.05-.76-.26-1.05-.65,2.94.44,3.78,1.14,3.71,3.02.09,0,.18.02.28.02.6-.04.85-1.04,1.61-.6.05.03.02.35,0,.35-.9.1-.92,1.52-2,1.33-.14-.02-.27-.09-.41-.1-2.31-.26-2.41-.14-1.54,2.05.21.52,0,.95-.36,1.27-.26.23-.64.18-.93-.06-.51-.43-.12-.77.14-1.1.55-.71,0-1.33-.47-1.16-.82.29-2.09-.03-2.37,1.36-.1.52-.16,1.54-1.25.67-.35-.28-.54.39-.61.74-.07.37.23.56.54.44.78-.32,1.39-.04,1.98.44.3.24.65.25.87-.11.52-.86,1.28-.51,1.75-.15.88.67,1.7,1.4,2.75,1.83.12.05.1.44.14.67-.04.04-.09.07-.13.11.03,0,.06,0,.08-.02.02-.03.03-.07.05-.1.84.34,1.63.58,2.3,1.4.62.75,1.88.4,2.85.27,1.22-.17,2.33-.82,3.68-.55.84.17.94-.85,1.29-1.41h0c.27.2.26.49.29.78.04.41-.84,1.14.29,1.16.48,0,1.53.05.93-1.1-.1-.2-.11-.63.3-.67.26-.03.42.23.45.47.2,1.57,1.21,1.07,2.16.93-.13-.71-1.1.31-.85-.41.21-.61-.93-.95-.17-1.3.46-.21.96-.73,1.66-.27.43.28.98.56,1.58.43h-.01c0,.3-.29.47-.41.71-.64,1.27-.29,1.84,1.11,1.88q.95.03,1.43.95c.11-1.32.72-1.94,1.91-1.9.25,0,.28-.24.25-.43-.04-.34-.28-.32-.53-.25-.67.19-.8-.38-.75-.73.09-.57.05-1.32.82-1.54.44-.13,1.08-.4,1.26.17.28.87.71.85,1.4.6.27-.1.54.07.77.29.26.26.68.38.89.08.28-.39-.38-.35-.4-.53-.12-.84.85-.95,1.09-.89.73.18,1.7.36,1.8,1.34.08.84-.36,1.39-1.32,1.3-.08,0-.24.04-.25.09-.36,1.84-1.99,1.09-3.05,1.5-.16.06-.31.5-.51.06-.29-.63-.7-.47-.99-.09-.48.63.62.43.54.89-.07.06-.14.14-.22.16-.4.1-1.11-.52-1.17.24-.06.74.73.32,1.12.41.59.13,1.11-.23,1.67-.34.79-.16,1.58-.67,2.36.2.3.34.96.25,1.33-.11.61-.61,1.42-.77,2.13-1.14.96-.49.9-1.71,1.58-2.46.37-.41.49-1.04,1.22-1.32.07,1.11.47,2.04,1.44,2.62-5.07,3.07-10.56,4.85-16.39,5.85-7.71,1.32-15.08-.35-22.4-2.36-8.77-2.41-16.76-6.67-24.41-11.44-12.05-7.51-23.28-16.14-33.45-26.09-6.67-6.52-12.71-13.57-17.54-21.62C2.21,53.89.49,47.18.06,40.15c-.2-3.22.1-6.53,1.33-9.63.27.13.36.55.83.41.52-.16.96-.15.74.68-.21.78.48,1.07,1.03,1.34.69.33.93.57.54,1.49-.42.99-1.37,2.15-.14,3.42.24.25.29,1.28.46,1.95.1.39.1,1.12.67.7.45-.33,1.56-.44,1.2-1.3-.36-.85-.27-1.25.56-1.56.2-.08.26-.34.35-.57.37-.94.45-.93,1.23-.04.05-.23.07-.4.12-.56.05-.17.14-.33.3-.49-.34.66.43,1.37-.05,1.93-.56.65-.39,1.78-1.47,2.1-.31.09-.7.69-.33,1.07.36.37.93.31,1.21-.21.17-.32.37-.55.7-.66.27-.1.48.02.61.24.13.22.15.57-.11.61-1.09.15-1.34,1.49-2.43,1.64-.82.11-.3.78-.34,1.17-.26,2.14-.23,2.13,1.78,2.62.46.11.94.3,1.28.6.24.22.4.69.36,1.03-.05.45-.55.21-.84.3-.48.16-1.33-.41-1.43.44-.11.94.67,1.1,1.46,1.11.17,0,.33.18.63.35-.98.47-.58,1.73-1.55,2.22-.19.1-.21.94.19.97.91.07,1.76.77,2.53.63,1.78-.31,2.71.94,3.86,1.76.31.22.59.56.94.56,1.57-.02,1.59.8,1.17,1.95-.11.3-.08.66-.11,1-1.13-.05-.13-1.33-.87-1.59-.6.23,0,1.52-.85,1.16-.88-.37-1.78-.76-2.75-1.11.43-.37,1.15.05,1.22-.68.02-.16-.14-.33-.22-.5-.78.55-1.69-.18-2.41.17-.46.22-.29.87.21,1.03.56.17.89.31.57.96-.17.36.04.82.28.86.34.06.83.39,1.12-.18.17-.32.47-.51.84-.35.2.09.2.33.08.49-.18.24.03.88-.65.65-.33-.11-.57.06-.52.44.04.29.35.46.52.35.76-.49,1.25.08,1.77.5.39-.75-.39-.86-.5-1.28-.07-.25-.17-.51.12-.6.35-.11.74-.15,1.11-.14.17,0,.36.29.19.42-1.05.82.25,1.53.16,2.34-.11-1.07.44-1.97.56-2.97,2.08.28,2.48.84,2.09,2.92-.05.27-.04.56-.06.84-.13.04-.26.08-.4.11.03.04.06.08.08.11.1-.08.2-.16.3-.24.4.01.8.27.51.59-1.18,1.29,0,1.61.8,1.99.42.2.24.55.36.95.56-.56.17-1.55,1.07-1.65-.58-.46-.31-1.26-.73-1.8-.55-.71.31-1.36.16-2.06,1-.2,1.77.41,2.59.8.1.05.13.49.03.67-.47.85-.45,1.67-.29,2.62.26,1.53-.94.81-1.87.79.72.63,1.01,1.31,1.24,2.09.35-.97,1.62-1.02,1.83-2.22.12-.7,1.12-.96,1.84-1.08.34-.06.99.19,1.02.64.04.69-.09,1.39-.71,1.91-.17.15-.79.49-.33.74.56.3.92.89,1.49,1.04.52.14.52-.41.53-.8.22-.14.29-.34.21-.58-.01-.04-.07-.06-.11-.08-.05.21-.1.42-.15.62-.84-.39-1.2-.93-.51-1.76.11-.14.27-.24.41-.35.97,1.36,2.23-.16,3.33.59-.27-1.7-.27-1.71-1.48-1.01-.52.3-.65-.25-.94-.41-.7-.38-.59-1.09-.41-1.66.12-.39.7-.53,1.1-.49.99.11.94.14,1.38-.67.13-.24.54-.33.87-.52.16.84-.08,1.54-.36,2.49,1.55-1.05,1.73.24,2.29.99-.78.44-1.19-.49-1.82-.45-.16.29-.21.66.04.8,1.03.56.96,1.52,1,2.46.02.41-.18.89.36,1.13.17.08.43.17.12.34-1.43.76-1.14,2.34-1.73,3.5-.11.23-.5.45-.07.67.41.2.46-.15.49-.45.1-1.15.86-1.1,1.75-1.12,1.18-.02.86.9.93,1.41.11.96,1.09,1.24,1.36,2.04,0,0,0,0,0,0ZM82.8,107.59s.02.08.04.1c.01.02.05.02.07.03-.04-.04-.08-.08-.12-.12-.04-.02-.08-.05-.12-.07.04.02.09.04.13.06ZM52.21,92.01c.25.78.06,1.86,1.03,2.18.62.2.79-.71,1.33-.97-.98-.12-1.32-1.37-2.38-1.19-.38-.91.56-1.09,1.18-1.83-1.42.46-2.37-.07-3.34-.49-.3-.13-.61-.46-.88-.12-.25.32-.13.73.13,1.05.75.91,1.59,1.66,2.91,1.36ZM46.28,86.71c.35.26.66.46.71-.14.04-.5-.24-.92-.73-.84-.57.1-1.54.33-1.45.88.22,1.24,1-.15,1.46.1ZM33.15,67.7c-.09-.66-.72-.61-1.16-.75-.31-.1-.82.07-.67.44.17.42.2,1.14.79,1.16.4.01.92-.24,1.05-.85ZM59.98,97.14c-.31-.24-.76-.36-.69.12.09.55.72.84,1.26,1.01.34.11.54-.07.54-.44,0-.84-.47-.93-1.12-.69ZM35.72,76.3c-.07-.36-.09-.86-.5-.9-.43-.05-.62.49-.66.78-.04.39.44.58.76.68.46.14.35-.3.4-.56ZM86.16,106.54c-.1-.53-.19-1.06-.31-1.72-.54.74-.69,1.31.31,1.72ZM19.63,67.45c.41.65.73.98,1.27.95.09,0,.25-.27.22-.32-.28-.5-.78-.49-1.49-.63ZM48.34,87.44c-.53-.05-.9-.15-1.15.21-.03.04.08.25.18.31.47.29.62-.15.98-.52ZM15.54,63.1c.12-.15.25-.25.26-.35,0-.11-.08-.3-.16-.33-.23-.06-.33.12-.32.32,0,.1.12.2.22.36ZM37.3,84.09c-.07,0-.15-.01-.22-.02.03.03.07.07.1.07.04,0,.08-.03.12-.06ZM33.6,73.35l-.04.07h.07s-.03-.07-.03-.07ZM21.47,67.3l-.05.07h.07s-.03-.07-.03-.07Z"/>
      <path class="cls-2" d="M1.75,29.16c.32.39.31.68-.26.78.09-.26.17-.52.26-.78Z"/>
      <path class="cls-1" d="M95.5,73.55c-.25,0-.52,0-.63.24-.17.37.18.35.38.4.63.17.36.51.38.98.04,1.13-.48,2.52.91,3.3.24.14.21.32,0,.41-.63.27-.37.9-.58,1.33-.47.02-.4-.52-.72-.64-.07-.29-.17-.55-.54-.49-.09.02-.24.2-.22.26.11.35.44.24.7.28.2.86-.11,1.7-.2,2.54-.06.63.06,1.24.34,1.63.97,1.32.99,2.46-.2,3.62-.31.3-.08.52.26.59.59.13.71.73,1.13,1.06-1.55.21-1.44.16-2-1.21-.37-.88-1.02-1.63-1.24-2.63-.14-.62-.66-.18-1.28.16.5-.73-.09-1.49.76-1.94.32-.17.07-.54-.18-.69-.42-.23-.67-1.05-1.27-.64-.44.31-1.59.24-1.02,1.38.12.23.03.61-.26.76-.36.19-.57-.22-.65-.38-.27-.5-.43-.57-.83-.11-.3.34-.66.78-1.03-.11-.18-.46-.8-.61-.78.32,0,.31-.2.62-.37,1.08-.45-.53-.82-.98-1.59-.87-.93.14-.88.83-1.16,1.41-.11.21-.28,1.58-1.11.39-.19-.28-.52-.15-.66.2-.13.32-.29.73.17.84,1.35.31,1.39,1.39,1.6,2.59-.84-.41-1.7-.86-1.92.53-.04.24-.39.41-.54.13-.42-.77-1.72-1.18-1.05-2.41.39-.72-.24-1.35-.1-2.1.2-1.05-.97-.57-1.4-.98-.13-.13-.47-.26-.46-.28.61-1.46-.94-1.96-1.23-2.94-.15-.51.97-1.24.56-2.55.52.58.74,1.05,1.27.76.3-.17.65-.22.89.15.36.57.61.44.91-.07.66-1.14,1.55-1.09,2.31-.19.58.69,1.09.93,1.97.59.49-.19,1.18-.26,1.08.74-.02.21,0,.96.78.54.49-.26.89-.02.51.63-.27.46.2.63.38.72.4.2.44-.24.5-.48.11-.46.38-1.03.22-1.39-.68-1.49-.11-2.36,1.22-2.99.15-.07.22-.29.41-.56.07.38.08.68.19.95.13.34.45.59.78.48.46-.16.24-.55.09-.84-.19-.37-.5-.72.05-1.04-.22-.35.3-.98-.07-1.04-1.66-.31-.69-1.57-.47-1.92.44-.69-.52-1.74.85-2.27.71-.27.61-.23.66.28.07.65.63.86,1.06,1.08.41.21.48-.33.67-.58,1.47-2.02,1.87-2.09,4.16-.58-1.56-.57-2.24.11-2.39,1.54h0ZM93.89,80.6c-.5-.75-1-1.49-1.49-2.24-.16-.24-.29-.54-.64-.28-.28.21-.08.39.04.6.26.5.5.99.34,1.61-.17.65.09,1,.72.53.35-.26.77.19,1.04-.22ZM94.61,85.35c.19-.05.59.02.51-.39-.07-.34-.19-.77-.7-.71-.38.05-.58.33-.58.68,0,.49.39.42.77.42Z"/>
      <path class="cls-2" d="M55.08,80.09c-.36.39-1.08.52-.48,1.12.08.08.46.3.1.35-1.06.17-.96.45-.23,1.01.2.15.15.44-.23.46-.38.02-.7.13-.56.6.13.41.42.49.88.49,1,0,2,.16.96,1.53-.35.46.66,1.35-.49,1.61-1.03.23-1.98-.02-2.89-.43-.4-.18-.73-.51-1.06.05-.14.24.1.8-.48.66-.41-.1-.66-.41-.96-.76-.87-1.04-.65-2.58-1.72-3.48-.26-.22-.11-.47-.03-.64.26-.56.42.05.6.11,1.08.35,2.13.81,3.22,1.12.36.1.67.17,1.04-.56.52-1.03.84-2.01,1.07-3.11.09-.45.69-.33,1.27-.12ZM53.62,85.34c.01-.41-.23-.52-.56-.51-.36,0-.71.09-.74.51-.02.35.34.44.6.51.41.1.61-.16.69-.5Z"/>
      <path class="cls-2" d="M37.7,75.22c-.68-.1-.52-.62-.43-1,.11-.45.4-.11.66-.07,1.13.18.63-.64.41-.9-.65-.78-.24-1.25.52-1.94.03,1.7,1.05,2.73,1.94,3.88.46.59.69,1.22,1.59,1,.08-.02.26.02.26.04.1,1.46,1.05.6,1.68.64.41.02.79.4.78.7,0,.85-.67.07-.7.15-.25.69-1.22.09-1.42.85-.09.36-.42.52-.81.4-.43-.13-.37-.5-.39-.83-.01-.33.02-.67-.02-1-.05-.45-.49-.39-.78-.5-.42-.16-.62.18-.8.44-.18.26-.15.55.13.76.36.26.86.64.41.98-.35.26-.99-.01-1.32-.49-.26-.38-.5-.78-.99-1.54.19,1.75-.49,2.88-1.06,4.22-.51-1.05-.35-2.08-.95-2.87-.15-.2-.18-.61,0-.64,1.43-.22.14-1.15.46-1.64,0,0,0,0,0,0,.58.29,1.18.6.91-.54.15-.09.3-.17.44-.28.02-.01-.05-.2-.1-.21-.31-.07-.37.17-.45.39Z"/>
      <path class="cls-2" d="M92.03,90.86c-.55.68-.23,2.11-1.86,1.93-.37-.04.22.8.12,1.25h0c-.79.3-1.48.11-1.66-.71-.12-.55-.61-.66-.88-1.13.78-.34,1.69-.03,2.33-.63-.09-.43-.41-.41-.77-.35-1.65.3-2.01.03-2.24-1.55-.04-.25.02-.36.19-.44.24-.12.51-.1.64.13.39.67.94.73,1.76.49-.82-1.65-2.43-1.88-3.88-2.37.04-.63.61-.28.88-.47.18-.13.47-.11.51-.42.12-1,.13-1,1.06-.5.83.45,1.69.86,2.49,1.36.85.53,1,1.18.13,1.87.76.43,1.55-.58,2.45.17-.8.18-1.02.8-1.3,1.38-.01-.32.1-.7-.37-.81-.14-.03-.3.01-.28.2.04.38.25.61.66.6Z"/>
      <path class="cls-2" d="M69.56,92.26c1.24.22,1.16.21,1.25-.77.05-.52.82-.57,1.14-1.04.22-.33.58-.07.8.25.39.59.94.95,1.65,1.02.57.06,1.1.42.77.86-.31.41-.55,1.36-1.46.98-.2-.08-.32-.28-.6-.32-1.84-.22-1.94-.17-2.15,1.81-.05.46-.39.61-.59.91-.17.27-.75.71.11.94.36.1.14.37.05.54-.11.2-.17.51-.46.48-.67-.06-.47-.98-1.14-1.17-.3-.08.07-.36.19-.53.44-.61.87-1.22,1.39-1.97-1.09-.1-1.71.39-2.26,1.04-.32.38-.56.98-1.24.66-.25-.12-.59-.2-.62-.53-.05-.64.64-.68.86-.98.64-.83,2.2-.66,2.2-2.08.03-.04.07-.07.1-.11Z"/>
      <path class="cls-2" d="M25.1,58.99c.52-.35-.11-.82.33-1.1.67.62,1.37,1.14,2.23.28.09-.09.2-.25.25-.03.34,1.65,1.21,1,2.13.43-.64,1.42-.97,2.91-2.46,3.7-.75.4-.35,1.7-1.58,1.95-.9.18-1.64.09-1.4-.81.34-1.28-.62-2.44-.08-3.68.12-.27-.19-.5-.35-.74-.24-.36-.43-.92.02-1.12.48-.21.51.39.65.72.05.12.16.23.28.39ZM27.1,60.7c-.36-.45-1-.75-1.26-1.35-.3.34-.74.59-.77,1.11-.05.77.68.88,1.12,1.07.34.15.79-.22.92-.82ZM25.42,62.87c.29-.51.25-.76.1-1-.02-.03-.15,0-.23,0,.03.25.06.49.13,1Z"/>
      <path class="cls-2" d="M86.61,109.06c1.04-.56,1.07.5,1.38.9.84,1.05,2.19,1.71,2.49,3.18.13.64.3,1.13-.77.84-.91-.25-1.74-.35-1.7-1.57,0-.2-.16-.56-.32-.6-1.09-.31-1-1.72-1.99-2.08-.25-.09-.31-.23-.22-.4.27-.53.78-.16,1.13-.26ZM89.33,112.1s-.09,0-.1.02c-.02.03-.02.08-.03.12.06-.01.12-.02.18-.03-.02-.04-.03-.08-.05-.12Z"/>
      <path class="cls-2" d="M10.35,34.31c0,.81-.7.96-1.2.98-.89.04-1.84.64-2.64-.6-.8-1.25.31-1.59.67-2.31.07-.13.18-.14.29.03.9,1.46,1.69-.3,2.56-.13.02,0,.13-.42.19-.63.49-.12.41.34.55.52.22.28.98-.17.79.68-.19.83-.82.52-1.26.58-.54.08-1.1-.01-1.64,0-.41,0-.62.24-.58.65.05.48.32.44.72.36.51-.11,1.04-.09,1.57-.12h-.01Z"/>
      <path class="cls-2" d="M74.94,97.89c-1.78.21-2.37-.91-2.73-2.3-.08-.31-.07-.57.19-.77.38-.29.64-.02.84.24.31.42.57.87.84,1.31.08.13.04.48.31.3.31-.2,1-.68.86-.29-.39,1.11,1.24,2.12,0,3.12-.17.14-.33.23-.48.08-.27-.27-.64-.55-.7-.87-.1-.53.68-.16.87-.83Z"/>
      <path class="cls-2" d="M124.8,105.74c.45,1.38-.77,3.75-2.04,4.02-.83.18-1.06-.74-1.47-1.18-.31-.33.1-.84.7-.95.56-.1,1.15-.34,1.61-.58.37-.19.8-.74,1.2-1.31Z"/>
      <path class="cls-2" d="M102.88,109.01c1.16-.6,1.41.15,1.68,1.03,1.21-1.38,1.88.1,2.73.51.43.21.36.82.06,1.28-.32.49-.78.72-1.34.62-.62-.11-.43-.66-.42-1.05.02-.64-.11-.93-.88-.9-.52.02-1.49.11-1.09-1.06.05-.14-.56.01-.74-.43Z"/>
      <path class="cls-2" d="M18.31,54.79c-1-.45-2.48,1.57-2.92-.88-.13-.75.16-1.18.69-1.34,1.86-.57,1.72,1.07,2.23,2.22Z"/>
      <path class="cls-2" d="M74.14,88.98c-.34.08-.8.3-.73-.25.05-.38.04-1.02.73-1.04.55-.01,1.05-.01.96-.84-.04-.35.43-.41.66-.27.73.44.97,1.27.83,1.95-.12.6-.73,1.11-1.55.62-.26-.16-.57-.4-.9-.18Z"/>
      <path class="cls-2" d="M99.89,92.43c1.16-1.36,1.52-1.32,2.72.33-.95-.22-1.75-.14-2.27.71-.15.24-.46.31-.6.12-.48-.65-.65-1.5-1.3-2.07-.13-.12,0-.47.28-.55.28-.09.58-.13.72.22.16.38-.09.88.45,1.25Z"/>
      <path class="cls-2" d="M38.14,65.27c.34.04.55.23.46.57-.18.69-.81.57-1.16.38-.58-.32-1.71.03-1.66-1.03.02-.52.32-1.3,1.14-1.24.63.05,1.41.12,1.04,1.15-.04.07-.13.16-.11.2.1.17.19.05.28-.03ZM36.61,64.84c.46.19.57.24.68.28.04-.11.09-.23.1-.34,0-.04-.14-.11-.21-.11-.12,0-.24.07-.56.17Z"/>
      <path class="cls-2" d="M131.9,98.11c-.79.57-.33,1.54-.84,2.19-.28.35-.67.65-.45,1.24.09.25-.08.73-.5.72-.4-.01-.58-.48-.52-.75.27-1.33.67-2.63,1.43-3.78.11-.17.33-.23.5-.09.14.11.23.28.37.47Z"/>
      <path class="cls-2" d="M35.41,23.16c.96-.15,1.21.41,1.41.95.24.66.67,1.11,1.19,1.53.12.09.59-.35.42.34-.15.61-.45.89-.95,1.04-.35.1-.57-.16-.54-.48.11-1-1.31-1.58-.75-2.73.03-.06-.47-.39-.78-.64Z"/>
      <path class="cls-2" d="M60.57,64.1c.36.52.05,1.14.49,1.43.56.37.52.88.16,1.18-.4.34-1.02.25-1.48-.03-.38-.23-.56-.52-.35-1.08.24-.62.56-1.09,1.18-1.51Z"/>
      <path class="cls-2" d="M72.84,73.47c.08.5.06.9-.61,1.13-.59.2-1.2.51-1.05,1.37.06.34-.14.73-.56.6-.18-.06-.37-.67-.36-.68.63-.36-.15-1.16.49-1.52.28-.16.02-1.33.91-.39.42.44.52-.76,1.18-.51Z"/>
      <path class="cls-2" d="M62.86,87.15c-.01.33.04.73-.41.78-.62.07-.86.37-.7.95.15.56-.21.53-.55.52-.46-.01-.79-.25-.6-.72.33-.83.78-1.6,1.43-2.24.18-.18.44-.24.65-.09.27.19.16.52.18.79Z"/>
      <path class="cls-2" d="M85.39,92.01c-.14,1.25.29,2.05,1.68,1.89.44-.05.61.12.77.42.12.22.17.48-.01.66-.27.26-.67.26-.94.1-.81-.49-1.83-.77-1.97-1.98-.05-.5-.23-.96.48-1.09h0Z"/>
      <path class="cls-2" d="M96.94,113.94c-.69.03-1.59.81-1.86-.58-.09-.49.04-.82.52-.69.51.13.88.22,1.23-.29.13-.19.44-.18.63.03.27.3-.07.38-.22.51-.34.28-.37.64-.31,1.03h0Z"/>
      <path class="cls-2" d="M97.8,93.46c-.16.25.2,1.11-.67.47-.92-.67-.89-1.68-1.19-2.63.64.47.88,1.37,1.97,1.28.48-.04.71.64-.1.88-.01-.04-.02-.08-.04-.11-.01-.02-.05-.01-.08-.02.04.04.09.08.13.12Z"/>
      <path class="cls-2" d="M12.85,50.49c-.4-.57-1.4-.83-.99-1.81.41-.99,1.43-.26,2.09-.69-.19.51-.82.64-.86,1.18-.04.44.29.93-.23,1.32Z"/>
      <path class="cls-2" d="M63.01,84.16c-1.12.11-.61-.74-.78-1.09-.28-.57.24-.57.63-.55.52.03,1.17,0,1.1.75-.05.55-.24,1.19-.95.88Z"/>
      <path class="cls-2" d="M72.35,85.31c-.16.33-.35.87-.71.7-.53-.25-1.02-.71-1.32-1.21-.11-.19.51-.77.88-.61.46.2,1.12.38,1.16,1.12Z"/>
      <path class="cls-2" d="M60.7,85.5c-.7-.03-1.47.18-1.8-.48-.18-.35.02-.88.54-.99,1.24-.27.57,1.2,1.26,1.47Z"/>
      <path class="cls-2" d="M12.9,46.92c.16-.59.32-1.18.5-1.84.78.2,1.17.89,1.15,1.44-.03,1.17-1.23-.25-1.66.4Z"/>
      <path class="cls-2" d="M23.91,33.17c.17-.64.59-.69,1.08-.41.29.16.38.54.08.7-.43.22-.4,1.06-1.09.84-.4-.13-.85-.37-.78-.87.05-.34.46-.22.73-.27.09.08.18.16.27.24.03-.06.06-.11.09-.17-.13-.02-.25-.04-.38-.06Z"/>
      <path class="cls-2" d="M58.72,80.85c-.43.23-.65.75-1.23.75-.32,0-.38-.46-.28-.49.82-.23-.47-1.43.65-1.41.58.01.57.66.86,1.15Z"/>
      <path class="cls-2" d="M73.14,54.5c.54-.09,1.06-.85,1.53-.07.14.23.47.68.08.87-.74.37-1.11-.37-1.62-.8Z"/>
      <path class="cls-2" d="M105.95,114.39c-.39.26-.76.54-1.16.77-.28.17-.63.59-.91.11-.22-.37.05-.73.4-.94.55-.33,1.12-.52,1.67.06Z"/>
      <path class="cls-2" d="M10.1,51.12c.67-.04.82.4,1.12.6.31.21.72.39.49.88-.07.14-.29.32-.41.3-.38-.06-.74-.24-.89-.63-.13-.34-.19-.7-.31-1.15Z"/>
      <path class="cls-2" d="M113.1,70.26c-.12-.16-.21-.23-.21-.3.03-.63-.34-1.37.45-1.8.09-.05.37.04.37.07.05.74.02,1.46-.61,2.03Z"/>
      <path class="cls-2" d="M32.86,60.93c0-.45.05-.83-.01-1.19-.08-.43-.63-.78-.19-1.28.06-.06.3-.07.36-.01.42.43.55,1.01.59,1.56.02.34-.29.67-.74.92Z"/>
      <path class="cls-2" d="M54.71,51.97c.35.1.81.16.76.52-.06.39-.39.73-.85.8-.3.04-.56-.05-.6-.42-.06-.54.33-.71.69-.9Z"/>
      <path class="cls-2" d="M19.33,56.95c.34-.09.59.04.59.38,0,.79-.74.73-1.22.92-.32.13-.54-.12-.51-.46.05-.7.69-.66,1.14-.84Z"/>
      <path class="cls-2" d="M70.27,88.72c-.03.5-.38.37-.63.38-.52.03-.69-.21-.47-.69.16-.33-.08-1.05.57-.9.52.12,0,.97.53,1.21Z"/>
      <path class="cls-2" d="M87.74,56.58c-.67.17-1.1.75-1.59.17-.25-.29-.17-.67.16-.88.69-.44.87.29,1.44.72Z"/>
      <path class="cls-2" d="M65.46,95.64c-.1-.83-.88-1.09-1.26-1.67.62.42,2.18.04,1.26,1.67Z"/>
      <path class="cls-2" d="M22.1,57.22c-.51-.58-1.36-.9-.89-2.06.15.84,1.62.85.89,2.06Z"/>
      <path class="cls-2" d="M94.31,91.88c-.13.08.25.56-.27.35-.28-.11-.67-.16-.53-.65.06-.21-.02-.57.29-.56.51.02.53.44.51.85Z"/>
      <path class="cls-2" d="M30.57,62c-.24-.02-.5,0-.7-.08-.27-.12-.71-.18-.59-.65.06-.25.28-.39.54-.39.59,0,.26.47.38.72.08.16.24.28.37.42,0,0,.01-.01.01-.01Z"/>
      <path class="cls-2" d="M110.58,112.26c-.63.28-1.04.38-1.39.06-.14-.13-.01-.37.15-.47.49-.31.74.08,1.24.42Z"/>
      <path class="cls-2" d="M102.38,90.42c.26,0,.3.2.29.38,0,.23-.03.49-.32.54-.19.04-.4,0-.38-.26.02-.28.14-.53.41-.66Z"/>
      <path class="cls-2" d="M89.4,84.62c-.04.23-.1.42-.34.36-.09-.03-.19-.2-.19-.31,0-.18.1-.37.32-.31.09.02.15.19.2.27Z"/>
      <path class="cls-2" d="M11.87,50.86c-.1-.03-.18-.04-.25-.06.06-.1.11-.25.19-.28.09-.03.22.05.34.09-.1.09-.19.18-.28.25Z"/>
      <path class="cls-2" d="M87.92,114.14c-.04-.07-.13-.15-.11-.21.03-.15.17-.21.3-.12.05.03.08.18.05.23-.04.06-.15.07-.24.1Z"/>
      <path class="cls-2" d="M21.78,60.49c-.03.08-.06.15-.1.23-.08-.04-.19-.05-.22-.11-.02-.05.05-.14.08-.22.08.03.15.07.23.1Z"/>
      <path class="cls-2" d="M69.46,92.37c-.14-.1-.33-.17-.4-.31-.07-.13.1-.3.23-.22.13.08.19.28.28.42-.04.03-.07.07-.1.11Z"/>
      <path class="cls-2" d="M78,101.12c-.08.04-.16.11-.24.11-.08,0-.15-.08-.23-.13.08-.04.16-.11.24-.11.08,0,.15.08.23.13Z"/>
      <path class="cls-2" d="M29.62,58.01c.04.06.07.11.1.17-.04.01-.09.05-.13.04-.08-.02-.15-.07-.22-.11.08-.03.17-.06.25-.1Z"/>
      <path class="cls-2" d="M65.24,96.29c.16.1.32.3.15.41-.22.14-.21-.15-.26-.29.04-.04.08-.08.12-.12Z"/>
      <path class="cls-2" d="M52.36,87.59s.05.07.04.11c0,.03-.04.06-.07.09-.02-.04-.05-.07-.04-.11,0-.03.04-.06.07-.09Z"/>
      <path class="cls-2" d="M34.12,71.71s-.07.03-.11.04c-.01-.05-.02-.11-.03-.16.04,0,.09,0,.12.02.02.01.02.06.02.09Z"/>
      <path class="cls-2" d="M85.4,92.02s.04-.08.06-.13c-.02.04-.05.08-.07.12,0,0,0,0,0,0Z"/>
      <path class="cls-2" d="M90.29,94.04s.09.08.13.11c-.03,0-.06,0-.08-.02-.02-.03-.03-.07-.05-.1,0,0,0,0,0,0Z"/>
      <path class="cls-2" d="M63.18,95.19s-.08-.04-.12-.07c.03.03.07.05.1.08,0,0,.01-.01.01-.01Z"/>
      <path class="cls-2" d="M65.12,96.41c-.03-.07-.06-.14-.09-.21.07.03.14.06.21.09-.04.04-.08.08-.12.12Z"/>
      <path class="cls-2" d="M30.55,62.02s.09.08.14.11c-.03,0-.06,0-.08-.02-.02-.03-.03-.07-.05-.11,0,0-.01.01-.01.01Z"/>
      <path class="cls-2" d="M40.64,85.35l.14-.17c.17.15,0,.17-.09.22,0,0-.05-.05-.05-.05Z"/>
      <path class="cls-2" d="M10.37,34.32s.08-.08.11-.13c0,.02,0,.06-.02.07-.03.02-.07.03-.1.04,0,0,.01.01.01.01Z"/>
      <path class="cls-2" d="M95.49,73.55s.07.04.1.05c-.03-.02-.06-.04-.1-.06,0,0,0,0,0,0Z"/>
      <path class="cls-2" d="M103.58,113.95s.07-.08.11-.12c0,.02,0,.06-.02.07-.03.02-.07.03-.1.04,0,0,.01.01.01.01Z"/>
      <path class="cls-2" d="M17.28,59.41c-.12,1-.67,1.91-.56,2.97.09-.8-1.21-1.52-.16-2.34.17-.13-.02-.42-.19-.42-.37,0-.76.02-1.11.14-.28.09-.18.35-.12.6.11.42.89.53.5,1.28-.52-.42-1.01-.99-1.77-.5-.17.11-.48-.06-.52-.35-.05-.39.19-.55.52-.44.69.23.47-.4.65-.65.12-.16.12-.4-.08-.49-.37-.16-.67.03-.84.35-.3.57-.79.24-1.12.18-.24-.05-.46-.5-.28-.86.32-.65-.01-.78-.57-.96-.51-.16-.68-.81-.21-1.03.72-.35,1.63.38,2.41-.17.08.17.24.34.22.5-.07.73-.78.3-1.22.68.97.35,1.87.74,2.75,1.11.85.36.24-.94.85-1.16.74.26-.26,1.54.87,1.59,0,0-.01-.01-.01-.01Z"/>
      <path class="cls-2" d="M52.21,92.01c-1.32.3-2.16-.45-2.91-1.36-.26-.31-.38-.73-.13-1.05.27-.34.58-.01.88.12.97.41,1.91.94,3.34.49-.62.73-1.57.92-1.18,1.83l.02-.02Z"/>
      <path class="cls-2" d="M52.2,92.02c1.06-.18,1.39,1.07,2.38,1.19-.54.26-.71,1.17-1.33.97-.98-.32-.78-1.4-1.03-2.18,0,0-.02.02-.02.02Z"/>
      <path class="cls-2" d="M46.28,86.71c-.46-.25-1.24,1.14-1.46-.1-.1-.55.87-.78,1.45-.88.49-.08.77.34.73.84-.05.6-.37.4-.71.14Z"/>
      <path class="cls-2" d="M33.15,67.7c-.13.6-.65.86-1.05.85-.58-.02-.62-.74-.79-1.16-.15-.36.35-.53.67-.44.44.14,1.07.09,1.16.75Z"/>
      <path class="cls-2" d="M59.98,97.14c.65-.24,1.11-.15,1.12.69,0,.37-.2.55-.54.44-.55-.17-1.18-.46-1.26-1.01-.08-.49.38-.37.69-.12Z"/>
      <path class="cls-2" d="M35.72,76.3c-.05.26.06.7-.4.56-.32-.1-.81-.29-.76-.68.03-.3.23-.83.66-.78.42.05.44.54.5.9Z"/>
      <path class="cls-2" d="M67.21,103.84c-.28.46-.29.99-.37,1.56.01-.69-1.17-.45-.89-1.21.22-.59.83-.28,1.27-.33,0,0-.01-.01-.01-.01Z"/>
      <path class="cls-2" d="M86.16,106.54c-1-.41-.86-.98-.31-1.72.12.66.22,1.19.31,1.72Z"/>
      <path class="cls-2" d="M19.63,67.45c.71.14,1.21.12,1.49.63.03.05-.14.32-.22.32-.53.04-.85-.29-1.27-.95Z"/>
      <path class="cls-2" d="M48.34,87.44c-.36.37-.5.81-.98.52-.09-.06-.21-.27-.18-.31.25-.36.63-.26,1.15-.21Z"/>
      <path class="cls-2" d="M15.54,63.1c-.1-.16-.21-.25-.22-.36-.01-.2.08-.38.32-.32.08.02.17.22.16.33,0,.1-.14.19-.26.35Z"/>
      <path class="cls-2" d="M28.8,68.33c.05-.21.1-.42.15-.62.04.03.1.05.11.08.08.25.02.44-.21.58,0,0-.05-.04-.05-.04Z"/>
      <path class="cls-2" d="M19.3,63.16c-.1.08-.2.16-.3.24-.03-.04-.06-.08-.08-.11.13-.04.26-.08.4-.11,0,0,0-.01,0-.01Z"/>
      <path class="cls-2" d="M37.3,84.09s-.08.06-.12.06c-.04,0-.07-.05-.1-.07.07,0,.15.01.22.02Z"/>
      <path class="cls-2" d="M82.8,107.59s-.09-.04-.13-.06c.04.02.08.05.12.07,0,0,.01-.01.01-.01Z"/>
      <path class="cls-2" d="M82.79,107.6s.08.08.12.12c-.03,0-.06,0-.07-.03-.02-.03-.02-.07-.04-.1,0,0-.01.01-.01.01Z"/>
      <polygon class="cls-2" points="33.6 73.35 33.62 73.43 33.55 73.42 33.6 73.35"/>
      <polygon class="cls-2" points="21.47 67.3 21.5 67.38 21.43 67.37 21.47 67.3"/>
      <path class="cls-2" d="M86.83,114.23s-.02.07-.05.1c-.01.02-.05.01-.08.02.04-.04.09-.07.13-.11,0,0,0,0,0,0Z"/>
      <path class="cls-2" d="M93.89,80.6c-.27.41-.69-.04-1.04.22-.64.47-.89.12-.72-.53.16-.62-.08-1.11-.34-1.61-.11-.21-.31-.4-.04-.6.36-.26.49.04.64.28.49.75,1,1.5,1.49,2.24Z"/>
      <path class="cls-2" d="M94.61,85.35c-.38,0-.77.07-.77-.42,0-.35.2-.63.58-.68.51-.07.63.37.7.71.09.42-.32.34-.51.39Z"/>
      <path class="cls-2" d="M95.18,79.64c-.26-.04-.59.07-.7-.28-.02-.06.13-.25.22-.26.37-.07.47.2.54.49,0,0-.06.06-.06.06Z"/>
      <path class="cls-2" d="M53.62,85.34c-.08.35-.29.6-.69.5-.26-.06-.62-.16-.6-.51.02-.42.38-.5.74-.51.32,0,.57.1.56.51Z"/>
      <path class="cls-2" d="M37.7,75.22c.08-.21.15-.45.45-.39.05.01.11.2.1.21-.14.11-.29.19-.44.28-.04-.04-.07-.07-.11-.11Z"/>
      <path class="cls-2" d="M92.03,90.86c-.41,0-.61-.22-.66-.6-.02-.18.14-.23.28-.2.46.11.35.49.37.81,0,0,0,0,0,0Z"/>
      <path class="cls-2" d="M27.1,60.7c-.12.6-.58.97-.92.82-.44-.19-1.16-.3-1.12-1.07.03-.52.47-.77.77-1.11.27.61.9.9,1.26,1.35Z"/>
      <path class="cls-2" d="M25.42,62.87c-.07-.51-.1-.76-.13-1,.08,0,.21-.04.23,0,.15.24.18.5-.1,1Z"/>
      <path class="cls-2" d="M89.33,112.1s.03.08.05.12c-.06.01-.12.02-.18.03,0-.04,0-.09.03-.12.02-.02.07-.02.1-.02Z"/>
      <path class="cls-2" d="M36.61,64.84c.32-.1.44-.16.56-.17.07,0,.21.07.21.11,0,.12-.06.23-.1.34-.11-.05-.22-.09-.68-.28Z"/>
      <path class="cls-2" d="M38.14,65.27c-.09.07-.18.19-.28.03-.02-.03.07-.13.11-.2.06.06.12.11.17.17Z"/>
      <path class="cls-2" d="M97.8,93.46s-.09-.08-.13-.12c.03,0,.07,0,.08.02.02.03.03.07.04.11,0,0,0,0,0,0Z"/>
      <path class="cls-2" d="M23.91,33.17c.13.02.25.04.38.06-.03.06-.06.11-.09.17-.09-.08-.18-.16-.27-.24,0,0-.01.02-.01.02Z"/>
    </g>
  </g>
</svg>