<?xml version="1.0" encoding="UTF-8"?>
<svg id="Layer_2" xmlns="http://www.w3.org/2000/svg" viewBox="0 0 94.35 76.36">
  <defs>
    <style>
      .cls-1 {
        fill: #adc192;
      }

      .cls-2 {
        fill: #a6bc88;
      }

      .cls-3 {
        fill: #a5bb87;
      }

      .cls-4 {
        fill: #c3d2b0;
      }

      .cls-5 {
        fill: #a2b984;
      }

      .cls-6 {
        fill: #abbf8f;
      }

      .cls-7 {
        fill: #afc394;
      }

      .cls-8 {
        fill: #9fb67f;
      }

      .cls-9 {
        fill: #35481d;
      }

      .cls-10 {
        fill: #c7d5b5;
      }

      .cls-11 {
        fill: #6b8e3d;
      }

      .cls-12 {
        fill: #60783e;
      }

      .cls-13 {
        fill: #93ad6f;
      }

      .cls-14 {
        fill: #95af72;
      }

      .cls-15 {
        fill: #506b2b;
      }

      .cls-16 {
        fill: #bdcda7;
      }

      .cls-17 {
        fill: #668a37;
      }

      .cls-18 {
        fill: #698c3b;
      }

      .cls-19 {
        fill: #a7bc8a;
      }

      .cls-20 {
        fill: #d9e2cc;
      }

      .cls-21 {
        fill: #d4dfc6;
      }

      .cls-22 {
        fill: #a1b882;
      }

      .cls-23 {
        fill: #a9be8d;
      }

      .cls-24 {
        fill: #88a561;
      }

      .cls-25 {
        fill: #afc395;
      }
    </style>
  </defs>
  <g id="Layer_2-2" data-name="Layer_2">
    <g>
      <path class="cls-7" d="M73.85,8.75c1.37.93,2.75,1.86,4.12,2.79.23,1.39,1.59,1.95,2.21,3.07,1.72,3.09,1.07,4.45-2.72,5.61-2.39.78-2.33,2.79-2.34,4.25-.12-1.3.07-2.98,1.74-4.1,4.9.28,7.44,2.47,8.79,7.55-2.08,3.26-5.56,5.59-6.23,9.83-.21,1.32-1.61,2.11-2.98,2.27-4.47.51-8.2,3.2-12.52,4.13-.46.17-.96.5-1.41.41-7.53-1.47-11.85,2.49-14.85,8.71-2.34.94-4.92.94-6.3,4.1-.87,1.99-3.98,2.5-6.55,1.81-2.54-2.25-4.33.75-6.52.93-1.65.25-3.08-.04-4.04-1.57-1.08-2.16.8-3.78,1.06-5.69.86-1.84-.5-3.27-.93-4.88-.51-1.59-.14-2.95,1.06-4.08,1.48-.99,2.98-.57,4.54-.16.94.25,2.38.93,2.17-1.15-1.7-3.25-4.25-2.06-6.7-1.34-3.04-1.44-1.33-4.33-1.99-6.49,4.69-3.98,7.17-10.79,14.53-11.37,2.57.97,3.81,3.66,6.23,4.8.83.02,1.59-.13,2.15-.74.39-.88-.3-1.12-.92-1.42-.93-.5-1.49-1.25-1.73-2.25.55-4.03.7-8.24,4.6-10.85.86-.09,1.62.23,2.37.6,1.52,1.12,1.54,2.59.93,4.18-.32.57.08-.16-.27.4-.43.69-1.14,1.31-.02,1.98.32.19.21.17-.25-.13-.45-.3-.47-.79-.22-1.27,1.41-3.29,3.34-4.06,7.24-3.52,4.55.64,10.09,1.14,12.89-4.56.55-1.12,1.92-1.18,2.84-1.83Z"/>
      <path class="cls-21" d="M49.85,14.69c-.33-.32-.67-.64-1-.96-3.21-.79-4.04,2.29-5.76,3.74-1.36,1.15-2.35,2.3-4.21,1.24-1.62-.72,2.08-6.63-3.47-3.55-.21.12-.37.09-.46.21-.13.16-.02.13.43-.12,5.27-2.95,1.85,3.05,3.72,3.6,3.07,1.87,2.98,2.74-.52,4.84-5.19-.12-8.96,3.57-13.51,5.16-.24.08.15,1.23.11,1.89-2.9,3.49-5.03,8.11-10.81,7.37-2.3-.93-3.56-3.25-5.92-4.26-1.7-.73-2.12-2.62-.5-4.03,1.1-.96,1.66-1.95,1.54-3.26.02-.07,0-.05,0-.05-1.29,3.45-2.52,7.08-6.59,2.19C9.58,13.53,20.92,4.04,37.27.84c6.24-1.22,12.52-1.22,18.69.73,2.98,2.52,7.11,1.83,10.37,3.85,3.15,1.94,3.61,3.91.64,6.29-3.07,2.46-6.28,4.03-10.45,2.6-2.13-.73-4.53-1.19-6.66.38Z"/>
      <path class="cls-16" d="M2.9,28.72c2.87.91,4.72.08,5.89-2.86.69-1.73.57-3.98,2.86-5.4-.46,3.91-.69,7.48-3.41,10.89,3.29.69,6.54,1.32,6.62,5.36.86.74,2.35.41,2.87,1.72.24.84.14,1.63-.28,2.24.56-1.27,1.43-2.51,2.44-3.65,1.15-1.09,2.24-2.25,3.77-2.84.48,0,.87.17,1.2.52.33,2,.66,4,1,6,.25.06.49.12.74.17,1.61,1.18,1.48,2.47.24,3.82-.82,1.2-.97,2.58-1,3.98.45,1.04,1.21,2.02.59,3.25-.53.75-.96,1.58-1.78,2.08-1.74,1.19-3.56,1.2-5.58.72-1.46-.35-3.26-1.02-4.23,1.07-1.78,2.18-3.57,1.85-5.45.12-1.75-1.6-4.46-2.74-2.58-5.91.54-.92.62-1.85.19-2.44.58,3.03-1.43,4.41-4.2,5.25-3.05-5.93-3.7-12.04-1.46-18.42.65-1.85,1.05-3.78,1.57-5.67Z"/>
      <path class="cls-12" d="M93.73,34.75c1.56,9.11.34,17.55-6.04,24.72-4.69,3.21-8.77,7.35-13.98,9.78-2.69,1.25-5.36,4.08-8.68,1.13-1.78-3.07,1.55-4.54,2.15-6.87.48-1.36.99-2.71,2.57-3.18,3.09.37,5.03-1.47,6.83-3.57,4.36-4.95,8.94-9.76,10.64-16.45.33-1.3,1.63-2.96,2.61-2.7,3.67.98.95-1.72,1.57-2.4.63-.92,1.36-1.33,2.32-.43Z"/>
      <path class="cls-4" d="M49.85,14.69c.49-1.75.99-3.49,1.53-5.41,1.87,0,2.72,4.56,4.95,1.03.3-.47.83-.52,1.18.02,3.37,5.28,5.78-.18,8.39-1,2.01-.63,1.03-2.31-.49-3.3-2.62-1.72-5.46-2.29-8.56-1.99-3.2.31-1.97-1.15-.9-2.48,6.39,1.35,12.66,2.98,17.9,7.18-.34,1.28-.6,2.58-1.03,3.83-1.33,3.82-2.9,4.71-6.71,4.07-.6-.1-1.3.45-1.92.37-3.18-.39-6.56,4.04-9.72-.33-.1-.13-2.37,1.3-3.63,2.01h0c0-1.42-.17-2.8-1.01-4.01Z"/>
      <path class="cls-15" d="M57.89,75.54c-13.32,2.18-25.96-.06-38.06-5.82-.28-2.41,1.52-2.27,3.03-2.48,6.8,2.22,13.84,2.83,20.94,3.01,3.92-.15,7.84.33,11.77-.58,3.24-.74,3.93,1.48,3.58,4.21-.28.66-.76,1.18-1.27,1.67Z"/>
      <path class="cls-9" d="M57.89,75.54c-.01-.63-.03-1.26-.04-1.89,2.66-4.96,3.76-5.51,8-3.98,3.52.97,5.95-1.05,8.39-3.05,4-3.28,8.11-6.37,13.45-7.15-7.28,10.27-17.78,14.57-29.8,16.07Z"/>
      <path class="cls-1" d="M76.84,19.71c4.98-2.08.13-5.53,1.13-8.16,4.94,3.07,8.95,7.04,11.7,12.2-.56,4.12-1.36,8.1-5.63,10.17-2.71-2.11-2.7-2.26.8-6.24-.65-.69-1.33-1.99-1.96-1.96-3.63.16-4.46-2.82-6.03-4.99-.35-.22-.46-.44-.35-.67.11-.23.22-.34.34-.34Z"/>
      <path class="cls-1" d="M2.79,52.81c-.46-3.64,4.8-5.08,3.34-9.23.82,2.39,3.31,4.1,1.95,6.86-.29.59-.26,1.8.27,1.58,3.41-1.37,2.51,1.48,3.22,2.94.73,1.49,1.56.17,2.31-.25,3.47.53,3.01,2.62,1.99,4.95-2.39,2.69-5.25,2.12-8.17,1.16-2.68-2.03-3.94-4.93-4.91-8.01Z"/>
      <path class="cls-14" d="M83.88,32.68c1.38-2.21,3.15-4.28,3.13-7.07-.01-2.07,1.36-1.85,2.67-1.86,2.14,3.38,3.95,6.87,4.06,11-.62.3-1.24.61-1.86.91-.09,2.22-2.19,2.2-3.46,3.1-4.38.12-3.32-3.83-4.54-6.08Z"/>
      <path class="cls-8" d="M7.7,60.82c1.67-3.15,4.66-1.84,7.17-2.13,1.06-1.17,2.22-1,3.42-.24.42.32.77.69,1.07,1.13,1.89,3.02-.84,4.83-1.86,7.08-.98.64-1.97.6-2.98.08-2.99-1.15-4.81-3.65-6.82-5.93Z"/>
      <path class="cls-18" d="M14.52,66.74c.78-.36,1.56-.71,2.35-1.07.54-.51,1.13-.96,1.76-1.35,3.77-.96,7.59-2.78,11.04.78-.06,4.31-3.24,3.57-5.91,3.65-1.4-.04-2.77,0-3.93.96-2.12-.37-3.71-1.69-5.32-2.97Z"/>
      <path class="cls-25" d="M46.86,52.69c-1.08-5.82,7.08-12.77,13.25-11.25,1.26.31,2.48.82,3.72,1.24,4.99,1.38,9.04,4.17,12.31,8.15.21,1.34-.08,2.51-1.1,3.45-1.9,1.17-4.34,1.09-5.95,3.22-1.12,1.48-3.28,1.25-5.13.53-5.48-2.14-5.89-1.99-8.5,2.83-1.75,1.85-3.85,2.66-6.39,2.17-5.35-2.45-3.38-6.48-2.22-10.33Z"/>
      <path class="cls-3" d="M74.84,50.69c-1.05-.08-1.82-1.04-3.19-.39-1.98.95-3.77.78-4.03-2.2-.21-2.43-3.39-3-3.79-5.42,4.21-1.64,7.02-6.58,12.58-5.16,1.15.29.68-1.17.76-1.9.42-3.8,5.22-4.58,5.73-8.32.65.13,1.3.25,1.95.38-.26,1.68-2.68,2.94-.97,5,4.48-.83,1.74,4.03,3.93,5-1.07,4.35-3.63,8.05-5.72,11.89-1.4,2.58-4.24,4.64-7.25,1.12Z"/>
      <path class="cls-5" d="M46.86,52.69c1.16.55,2.03,1.47,1.28,2.68-1.48,2.4-.25,4.32.73,6.35,1.79,1.67,3.04,3.32-.24,4.74-1.7.73-2.65,2.4-4.19,3.33-3.54,1-7.02-.47-10.57-.29-2.85.14-3.07-3.46-5-4.85-2.51.32-5.1.46-7.27,1.96-1.4.96-2.01-.07-2.77-.87.77-3.55,2.31-6.07,6.6-5.4,1.47.23,2.79-.62,4.09-1.26,1.69-.84,2.97-3.26,5.36-1.39.3-.13.59-.29.91-.37,4.46-1.14,6.69-3.53,3.93-8.82,3.35.97,4.44,4,7.16,4.19Z"/>
      <path class="cls-16" d="M24.87,34.7c-.34,0-.68,0-1.03,0-4.3-1.36,1.47-2.66.03-4-3.78-.53-2.66-4.99-2.32-5.43,1.98-2.59,3.77-.04,5.67,1.28.47-1.53.79-2.8,1.27-4.01.22-.57.75-1.01,1.14-1.51,2.27,2.9,5.62.46,8.23,1.68.63.66.53,1.33,0,1.99-2.4.94-5.14,1.2-4.82,5.12.19,2.31-1.04,2.44-4.62,2.53-1.2.03-2.37,1.52-3.55,2.35Z"/>
      <path class="cls-4" d="M37.86,24.7c0-.66,0-1.33,0-1.99,1.64-1.01,2.83-2.13,1-4h0c1.81-.74,2.14-2.36,2.31-4.02.31-3.14,3.74-2.06,5.3-3.87.86-1,1.59,1.82,2.38,2.92-1.35,3.32-1.22,7.23-4,9.98-1.92,2.81,1,6.14-.97,8.94-3.09-1.83-4.46-4.97-6.02-7.96Z"/>
      <path class="cls-25" d="M29.88,59.73c-2.26,4.63-8.27,2.35-11.06,6.01-.65-.02-1.3-.04-1.95-.06.3-2,1.83-3.8,1-5.99,1.85-2.37,3.77-4.52,7.02-2,1.32.34,2.64.67,3.96,1.01.62.06.96.42,1.04,1.03Z"/>
      <path class="cls-16" d="M25.87,40.69c.98-1.73,1.14-4.49,3.92-4.19,2.85.31,3.81,2.59,4.07,5.19-.64,4.13-3.04,3.4-5.53,1.89-1.08-.66-1.17-2.32-2.47-2.89h0Z"/>
      <path class="cls-1" d="M25.86,40.69c2.58,1.05,4.79,5.02,8,1,1.35-1.23,2.9-2.2,3.83.18.66,1.69.4,3-2.29,2.83-3.26-.2-1.28,3.01-2.5,4.83-1.29-2.68-3.05-4.65-6.05-4.84-.33-1.33-.65-2.67-.98-4Z"/>
      <path class="cls-6" d="M43.88,32.66c-.48-1.55-1.11-3.08-1.42-4.66-.38-1.99-.61-4.09,2.39-4.28.66.33,1.31.67,1.97,1,1.43,1.05-.55,2.99,1.05,4,.27,2.93-3.2,2.08-3.99,3.94Z"/>
      <path class="cls-23" d="M76.84,19.71c0,.34.01.68.02,1.01-.8,3.39.02,7.36-4.34,10.49.25-4.9.94-8.65,4.32-11.51Z"/>
      <path class="cls-8" d="M24.88,57.69c-2.34.67-4.68,1.33-7.02,2,0,0,0,.01,0,.01-1.54-2.77-.47-4.44,2.43-4.6,1.9-.1,3.05-.59,3.56-2.4l1.97-1.03c.9-.22,1.31.08,1.08,1.04.04,1.96-.64,3.62-2.03,4.99Z"/>
      <path class="cls-4" d="M47.87,28.72c-3.04-.25-3.05-.29-1.05-4,1.22-.39,2.43-.79,4.13-1.34-.36,2.54-.49,4.6-3.08,5.34Z"/>
      <path class="cls-19" d="M53.29,31.98c2.09-.19,4.18-.39,6.26-.58,1.44-.13,3.03.25,2.95,1.78-.14,2.58-1.98.68-2.93.6-2.08-.17-4.13-.74-6.2-1.14l-.09-.65Z"/>
      <path class="cls-16" d="M29.88,59.73c-.35-.34-.69-.69-1.04-1.03,2.14-1.14,1.18-3.18.95-5.31,2.7.91,3.65,2.89,5.08,4.3-1.66.68-3.32,1.36-4.99,2.04Z"/>
      <path class="cls-1" d="M26.91,52.7c-.36-.35-.72-.69-1.08-1.04.91-.99-5.22-2.02.02-2.99.85-.61,1.75-1.22,2.41.17.78,1.68-.08,2.85-1.35,3.85Z"/>
      <path class="cls-10" d="M50.85,18.7c2.07,1.63,4.22,3.02,7.86,1.51-4.02,3.19-7.24,2.2-7.85-1.51,0,0,0,0,0,0Z"/>
      <path class="cls-7" d="M23.87,30.7c1.35-.13,1.99.29.98,1.55-.61.75-1.59,1.25-1.01,2.45-.34,1.63-1.32,2.63-2.94,2.98-1.27.64-2.21,2.52-4.03,1.04-.67-.67-1.33-1.34-2-2.01.49-.03,1.4-.03,1.41-.11.41-4.72,5.63-3.24,7.59-5.9Z"/>
      <path class="cls-16" d="M38.86,18.7c-1.04-.58-.31-3.07-3.02-2.12-2.64.92-4.59-1.54-6.71-3.06,2.97-.21,5.84,1.52,8.56-1.15,1.1-1.09,1.91.83,1.88,1.94-.03,1.47-.45,2.93-.71,4.39,0,0,0,0,0,0Z"/>
      <path class="cls-2" d="M23.86,52.69c1.62,2.2.51,3.17-1.65,3.68-1.94.46-3.84.98-4.34,3.32-1-.33-2-.67-3-1-.31-1.33.5-2.95-.99-3.99.2-1.12-1.2-2.08-.31-3.26,2.03,1.81,4.18-1.79,6.02.02,1.32,1.31,2.47,2.09,4.27,1.22Z"/>
      <path class="cls-20" d="M16.87,38.72c1.52.33,2.21-2.52,4.03-1.04-1,2.57-3.26,4.04-5.16,5.81-1.05.98-2.33,1.32-3.53.31-.41-.35-.73-1.17-.64-1.69.3-1.63,1.52-1.27,2.69-1.08,1.74.28,2.23-.98,2.61-2.3Z"/>
      <path class="cls-13" d="M74.84,50.69c3.71.88,6.13-2.6,6.15-4.34.03-5.14,3.79-6.43,6.82-8.67,1.56-.26,2.93-.91,4.07-2.02,1.12,2.02,1.28,4.06.1,6.25-2-.33.16-2.43-1.74-3.07-1.95,3.07-1,7.04-3.81,10.51-2.67,3.3-6.08,5.93-8.56,9.35-3.79,1.49-5.49.27-4.95-3.83.18-.5.48-.9.91-1.21.34-.99.67-1.99,1.01-2.98Z"/>
      <path class="cls-22" d="M73.83,53.67c0,.34.02.69.02,1.03-.86,2.4.24,5.63-2.99,7.01-1.12.68-1.79,1.69-2.15,2.93-2.22,2.29-4.18,1.35-6.08-.48-1.57-1.1-2.65-3.03-5.17-2.36-1.37.36-2.38-.62-2.61-2.12-.85-.98-1.69-1.96-2.42-2.8,3.88-4.94,8.36-3.67,13.01-1.09,1.35.75,2.56.08,3.44-1.15,1.34-1.85,3.12-1.54,4.95-.97Z"/>
      <path class="cls-17" d="M63.84,62.59c1.94-.07,2.56,2.99,4.87,2.06,1.58.78,2.03,1.81.09,2.47-1.45.49-2.68.87-2.95,2.56-2.67,1.33-5.33,2.65-8,3.98-.89-3.66-3.77-2.06-5.51-1.59-2.98.8-5.69.68-8.48-.35-.58-.56-.67-1.22-.41-1.96,3.46-2.73,8.13-3.15,11.47-6.31,2.49-2.35,5.82-1.7,8.92-.85Z"/>
      <path class="cls-24" d="M70.86,61.71c.16-2.69,1.22-5.01,2.99-7.01.74,1.93,1.08,4.27,4.02,4.01-2,1.78-3.6,4.5-7.01,3.01Z"/>
      <path class="cls-11" d="M43.86,69.69c0,.67,0,1.35.01,2.02-6.97.88-13.83.97-20.1-2.96,1.91-1.11,4.28-1.65,5.1-4.11.15-.08.37-.26.43-.21,4.32,3.21,9.95,2.01,14.54,4.32.27.2.37.41.28.62-.08.21-.17.32-.26.32Z"/>
      <path class="cls-14" d="M43.86,69.69c0-.31-.01-.63-.02-.94,1.32-1.46,1.93-3.54,4.42-3.95,2-.32.48-2.02.61-3.08,2-.68,3.99-1.36,5.99-2.04,3.09.69,7.26-1.95,9,2.91-1.4,1.1-1.99,3.73-4.78,2.12-1.25-.72-3.03.53-3.5,1.28-2.92,4.7-7.55,3.32-11.71,3.69Z"/>
      <path class="cls-7" d="M45.3,60.1c-1.41-1.95-2.83-2.95-1.62-4.6.33-.44,1.47-.89,1.72-.69,1.75,1.42.25,2.89-.1,5.29Z"/>
    </g>
  </g>
</svg>