<?xml version="1.0" encoding="UTF-8"?>
<svg id="Layer_2" xmlns="http://www.w3.org/2000/svg" viewBox="0 0 133.22 115.18">
  <defs>
    <style>
      .cls-1 {
        fill: #a8bd8a;
      }

      .cls-2 {
        fill: #7d9c55;
      }

      .cls-3 {
        fill: #7a9951;
      }

      .cls-4 {
        fill: #b4c79b;
      }

      .cls-5 {
        fill: #729347;
      }

      .cls-6 {
        fill: #adc192;
      }

      .cls-7 {
        fill: #b6c89d;
      }

      .cls-8 {
        fill: #526c2d;
      }

      .cls-9 {
        fill: #556f31;
      }

      .cls-10 {
        fill: #99b277;
      }

      .cls-11 {
        fill: #7b9a53;
      }

      .cls-12 {
        fill: #acc190;
      }

      .cls-13 {
        fill: #8faa6a;
      }

      .cls-14 {
        fill: #a6bc88;
      }

      .cls-15 {
        fill: #43552d;
      }

      .cls-16 {
        fill: #6c8f3f;
      }

      .cls-17 {
        fill: #c4d3b0;
      }

      .cls-18 {
        fill: #a9be8c;
      }

      .cls-19 {
        fill: #77974d;
      }

      .cls-20 {
        fill: #b0c395;
      }

      .cls-21 {
        fill: #9db57d;
      }

      .cls-22 {
        fill: #c3d2b0;
      }

      .cls-23 {
        fill: #495a34;
      }

      .cls-24 {
        fill: #b7c99f;
      }

      .cls-25 {
        fill: #b9caa1;
      }

      .cls-26 {
        fill: #a7bd89;
      }

      .cls-27 {
        fill: #3d4f26;
      }

      .cls-28 {
        fill: #abc08f;
      }

      .cls-29 {
        fill: #bacba3;
      }

      .cls-30 {
        fill: #afc394;
      }

      .cls-31 {
        fill: #8ca866;
      }

      .cls-32 {
        fill: #35481d;
      }

      .cls-33 {
        fill: #6b8e3d;
      }

      .cls-34 {
        fill: #637b42;
      }

      .cls-35 {
        fill: #8aa764;
      }

      .cls-36 {
        fill: #60783e;
      }

      .cls-37 {
        fill: #93ad6f;
      }

      .cls-38 {
        fill: #95af72;
      }

      .cls-39 {
        fill: #688b39;
      }

      .cls-40 {
        fill: #4b5c36;
      }

      .cls-41 {
        fill: #6e9041;
      }

      .cls-42 {
        fill: #9ab379;
      }

      .cls-43 {
        fill: #c2d1ad;
      }

      .cls-44 {
        fill: #506b2b;
      }

      .cls-45 {
        fill: #668a37;
      }

      .cls-46 {
        fill: #bbcca5;
      }

      .cls-47 {
        fill: #aabf8e;
      }

      .cls-48 {
        fill: #597236;
      }

      .cls-49 {
        fill: #41532b;
      }

      .cls-50 {
        fill: #9bb37a;
      }

      .cls-51 {
        fill: #90ab6c;
      }

      .cls-52 {
        fill: #475831;
      }

      .cls-53 {
        fill: #c0cfab;
      }

      .cls-54 {
        fill: #5a7438;
      }

      .cls-55 {
        fill: #f3f6ef;
      }

      .cls-56 {
        fill: #9cb47c;
      }

      .cls-57 {
        fill: #5e773c;
      }

      .cls-58 {
        fill: #c7d5b4;
      }

      .cls-59 {
        fill: #bccda6;
      }

      .cls-60 {
        fill: #617a40;
      }

      .cls-61 {
        fill: #749549;
      }

      .cls-62 {
        fill: #78984f;
      }

      .cls-63 {
        fill: #8da967;
      }

      .cls-64 {
        fill: #88a561;
      }

      .cls-65 {
        fill: #cad7b8;
      }

      .cls-66 {
        fill: #75964b;
      }
    </style>
  </defs>
  <g id="Layer_2-2" data-name="Layer_2">
    <g>
      <path class="cls-44" d="M131.26,40.98l1.79,8.09c-.97,2.05-.37,4.22-.28,6.29.13,3.08-1.35,3.69-3.91,3.27-1.09-.04-1.7-.73-2.22-1.61-.27-.46-.4-.56-.23-.43.52.42-.69.14-.03.25s-.31,1.06.04.52c.34.42-.96,1.14.1,1.2,5.2.28,5.21.23,4.37,5.06-.14.83-.05,1.6.22,2.37-2.43,10.6-8.84,18.81-16.2,26.32-4.05,4.13-8.46,7.97-13.73,10.61-2.57-.84-4.26-6.11-7.89-1.56-2.69,3.58-8.18,4.31-12.06,2.47-4.49-2.13-7.37-5.3-8.95-9.87-.39-2.86-2.19-4.93-3.96-7.01-1.12-4.21.02-5.93,3.93-4.94,2.24.56,3.4-.4,4.9-1.31,1.41-.64,2.73-.16,4.06.29,1.94.42,3.88.97,5.81-.06.38-.26.76-.5,1.15-.74,1.52-1.05,3.11-1.35,4.82-.5,3.09,1.66,2.15,5.28,3.78,7.38,3.73-2.03,2.01-5.24,1.27-8.3-.59-5.68.4-7,5.74-7.69,1.91.41,3.59,1.63,5.69,1.51,1.74-.1,3.41-.07,3.6-2.39-.02-2.47,1.23-3.98,4.74-4.98-5.31-.13-7.02-2.62-7.03-6.54.32-1.18.68-2.33,1.48-3.29,4.63-1.57,8.41-7.23,7.99-12.76-.23-3.01-.71-5.47,3.23-6.4,3.43-.82,5.39.14,6.32,3.48.18.64.94.88,1.46,1.27Z"/>
      <path class="cls-19" d="M131.26,40.98c-1.33,2.39-3.99,1.47-4.05.14-.32-7.21-4.2.72-5.36-1.96,3.51,4.52,2.11,10.15-4.03,14.48h3.45c-.48,2.31-4.53,2.79-2.26,6.23-1.68-2.36-3.28-3.82-5.78-3.8-2.07-4.08-5.02-.09-7.47-.81-2.65-.79-5.22-1.64-3.99-5.33,2.59-2.48,3.43-6,5.22-8.96.35-.25.73-.49,1.1-.71,1.31-1.01,1.55-2.38,1.22-3.92-.09-.47-.06-.93.03-1.4.17-.71.53-1.31,1.07-1.79,2.32-1.16,3.7-2.39.35-4.07-.84-.42-1.78-.72-2.32-1.61-.2-.43-.29-.88-.29-1.36.08-.49.35-.9.57-1.34q3.08-5.98,9.57-4.88c6.85,5.47,10.69,12.8,12.96,21.09Z"/>
      <path class="cls-16" d="M74.25,93.05c.8,1.85,5.24,1.77,2.81,5.43-.37.56.74,1.86,1.4,1.69,3-.78,4.06,2.07,5.84,3.14,1.92-.88.67-3.09,2.38-3.99,1.32.8,2.14,7.38,4.54.67,3.27-.69,4.09,1.16,3.67,3.84-.17,1.08-.78,2.1-.57,3.26-3.55,2.02-7.22,3.74-11.19,4.75-1.65-.81-3.98-.99-3.48-3.78.61-1.2,1.69-1.39,2.89-1.29-.89-.2-1.74.16-2.61.17-2.89-.58-5.31-.23-6.38,3.05-.37,1.13-1.06,2.47-2.26,2.43-5.18-.15-9.88,3.47-15.2,1.84-1.05-.32-1.96-.1-2.8.55-2.89-1.29-6.25-.29-9.07-1.9-.87-.75-1.85-1.32-2.85-1.88-1.26-.7-2.01-1.78-1.61-3.21.51-1.85,1.89-2,3.47-1.39,2.13.04,3.57,5.18,6.29.85,1.06-1.66-.65-2.83-.75-4.29-.27-1.45-.22-2.93-.4-4.39-.06-2.58,1.77-3.01,3.73-3.27.81-.18,1.58-.07,2.3.32,1.09.65,1.83,1.68,2.73,2.53,1,1.13.45,5.45,3.77,1.83.55-.72,1.39-1.06,2.07-1.62,2.23-1.54,1.64-4.6,3.44-6.37.57-.43,1.19-.79,1.81-1.14,2.68-1.12,4.62-.2,6.03,2.17Z"/>
      <path class="cls-42" d="M12.26,93.99c-2.06-2.42-4.26-4.75-5.17-7.93,2.43-3.81,3.37-7.71.73-11.84-.13-7.95-2.55-15.53-3.83-23.3,2.39-3.54,1.05-7.2.34-10.84,1.65-4.67,4.5-8.71,6.97-12.94,3.75-.71,4.27,2.29,4.95,4.65.63,2.2.99,4.43,2.8,6.05,1.79,1.87,5.29,2.52,4.47,6.25-.16.76-.56,1.38-1.18,1.84-6.97,3.32-6.78,9.38-5.9,15.64.6,4.24,1.95,8.33,2.44,12.59,1.98,2.31,1.4,5.23,1.92,7.89-.1,2.7.69,5.41-.62,8.1-1.46,3.01-3.14,4.04-5.92,1.65-.3-.56.11.25-.23-.32-.04-.07.04.11.01.2,0,1.27-.55,2.05-1.79,2.29Z"/>
      <path class="cls-42" d="M118.3,19.89c-.13.99-.37,2.52-1.52,2.04-4.47-1.89-5.16,2.6-7.56,4.16-.3.24-.62.45-.95.66-.36.19-.7.41-1.01.67-1.78,1.8-2.79,4.84-6.27,3.91-1.15-.61-2.04-1.64-3.3-2.02-.56-.04-1.07.08-1.55.4-.87.69-1.51,1.69-2.7,1.9-2.28.59-4.35,3.56-6.96.66-1.3-2.73-.04-5.2.82-7.71-.88-5.07,3.43-3.95,5.94-4.99,1.9-2.16,4.9-.32,6.89-1.89-.73-1.29-1.76.16-2.55-.27-1.3-.14-2.21-.81-2.69-1.99.67-.02-.47.13-.12-.43.35-.56,0-.9-.07-.24-.13,1.28.2,2.59-.34,3.84-.28.37-.62.68-1.01.94-1.74,1.4-3.54.49-5.33.16-1.54-1.97-.75-4.9-2.76-6.69-.73-.9-1.91-1.41-2.27-2.63-.11-.47-.14-.95-.11-1.43q2.06-5.7,10.43-5.01c7.97,1.34,13.21,7.62,20.03,11.04.89,2.4,2.87,3.75,4.91,5.04l.02-.12Z"/>
      <path class="cls-17" d="M16.24,40.04c-1.65-4.3-3.29-8.59-4.94-12.88,7.14-11.18,17.33-18.22,29.86-22.11,1.28-.75,2.65-.89,3.54.37.99,1.39-.05,2.46-1.08,3.4-.85.78-1.46,1.85-2.55,2.35-3.65,1.67-3.11,3.75-.62,6.05,1.5,1.62,2.5,3.33,1.02,5.49-2.31,1.88-4.59,3.76-7.9,2.15-1.16-.56-2.24.03-3.15.8-1.56,1.31-3.19,1.55-4.92.46-2.46,1.02-.23,2.98-.88,4.34-.17.91-.58,1.71-1.09,2.47-1.79,1.08-3,2.54-3.1,4.74-.83,1.78-3,1.2-4.18,2.37Z"/>
      <path class="cls-11" d="M14.23,91.02c4.06.79,4.38-1.67,4.13-4.69-.12-1.43-2.49-2.83-.09-4.31,1.08-1.62,1.6-3.76,3.95-4.19,4.04,1.06,4.59,4.93,5.79,7.92.78,1.96-.74,3.99-3.21,4.54-.36.54-.62,1.14-.87,1.74.3-.81.69-1.57,1.27-2.22.92-.23,2.06-.07,2.43-1.29.55-1.86,1.26-3.75,3.67-2.47,2.05,1.09,3.05,3.01,2.32,5.41-.38,1.25-1.11,2.37-1.95,3.39-.83.82-2.28.59-2.95,1.71.41-.5.97-.67,1.58-.81,4.86-.15,3.95,4.88,6.3,7,1.58,1.5,2.28,3.38,1,5.19-1.74,2.46-4.13.55-6.24.44-1.62-.97-2.92-2.69-5.16-2.29-6.01-2.46-10.19-7.02-13.93-12.08.33-1,.67-1.99,1-2.99.33-.49.65-.48.97.02Z"/>
      <path class="cls-28" d="M5.3,51.22c4.03,7.13,5.08,14.78,3.95,22.81-1.31,1.67.1,3.16.28,4.74.25,2.27.89,5.03-3.11,4.3C-.22,73.18-1.28,62.4,1.29,51.04c1.44-2.17,2.77-1.99,4.01.18Z"/>
      <path class="cls-22" d="M46.19,4.13C52.7.17,59.93-.06,67.23.06c1.87,1.05,3.9.25,5.84.5.91.12,2.25-.29,2.25,1.18,0,1.13-1.01,1.64-2.08,1.74-3.06.31-6.42-.63-8.88,2.14-.81.42-1.54.92-2.07,1.69-1.45,2.45-5.22,1.25-6.4,4.11-2.9,2.22-5.56,4.88-9.49,5.25-.76,0-1.45-.25-2.05-.71-4.29-3.64-4.39-4.31-.23-8.07,1.22-1.11.81-2.85,2.08-3.76Z"/>
      <path class="cls-44" d="M80.22,108c.97,1.28,1.94,2.56,2.91,3.84-9.73,3.23-19.71,3.85-29.85,2.97,1.14-1.49,1.63-3.55,4.52-1.53,1.02.71,7.16,3.41,5.77-3.49-.23-1.16,1.7-1.88,2.98-2.23,2.57-.69,2.86,1.54,3.72,3.58,2.29-2.77.58-7.76,5.39-8.24,2.44-.25,3.54,1.33,4.56,3.09.6.66.58,1.33,0,1.99Z"/>
      <path class="cls-54" d="M31.24,107.98c2.64,0,5.43.14,4.06-3.97-.94-4.86.62-6.44,6.12-6.23,4.06,1.5,2.23,5.24,3.03,7.98-.06.94-.4,1.74-1.23,2.26-1.3-.5-2.6-.75-1.43,1.26.72,1.24,2.12,2.06,2.42,3.63-4.55-.57-8.88-1.86-12.97-3.94-.34-.22-.45-.44-.34-.66.11-.22.22-.33.34-.33Z"/>
      <path class="cls-4" d="M46.19,4.13c-.04,1.62-.1,3.25-.1,4.87,0,.63.24,1.21-.57,1.62-2.67,1.39-2.66,1.42-.21,3.41-.1,1.58-.89,2.73-2.27,3.49-1.22.98-2.5,1.53-3.99.54-2.27.34-5.17.24-4.56-2.61.56-2.61,1.11-6.67,5.36-6.5,2.05.08,2.66-1.3,3.15-2.38.6-1.31-.95-1.32-1.85-1.54,1.53-1.12,3.28-.99,5.03-.91Z"/>
      <path class="cls-52" d="M94.32,107.09c-1.98-.62-3.85-1.2-1.73-3.79,1.41-1.73-.25-2.48-1.37-3.31,1.6-3.79,5.93-2.92,8.6-4.97.93-.72,1.79.28,1.74,1.5-.1,2.14-.25,4.28-.38,6.42-2.29,1.38-4.58,2.77-6.86,4.15Z"/>
      <path class="cls-50" d="M62.16,4.08c-2.32-.61-1.47-1.47.04-1.63,3.54-.39,7.12-.45,11.83-.7-2.91-.96-5.15-.33-6.8-1.69,5.34.08,10.73-.54,15.98,1.03,1.98,4.55,1.41,5.18-4.98,5.59-.5.04-1.01.08-1.51.13-2.59-.5-5.1.41-7.66.49-1.92-1.89-5.34-.57-6.9-3.22Z"/>
      <path class="cls-53" d="M5.3,51.22c-1.34-.06-2.67-.12-4.01-.18.13-3.9,1.26-7.51,3.04-10.95,5.89.44,5.18,5.25,5.36,8.89.09,1.8-3.16.88-4.39,2.23Z"/>
      <path class="cls-29" d="M77.25,5.02c2.28-.86,6.36,1,5.95-3.93,3.5.51,7.08.75,10.13,2.84-1.81.89-2.58,3.81-5.74,2.1-1.92-1.04-2.23,1.83-3.26,2.94-4.88,1.93-6.38,1.09-7.08-3.95Z"/>
      <path class="cls-45" d="M131.11,66.01c-1.16-.89-1.61-1.95-1.14-3.44.29-.94,1.53-2.2-.23-2.87-1.26-.48-2.61-.3-3.49,1-.37.54-.65,1.15-1.07,1.64-.85.99-1.67,2.15-3.24,1.65-.4-.13-.89-.6-.96-.99-.32-1.86,1.02-1.98,2.38-2.32,1.87-.46,1.4-2.35,1.84-3.66,1.38-.78,2.15.24,3.02,1,2.99.06,4.08-1.56,3.92-4.37-.09-1.59-.64-3.31.91-4.6.21,5.75.67,11.52-1.94,16.95Z"/>
      <path class="cls-66" d="M6.41,83.06c3.67-2.39-.27-4.92.11-7.39.14-.87-1.05-1.98.12-2.61.96-.52,1.75.55,2.6.96.19.26.38.53.57.78,4.26,5.67,3.87,7.29-2.73,11.26-.23-1-.45-2-.68-3Z"/>
      <path class="cls-36" d="M31.24,107.98c0,.33,0,.66,0,.98-1.68-.96-3.37-1.93-5.05-2.89,1.08-.97,2.17-1.94,3.47-3.1,1.15,1.66.07,3.8,1.58,5.01Z"/>
      <path class="cls-66" d="M118.28,20.01c-3.11-.44-4.96-3.03-7.66-4.17.75-1.53,1.86-.73,2.75-.87,1.99,1.34,3.75,2.9,4.91,5.04Z"/>
      <path class="cls-61" d="M112.18,59.02c1.63.54,1.01,4.25,4.47,2.69,1.71-.77,4.85,5.53,3.67,7.31-.51.77-1.12,1.12-1.94.25-3.2-3.39-2.97-.35-3.23,1.74-3.15,2.81-7.66.68-10.94,3.02-4.98-1.29-4.71,1.68-4.04,4.98-1.65,2.98-4.51,1.78-6.95,2.02-1.73,0-3.42.19-4.99.99-2.5.44-4.58-.56-6.43-2.07-1.27-1.04-2.05-2.66-.65-3.85,2.02-1.73-.78-.08-.32-.54-3.29-2.16-.3-3.95.34-5.88,2.54-1.96,6.23-2.13,8.02-5.21.44-2.32-2.18-4.43-.45-6.8,1.04-2.56.6-5.97,4.11-7.1,1.83-.11,3.68-.09,4.99,1.42,1.87,2.16,4.56,2.41,7.02,3.18.39.27.66.64.81,1.09.14,1.33-.04,2.6-.49,3.88-.21.6-1.38.6-.89,1.49.07.13.69.27.9.19.84-.31,1.09-.91.75-1.81-.54-1.44-.29-2.9.09-4.34,3.71-1.96,5.57-.48,6.16,3.33Z"/>
      <path class="cls-61" d="M77.19,82.01c-1.93,1.58-3.28,4.89-6.67,2.02-.75-.64-.99-.36-1.3,2.16.84,1.13.32,1.85-.73,2.41-2.84.34-3.32-2.58-5.11-3.7-1.64-2.44,0-4.49.73-6.62-.08.03-.09-.34-.16-.31-.48-.5-.92-.99-1.2-1.61-.99-1.73-2.51-4.07-.34-5.22,3.09-1.64,5.33-5.3,9.2-4.95,2.96.27,2.74,3.22,3.1,5.44-.02,2.62.11,5.1,2.47,6.98,1.06.85,1.21,2.26.02,3.4Z"/>
      <path class="cls-9" d="M77.19,82.01c-.39-1.61-2.2-1.3-3.03-2.17-2.19-2.31-4.49-4.77-.94-7.83,3.16-4.64,5.62-4.87,8.91-.85.56,1.16-.54,1.78-.92,2.7,1.08,1.25,2.47-.01,3.67.44,1.26.47,2.43.99,3.3,2.17-1.78,2.26-3.87-.67-5.85.34.46,3.52,4.87,2.5,5.88,5.21,0,.33,0,.65,0,.98-1.13,1.2-2.07.13-3.05-.27-1.38-.56-2.76-1.23-3.97.3-1.34-.34-2.67-.68-4.01-1.02Z"/>
      <path class="cls-5" d="M93.21,81.04c1.6-3.15,4.27-2.59,6.95-2.02.94,1.56,1.89,3.13,2.83,4.69,1.37,2.26,1.34,3.69-1.88,3.84-1.09.05-4.04-.12-1.38,2.43-1.13,1.17-2.11,2.98-3.86,2.77-1.58-.19-.99-1.71-.69-2.86.15-.57.03-1.75-.19-1.8-4.94-1.29-1.79-4.57-1.78-7.05Z"/>
      <path class="cls-38" d="M112.18,59.02c-1.59-1.77-3.98-1.96-5.94-3.01-.36.7-.7.69-1.03-.02h.03c-.69-1.15-.77-2.01.97-1.96,2.8-1.92,5.6-3.83,8.81-6.03.55,3.27-2.54,5.28-1.79,8.06-.35.99-.71,1.97-1.06,2.96Z"/>
      <path class="cls-3" d="M104.2,74.04c2.98-3.41,6.87-3.57,10.94-3.02-.76,2.86-1.8,4.95-5.51,3.51-1.63-.63-3.61-.35-5.43-.49Z"/>
      <path class="cls-37" d="M68.37,88.05c.29-.62.57-1.24.86-1.86,3.52.93,4.17,3.97,5.02,6.86-1.67-.72-3.33-1.6-5.02-.03-1.28-1.48-2.15-3.04-.87-4.97Z"/>
      <path class="cls-19" d="M128.23,58.03c-1.01-.33-2.01-.67-3.02-1-1.43-2.48-2.06-4.79,1.89-6.57-.43,2.88.25,5.25,1.13,7.57Z"/>
      <path class="cls-35" d="M77.79,84.8c1.31.38,1.47,1.65,1.82,2.65.47,1.33-.45,1.83-1.59,1.65-.93-.15-2.74.5-2.16-1.6.29-1.06.58-2.27,1.93-2.7Z"/>
      <path class="cls-61" d="M81.2,83.03c.21-1.87.92-2.78,2.93-1.74,1.31.68,2.72,1.15,4.09,1.71.38.88.75,1.77,1.13,2.65-2.59-1.62-5.11-2.88-8.15-2.62Z"/>
      <path class="cls-19" d="M87.69,91.58c2.04-.81,3.22-2.44,4.82-.87.33.32.37,1.54.07,1.8-1.52,1.32-2.89.51-4.9-.93Z"/>
      <path class="cls-64" d="M108.16,24.99c.35.37.71.73,1.06,1.1,0,.32-.01.64-.01.95,1.71,2.02,5.18,3.54,2.01,6.97-.02.7-.03,1.41-.05,2.11-.03.88-.33,1.67-.74,2.44-.26.35-.56.66-.89.94-1.01.86-2.16,1.54-3.11,2.47-3.5,3.88-6.05,4.26-11.18,1.67-3.81-4.08-3.82-4.25.51-7.82.94-.77,1.48-1.69,1.74-2.84.36-2.1,1.54-3.16,3.72-2.95,2.72-.81,3.01-4.58,6.05-5,.28-.48.58-.5.91-.05Z"/>
      <path class="cls-48" d="M97.22,41.04c.51.64,1.02,1.28,1.53,1.91,1.48-4.23,5.22.02,7.3-1.95,1.21-.63,2.19-.81,2.13,1.08,3.04,5.54-2.91,5.55-4.91,7.99-.75.29-1.51.32-2.26-.01-.68-.47-1.32-.97-2.07-1.32-4.38-2.08-4.74-3.71-1.72-7.7Z"/>
      <path class="cls-9" d="M102.18,48.96c.36.37.72.74,1.08,1.11-.68,2.57,2.04,2.59,2.96,3.96-.33.65-.65,1.31-.98,1.96-3.8,2.28-7.14,2.37-9.32-2.16-.58-1.21-1.34-1.84-2.65-1.84-.46-.74-.2-1.38.25-2.01,2.71-1.81,5.59-2.16,8.64-1.03Z"/>
      <path class="cls-54" d="M111.22,34.02c-.67-2.32-1.34-4.65-2.01-6.97,2.07.4,4.44.34,6.1,1.4.93.59,1.31,3.28.81,4.6-.85,2.26-3.23.62-4.9.97Z"/>
      <path class="cls-27" d="M108.17,42.08c-.71-.36-1.42-.72-2.12-1.08,1.05-.98,2.1-1.96,3.15-2.94,0,0,.04-.04.04-.04.65-.63,1.29-1.26,1.94-1.89,0,0,.04-.09.04-.09,1.23,2.59.42,4.53-1.91,5.99-.38.02-.76.03-1.13.05Z"/>
      <path class="cls-24" d="M109.3,42.03c1.09-1.85,2.15-3.71,1.91-5.99,1.52,2.68,1.29,4.81-1.91,5.99Z"/>
      <path class="cls-10" d="M41.2,98.97c-2.82.69-4.92,2.21-5.9,5.05-1.6-.85-4.03-.95-3.07-3.93.48-1.5-.88-2.3-1.89-3.11-.99-.95-.94-1.94-.11-2.95.05-2.19,2.58-4.57-.72-6.67-.98,1.63-1.49,4.29-4.38,2.76-.32.27-.62.24-.91-.05,2.56-1.6,3.5-3.46.69-5.64-1.8-1.4-.41-4.33-2.76-5.38-.97-.96-.95-2.03-.37-3.16,1.1-1.15,2.38-1.27,3.79-.65,2.48,3.75,7.31,3.23,10.47,5.75,3.14,2.71,5.9,1.04,8.44-.93.8-.62,1.08-1.94,2.28-2.31,1.77-.59,3.29.3,4.86.82,1.45.47,3.1,1.1,3.42,2.6.71,3.34,2.99,2.18,4.96,2.08.48.1.95.22,1.42.33,2.76,1.29,6.56,1.82,4.79,6.46-.78,1.24-2.01,1.77-3.34,1.45-5.2-1.25-7.88,2.2-10.65,5.53-1.27.09-2.33.37-1.99,2.03-1.22,1.98-3.08,2.76-5.04,1.61-2.46-1.44-2.84-3.84-1.82-6.45,1.27-1.28,2.77-2.38,3.39-3.95-.72,1.16-1.49,2.55-2.95,3.34-1.76,1.35-.03,4.42-2.63,5.36Z"/>
      <path class="cls-11" d="M52.23,97.02c-1.64-2.73-2.94-5.34,2.07-5.65.28-.02.64-.29.79-.55,2.93-4.82,6.4-3.08,9.92-.85,1.9.16,3.37.63,2.22,3.03,1.02,3.23.35,5.73-3.04,7.06-3.55-.39-6.68-2.17-10.08-3.08-.63.01-1.26.02-1.89.04Z"/>
      <path class="cls-44" d="M41.2,98.97c.25-2.11.73-4.14,2.06-5.87.45.16.75.47.93.9-.35,4.52,2.06,5.73,6.05,5.05.52,1.28.18,2.55-.08,3.81-.59,2.03-3.37,1.87-3.94,3.92-1.31,1.02-2.24.55-2.96-.76-.69-2.35-1.37-4.71-2.06-7.06Z"/>
      <path class="cls-49" d="M62.27,101.03c-.96,1.62-.6,4.74-3.97,3.65-3.08-1-2.58-3.36-2.01-5.7,3.02-2.32,4.52-.17,5.98,2.05Z"/>
      <path class="cls-52" d="M67.23,93c-.74-1.01-1.47-2.02-2.21-3.03,1.49-4.63-2.4-4.06-4.78-4.96.75-2.76,2.35-1.96,4.01-.97,2.73-.07,2.85,2.56,4.12,4,.92,1.55,1.4,3.17.87,4.97-.67,0-1.33,0-2-.01Z"/>
      <path class="cls-35" d="M45.26,105.98c.24-3.22,2.51-3.26,4.89-3.12,1.26,1.85,3.16,3.48,2.14,6.13-2.39-.9-6.54,2.31-7.03-3.01Z"/>
      <path class="cls-40" d="M45.26,105.98c1.81,2.25,5.44.26,7.03,3.01-3.3,2.28-6.38,2.5-9.08-.96.01-.67.02-1.33.03-2,.67-.02,1.34-.03,2.01-.05Z"/>
      <path class="cls-52" d="M62.27,101.03c-2.16-.2-3.56-2.6-5.98-2.05-1.04-.32-1.77-.97-2.16-2,4.06-1.28,7.28.2,10.07,3.08-.64.32-1.29.64-1.93.96Z"/>
      <path class="cls-23" d="M80.22,108c0-.66,0-1.33,0-1.99,2.37-.35,4.73-.69,8.13-1.19-2.62,3.42-5.85,2.04-8.13,3.18Z"/>
      <path class="cls-47" d="M22.24,32.04c.34-.67.68-1.34,1.02-2.01.34-.35.74-.54,1.22-.59,1.37.32,2.58.97,3.72,1.79,1.26,2.37,3.52,3.34,5.86,4.23.46.13.9.29,1.34.49,1.62,1.66,5.01,1.23,5.27,4.48-.35,6.41-4.14,10.32-10.51,10.74-1.47.1-2.77,1.05-4.3.71-.49-.13-.92-.37-1.28-.72-.86-2.36-.19-5.23-2.33-7.18-1.19-2.56-3.2-3.86-6.02-3.93,1.01-1,2.01-2,3.02-3,.78-1.79,1.74-3.48,2.99-4.99Z"/>
      <path class="cls-4" d="M16.26,74.98c-1.08-4.52-.56-9.18-2.33-13.78-1.44-3.73-1.38-8.54-.41-12.49.59-2.39,4.8-2.68,7.52-3.62,3.96.13,3.19,3.64,4.19,5.88l.03.07c2,1.46,1.6,3.18.55,4.96-.27.42-.62.78-1.03,1.06-1.61.58-3.37,1-3.56,3.16.11.41.18.81.31,1.21,1.99,2.34-.77,5.39,1.22,7.73.09,2.41.67,4.94-1.73,6.69-1.72.39-3.37.49-4.76-.88Z"/>
      <path class="cls-34" d="M16.26,74.98c1.65-.02,3.29-.05,4.94-.07.62.12.97.5,1.06,1.12-.03,1-.06,2.01-.09,3.01-1.3.99-2.59,1.99-3.89,2.98-.48-2.4-.18-5.02-2.01-7.04Z"/>
      <path class="cls-39" d="M25.22,50.97c-1.97-1.55-3.15-3.66-4.19-5.88.41-.38.81-.75,1.22-1.13,4.62.79,3.79,3.9,2.97,7Z"/>
      <path class="cls-60" d="M14.23,91.02c-.32,0-.65,0-.97-.02-3-2.6-.28-4.1,1.32-6.12,1.08,2.25-.5,4.17-.35,6.14Z"/>
      <path class="cls-19" d="M77.25,5.02c1.55,2.77,4.69,2.69,7.08,3.95-.05.34-.1.68-.15,1.02.34,2.36,1.81,1.46,3.11,1.09,1.65,2.49,2.88,5.03.95,7.94-1.94,3.28-4.67-.12-6.89.82-1.41.28-2.82.31-4.25.78-2.64.86-5.73.32-6.44-2.57-.7-2.87-3.36-6.74,1.54-8.87,1.98-.75,2.8-2.63,3.99-4.14.35,0,.7-.02,1.06-.03Z"/>
      <path class="cls-36" d="M81.22,18.05c2.73-2.49,4.64.92,7.02.98,1.66.02,3.31.04,4.97.05.26.22.34.43.25.64-.09.21-.18.31-.27.31-.58,1.89-2.72.54-3.63,1.73-.8,1.07,4.36,2.53-.22,3.33-1.01.61-2.05,1.07-3.26.62-1.48-.79-2.95-1.08-4.41.08-.5.1-.98.09-1.47-.04-1.62-.71-2.24-2.02-2.22-3.71.29-1.96,2.14-2.67,3.23-3.99Z"/>
      <path class="cls-2" d="M93.2,20.03c.01-.32.02-.63.02-.95,0-.31-.01-.63-.02-.94.4-1.23.36-2.53.56-3.78.35-2.22,1.43-1.63,2.45-.34.36,1.02,1.06,1.69,2.08,2.03,2.99-1.18,4.71-.7,3.94,3.02-.28,3.5-2.92,2.5-4.85,2.33-1.42-.12-2.78-.89-4.17-1.37Z"/>
      <path class="cls-20" d="M101.21,30.04c-1.1,1.12-2,2.34-1.98,4.01-2.27.87-4.2,3.15-7.03,1.63-2.06-2.27-.36-3.88.98-5.56.66-.68,1.32-1.36,1.97-2.04,1.5-.29,1.77-3.18,4.01-1.92.68,1.29,1.36,2.58,2.04,3.87Z"/>
      <path class="cls-27" d="M93.17,30.13c.39,1.58-1.32,3.23.16,4.78.65,2.99-1.83,3.77-3.58,5.06-3.64.1-4.05-3.27-5.7-5.3-.55-1.28-.42-2.46.48-3.55.86-.68,1.73-.9,2.63-.06,2.36,2.02,3.93-1.09,6.01-.92Z"/>
      <path class="cls-8" d="M87.17,31.05c-.65.34-1.3.67-1.96,1.01-2.34,1.25-3.85-.09-4.94-1.86-1.17-1.88-1.2-3.79.98-5.15h-.04c1.46-1.66,3.65.38,5.16-1,.99.34,1.99.69,2.98,1.03-1.47,1.72-1.25,4.05-2.18,5.96Z"/>
      <path class="cls-60" d="M102.21,19.07c-.42-2.17-1.96-2.89-3.95-3.02.2-3.38,3.35-3.04,4.54-2.27,2.31,1.49,1.34,3.69-.6,5.29Z"/>
      <path class="cls-29" d="M87.29,11.08c-1.31,3.18-3.68,2.46-6.13,2,.08-2.3,1.64-2.59,3.02-3.08,1.04.36,2.07.73,3.11,1.09Z"/>
      <path class="cls-64" d="M99.16,26.17c-1.79-.3-.82,5.17-4.01,1.92.55-2.06,1.93-3.58,3.98-3.52,1.88.05.97,1.02.03,1.6Z"/>
      <path class="cls-54" d="M96.19,14.02c-3-.08-1.51,3.1-3,4.11-.6-2.11.53-4.58-2.11-6.77,2.88-.07,4.43.48,5.11,2.66Z"/>
      <path class="cls-54" d="M108.16,24.99c-.3.03-.6.05-.91.05.08-.41.16-.82.24-1.23.22.39.44.79.66,1.18Z"/>
      <path class="cls-18" d="M26.3,25c1.98.71,1.89-1.41,2.81-2.13,1.86-1.45,3.11-5.76,5.68-.26.9,1.92,3.58-.29,5.45-.56,2.6.04,2.19,3.2,4.11,3.95.92.81,2.16,1.15,2.98,2.09,1.07,1.38,1.1,2.95.81,4.57-.13.51-.27,1.03-.4,1.54-.07.25-.13.51-.2.76-.14.22-.28.44-.41.66-.35.37-.77.63-1.26.79-3.82,1.13-7.67,2-11.64.64h0c-3.03-.45-3.88-3.33-5.72-5.11-1.16-1.96-3.83-2.92-3.82-5.67.28-.74.81-1.16,1.6-1.26Z"/>
      <path class="cls-3" d="M43.25,27.06c-2.99-.48-2.47-3.07-3.01-5.01.57-1.61-.87-2.63-1.18-3.99,1.06-.67,2.12-1.35,3.18-2.02,3.39.46,5.49,2.47,5.28,5.8-.15,2.35-.81,5.16-4.27,5.22Z"/>
      <path class="cls-37" d="M26.3,25c-.36.36-.72.71-1.08,1.07-.37,1.19.47,1.28,1.29,1.54,1.56.49,1.57,1.79.86,2.78-1.06,1.48-2.24,1.03-3.15-.37-.32,0-.63,0-.95,0-2.54-3.21-.28-6.75-.53-10.12-.13-1.73,1.69-1.1,2.47-.1,1.17,1.51,1.47,3.3,1.1,5.19Z"/>
      <path class="cls-13" d="M22.24,32.04c.19,2.38,2.8,6.19-2.99,4.99-2.21-3.58-.21-4.65,2.99-4.99Z"/>
      <path class="cls-36" d="M30.24,94.02c.04.98.07,1.97.11,2.95-1.93,2.28-4.38,2.64-7.28,1.74,3.24-.36,3.67-4.73,7.17-4.69Z"/>
      <path class="cls-9" d="M24.23,90.06c.3.02.61.04.91.05-.27,1.12-.55,2.24-.82,3.36-.34,1.42-1.34,1.84-2.62,1.53-.58-.14-1.42-.54-1.54-.98-.55-2.03,1.43-1.14,2.14-1.75.74-.62,1.29-1.47,1.92-2.21Z"/>
      <path class="cls-42" d="M46.26,33.03c-.03-1.42-.2-2.8-1.06-3.99-.34-.36-.84-.96-.63-1.26,2.8-4.03,2.06-8.47,1.59-12.88,3.58-.55,5.67-3.9,9.05-4.81,3.07-.48,6.03-1.18,8.25-3.6,1.81-.76,3.51-.61,5.05.66,2.84,2.65.87,4.96-.42,7.42-1.11,2.12-3.73,3.39-3.48,6.17.18.7.79.32,1.24.39.49.04.91.19,1.31.43,2.01,1.89,4.36,3.59,3.53,6.91-.05,2.86-2.84,3.22-4.34,4.76-3.66,1.1-4.91,3.85-5.02,7.38-.84.89-1.83,1.57-2.83,2.26-3.41.92-4.32-2.65-6.64-3.69-2.26-1.69-3.98-3.88-5.61-6.15Z"/>
      <path class="cls-59" d="M46.16,14.9c1.34,1.93,3.34,1.53,5.64,1.32-4.21,2.88-4.04,6.25-1.05,10.84-3.44-1.45-5.63-1.54-5.55,1.97-.96-.35-1.62-1-1.95-1.97,3.91-4.06.02-7.41-1.01-11.02,1.02-.67,2.05-1.34,3.07-2.01.28.29.57.58.85.86Z"/>
      <path class="cls-43" d="M63.45,8.08c-1.31,4.19-3.65,4.76-8.23,2.01,1.24-2.45,3.75-3.03,5.96-4.05,1.3.08,2.46.32,2.27,2.04Z"/>
      <path class="cls-14" d="M63.45,8.08c-.76-.68-1.52-1.36-2.27-2.04.33-.65.66-1.3.98-1.96,2.77-.86,5.26-.69,7.06,1.96.55.57.8,1.24.67,2.03-.31.74-.73,1.29-1.66.99-1.45-1.01-3.12-1.01-4.78-.97Z"/>
      <path class="cls-43" d="M69.27,8.01c-.01-.66-.03-1.31-.04-1.97,2.09-2,4.5-1.72,6.97-1,.65,2.82.97,5.47-2.98,6.01-.89-1.57-3.03-1.52-3.95-3.05Z"/>
      <path class="cls-63" d="M82.13,71.16c-2.99.05-6.05-.65-8.91.85-.57-1.35-1.15-2.7-1.88-4.43-2.52,1.76-3.4,5.2-7.14,4.92-1.16-.09.29,2.26.02,3.5-.32.62-.32,1.38-.87,1.89-6.34,1.83-6.41,1.85-7.51-4.79-.31-1.89-1.65-3.13-2.34-4.76-.41-.85-.91-1.68-.83-2.68-.1-3.51.13-6.8,4.71-7.31q4.84,1.91,4.36-4.03c-.2-1.73.16-3.3,1.27-4.67.29-.37.65-.68,1.07-.91,1.74-.45,2.38-2.01,3.32-3.29,2.31-1.44,4.36-3.93,7.55-1.99,2.84,2.57,4.95,5.21,1.61,8.99-1,1.12-.42,2.43.64,3.42.82.84,1.58,1.8,1.49,2.99-.28,3.54,1.78,3.21,4.08,2.58,5.44-1.45,8.93.86,8.46,5.58-3.47.41-5.53,3.95-9.11,4.14Z"/>
      <path class="cls-2" d="M94.26,50.97c-.33.34-.65.69-.98,1.03-1.02,1.98-2.03,3.95-3.05,5.93-2.09,1.47-3.75-.19-5.38-.95-1.64-.76-3.17-1.6-5.03-1.62-3.26-2.64-2.88-5.29,1.34-9.59,3.41.07,6.09-2.08,9.18-3.03,5.3,2.28,6.16,4.09,3.92,8.22Z"/>
      <path class="cls-52" d="M80.3,53.98c1.96-1.59,3.67-3.57,5.19.71.52,1.46,3.11,2.18,4.75,3.24-1.2,2.68,1.11,3.88,2.45,5.3,2.38,2.51.95,3.26-1.44,3.79-.34-1.47-1.06-2.73-2.34-3.55-.93-.59-1.99-1.5-3.09-.9-1.35.73.65,2.05-.3,3.1-1.6-.01-1.64-1.64-2.42-2.5q-4.71-.61-4.11-7.64c.36-.58.9-1.01,1.31-1.55Z"/>
      <path class="cls-15" d="M105.21,55.99c.34,0,.68.01,1.03.02.11.82.08,1.7.37,2.45.5,1.29.32,3.09.05,4.22-.25,1.04.18,2.24.39,4.11-1.55-1.47-1.98-5.63-4.61-1.85-.49.71-1.89.84-2.74.08-1.33-1.19-.78-2.99-.46-4.19.75-2.75,1.42.41,2.23.25,2.8-.55,3.55-2.61,3.74-5.08Z"/>
      <path class="cls-10" d="M63.16,77.06c.36-.35.72-.71,1.08-1.06.66.33,1.32.67,1.98,1h.03c1.3,2.91-1.82,4.56-2,7.04-1.4.03-2.81.09-4.01.97,0,0,0,0,0,0-2.34-.16-4.18-1.03-4.02-3.7.14-2.27,1.85-2.81,3.87-2.82,1.19,0,2.09-.87,3.07-1.44Z"/>
      <path class="cls-63" d="M66.21,77l-.13-.88c.18.03.35.06.53.09-.12.27-.25.53-.37.8,0,0-.03-.01-.03-.01Z"/>
      <path class="cls-21" d="M94.26,50.97c0-1.1.51-3.19-.55-3.06-3.44.41-1.62-3.07-3.24-3.8-1.37-.15-2.55-.58-3.04-2.04-.28-1.55.67-2.43,1.76-3.24.49-2.24,3-2.37,4.15-3.92,1.76-1.69,3.73-1.92,5.89-.85q-.63,4.21-4.86,5.44c.54,1.28,2,.86,2.85,1.55-1,4.3,2.38,5.86,4.96,7.92-2.64.67-5.28,1.34-7.92,2.01Z"/>
      <path class="cls-64" d="M109.23,38.02s-.04.04-.04.04.04-.04.04-.04Z"/>
      <path class="cls-2" d="M54.23,65.03c.33.66.66,1.33.99,1.99.66,2.46.14,5,.62,7.53.63,3.27-1.48,4.94-4.61,5.39-1.66.91-2.92.17-4.09-.98-.98-.34-1.41.45-2.01.94-4.36,3.55-6.27,3.58-10.74.18-.35-.68-.45-1.39-.29-2.14.66-1.87,2.8-2.49,3.58-4.27,2.18-2.21,2.45-5.94,5.72-7.32,2.46-.42,1.95-3.69,4.17-4.35,2.85-.37,5.3.14,6.66,3.02Z"/>
      <path class="cls-61" d="M51.23,79.95c2.45-3.19,3.71-6.06-.71-8.98-1.72-1.14-1.08-3.02,1.42-3.11,1.17-.04,2.29-.13,3.28-.83,2.7.39,3.55,1.96,2.92,4.52-1.08,4.33.05,6.68,5.02,5.52-1.28,1.05-.65,3.15-3.76,3.57-3.32.45-.72,3.02.83,4.38-2.59.95-5.17,1.9-8.29,3.05.82-3.02,2.53-5.95-.71-8.12Z"/>
      <path class="cls-42" d="M22.25,76.02c-.35-.37-.7-.74-1.06-1.11-1.03-2.01-.87-4,.06-5.98-.66-2.82,1.2-4.57,3.29-3.9,2.55.81,5.09.06,7.49.92,1.62.83,2.7,1.98,2.4,3.96-.7,1.81-1.7,3.51-2.82,5.02-1.51,2.05-3.35,4.22-6.39,2.08-1-.33-1.99-.66-2.99-.99Z"/>
      <path class="cls-34" d="M25.24,77.02c3.74-1.08,4.99-5.02,7.98-6.96,3.67,1.85,5.22,4.26,2.06,7.89-.01.68-.03,1.36-.04,2.05.66.72,2.48,1.48-.08,2.08-3.73-.86-8.52.36-9.92-5.06Z"/>
      <path class="cls-54" d="M35.16,82.08c.03-.69.05-1.38.08-2.08,3.69.86,7.31,1.5,10.38-1.69.5-.52,1.23-.07,1.54.65-1.09,2.34-3.87,3.99-2.73,7.28.24.7-.73,1.93-1.92,1.81-1.07-.11-1.12-1.12-1-1.95.34-2.23-.4-2.72-2.43-1.78-2.26,1.05-3.41-.1-3.9-2.26Z"/>
      <path class="cls-60" d="M44.19,94c-.31-.3-.62-.6-.93-.9,1.84-2.18,3.42-4.42,3.15-7.54-.14-1.56,1.16-2.66,2.51-2.47,1.84.26,1.46,2.15,1.09,3.24-1.07,3.15-2.59,6.09-5.81,7.68Z"/>
      <path class="cls-61" d="M53.16,36.96c2.91.48,2.95,3.81,5.06,5.08.77.38,1.2,1.03,1.4,1.84.19.79.1,1.54-.27,2.26-3.27,4.04-5.86,4.47-10.6,1.79-.46-.54-1.05-.75-1.75-.7.59,0,1.13.12,1.58.53.82,1.2,2.25,2.03,2.15,3.78-.08,1.41.9,3.1-.87,4.05-1.38.74-2.53.09-3.51-1.01-2.43-2.71-3.23.43-4.65,1.34-.56.44-1,.99-1.33,1.61-1.02,1.59-2.96,1.29-4.35,2.11-5.54,2.89-6.42,2.62-11.79-3.61.34-1.67.69-3.34,1.03-5.01,1.96-1.69,3.03-3.7,6.93-2.66,2.59.69,5.93-3.57,7.05-7.33,1.04-2.19,2.33-4.11,5.03-4.41,2.98-.31,5.83,2.78,8.89.34Z"/>
      <path class="cls-31" d="M44.28,37.93c-.97,2.19-3.04,2.61-5.05,3.11-.83-2.38-3.6-2.34-5-4,3.21-2.82,7.17-1.61,10.84-2.02.41.18.63.5.68.94-.12.93-.87,1.39-1.46,1.97Z"/>
      <path class="cls-31" d="M29.33,31.09c1.79.75,3.09-.83,4.68-1.16.17,2.49-2.56,4.89.23,7.11-3.96.71-6.53-.54-6.93-4.88.34-.99,1.14-1.1,2.02-1.07Z"/>
      <path class="cls-17" d="M29.33,31.09c-.67.36-1.35.71-2.02,1.07-1.39-.19-2.55-.73-3.1-2.13.64-.04,1.54.18,1.86-.16.87-.93-.08-1.33-.78-1.8-.86-.58-3.11-1.22-.08-1.99,2.1,1.08,3.27,2.91,4.12,5.02Z"/>
      <path class="cls-30" d="M24.22,56.05c1.55-.53,2.8-1.15,4.13.9,1.65,2.55,4.27,2.75,6.89,1.06,2.81,1.39,3.73,4.94,7.18,5.87,1.5.41.76,2.5-.33,3.7-2.1,2.09-2.02,5.03-2.96,7.57-.89,1.48-2.39,2.13-3.85,2.81,1.01-3.07-1.26-5.29-2.06-7.89-.66-1.01-1.32-2.02-1.99-3.04-.34-.34-.7-.94-1.09-.93-4.25.17-7.83-1.34-10.92-4.17,0-.29,0-.58.01-.86-1.02-4.35,2.64-4.07,5.02-5.05l-.03.03Z"/>
      <path class="cls-41" d="M19.23,61.93c1.49.28,3.86-3.05,4.42,1.37.28,2.27,2.41.7,3.73.58,2.35-.22,4.56-.35,3.87,3.14-1.96.41-3.74,1.93-5.94.33-1.87-1.36-2.82.69-4.03,1.57-1.1-1.05-6.8-.36-1.53-3.82,2.6-1.7-3.22-1.69-.5-3.18Z"/>
      <path class="cls-41" d="M24.26,56.02c-1.26,2.09-4.48,2.24-5.02,5.05-1.01-1.79-1.71-3.99-.39-5.5,1.54-1.77,3.52.74,5.4.44Z"/>
      <path class="cls-30" d="M69.27,8.01c2.24-.18,4.96-.98,3.95,3.05-.8.23-2.51.06-1.23,1.55.91,1.05,2.54,1.44,3.23,2.91.03,2.19-3.98-1.17-2.86,1.88.53,1.44,2.65,1.94,4.24,1.06,1.56-.86,2.99-1.23,4.62-.41.86,2.03.3,3.41-1.86,4.06-1.63,4.15-4.53,2.43-7.25,1.59-2.2.3-4.26.11-5.88-1.64h-.02c-.93-.55-2.31.28-2.98-1.01-.72-1.83-1.44-3.67-2.17-5.5,3.98-.4,6.38-2.55,7.17-6.48.34-.35.69-.7,1.03-1.05Z"/>
      <path class="cls-42" d="M71.99,22.05c2.45.6,4.9,1.25,7.37.06.63.98,1.26,1.97,1.89,2.95-.58,3.41,1.13,5.53,3.97,7,.01.62.03,1.23.04,1.85.39.42.47.9.23,1.42-.78,1.38-1.5,2.81-3.32,3.04-1.07.09-2.03-.15-2.8-.93-.99-1.95-2.75-2.74-4.78-3.13-.67-.31-1.19-.78-1.55-1.42-.69-2.07.31-4.55-1.56-6.34-.74-1.61-3.89-3.52.53-4.5Z"/>
      <path class="cls-14" d="M86.37,24.05c-.37,1.41-.73,2.83-1.33,5.15-1.15-2.19-2.06-3.68-3.83-4.13,1.05-3.73,3.02-2.81,5.16-1.02Z"/>
      <path class="cls-7" d="M85.16,35.1c.03-.4.06-.79.09-1.19,2.09,1.02,2.43,3.44,3.94,4.92-.33,1.08-.67,2.16-1,3.24-.45.67-1.1.96-1.89,1-4.19-2.42-4.29-3.17-1.14-7.97Z"/>
      <path class="cls-26" d="M44.28,37.93c.29-.62.59-1.24.88-1.86.29-.34.61-.66.96-.95l.29-.32.2-.29s-.28-.21-.28-.21c-.03-.42-.05-.84-.08-1.27,2.99.1,5.15,1.65,6.9,3.94-.15,1.76-.04,3.67-2.33,4.24-1.98.49-3.4-.35-4.63-1.84-.49-.6-1.26-.97-1.91-1.44Z"/>
      <path class="cls-32" d="M46.34,34.29l.23.22s-.16.28-.16.28c-.03-.17-.06-.33-.07-.5Z"/>
      <path class="cls-55" d="M46.12,35.12c-.32.32-.64.63-.96.95-.03-.35-.06-.7-.09-1.05.35.03.7.06,1.05.1Z"/>
      <path class="cls-30" d="M74.19,31.98c.29.37.57.74.86,1.11,1.3,2.61-.26,4.36-1.85,6.09-1.54.51-3.13.9-4.12,2.38-2.83,4.24-6.78,3.57-10.82,2.43,0-.65-.02-1.3-.03-1.95.38-1,1.05-1.7,2.07-2.07,1.02-3.06,1.38-6.55,5.02-7.95,1.31-1.25,2.62-2.49,3.93-3.74.56-.98,1.41-1.38,2.53-1.24,2.81.66,1.1,3.54,2.41,4.93Z"/>
      <path class="cls-16" d="M72,27.88c-.92.13-1.83.27-2.75.41.62-2.86-2.98-3.69-3.02-6.23,1.92-2.65,3.84-.89,5.76-.01-1.8,2.03.32,2.3,1.37,3.06.59,1.44.33,2.46-1.37,2.78Z"/>
      <path class="cls-36" d="M65.31,32.03c.48.44.95.88,1.43,1.32-3.99.42-2.94,5.74-6.45,6.62-1.49-4.65.83-6.89,5.02-7.95Z"/>
      <path class="cls-16" d="M63.23,21.04c.99.34,1.99.67,2.98,1.01-3.21,4.19-4.37,3.94-7.13-1.57,1.58-1.22,2.74.59,4.14.56Z"/>
      <path class="cls-57" d="M61.48,30.62c-.35,1.16-1.08,2.08-2.28,2.31-1.03.2-1.4-.69-1.42-1.55-.03-1.23.82-1.7,1.9-1.81.83-.09,1.69-.16,1.8,1.05Z"/>
      <path class="cls-33" d="M58.25,43.99c3.02-1.2,7.43-.02,8.3-5.14.09-.52,3.68-.45,5.65-.66.65.33,1.34.55,2.02.8,1.09,1.01,2.47,1.76,2.9,3.35-.11,1.81-.63,3.18-2.89,2.62-2.59-1.05-3.59,2.55-5.99,2.06-.62,1.97-2.81,1.83-4.03,3h.02c-2.53,2.07-5.04,3.11-7.52-.09-.21-.44-.31-.91-.29-1.4.54-1.1-.04-2.46.81-3.49.35-.35.69-.7,1.04-1.05Z"/>
      <path class="cls-1" d="M74.22,44.97c1.1-.66,1.81-1.6,1.98-2.9-.39-1.46.59-1.9,1.68-2.25,1.93.08,3.65.77,5.21,1.88,1.96,2.15,2.37,4.05-.89,5.34-1.48,2.08-2.7,4.23-1.91,6.94.24.13.47.25.7.38-.25.24-.5.47-.75.71-1.12,1.14-2.24,2.28-4.07,1.94-5.04-1.91-5.43-2.57-1.66-6.05,2.83-2.61-.16-4.03-.3-5.99Z"/>
      <path class="cls-33" d="M54.23,65.03c-2.35-.65-4.7-1.31-7.05-1.96-.45-.27-.79-.65-1-1.13-.47-1.83-.28-3.5,1.21-4.85,1.3-.99,3.75-.47,3.67-3.27-.16-5.86-.06-5.86,6.19-4.78l-.02-.02c1.09,1.22.77,2.88,1.31,4.27.09.43.15.86.18,1.29.08,1.49.86,3.12-.84,4.27-.21.06-.43.12-.65.17-2.14,1.43-2.04,3.98-3,6Z"/>
      <path class="cls-33" d="M63.2,54.09c.23,1.43.54,2.85.66,4.28.22,2.65-1.14,4.67-3.58,5.02-3.17.46-2.81-2.33-3.05-4.36,0,0-.01,0-.01,0,3.39-1.62-.73-3.29.04-4.93l-.04-.11c1.34-3.63,2.4-3.61,5.98.09Z"/>
      <path class="cls-16" d="M76.18,57.01c.97-1.46,2.38-1.99,4.07-1.94.6,2.82-.65,6.29,2.84,8.1-3.21,2.24-5.82-.3-8.78-.95.6-1.87,3.36-2.81,1.87-5.21Z"/>
      <path class="cls-56" d="M63.2,54.09c-2.01,1.28-3.94-3.33-5.98-.09-5.24-1.67,1.27-3.31.01-4.97.96.31,2.14,1.71,2.88.19,2.53-5.21,2.8.35,4.12.79-.34,1.36-.68,2.72-1.02,4.08Z"/>
      <path class="cls-56" d="M64.2,50.02c-.61-3.64,2.64-2.07,4.03-3,.19,1.46.38,2.91.58,4.45-2,.58-2.98-1.48-4.61-1.46Z"/>
      <path class="cls-65" d="M82.21,47.04c.63-1.31.99-2.63.14-3.99.51-3.59,2.74-.22,3.95-.98.63,0,1.25,0,1.88,0,.76.68,1.52,1.36,2.28,2.04-2.85.7-4.43,4.99-8.26,2.93Z"/>
      <path class="cls-1" d="M87.39,59.01c.01,1.32-.85,1.72-1.92,1.79-1.05.07-2.11-.18-2.15-1.43-.03-1.1.81-1.82,1.89-1.92,1.11-.11,1.85.5,2.18,1.57Z"/>
      <path class="cls-34" d="M39.13,75.14c-.31-2.34-.88-4.51-4.32-5.03,2.65-1.28,4.53-2.18,6.41-3.09.87-.66,1.78-.93,2.81-.36.43.41.46.85.1,1.32-3.07,1.4-1.91,5.77-5,7.16Z"/>
      <path class="cls-6" d="M44.14,67.98c.04-.32.07-.64.11-.96-1.35-2.4-2.07-4.62,1.6-5.57.5.06.92.27,1.25.65.01.33.04.65.07.98-.16,1.82.08,3.8-.57,5.41-1.12,2.77-1.72.18-2.47-.5Z"/>
      <path class="cls-12" d="M57.24,49.05q-5.13.19-3.84,9.19c-1.76-.18-3.5-.86-5.18-.21-.79.71-2.01,1.1-2.59.37-1.69-2.15-4.27-2.25-6.44-3.27-.48-1.36-1.51-3.26.78-3.51,2.52-.27,5.42-2.51,7.69.62.43.59.04,1.7,1.41,1.96.58-2.19-.47-4.13-.87-6.13-.28-.88-.05-1.3.94-1.02,2.62-.92,6.1,1.62,8.06-2,0,1.33.02,2.67.03,4Z"/>
      <path class="cls-2" d="M46.28,62.07c-1.78,1.2-1.67,3.18-2.03,4.96-1.01,0-2.01,0-3.02,0,.61-1.45.51-2.14-1.42-1.8-5.79,1.03-6.45.2-4.52-5.26.2-.57-.02-1.3-.04-1.95.87-2.04,2.48-1.18,3.92-1,4.74-1.13,6.12-.15,7.11,5.06Z"/>
      <path class="cls-51" d="M46.28,62.07c-1.76-2.55-4.48-3.74-7.11-5.06.01-.63.03-1.25.04-1.88,2.52-2.7,4.76-3.24,6.52.77.46,1.06,1.37,1.77,2.5,2.13-.37,1.36-.75,2.71-1.12,4.07-.28-.01-.55-.02-.83-.03Z"/>
      <path class="cls-25" d="M49.15,47.05c-.31.34-.62.68-.94,1.02-1.28.29-2.57.56-3.85.89-1.11.29-2.86.96-3.15-.04-.41-1.38-.16-3.38.64-4.56.78-1.15,2.3-.39,3.47.52,1.14.89,2.54,1.45,3.83,2.16Z"/>
      <path class="cls-62" d="M72.24,40.07c-.02-.63-.03-1.25-.05-1.88.95-1.7,1.9-3.4,2.85-5.11,1.49-1.05,2.65-3.49,4.87-2.03,1.83,1.21,1.02,3.17.26,4.85-1.4,4.67-3.79,5.92-7.94,4.17Z"/>
      <path class="cls-62" d="M86.31,42.07c-.48,3.72-3.15-1.43-3.96.98-1.35-.67-2.71-1.35-4.07-2.02-.74-3.48,2.94-2.42,4.08-3.97.93-.65,1.86-1.31,2.79-1.96.35,2.33-1.35,4.99,1.15,6.97Z"/>
      <path class="cls-46" d="M82.37,37.06c-.07,2.65-3.26,2.09-4.08,3.97-.69.35-1.39.69-2.08,1.04-1.61-.09-3.21-.21-3.96-2,3.83.87,5.34-2.69,7.94-4.17.73.38,1.46.77,2.18,1.15Z"/>
      <path class="cls-58" d="M72,27.88c.46-.93.91-1.85,1.37-2.78,5,1.73.3,4.61.82,6.87-1.68-.86-1.35-2.79-2.19-4.1Z"/>
      <path class="cls-28" d="M57.25,54.11c.95.88,2,1.68,2.83,2.66,1.02,1.2,1.56,2.87.18,3.89-1.49,1.1-2.03-1.01-3.05-1.62.28-1.64-2.47-3.3.03-4.93Z"/>
    </g>
  </g>
</svg>